%TF.GenerationSoftware,KiCad,Pcbnew,(5.1.6)-1*%
%TF.CreationDate,2020-10-05T10:15:19-05:00*%
%TF.ProjectId,DDD Charm,44444420-4368-4617-926d-2e6b69636164,rev?*%
%TF.SameCoordinates,Original*%
%TF.FileFunction,Copper,L2,Bot*%
%TF.FilePolarity,Positive*%
%FSLAX46Y46*%
G04 Gerber Fmt 4.6, Leading zero omitted, Abs format (unit mm)*
G04 Created by KiCad (PCBNEW (5.1.6)-1) date 2020-10-05 10:15:19*
%MOMM*%
%LPD*%
G01*
G04 APERTURE LIST*
%TA.AperFunction,ComponentPad*%
%ADD10R,2.500000X2.500000*%
%TD*%
%TA.AperFunction,ComponentPad*%
%ADD11C,5.500000*%
%TD*%
%TA.AperFunction,ViaPad*%
%ADD12C,0.800000*%
%TD*%
%TA.AperFunction,Conductor*%
%ADD13C,0.500000*%
%TD*%
%TA.AperFunction,Conductor*%
%ADD14C,0.635000*%
%TD*%
%TA.AperFunction,Conductor*%
%ADD15C,0.254000*%
%TD*%
G04 APERTURE END LIST*
D10*
%TO.P,REF\u002A\u002A,1*%
%TO.N,GND*%
X236700000Y-99300000D03*
%TD*%
D11*
%TO.P,.,*%
%TO.N,GND*%
X230600000Y-101100000D03*
%TD*%
%TO.P,.,*%
%TO.N,O1*%
X209060000Y-111000000D03*
%TD*%
%TO.P,.,*%
%TO.N,O4*%
X306630000Y-122650000D03*
%TD*%
%TO.P,.,1*%
%TO.N,GND*%
%TA.AperFunction,ComponentPad*%
G36*
G01*
X241660953Y-103056644D02*
X243020596Y-102422633D01*
G75*
G02*
X243352694Y-102543507I105612J-226486D01*
G01*
X243859921Y-103631257D01*
G75*
G02*
X243739047Y-103963355I-226486J-105612D01*
G01*
X242379404Y-104597367D01*
G75*
G02*
X242047306Y-104476493I-105612J226486D01*
G01*
X241540079Y-103388743D01*
G75*
G02*
X241660953Y-103056645I226486J105612D01*
G01*
G37*
%TD.AperFunction*%
%TO.P,.,2*%
%TO.N,PWR*%
%TA.AperFunction,ComponentPad*%
G36*
G01*
X243261374Y-105068800D02*
X243533266Y-104942014D01*
G75*
G02*
X244662854Y-105353150I359226J-770362D01*
G01*
X244662854Y-105353150D01*
G75*
G02*
X244251718Y-106482738I-770362J-359226D01*
G01*
X243979826Y-106609524D01*
G75*
G02*
X242850238Y-106198388I-359226J770362D01*
G01*
X242850238Y-106198388D01*
G75*
G02*
X243261374Y-105068800I770362J359226D01*
G01*
G37*
%TD.AperFunction*%
%TD*%
%TO.P,.,*%
%TO.N,I1*%
X252020000Y-103980000D03*
%TD*%
%TO.P,.,*%
%TO.N,I2*%
X263670000Y-103980000D03*
%TD*%
%TO.P,.,*%
%TO.N,I4*%
X263670000Y-129580000D03*
%TD*%
%TO.P,.,*%
%TO.N,I3*%
X252020000Y-129580000D03*
%TD*%
%TO.P,.,*%
%TO.N,O2*%
X209060000Y-122650000D03*
%TD*%
%TO.P,.,*%
%TO.N,O3*%
X306630000Y-111000000D03*
%TD*%
D12*
%TO.N,J2*%
X262053289Y-123686711D03*
%TO.N,J1*%
X253550000Y-120360000D03*
%TO.N,J2*%
X262080000Y-113700000D03*
%TO.N,J1*%
X253440000Y-110410000D03*
%TO.N,GND*%
X274370000Y-117650000D03*
X240462000Y-117622000D03*
X240462000Y-103702000D03*
X274350000Y-100840000D03*
%TO.N,PWR*%
X284650423Y-132019577D03*
X231782000Y-132648000D03*
X245230000Y-118220000D03*
X245230000Y-133190000D03*
X284650000Y-117300000D03*
X231782000Y-117622000D03*
X247800000Y-111700000D03*
%TD*%
D13*
%TO.N,J2*%
X262080000Y-113700000D02*
X262053289Y-123686711D01*
%TO.N,J1*%
X253440000Y-110410000D02*
X253550000Y-120360000D01*
%TO.N,GND*%
X240462000Y-117622000D02*
X240462000Y-103702000D01*
D14*
X274350000Y-100840000D02*
X274370000Y-117650000D01*
%TO.N,PWR*%
X245230000Y-118220000D02*
X245230000Y-133190000D01*
X284650423Y-132019577D02*
X284650000Y-131701220D01*
X284650000Y-131701220D02*
X284650000Y-117300000D01*
X231782000Y-117622000D02*
X231782000Y-132648000D01*
X245926906Y-108160442D02*
X243756546Y-105775769D01*
X246008268Y-108252441D02*
X245926906Y-108160442D01*
X246236152Y-108541838D02*
X246162954Y-108443217D01*
X246306506Y-108642507D02*
X246236152Y-108541838D01*
X246086972Y-108346726D02*
X246008268Y-108252441D01*
X246373958Y-108745142D02*
X246306506Y-108642507D01*
X246438454Y-108849661D02*
X246373958Y-108745142D01*
X246499942Y-108955977D02*
X246438454Y-108849661D01*
X246878058Y-109860564D02*
X246842227Y-109743090D01*
X246842227Y-109743090D02*
X246803060Y-109626686D01*
X246714843Y-109397468D02*
X246665866Y-109284840D01*
X247800000Y-111700000D02*
X246878058Y-109860564D01*
X246803060Y-109626686D02*
X246760587Y-109511448D01*
X246760587Y-109511448D02*
X246714843Y-109397468D01*
X246665866Y-109284840D02*
X246613694Y-109173655D01*
X246613694Y-109173655D02*
X246558371Y-109064004D01*
X246162954Y-108443217D02*
X246086972Y-108346726D01*
X246558371Y-109064004D02*
X246499942Y-108955977D01*
%TD*%
D15*
%TO.N,PWR*%
G36*
X232757942Y-115242887D02*
G01*
X232764098Y-115244331D01*
X233000884Y-115293661D01*
X233172742Y-115338887D01*
X233253128Y-115382734D01*
X233330197Y-115459803D01*
X233333858Y-115463320D01*
X233458369Y-115578253D01*
X233495297Y-115621402D01*
X233542968Y-115719724D01*
X233719523Y-116200346D01*
X233818348Y-116526468D01*
X233984049Y-117082053D01*
X234032900Y-117941837D01*
X234003088Y-119015080D01*
X233953155Y-120023721D01*
X233953070Y-120025769D01*
X233913087Y-121225259D01*
X233853115Y-122634601D01*
X233853021Y-122637691D01*
X233823042Y-124286559D01*
X233793099Y-125114974D01*
X233753244Y-126121320D01*
X233713600Y-126527668D01*
X233713010Y-126541607D01*
X233723010Y-127331607D01*
X233723068Y-127334162D01*
X233763068Y-128554162D01*
X233763281Y-128558448D01*
X233843281Y-129758448D01*
X233843404Y-129760128D01*
X233883404Y-130260128D01*
X233883415Y-130260264D01*
X233913415Y-130630264D01*
X233914144Y-130637008D01*
X233963594Y-131002938D01*
X233993000Y-131424424D01*
X233993000Y-132294567D01*
X233964406Y-132628162D01*
X233790153Y-133286452D01*
X233656317Y-133571970D01*
X233291213Y-133891436D01*
X232710368Y-134144384D01*
X231983511Y-134182640D01*
X231278542Y-134106427D01*
X230723825Y-133805564D01*
X230145275Y-133283920D01*
X229719977Y-132317333D01*
X229455255Y-131356491D01*
X229376337Y-130587042D01*
X229372243Y-130565565D01*
X229175837Y-129868324D01*
X229086792Y-128532647D01*
X229016903Y-127104917D01*
X228966938Y-125506033D01*
X228966902Y-125505023D01*
X228907000Y-123977522D01*
X228907000Y-122340787D01*
X228926939Y-120745706D01*
X229016619Y-119589824D01*
X229016885Y-119585399D01*
X229036644Y-119121056D01*
X229125030Y-118453254D01*
X229251648Y-117927304D01*
X229515249Y-117224367D01*
X229846813Y-116649005D01*
X230319902Y-115992474D01*
X230857255Y-115627841D01*
X231262391Y-115396335D01*
X231794959Y-115215642D01*
X232234140Y-115187000D01*
X232543708Y-115187000D01*
X232757942Y-115242887D01*
G37*
X232757942Y-115242887D02*
X232764098Y-115244331D01*
X233000884Y-115293661D01*
X233172742Y-115338887D01*
X233253128Y-115382734D01*
X233330197Y-115459803D01*
X233333858Y-115463320D01*
X233458369Y-115578253D01*
X233495297Y-115621402D01*
X233542968Y-115719724D01*
X233719523Y-116200346D01*
X233818348Y-116526468D01*
X233984049Y-117082053D01*
X234032900Y-117941837D01*
X234003088Y-119015080D01*
X233953155Y-120023721D01*
X233953070Y-120025769D01*
X233913087Y-121225259D01*
X233853115Y-122634601D01*
X233853021Y-122637691D01*
X233823042Y-124286559D01*
X233793099Y-125114974D01*
X233753244Y-126121320D01*
X233713600Y-126527668D01*
X233713010Y-126541607D01*
X233723010Y-127331607D01*
X233723068Y-127334162D01*
X233763068Y-128554162D01*
X233763281Y-128558448D01*
X233843281Y-129758448D01*
X233843404Y-129760128D01*
X233883404Y-130260128D01*
X233883415Y-130260264D01*
X233913415Y-130630264D01*
X233914144Y-130637008D01*
X233963594Y-131002938D01*
X233993000Y-131424424D01*
X233993000Y-132294567D01*
X233964406Y-132628162D01*
X233790153Y-133286452D01*
X233656317Y-133571970D01*
X233291213Y-133891436D01*
X232710368Y-134144384D01*
X231983511Y-134182640D01*
X231278542Y-134106427D01*
X230723825Y-133805564D01*
X230145275Y-133283920D01*
X229719977Y-132317333D01*
X229455255Y-131356491D01*
X229376337Y-130587042D01*
X229372243Y-130565565D01*
X229175837Y-129868324D01*
X229086792Y-128532647D01*
X229016903Y-127104917D01*
X228966938Y-125506033D01*
X228966902Y-125505023D01*
X228907000Y-123977522D01*
X228907000Y-122340787D01*
X228926939Y-120745706D01*
X229016619Y-119589824D01*
X229016885Y-119585399D01*
X229036644Y-119121056D01*
X229125030Y-118453254D01*
X229251648Y-117927304D01*
X229515249Y-117224367D01*
X229846813Y-116649005D01*
X230319902Y-115992474D01*
X230857255Y-115627841D01*
X231262391Y-115396335D01*
X231794959Y-115215642D01*
X232234140Y-115187000D01*
X232543708Y-115187000D01*
X232757942Y-115242887D01*
G36*
X246614331Y-116102392D02*
G01*
X246620487Y-116103836D01*
X246857273Y-116153166D01*
X247029131Y-116198392D01*
X247109517Y-116242239D01*
X247186586Y-116319308D01*
X247190247Y-116322825D01*
X247314758Y-116437758D01*
X247351686Y-116480907D01*
X247399357Y-116579229D01*
X247575912Y-117059851D01*
X247674737Y-117385973D01*
X247840438Y-117941558D01*
X247889289Y-118801342D01*
X247859477Y-119874585D01*
X247809544Y-120883226D01*
X247809459Y-120885274D01*
X247769476Y-122084764D01*
X247709504Y-123494106D01*
X247709410Y-123497196D01*
X247679431Y-125146064D01*
X247649488Y-125974479D01*
X247609633Y-126980825D01*
X247569989Y-127387173D01*
X247569399Y-127401112D01*
X247579399Y-128191112D01*
X247579457Y-128193667D01*
X247619457Y-129413667D01*
X247619670Y-129417953D01*
X247699670Y-130617953D01*
X247699793Y-130619633D01*
X247739793Y-131119633D01*
X247739804Y-131119769D01*
X247769804Y-131489769D01*
X247770533Y-131496513D01*
X247819983Y-131862443D01*
X247849389Y-132283929D01*
X247849389Y-133154072D01*
X247820795Y-133487667D01*
X247646542Y-134145957D01*
X247512706Y-134431475D01*
X247147602Y-134750941D01*
X246566757Y-135003889D01*
X245839900Y-135042145D01*
X245134931Y-134965932D01*
X244580214Y-134665069D01*
X244001664Y-134143425D01*
X243576366Y-133176838D01*
X243311644Y-132215996D01*
X243232726Y-131446547D01*
X243228632Y-131425070D01*
X243032226Y-130727829D01*
X242943181Y-129392152D01*
X242873292Y-127964422D01*
X242823327Y-126365538D01*
X242823291Y-126364528D01*
X242763389Y-124837027D01*
X242763389Y-123200292D01*
X242783328Y-121605211D01*
X242873008Y-120449329D01*
X242873274Y-120444904D01*
X242893033Y-119980561D01*
X242981419Y-119312759D01*
X243108037Y-118786809D01*
X243371638Y-118083872D01*
X243703202Y-117508510D01*
X244176291Y-116851979D01*
X244713644Y-116487346D01*
X245118780Y-116255840D01*
X245651348Y-116075147D01*
X246090529Y-116046505D01*
X246400097Y-116046505D01*
X246614331Y-116102392D01*
G37*
X246614331Y-116102392D02*
X246620487Y-116103836D01*
X246857273Y-116153166D01*
X247029131Y-116198392D01*
X247109517Y-116242239D01*
X247186586Y-116319308D01*
X247190247Y-116322825D01*
X247314758Y-116437758D01*
X247351686Y-116480907D01*
X247399357Y-116579229D01*
X247575912Y-117059851D01*
X247674737Y-117385973D01*
X247840438Y-117941558D01*
X247889289Y-118801342D01*
X247859477Y-119874585D01*
X247809544Y-120883226D01*
X247809459Y-120885274D01*
X247769476Y-122084764D01*
X247709504Y-123494106D01*
X247709410Y-123497196D01*
X247679431Y-125146064D01*
X247649488Y-125974479D01*
X247609633Y-126980825D01*
X247569989Y-127387173D01*
X247569399Y-127401112D01*
X247579399Y-128191112D01*
X247579457Y-128193667D01*
X247619457Y-129413667D01*
X247619670Y-129417953D01*
X247699670Y-130617953D01*
X247699793Y-130619633D01*
X247739793Y-131119633D01*
X247739804Y-131119769D01*
X247769804Y-131489769D01*
X247770533Y-131496513D01*
X247819983Y-131862443D01*
X247849389Y-132283929D01*
X247849389Y-133154072D01*
X247820795Y-133487667D01*
X247646542Y-134145957D01*
X247512706Y-134431475D01*
X247147602Y-134750941D01*
X246566757Y-135003889D01*
X245839900Y-135042145D01*
X245134931Y-134965932D01*
X244580214Y-134665069D01*
X244001664Y-134143425D01*
X243576366Y-133176838D01*
X243311644Y-132215996D01*
X243232726Y-131446547D01*
X243228632Y-131425070D01*
X243032226Y-130727829D01*
X242943181Y-129392152D01*
X242873292Y-127964422D01*
X242823327Y-126365538D01*
X242823291Y-126364528D01*
X242763389Y-124837027D01*
X242763389Y-123200292D01*
X242783328Y-121605211D01*
X242873008Y-120449329D01*
X242873274Y-120444904D01*
X242893033Y-119980561D01*
X242981419Y-119312759D01*
X243108037Y-118786809D01*
X243371638Y-118083872D01*
X243703202Y-117508510D01*
X244176291Y-116851979D01*
X244713644Y-116487346D01*
X245118780Y-116255840D01*
X245651348Y-116075147D01*
X246090529Y-116046505D01*
X246400097Y-116046505D01*
X246614331Y-116102392D01*
G36*
X285309164Y-114740395D02*
G01*
X285863881Y-115041258D01*
X286442431Y-115562902D01*
X286867729Y-116529489D01*
X287132451Y-117490331D01*
X287211369Y-118259780D01*
X287215463Y-118281257D01*
X287411869Y-118978498D01*
X287500914Y-120314175D01*
X287570803Y-121741905D01*
X287620768Y-123340789D01*
X287620804Y-123341799D01*
X287680706Y-124869300D01*
X287680706Y-126506035D01*
X287660767Y-128101116D01*
X287571087Y-129256998D01*
X287570821Y-129261423D01*
X287551062Y-129725766D01*
X287462676Y-130393568D01*
X287336058Y-130919518D01*
X287072457Y-131622455D01*
X286740893Y-132197817D01*
X286267804Y-132854348D01*
X285730451Y-133218981D01*
X285325315Y-133450487D01*
X284792747Y-133631180D01*
X284353566Y-133659822D01*
X284043997Y-133659822D01*
X283829764Y-133603935D01*
X283823608Y-133602491D01*
X283586822Y-133553161D01*
X283414964Y-133507935D01*
X283334578Y-133464088D01*
X283257509Y-133387019D01*
X283253848Y-133383502D01*
X283129337Y-133268569D01*
X283092409Y-133225420D01*
X283044738Y-133127098D01*
X282868183Y-132646476D01*
X282769358Y-132320354D01*
X282603657Y-131764769D01*
X282554806Y-130904985D01*
X282584618Y-129831742D01*
X282634551Y-128823101D01*
X282634636Y-128821053D01*
X282674619Y-127621563D01*
X282734591Y-126212221D01*
X282734685Y-126209131D01*
X282764664Y-124560263D01*
X282794607Y-123731848D01*
X282834462Y-122725502D01*
X282874106Y-122319154D01*
X282874696Y-122305215D01*
X282864696Y-121515215D01*
X282864638Y-121512660D01*
X282824638Y-120292660D01*
X282824425Y-120288374D01*
X282744425Y-119088374D01*
X282744302Y-119086694D01*
X282704302Y-118586694D01*
X282704291Y-118586558D01*
X282674291Y-118216558D01*
X282673562Y-118209814D01*
X282624112Y-117843884D01*
X282594706Y-117422398D01*
X282594706Y-116552255D01*
X282623300Y-116218660D01*
X282797553Y-115560370D01*
X282931389Y-115274852D01*
X283296493Y-114955386D01*
X283877338Y-114702438D01*
X284604195Y-114664182D01*
X285309164Y-114740395D01*
G37*
X285309164Y-114740395D02*
X285863881Y-115041258D01*
X286442431Y-115562902D01*
X286867729Y-116529489D01*
X287132451Y-117490331D01*
X287211369Y-118259780D01*
X287215463Y-118281257D01*
X287411869Y-118978498D01*
X287500914Y-120314175D01*
X287570803Y-121741905D01*
X287620768Y-123340789D01*
X287620804Y-123341799D01*
X287680706Y-124869300D01*
X287680706Y-126506035D01*
X287660767Y-128101116D01*
X287571087Y-129256998D01*
X287570821Y-129261423D01*
X287551062Y-129725766D01*
X287462676Y-130393568D01*
X287336058Y-130919518D01*
X287072457Y-131622455D01*
X286740893Y-132197817D01*
X286267804Y-132854348D01*
X285730451Y-133218981D01*
X285325315Y-133450487D01*
X284792747Y-133631180D01*
X284353566Y-133659822D01*
X284043997Y-133659822D01*
X283829764Y-133603935D01*
X283823608Y-133602491D01*
X283586822Y-133553161D01*
X283414964Y-133507935D01*
X283334578Y-133464088D01*
X283257509Y-133387019D01*
X283253848Y-133383502D01*
X283129337Y-133268569D01*
X283092409Y-133225420D01*
X283044738Y-133127098D01*
X282868183Y-132646476D01*
X282769358Y-132320354D01*
X282603657Y-131764769D01*
X282554806Y-130904985D01*
X282584618Y-129831742D01*
X282634551Y-128823101D01*
X282634636Y-128821053D01*
X282674619Y-127621563D01*
X282734591Y-126212221D01*
X282734685Y-126209131D01*
X282764664Y-124560263D01*
X282794607Y-123731848D01*
X282834462Y-122725502D01*
X282874106Y-122319154D01*
X282874696Y-122305215D01*
X282864696Y-121515215D01*
X282864638Y-121512660D01*
X282824638Y-120292660D01*
X282824425Y-120288374D01*
X282744425Y-119088374D01*
X282744302Y-119086694D01*
X282704302Y-118586694D01*
X282704291Y-118586558D01*
X282674291Y-118216558D01*
X282673562Y-118209814D01*
X282624112Y-117843884D01*
X282594706Y-117422398D01*
X282594706Y-116552255D01*
X282623300Y-116218660D01*
X282797553Y-115560370D01*
X282931389Y-115274852D01*
X283296493Y-114955386D01*
X283877338Y-114702438D01*
X284604195Y-114664182D01*
X285309164Y-114740395D01*
%TO.N,GND*%
G36*
X274741458Y-99793573D02*
G01*
X275296175Y-100094436D01*
X275874725Y-100616080D01*
X276300023Y-101582667D01*
X276564745Y-102543509D01*
X276643663Y-103312958D01*
X276647757Y-103334435D01*
X276844163Y-104031676D01*
X276933208Y-105367353D01*
X277003097Y-106795083D01*
X277053062Y-108393967D01*
X277053098Y-108394977D01*
X277113000Y-109922478D01*
X277113000Y-111559213D01*
X277093061Y-113154294D01*
X277003381Y-114310176D01*
X277003115Y-114314601D01*
X276983356Y-114778944D01*
X276894970Y-115446746D01*
X276768352Y-115972696D01*
X276504751Y-116675633D01*
X276173187Y-117250995D01*
X275700098Y-117907526D01*
X275162745Y-118272159D01*
X274757609Y-118503665D01*
X274225041Y-118684358D01*
X273785860Y-118713000D01*
X273476291Y-118713000D01*
X273262058Y-118657113D01*
X273255902Y-118655669D01*
X273019116Y-118606339D01*
X272847258Y-118561113D01*
X272766872Y-118517266D01*
X272689803Y-118440197D01*
X272686142Y-118436680D01*
X272561631Y-118321747D01*
X272524703Y-118278598D01*
X272477032Y-118180276D01*
X272300477Y-117699654D01*
X272201652Y-117373532D01*
X272035951Y-116817947D01*
X271987100Y-115958163D01*
X272016912Y-114884920D01*
X272066845Y-113876279D01*
X272066930Y-113874231D01*
X272106913Y-112674741D01*
X272166885Y-111265399D01*
X272166979Y-111262309D01*
X272196958Y-109613441D01*
X272226901Y-108785026D01*
X272266756Y-107778680D01*
X272306400Y-107372332D01*
X272306990Y-107358393D01*
X272296990Y-106568393D01*
X272296932Y-106565838D01*
X272256932Y-105345838D01*
X272256719Y-105341552D01*
X272176719Y-104141552D01*
X272176596Y-104139872D01*
X272136596Y-103639872D01*
X272136585Y-103639736D01*
X272106585Y-103269736D01*
X272105856Y-103262992D01*
X272056406Y-102897062D01*
X272027000Y-102475576D01*
X272027000Y-101605433D01*
X272055594Y-101271838D01*
X272229847Y-100613548D01*
X272363683Y-100328030D01*
X272728787Y-100008564D01*
X273309632Y-99755616D01*
X274036489Y-99717360D01*
X274741458Y-99793573D01*
G37*
X274741458Y-99793573D02*
X275296175Y-100094436D01*
X275874725Y-100616080D01*
X276300023Y-101582667D01*
X276564745Y-102543509D01*
X276643663Y-103312958D01*
X276647757Y-103334435D01*
X276844163Y-104031676D01*
X276933208Y-105367353D01*
X277003097Y-106795083D01*
X277053062Y-108393967D01*
X277053098Y-108394977D01*
X277113000Y-109922478D01*
X277113000Y-111559213D01*
X277093061Y-113154294D01*
X277003381Y-114310176D01*
X277003115Y-114314601D01*
X276983356Y-114778944D01*
X276894970Y-115446746D01*
X276768352Y-115972696D01*
X276504751Y-116675633D01*
X276173187Y-117250995D01*
X275700098Y-117907526D01*
X275162745Y-118272159D01*
X274757609Y-118503665D01*
X274225041Y-118684358D01*
X273785860Y-118713000D01*
X273476291Y-118713000D01*
X273262058Y-118657113D01*
X273255902Y-118655669D01*
X273019116Y-118606339D01*
X272847258Y-118561113D01*
X272766872Y-118517266D01*
X272689803Y-118440197D01*
X272686142Y-118436680D01*
X272561631Y-118321747D01*
X272524703Y-118278598D01*
X272477032Y-118180276D01*
X272300477Y-117699654D01*
X272201652Y-117373532D01*
X272035951Y-116817947D01*
X271987100Y-115958163D01*
X272016912Y-114884920D01*
X272066845Y-113876279D01*
X272066930Y-113874231D01*
X272106913Y-112674741D01*
X272166885Y-111265399D01*
X272166979Y-111262309D01*
X272196958Y-109613441D01*
X272226901Y-108785026D01*
X272266756Y-107778680D01*
X272306400Y-107372332D01*
X272306990Y-107358393D01*
X272296990Y-106568393D01*
X272296932Y-106565838D01*
X272256932Y-105345838D01*
X272256719Y-105341552D01*
X272176719Y-104141552D01*
X272176596Y-104139872D01*
X272136596Y-103639872D01*
X272136585Y-103639736D01*
X272106585Y-103269736D01*
X272105856Y-103262992D01*
X272056406Y-102897062D01*
X272027000Y-102475576D01*
X272027000Y-101605433D01*
X272055594Y-101271838D01*
X272229847Y-100613548D01*
X272363683Y-100328030D01*
X272728787Y-100008564D01*
X273309632Y-99755616D01*
X274036489Y-99717360D01*
X274741458Y-99793573D01*
G36*
X241302073Y-99845241D02*
G01*
X241308229Y-99846685D01*
X241545015Y-99896015D01*
X241716873Y-99941241D01*
X241797259Y-99985088D01*
X241874328Y-100062157D01*
X241877989Y-100065674D01*
X242002500Y-100180607D01*
X242039428Y-100223756D01*
X242087099Y-100322078D01*
X242263654Y-100802700D01*
X242362479Y-101128822D01*
X242528180Y-101684407D01*
X242577031Y-102544191D01*
X242547219Y-103617434D01*
X242497286Y-104626075D01*
X242497201Y-104628123D01*
X242489041Y-104872923D01*
X242344912Y-105065060D01*
X242218404Y-105328808D01*
X242145782Y-105612169D01*
X242129836Y-105904253D01*
X242171179Y-106193836D01*
X242268223Y-106469789D01*
X242417238Y-106721507D01*
X242419092Y-106723575D01*
X242397246Y-107236955D01*
X242397152Y-107240045D01*
X242367173Y-108888913D01*
X242337230Y-109717328D01*
X242297375Y-110723674D01*
X242257731Y-111130022D01*
X242257141Y-111143961D01*
X242267141Y-111933961D01*
X242267199Y-111936516D01*
X242307199Y-113156516D01*
X242307412Y-113160802D01*
X242387412Y-114360802D01*
X242387535Y-114362482D01*
X242427535Y-114862482D01*
X242427546Y-114862618D01*
X242457546Y-115232618D01*
X242458275Y-115239362D01*
X242507725Y-115605292D01*
X242537131Y-116026778D01*
X242537131Y-116896921D01*
X242508537Y-117230516D01*
X242334284Y-117888806D01*
X242200448Y-118174324D01*
X241835344Y-118493790D01*
X241254499Y-118746738D01*
X240527642Y-118784994D01*
X239822673Y-118708781D01*
X239267956Y-118407918D01*
X238689406Y-117886274D01*
X238264108Y-116919687D01*
X237999386Y-115958845D01*
X237920468Y-115189396D01*
X237916374Y-115167919D01*
X237719968Y-114470678D01*
X237630923Y-113135001D01*
X237561034Y-111707271D01*
X237511069Y-110108387D01*
X237511033Y-110107377D01*
X237451131Y-108579876D01*
X237451131Y-106943141D01*
X237471070Y-105348060D01*
X237560750Y-104192178D01*
X237561016Y-104187753D01*
X237580775Y-103723410D01*
X237669161Y-103055608D01*
X237795779Y-102529658D01*
X238059380Y-101826721D01*
X238390944Y-101251359D01*
X238864033Y-100594828D01*
X239401386Y-100230195D01*
X239806522Y-99998689D01*
X240339090Y-99817996D01*
X240778271Y-99789354D01*
X241087839Y-99789354D01*
X241302073Y-99845241D01*
G37*
X241302073Y-99845241D02*
X241308229Y-99846685D01*
X241545015Y-99896015D01*
X241716873Y-99941241D01*
X241797259Y-99985088D01*
X241874328Y-100062157D01*
X241877989Y-100065674D01*
X242002500Y-100180607D01*
X242039428Y-100223756D01*
X242087099Y-100322078D01*
X242263654Y-100802700D01*
X242362479Y-101128822D01*
X242528180Y-101684407D01*
X242577031Y-102544191D01*
X242547219Y-103617434D01*
X242497286Y-104626075D01*
X242497201Y-104628123D01*
X242489041Y-104872923D01*
X242344912Y-105065060D01*
X242218404Y-105328808D01*
X242145782Y-105612169D01*
X242129836Y-105904253D01*
X242171179Y-106193836D01*
X242268223Y-106469789D01*
X242417238Y-106721507D01*
X242419092Y-106723575D01*
X242397246Y-107236955D01*
X242397152Y-107240045D01*
X242367173Y-108888913D01*
X242337230Y-109717328D01*
X242297375Y-110723674D01*
X242257731Y-111130022D01*
X242257141Y-111143961D01*
X242267141Y-111933961D01*
X242267199Y-111936516D01*
X242307199Y-113156516D01*
X242307412Y-113160802D01*
X242387412Y-114360802D01*
X242387535Y-114362482D01*
X242427535Y-114862482D01*
X242427546Y-114862618D01*
X242457546Y-115232618D01*
X242458275Y-115239362D01*
X242507725Y-115605292D01*
X242537131Y-116026778D01*
X242537131Y-116896921D01*
X242508537Y-117230516D01*
X242334284Y-117888806D01*
X242200448Y-118174324D01*
X241835344Y-118493790D01*
X241254499Y-118746738D01*
X240527642Y-118784994D01*
X239822673Y-118708781D01*
X239267956Y-118407918D01*
X238689406Y-117886274D01*
X238264108Y-116919687D01*
X237999386Y-115958845D01*
X237920468Y-115189396D01*
X237916374Y-115167919D01*
X237719968Y-114470678D01*
X237630923Y-113135001D01*
X237561034Y-111707271D01*
X237511069Y-110108387D01*
X237511033Y-110107377D01*
X237451131Y-108579876D01*
X237451131Y-106943141D01*
X237471070Y-105348060D01*
X237560750Y-104192178D01*
X237561016Y-104187753D01*
X237580775Y-103723410D01*
X237669161Y-103055608D01*
X237795779Y-102529658D01*
X238059380Y-101826721D01*
X238390944Y-101251359D01*
X238864033Y-100594828D01*
X239401386Y-100230195D01*
X239806522Y-99998689D01*
X240339090Y-99817996D01*
X240778271Y-99789354D01*
X241087839Y-99789354D01*
X241302073Y-99845241D01*
%TO.N,J1*%
G36*
X254732327Y-108654337D02*
G01*
X255278185Y-108820869D01*
X255649088Y-109246051D01*
X255854892Y-109797980D01*
X255922375Y-110607781D01*
X255833881Y-111355065D01*
X255833028Y-111367327D01*
X255813028Y-112317327D01*
X255793033Y-113197114D01*
X255793029Y-113202731D01*
X255813029Y-114132731D01*
X255813522Y-114141498D01*
X255903439Y-115130585D01*
X255973177Y-116037185D01*
X256013000Y-117132305D01*
X256013000Y-117900000D01*
X256013196Y-117907045D01*
X256062806Y-118800032D01*
X256014091Y-119686658D01*
X255735252Y-120552019D01*
X255401475Y-121015599D01*
X254691963Y-121460226D01*
X254056566Y-121591043D01*
X253046190Y-121438534D01*
X252457443Y-121055381D01*
X251978293Y-120432487D01*
X251538646Y-119543421D01*
X251322285Y-118815664D01*
X251145238Y-118146817D01*
X251077248Y-117515484D01*
X251096916Y-116974615D01*
X251096737Y-116961823D01*
X251076737Y-116651823D01*
X251076719Y-116651552D01*
X251047170Y-116208311D01*
X251076899Y-115465076D01*
X251077000Y-115460000D01*
X251077000Y-114812341D01*
X251116915Y-113724657D01*
X251117000Y-113720000D01*
X251117000Y-112842221D01*
X251146826Y-111987208D01*
X251206073Y-111236751D01*
X251322459Y-110616026D01*
X251536912Y-110089641D01*
X251756559Y-109593047D01*
X252203255Y-109146351D01*
X252607202Y-108845739D01*
X253274095Y-108655198D01*
X254127441Y-108567924D01*
X254732327Y-108654337D01*
G37*
X254732327Y-108654337D02*
X255278185Y-108820869D01*
X255649088Y-109246051D01*
X255854892Y-109797980D01*
X255922375Y-110607781D01*
X255833881Y-111355065D01*
X255833028Y-111367327D01*
X255813028Y-112317327D01*
X255793033Y-113197114D01*
X255793029Y-113202731D01*
X255813029Y-114132731D01*
X255813522Y-114141498D01*
X255903439Y-115130585D01*
X255973177Y-116037185D01*
X256013000Y-117132305D01*
X256013000Y-117900000D01*
X256013196Y-117907045D01*
X256062806Y-118800032D01*
X256014091Y-119686658D01*
X255735252Y-120552019D01*
X255401475Y-121015599D01*
X254691963Y-121460226D01*
X254056566Y-121591043D01*
X253046190Y-121438534D01*
X252457443Y-121055381D01*
X251978293Y-120432487D01*
X251538646Y-119543421D01*
X251322285Y-118815664D01*
X251145238Y-118146817D01*
X251077248Y-117515484D01*
X251096916Y-116974615D01*
X251096737Y-116961823D01*
X251076737Y-116651823D01*
X251076719Y-116651552D01*
X251047170Y-116208311D01*
X251076899Y-115465076D01*
X251077000Y-115460000D01*
X251077000Y-114812341D01*
X251116915Y-113724657D01*
X251117000Y-113720000D01*
X251117000Y-112842221D01*
X251146826Y-111987208D01*
X251206073Y-111236751D01*
X251322459Y-110616026D01*
X251536912Y-110089641D01*
X251756559Y-109593047D01*
X252203255Y-109146351D01*
X252607202Y-108845739D01*
X253274095Y-108655198D01*
X254127441Y-108567924D01*
X254732327Y-108654337D01*
%TO.N,J2*%
G36*
X262713810Y-112061466D02*
G01*
X263302557Y-112444619D01*
X263781707Y-113067513D01*
X264221354Y-113956579D01*
X264437715Y-114684336D01*
X264614762Y-115353183D01*
X264682752Y-115984516D01*
X264663084Y-116525385D01*
X264663263Y-116538177D01*
X264683263Y-116848177D01*
X264683281Y-116848448D01*
X264712830Y-117291689D01*
X264683101Y-118034924D01*
X264683000Y-118040000D01*
X264683000Y-118687659D01*
X264643085Y-119775343D01*
X264643000Y-119780000D01*
X264643000Y-120657779D01*
X264613174Y-121512792D01*
X264553927Y-122263249D01*
X264437541Y-122883974D01*
X264223088Y-123410359D01*
X264003441Y-123906953D01*
X263556745Y-124353649D01*
X263152798Y-124654261D01*
X262485905Y-124844802D01*
X261632559Y-124932076D01*
X261027673Y-124845663D01*
X260481815Y-124679131D01*
X260110912Y-124253949D01*
X259905108Y-123702020D01*
X259837625Y-122892219D01*
X259926119Y-122144935D01*
X259926972Y-122132673D01*
X259946972Y-121182673D01*
X259966967Y-120302886D01*
X259966971Y-120297269D01*
X259946971Y-119367269D01*
X259946478Y-119358502D01*
X259856561Y-118369415D01*
X259786823Y-117462815D01*
X259747000Y-116367695D01*
X259747000Y-115600000D01*
X259746804Y-115592955D01*
X259697194Y-114699968D01*
X259745909Y-113813342D01*
X260024748Y-112947981D01*
X260358525Y-112484401D01*
X261068037Y-112039774D01*
X261703434Y-111908957D01*
X262713810Y-112061466D01*
G37*
X262713810Y-112061466D02*
X263302557Y-112444619D01*
X263781707Y-113067513D01*
X264221354Y-113956579D01*
X264437715Y-114684336D01*
X264614762Y-115353183D01*
X264682752Y-115984516D01*
X264663084Y-116525385D01*
X264663263Y-116538177D01*
X264683263Y-116848177D01*
X264683281Y-116848448D01*
X264712830Y-117291689D01*
X264683101Y-118034924D01*
X264683000Y-118040000D01*
X264683000Y-118687659D01*
X264643085Y-119775343D01*
X264643000Y-119780000D01*
X264643000Y-120657779D01*
X264613174Y-121512792D01*
X264553927Y-122263249D01*
X264437541Y-122883974D01*
X264223088Y-123410359D01*
X264003441Y-123906953D01*
X263556745Y-124353649D01*
X263152798Y-124654261D01*
X262485905Y-124844802D01*
X261632559Y-124932076D01*
X261027673Y-124845663D01*
X260481815Y-124679131D01*
X260110912Y-124253949D01*
X259905108Y-123702020D01*
X259837625Y-122892219D01*
X259926119Y-122144935D01*
X259926972Y-122132673D01*
X259946972Y-121182673D01*
X259966967Y-120302886D01*
X259966971Y-120297269D01*
X259946971Y-119367269D01*
X259946478Y-119358502D01*
X259856561Y-118369415D01*
X259786823Y-117462815D01*
X259747000Y-116367695D01*
X259747000Y-115600000D01*
X259746804Y-115592955D01*
X259697194Y-114699968D01*
X259745909Y-113813342D01*
X260024748Y-112947981D01*
X260358525Y-112484401D01*
X261068037Y-112039774D01*
X261703434Y-111908957D01*
X262713810Y-112061466D01*
%TD*%
M02*
