M48
; DRILL file {KiCad (5.1.6)-1} date 10/05/20 10:15:22
; FORMAT={-:-/ absolute / inch / decimal}
; #@! TF.CreationDate,2020-10-05T10:15:22-05:00
; #@! TF.GenerationSoftware,Kicad,Pcbnew,(5.1.6)-1
; #@! TF.FileFunction,Plated,1,2,PTH
FMAT,2
INCH
T1C0.0157
T2C0.0394
T3C0.0472
T4C0.1772
%
G90
G05
T1
X9.1253Y-4.6308
X9.1253Y-5.2224
X9.467Y-4.0828
X9.467Y-4.6308
X9.6547Y-4.6543
X9.6547Y-5.2437
X9.7559Y-4.3976
X9.978Y-4.3469
X9.9823Y-4.7386
X10.3171Y-4.8696
X10.3181Y-4.4764
X10.8012Y-3.9701
X10.802Y-4.6319
X11.2067Y-4.6181
X11.2067Y-5.1976
T2
X9.5551Y-4.0752
X9.5967Y-4.1644
T3
X9.3189Y-3.9094
T4
X10.3807Y-5.1016
X9.922Y-5.1016
X8.2307Y-4.3701
X9.0787Y-3.9803
X8.2307Y-4.8287
X12.072Y-4.3701
X10.3807Y-4.0937
X12.072Y-4.8287
X9.922Y-4.0937
T0
M30
