%TF.GenerationSoftware,KiCad,Pcbnew,(5.1.6)-1*%
%TF.CreationDate,2020-10-05T10:15:20-05:00*%
%TF.ProjectId,DDD Charm,44444420-4368-4617-926d-2e6b69636164,rev?*%
%TF.SameCoordinates,Original*%
%TF.FileFunction,Soldermask,Top*%
%TF.FilePolarity,Negative*%
%FSLAX46Y46*%
G04 Gerber Fmt 4.6, Leading zero omitted, Abs format (unit mm)*
G04 Created by KiCad (PCBNEW (5.1.6)-1) date 2020-10-05 10:15:20*
%MOMM*%
%LPD*%
G01*
G04 APERTURE LIST*
%ADD10C,0.010000*%
%ADD11R,2.600000X2.600000*%
%ADD12C,3.300000*%
%ADD13C,5.600000*%
%ADD14C,0.100000*%
G04 APERTURE END LIST*
D10*
%TO.C,G\u002A\u002A\u002A*%
G36*
X272292231Y-135766390D02*
G01*
X272363986Y-135774181D01*
X272473007Y-135788662D01*
X272612782Y-135808916D01*
X272776801Y-135834030D01*
X272958552Y-135863088D01*
X272988690Y-135868017D01*
X273225259Y-135906740D01*
X273493832Y-135950554D01*
X273776052Y-135996475D01*
X274053565Y-136041517D01*
X274308012Y-136082696D01*
X274412550Y-136099566D01*
X274599630Y-136129849D01*
X274772172Y-136158022D01*
X274923201Y-136182925D01*
X275045741Y-136203402D01*
X275132816Y-136218293D01*
X275177450Y-136226440D01*
X275179854Y-136226963D01*
X275207910Y-136236685D01*
X275221007Y-136257285D01*
X275220903Y-136300942D01*
X275209354Y-136379830D01*
X275205356Y-136403696D01*
X275188725Y-136490510D01*
X275172501Y-136555963D01*
X275160980Y-136584515D01*
X275128849Y-136589030D01*
X275062745Y-136583873D01*
X274997274Y-136573709D01*
X274916708Y-136560895D01*
X274858785Y-136555574D01*
X274839006Y-136557714D01*
X274851446Y-136579232D01*
X274889779Y-136636048D01*
X274949783Y-136722297D01*
X275027235Y-136832110D01*
X275117912Y-136959624D01*
X275217593Y-137098973D01*
X275322054Y-137244289D01*
X275427074Y-137389707D01*
X275528429Y-137529361D01*
X275621897Y-137657386D01*
X275703256Y-137767915D01*
X275768283Y-137855082D01*
X275812755Y-137913022D01*
X275827554Y-137931020D01*
X275847845Y-137917078D01*
X275898314Y-137868831D01*
X275975311Y-137790144D01*
X276075185Y-137684884D01*
X276194286Y-137556916D01*
X276328965Y-137410106D01*
X276475569Y-137248320D01*
X276542324Y-137174043D01*
X277239134Y-136396788D01*
X277375939Y-136513664D01*
X277442428Y-136573685D01*
X277488803Y-136621772D01*
X277505698Y-136648146D01*
X277505519Y-136648969D01*
X277487425Y-136671317D01*
X277438779Y-136727431D01*
X277363215Y-136813225D01*
X277264363Y-136924612D01*
X277145854Y-137057503D01*
X277011322Y-137207811D01*
X276864396Y-137371449D01*
X276800844Y-137442083D01*
X276649561Y-137610501D01*
X276508987Y-137767733D01*
X276382794Y-137909618D01*
X276274649Y-138031998D01*
X276188224Y-138130713D01*
X276127188Y-138201603D01*
X276095211Y-138240510D01*
X276091366Y-138246217D01*
X276103365Y-138272486D01*
X276142623Y-138335287D01*
X276206049Y-138430161D01*
X276290551Y-138552648D01*
X276393037Y-138698291D01*
X276510415Y-138862631D01*
X276639593Y-139041209D01*
X276701488Y-139126036D01*
X276835927Y-139309928D01*
X276961194Y-139481541D01*
X277074035Y-139636396D01*
X277171194Y-139770011D01*
X277249413Y-139877907D01*
X277305438Y-139955604D01*
X277336012Y-139998620D01*
X277340570Y-140005419D01*
X277330507Y-140035281D01*
X277284831Y-140084523D01*
X277218600Y-140139305D01*
X277147869Y-140191796D01*
X277094880Y-140229412D01*
X277070887Y-140244170D01*
X277070772Y-140244177D01*
X277054031Y-140224428D01*
X277011017Y-140168572D01*
X276945535Y-140081693D01*
X276861390Y-139968876D01*
X276762386Y-139835207D01*
X276652326Y-139685769D01*
X276617634Y-139638504D01*
X276493702Y-139469536D01*
X276369675Y-139300460D01*
X276251589Y-139139500D01*
X276145478Y-138994881D01*
X276057376Y-138874829D01*
X275993317Y-138787566D01*
X275992621Y-138786618D01*
X275811819Y-138540404D01*
X275201442Y-139224721D01*
X275060733Y-139382094D01*
X274930687Y-139526809D01*
X274815197Y-139654591D01*
X274718158Y-139761160D01*
X274643463Y-139842241D01*
X274595007Y-139893557D01*
X274576794Y-139910845D01*
X274552262Y-139895864D01*
X274501138Y-139854748D01*
X274434131Y-139796145D01*
X274429018Y-139791516D01*
X274295512Y-139670382D01*
X274934201Y-138961120D01*
X275078279Y-138800618D01*
X275210993Y-138651804D01*
X275328590Y-138518960D01*
X275427316Y-138406369D01*
X275503417Y-138318315D01*
X275553141Y-138259081D01*
X275572733Y-138232949D01*
X275572891Y-138232338D01*
X275558323Y-138207990D01*
X275516860Y-138147294D01*
X275451867Y-138054959D01*
X275366707Y-137935697D01*
X275264744Y-137794218D01*
X275149341Y-137635234D01*
X275024307Y-137464061D01*
X274475723Y-136715304D01*
X274606217Y-136624469D01*
X274736711Y-136533635D01*
X273707562Y-136364402D01*
X273485010Y-136328103D01*
X273278445Y-136294985D01*
X273093211Y-136265863D01*
X272934652Y-136241549D01*
X272808109Y-136222858D01*
X272718926Y-136210604D01*
X272672447Y-136205601D01*
X272666938Y-136205864D01*
X272665931Y-136232820D01*
X272668536Y-136303092D01*
X272674210Y-136409163D01*
X272682405Y-136543518D01*
X272692579Y-136698637D01*
X272704187Y-136867004D01*
X272716682Y-137041101D01*
X272729522Y-137213411D01*
X272742160Y-137376418D01*
X272754053Y-137522602D01*
X272764655Y-137644448D01*
X272773421Y-137734437D01*
X272779807Y-137785053D01*
X272781978Y-137793291D01*
X272809754Y-137798211D01*
X272879563Y-137804925D01*
X272982498Y-137812730D01*
X273109648Y-137820925D01*
X273192637Y-137825669D01*
X273329540Y-137833522D01*
X273447142Y-137840994D01*
X273536646Y-137847467D01*
X273589257Y-137852325D01*
X273599448Y-137854201D01*
X273600438Y-137880919D01*
X273596703Y-137944810D01*
X273589046Y-138032344D01*
X273588564Y-138037207D01*
X273570984Y-138213518D01*
X273405221Y-138208609D01*
X273294433Y-138204072D01*
X273161036Y-138196823D01*
X273033248Y-138188400D01*
X273029066Y-138188091D01*
X272818674Y-138172482D01*
X272818674Y-138272657D01*
X272821439Y-138333853D01*
X272829077Y-138435934D01*
X272840606Y-138569120D01*
X272855045Y-138723629D01*
X272871409Y-138889680D01*
X272888717Y-139057492D01*
X272905986Y-139217283D01*
X272922234Y-139359273D01*
X272936478Y-139473680D01*
X272946005Y-139540247D01*
X272956725Y-139624246D01*
X272959862Y-139687870D01*
X272956265Y-139712956D01*
X272927805Y-139735197D01*
X272866941Y-139771460D01*
X272792267Y-139811100D01*
X272642065Y-139886922D01*
X272615325Y-139787618D01*
X272594805Y-139691736D01*
X272571892Y-139549084D01*
X272547107Y-139363817D01*
X272520975Y-139140084D01*
X272494018Y-138882038D01*
X272471313Y-138643926D01*
X272426320Y-138153012D01*
X272079116Y-138153012D01*
X272079464Y-138019127D01*
X272082013Y-137903435D01*
X272092992Y-137829888D01*
X272118490Y-137789678D01*
X272164594Y-137773999D01*
X272237394Y-137774044D01*
X272248452Y-137774703D01*
X272327359Y-137778107D01*
X272368086Y-137772171D01*
X272383280Y-137751802D01*
X272385567Y-137719478D01*
X272383840Y-137680040D01*
X272378770Y-137595865D01*
X272370771Y-137473081D01*
X272360257Y-137317816D01*
X272347644Y-137136198D01*
X272333347Y-136934356D01*
X272317781Y-136718418D01*
X272317771Y-136718280D01*
X272302667Y-136504872D01*
X272289507Y-136307733D01*
X272278611Y-136132585D01*
X272270302Y-135985153D01*
X272264901Y-135871162D01*
X272262729Y-135796334D01*
X272264110Y-135766395D01*
X272264252Y-135766203D01*
X272292231Y-135766390D01*
G37*
X272292231Y-135766390D02*
X272363986Y-135774181D01*
X272473007Y-135788662D01*
X272612782Y-135808916D01*
X272776801Y-135834030D01*
X272958552Y-135863088D01*
X272988690Y-135868017D01*
X273225259Y-135906740D01*
X273493832Y-135950554D01*
X273776052Y-135996475D01*
X274053565Y-136041517D01*
X274308012Y-136082696D01*
X274412550Y-136099566D01*
X274599630Y-136129849D01*
X274772172Y-136158022D01*
X274923201Y-136182925D01*
X275045741Y-136203402D01*
X275132816Y-136218293D01*
X275177450Y-136226440D01*
X275179854Y-136226963D01*
X275207910Y-136236685D01*
X275221007Y-136257285D01*
X275220903Y-136300942D01*
X275209354Y-136379830D01*
X275205356Y-136403696D01*
X275188725Y-136490510D01*
X275172501Y-136555963D01*
X275160980Y-136584515D01*
X275128849Y-136589030D01*
X275062745Y-136583873D01*
X274997274Y-136573709D01*
X274916708Y-136560895D01*
X274858785Y-136555574D01*
X274839006Y-136557714D01*
X274851446Y-136579232D01*
X274889779Y-136636048D01*
X274949783Y-136722297D01*
X275027235Y-136832110D01*
X275117912Y-136959624D01*
X275217593Y-137098973D01*
X275322054Y-137244289D01*
X275427074Y-137389707D01*
X275528429Y-137529361D01*
X275621897Y-137657386D01*
X275703256Y-137767915D01*
X275768283Y-137855082D01*
X275812755Y-137913022D01*
X275827554Y-137931020D01*
X275847845Y-137917078D01*
X275898314Y-137868831D01*
X275975311Y-137790144D01*
X276075185Y-137684884D01*
X276194286Y-137556916D01*
X276328965Y-137410106D01*
X276475569Y-137248320D01*
X276542324Y-137174043D01*
X277239134Y-136396788D01*
X277375939Y-136513664D01*
X277442428Y-136573685D01*
X277488803Y-136621772D01*
X277505698Y-136648146D01*
X277505519Y-136648969D01*
X277487425Y-136671317D01*
X277438779Y-136727431D01*
X277363215Y-136813225D01*
X277264363Y-136924612D01*
X277145854Y-137057503D01*
X277011322Y-137207811D01*
X276864396Y-137371449D01*
X276800844Y-137442083D01*
X276649561Y-137610501D01*
X276508987Y-137767733D01*
X276382794Y-137909618D01*
X276274649Y-138031998D01*
X276188224Y-138130713D01*
X276127188Y-138201603D01*
X276095211Y-138240510D01*
X276091366Y-138246217D01*
X276103365Y-138272486D01*
X276142623Y-138335287D01*
X276206049Y-138430161D01*
X276290551Y-138552648D01*
X276393037Y-138698291D01*
X276510415Y-138862631D01*
X276639593Y-139041209D01*
X276701488Y-139126036D01*
X276835927Y-139309928D01*
X276961194Y-139481541D01*
X277074035Y-139636396D01*
X277171194Y-139770011D01*
X277249413Y-139877907D01*
X277305438Y-139955604D01*
X277336012Y-139998620D01*
X277340570Y-140005419D01*
X277330507Y-140035281D01*
X277284831Y-140084523D01*
X277218600Y-140139305D01*
X277147869Y-140191796D01*
X277094880Y-140229412D01*
X277070887Y-140244170D01*
X277070772Y-140244177D01*
X277054031Y-140224428D01*
X277011017Y-140168572D01*
X276945535Y-140081693D01*
X276861390Y-139968876D01*
X276762386Y-139835207D01*
X276652326Y-139685769D01*
X276617634Y-139638504D01*
X276493702Y-139469536D01*
X276369675Y-139300460D01*
X276251589Y-139139500D01*
X276145478Y-138994881D01*
X276057376Y-138874829D01*
X275993317Y-138787566D01*
X275992621Y-138786618D01*
X275811819Y-138540404D01*
X275201442Y-139224721D01*
X275060733Y-139382094D01*
X274930687Y-139526809D01*
X274815197Y-139654591D01*
X274718158Y-139761160D01*
X274643463Y-139842241D01*
X274595007Y-139893557D01*
X274576794Y-139910845D01*
X274552262Y-139895864D01*
X274501138Y-139854748D01*
X274434131Y-139796145D01*
X274429018Y-139791516D01*
X274295512Y-139670382D01*
X274934201Y-138961120D01*
X275078279Y-138800618D01*
X275210993Y-138651804D01*
X275328590Y-138518960D01*
X275427316Y-138406369D01*
X275503417Y-138318315D01*
X275553141Y-138259081D01*
X275572733Y-138232949D01*
X275572891Y-138232338D01*
X275558323Y-138207990D01*
X275516860Y-138147294D01*
X275451867Y-138054959D01*
X275366707Y-137935697D01*
X275264744Y-137794218D01*
X275149341Y-137635234D01*
X275024307Y-137464061D01*
X274475723Y-136715304D01*
X274606217Y-136624469D01*
X274736711Y-136533635D01*
X273707562Y-136364402D01*
X273485010Y-136328103D01*
X273278445Y-136294985D01*
X273093211Y-136265863D01*
X272934652Y-136241549D01*
X272808109Y-136222858D01*
X272718926Y-136210604D01*
X272672447Y-136205601D01*
X272666938Y-136205864D01*
X272665931Y-136232820D01*
X272668536Y-136303092D01*
X272674210Y-136409163D01*
X272682405Y-136543518D01*
X272692579Y-136698637D01*
X272704187Y-136867004D01*
X272716682Y-137041101D01*
X272729522Y-137213411D01*
X272742160Y-137376418D01*
X272754053Y-137522602D01*
X272764655Y-137644448D01*
X272773421Y-137734437D01*
X272779807Y-137785053D01*
X272781978Y-137793291D01*
X272809754Y-137798211D01*
X272879563Y-137804925D01*
X272982498Y-137812730D01*
X273109648Y-137820925D01*
X273192637Y-137825669D01*
X273329540Y-137833522D01*
X273447142Y-137840994D01*
X273536646Y-137847467D01*
X273589257Y-137852325D01*
X273599448Y-137854201D01*
X273600438Y-137880919D01*
X273596703Y-137944810D01*
X273589046Y-138032344D01*
X273588564Y-138037207D01*
X273570984Y-138213518D01*
X273405221Y-138208609D01*
X273294433Y-138204072D01*
X273161036Y-138196823D01*
X273033248Y-138188400D01*
X273029066Y-138188091D01*
X272818674Y-138172482D01*
X272818674Y-138272657D01*
X272821439Y-138333853D01*
X272829077Y-138435934D01*
X272840606Y-138569120D01*
X272855045Y-138723629D01*
X272871409Y-138889680D01*
X272888717Y-139057492D01*
X272905986Y-139217283D01*
X272922234Y-139359273D01*
X272936478Y-139473680D01*
X272946005Y-139540247D01*
X272956725Y-139624246D01*
X272959862Y-139687870D01*
X272956265Y-139712956D01*
X272927805Y-139735197D01*
X272866941Y-139771460D01*
X272792267Y-139811100D01*
X272642065Y-139886922D01*
X272615325Y-139787618D01*
X272594805Y-139691736D01*
X272571892Y-139549084D01*
X272547107Y-139363817D01*
X272520975Y-139140084D01*
X272494018Y-138882038D01*
X272471313Y-138643926D01*
X272426320Y-138153012D01*
X272079116Y-138153012D01*
X272079464Y-138019127D01*
X272082013Y-137903435D01*
X272092992Y-137829888D01*
X272118490Y-137789678D01*
X272164594Y-137773999D01*
X272237394Y-137774044D01*
X272248452Y-137774703D01*
X272327359Y-137778107D01*
X272368086Y-137772171D01*
X272383280Y-137751802D01*
X272385567Y-137719478D01*
X272383840Y-137680040D01*
X272378770Y-137595865D01*
X272370771Y-137473081D01*
X272360257Y-137317816D01*
X272347644Y-137136198D01*
X272333347Y-136934356D01*
X272317781Y-136718418D01*
X272317771Y-136718280D01*
X272302667Y-136504872D01*
X272289507Y-136307733D01*
X272278611Y-136132585D01*
X272270302Y-135985153D01*
X272264901Y-135871162D01*
X272262729Y-135796334D01*
X272264110Y-135766395D01*
X272264252Y-135766203D01*
X272292231Y-135766390D01*
G36*
X269342971Y-136932226D02*
G01*
X269410613Y-136941390D01*
X269448783Y-136954718D01*
X269452337Y-136960793D01*
X269453428Y-136992071D01*
X269456580Y-137069112D01*
X269461568Y-137186728D01*
X269468168Y-137339730D01*
X269476154Y-137522930D01*
X269485302Y-137731138D01*
X269495386Y-137959166D01*
X269504975Y-138174755D01*
X269515514Y-138415019D01*
X269525012Y-138639226D01*
X269533280Y-138842323D01*
X269540127Y-139019263D01*
X269545363Y-139164994D01*
X269548800Y-139274466D01*
X269550247Y-139342629D01*
X269549676Y-139364499D01*
X269522154Y-139369458D01*
X269457341Y-139375269D01*
X269368908Y-139380720D01*
X269363152Y-139381009D01*
X269184638Y-139389860D01*
X269167389Y-139215348D01*
X269157623Y-139127033D01*
X269148417Y-139061451D01*
X269141722Y-139032438D01*
X269141586Y-139032282D01*
X269128941Y-139051785D01*
X269098366Y-139111157D01*
X269053047Y-139203841D01*
X268996173Y-139323280D01*
X268930927Y-139462914D01*
X268903815Y-139521618D01*
X268818149Y-139706228D01*
X268751122Y-139847115D01*
X268701106Y-139947361D01*
X268666473Y-140010047D01*
X268645597Y-140038254D01*
X268636849Y-140035066D01*
X268636345Y-140028053D01*
X268630793Y-140001079D01*
X268614822Y-139928917D01*
X268589457Y-139816083D01*
X268555725Y-139667093D01*
X268514651Y-139486462D01*
X268467263Y-139278707D01*
X268414587Y-139048342D01*
X268357647Y-138799883D01*
X268317315Y-138624194D01*
X268257787Y-138364568D01*
X268201655Y-138118777D01*
X268149973Y-137891509D01*
X268103797Y-137687455D01*
X268064184Y-137511303D01*
X268032189Y-137367744D01*
X268008868Y-137261466D01*
X267995277Y-137197160D01*
X267992164Y-137180115D01*
X267994925Y-137149133D01*
X268018114Y-137125939D01*
X268071853Y-137104452D01*
X268157417Y-137080855D01*
X268247942Y-137058726D01*
X268300876Y-137050247D01*
X268327733Y-137055276D01*
X268340026Y-137073668D01*
X268341633Y-137078556D01*
X268350172Y-137112350D01*
X268368746Y-137189945D01*
X268395970Y-137305433D01*
X268430464Y-137452904D01*
X268470845Y-137626451D01*
X268515730Y-137820165D01*
X268559862Y-138011323D01*
X268607273Y-138216516D01*
X268651131Y-138405355D01*
X268690119Y-138572234D01*
X268722916Y-138711551D01*
X268748205Y-138817700D01*
X268764666Y-138885076D01*
X268770928Y-138908069D01*
X268782896Y-138888078D01*
X268812412Y-138829192D01*
X268855852Y-138738919D01*
X268909589Y-138624763D01*
X268952742Y-138531732D01*
X269128878Y-138149791D01*
X269102921Y-137558480D01*
X269095988Y-137389668D01*
X269090670Y-137237986D01*
X269087152Y-137110820D01*
X269085617Y-137015557D01*
X269086250Y-136959583D01*
X269087677Y-136948042D01*
X269118212Y-136935133D01*
X269181272Y-136928556D01*
X269261358Y-136927767D01*
X269342971Y-136932226D01*
G37*
X269342971Y-136932226D02*
X269410613Y-136941390D01*
X269448783Y-136954718D01*
X269452337Y-136960793D01*
X269453428Y-136992071D01*
X269456580Y-137069112D01*
X269461568Y-137186728D01*
X269468168Y-137339730D01*
X269476154Y-137522930D01*
X269485302Y-137731138D01*
X269495386Y-137959166D01*
X269504975Y-138174755D01*
X269515514Y-138415019D01*
X269525012Y-138639226D01*
X269533280Y-138842323D01*
X269540127Y-139019263D01*
X269545363Y-139164994D01*
X269548800Y-139274466D01*
X269550247Y-139342629D01*
X269549676Y-139364499D01*
X269522154Y-139369458D01*
X269457341Y-139375269D01*
X269368908Y-139380720D01*
X269363152Y-139381009D01*
X269184638Y-139389860D01*
X269167389Y-139215348D01*
X269157623Y-139127033D01*
X269148417Y-139061451D01*
X269141722Y-139032438D01*
X269141586Y-139032282D01*
X269128941Y-139051785D01*
X269098366Y-139111157D01*
X269053047Y-139203841D01*
X268996173Y-139323280D01*
X268930927Y-139462914D01*
X268903815Y-139521618D01*
X268818149Y-139706228D01*
X268751122Y-139847115D01*
X268701106Y-139947361D01*
X268666473Y-140010047D01*
X268645597Y-140038254D01*
X268636849Y-140035066D01*
X268636345Y-140028053D01*
X268630793Y-140001079D01*
X268614822Y-139928917D01*
X268589457Y-139816083D01*
X268555725Y-139667093D01*
X268514651Y-139486462D01*
X268467263Y-139278707D01*
X268414587Y-139048342D01*
X268357647Y-138799883D01*
X268317315Y-138624194D01*
X268257787Y-138364568D01*
X268201655Y-138118777D01*
X268149973Y-137891509D01*
X268103797Y-137687455D01*
X268064184Y-137511303D01*
X268032189Y-137367744D01*
X268008868Y-137261466D01*
X267995277Y-137197160D01*
X267992164Y-137180115D01*
X267994925Y-137149133D01*
X268018114Y-137125939D01*
X268071853Y-137104452D01*
X268157417Y-137080855D01*
X268247942Y-137058726D01*
X268300876Y-137050247D01*
X268327733Y-137055276D01*
X268340026Y-137073668D01*
X268341633Y-137078556D01*
X268350172Y-137112350D01*
X268368746Y-137189945D01*
X268395970Y-137305433D01*
X268430464Y-137452904D01*
X268470845Y-137626451D01*
X268515730Y-137820165D01*
X268559862Y-138011323D01*
X268607273Y-138216516D01*
X268651131Y-138405355D01*
X268690119Y-138572234D01*
X268722916Y-138711551D01*
X268748205Y-138817700D01*
X268764666Y-138885076D01*
X268770928Y-138908069D01*
X268782896Y-138888078D01*
X268812412Y-138829192D01*
X268855852Y-138738919D01*
X268909589Y-138624763D01*
X268952742Y-138531732D01*
X269128878Y-138149791D01*
X269102921Y-137558480D01*
X269095988Y-137389668D01*
X269090670Y-137237986D01*
X269087152Y-137110820D01*
X269085617Y-137015557D01*
X269086250Y-136959583D01*
X269087677Y-136948042D01*
X269118212Y-136935133D01*
X269181272Y-136928556D01*
X269261358Y-136927767D01*
X269342971Y-136932226D01*
G36*
X271533486Y-137158568D02*
G01*
X271674920Y-137239421D01*
X271804310Y-137313693D01*
X271913965Y-137376943D01*
X271996189Y-137424732D01*
X272043291Y-137452618D01*
X272047766Y-137455384D01*
X272105674Y-137491828D01*
X272037340Y-137612028D01*
X271997328Y-137682918D01*
X271964624Y-137732633D01*
X271931530Y-137760728D01*
X271890343Y-137766755D01*
X271833364Y-137750269D01*
X271752892Y-137710822D01*
X271641226Y-137647968D01*
X271527612Y-137582458D01*
X271148293Y-137364332D01*
X270657379Y-137854060D01*
X270528270Y-137983362D01*
X270411869Y-138100906D01*
X270312835Y-138201910D01*
X270235824Y-138281591D01*
X270185496Y-138335166D01*
X270166509Y-138357854D01*
X270166466Y-138358088D01*
X270185239Y-138380965D01*
X270237623Y-138430748D01*
X270317718Y-138502506D01*
X270419621Y-138591309D01*
X270537431Y-138692224D01*
X270665245Y-138800323D01*
X270797163Y-138910672D01*
X270927281Y-139018343D01*
X271049700Y-139118404D01*
X271158516Y-139205924D01*
X271247828Y-139275972D01*
X271311734Y-139323617D01*
X271344334Y-139343930D01*
X271346771Y-139344221D01*
X271378221Y-139324083D01*
X271439895Y-139278744D01*
X271522474Y-139215217D01*
X271604145Y-139150549D01*
X271695778Y-139078360D01*
X271773168Y-139019785D01*
X271827598Y-138981268D01*
X271849718Y-138969077D01*
X271873736Y-138987216D01*
X271917603Y-139033070D01*
X271970248Y-139093786D01*
X272020601Y-139156516D01*
X272057591Y-139208409D01*
X272061683Y-139215108D01*
X272047461Y-139237671D01*
X272000432Y-139285445D01*
X271927984Y-139352243D01*
X271837503Y-139431877D01*
X271736379Y-139518162D01*
X271631998Y-139604910D01*
X271531749Y-139685935D01*
X271443018Y-139755049D01*
X271373193Y-139806067D01*
X271329663Y-139832802D01*
X271321097Y-139835305D01*
X271298192Y-139819051D01*
X271240651Y-139772894D01*
X271152496Y-139700205D01*
X271037747Y-139604352D01*
X270900425Y-139488707D01*
X270744553Y-139356637D01*
X270574151Y-139211514D01*
X270450100Y-139105440D01*
X269598896Y-138376414D01*
X270338004Y-137637305D01*
X271077113Y-136898196D01*
X271533486Y-137158568D01*
G37*
X271533486Y-137158568D02*
X271674920Y-137239421D01*
X271804310Y-137313693D01*
X271913965Y-137376943D01*
X271996189Y-137424732D01*
X272043291Y-137452618D01*
X272047766Y-137455384D01*
X272105674Y-137491828D01*
X272037340Y-137612028D01*
X271997328Y-137682918D01*
X271964624Y-137732633D01*
X271931530Y-137760728D01*
X271890343Y-137766755D01*
X271833364Y-137750269D01*
X271752892Y-137710822D01*
X271641226Y-137647968D01*
X271527612Y-137582458D01*
X271148293Y-137364332D01*
X270657379Y-137854060D01*
X270528270Y-137983362D01*
X270411869Y-138100906D01*
X270312835Y-138201910D01*
X270235824Y-138281591D01*
X270185496Y-138335166D01*
X270166509Y-138357854D01*
X270166466Y-138358088D01*
X270185239Y-138380965D01*
X270237623Y-138430748D01*
X270317718Y-138502506D01*
X270419621Y-138591309D01*
X270537431Y-138692224D01*
X270665245Y-138800323D01*
X270797163Y-138910672D01*
X270927281Y-139018343D01*
X271049700Y-139118404D01*
X271158516Y-139205924D01*
X271247828Y-139275972D01*
X271311734Y-139323617D01*
X271344334Y-139343930D01*
X271346771Y-139344221D01*
X271378221Y-139324083D01*
X271439895Y-139278744D01*
X271522474Y-139215217D01*
X271604145Y-139150549D01*
X271695778Y-139078360D01*
X271773168Y-139019785D01*
X271827598Y-138981268D01*
X271849718Y-138969077D01*
X271873736Y-138987216D01*
X271917603Y-139033070D01*
X271970248Y-139093786D01*
X272020601Y-139156516D01*
X272057591Y-139208409D01*
X272061683Y-139215108D01*
X272047461Y-139237671D01*
X272000432Y-139285445D01*
X271927984Y-139352243D01*
X271837503Y-139431877D01*
X271736379Y-139518162D01*
X271631998Y-139604910D01*
X271531749Y-139685935D01*
X271443018Y-139755049D01*
X271373193Y-139806067D01*
X271329663Y-139832802D01*
X271321097Y-139835305D01*
X271298192Y-139819051D01*
X271240651Y-139772894D01*
X271152496Y-139700205D01*
X271037747Y-139604352D01*
X270900425Y-139488707D01*
X270744553Y-139356637D01*
X270574151Y-139211514D01*
X270450100Y-139105440D01*
X269598896Y-138376414D01*
X270338004Y-137637305D01*
X271077113Y-136898196D01*
X271533486Y-137158568D01*
G36*
X265670471Y-137019405D02*
G01*
X266185620Y-137313468D01*
X266100426Y-137458161D01*
X266053733Y-137533203D01*
X266014895Y-137588021D01*
X265993309Y-137610013D01*
X265964982Y-137600252D01*
X265900452Y-137568696D01*
X265807469Y-137519423D01*
X265693784Y-137456510D01*
X265601606Y-137403984D01*
X265231827Y-137190795D01*
X264229937Y-138185353D01*
X264769135Y-138644604D01*
X264912550Y-138766821D01*
X265045323Y-138880096D01*
X265161880Y-138979661D01*
X265256642Y-139060749D01*
X265324033Y-139118591D01*
X265358477Y-139148420D01*
X265359337Y-139149182D01*
X265382006Y-139166569D01*
X265405483Y-139171878D01*
X265437535Y-139161089D01*
X265485930Y-139130184D01*
X265558433Y-139075144D01*
X265662084Y-138992535D01*
X265758692Y-138916114D01*
X265841125Y-138852949D01*
X265901237Y-138809136D01*
X265930886Y-138790768D01*
X265931962Y-138790562D01*
X265958278Y-138810833D01*
X266010139Y-138868901D01*
X266084025Y-138960652D01*
X266141951Y-139036082D01*
X266130967Y-139063686D01*
X266078208Y-139119933D01*
X265983936Y-139204579D01*
X265848411Y-139317379D01*
X265794066Y-139361232D01*
X265676185Y-139454863D01*
X265571491Y-139536332D01*
X265486603Y-139600626D01*
X265428139Y-139642730D01*
X265402800Y-139657631D01*
X265379453Y-139641584D01*
X265321474Y-139595702D01*
X265232931Y-139523370D01*
X265117894Y-139427973D01*
X264980431Y-139312897D01*
X264824611Y-139181528D01*
X264654503Y-139037250D01*
X264541442Y-138940920D01*
X264364754Y-138789869D01*
X264200414Y-138648893D01*
X264052416Y-138521456D01*
X263924758Y-138411020D01*
X263821434Y-138321048D01*
X263746442Y-138255005D01*
X263703776Y-138216352D01*
X263695290Y-138207613D01*
X263711333Y-138186596D01*
X263759813Y-138133529D01*
X263836967Y-138052294D01*
X263939033Y-137946770D01*
X264062247Y-137820837D01*
X264202846Y-137678375D01*
X264357067Y-137523266D01*
X264422097Y-137458180D01*
X265155321Y-136725342D01*
X265670471Y-137019405D01*
G37*
X265670471Y-137019405D02*
X266185620Y-137313468D01*
X266100426Y-137458161D01*
X266053733Y-137533203D01*
X266014895Y-137588021D01*
X265993309Y-137610013D01*
X265964982Y-137600252D01*
X265900452Y-137568696D01*
X265807469Y-137519423D01*
X265693784Y-137456510D01*
X265601606Y-137403984D01*
X265231827Y-137190795D01*
X264229937Y-138185353D01*
X264769135Y-138644604D01*
X264912550Y-138766821D01*
X265045323Y-138880096D01*
X265161880Y-138979661D01*
X265256642Y-139060749D01*
X265324033Y-139118591D01*
X265358477Y-139148420D01*
X265359337Y-139149182D01*
X265382006Y-139166569D01*
X265405483Y-139171878D01*
X265437535Y-139161089D01*
X265485930Y-139130184D01*
X265558433Y-139075144D01*
X265662084Y-138992535D01*
X265758692Y-138916114D01*
X265841125Y-138852949D01*
X265901237Y-138809136D01*
X265930886Y-138790768D01*
X265931962Y-138790562D01*
X265958278Y-138810833D01*
X266010139Y-138868901D01*
X266084025Y-138960652D01*
X266141951Y-139036082D01*
X266130967Y-139063686D01*
X266078208Y-139119933D01*
X265983936Y-139204579D01*
X265848411Y-139317379D01*
X265794066Y-139361232D01*
X265676185Y-139454863D01*
X265571491Y-139536332D01*
X265486603Y-139600626D01*
X265428139Y-139642730D01*
X265402800Y-139657631D01*
X265379453Y-139641584D01*
X265321474Y-139595702D01*
X265232931Y-139523370D01*
X265117894Y-139427973D01*
X264980431Y-139312897D01*
X264824611Y-139181528D01*
X264654503Y-139037250D01*
X264541442Y-138940920D01*
X264364754Y-138789869D01*
X264200414Y-138648893D01*
X264052416Y-138521456D01*
X263924758Y-138411020D01*
X263821434Y-138321048D01*
X263746442Y-138255005D01*
X263703776Y-138216352D01*
X263695290Y-138207613D01*
X263711333Y-138186596D01*
X263759813Y-138133529D01*
X263836967Y-138052294D01*
X263939033Y-137946770D01*
X264062247Y-137820837D01*
X264202846Y-137678375D01*
X264357067Y-137523266D01*
X264422097Y-137458180D01*
X265155321Y-136725342D01*
X265670471Y-137019405D01*
G36*
X267166615Y-136818981D02*
G01*
X267227761Y-136875963D01*
X267317115Y-136959869D01*
X267425940Y-137062460D01*
X267545497Y-137175501D01*
X267654275Y-137278629D01*
X268011061Y-137617348D01*
X267748105Y-137880304D01*
X267413869Y-137563997D01*
X267305643Y-137462238D01*
X267209708Y-137373285D01*
X267132352Y-137302867D01*
X267079864Y-137256715D01*
X267058997Y-137240631D01*
X267034183Y-137255350D01*
X266984743Y-137300691D01*
X266919204Y-137368515D01*
X266881256Y-137410342D01*
X266724151Y-137587113D01*
X266776336Y-138586960D01*
X266787638Y-138807327D01*
X266797708Y-139011222D01*
X266806305Y-139193153D01*
X266813187Y-139347630D01*
X266818111Y-139469161D01*
X266820836Y-139552255D01*
X266821119Y-139591419D01*
X266820736Y-139593758D01*
X266786941Y-139603230D01*
X266721200Y-139609244D01*
X266639433Y-139611737D01*
X266557556Y-139610642D01*
X266491487Y-139605894D01*
X266457142Y-139597428D01*
X266455473Y-139595257D01*
X266450419Y-139558223D01*
X266443072Y-139477335D01*
X266433796Y-139358593D01*
X266422952Y-139207994D01*
X266410903Y-139031540D01*
X266398012Y-138835228D01*
X266384640Y-138625058D01*
X266371150Y-138407031D01*
X266357905Y-138187143D01*
X266345266Y-137971396D01*
X266333597Y-137765788D01*
X266323259Y-137576318D01*
X266314616Y-137408986D01*
X266308029Y-137269792D01*
X266303860Y-137164733D01*
X266302473Y-137099810D01*
X266303588Y-137080832D01*
X266340121Y-137065229D01*
X266421377Y-137058643D01*
X266507408Y-137059928D01*
X266693508Y-137067694D01*
X266864624Y-136882873D01*
X267035741Y-136698051D01*
X267166615Y-136818981D01*
G37*
X267166615Y-136818981D02*
X267227761Y-136875963D01*
X267317115Y-136959869D01*
X267425940Y-137062460D01*
X267545497Y-137175501D01*
X267654275Y-137278629D01*
X268011061Y-137617348D01*
X267748105Y-137880304D01*
X267413869Y-137563997D01*
X267305643Y-137462238D01*
X267209708Y-137373285D01*
X267132352Y-137302867D01*
X267079864Y-137256715D01*
X267058997Y-137240631D01*
X267034183Y-137255350D01*
X266984743Y-137300691D01*
X266919204Y-137368515D01*
X266881256Y-137410342D01*
X266724151Y-137587113D01*
X266776336Y-138586960D01*
X266787638Y-138807327D01*
X266797708Y-139011222D01*
X266806305Y-139193153D01*
X266813187Y-139347630D01*
X266818111Y-139469161D01*
X266820836Y-139552255D01*
X266821119Y-139591419D01*
X266820736Y-139593758D01*
X266786941Y-139603230D01*
X266721200Y-139609244D01*
X266639433Y-139611737D01*
X266557556Y-139610642D01*
X266491487Y-139605894D01*
X266457142Y-139597428D01*
X266455473Y-139595257D01*
X266450419Y-139558223D01*
X266443072Y-139477335D01*
X266433796Y-139358593D01*
X266422952Y-139207994D01*
X266410903Y-139031540D01*
X266398012Y-138835228D01*
X266384640Y-138625058D01*
X266371150Y-138407031D01*
X266357905Y-138187143D01*
X266345266Y-137971396D01*
X266333597Y-137765788D01*
X266323259Y-137576318D01*
X266314616Y-137408986D01*
X266308029Y-137269792D01*
X266303860Y-137164733D01*
X266302473Y-137099810D01*
X266303588Y-137080832D01*
X266340121Y-137065229D01*
X266421377Y-137058643D01*
X266507408Y-137059928D01*
X266693508Y-137067694D01*
X266864624Y-136882873D01*
X267035741Y-136698051D01*
X267166615Y-136818981D01*
G36*
X268446728Y-136290460D02*
G01*
X268453095Y-136353749D01*
X268456997Y-136446626D01*
X268457831Y-136520884D01*
X268456058Y-136627502D01*
X268451278Y-136711566D01*
X268444295Y-136762463D01*
X268438704Y-136772712D01*
X268403423Y-136766896D01*
X268338545Y-136756250D01*
X268314503Y-136752310D01*
X268192713Y-136720264D01*
X268112042Y-136666098D01*
X268064515Y-136581522D01*
X268055364Y-136533635D01*
X268253815Y-136533635D01*
X268266566Y-136546386D01*
X268279317Y-136533635D01*
X268266566Y-136520884D01*
X268253815Y-136533635D01*
X268055364Y-136533635D01*
X268043271Y-136470362D01*
X268044691Y-136436984D01*
X268062942Y-136410774D01*
X268107444Y-136385000D01*
X268187615Y-136352926D01*
X268228313Y-136338076D01*
X268320350Y-136305491D01*
X268393501Y-136280753D01*
X268434866Y-136268192D01*
X268438704Y-136267463D01*
X268446728Y-136290460D01*
G37*
X268446728Y-136290460D02*
X268453095Y-136353749D01*
X268456997Y-136446626D01*
X268457831Y-136520884D01*
X268456058Y-136627502D01*
X268451278Y-136711566D01*
X268444295Y-136762463D01*
X268438704Y-136772712D01*
X268403423Y-136766896D01*
X268338545Y-136756250D01*
X268314503Y-136752310D01*
X268192713Y-136720264D01*
X268112042Y-136666098D01*
X268064515Y-136581522D01*
X268055364Y-136533635D01*
X268253815Y-136533635D01*
X268266566Y-136546386D01*
X268279317Y-136533635D01*
X268266566Y-136520884D01*
X268253815Y-136533635D01*
X268055364Y-136533635D01*
X268043271Y-136470362D01*
X268044691Y-136436984D01*
X268062942Y-136410774D01*
X268107444Y-136385000D01*
X268187615Y-136352926D01*
X268228313Y-136338076D01*
X268320350Y-136305491D01*
X268393501Y-136280753D01*
X268434866Y-136268192D01*
X268438704Y-136267463D01*
X268446728Y-136290460D01*
G36*
X268833986Y-136326632D02*
G01*
X268915385Y-136337775D01*
X269018136Y-136350572D01*
X269076845Y-136357387D01*
X269224072Y-136373896D01*
X269207322Y-136466516D01*
X269167069Y-136601605D01*
X269101899Y-136694210D01*
X269030751Y-136739660D01*
X268967331Y-136764222D01*
X268924534Y-136770942D01*
X268876356Y-136762653D01*
X268859505Y-136758328D01*
X268818540Y-136726376D01*
X268802332Y-136691156D01*
X268769745Y-136545905D01*
X268748865Y-136443434D01*
X268740300Y-136376742D01*
X268744658Y-136338826D01*
X268762546Y-136322685D01*
X268794574Y-136321317D01*
X268833986Y-136326632D01*
G37*
X268833986Y-136326632D02*
X268915385Y-136337775D01*
X269018136Y-136350572D01*
X269076845Y-136357387D01*
X269224072Y-136373896D01*
X269207322Y-136466516D01*
X269167069Y-136601605D01*
X269101899Y-136694210D01*
X269030751Y-136739660D01*
X268967331Y-136764222D01*
X268924534Y-136770942D01*
X268876356Y-136762653D01*
X268859505Y-136758328D01*
X268818540Y-136726376D01*
X268802332Y-136691156D01*
X268769745Y-136545905D01*
X268748865Y-136443434D01*
X268740300Y-136376742D01*
X268744658Y-136338826D01*
X268762546Y-136322685D01*
X268794574Y-136321317D01*
X268833986Y-136326632D01*
%TD*%
D11*
%TO.C,REF\u002A\u002A*%
X236700000Y-99300000D03*
%TD*%
D12*
%TO.C,REF\u002A\u002A*%
X199060000Y-116825000D03*
%TD*%
%TO.C,REF\u002A\u002A*%
X316630000Y-116825000D03*
%TD*%
D13*
%TO.C,.*%
X230600000Y-101100000D03*
%TD*%
%TO.C,.*%
G36*
G01*
X250187739Y-116827322D02*
X248872877Y-116815848D01*
G75*
G02*
X248607678Y-116545979I2335J267534D01*
G01*
X248616316Y-115556105D01*
G75*
G02*
X248886185Y-115290906I267534J-2335D01*
G01*
X250201047Y-115302380D01*
G75*
G02*
X250466246Y-115572249I-2335J-267534D01*
G01*
X250457608Y-116562123D01*
G75*
G02*
X250187739Y-116827322I-267534J2335D01*
G01*
G37*
G36*
G01*
X250161777Y-119802208D02*
X248846915Y-119790734D01*
G75*
G02*
X248581716Y-119520865I2335J267534D01*
G01*
X248590354Y-118530991D01*
G75*
G02*
X248860223Y-118265792I267534J-2335D01*
G01*
X250175085Y-118277266D01*
G75*
G02*
X250440284Y-118547135I-2335J-267534D01*
G01*
X250431646Y-119537009D01*
G75*
G02*
X250161777Y-119802208I-267534J2335D01*
G01*
G37*
%TD*%
%TO.C,.*%
G36*
G01*
X252876796Y-119375651D02*
X251561934Y-119364177D01*
G75*
G02*
X251296735Y-119094308I2335J267534D01*
G01*
X251305373Y-118104434D01*
G75*
G02*
X251575242Y-117839235I267534J-2335D01*
G01*
X252890104Y-117850709D01*
G75*
G02*
X253155303Y-118120578I-2335J-267534D01*
G01*
X253146665Y-119110452D01*
G75*
G02*
X252876796Y-119375651I-267534J2335D01*
G01*
G37*
G36*
G01*
X252902758Y-116400765D02*
X251587896Y-116389291D01*
G75*
G02*
X251322697Y-116119422I2335J267534D01*
G01*
X251331335Y-115129548D01*
G75*
G02*
X251601204Y-114864349I267534J-2335D01*
G01*
X252916066Y-114875823D01*
G75*
G02*
X253181265Y-115145692I-2335J-267534D01*
G01*
X253172627Y-116135566D01*
G75*
G02*
X252902758Y-116400765I-267534J2335D01*
G01*
G37*
%TD*%
%TO.C,.*%
G36*
G01*
X248906887Y-105854817D02*
X247730127Y-106441528D01*
G75*
G02*
X247371315Y-106321472I-119378J239434D01*
G01*
X246929619Y-105435565D01*
G75*
G02*
X247049675Y-105076753I239434J119378D01*
G01*
X248226435Y-104490042D01*
G75*
G02*
X248585247Y-104610098I119378J-239434D01*
G01*
X249026943Y-105496005D01*
G75*
G02*
X248906887Y-105854817I-239434J-119378D01*
G01*
G37*
G36*
G01*
X250234325Y-108517247D02*
X249057565Y-109103958D01*
G75*
G02*
X248698753Y-108983902I-119378J239434D01*
G01*
X248257057Y-108097995D01*
G75*
G02*
X248377113Y-107739183I239434J119378D01*
G01*
X249553873Y-107152472D01*
G75*
G02*
X249912685Y-107272528I119378J-239434D01*
G01*
X250354381Y-108158435D01*
G75*
G02*
X250234325Y-108517247I-239434J-119378D01*
G01*
G37*
%TD*%
%TO.C,.*%
G36*
G01*
X256832481Y-111009693D02*
X255527370Y-111169940D01*
G75*
G02*
X255229215Y-110936995I-32605J265550D01*
G01*
X255108575Y-109954462D01*
G75*
G02*
X255341520Y-109656307I265550J32605D01*
G01*
X256646630Y-109496060D01*
G75*
G02*
X256944785Y-109729005I32605J-265550D01*
G01*
X257065425Y-110711538D01*
G75*
G02*
X256832480Y-111009693I-265550J-32605D01*
G01*
G37*
G36*
G01*
X256469919Y-108056869D02*
X255164808Y-108217116D01*
G75*
G02*
X254866653Y-107984171I-32605J265550D01*
G01*
X254746013Y-107001638D01*
G75*
G02*
X254978958Y-106703483I265550J32605D01*
G01*
X256284068Y-106543236D01*
G75*
G02*
X256582223Y-106776181I32605J-265550D01*
G01*
X256702863Y-107758714D01*
G75*
G02*
X256469918Y-108056869I-265550J-32605D01*
G01*
G37*
%TD*%
%TO.C,.*%
G36*
G01*
X259762200Y-108029281D02*
X258457089Y-108189528D01*
G75*
G02*
X258158934Y-107956583I-32605J265550D01*
G01*
X258038294Y-106974050D01*
G75*
G02*
X258271239Y-106675895I265550J32605D01*
G01*
X259576349Y-106515648D01*
G75*
G02*
X259874504Y-106748593I32605J-265550D01*
G01*
X259995144Y-107731126D01*
G75*
G02*
X259762199Y-108029281I-265550J-32605D01*
G01*
G37*
G36*
G01*
X260124762Y-110982105D02*
X258819651Y-111142352D01*
G75*
G02*
X258521496Y-110909407I-32605J265550D01*
G01*
X258400856Y-109926874D01*
G75*
G02*
X258633801Y-109628719I265550J32605D01*
G01*
X259938911Y-109468472D01*
G75*
G02*
X260237066Y-109701417I32605J-265550D01*
G01*
X260357706Y-110683950D01*
G75*
G02*
X260124761Y-110982105I-265550J-32605D01*
G01*
G37*
%TD*%
%TO.C,.*%
G36*
G01*
X264136623Y-119194183D02*
X262821911Y-119217131D01*
G75*
G02*
X262549739Y-118954297I-4669J267503D01*
G01*
X262532463Y-117964536D01*
G75*
G02*
X262795297Y-117692364I267503J4669D01*
G01*
X264110009Y-117669415D01*
G75*
G02*
X264382181Y-117932249I4669J-267503D01*
G01*
X264399457Y-118922010D01*
G75*
G02*
X264136623Y-119194182I-267503J-4669D01*
G01*
G37*
G36*
G01*
X264084703Y-116219637D02*
X262769991Y-116242585D01*
G75*
G02*
X262497819Y-115979751I-4669J267503D01*
G01*
X262480543Y-114989990D01*
G75*
G02*
X262743377Y-114717818I267503J4669D01*
G01*
X264058089Y-114694869D01*
G75*
G02*
X264330261Y-114957703I4669J-267503D01*
G01*
X264347537Y-115947464D01*
G75*
G02*
X264084703Y-116219636I-267503J-4669D01*
G01*
G37*
%TD*%
%TO.C,.*%
G36*
G01*
X289379166Y-107072029D02*
X290585019Y-106547709D01*
G75*
G02*
X290937056Y-106686380I106683J-245354D01*
G01*
X291331783Y-107594188D01*
G75*
G02*
X291193112Y-107946225I-245354J-106683D01*
G01*
X289987259Y-108470545D01*
G75*
G02*
X289635222Y-108331874I-106683J245354D01*
G01*
X289240495Y-107424066D01*
G75*
G02*
X289379166Y-107072029I245354J106683D01*
G01*
G37*
G36*
G01*
X288192888Y-104343775D02*
X289398741Y-103819455D01*
G75*
G02*
X289750778Y-103958126I106683J-245354D01*
G01*
X290145505Y-104865934D01*
G75*
G02*
X290006834Y-105217971I-245354J-106683D01*
G01*
X288800981Y-105742291D01*
G75*
G02*
X288448944Y-105603620I-106683J245354D01*
G01*
X288054217Y-104695812D01*
G75*
G02*
X288192888Y-104343775I245354J106683D01*
G01*
G37*
%TD*%
%TO.C,.*%
G36*
G01*
X289425489Y-118666510D02*
X289345215Y-119978969D01*
G75*
G02*
X289061837Y-120229681I-267045J16333D01*
G01*
X288073771Y-120169248D01*
G75*
G02*
X287823059Y-119885870I16333J267045D01*
G01*
X287903333Y-118573411D01*
G75*
G02*
X288186711Y-118322699I267045J-16333D01*
G01*
X289174777Y-118383132D01*
G75*
G02*
X289425489Y-118666510I-16333J-267045D01*
G01*
G37*
G36*
G01*
X292394941Y-118848130D02*
X292314667Y-120160589D01*
G75*
G02*
X292031289Y-120411301I-267045J16333D01*
G01*
X291043223Y-120350868D01*
G75*
G02*
X290792511Y-120067490I16333J267045D01*
G01*
X290872785Y-118755031D01*
G75*
G02*
X291156163Y-118504319I267045J-16333D01*
G01*
X292144229Y-118564752D01*
G75*
G02*
X292394941Y-118848130I-16333J-267045D01*
G01*
G37*
%TD*%
%TO.C,.*%
G36*
G01*
X273610907Y-109186108D02*
X273226464Y-110443564D01*
G75*
G02*
X272892388Y-110621196I-255854J78222D01*
G01*
X271945731Y-110331774D01*
G75*
G02*
X271768099Y-109997698I78222J255854D01*
G01*
X272152542Y-108740242D01*
G75*
G02*
X272486618Y-108562610I255854J-78222D01*
G01*
X273433275Y-108852032D01*
G75*
G02*
X273610907Y-109186108I-78222J-255854D01*
G01*
G37*
G36*
G01*
X270765901Y-108316302D02*
X270381458Y-109573758D01*
G75*
G02*
X270047382Y-109751390I-255854J78222D01*
G01*
X269100725Y-109461968D01*
G75*
G02*
X268923093Y-109127892I78222J255854D01*
G01*
X269307536Y-107870436D01*
G75*
G02*
X269641612Y-107692804I255854J-78222D01*
G01*
X270588269Y-107982226D01*
G75*
G02*
X270765901Y-108316302I-78222J-255854D01*
G01*
G37*
%TD*%
%TO.C,.*%
G36*
G01*
X267394703Y-116057637D02*
X266079991Y-116080585D01*
G75*
G02*
X265807819Y-115817751I-4669J267503D01*
G01*
X265790543Y-114827990D01*
G75*
G02*
X266053377Y-114555818I267503J4669D01*
G01*
X267368089Y-114532869D01*
G75*
G02*
X267640261Y-114795703I4669J-267503D01*
G01*
X267657537Y-115785464D01*
G75*
G02*
X267394703Y-116057636I-267503J-4669D01*
G01*
G37*
G36*
G01*
X267446623Y-119032183D02*
X266131911Y-119055131D01*
G75*
G02*
X265859739Y-118792297I-4669J267503D01*
G01*
X265842463Y-117802536D01*
G75*
G02*
X266105297Y-117530364I267503J4669D01*
G01*
X267420009Y-117507415D01*
G75*
G02*
X267692181Y-117770249I4669J-267503D01*
G01*
X267709457Y-118760010D01*
G75*
G02*
X267446623Y-119032182I-267503J-4669D01*
G01*
G37*
%TD*%
%TO.C,.*%
G36*
G01*
X278408454Y-124067901D02*
X278191431Y-125364780D01*
G75*
G02*
X277883399Y-125584498I-263875J44157D01*
G01*
X276907063Y-125421115D01*
G75*
G02*
X276687345Y-125113083I44157J263875D01*
G01*
X276904369Y-123816204D01*
G75*
G02*
X277212401Y-123596486I263875J-44157D01*
G01*
X278188737Y-123759869D01*
G75*
G02*
X278408455Y-124067901I-44157J-263875D01*
G01*
G37*
G36*
G01*
X281342654Y-124558917D02*
X281125631Y-125855796D01*
G75*
G02*
X280817599Y-126075514I-263875J44157D01*
G01*
X279841263Y-125912131D01*
G75*
G02*
X279621545Y-125604099I44157J263875D01*
G01*
X279838569Y-124307220D01*
G75*
G02*
X280146601Y-124087502I263875J-44157D01*
G01*
X281122937Y-124250885D01*
G75*
G02*
X281342655Y-124558917I-44157J-263875D01*
G01*
G37*
%TD*%
%TO.C,1nF*%
G36*
G01*
X285738758Y-122321565D02*
X284440560Y-122104321D01*
G75*
G02*
X284221392Y-121797059I44047J263215D01*
G01*
X284384996Y-120819403D01*
G75*
G02*
X284692258Y-120600235I263215J-44047D01*
G01*
X285990456Y-120817479D01*
G75*
G02*
X286209624Y-121124741I-44047J-263215D01*
G01*
X286046020Y-122102397D01*
G75*
G02*
X285738758Y-122321565I-263215J44047D01*
G01*
G37*
G36*
G01*
X285247742Y-125255765D02*
X283949544Y-125038521D01*
G75*
G02*
X283730376Y-124731259I44047J263215D01*
G01*
X283893980Y-123753603D01*
G75*
G02*
X284201242Y-123534435I263215J-44047D01*
G01*
X285499440Y-123751679D01*
G75*
G02*
X285718608Y-124058941I-44047J-263215D01*
G01*
X285555004Y-125036597D01*
G75*
G02*
X285247742Y-125255765I-263215J44047D01*
G01*
G37*
%TD*%
%TO.C,.*%
G36*
G01*
X229455117Y-109898615D02*
X228729369Y-110995101D01*
G75*
G02*
X228358601Y-111070535I-223101J147667D01*
G01*
X227533127Y-110524166D01*
G75*
G02*
X227457693Y-110153398I147667J223101D01*
G01*
X228183441Y-109056911D01*
G75*
G02*
X228554209Y-108981477I223101J-147667D01*
G01*
X229379683Y-109527846D01*
G75*
G02*
X229455117Y-109898614I-147667J-223101D01*
G01*
G37*
G36*
G01*
X226974307Y-108256603D02*
X226248559Y-109353089D01*
G75*
G02*
X225877791Y-109428523I-223101J147667D01*
G01*
X225052317Y-108882154D01*
G75*
G02*
X224976883Y-108511386I147667J223101D01*
G01*
X225702631Y-107414899D01*
G75*
G02*
X226073399Y-107339465I223101J-147667D01*
G01*
X226898873Y-107885834D01*
G75*
G02*
X226974307Y-108256602I-147667J-223101D01*
G01*
G37*
%TD*%
%TO.C,.*%
G36*
G01*
X257310703Y-124444637D02*
X255995991Y-124467585D01*
G75*
G02*
X255723819Y-124204751I-4669J267503D01*
G01*
X255706543Y-123214990D01*
G75*
G02*
X255969377Y-122942818I267503J4669D01*
G01*
X257284089Y-122919869D01*
G75*
G02*
X257556261Y-123182703I4669J-267503D01*
G01*
X257573537Y-124172464D01*
G75*
G02*
X257310703Y-124444636I-267503J-4669D01*
G01*
G37*
G36*
G01*
X257362623Y-127419183D02*
X256047911Y-127442131D01*
G75*
G02*
X255775739Y-127179297I-4669J267503D01*
G01*
X255758463Y-126189536D01*
G75*
G02*
X256021297Y-125917364I267503J4669D01*
G01*
X257336009Y-125894415D01*
G75*
G02*
X257608181Y-126157249I4669J-267503D01*
G01*
X257625457Y-127147010D01*
G75*
G02*
X257362623Y-127419182I-267503J-4669D01*
G01*
G37*
%TD*%
D14*
%TO.C,.*%
G36*
X285147981Y-127747236D02*
G01*
X286032910Y-127911248D01*
X285850675Y-128894502D01*
X284965746Y-128730490D01*
X285147981Y-127747236D01*
G37*
G36*
X283279796Y-127400988D02*
G01*
X284164725Y-127565000D01*
X283982490Y-128548254D01*
X283097561Y-128384242D01*
X283279796Y-127400988D01*
G37*
G36*
X283849417Y-129540622D02*
G01*
X284734346Y-129704634D01*
X284552111Y-130687888D01*
X283667182Y-130523876D01*
X283849417Y-129540622D01*
G37*
%TD*%
%TO.C,.*%
G36*
G01*
X260446623Y-127668183D02*
X259131911Y-127691131D01*
G75*
G02*
X258859739Y-127428297I-4669J267503D01*
G01*
X258842463Y-126438536D01*
G75*
G02*
X259105297Y-126166364I267503J4669D01*
G01*
X260420009Y-126143415D01*
G75*
G02*
X260692181Y-126406249I4669J-267503D01*
G01*
X260709457Y-127396010D01*
G75*
G02*
X260446623Y-127668182I-267503J-4669D01*
G01*
G37*
G36*
G01*
X260394703Y-124693637D02*
X259079991Y-124716585D01*
G75*
G02*
X258807819Y-124453751I-4669J267503D01*
G01*
X258790543Y-123463990D01*
G75*
G02*
X259053377Y-123191818I267503J4669D01*
G01*
X260368089Y-123168869D01*
G75*
G02*
X260640261Y-123431703I4669J-267503D01*
G01*
X260657537Y-124421464D01*
G75*
G02*
X260394703Y-124693636I-267503J-4669D01*
G01*
G37*
%TD*%
%TO.C,1nF*%
G36*
G01*
X231256653Y-121538653D02*
X230001323Y-121934457D01*
G75*
G02*
X229666549Y-121760185I-80251J254523D01*
G01*
X229368475Y-120814813D01*
G75*
G02*
X229542747Y-120480039I254523J80251D01*
G01*
X230798077Y-120084235D01*
G75*
G02*
X231132851Y-120258507I80251J-254523D01*
G01*
X231430925Y-121203879D01*
G75*
G02*
X231256653Y-121538653I-254523J-80251D01*
G01*
G37*
G36*
G01*
X232151253Y-124375961D02*
X230895923Y-124771765D01*
G75*
G02*
X230561149Y-124597493I-80251J254523D01*
G01*
X230263075Y-123652121D01*
G75*
G02*
X230437347Y-123317347I254523J80251D01*
G01*
X231692677Y-122921543D01*
G75*
G02*
X232027451Y-123095815I80251J-254523D01*
G01*
X232325525Y-124041187D01*
G75*
G02*
X232151253Y-124375961I-254523J-80251D01*
G01*
G37*
%TD*%
%TO.C,.*%
G36*
G01*
X280826689Y-127495761D02*
X281561979Y-128585872D01*
G75*
G02*
X281489784Y-128957285I-221804J-149609D01*
G01*
X280669110Y-129510837D01*
G75*
G02*
X280297697Y-129438642I-149609J221804D01*
G01*
X279562407Y-128348530D01*
G75*
G02*
X279634602Y-127977117I221804J149609D01*
G01*
X280455276Y-127423565D01*
G75*
G02*
X280826689Y-127495760I149609J-221804D01*
G01*
G37*
G36*
G01*
X278360303Y-129159359D02*
X279095593Y-130249470D01*
G75*
G02*
X279023398Y-130620883I-221804J-149609D01*
G01*
X278202724Y-131174435D01*
G75*
G02*
X277831311Y-131102240I-149609J221804D01*
G01*
X277096021Y-130012128D01*
G75*
G02*
X277168216Y-129640715I221804J149609D01*
G01*
X277988890Y-129087163D01*
G75*
G02*
X278360303Y-129159358I149609J-221804D01*
G01*
G37*
%TD*%
%TO.C,.*%
G36*
G01*
X301513711Y-117506369D02*
X300312479Y-118041192D01*
G75*
G02*
X299959245Y-117905598I-108820J244414D01*
G01*
X299556611Y-117001269D01*
G75*
G02*
X299692205Y-116648035I244414J108820D01*
G01*
X300893437Y-116113212D01*
G75*
G02*
X301246671Y-116248806I108820J-244414D01*
G01*
X301649305Y-117153135D01*
G75*
G02*
X301513711Y-117506369I-244414J-108820D01*
G01*
G37*
G36*
G01*
X302723753Y-120224167D02*
X301522521Y-120758990D01*
G75*
G02*
X301169287Y-120623396I-108820J244414D01*
G01*
X300766653Y-119719067D01*
G75*
G02*
X300902247Y-119365833I244414J108820D01*
G01*
X302103479Y-118831010D01*
G75*
G02*
X302456713Y-118966604I108820J-244414D01*
G01*
X302859347Y-119870933D01*
G75*
G02*
X302723753Y-120224167I-244414J-108820D01*
G01*
G37*
%TD*%
%TO.C,.*%
G36*
G01*
X299081962Y-122941481D02*
X297771104Y-123044648D01*
G75*
G02*
X297483394Y-122798920I-20991J266719D01*
G01*
X297405726Y-121812059D01*
G75*
G02*
X297651454Y-121524349I266719J20991D01*
G01*
X298962312Y-121421182D01*
G75*
G02*
X299250022Y-121666910I20991J-266719D01*
G01*
X299327690Y-122653771D01*
G75*
G02*
X299081962Y-122941481I-266719J-20991D01*
G01*
G37*
G36*
G01*
X298848546Y-119975651D02*
X297537688Y-120078818D01*
G75*
G02*
X297249978Y-119833090I-20991J266719D01*
G01*
X297172310Y-118846229D01*
G75*
G02*
X297418038Y-118558519I266719J20991D01*
G01*
X298728896Y-118455352D01*
G75*
G02*
X299016606Y-118701080I20991J-266719D01*
G01*
X299094274Y-119687941D01*
G75*
G02*
X298848546Y-119975651I-266719J-20991D01*
G01*
G37*
%TD*%
%TO.C,.*%
G36*
G01*
X267717235Y-125428979D02*
X266646745Y-126192553D01*
G75*
G02*
X266273569Y-126130105I-155364J217812D01*
G01*
X265698724Y-125324202D01*
G75*
G02*
X265761172Y-124951026I217812J155364D01*
G01*
X266831663Y-124187453D01*
G75*
G02*
X267204839Y-124249901I155364J-217812D01*
G01*
X267779684Y-125055804D01*
G75*
G02*
X267717236Y-125428980I-217812J-155364D01*
G01*
G37*
G36*
G01*
X269444827Y-127850973D02*
X268374337Y-128614547D01*
G75*
G02*
X268001161Y-128552099I-155364J217812D01*
G01*
X267426316Y-127746196D01*
G75*
G02*
X267488764Y-127373020I217812J155364D01*
G01*
X268559255Y-126609447D01*
G75*
G02*
X268932431Y-126671895I155364J-217812D01*
G01*
X269507276Y-127477798D01*
G75*
G02*
X269444828Y-127850974I-217812J-155364D01*
G01*
G37*
%TD*%
%TO.C,.*%
G36*
G01*
X275848901Y-106580302D02*
X275464458Y-107837758D01*
G75*
G02*
X275130382Y-108015390I-255854J78222D01*
G01*
X274183725Y-107725968D01*
G75*
G02*
X274006093Y-107391892I78222J255854D01*
G01*
X274390536Y-106134436D01*
G75*
G02*
X274724612Y-105956804I255854J-78222D01*
G01*
X275671269Y-106246226D01*
G75*
G02*
X275848901Y-106580302I-78222J-255854D01*
G01*
G37*
G36*
G01*
X278693907Y-107450108D02*
X278309464Y-108707564D01*
G75*
G02*
X277975388Y-108885196I-255854J78222D01*
G01*
X277028731Y-108595774D01*
G75*
G02*
X276851099Y-108261698I78222J255854D01*
G01*
X277235542Y-107004242D01*
G75*
G02*
X277569618Y-106826610I255854J-78222D01*
G01*
X278516275Y-107116032D01*
G75*
G02*
X278693907Y-107450108I-78222J-255854D01*
G01*
G37*
%TD*%
%TO.C,.*%
G36*
G01*
X292136941Y-121863130D02*
X292056667Y-123175589D01*
G75*
G02*
X291773289Y-123426301I-267045J16333D01*
G01*
X290785223Y-123365868D01*
G75*
G02*
X290534511Y-123082490I16333J267045D01*
G01*
X290614785Y-121770031D01*
G75*
G02*
X290898163Y-121519319I267045J-16333D01*
G01*
X291886229Y-121579752D01*
G75*
G02*
X292136941Y-121863130I-16333J-267045D01*
G01*
G37*
G36*
G01*
X289167489Y-121681510D02*
X289087215Y-122993969D01*
G75*
G02*
X288803837Y-123244681I-267045J16333D01*
G01*
X287815771Y-123184248D01*
G75*
G02*
X287565059Y-122900870I16333J267045D01*
G01*
X287645333Y-121588411D01*
G75*
G02*
X287928711Y-121337699I267045J-16333D01*
G01*
X288916777Y-121398132D01*
G75*
G02*
X289167489Y-121681510I-16333J-267045D01*
G01*
G37*
%TD*%
%TO.C,.*%
G36*
X280658799Y-103555777D02*
G01*
X279763729Y-103461701D01*
X279868257Y-102467179D01*
X280763327Y-102561255D01*
X280658799Y-103555777D01*
G37*
G36*
X281394538Y-105644123D02*
G01*
X280499468Y-105550047D01*
X280603996Y-104555525D01*
X281499066Y-104649601D01*
X281394538Y-105644123D01*
G37*
G36*
X279504947Y-105445519D02*
G01*
X278609877Y-105351443D01*
X278714405Y-104356921D01*
X279609475Y-104450997D01*
X279504947Y-105445519D01*
G37*
%TD*%
%TO.C,.*%
G36*
G01*
X289532785Y-114777927D02*
X289727142Y-116078395D01*
G75*
G02*
X289502083Y-116382546I-264605J-39546D01*
G01*
X288523044Y-116528865D01*
G75*
G02*
X288218893Y-116303806I-39546J264605D01*
G01*
X288024536Y-115003337D01*
G75*
G02*
X288249595Y-114699186I264605J39546D01*
G01*
X289228634Y-114552867D01*
G75*
G02*
X289532785Y-114777926I39546J-264605D01*
G01*
G37*
G36*
G01*
X292475107Y-114338195D02*
X292669464Y-115638663D01*
G75*
G02*
X292444405Y-115942814I-264605J-39546D01*
G01*
X291465366Y-116089133D01*
G75*
G02*
X291161215Y-115864074I-39546J264605D01*
G01*
X290966858Y-114563605D01*
G75*
G02*
X291191917Y-114259454I264605J39546D01*
G01*
X292170956Y-114113135D01*
G75*
G02*
X292475107Y-114338194I39546J-264605D01*
G01*
G37*
%TD*%
%TO.C,.*%
G36*
X293418906Y-120987997D02*
G01*
X293140791Y-120132046D01*
X294091848Y-119823029D01*
X294369963Y-120678980D01*
X293418906Y-120987997D01*
G37*
G36*
X294006039Y-122795005D02*
G01*
X293727924Y-121939054D01*
X294678981Y-121630037D01*
X294957096Y-122485988D01*
X294006039Y-122795005D01*
G37*
G36*
X295614586Y-121273467D02*
G01*
X295336471Y-120417516D01*
X296287528Y-120108499D01*
X296565643Y-120964450D01*
X295614586Y-121273467D01*
G37*
%TD*%
%TO.C,.*%
G36*
X295354552Y-113906769D02*
G01*
X296137872Y-113463588D01*
X296630296Y-114333943D01*
X295846976Y-114777124D01*
X295354552Y-113906769D01*
G37*
G36*
X293542867Y-112633860D02*
G01*
X294326187Y-112190679D01*
X294818611Y-113061034D01*
X294035291Y-113504215D01*
X293542867Y-112633860D01*
G37*
G36*
X295196542Y-111698255D02*
G01*
X295979862Y-111255074D01*
X296472286Y-112125429D01*
X295688966Y-112568610D01*
X295196542Y-111698255D01*
G37*
%TD*%
%TO.C,.*%
G36*
X265445649Y-111239819D02*
G01*
X264897764Y-111953837D01*
X264104411Y-111345075D01*
X264652296Y-110631057D01*
X265445649Y-111239819D01*
G37*
G36*
X266602296Y-109732448D02*
G01*
X266054411Y-110446466D01*
X265261058Y-109837704D01*
X265808943Y-109123686D01*
X266602296Y-109732448D01*
G37*
G36*
X264437266Y-109268611D02*
G01*
X263889381Y-109982629D01*
X263096028Y-109373867D01*
X263643913Y-108659849D01*
X264437266Y-109268611D01*
G37*
%TD*%
%TO.C,.*%
G36*
X219275746Y-114955733D02*
G01*
X218982735Y-115806699D01*
X218037216Y-115481131D01*
X218330227Y-114630165D01*
X219275746Y-114955733D01*
G37*
G36*
X221476073Y-114708627D02*
G01*
X221183062Y-115559593D01*
X220237543Y-115234025D01*
X220530554Y-114383059D01*
X221476073Y-114708627D01*
G37*
G36*
X220857494Y-116505112D02*
G01*
X220564483Y-117356078D01*
X219618964Y-117030510D01*
X219911975Y-116179544D01*
X220857494Y-116505112D01*
G37*
%TD*%
%TO.C,.*%
G36*
G01*
X287665427Y-108570945D02*
X286802767Y-109563322D01*
G75*
G02*
X286425324Y-109589715I-201918J175525D01*
G01*
X285678228Y-108940274D01*
G75*
G02*
X285651835Y-108562831I175525J201918D01*
G01*
X286514495Y-107570454D01*
G75*
G02*
X286891938Y-107544061I201918J-175525D01*
G01*
X287639034Y-108193502D01*
G75*
G02*
X287665427Y-108570945I-175525J-201918D01*
G01*
G37*
G36*
G01*
X285420165Y-106619169D02*
X284557505Y-107611546D01*
G75*
G02*
X284180062Y-107637939I-201918J175525D01*
G01*
X283432966Y-106988498D01*
G75*
G02*
X283406573Y-106611055I175525J201918D01*
G01*
X284269233Y-105618678D01*
G75*
G02*
X284646676Y-105592285I201918J-175525D01*
G01*
X285393772Y-106241726D01*
G75*
G02*
X285420165Y-106619169I-175525J-201918D01*
G01*
G37*
%TD*%
%TO.C,1nF*%
G36*
G01*
X231152668Y-115453997D02*
X229860601Y-115202845D01*
G75*
G02*
X229649551Y-114889951I50922J261972D01*
G01*
X229838690Y-113916913D01*
G75*
G02*
X230151584Y-113705863I261972J-50922D01*
G01*
X231443651Y-113957015D01*
G75*
G02*
X231654701Y-114269909I-50922J-261972D01*
G01*
X231465562Y-115242947D01*
G75*
G02*
X231152668Y-115453997I-261972J50922D01*
G01*
G37*
G36*
G01*
X231720324Y-112533657D02*
X230428257Y-112282505D01*
G75*
G02*
X230217207Y-111969611I50922J261972D01*
G01*
X230406346Y-110996573D01*
G75*
G02*
X230719240Y-110785523I261972J-50922D01*
G01*
X232011307Y-111036675D01*
G75*
G02*
X232222357Y-111349569I-50922J-261972D01*
G01*
X232033218Y-112322607D01*
G75*
G02*
X231720324Y-112533657I-261972J50922D01*
G01*
G37*
%TD*%
%TO.C,.*%
G36*
G01*
X243022083Y-119094627D02*
X241713224Y-119220656D01*
G75*
G02*
X241421269Y-118979987I-25643J266312D01*
G01*
X241326390Y-117994632D01*
G75*
G02*
X241567059Y-117702677I266312J25643D01*
G01*
X242875918Y-117576648D01*
G75*
G02*
X243167873Y-117817317I25643J-266312D01*
G01*
X243262752Y-118802672D01*
G75*
G02*
X243022083Y-119094627I-266312J-25643D01*
G01*
G37*
G36*
G01*
X242736941Y-116133323D02*
X241428082Y-116259352D01*
G75*
G02*
X241136127Y-116018683I-25643J266312D01*
G01*
X241041248Y-115033328D01*
G75*
G02*
X241281917Y-114741373I266312J25643D01*
G01*
X242590776Y-114615344D01*
G75*
G02*
X242882731Y-114856013I25643J-266312D01*
G01*
X242977610Y-115841368D01*
G75*
G02*
X242736941Y-116133323I-266312J-25643D01*
G01*
G37*
%TD*%
%TO.C,.*%
G36*
G01*
X271496805Y-120446107D02*
X270196337Y-120640464D01*
G75*
G02*
X269892186Y-120415405I-39546J264605D01*
G01*
X269745867Y-119436366D01*
G75*
G02*
X269970926Y-119132215I264605J39546D01*
G01*
X271271395Y-118937858D01*
G75*
G02*
X271575546Y-119162917I39546J-264605D01*
G01*
X271721865Y-120141956D01*
G75*
G02*
X271496806Y-120446107I-264605J-39546D01*
G01*
G37*
G36*
G01*
X271057073Y-117503785D02*
X269756605Y-117698142D01*
G75*
G02*
X269452454Y-117473083I-39546J264605D01*
G01*
X269306135Y-116494044D01*
G75*
G02*
X269531194Y-116189893I264605J39546D01*
G01*
X270831663Y-115995536D01*
G75*
G02*
X271135814Y-116220595I39546J-264605D01*
G01*
X271282133Y-117199634D01*
G75*
G02*
X271057074Y-117503785I-264605J-39546D01*
G01*
G37*
%TD*%
%TO.C,.*%
G36*
G01*
X291539370Y-110550834D02*
X291967464Y-111794108D01*
G75*
G02*
X291801600Y-112134180I-252968J-87104D01*
G01*
X290865620Y-112456464D01*
G75*
G02*
X290525548Y-112290600I-87104J252968D01*
G01*
X290097454Y-111047326D01*
G75*
G02*
X290263318Y-110707254I252968J87104D01*
G01*
X291199298Y-110384970D01*
G75*
G02*
X291539370Y-110550834I87104J-252968D01*
G01*
G37*
G36*
G01*
X288726452Y-111519400D02*
X289154546Y-112762674D01*
G75*
G02*
X288988682Y-113102746I-252968J-87104D01*
G01*
X288052702Y-113425030D01*
G75*
G02*
X287712630Y-113259166I-87104J252968D01*
G01*
X287284536Y-112015892D01*
G75*
G02*
X287450400Y-111675820I252968J87104D01*
G01*
X288386380Y-111353536D01*
G75*
G02*
X288726452Y-111519400I87104J-252968D01*
G01*
G37*
%TD*%
%TO.C,.*%
G36*
G01*
X288773326Y-125921328D02*
X287480433Y-126160952D01*
G75*
G02*
X287168613Y-125946644I-48756J263064D01*
G01*
X286988216Y-124973308D01*
G75*
G02*
X287202524Y-124661488I263064J48756D01*
G01*
X288495417Y-124421864D01*
G75*
G02*
X288807237Y-124636172I48756J-263064D01*
G01*
X288987634Y-125609508D01*
G75*
G02*
X288773326Y-125921328I-263064J-48756D01*
G01*
G37*
G36*
G01*
X289315476Y-128846512D02*
X288022583Y-129086136D01*
G75*
G02*
X287710763Y-128871828I-48756J263064D01*
G01*
X287530366Y-127898492D01*
G75*
G02*
X287744674Y-127586672I263064J48756D01*
G01*
X289037567Y-127347048D01*
G75*
G02*
X289349387Y-127561356I48756J-263064D01*
G01*
X289529784Y-128534692D01*
G75*
G02*
X289315476Y-128846512I-263064J-48756D01*
G01*
G37*
%TD*%
%TO.C,.*%
G36*
G01*
X267783975Y-121018488D02*
X267910004Y-122327347D01*
G75*
G02*
X267669335Y-122619302I-266312J-25643D01*
G01*
X266683980Y-122714181D01*
G75*
G02*
X266392025Y-122473512I-25643J266312D01*
G01*
X266265996Y-121164653D01*
G75*
G02*
X266506665Y-120872698I266312J25643D01*
G01*
X267492020Y-120777819D01*
G75*
G02*
X267783975Y-121018488I25643J-266312D01*
G01*
G37*
G36*
G01*
X264822671Y-121303630D02*
X264948700Y-122612489D01*
G75*
G02*
X264708031Y-122904444I-266312J-25643D01*
G01*
X263722676Y-122999323D01*
G75*
G02*
X263430721Y-122758654I-25643J266312D01*
G01*
X263304692Y-121449795D01*
G75*
G02*
X263545361Y-121157840I266312J25643D01*
G01*
X264530716Y-121062961D01*
G75*
G02*
X264822671Y-121303630I25643J-266312D01*
G01*
G37*
%TD*%
%TO.C,.*%
G36*
G01*
X292799476Y-129620512D02*
X291506583Y-129860136D01*
G75*
G02*
X291194763Y-129645828I-48756J263064D01*
G01*
X291014366Y-128672492D01*
G75*
G02*
X291228674Y-128360672I263064J48756D01*
G01*
X292521567Y-128121048D01*
G75*
G02*
X292833387Y-128335356I48756J-263064D01*
G01*
X293013784Y-129308692D01*
G75*
G02*
X292799476Y-129620512I-263064J-48756D01*
G01*
G37*
G36*
G01*
X292257326Y-126695328D02*
X290964433Y-126934952D01*
G75*
G02*
X290652613Y-126720644I-48756J263064D01*
G01*
X290472216Y-125747308D01*
G75*
G02*
X290686524Y-125435488I263064J48756D01*
G01*
X291979417Y-125195864D01*
G75*
G02*
X292291237Y-125410172I48756J-263064D01*
G01*
X292471634Y-126383508D01*
G75*
G02*
X292257326Y-126695328I-263064J-48756D01*
G01*
G37*
%TD*%
%TO.C,.*%
G36*
X251372541Y-123952455D02*
G01*
X252056907Y-123367951D01*
X252706355Y-124128357D01*
X252021989Y-124712861D01*
X251372541Y-123952455D01*
G37*
G36*
X249351259Y-123048619D02*
G01*
X250035625Y-122464115D01*
X250685073Y-123224521D01*
X250000707Y-123809025D01*
X249351259Y-123048619D01*
G37*
G36*
X250796031Y-121814667D02*
G01*
X251480397Y-121230163D01*
X252129845Y-121990569D01*
X251445479Y-122575073D01*
X250796031Y-121814667D01*
G37*
%TD*%
%TO.C,.*%
G36*
G01*
X303819604Y-113162082D02*
X303636603Y-114464197D01*
G75*
G02*
X303334428Y-114691902I-264940J37235D01*
G01*
X302354150Y-114554133D01*
G75*
G02*
X302126445Y-114251958I37235J264940D01*
G01*
X302309445Y-112949843D01*
G75*
G02*
X302611620Y-112722138I264940J-37235D01*
G01*
X303591898Y-112859907D01*
G75*
G02*
X303819603Y-113162082I-37235J-264940D01*
G01*
G37*
G36*
G01*
X300873556Y-112748042D02*
X300690555Y-114050157D01*
G75*
G02*
X300388380Y-114277862I-264940J37235D01*
G01*
X299408102Y-114140093D01*
G75*
G02*
X299180397Y-113837918I37235J264940D01*
G01*
X299363397Y-112535803D01*
G75*
G02*
X299665572Y-112308098I264940J-37235D01*
G01*
X300645850Y-112445867D01*
G75*
G02*
X300873555Y-112748042I-37235J-264940D01*
G01*
G37*
%TD*%
%TO.C,1nF*%
G36*
G01*
X283063747Y-109996039D02*
X284319077Y-109600235D01*
G75*
G02*
X284653851Y-109774507I80251J-254523D01*
G01*
X284951925Y-110719879D01*
G75*
G02*
X284777653Y-111054653I-254523J-80251D01*
G01*
X283522323Y-111450457D01*
G75*
G02*
X283187549Y-111276185I-80251J254523D01*
G01*
X282889475Y-110330813D01*
G75*
G02*
X283063747Y-109996039I254523J80251D01*
G01*
G37*
G36*
G01*
X283958347Y-112833347D02*
X285213677Y-112437543D01*
G75*
G02*
X285548451Y-112611815I80251J-254523D01*
G01*
X285846525Y-113557187D01*
G75*
G02*
X285672253Y-113891961I-254523J-80251D01*
G01*
X284416923Y-114287765D01*
G75*
G02*
X284082149Y-114113493I-80251J254523D01*
G01*
X283784075Y-113168121D01*
G75*
G02*
X283958347Y-112833347I254523J80251D01*
G01*
G37*
%TD*%
%TO.C,.*%
G36*
G01*
X301408479Y-126750285D02*
X301670630Y-128038799D01*
G75*
G02*
X301461797Y-128354312I-262173J-53340D01*
G01*
X300491758Y-128551669D01*
G75*
G02*
X300176245Y-128342836I-53340J262173D01*
G01*
X299914094Y-127054321D01*
G75*
G02*
X300122927Y-126738808I262173J53340D01*
G01*
X301092966Y-126541451D01*
G75*
G02*
X301408479Y-126750284I53340J-262173D01*
G01*
G37*
G36*
G01*
X304323755Y-126157165D02*
X304585906Y-127445679D01*
G75*
G02*
X304377073Y-127761192I-262173J-53340D01*
G01*
X303407034Y-127958549D01*
G75*
G02*
X303091521Y-127749716I-53340J262173D01*
G01*
X302829370Y-126461201D01*
G75*
G02*
X303038203Y-126145688I262173J53340D01*
G01*
X304008242Y-125948331D01*
G75*
G02*
X304323755Y-126157164I53340J-262173D01*
G01*
G37*
%TD*%
%TO.C,.*%
G36*
X235690894Y-127579184D02*
G01*
X236582135Y-127704440D01*
X236442962Y-128694708D01*
X235551721Y-128569452D01*
X235690894Y-127579184D01*
G37*
G36*
X233809384Y-127314755D02*
G01*
X234700625Y-127440011D01*
X234561452Y-128430279D01*
X233670211Y-128305023D01*
X233809384Y-127314755D01*
G37*
G36*
X234471793Y-129427506D02*
G01*
X235363034Y-129552762D01*
X235223861Y-130543030D01*
X234332620Y-130417774D01*
X234471793Y-129427506D01*
G37*
%TD*%
D13*
%TO.C,.*%
X209060000Y-111000000D03*
%TD*%
D14*
%TO.C,.*%
G36*
X221761176Y-122361820D02*
G01*
X221490541Y-121503474D01*
X222444258Y-121202768D01*
X222714893Y-122061114D01*
X221761176Y-122361820D01*
G37*
G36*
X220139413Y-123869263D02*
G01*
X219868778Y-123010917D01*
X220822495Y-122710211D01*
X221093130Y-123568557D01*
X220139413Y-123869263D01*
G37*
G36*
X219568072Y-122057201D02*
G01*
X219297437Y-121198855D01*
X220251154Y-120898149D01*
X220521789Y-121756495D01*
X219568072Y-122057201D01*
G37*
%TD*%
%TO.C,1N914*%
G36*
X246784811Y-122971800D02*
G01*
X245698353Y-123143878D01*
X245526275Y-122057420D01*
X246612733Y-121885342D01*
X246784811Y-122971800D01*
G37*
G36*
X246393725Y-120502580D02*
G01*
X245307267Y-120674658D01*
X245135189Y-119588200D01*
X246221647Y-119416122D01*
X246393725Y-120502580D01*
G37*
%TD*%
%TO.C,1N914*%
G36*
X247192118Y-114583745D02*
G01*
X246155212Y-114216557D01*
X246522400Y-113179651D01*
X247559306Y-113546839D01*
X247192118Y-114583745D01*
G37*
G36*
X246357600Y-116940349D02*
G01*
X245320694Y-116573161D01*
X245687882Y-115536255D01*
X246724788Y-115903443D01*
X246357600Y-116940349D01*
G37*
%TD*%
D13*
%TO.C,.*%
X306630000Y-122650000D03*
%TD*%
D14*
%TO.C,1N914*%
G36*
X272093610Y-112780520D02*
G01*
X271257163Y-113494913D01*
X270542770Y-112658466D01*
X271379217Y-111944073D01*
X272093610Y-112780520D01*
G37*
G36*
X273717230Y-114681534D02*
G01*
X272880783Y-115395927D01*
X272166390Y-114559480D01*
X273002837Y-113845087D01*
X273717230Y-114681534D01*
G37*
%TD*%
%TO.C,.*%
G36*
G01*
X241607829Y-103026247D02*
X243031457Y-102362399D01*
G75*
G02*
X243383091Y-102490383I111825J-239809D01*
G01*
X243920155Y-103642119D01*
G75*
G02*
X243792171Y-103993753I-239809J-111825D01*
G01*
X242368543Y-104657601D01*
G75*
G02*
X242016909Y-104529617I-111825J239809D01*
G01*
X241479845Y-103377881D01*
G75*
G02*
X241607829Y-103026247I239809J111825D01*
G01*
G37*
G36*
G01*
X243240243Y-105023485D02*
X243512136Y-104896699D01*
G75*
G02*
X244708169Y-105332020I380356J-815677D01*
G01*
X244708169Y-105332020D01*
G75*
G02*
X244272848Y-106528053I-815677J-380356D01*
G01*
X244000956Y-106654839D01*
G75*
G02*
X242804923Y-106219518I-380356J815677D01*
G01*
X242804923Y-106219518D01*
G75*
G02*
X243240244Y-105023485I815677J380356D01*
G01*
G37*
%TD*%
D13*
%TO.C,.*%
X252020000Y-103980000D03*
%TD*%
%TO.C,.*%
X263670000Y-103980000D03*
%TD*%
%TO.C,.*%
X263670000Y-129580000D03*
%TD*%
%TO.C,.*%
X252020000Y-129580000D03*
%TD*%
%TO.C,.*%
X209060000Y-122650000D03*
%TD*%
%TO.C,.*%
X306630000Y-111000000D03*
%TD*%
%TO.C,.*%
G36*
G01*
X239564901Y-108397302D02*
X239180458Y-109654758D01*
G75*
G02*
X238846382Y-109832390I-255854J78222D01*
G01*
X237899725Y-109542968D01*
G75*
G02*
X237722093Y-109208892I78222J255854D01*
G01*
X238106536Y-107951436D01*
G75*
G02*
X238440612Y-107773804I255854J-78222D01*
G01*
X239387269Y-108063226D01*
G75*
G02*
X239564901Y-108397302I-78222J-255854D01*
G01*
G37*
G36*
G01*
X242409907Y-109267108D02*
X242025464Y-110524564D01*
G75*
G02*
X241691388Y-110702196I-255854J78222D01*
G01*
X240744731Y-110412774D01*
G75*
G02*
X240567099Y-110078698I78222J255854D01*
G01*
X240951542Y-108821242D01*
G75*
G02*
X241285618Y-108643610I255854J-78222D01*
G01*
X242232275Y-108933032D01*
G75*
G02*
X242409907Y-109267108I-78222J-255854D01*
G01*
G37*
%TD*%
%TO.C,.*%
G36*
G01*
X277846616Y-120960741D02*
X277867983Y-121310088D01*
G75*
G02*
X277703992Y-121495445I-174674J-10683D01*
G01*
X276007163Y-121599228D01*
G75*
G02*
X275821806Y-121435237I-10683J174674D01*
G01*
X275800439Y-121085890D01*
G75*
G02*
X275964430Y-120900533I174674J10683D01*
G01*
X277661259Y-120796750D01*
G75*
G02*
X277846616Y-120960741I10683J-174674D01*
G01*
G37*
G36*
G01*
X277769085Y-119693110D02*
X277790452Y-120042457D01*
G75*
G02*
X277626461Y-120227814I-174674J-10683D01*
G01*
X275929632Y-120331597D01*
G75*
G02*
X275744275Y-120167606I-10683J174674D01*
G01*
X275722908Y-119818259D01*
G75*
G02*
X275886899Y-119632902I174674J10683D01*
G01*
X277583728Y-119529119D01*
G75*
G02*
X277769085Y-119693110I10683J-174674D01*
G01*
G37*
G36*
G01*
X277691553Y-118425478D02*
X277712920Y-118774825D01*
G75*
G02*
X277548929Y-118960182I-174674J-10683D01*
G01*
X275852100Y-119063965D01*
G75*
G02*
X275666743Y-118899974I-10683J174674D01*
G01*
X275645376Y-118550627D01*
G75*
G02*
X275809367Y-118365270I174674J10683D01*
G01*
X277506196Y-118261487D01*
G75*
G02*
X277691553Y-118425478I10683J-174674D01*
G01*
G37*
G36*
G01*
X277614021Y-117157847D02*
X277635388Y-117507194D01*
G75*
G02*
X277471397Y-117692551I-174674J-10683D01*
G01*
X275774568Y-117796334D01*
G75*
G02*
X275589211Y-117632343I-10683J174674D01*
G01*
X275567844Y-117282996D01*
G75*
G02*
X275731835Y-117097639I174674J10683D01*
G01*
X277428664Y-116993856D01*
G75*
G02*
X277614021Y-117157847I10683J-174674D01*
G01*
G37*
G36*
G01*
X277536490Y-115890216D02*
X277557857Y-116239563D01*
G75*
G02*
X277393866Y-116424920I-174674J-10683D01*
G01*
X275697037Y-116528703D01*
G75*
G02*
X275511680Y-116364712I-10683J174674D01*
G01*
X275490313Y-116015365D01*
G75*
G02*
X275654304Y-115830008I174674J10683D01*
G01*
X277351133Y-115726225D01*
G75*
G02*
X277536490Y-115890216I10683J-174674D01*
G01*
G37*
G36*
G01*
X277458958Y-114622585D02*
X277480325Y-114971932D01*
G75*
G02*
X277316334Y-115157289I-174674J-10683D01*
G01*
X275619505Y-115261072D01*
G75*
G02*
X275434148Y-115097081I-10683J174674D01*
G01*
X275412781Y-114747734D01*
G75*
G02*
X275576772Y-114562377I174674J10683D01*
G01*
X277273601Y-114458594D01*
G75*
G02*
X277458958Y-114622585I10683J-174674D01*
G01*
G37*
G36*
G01*
X277381426Y-113354954D02*
X277402793Y-113704301D01*
G75*
G02*
X277238802Y-113889658I-174674J-10683D01*
G01*
X275541973Y-113993441D01*
G75*
G02*
X275356616Y-113829450I-10683J174674D01*
G01*
X275335249Y-113480103D01*
G75*
G02*
X275499240Y-113294746I174674J10683D01*
G01*
X277196069Y-113190963D01*
G75*
G02*
X277381426Y-113354954I10683J-174674D01*
G01*
G37*
G36*
G01*
X282322194Y-113052763D02*
X282343561Y-113402110D01*
G75*
G02*
X282179570Y-113587467I-174674J-10683D01*
G01*
X280482741Y-113691250D01*
G75*
G02*
X280297384Y-113527259I-10683J174674D01*
G01*
X280276017Y-113177912D01*
G75*
G02*
X280440008Y-112992555I174674J10683D01*
G01*
X282136837Y-112888772D01*
G75*
G02*
X282322194Y-113052763I10683J-174674D01*
G01*
G37*
G36*
G01*
X282399725Y-114320394D02*
X282421092Y-114669741D01*
G75*
G02*
X282257101Y-114855098I-174674J-10683D01*
G01*
X280560272Y-114958881D01*
G75*
G02*
X280374915Y-114794890I-10683J174674D01*
G01*
X280353548Y-114445543D01*
G75*
G02*
X280517539Y-114260186I174674J10683D01*
G01*
X282214368Y-114156403D01*
G75*
G02*
X282399725Y-114320394I10683J-174674D01*
G01*
G37*
G36*
G01*
X282477257Y-115588026D02*
X282498624Y-115937373D01*
G75*
G02*
X282334633Y-116122730I-174674J-10683D01*
G01*
X280637804Y-116226513D01*
G75*
G02*
X280452447Y-116062522I-10683J174674D01*
G01*
X280431080Y-115713175D01*
G75*
G02*
X280595071Y-115527818I174674J10683D01*
G01*
X282291900Y-115424035D01*
G75*
G02*
X282477257Y-115588026I10683J-174674D01*
G01*
G37*
G36*
G01*
X282554789Y-116855657D02*
X282576156Y-117205004D01*
G75*
G02*
X282412165Y-117390361I-174674J-10683D01*
G01*
X280715336Y-117494144D01*
G75*
G02*
X280529979Y-117330153I-10683J174674D01*
G01*
X280508612Y-116980806D01*
G75*
G02*
X280672603Y-116795449I174674J10683D01*
G01*
X282369432Y-116691666D01*
G75*
G02*
X282554789Y-116855657I10683J-174674D01*
G01*
G37*
G36*
G01*
X282632320Y-118123288D02*
X282653687Y-118472635D01*
G75*
G02*
X282489696Y-118657992I-174674J-10683D01*
G01*
X280792867Y-118761775D01*
G75*
G02*
X280607510Y-118597784I-10683J174674D01*
G01*
X280586143Y-118248437D01*
G75*
G02*
X280750134Y-118063080I174674J10683D01*
G01*
X282446963Y-117959297D01*
G75*
G02*
X282632320Y-118123288I10683J-174674D01*
G01*
G37*
G36*
G01*
X282709852Y-119390919D02*
X282731219Y-119740266D01*
G75*
G02*
X282567228Y-119925623I-174674J-10683D01*
G01*
X280870399Y-120029406D01*
G75*
G02*
X280685042Y-119865415I-10683J174674D01*
G01*
X280663675Y-119516068D01*
G75*
G02*
X280827666Y-119330711I174674J10683D01*
G01*
X282524495Y-119226928D01*
G75*
G02*
X282709852Y-119390919I10683J-174674D01*
G01*
G37*
G36*
G01*
X282787384Y-120658550D02*
X282808751Y-121007897D01*
G75*
G02*
X282644760Y-121193254I-174674J-10683D01*
G01*
X280947931Y-121297037D01*
G75*
G02*
X280762574Y-121133046I-10683J174674D01*
G01*
X280741207Y-120783699D01*
G75*
G02*
X280905198Y-120598342I174674J10683D01*
G01*
X282602027Y-120494559D01*
G75*
G02*
X282787384Y-120658550I10683J-174674D01*
G01*
G37*
%TD*%
%TO.C,.*%
G36*
G01*
X261437000Y-120332000D02*
X261437000Y-120682000D01*
G75*
G02*
X261262000Y-120857000I-175000J0D01*
G01*
X259562000Y-120857000D01*
G75*
G02*
X259387000Y-120682000I0J175000D01*
G01*
X259387000Y-120332000D01*
G75*
G02*
X259562000Y-120157000I175000J0D01*
G01*
X261262000Y-120157000D01*
G75*
G02*
X261437000Y-120332000I0J-175000D01*
G01*
G37*
G36*
G01*
X261437000Y-119062000D02*
X261437000Y-119412000D01*
G75*
G02*
X261262000Y-119587000I-175000J0D01*
G01*
X259562000Y-119587000D01*
G75*
G02*
X259387000Y-119412000I0J175000D01*
G01*
X259387000Y-119062000D01*
G75*
G02*
X259562000Y-118887000I175000J0D01*
G01*
X261262000Y-118887000D01*
G75*
G02*
X261437000Y-119062000I0J-175000D01*
G01*
G37*
G36*
G01*
X261437000Y-117792000D02*
X261437000Y-118142000D01*
G75*
G02*
X261262000Y-118317000I-175000J0D01*
G01*
X259562000Y-118317000D01*
G75*
G02*
X259387000Y-118142000I0J175000D01*
G01*
X259387000Y-117792000D01*
G75*
G02*
X259562000Y-117617000I175000J0D01*
G01*
X261262000Y-117617000D01*
G75*
G02*
X261437000Y-117792000I0J-175000D01*
G01*
G37*
G36*
G01*
X261437000Y-116522000D02*
X261437000Y-116872000D01*
G75*
G02*
X261262000Y-117047000I-175000J0D01*
G01*
X259562000Y-117047000D01*
G75*
G02*
X259387000Y-116872000I0J175000D01*
G01*
X259387000Y-116522000D01*
G75*
G02*
X259562000Y-116347000I175000J0D01*
G01*
X261262000Y-116347000D01*
G75*
G02*
X261437000Y-116522000I0J-175000D01*
G01*
G37*
G36*
G01*
X261437000Y-115252000D02*
X261437000Y-115602000D01*
G75*
G02*
X261262000Y-115777000I-175000J0D01*
G01*
X259562000Y-115777000D01*
G75*
G02*
X259387000Y-115602000I0J175000D01*
G01*
X259387000Y-115252000D01*
G75*
G02*
X259562000Y-115077000I175000J0D01*
G01*
X261262000Y-115077000D01*
G75*
G02*
X261437000Y-115252000I0J-175000D01*
G01*
G37*
G36*
G01*
X261437000Y-113982000D02*
X261437000Y-114332000D01*
G75*
G02*
X261262000Y-114507000I-175000J0D01*
G01*
X259562000Y-114507000D01*
G75*
G02*
X259387000Y-114332000I0J175000D01*
G01*
X259387000Y-113982000D01*
G75*
G02*
X259562000Y-113807000I175000J0D01*
G01*
X261262000Y-113807000D01*
G75*
G02*
X261437000Y-113982000I0J-175000D01*
G01*
G37*
G36*
G01*
X261437000Y-112712000D02*
X261437000Y-113062000D01*
G75*
G02*
X261262000Y-113237000I-175000J0D01*
G01*
X259562000Y-113237000D01*
G75*
G02*
X259387000Y-113062000I0J175000D01*
G01*
X259387000Y-112712000D01*
G75*
G02*
X259562000Y-112537000I175000J0D01*
G01*
X261262000Y-112537000D01*
G75*
G02*
X261437000Y-112712000I0J-175000D01*
G01*
G37*
G36*
G01*
X256487000Y-112712000D02*
X256487000Y-113062000D01*
G75*
G02*
X256312000Y-113237000I-175000J0D01*
G01*
X254612000Y-113237000D01*
G75*
G02*
X254437000Y-113062000I0J175000D01*
G01*
X254437000Y-112712000D01*
G75*
G02*
X254612000Y-112537000I175000J0D01*
G01*
X256312000Y-112537000D01*
G75*
G02*
X256487000Y-112712000I0J-175000D01*
G01*
G37*
G36*
G01*
X256487000Y-113982000D02*
X256487000Y-114332000D01*
G75*
G02*
X256312000Y-114507000I-175000J0D01*
G01*
X254612000Y-114507000D01*
G75*
G02*
X254437000Y-114332000I0J175000D01*
G01*
X254437000Y-113982000D01*
G75*
G02*
X254612000Y-113807000I175000J0D01*
G01*
X256312000Y-113807000D01*
G75*
G02*
X256487000Y-113982000I0J-175000D01*
G01*
G37*
G36*
G01*
X256487000Y-115252000D02*
X256487000Y-115602000D01*
G75*
G02*
X256312000Y-115777000I-175000J0D01*
G01*
X254612000Y-115777000D01*
G75*
G02*
X254437000Y-115602000I0J175000D01*
G01*
X254437000Y-115252000D01*
G75*
G02*
X254612000Y-115077000I175000J0D01*
G01*
X256312000Y-115077000D01*
G75*
G02*
X256487000Y-115252000I0J-175000D01*
G01*
G37*
G36*
G01*
X256487000Y-116522000D02*
X256487000Y-116872000D01*
G75*
G02*
X256312000Y-117047000I-175000J0D01*
G01*
X254612000Y-117047000D01*
G75*
G02*
X254437000Y-116872000I0J175000D01*
G01*
X254437000Y-116522000D01*
G75*
G02*
X254612000Y-116347000I175000J0D01*
G01*
X256312000Y-116347000D01*
G75*
G02*
X256487000Y-116522000I0J-175000D01*
G01*
G37*
G36*
G01*
X256487000Y-117792000D02*
X256487000Y-118142000D01*
G75*
G02*
X256312000Y-118317000I-175000J0D01*
G01*
X254612000Y-118317000D01*
G75*
G02*
X254437000Y-118142000I0J175000D01*
G01*
X254437000Y-117792000D01*
G75*
G02*
X254612000Y-117617000I175000J0D01*
G01*
X256312000Y-117617000D01*
G75*
G02*
X256487000Y-117792000I0J-175000D01*
G01*
G37*
G36*
G01*
X256487000Y-119062000D02*
X256487000Y-119412000D01*
G75*
G02*
X256312000Y-119587000I-175000J0D01*
G01*
X254612000Y-119587000D01*
G75*
G02*
X254437000Y-119412000I0J175000D01*
G01*
X254437000Y-119062000D01*
G75*
G02*
X254612000Y-118887000I175000J0D01*
G01*
X256312000Y-118887000D01*
G75*
G02*
X256487000Y-119062000I0J-175000D01*
G01*
G37*
G36*
G01*
X256487000Y-120332000D02*
X256487000Y-120682000D01*
G75*
G02*
X256312000Y-120857000I-175000J0D01*
G01*
X254612000Y-120857000D01*
G75*
G02*
X254437000Y-120682000I0J175000D01*
G01*
X254437000Y-120332000D01*
G75*
G02*
X254612000Y-120157000I175000J0D01*
G01*
X256312000Y-120157000D01*
G75*
G02*
X256487000Y-120332000I0J-175000D01*
G01*
G37*
%TD*%
%TO.C,.*%
G36*
G01*
X212877245Y-125866256D02*
X212592646Y-127149999D01*
G75*
G02*
X212273537Y-127353294I-261202J57907D01*
G01*
X211307090Y-127139038D01*
G75*
G02*
X211103795Y-126819929I57907J261202D01*
G01*
X211388394Y-125536185D01*
G75*
G02*
X211707503Y-125332890I261202J-57907D01*
G01*
X212673950Y-125547146D01*
G75*
G02*
X212877245Y-125866255I-57907J-261202D01*
G01*
G37*
G36*
G01*
X215781725Y-126510164D02*
X215497126Y-127793907D01*
G75*
G02*
X215178017Y-127997202I-261202J57907D01*
G01*
X214211570Y-127782946D01*
G75*
G02*
X214008275Y-127463837I57907J261202D01*
G01*
X214292874Y-126180093D01*
G75*
G02*
X214611983Y-125976798I261202J-57907D01*
G01*
X215578430Y-126191054D01*
G75*
G02*
X215781725Y-126510163I-57907J-261202D01*
G01*
G37*
%TD*%
%TO.C,.*%
G36*
G01*
X229860384Y-126052384D02*
X228898718Y-126949152D01*
G75*
G02*
X228520584Y-126935948I-182465J195669D01*
G01*
X227845466Y-126211972D01*
G75*
G02*
X227858670Y-125833838I195669J182465D01*
G01*
X228820336Y-124937070D01*
G75*
G02*
X229198470Y-124950274I182465J-195669D01*
G01*
X229873588Y-125674250D01*
G75*
G02*
X229860384Y-126052384I-195669J-182465D01*
G01*
G37*
G36*
G01*
X231889330Y-128228162D02*
X230927664Y-129124930D01*
G75*
G02*
X230549530Y-129111726I-182465J195669D01*
G01*
X229874412Y-128387750D01*
G75*
G02*
X229887616Y-128009616I195669J182465D01*
G01*
X230849282Y-127112848D01*
G75*
G02*
X231227416Y-127126052I182465J-195669D01*
G01*
X231902534Y-127850028D01*
G75*
G02*
X231889330Y-128228162I-195669J-182465D01*
G01*
G37*
%TD*%
%TO.C,.*%
G36*
G01*
X237682000Y-113987000D02*
X237682000Y-113637000D01*
G75*
G02*
X237857000Y-113462000I175000J0D01*
G01*
X239557000Y-113462000D01*
G75*
G02*
X239732000Y-113637000I0J-175000D01*
G01*
X239732000Y-113987000D01*
G75*
G02*
X239557000Y-114162000I-175000J0D01*
G01*
X237857000Y-114162000D01*
G75*
G02*
X237682000Y-113987000I0J175000D01*
G01*
G37*
G36*
G01*
X237682000Y-115257000D02*
X237682000Y-114907000D01*
G75*
G02*
X237857000Y-114732000I175000J0D01*
G01*
X239557000Y-114732000D01*
G75*
G02*
X239732000Y-114907000I0J-175000D01*
G01*
X239732000Y-115257000D01*
G75*
G02*
X239557000Y-115432000I-175000J0D01*
G01*
X237857000Y-115432000D01*
G75*
G02*
X237682000Y-115257000I0J175000D01*
G01*
G37*
G36*
G01*
X237682000Y-116527000D02*
X237682000Y-116177000D01*
G75*
G02*
X237857000Y-116002000I175000J0D01*
G01*
X239557000Y-116002000D01*
G75*
G02*
X239732000Y-116177000I0J-175000D01*
G01*
X239732000Y-116527000D01*
G75*
G02*
X239557000Y-116702000I-175000J0D01*
G01*
X237857000Y-116702000D01*
G75*
G02*
X237682000Y-116527000I0J175000D01*
G01*
G37*
G36*
G01*
X237682000Y-117797000D02*
X237682000Y-117447000D01*
G75*
G02*
X237857000Y-117272000I175000J0D01*
G01*
X239557000Y-117272000D01*
G75*
G02*
X239732000Y-117447000I0J-175000D01*
G01*
X239732000Y-117797000D01*
G75*
G02*
X239557000Y-117972000I-175000J0D01*
G01*
X237857000Y-117972000D01*
G75*
G02*
X237682000Y-117797000I0J175000D01*
G01*
G37*
G36*
G01*
X237682000Y-119067000D02*
X237682000Y-118717000D01*
G75*
G02*
X237857000Y-118542000I175000J0D01*
G01*
X239557000Y-118542000D01*
G75*
G02*
X239732000Y-118717000I0J-175000D01*
G01*
X239732000Y-119067000D01*
G75*
G02*
X239557000Y-119242000I-175000J0D01*
G01*
X237857000Y-119242000D01*
G75*
G02*
X237682000Y-119067000I0J175000D01*
G01*
G37*
G36*
G01*
X237682000Y-120337000D02*
X237682000Y-119987000D01*
G75*
G02*
X237857000Y-119812000I175000J0D01*
G01*
X239557000Y-119812000D01*
G75*
G02*
X239732000Y-119987000I0J-175000D01*
G01*
X239732000Y-120337000D01*
G75*
G02*
X239557000Y-120512000I-175000J0D01*
G01*
X237857000Y-120512000D01*
G75*
G02*
X237682000Y-120337000I0J175000D01*
G01*
G37*
G36*
G01*
X237682000Y-121607000D02*
X237682000Y-121257000D01*
G75*
G02*
X237857000Y-121082000I175000J0D01*
G01*
X239557000Y-121082000D01*
G75*
G02*
X239732000Y-121257000I0J-175000D01*
G01*
X239732000Y-121607000D01*
G75*
G02*
X239557000Y-121782000I-175000J0D01*
G01*
X237857000Y-121782000D01*
G75*
G02*
X237682000Y-121607000I0J175000D01*
G01*
G37*
G36*
G01*
X232732000Y-121607000D02*
X232732000Y-121257000D01*
G75*
G02*
X232907000Y-121082000I175000J0D01*
G01*
X234607000Y-121082000D01*
G75*
G02*
X234782000Y-121257000I0J-175000D01*
G01*
X234782000Y-121607000D01*
G75*
G02*
X234607000Y-121782000I-175000J0D01*
G01*
X232907000Y-121782000D01*
G75*
G02*
X232732000Y-121607000I0J175000D01*
G01*
G37*
G36*
G01*
X232732000Y-120337000D02*
X232732000Y-119987000D01*
G75*
G02*
X232907000Y-119812000I175000J0D01*
G01*
X234607000Y-119812000D01*
G75*
G02*
X234782000Y-119987000I0J-175000D01*
G01*
X234782000Y-120337000D01*
G75*
G02*
X234607000Y-120512000I-175000J0D01*
G01*
X232907000Y-120512000D01*
G75*
G02*
X232732000Y-120337000I0J175000D01*
G01*
G37*
G36*
G01*
X232732000Y-119067000D02*
X232732000Y-118717000D01*
G75*
G02*
X232907000Y-118542000I175000J0D01*
G01*
X234607000Y-118542000D01*
G75*
G02*
X234782000Y-118717000I0J-175000D01*
G01*
X234782000Y-119067000D01*
G75*
G02*
X234607000Y-119242000I-175000J0D01*
G01*
X232907000Y-119242000D01*
G75*
G02*
X232732000Y-119067000I0J175000D01*
G01*
G37*
G36*
G01*
X232732000Y-117797000D02*
X232732000Y-117447000D01*
G75*
G02*
X232907000Y-117272000I175000J0D01*
G01*
X234607000Y-117272000D01*
G75*
G02*
X234782000Y-117447000I0J-175000D01*
G01*
X234782000Y-117797000D01*
G75*
G02*
X234607000Y-117972000I-175000J0D01*
G01*
X232907000Y-117972000D01*
G75*
G02*
X232732000Y-117797000I0J175000D01*
G01*
G37*
G36*
G01*
X232732000Y-116527000D02*
X232732000Y-116177000D01*
G75*
G02*
X232907000Y-116002000I175000J0D01*
G01*
X234607000Y-116002000D01*
G75*
G02*
X234782000Y-116177000I0J-175000D01*
G01*
X234782000Y-116527000D01*
G75*
G02*
X234607000Y-116702000I-175000J0D01*
G01*
X232907000Y-116702000D01*
G75*
G02*
X232732000Y-116527000I0J175000D01*
G01*
G37*
G36*
G01*
X232732000Y-115257000D02*
X232732000Y-114907000D01*
G75*
G02*
X232907000Y-114732000I175000J0D01*
G01*
X234607000Y-114732000D01*
G75*
G02*
X234782000Y-114907000I0J-175000D01*
G01*
X234782000Y-115257000D01*
G75*
G02*
X234607000Y-115432000I-175000J0D01*
G01*
X232907000Y-115432000D01*
G75*
G02*
X232732000Y-115257000I0J175000D01*
G01*
G37*
G36*
G01*
X232732000Y-113987000D02*
X232732000Y-113637000D01*
G75*
G02*
X232907000Y-113462000I175000J0D01*
G01*
X234607000Y-113462000D01*
G75*
G02*
X234782000Y-113637000I0J-175000D01*
G01*
X234782000Y-113987000D01*
G75*
G02*
X234607000Y-114162000I-175000J0D01*
G01*
X232907000Y-114162000D01*
G75*
G02*
X232732000Y-113987000I0J175000D01*
G01*
G37*
%TD*%
%TO.C,.*%
G36*
G01*
X214807080Y-121498398D02*
X213583663Y-121016481D01*
G75*
G02*
X213432790Y-120669498I98055J248928D01*
G01*
X213795594Y-119748467D01*
G75*
G02*
X214142577Y-119597594I248928J-98055D01*
G01*
X215365995Y-120079511D01*
G75*
G02*
X215516868Y-120426494I-98055J-248928D01*
G01*
X215154064Y-121347525D01*
G75*
G02*
X214807081Y-121498398I-248928J98055D01*
G01*
G37*
G36*
G01*
X215897422Y-118730406D02*
X214674005Y-118248489D01*
G75*
G02*
X214523132Y-117901506I98055J248928D01*
G01*
X214885936Y-116980475D01*
G75*
G02*
X215232919Y-116829602I248928J-98055D01*
G01*
X216456337Y-117311519D01*
G75*
G02*
X216607210Y-117658502I-98055J-248928D01*
G01*
X216244406Y-118579533D01*
G75*
G02*
X215897423Y-118730406I-248928J98055D01*
G01*
G37*
%TD*%
%TO.C,.*%
G36*
G01*
X227565627Y-119308917D02*
X227691656Y-120617776D01*
G75*
G02*
X227450987Y-120909731I-266312J-25643D01*
G01*
X226465632Y-121004610D01*
G75*
G02*
X226173677Y-120763941I-25643J266312D01*
G01*
X226047648Y-119455082D01*
G75*
G02*
X226288317Y-119163127I266312J25643D01*
G01*
X227273672Y-119068248D01*
G75*
G02*
X227565627Y-119308917I25643J-266312D01*
G01*
G37*
G36*
G01*
X224604323Y-119594059D02*
X224730352Y-120902918D01*
G75*
G02*
X224489683Y-121194873I-266312J-25643D01*
G01*
X223504328Y-121289752D01*
G75*
G02*
X223212373Y-121049083I-25643J266312D01*
G01*
X223086344Y-119740224D01*
G75*
G02*
X223327013Y-119448269I266312J25643D01*
G01*
X224312368Y-119353390D01*
G75*
G02*
X224604323Y-119594059I25643J-266312D01*
G01*
G37*
%TD*%
%TO.C,.*%
G36*
G01*
X216633107Y-112839195D02*
X216827464Y-114139663D01*
G75*
G02*
X216602405Y-114443814I-264605J-39546D01*
G01*
X215623366Y-114590133D01*
G75*
G02*
X215319215Y-114365074I-39546J264605D01*
G01*
X215124858Y-113064605D01*
G75*
G02*
X215349917Y-112760454I264605J39546D01*
G01*
X216328956Y-112614135D01*
G75*
G02*
X216633107Y-112839194I39546J-264605D01*
G01*
G37*
G36*
G01*
X213690785Y-113278927D02*
X213885142Y-114579395D01*
G75*
G02*
X213660083Y-114883546I-264605J-39546D01*
G01*
X212681044Y-115029865D01*
G75*
G02*
X212376893Y-114804806I-39546J264605D01*
G01*
X212182536Y-113504337D01*
G75*
G02*
X212407595Y-113200186I264605J39546D01*
G01*
X213386634Y-113053867D01*
G75*
G02*
X213690785Y-113278926I39546J-264605D01*
G01*
G37*
%TD*%
%TO.C,.*%
G36*
G01*
X243357925Y-132034913D02*
X242750766Y-133201254D01*
G75*
G02*
X242389914Y-133315030I-237314J123538D01*
G01*
X241511851Y-132857939D01*
G75*
G02*
X241398075Y-132497087I123538J237314D01*
G01*
X242005234Y-131330746D01*
G75*
G02*
X242366086Y-131216970I237314J-123538D01*
G01*
X243244149Y-131674061D01*
G75*
G02*
X243357925Y-132034913I-123538J-237314D01*
G01*
G37*
G36*
G01*
X240719067Y-130661211D02*
X240111908Y-131827552D01*
G75*
G02*
X239751056Y-131941328I-237314J123538D01*
G01*
X238872993Y-131484237D01*
G75*
G02*
X238759217Y-131123385I123538J237314D01*
G01*
X239366376Y-129957044D01*
G75*
G02*
X239727228Y-129843268I237314J-123538D01*
G01*
X240605291Y-130300359D01*
G75*
G02*
X240719067Y-130661211I-123538J-237314D01*
G01*
G37*
%TD*%
D14*
%TO.C,.*%
G36*
X233559506Y-107036888D02*
G01*
X233852517Y-106185922D01*
X234798036Y-106511490D01*
X234505025Y-107362456D01*
X233559506Y-107036888D01*
G37*
G36*
X232940927Y-108833373D02*
G01*
X233233938Y-107982407D01*
X234179457Y-108307975D01*
X233886446Y-109158941D01*
X232940927Y-108833373D01*
G37*
G36*
X235141254Y-108586267D02*
G01*
X235434265Y-107735301D01*
X236379784Y-108060869D01*
X236086773Y-108911835D01*
X235141254Y-108586267D01*
G37*
%TD*%
%TO.C,.*%
G36*
G01*
X227759651Y-115651204D02*
X227748177Y-116966066D01*
G75*
G02*
X227478308Y-117231265I-267534J2335D01*
G01*
X226488434Y-117222627D01*
G75*
G02*
X226223235Y-116952758I2335J267534D01*
G01*
X226234709Y-115637896D01*
G75*
G02*
X226504578Y-115372697I267534J-2335D01*
G01*
X227494452Y-115381335D01*
G75*
G02*
X227759651Y-115651204I-2335J-267534D01*
G01*
G37*
G36*
G01*
X224784765Y-115625242D02*
X224773291Y-116940104D01*
G75*
G02*
X224503422Y-117205303I-267534J2335D01*
G01*
X223513548Y-117196665D01*
G75*
G02*
X223248349Y-116926796I2335J267534D01*
G01*
X223259823Y-115611934D01*
G75*
G02*
X223529692Y-115346735I267534J-2335D01*
G01*
X224519566Y-115355373D01*
G75*
G02*
X224784765Y-115625242I-2335J-267534D01*
G01*
G37*
%TD*%
%TO.C,.*%
G36*
G01*
X240782323Y-126669059D02*
X240908352Y-127977918D01*
G75*
G02*
X240667683Y-128269873I-266312J-25643D01*
G01*
X239682328Y-128364752D01*
G75*
G02*
X239390373Y-128124083I-25643J266312D01*
G01*
X239264344Y-126815224D01*
G75*
G02*
X239505013Y-126523269I266312J25643D01*
G01*
X240490368Y-126428390D01*
G75*
G02*
X240782323Y-126669059I25643J-266312D01*
G01*
G37*
G36*
G01*
X243743627Y-126383917D02*
X243869656Y-127692776D01*
G75*
G02*
X243628987Y-127984731I-266312J-25643D01*
G01*
X242643632Y-128079610D01*
G75*
G02*
X242351677Y-127838941I-25643J266312D01*
G01*
X242225648Y-126530082D01*
G75*
G02*
X242466317Y-126238127I266312J25643D01*
G01*
X243451672Y-126143248D01*
G75*
G02*
X243743627Y-126383917I25643J-266312D01*
G01*
G37*
%TD*%
%TO.C,.*%
G36*
G01*
X225045687Y-122843484D02*
X225341478Y-124124696D01*
G75*
G02*
X225140975Y-124445567I-260687J-60184D01*
G01*
X224176434Y-124668248D01*
G75*
G02*
X223855563Y-124467745I-60184J260687D01*
G01*
X223559772Y-123186534D01*
G75*
G02*
X223760275Y-122865663I260687J60184D01*
G01*
X224724816Y-122642982D01*
G75*
G02*
X225045687Y-122843485I60184J-260687D01*
G01*
G37*
G36*
G01*
X227944437Y-122174254D02*
X228240228Y-123455466D01*
G75*
G02*
X228039725Y-123776337I-260687J-60184D01*
G01*
X227075184Y-123999018D01*
G75*
G02*
X226754313Y-123798515I-60184J260687D01*
G01*
X226458522Y-122517304D01*
G75*
G02*
X226659025Y-122196433I260687J60184D01*
G01*
X227623566Y-121973752D01*
G75*
G02*
X227944437Y-122174255I60184J-260687D01*
G01*
G37*
%TD*%
%TO.C,.*%
G36*
G01*
X218205715Y-122864479D02*
X216917201Y-123126630D01*
G75*
G02*
X216601688Y-122917797I-53340J262173D01*
G01*
X216404331Y-121947758D01*
G75*
G02*
X216613164Y-121632245I262173J53340D01*
G01*
X217901679Y-121370094D01*
G75*
G02*
X218217192Y-121578927I53340J-262173D01*
G01*
X218414549Y-122548966D01*
G75*
G02*
X218205716Y-122864479I-262173J-53340D01*
G01*
G37*
G36*
G01*
X218798835Y-125779755D02*
X217510321Y-126041906D01*
G75*
G02*
X217194808Y-125833073I-53340J262173D01*
G01*
X216997451Y-124863034D01*
G75*
G02*
X217206284Y-124547521I262173J53340D01*
G01*
X218494799Y-124285370D01*
G75*
G02*
X218810312Y-124494203I53340J-262173D01*
G01*
X219007669Y-125464242D01*
G75*
G02*
X218798836Y-125779755I-262173J-53340D01*
G01*
G37*
%TD*%
%TO.C,.*%
G36*
G01*
X224655012Y-112593794D02*
X224712368Y-113907455D01*
G75*
G02*
X224456749Y-114186414I-267289J-11670D01*
G01*
X223467779Y-114229593D01*
G75*
G02*
X223188820Y-113973974I-11670J267289D01*
G01*
X223131464Y-112660313D01*
G75*
G02*
X223387083Y-112381354I267289J11670D01*
G01*
X224376053Y-112338175D01*
G75*
G02*
X224655012Y-112593794I11670J-267289D01*
G01*
G37*
G36*
G01*
X227627180Y-112464026D02*
X227684536Y-113777687D01*
G75*
G02*
X227428917Y-114056646I-267289J-11670D01*
G01*
X226439947Y-114099825D01*
G75*
G02*
X226160988Y-113844206I-11670J267289D01*
G01*
X226103632Y-112530545D01*
G75*
G02*
X226359251Y-112251586I267289J11670D01*
G01*
X227348221Y-112208407D01*
G75*
G02*
X227627180Y-112464026I11670J-267289D01*
G01*
G37*
%TD*%
%TO.C,.*%
G36*
G01*
X246262470Y-110637945D02*
X245293015Y-109749603D01*
G75*
G02*
X245276511Y-109371599I180750J197254D01*
G01*
X245945286Y-108641759D01*
G75*
G02*
X246323290Y-108625255I197254J-180750D01*
G01*
X247292745Y-109513597D01*
G75*
G02*
X247309249Y-109891601I-180750J-197254D01*
G01*
X246640474Y-110621441D01*
G75*
G02*
X246262470Y-110637945I-197254J180750D01*
G01*
G37*
G36*
G01*
X244252590Y-112831345D02*
X243283135Y-111943003D01*
G75*
G02*
X243266631Y-111564999I180750J197254D01*
G01*
X243935406Y-110835159D01*
G75*
G02*
X244313410Y-110818655I197254J-180750D01*
G01*
X245282865Y-111706997D01*
G75*
G02*
X245299369Y-112085001I-180750J-197254D01*
G01*
X244630594Y-112814841D01*
G75*
G02*
X244252590Y-112831345I-197254J180750D01*
G01*
G37*
%TD*%
%TO.C,.*%
G36*
G01*
X242617437Y-122945254D02*
X242913228Y-124226466D01*
G75*
G02*
X242712725Y-124547337I-260687J-60184D01*
G01*
X241748184Y-124770018D01*
G75*
G02*
X241427313Y-124569515I-60184J260687D01*
G01*
X241131522Y-123288304D01*
G75*
G02*
X241332025Y-122967433I260687J60184D01*
G01*
X242296566Y-122744752D01*
G75*
G02*
X242617437Y-122945255I60184J-260687D01*
G01*
G37*
G36*
G01*
X239718687Y-123614484D02*
X240014478Y-124895696D01*
G75*
G02*
X239813975Y-125216567I-260687J-60184D01*
G01*
X238849434Y-125439248D01*
G75*
G02*
X238528563Y-125238745I-60184J260687D01*
G01*
X238232772Y-123957534D01*
G75*
G02*
X238433275Y-123636663I260687J60184D01*
G01*
X239397816Y-123413982D01*
G75*
G02*
X239718687Y-123614485I60184J-260687D01*
G01*
G37*
%TD*%
%TO.C,.*%
G36*
G01*
X229037330Y-129923162D02*
X228075664Y-130819930D01*
G75*
G02*
X227697530Y-130806726I-182465J195669D01*
G01*
X227022412Y-130082750D01*
G75*
G02*
X227035616Y-129704616I195669J182465D01*
G01*
X227997282Y-128807848D01*
G75*
G02*
X228375416Y-128821052I182465J-195669D01*
G01*
X229050534Y-129545028D01*
G75*
G02*
X229037330Y-129923162I-195669J-182465D01*
G01*
G37*
G36*
G01*
X227008384Y-127747384D02*
X226046718Y-128644152D01*
G75*
G02*
X225668584Y-128630948I-182465J195669D01*
G01*
X224993466Y-127906972D01*
G75*
G02*
X225006670Y-127528838I195669J182465D01*
G01*
X225968336Y-126632070D01*
G75*
G02*
X226346470Y-126645274I182465J-195669D01*
G01*
X227021588Y-127369250D01*
G75*
G02*
X227008384Y-127747384I-195669J-182465D01*
G01*
G37*
%TD*%
%TO.C,.*%
G36*
G01*
X223246963Y-109427478D02*
X223098110Y-110733937D01*
G75*
G02*
X222801999Y-110969474I-265824J30287D01*
G01*
X221818451Y-110857413D01*
G75*
G02*
X221582914Y-110561302I30287J265824D01*
G01*
X221731766Y-109254843D01*
G75*
G02*
X222027877Y-109019306I265824J-30287D01*
G01*
X223011425Y-109131367D01*
G75*
G02*
X223246962Y-109427478I-30287J-265824D01*
G01*
G37*
G36*
G01*
X220291087Y-109090698D02*
X220142234Y-110397157D01*
G75*
G02*
X219846123Y-110632694I-265824J30287D01*
G01*
X218862575Y-110520633D01*
G75*
G02*
X218627038Y-110224522I30287J265824D01*
G01*
X218775890Y-108918063D01*
G75*
G02*
X219072001Y-108682526I265824J-30287D01*
G01*
X220055549Y-108794587D01*
G75*
G02*
X220291086Y-109090698I-30287J-265824D01*
G01*
G37*
%TD*%
M02*
