M48
; DRILL file {KiCad (5.1.7)-1} date 03/24/21 00:49:10
; FORMAT={-:-/ absolute / inch / decimal}
; #@! TF.CreationDate,2021-03-24T00:49:10-05:00
; #@! TF.GenerationSoftware,Kicad,Pcbnew,(5.1.7)-1
; #@! TF.FileFunction,Plated,1,2,PTH
FMAT,2
INCH
T1C0.0276
T2C0.0295
T3C0.0315
T4C0.0354
T5C0.0394
T6C0.0433
T7C0.0709
%
G90
G05
T1
X5.4252Y-4.2012
X5.685Y-4.3512
X7.4364Y-5.1077
X7.7319Y-5.1598
X6.6563Y-3.1547
X6.9552Y-3.1286
X4.437Y-3.7115
X4.6091Y-3.4657
X4.9201Y-4.5324
X5.0921Y-4.2866
X4.8225Y-3.2266
X4.8225Y-3.5266
X6.2527Y-3.1866
X6.5125Y-3.3366
X6.0984Y-4.2079
X6.2484Y-4.4677
X6.9181Y-4.889
X7.0473Y-4.6182
X6.9009Y-4.4937
X7.0035Y-4.2118
X5.4484Y-5.1706
X5.7303Y-5.2732
X4.702Y-4.6039
X4.9917Y-4.6816
X6.8513Y-2.5824
X7.0441Y-2.8122
X5.7937Y-3.1828
X6.0925Y-3.1566
X7.8972Y-3.2508
X7.9998Y-3.5327
X7.046Y-3.212
X7.1728Y-3.4839
X5.4925Y-2.3166
X5.7914Y-2.3428
X7.0559Y-5.1535
X7.1336Y-4.8638
X7.678Y-4.6996
X7.9498Y-4.8264
X4.9386Y-3.0906
X4.9438Y-2.7906
X6.2469Y-4.1327
X6.3969Y-4.3925
X6.9457Y-5.1102
X7.0483Y-4.8283
X7.5082Y-2.4954
X7.8071Y-2.4693
X6.9525Y-2.9466
X7.2423Y-3.0243
X4.6256Y-4.7579
X4.7756Y-5.0177
X5.4671Y-3.2345
X5.7625Y-3.2866
X6.8393Y-4.7564
X7.0114Y-4.5106
X6.5225Y-2.2766
X6.6251Y-2.5585
X6.6043Y-5.1909
X6.6305Y-4.8921
X6.717Y-5.1165
X6.7327Y-4.8169
X7.7335Y-4.5787
X8.0054Y-4.7055
X6.7819Y-4.1252
X6.9747Y-3.8954
X6.5799Y-4.2437
X6.8397Y-4.3937
X4.4625Y-3.2966
X4.7223Y-3.1466
X5.0306Y-3.1498
X5.3025Y-3.2766
X6.9224Y-2.328
X7.1153Y-2.5578
X4.9425Y-2.6266
X4.9946Y-2.3312
X7.8232Y-3.1067
X8.0161Y-2.8769
X6.8366Y-2.3894
X7.0295Y-2.6192
X6.7225Y-2.2966
X6.7487Y-2.5955
X4.7025Y-2.7966
X4.8051Y-3.0785
X5.7527Y-4.1787
X6.0125Y-4.3287
X7.6476Y-2.7894
X7.9195Y-2.6626
X5.7898Y-4.4264
X6.0496Y-4.5764
X7.4925Y-4.9655
X7.7744Y-5.0681
X7.4071Y-2.3472
X7.7071Y-2.3472
X4.9496Y-4.8067
X4.9496Y-5.1067
X5.8999Y-2.5747
X6.0025Y-2.8566
X5.8825Y-2.9766
X6.1814Y-3.0028
T2
X5.7386Y-3.9201
X5.9165Y-4.1295
X7.1094Y-4.3831
X7.3425Y-4.2807
T3
X7.4331Y-4.761
X7.5237Y-4.8033
X7.6143Y-4.8455
X7.413Y-2.737
X7.5036Y-2.6947
X7.5943Y-2.6525
X5.0625Y-2.7366
X5.1258Y-2.6612
X5.7019Y-5.1198
X5.7708Y-5.0005
X7.2087Y-5.0319
X7.2906Y-4.9745
X7.3725Y-4.9172
X7.151Y-2.6673
X7.2152Y-2.7439
X7.2795Y-2.8205
X4.7119Y-2.5246
X4.8004Y-2.6302
X8.2185Y-3.4416
X8.3017Y-3.62
X6.047Y-2.6809
X6.129Y-2.7382
X6.2109Y-2.7956
X6.2191Y-2.4351
X6.2928Y-2.8529
X6.301Y-2.4925
X6.3747Y-2.9103
X6.3829Y-2.5498
X6.4566Y-2.9676
X6.4649Y-2.6072
X6.5385Y-3.025
X6.5468Y-2.6645
X6.6204Y-3.0824
X6.6287Y-2.7219
X6.7106Y-2.7793
X6.7925Y-2.8366
X7.5202Y-4.6297
X7.5625Y-4.5391
X7.6047Y-4.4484
X5.1201Y-4.4839
X5.1623Y-4.5745
X5.2046Y-4.6651
X5.2469Y-4.7558
X5.2891Y-4.8464
X5.3314Y-4.937
X5.3736Y-5.0276
X5.392Y-4.3571
X5.4342Y-4.4477
X5.4765Y-4.5383
X5.5188Y-4.629
X5.561Y-4.7196
X5.6033Y-4.8102
X5.6455Y-4.9009
X7.1894Y-4.7535
X7.2536Y-4.6769
X7.3179Y-4.6003
X5.7733Y-2.4746
X5.7733Y-2.6124
X7.5795Y-2.9295
X7.6795Y-2.9295
X7.7795Y-2.9295
X7.1894Y-2.4327
X7.2713Y-2.49
X7.3532Y-2.5474
X5.1983Y-4.9977
X5.2672Y-5.1171
X6.0447Y-4.8106
X6.1266Y-4.7532
X6.2085Y-4.6958
X6.2168Y-5.0563
X6.2904Y-4.6385
X6.2987Y-4.9989
X6.3724Y-4.5811
X6.3806Y-4.9416
X6.4543Y-4.5238
X6.4625Y-4.8842
X6.5362Y-4.4664
X6.5444Y-4.8269
X6.6181Y-4.4091
X6.6264Y-4.7695
X6.7083Y-4.7122
X6.7902Y-4.6548
X5.1206Y-3.0098
X5.1629Y-2.9192
X5.2052Y-2.8286
X5.2474Y-2.7379
X5.2897Y-2.6473
X5.3319Y-2.5567
X5.3742Y-2.466
X5.3925Y-3.1366
X5.4348Y-3.046
X5.477Y-2.9554
X5.5193Y-2.8647
X5.5616Y-2.7741
X5.6038Y-2.6835
X5.6461Y-2.5928
X5.6307Y-4.5758
X5.6799Y-4.4906
T4
X8.0626Y-3.8852
X8.3581Y-3.9373
X8.529Y-3.6634
X8.5551Y-3.9623
X8.3619Y-2.9765
X8.388Y-3.2754
X7.4309Y-4.0934
X7.6237Y-3.8636
X7.6228Y-3.6622
X7.8826Y-3.8122
T5
X6.628Y-3.5051
X6.7973Y-3.2632
X7.2559Y-4.0073
X7.4457Y-3.7811
X4.648Y-4.3469
X4.8378Y-4.1207
X6.3697Y-3.8984
X6.4945Y-4.166
X4.8488Y-3.8697
X5.1396Y-3.8184
X4.3016Y-2.6646
X4.3712Y-2.595
X4.4408Y-2.5254
X7.5173Y-4.2575
X7.7173Y-4.2579
X7.9844Y-4.9687
X8.054Y-4.8991
X8.1236Y-4.8295
X6.863Y-2.1819
X6.4075Y-5.2724
X7.7729Y-3.5234
X8.0148Y-3.6927
X7.9843Y-2.5252
X8.0538Y-2.5948
X8.1234Y-2.6644
X5.9811Y-3.5815
X6.8244Y-3.7472
X7.1186Y-3.7215
X6.3677Y-2.3563
X6.8461Y-5.2382
X4.6213Y-3.7437
X4.9065Y-3.6673
X4.3016Y-4.8299
X4.3712Y-4.8995
X4.4408Y-4.9691
X6.3955Y-3.7149
X8.5495Y-2.6924
X8.5669Y-2.7909
X8.5842Y-2.8894
X8.6016Y-2.9879
X5.5516Y-3.6157
X5.9929Y-3.8763
X5.3114Y-3.8154
X5.5508Y-3.9087
T6
X7.8329Y-4.1345
X7.8972Y-4.0579
X7.9615Y-3.9813
T7
X4.0288Y-4.9747
X4.296Y-5.2419
X4.0288Y-2.5198
X4.296Y-2.2526
X8.1292Y-5.2415
X8.3964Y-4.9743
X8.129Y-2.2524
X8.3963Y-2.5196
T0
M30
