%TF.GenerationSoftware,KiCad,Pcbnew,(5.1.7)-1*%
%TF.CreationDate,2021-03-24T00:49:07-05:00*%
%TF.ProjectId,duber,64756265-722e-46b6-9963-61645f706362,rev?*%
%TF.SameCoordinates,Original*%
%TF.FileFunction,Copper,L1,Top*%
%TF.FilePolarity,Positive*%
%FSLAX46Y46*%
G04 Gerber Fmt 4.6, Leading zero omitted, Abs format (unit mm)*
G04 Created by KiCad (PCBNEW (5.1.7)-1) date 2021-03-24 00:49:07*
%MOMM*%
%LPD*%
G01*
G04 APERTURE LIST*
%TA.AperFunction,ComponentPad*%
%ADD10C,0.100000*%
%TD*%
%TA.AperFunction,ComponentPad*%
%ADD11C,3.240000*%
%TD*%
%TA.AperFunction,ComponentPad*%
%ADD12C,1.800000*%
%TD*%
%TA.AperFunction,ComponentPad*%
%ADD13C,1.500000*%
%TD*%
%TA.AperFunction,ComponentPad*%
%ADD14R,1.500000X1.500000*%
%TD*%
%TA.AperFunction,ComponentPad*%
%ADD15C,1.400000*%
%TD*%
%TA.AperFunction,ComponentPad*%
%ADD16O,1.400000X1.400000*%
%TD*%
%TA.AperFunction,ComponentPad*%
%ADD17C,2.000000*%
%TD*%
%TA.AperFunction,ComponentPad*%
%ADD18C,1.600000*%
%TD*%
%TA.AperFunction,ViaPad*%
%ADD19C,1.000000*%
%TD*%
%TA.AperFunction,Conductor*%
%ADD20C,0.635000*%
%TD*%
%TA.AperFunction,Conductor*%
%ADD21C,0.735000*%
%TD*%
%TA.AperFunction,Conductor*%
%ADD22C,0.835000*%
%TD*%
G04 APERTURE END LIST*
%TO.P,D3,2*%
%TO.N,GND*%
%TA.AperFunction,ComponentPad*%
G36*
G01*
X194399507Y-93470865D02*
X194399507Y-93470865D01*
G75*
G02*
X193170084Y-93800288I-779423J450000D01*
G01*
X193170084Y-93800288D01*
G75*
G02*
X192840661Y-92570865I450000J779423D01*
G01*
X192840661Y-92570865D01*
G75*
G02*
X194070084Y-92241442I779423J-450000D01*
G01*
X194070084Y-92241442D01*
G75*
G02*
X194399507Y-93470865I-450000J-779423D01*
G01*
G37*
%TD.AperFunction*%
%TA.AperFunction,ComponentPad*%
D10*
%TO.P,D3,1*%
%TO.N,Net-(C6-Pad1)*%
G36*
X201448621Y-96501442D02*
G01*
X200548621Y-98060288D01*
X198989775Y-97160288D01*
X199889775Y-95601442D01*
X201448621Y-96501442D01*
G37*
%TD.AperFunction*%
%TD*%
%TA.AperFunction,ComponentPad*%
%TO.P,D5,1*%
%TO.N,+9V*%
G36*
X188855827Y-105239793D02*
G01*
X187476947Y-104082775D01*
X188633965Y-102703895D01*
X190012845Y-103860913D01*
X188855827Y-105239793D01*
G37*
%TD.AperFunction*%
%TO.P,D5,2*%
%TO.N,GND*%
%TA.AperFunction,ComponentPad*%
G36*
G01*
X193064429Y-98824025D02*
X193064429Y-98824025D01*
G75*
G02*
X192953498Y-97556076I578509J689440D01*
G01*
X192953498Y-97556076D01*
G75*
G02*
X194221447Y-97445145I689440J-578509D01*
G01*
X194221447Y-97445145D01*
G75*
G02*
X194332378Y-98713094I-578509J-689440D01*
G01*
X194332378Y-98713094D01*
G75*
G02*
X193064429Y-98824025I-689440J578509D01*
G01*
G37*
%TD.AperFunction*%
%TD*%
%TA.AperFunction,ComponentPad*%
%TO.P,1N4001,1*%
%TO.N,Net-(C6-Pad1)*%
G36*
X214031319Y-84012696D02*
G01*
X212238169Y-84169576D01*
X212081289Y-82376426D01*
X213874439Y-82219546D01*
X214031319Y-84012696D01*
G37*
%TD.AperFunction*%
%TO.P,1N4001,2*%
%TO.N,Net-(D1-Pad2)*%
%TA.AperFunction,ComponentPad*%
G36*
G01*
X212470617Y-76500132D02*
X212470617Y-76500132D01*
G75*
G02*
X211495602Y-75681997I-78440J896575D01*
G01*
X211495602Y-75681997D01*
G75*
G02*
X212313737Y-74706982I896575J78440D01*
G01*
X212313737Y-74706982D01*
G75*
G02*
X213288752Y-75525117I78440J-896575D01*
G01*
X213288752Y-75525117D01*
G75*
G02*
X212470617Y-76500132I-896575J-78440D01*
G01*
G37*
%TD.AperFunction*%
%TD*%
%TO.P,1N914,2*%
%TO.N,Net-(D2-Pad2)*%
%TA.AperFunction,ComponentPad*%
G36*
G01*
X216714924Y-93948191D02*
X216714924Y-93948191D01*
G75*
G02*
X215739909Y-93130056I-78440J896575D01*
G01*
X215739909Y-93130056D01*
G75*
G02*
X216558044Y-92155041I896575J78440D01*
G01*
X216558044Y-92155041D01*
G75*
G02*
X217533059Y-92973176I78440J-896575D01*
G01*
X217533059Y-92973176D01*
G75*
G02*
X216714924Y-93948191I-896575J-78440D01*
G01*
G37*
%TD.AperFunction*%
%TA.AperFunction,ComponentPad*%
%TO.P,1N914,1*%
%TO.N,Net-(D2-Pad1)*%
G36*
X218275626Y-101460755D02*
G01*
X216482476Y-101617635D01*
X216325596Y-99824485D01*
X218118746Y-99667605D01*
X218275626Y-101460755D01*
G37*
%TD.AperFunction*%
%TD*%
%TA.AperFunction,ComponentPad*%
%TO.P,1N4001,1*%
%TO.N,Net-(C6-Pad1)*%
G36*
X203748039Y-99415257D02*
G01*
X204060605Y-97642603D01*
X205833259Y-97955169D01*
X205520693Y-99727823D01*
X203748039Y-99415257D01*
G37*
%TD.AperFunction*%
%TO.P,1N4001,2*%
%TO.N,Net-(D2-Pad1)*%
%TA.AperFunction,ComponentPad*%
G36*
G01*
X211408557Y-99852129D02*
X211408557Y-99852129D01*
G75*
G02*
X212451167Y-99122085I886327J-156283D01*
G01*
X212451167Y-99122085D01*
G75*
G02*
X213181211Y-100164695I-156283J-886327D01*
G01*
X213181211Y-100164695D01*
G75*
G02*
X212138601Y-100894739I-886327J156283D01*
G01*
X212138601Y-100894739D01*
G75*
G02*
X211408557Y-99852129I156283J886327D01*
G01*
G37*
%TD.AperFunction*%
%TD*%
D11*
%TO.P,FREQ.,*%
%TO.N,*%
X206476955Y-57210354D03*
X213265180Y-63998579D03*
D12*
%TO.P,FREQ.,3*%
%TO.N,+9V*%
X206335534Y-67675534D03*
%TO.P,FREQ.,2*%
%TO.N,Net-(R32-Pad2)*%
X204567767Y-65907767D03*
%TA.AperFunction,ComponentPad*%
D10*
%TO.P,FREQ.,1*%
%TO.N,GND*%
G36*
X204072792Y-64140000D02*
G01*
X202800000Y-65412792D01*
X201527208Y-64140000D01*
X202800000Y-62867208D01*
X204072792Y-64140000D01*
G37*
%TD.AperFunction*%
%TD*%
%TA.AperFunction,ComponentPad*%
%TO.P,FREQ.,1*%
%TO.N,GND*%
G36*
X206340000Y-123942792D02*
G01*
X205067208Y-122670000D01*
X206340000Y-121397208D01*
X207612792Y-122670000D01*
X206340000Y-123942792D01*
G37*
%TD.AperFunction*%
D12*
%TO.P,FREQ.,2*%
%TO.N,Net-(R33-Pad2)*%
X204572233Y-124437767D03*
%TO.P,FREQ.,3*%
%TO.N,+9V*%
X202804466Y-126205534D03*
D11*
%TO.P,FREQ.,*%
%TO.N,*%
X206481421Y-133135180D03*
X213269646Y-126346955D03*
%TD*%
%TO.P,RES.,*%
%TO.N,*%
X109118579Y-133145180D03*
X102330354Y-126356955D03*
D12*
%TO.P,RES.,3*%
%TO.N,Net-(R21-Pad1)*%
X109260000Y-122680000D03*
%TO.P,RES.,2*%
%TO.N,Net-(RV2-Pad2)*%
X111027767Y-124447767D03*
%TA.AperFunction,ComponentPad*%
D10*
%TO.P,RES.,1*%
%TO.N,Mido2*%
G36*
X111522742Y-126215534D02*
G01*
X112795534Y-124942742D01*
X114068326Y-126215534D01*
X112795534Y-127488326D01*
X111522742Y-126215534D01*
G37*
%TD.AperFunction*%
%TD*%
%TA.AperFunction,ComponentPad*%
%TO.P,RES.,1*%
%TO.N,Mido1*%
G36*
X109260000Y-66407208D02*
G01*
X110532792Y-67680000D01*
X109260000Y-68952792D01*
X107987208Y-67680000D01*
X109260000Y-66407208D01*
G37*
%TD.AperFunction*%
D12*
%TO.P,RES.,2*%
%TO.N,Net-(RV1-Pad2)*%
X111027767Y-65912233D03*
%TO.P,RES.,3*%
%TO.N,Net-(R20-Pad1)*%
X112795534Y-64144466D03*
D11*
%TO.P,RES.,*%
%TO.N,*%
X109118579Y-57214820D03*
X102330354Y-64003045D03*
%TD*%
%TA.AperFunction,ComponentPad*%
D10*
%TO.P,J1,1*%
%TO.N,GND*%
G36*
X216467894Y-69372150D02*
G01*
X216172692Y-67697976D01*
X217846866Y-67402774D01*
X218142068Y-69076948D01*
X216467894Y-69372150D01*
G37*
%TD.AperFunction*%
%TA.AperFunction,ComponentPad*%
%TO.P,J1,2*%
G36*
X216908960Y-71873562D02*
G01*
X216613758Y-70199388D01*
X218287932Y-69904186D01*
X218583134Y-71578360D01*
X216908960Y-71873562D01*
G37*
%TD.AperFunction*%
%TO.P,J1,3*%
%TO.N,Net-(D1-Pad2)*%
%TA.AperFunction,ComponentPad*%
G36*
G01*
X217202426Y-73537886D02*
X217202426Y-73537886D01*
G75*
G02*
X217891912Y-72553198I837087J147601D01*
G01*
X217891912Y-72553198D01*
G75*
G02*
X218876600Y-73242684I147601J-837087D01*
G01*
X218876600Y-73242684D01*
G75*
G02*
X218187114Y-74227372I-837087J-147601D01*
G01*
X218187114Y-74227372D01*
G75*
G02*
X217202426Y-73537886I-147601J837087D01*
G01*
G37*
%TD.AperFunction*%
%TO.P,J1,4*%
%TO.N,Net-(D2-Pad2)*%
%TA.AperFunction,ComponentPad*%
G36*
G01*
X217717293Y-76457841D02*
X217569692Y-75620754D01*
G75*
G02*
X217914435Y-75128411I418543J73800D01*
G01*
X218751522Y-74980810D01*
G75*
G02*
X219243865Y-75325553I73800J-418543D01*
G01*
X219391466Y-76162640D01*
G75*
G02*
X219046723Y-76654983I-418543J-73800D01*
G01*
X218209636Y-76802584D01*
G75*
G02*
X217717293Y-76457841I-73800J418543D01*
G01*
G37*
%TD.AperFunction*%
%TD*%
%TO.P,U2,14*%
%TO.N,Mido2*%
%TA.AperFunction,ComponentPad*%
G36*
G01*
X136231019Y-111007744D02*
X136231019Y-111007744D01*
G75*
G02*
X136617970Y-109944603I725046J338095D01*
G01*
X136617970Y-109944603D01*
G75*
G02*
X137681111Y-110331554I338095J-725046D01*
G01*
X137681111Y-110331554D01*
G75*
G02*
X137294160Y-111394695I-725046J-338095D01*
G01*
X137294160Y-111394695D01*
G75*
G02*
X136231019Y-111007744I-338095J725046D01*
G01*
G37*
%TD.AperFunction*%
%TO.P,U2,7*%
%TO.N,Net-(C10-Pad1)*%
%TA.AperFunction,ComponentPad*%
G36*
G01*
X135765656Y-128040226D02*
X135765656Y-128040226D01*
G75*
G02*
X136152607Y-126977085I725046J338095D01*
G01*
X136152607Y-126977085D01*
G75*
G02*
X137215748Y-127364036I338095J-725046D01*
G01*
X137215748Y-127364036D01*
G75*
G02*
X136828797Y-128427177I-725046J-338095D01*
G01*
X136828797Y-128427177D01*
G75*
G02*
X135765656Y-128040226I-338095J725046D01*
G01*
G37*
%TD.AperFunction*%
%TO.P,U2,13*%
%TO.N,Mido2*%
%TA.AperFunction,ComponentPad*%
G36*
G01*
X137304470Y-113309766D02*
X137304470Y-113309766D01*
G75*
G02*
X137691421Y-112246625I725046J338095D01*
G01*
X137691421Y-112246625D01*
G75*
G02*
X138754562Y-112633576I338095J-725046D01*
G01*
X138754562Y-112633576D01*
G75*
G02*
X138367611Y-113696717I-725046J-338095D01*
G01*
X138367611Y-113696717D01*
G75*
G02*
X137304470Y-113309766I-338095J725046D01*
G01*
G37*
%TD.AperFunction*%
%TO.P,U2,6*%
%TO.N,Net-(C10-Pad2)*%
%TA.AperFunction,ComponentPad*%
G36*
G01*
X134692206Y-125738204D02*
X134692206Y-125738204D01*
G75*
G02*
X135079157Y-124675063I725046J338095D01*
G01*
X135079157Y-124675063D01*
G75*
G02*
X136142298Y-125062014I338095J-725046D01*
G01*
X136142298Y-125062014D01*
G75*
G02*
X135755347Y-126125155I-725046J-338095D01*
G01*
X135755347Y-126125155D01*
G75*
G02*
X134692206Y-125738204I-338095J725046D01*
G01*
G37*
%TD.AperFunction*%
%TO.P,U2,12*%
%TO.N,Net-(C2-Pad1)*%
%TA.AperFunction,ComponentPad*%
G36*
G01*
X138377920Y-115611787D02*
X138377920Y-115611787D01*
G75*
G02*
X138764871Y-114548646I725046J338095D01*
G01*
X138764871Y-114548646D01*
G75*
G02*
X139828012Y-114935597I338095J-725046D01*
G01*
X139828012Y-114935597D01*
G75*
G02*
X139441061Y-115998738I-725046J-338095D01*
G01*
X139441061Y-115998738D01*
G75*
G02*
X138377920Y-115611787I-338095J725046D01*
G01*
G37*
%TD.AperFunction*%
%TO.P,U2,5*%
%TO.N,Mido2*%
%TA.AperFunction,ComponentPad*%
G36*
G01*
X133618756Y-123436182D02*
X133618756Y-123436182D01*
G75*
G02*
X134005707Y-122373041I725046J338095D01*
G01*
X134005707Y-122373041D01*
G75*
G02*
X135068848Y-122759992I338095J-725046D01*
G01*
X135068848Y-122759992D01*
G75*
G02*
X134681897Y-123823133I-725046J-338095D01*
G01*
X134681897Y-123823133D01*
G75*
G02*
X133618756Y-123436182I-338095J725046D01*
G01*
G37*
%TD.AperFunction*%
%TO.P,U2,11*%
%TO.N,GND*%
%TA.AperFunction,ComponentPad*%
G36*
G01*
X139451370Y-117913809D02*
X139451370Y-117913809D01*
G75*
G02*
X139838321Y-116850668I725046J338095D01*
G01*
X139838321Y-116850668D01*
G75*
G02*
X140901462Y-117237619I338095J-725046D01*
G01*
X140901462Y-117237619D01*
G75*
G02*
X140514511Y-118300760I-725046J-338095D01*
G01*
X140514511Y-118300760D01*
G75*
G02*
X139451370Y-117913809I-338095J725046D01*
G01*
G37*
%TD.AperFunction*%
%TO.P,U2,4*%
%TO.N,+9V*%
%TA.AperFunction,ComponentPad*%
G36*
G01*
X132545305Y-121134160D02*
X132545305Y-121134160D01*
G75*
G02*
X132932256Y-120071019I725046J338095D01*
G01*
X132932256Y-120071019D01*
G75*
G02*
X133995397Y-120457970I338095J-725046D01*
G01*
X133995397Y-120457970D01*
G75*
G02*
X133608446Y-121521111I-725046J-338095D01*
G01*
X133608446Y-121521111D01*
G75*
G02*
X132545305Y-121134160I-338095J725046D01*
G01*
G37*
%TD.AperFunction*%
%TO.P,U2,10*%
%TO.N,Mido2*%
%TA.AperFunction,ComponentPad*%
G36*
G01*
X140524821Y-120215831D02*
X140524821Y-120215831D01*
G75*
G02*
X140911772Y-119152690I725046J338095D01*
G01*
X140911772Y-119152690D01*
G75*
G02*
X141974913Y-119539641I338095J-725046D01*
G01*
X141974913Y-119539641D01*
G75*
G02*
X141587962Y-120602782I-725046J-338095D01*
G01*
X141587962Y-120602782D01*
G75*
G02*
X140524821Y-120215831I-338095J725046D01*
G01*
G37*
%TD.AperFunction*%
%TO.P,U2,3*%
%TO.N,Net-(RV2-Pad2)*%
%TA.AperFunction,ComponentPad*%
G36*
G01*
X131471855Y-118832139D02*
X131471855Y-118832139D01*
G75*
G02*
X131858806Y-117768998I725046J338095D01*
G01*
X131858806Y-117768998D01*
G75*
G02*
X132921947Y-118155949I338095J-725046D01*
G01*
X132921947Y-118155949D01*
G75*
G02*
X132534996Y-119219090I-725046J-338095D01*
G01*
X132534996Y-119219090D01*
G75*
G02*
X131471855Y-118832139I-338095J725046D01*
G01*
G37*
%TD.AperFunction*%
%TO.P,U2,9*%
%TO.N,Net-(C11-Pad2)*%
%TA.AperFunction,ComponentPad*%
G36*
G01*
X141598271Y-122517853D02*
X141598271Y-122517853D01*
G75*
G02*
X141985222Y-121454712I725046J338095D01*
G01*
X141985222Y-121454712D01*
G75*
G02*
X143048363Y-121841663I338095J-725046D01*
G01*
X143048363Y-121841663D01*
G75*
G02*
X142661412Y-122904804I-725046J-338095D01*
G01*
X142661412Y-122904804D01*
G75*
G02*
X141598271Y-122517853I-338095J725046D01*
G01*
G37*
%TD.AperFunction*%
%TO.P,U2,2*%
%TO.N,Net-(R10-Pad2)*%
%TA.AperFunction,ComponentPad*%
G36*
G01*
X130398404Y-116530117D02*
X130398404Y-116530117D01*
G75*
G02*
X130785355Y-115466976I725046J338095D01*
G01*
X130785355Y-115466976D01*
G75*
G02*
X131848496Y-115853927I338095J-725046D01*
G01*
X131848496Y-115853927D01*
G75*
G02*
X131461545Y-116917068I-725046J-338095D01*
G01*
X131461545Y-116917068D01*
G75*
G02*
X130398404Y-116530117I-338095J725046D01*
G01*
G37*
%TD.AperFunction*%
%TO.P,U2,8*%
%TO.N,Net-(C11-Pad1)*%
%TA.AperFunction,ComponentPad*%
G36*
G01*
X142671722Y-124819875D02*
X142671722Y-124819875D01*
G75*
G02*
X143058673Y-123756734I725046J338095D01*
G01*
X143058673Y-123756734D01*
G75*
G02*
X144121814Y-124143685I338095J-725046D01*
G01*
X144121814Y-124143685D01*
G75*
G02*
X143734863Y-125206826I-725046J-338095D01*
G01*
X143734863Y-125206826D01*
G75*
G02*
X142671722Y-124819875I-338095J725046D01*
G01*
G37*
%TD.AperFunction*%
%TA.AperFunction,ComponentPad*%
%TO.P,U2,1*%
%TO.N,Net-(R12-Pad1)*%
G36*
X129663048Y-114953141D02*
G01*
X128986859Y-113503048D01*
X130436952Y-112826859D01*
X131113141Y-114276952D01*
X129663048Y-114953141D01*
G37*
%TD.AperFunction*%
%TD*%
%TA.AperFunction,ComponentPad*%
%TO.P,U1,1*%
%TO.N,Net-(R11-Pad1)*%
G36*
X138033141Y-79283048D02*
G01*
X137356952Y-80733141D01*
X135906859Y-80056952D01*
X136583048Y-78606859D01*
X138033141Y-79283048D01*
G37*
%TD.AperFunction*%
%TO.P,U1,8*%
%TO.N,Net-(C12-Pad1)*%
%TA.AperFunction,ComponentPad*%
G36*
G01*
X137229683Y-62975613D02*
X137229683Y-62975613D01*
G75*
G02*
X136166542Y-63362564I-725046J338095D01*
G01*
X136166542Y-63362564D01*
G75*
G02*
X135779591Y-62299423I338095J725046D01*
G01*
X135779591Y-62299423D01*
G75*
G02*
X136842732Y-61912472I725046J-338095D01*
G01*
X136842732Y-61912472D01*
G75*
G02*
X137229683Y-62975613I-338095J-725046D01*
G01*
G37*
%TD.AperFunction*%
%TO.P,U1,2*%
%TO.N,Net-(R11-Pad2)*%
%TA.AperFunction,ComponentPad*%
G36*
G01*
X138768496Y-77706073D02*
X138768496Y-77706073D01*
G75*
G02*
X137705355Y-78093024I-725046J338095D01*
G01*
X137705355Y-78093024D01*
G75*
G02*
X137318404Y-77029883I338095J725046D01*
G01*
X137318404Y-77029883D01*
G75*
G02*
X138381545Y-76642932I725046J-338095D01*
G01*
X138381545Y-76642932D01*
G75*
G02*
X138768496Y-77706073I-338095J-725046D01*
G01*
G37*
%TD.AperFunction*%
%TO.P,U1,9*%
%TO.N,Net-(C12-Pad2)*%
%TA.AperFunction,ComponentPad*%
G36*
G01*
X136156233Y-65277635D02*
X136156233Y-65277635D01*
G75*
G02*
X135093092Y-65664586I-725046J338095D01*
G01*
X135093092Y-65664586D01*
G75*
G02*
X134706141Y-64601445I338095J725046D01*
G01*
X134706141Y-64601445D01*
G75*
G02*
X135769282Y-64214494I725046J-338095D01*
G01*
X135769282Y-64214494D01*
G75*
G02*
X136156233Y-65277635I-338095J-725046D01*
G01*
G37*
%TD.AperFunction*%
%TO.P,U1,3*%
%TO.N,Net-(RV1-Pad2)*%
%TA.AperFunction,ComponentPad*%
G36*
G01*
X139841947Y-75404051D02*
X139841947Y-75404051D01*
G75*
G02*
X138778806Y-75791002I-725046J338095D01*
G01*
X138778806Y-75791002D01*
G75*
G02*
X138391855Y-74727861I338095J725046D01*
G01*
X138391855Y-74727861D01*
G75*
G02*
X139454996Y-74340910I725046J-338095D01*
G01*
X139454996Y-74340910D01*
G75*
G02*
X139841947Y-75404051I-338095J-725046D01*
G01*
G37*
%TD.AperFunction*%
%TO.P,U1,10*%
%TO.N,Mido1*%
%TA.AperFunction,ComponentPad*%
G36*
G01*
X135082782Y-67579657D02*
X135082782Y-67579657D01*
G75*
G02*
X134019641Y-67966608I-725046J338095D01*
G01*
X134019641Y-67966608D01*
G75*
G02*
X133632690Y-66903467I338095J725046D01*
G01*
X133632690Y-66903467D01*
G75*
G02*
X134695831Y-66516516I725046J-338095D01*
G01*
X134695831Y-66516516D01*
G75*
G02*
X135082782Y-67579657I-338095J-725046D01*
G01*
G37*
%TD.AperFunction*%
%TO.P,U1,4*%
%TO.N,+9V*%
%TA.AperFunction,ComponentPad*%
G36*
G01*
X140915397Y-73102030D02*
X140915397Y-73102030D01*
G75*
G02*
X139852256Y-73488981I-725046J338095D01*
G01*
X139852256Y-73488981D01*
G75*
G02*
X139465305Y-72425840I338095J725046D01*
G01*
X139465305Y-72425840D01*
G75*
G02*
X140528446Y-72038889I725046J-338095D01*
G01*
X140528446Y-72038889D01*
G75*
G02*
X140915397Y-73102030I-338095J-725046D01*
G01*
G37*
%TD.AperFunction*%
%TO.P,U1,11*%
%TO.N,GND*%
%TA.AperFunction,ComponentPad*%
G36*
G01*
X134009332Y-69881679D02*
X134009332Y-69881679D01*
G75*
G02*
X132946191Y-70268630I-725046J338095D01*
G01*
X132946191Y-70268630D01*
G75*
G02*
X132559240Y-69205489I338095J725046D01*
G01*
X132559240Y-69205489D01*
G75*
G02*
X133622381Y-68818538I725046J-338095D01*
G01*
X133622381Y-68818538D01*
G75*
G02*
X134009332Y-69881679I-338095J-725046D01*
G01*
G37*
%TD.AperFunction*%
%TO.P,U1,5*%
%TO.N,Mido1*%
%TA.AperFunction,ComponentPad*%
G36*
G01*
X141988848Y-70800008D02*
X141988848Y-70800008D01*
G75*
G02*
X140925707Y-71186959I-725046J338095D01*
G01*
X140925707Y-71186959D01*
G75*
G02*
X140538756Y-70123818I338095J725046D01*
G01*
X140538756Y-70123818D01*
G75*
G02*
X141601897Y-69736867I725046J-338095D01*
G01*
X141601897Y-69736867D01*
G75*
G02*
X141988848Y-70800008I-338095J-725046D01*
G01*
G37*
%TD.AperFunction*%
%TO.P,U1,12*%
%TO.N,Net-(C1-Pad1)*%
%TA.AperFunction,ComponentPad*%
G36*
G01*
X132935881Y-72183700D02*
X132935881Y-72183700D01*
G75*
G02*
X131872740Y-72570651I-725046J338095D01*
G01*
X131872740Y-72570651D01*
G75*
G02*
X131485789Y-71507510I338095J725046D01*
G01*
X131485789Y-71507510D01*
G75*
G02*
X132548930Y-71120559I725046J-338095D01*
G01*
X132548930Y-71120559D01*
G75*
G02*
X132935881Y-72183700I-338095J-725046D01*
G01*
G37*
%TD.AperFunction*%
%TO.P,U1,6*%
%TO.N,Net-(C9-Pad2)*%
%TA.AperFunction,ComponentPad*%
G36*
G01*
X143062298Y-68497986D02*
X143062298Y-68497986D01*
G75*
G02*
X141999157Y-68884937I-725046J338095D01*
G01*
X141999157Y-68884937D01*
G75*
G02*
X141612206Y-67821796I338095J725046D01*
G01*
X141612206Y-67821796D01*
G75*
G02*
X142675347Y-67434845I725046J-338095D01*
G01*
X142675347Y-67434845D01*
G75*
G02*
X143062298Y-68497986I-338095J-725046D01*
G01*
G37*
%TD.AperFunction*%
%TO.P,U1,13*%
%TO.N,Mido1*%
%TA.AperFunction,ComponentPad*%
G36*
G01*
X131862431Y-74485722D02*
X131862431Y-74485722D01*
G75*
G02*
X130799290Y-74872673I-725046J338095D01*
G01*
X130799290Y-74872673D01*
G75*
G02*
X130412339Y-73809532I338095J725046D01*
G01*
X130412339Y-73809532D01*
G75*
G02*
X131475480Y-73422581I725046J-338095D01*
G01*
X131475480Y-73422581D01*
G75*
G02*
X131862431Y-74485722I-338095J-725046D01*
G01*
G37*
%TD.AperFunction*%
%TO.P,U1,7*%
%TO.N,Net-(C13-Pad2)*%
%TA.AperFunction,ComponentPad*%
G36*
G01*
X144135748Y-66195964D02*
X144135748Y-66195964D01*
G75*
G02*
X143072607Y-66582915I-725046J338095D01*
G01*
X143072607Y-66582915D01*
G75*
G02*
X142685656Y-65519774I338095J725046D01*
G01*
X142685656Y-65519774D01*
G75*
G02*
X143748797Y-65132823I725046J-338095D01*
G01*
X143748797Y-65132823D01*
G75*
G02*
X144135748Y-66195964I-338095J-725046D01*
G01*
G37*
%TD.AperFunction*%
%TO.P,U1,14*%
%TO.N,Mido1*%
%TA.AperFunction,ComponentPad*%
G36*
G01*
X130788981Y-76787744D02*
X130788981Y-76787744D01*
G75*
G02*
X129725840Y-77174695I-725046J338095D01*
G01*
X129725840Y-77174695D01*
G75*
G02*
X129338889Y-76111554I338095J725046D01*
G01*
X129338889Y-76111554D01*
G75*
G02*
X130402030Y-75724603I725046J-338095D01*
G01*
X130402030Y-75724603D01*
G75*
G02*
X130788981Y-76787744I-338095J-725046D01*
G01*
G37*
%TD.AperFunction*%
%TD*%
%TO.P,U4,16*%
%TO.N,Net-(R31-Pad1)*%
%TA.AperFunction,ComponentPad*%
G36*
G01*
X172011791Y-117576617D02*
X172011791Y-117576617D01*
G75*
G02*
X173125974Y-117773078I458861J-655322D01*
G01*
X173125974Y-117773078D01*
G75*
G02*
X172929513Y-118887261I-655322J-458861D01*
G01*
X172929513Y-118887261D01*
G75*
G02*
X171815330Y-118690800I-458861J655322D01*
G01*
X171815330Y-118690800D01*
G75*
G02*
X172011791Y-117576617I655322J458861D01*
G01*
G37*
%TD.AperFunction*%
%TO.P,U4,8*%
%TO.N,N/C*%
%TA.AperFunction,ComponentPad*%
G36*
G01*
X153076616Y-121532867D02*
X153076616Y-121532867D01*
G75*
G02*
X154190799Y-121729328I458861J-655322D01*
G01*
X154190799Y-121729328D01*
G75*
G02*
X153994338Y-122843511I-655322J-458861D01*
G01*
X153994338Y-122843511D01*
G75*
G02*
X152880155Y-122647050I-458861J655322D01*
G01*
X152880155Y-122647050D01*
G75*
G02*
X153076616Y-121532867I655322J458861D01*
G01*
G37*
%TD.AperFunction*%
%TO.P,U4,15*%
%TO.N,Net-(U4-Pad15)*%
%TA.AperFunction,ComponentPad*%
G36*
G01*
X169931145Y-119033501D02*
X169931145Y-119033501D01*
G75*
G02*
X171045328Y-119229962I458861J-655322D01*
G01*
X171045328Y-119229962D01*
G75*
G02*
X170848867Y-120344145I-655322J-458861D01*
G01*
X170848867Y-120344145D01*
G75*
G02*
X169734684Y-120147684I-458861J655322D01*
G01*
X169734684Y-120147684D01*
G75*
G02*
X169931145Y-119033501I655322J458861D01*
G01*
G37*
%TD.AperFunction*%
%TO.P,U4,7*%
%TO.N,N/C*%
%TA.AperFunction,ComponentPad*%
G36*
G01*
X155157262Y-120075983D02*
X155157262Y-120075983D01*
G75*
G02*
X156271445Y-120272444I458861J-655322D01*
G01*
X156271445Y-120272444D01*
G75*
G02*
X156074984Y-121386627I-655322J-458861D01*
G01*
X156074984Y-121386627D01*
G75*
G02*
X154960801Y-121190166I-458861J655322D01*
G01*
X154960801Y-121190166D01*
G75*
G02*
X155157262Y-120075983I655322J458861D01*
G01*
G37*
%TD.AperFunction*%
%TO.P,U4,14*%
%TO.N,Net-(R25-Pad1)*%
%TA.AperFunction,ComponentPad*%
G36*
G01*
X167850499Y-120490385D02*
X167850499Y-120490385D01*
G75*
G02*
X168964682Y-120686846I458861J-655322D01*
G01*
X168964682Y-120686846D01*
G75*
G02*
X168768221Y-121801029I-655322J-458861D01*
G01*
X168768221Y-121801029D01*
G75*
G02*
X167654038Y-121604568I-458861J655322D01*
G01*
X167654038Y-121604568D01*
G75*
G02*
X167850499Y-120490385I655322J458861D01*
G01*
G37*
%TD.AperFunction*%
%TO.P,U4,6*%
%TO.N,GND*%
%TA.AperFunction,ComponentPad*%
G36*
G01*
X157237908Y-118619099D02*
X157237908Y-118619099D01*
G75*
G02*
X158352091Y-118815560I458861J-655322D01*
G01*
X158352091Y-118815560D01*
G75*
G02*
X158155630Y-119929743I-655322J-458861D01*
G01*
X158155630Y-119929743D01*
G75*
G02*
X157041447Y-119733282I-458861J655322D01*
G01*
X157041447Y-119733282D01*
G75*
G02*
X157237908Y-118619099I655322J458861D01*
G01*
G37*
%TD.AperFunction*%
%TO.P,U4,13*%
%TO.N,Net-(R27-Pad2)*%
%TA.AperFunction,ComponentPad*%
G36*
G01*
X165769853Y-121947269D02*
X165769853Y-121947269D01*
G75*
G02*
X166884036Y-122143730I458861J-655322D01*
G01*
X166884036Y-122143730D01*
G75*
G02*
X166687575Y-123257913I-655322J-458861D01*
G01*
X166687575Y-123257913D01*
G75*
G02*
X165573392Y-123061452I-458861J655322D01*
G01*
X165573392Y-123061452D01*
G75*
G02*
X165769853Y-121947269I655322J458861D01*
G01*
G37*
%TD.AperFunction*%
%TO.P,U4,5*%
%TO.N,Net-(C10-Pad2)*%
%TA.AperFunction,ComponentPad*%
G36*
G01*
X159318554Y-117162215D02*
X159318554Y-117162215D01*
G75*
G02*
X160432737Y-117358676I458861J-655322D01*
G01*
X160432737Y-117358676D01*
G75*
G02*
X160236276Y-118472859I-655322J-458861D01*
G01*
X160236276Y-118472859D01*
G75*
G02*
X159122093Y-118276398I-458861J655322D01*
G01*
X159122093Y-118276398D01*
G75*
G02*
X159318554Y-117162215I655322J458861D01*
G01*
G37*
%TD.AperFunction*%
%TO.P,U4,12*%
%TO.N,Net-(C11-Pad2)*%
%TA.AperFunction,ComponentPad*%
G36*
G01*
X163689207Y-123404153D02*
X163689207Y-123404153D01*
G75*
G02*
X164803390Y-123600614I458861J-655322D01*
G01*
X164803390Y-123600614D01*
G75*
G02*
X164606929Y-124714797I-655322J-458861D01*
G01*
X164606929Y-124714797D01*
G75*
G02*
X163492746Y-124518336I-458861J655322D01*
G01*
X163492746Y-124518336D01*
G75*
G02*
X163689207Y-123404153I655322J458861D01*
G01*
G37*
%TD.AperFunction*%
%TO.P,U4,4*%
%TO.N,Net-(R19-Pad2)*%
%TA.AperFunction,ComponentPad*%
G36*
G01*
X161399200Y-115705330D02*
X161399200Y-115705330D01*
G75*
G02*
X162513383Y-115901791I458861J-655322D01*
G01*
X162513383Y-115901791D01*
G75*
G02*
X162316922Y-117015974I-655322J-458861D01*
G01*
X162316922Y-117015974D01*
G75*
G02*
X161202739Y-116819513I-458861J655322D01*
G01*
X161202739Y-116819513D01*
G75*
G02*
X161399200Y-115705330I655322J458861D01*
G01*
G37*
%TD.AperFunction*%
%TO.P,U4,11*%
%TO.N,+9V*%
%TA.AperFunction,ComponentPad*%
G36*
G01*
X161608560Y-124861037D02*
X161608560Y-124861037D01*
G75*
G02*
X162722743Y-125057498I458861J-655322D01*
G01*
X162722743Y-125057498D01*
G75*
G02*
X162526282Y-126171681I-655322J-458861D01*
G01*
X162526282Y-126171681D01*
G75*
G02*
X161412099Y-125975220I-458861J655322D01*
G01*
X161412099Y-125975220D01*
G75*
G02*
X161608560Y-124861037I655322J458861D01*
G01*
G37*
%TD.AperFunction*%
%TO.P,U4,3*%
%TO.N,Net-(R15-Pad1)*%
%TA.AperFunction,ComponentPad*%
G36*
G01*
X163479847Y-114248446D02*
X163479847Y-114248446D01*
G75*
G02*
X164594030Y-114444907I458861J-655322D01*
G01*
X164594030Y-114444907D01*
G75*
G02*
X164397569Y-115559090I-655322J-458861D01*
G01*
X164397569Y-115559090D01*
G75*
G02*
X163283386Y-115362629I-458861J655322D01*
G01*
X163283386Y-115362629D01*
G75*
G02*
X163479847Y-114248446I655322J458861D01*
G01*
G37*
%TD.AperFunction*%
%TO.P,U4,10*%
%TO.N,N/C*%
%TA.AperFunction,ComponentPad*%
G36*
G01*
X159527914Y-126317921D02*
X159527914Y-126317921D01*
G75*
G02*
X160642097Y-126514382I458861J-655322D01*
G01*
X160642097Y-126514382D01*
G75*
G02*
X160445636Y-127628565I-655322J-458861D01*
G01*
X160445636Y-127628565D01*
G75*
G02*
X159331453Y-127432104I-458861J655322D01*
G01*
X159331453Y-127432104D01*
G75*
G02*
X159527914Y-126317921I655322J458861D01*
G01*
G37*
%TD.AperFunction*%
%TO.P,U4,2*%
%TO.N,Net-(U4-Pad2)*%
%TA.AperFunction,ComponentPad*%
G36*
G01*
X165560493Y-112791562D02*
X165560493Y-112791562D01*
G75*
G02*
X166674676Y-112988023I458861J-655322D01*
G01*
X166674676Y-112988023D01*
G75*
G02*
X166478215Y-114102206I-655322J-458861D01*
G01*
X166478215Y-114102206D01*
G75*
G02*
X165364032Y-113905745I-458861J655322D01*
G01*
X165364032Y-113905745D01*
G75*
G02*
X165560493Y-112791562I655322J458861D01*
G01*
G37*
%TD.AperFunction*%
%TO.P,U4,9*%
%TO.N,N/C*%
%TA.AperFunction,ComponentPad*%
G36*
G01*
X157447268Y-127774806D02*
X157447268Y-127774806D01*
G75*
G02*
X158561451Y-127971267I458861J-655322D01*
G01*
X158561451Y-127971267D01*
G75*
G02*
X158364990Y-129085450I-655322J-458861D01*
G01*
X158364990Y-129085450D01*
G75*
G02*
X157250807Y-128888989I-458861J655322D01*
G01*
X157250807Y-128888989D01*
G75*
G02*
X157447268Y-127774806I655322J458861D01*
G01*
G37*
%TD.AperFunction*%
%TA.AperFunction,ComponentPad*%
%TO.P,U4,1*%
%TO.N,Net-(R23-Pad1)*%
G36*
X166985817Y-111793540D02*
G01*
X168296460Y-110875817D01*
X169214183Y-112186460D01*
X167903540Y-113104183D01*
X166985817Y-111793540D01*
G37*
%TD.AperFunction*%
%TD*%
%TA.AperFunction,ComponentPad*%
%TO.P,U3,1*%
%TO.N,Net-(R22-Pad1)*%
G36*
X172333540Y-70935817D02*
G01*
X173644183Y-71853540D01*
X172726460Y-73164183D01*
X171415817Y-72246460D01*
X172333540Y-70935817D01*
G37*
%TD.AperFunction*%
%TO.P,U3,9*%
%TO.N,N/C*%
%TA.AperFunction,ComponentPad*%
G36*
G01*
X154053685Y-67438428D02*
X154053685Y-67438428D01*
G75*
G02*
X154250146Y-68552611I-458861J-655322D01*
G01*
X154250146Y-68552611D01*
G75*
G02*
X153135963Y-68749072I-655322J458861D01*
G01*
X153135963Y-68749072D01*
G75*
G02*
X152939502Y-67634889I458861J655322D01*
G01*
X152939502Y-67634889D01*
G75*
G02*
X154053685Y-67438428I655322J-458861D01*
G01*
G37*
%TD.AperFunction*%
%TO.P,U3,2*%
%TO.N,Net-(U3-Pad2)*%
%TA.AperFunction,ComponentPad*%
G36*
G01*
X170908215Y-69937794D02*
X170908215Y-69937794D01*
G75*
G02*
X171104676Y-71051977I-458861J-655322D01*
G01*
X171104676Y-71051977D01*
G75*
G02*
X169990493Y-71248438I-655322J458861D01*
G01*
X169990493Y-71248438D01*
G75*
G02*
X169794032Y-70134255I458861J655322D01*
G01*
X169794032Y-70134255D01*
G75*
G02*
X170908215Y-69937794I655322J-458861D01*
G01*
G37*
%TD.AperFunction*%
%TO.P,U3,10*%
%TO.N,N/C*%
%TA.AperFunction,ComponentPad*%
G36*
G01*
X156134331Y-68895312D02*
X156134331Y-68895312D01*
G75*
G02*
X156330792Y-70009495I-458861J-655322D01*
G01*
X156330792Y-70009495D01*
G75*
G02*
X155216609Y-70205956I-655322J458861D01*
G01*
X155216609Y-70205956D01*
G75*
G02*
X155020148Y-69091773I458861J655322D01*
G01*
X155020148Y-69091773D01*
G75*
G02*
X156134331Y-68895312I655322J-458861D01*
G01*
G37*
%TD.AperFunction*%
%TO.P,U3,3*%
%TO.N,Net-(R14-Pad1)*%
%TA.AperFunction,ComponentPad*%
G36*
G01*
X168827569Y-68480910D02*
X168827569Y-68480910D01*
G75*
G02*
X169024030Y-69595093I-458861J-655322D01*
G01*
X169024030Y-69595093D01*
G75*
G02*
X167909847Y-69791554I-655322J458861D01*
G01*
X167909847Y-69791554D01*
G75*
G02*
X167713386Y-68677371I458861J655322D01*
G01*
X167713386Y-68677371D01*
G75*
G02*
X168827569Y-68480910I655322J-458861D01*
G01*
G37*
%TD.AperFunction*%
%TO.P,U3,11*%
%TO.N,+9V*%
%TA.AperFunction,ComponentPad*%
G36*
G01*
X158214978Y-70352196D02*
X158214978Y-70352196D01*
G75*
G02*
X158411439Y-71466379I-458861J-655322D01*
G01*
X158411439Y-71466379D01*
G75*
G02*
X157297256Y-71662840I-655322J458861D01*
G01*
X157297256Y-71662840D01*
G75*
G02*
X157100795Y-70548657I458861J655322D01*
G01*
X157100795Y-70548657D01*
G75*
G02*
X158214978Y-70352196I655322J-458861D01*
G01*
G37*
%TD.AperFunction*%
%TO.P,U3,4*%
%TO.N,Net-(R17-Pad2)*%
%TA.AperFunction,ComponentPad*%
G36*
G01*
X166746922Y-67024026D02*
X166746922Y-67024026D01*
G75*
G02*
X166943383Y-68138209I-458861J-655322D01*
G01*
X166943383Y-68138209D01*
G75*
G02*
X165829200Y-68334670I-655322J458861D01*
G01*
X165829200Y-68334670D01*
G75*
G02*
X165632739Y-67220487I458861J655322D01*
G01*
X165632739Y-67220487D01*
G75*
G02*
X166746922Y-67024026I655322J-458861D01*
G01*
G37*
%TD.AperFunction*%
%TO.P,U3,12*%
%TO.N,Net-(C12-Pad2)*%
%TA.AperFunction,ComponentPad*%
G36*
G01*
X160295624Y-71809080D02*
X160295624Y-71809080D01*
G75*
G02*
X160492085Y-72923263I-458861J-655322D01*
G01*
X160492085Y-72923263D01*
G75*
G02*
X159377902Y-73119724I-655322J458861D01*
G01*
X159377902Y-73119724D01*
G75*
G02*
X159181441Y-72005541I458861J655322D01*
G01*
X159181441Y-72005541D01*
G75*
G02*
X160295624Y-71809080I655322J-458861D01*
G01*
G37*
%TD.AperFunction*%
%TO.P,U3,5*%
%TO.N,Net-(C9-Pad2)*%
%TA.AperFunction,ComponentPad*%
G36*
G01*
X164666276Y-65567141D02*
X164666276Y-65567141D01*
G75*
G02*
X164862737Y-66681324I-458861J-655322D01*
G01*
X164862737Y-66681324D01*
G75*
G02*
X163748554Y-66877785I-655322J458861D01*
G01*
X163748554Y-66877785D01*
G75*
G02*
X163552093Y-65763602I458861J655322D01*
G01*
X163552093Y-65763602D01*
G75*
G02*
X164666276Y-65567141I655322J-458861D01*
G01*
G37*
%TD.AperFunction*%
%TO.P,U3,13*%
%TO.N,Net-(R26-Pad2)*%
%TA.AperFunction,ComponentPad*%
G36*
G01*
X162376270Y-73265964D02*
X162376270Y-73265964D01*
G75*
G02*
X162572731Y-74380147I-458861J-655322D01*
G01*
X162572731Y-74380147D01*
G75*
G02*
X161458548Y-74576608I-655322J458861D01*
G01*
X161458548Y-74576608D01*
G75*
G02*
X161262087Y-73462425I458861J655322D01*
G01*
X161262087Y-73462425D01*
G75*
G02*
X162376270Y-73265964I655322J-458861D01*
G01*
G37*
%TD.AperFunction*%
%TO.P,U3,6*%
%TO.N,GND*%
%TA.AperFunction,ComponentPad*%
G36*
G01*
X162585630Y-64110257D02*
X162585630Y-64110257D01*
G75*
G02*
X162782091Y-65224440I-458861J-655322D01*
G01*
X162782091Y-65224440D01*
G75*
G02*
X161667908Y-65420901I-655322J458861D01*
G01*
X161667908Y-65420901D01*
G75*
G02*
X161471447Y-64306718I458861J655322D01*
G01*
X161471447Y-64306718D01*
G75*
G02*
X162585630Y-64110257I655322J-458861D01*
G01*
G37*
%TD.AperFunction*%
%TO.P,U3,14*%
%TO.N,Net-(R24-Pad1)*%
%TA.AperFunction,ComponentPad*%
G36*
G01*
X164456916Y-74722848D02*
X164456916Y-74722848D01*
G75*
G02*
X164653377Y-75837031I-458861J-655322D01*
G01*
X164653377Y-75837031D01*
G75*
G02*
X163539194Y-76033492I-655322J458861D01*
G01*
X163539194Y-76033492D01*
G75*
G02*
X163342733Y-74919309I458861J655322D01*
G01*
X163342733Y-74919309D01*
G75*
G02*
X164456916Y-74722848I655322J-458861D01*
G01*
G37*
%TD.AperFunction*%
%TO.P,U3,7*%
%TO.N,N/C*%
%TA.AperFunction,ComponentPad*%
G36*
G01*
X160504984Y-62653373D02*
X160504984Y-62653373D01*
G75*
G02*
X160701445Y-63767556I-458861J-655322D01*
G01*
X160701445Y-63767556D01*
G75*
G02*
X159587262Y-63964017I-655322J458861D01*
G01*
X159587262Y-63964017D01*
G75*
G02*
X159390801Y-62849834I458861J655322D01*
G01*
X159390801Y-62849834D01*
G75*
G02*
X160504984Y-62653373I655322J-458861D01*
G01*
G37*
%TD.AperFunction*%
%TO.P,U3,15*%
%TO.N,Net-(U3-Pad15)*%
%TA.AperFunction,ComponentPad*%
G36*
G01*
X166537562Y-76179732D02*
X166537562Y-76179732D01*
G75*
G02*
X166734023Y-77293915I-458861J-655322D01*
G01*
X166734023Y-77293915D01*
G75*
G02*
X165619840Y-77490376I-655322J458861D01*
G01*
X165619840Y-77490376D01*
G75*
G02*
X165423379Y-76376193I458861J655322D01*
G01*
X165423379Y-76376193D01*
G75*
G02*
X166537562Y-76179732I655322J-458861D01*
G01*
G37*
%TD.AperFunction*%
%TO.P,U3,8*%
%TO.N,N/C*%
%TA.AperFunction,ComponentPad*%
G36*
G01*
X158424338Y-61196489D02*
X158424338Y-61196489D01*
G75*
G02*
X158620799Y-62310672I-458861J-655322D01*
G01*
X158620799Y-62310672D01*
G75*
G02*
X157506616Y-62507133I-655322J458861D01*
G01*
X157506616Y-62507133D01*
G75*
G02*
X157310155Y-61392950I458861J655322D01*
G01*
X157310155Y-61392950D01*
G75*
G02*
X158424338Y-61196489I655322J-458861D01*
G01*
G37*
%TD.AperFunction*%
%TO.P,U3,16*%
%TO.N,Net-(R30-Pad1)*%
%TA.AperFunction,ComponentPad*%
G36*
G01*
X168618209Y-77636617D02*
X168618209Y-77636617D01*
G75*
G02*
X168814670Y-78750800I-458861J-655322D01*
G01*
X168814670Y-78750800D01*
G75*
G02*
X167700487Y-78947261I-655322J458861D01*
G01*
X167700487Y-78947261D01*
G75*
G02*
X167504026Y-77833078I458861J655322D01*
G01*
X167504026Y-77833078D01*
G75*
G02*
X168618209Y-77636617I655322J-458861D01*
G01*
G37*
%TD.AperFunction*%
%TD*%
D13*
%TO.P,Q4,2*%
%TO.N,Net-(Q4-Pad2)*%
X184242681Y-118794247D03*
%TO.P,Q4,3*%
%TO.N,Net-(Q4-Pad3)*%
X185875361Y-116848494D03*
%TA.AperFunction,ComponentPad*%
D10*
%TO.P,Q4,1*%
%TO.N,Net-(Q4-Pad1)*%
G36*
X183666624Y-120647557D02*
G01*
X182702443Y-121796624D01*
X181553376Y-120832443D01*
X182517557Y-119683376D01*
X183666624Y-120647557D01*
G37*
%TD.AperFunction*%
%TD*%
D13*
%TO.P,Q8,2*%
%TO.N,Net-(Q8-Pad2)*%
X185180646Y-126353116D03*
%TO.P,Q8,3*%
%TO.N,Net-(Q4-Pad3)*%
X187261292Y-124896232D03*
%TA.AperFunction,ComponentPad*%
D10*
%TO.P,Q8,1*%
%TO.N,Net-(Q8-Pad1)*%
G36*
X184144546Y-127994182D02*
G01*
X182915818Y-128854546D01*
X182055454Y-127625818D01*
X183284182Y-126765454D01*
X184144546Y-127994182D01*
G37*
%TD.AperFunction*%
%TD*%
%TA.AperFunction,ComponentPad*%
%TO.P,Q6,1*%
%TO.N,Net-(Q4-Pad3)*%
G36*
X189162767Y-121926695D02*
G01*
X187803305Y-121292767D01*
X188437233Y-119933305D01*
X189796695Y-120567233D01*
X189162767Y-121926695D01*
G37*
%TD.AperFunction*%
D13*
%TO.P,Q6,3*%
%TO.N,+9V*%
X193404044Y-123076901D03*
%TO.P,Q6,2*%
%TO.N,Net-(Q2-Pad3)*%
X191102022Y-122003450D03*
%TD*%
%TA.AperFunction,ComponentPad*%
D10*
%TO.P,Q3,1*%
%TO.N,Net-(Q3-Pad1)*%
G36*
X184992443Y-70583376D02*
G01*
X185956624Y-71732443D01*
X184807557Y-72696624D01*
X183843376Y-71547557D01*
X184992443Y-70583376D01*
G37*
%TD.AperFunction*%
D13*
%TO.P,Q3,3*%
%TO.N,Net-(Q3-Pad3)*%
X181634639Y-67748494D03*
%TO.P,Q3,2*%
%TO.N,Net-(Q3-Pad2)*%
X183267319Y-69694247D03*
%TD*%
%TA.AperFunction,ComponentPad*%
D10*
%TO.P,Q5,1*%
%TO.N,Net-(Q3-Pad3)*%
G36*
X189286695Y-69882767D02*
G01*
X187927233Y-70516695D01*
X187293305Y-69157233D01*
X188652767Y-68523305D01*
X189286695Y-69882767D01*
G37*
%TD.AperFunction*%
D13*
%TO.P,Q5,3*%
%TO.N,+9V*%
X192894044Y-67373099D03*
%TO.P,Q5,2*%
%TO.N,Net-(Q1-Pad3)*%
X190592022Y-68446550D03*
%TD*%
%TO.P,Q7,2*%
%TO.N,Net-(Q7-Pad2)*%
X184690646Y-63246884D03*
%TO.P,Q7,3*%
%TO.N,Net-(Q3-Pad3)*%
X186771292Y-64703768D03*
%TA.AperFunction,ComponentPad*%
D10*
%TO.P,Q7,1*%
%TO.N,Net-(Q7-Pad1)*%
G36*
X182794182Y-62834546D02*
G01*
X181565454Y-61974182D01*
X182425818Y-60745454D01*
X183654546Y-61605818D01*
X182794182Y-62834546D01*
G37*
%TD.AperFunction*%
%TD*%
%TA.AperFunction,ComponentPad*%
%TO.P,Q2,1*%
%TO.N,+9V*%
G36*
X192163305Y-113352767D02*
G01*
X192797233Y-111993305D01*
X194156695Y-112627233D01*
X193522767Y-113986695D01*
X192163305Y-113352767D01*
G37*
%TD.AperFunction*%
D13*
%TO.P,Q2,3*%
%TO.N,Net-(Q2-Pad3)*%
X191013099Y-117594044D03*
%TO.P,Q2,2*%
%TO.N,Net-(Q2-Pad2)*%
X192086550Y-115292022D03*
%TD*%
%TO.P,Q1,2*%
%TO.N,Net-(Q1-Pad2)*%
X195060000Y-74410000D03*
%TO.P,Q1,3*%
%TO.N,Net-(Q1-Pad3)*%
X192520000Y-74410000D03*
D14*
%TO.P,Q1,1*%
%TO.N,+9V*%
X197600000Y-74410000D03*
%TD*%
%TO.P,R40,2*%
%TO.N,Net-(Q1-Pad3)*%
%TA.AperFunction,ComponentPad*%
G36*
G01*
X191406332Y-63323118D02*
X191406332Y-63323118D01*
G75*
G02*
X190770005Y-64081463I-697336J-61009D01*
G01*
X190770005Y-64081463D01*
G75*
G02*
X190011660Y-63445136I-61009J697336D01*
G01*
X190011660Y-63445136D01*
G75*
G02*
X190647987Y-62686791I697336J61009D01*
G01*
X190647987Y-62686791D01*
G75*
G02*
X191406332Y-63323118I61009J-697336D01*
G01*
G37*
%TD.AperFunction*%
D15*
%TO.P,R40,1*%
%TO.N,GND*%
X198300000Y-62720000D03*
%TD*%
%TO.P,R41,1*%
%TO.N,GND*%
X197470000Y-128730000D03*
%TO.P,R41,2*%
%TO.N,Net-(Q2-Pad3)*%
%TA.AperFunction,ComponentPad*%
G36*
G01*
X190967327Y-126363221D02*
X190967327Y-126363221D01*
G75*
G02*
X190070128Y-126781592I-657785J239414D01*
G01*
X190070128Y-126781592D01*
G75*
G02*
X189651757Y-125884393I239414J657785D01*
G01*
X189651757Y-125884393D01*
G75*
G02*
X190548956Y-125466022I657785J-239414D01*
G01*
X190548956Y-125466022D01*
G75*
G02*
X190967327Y-126363221I-239414J-657785D01*
G01*
G37*
%TD.AperFunction*%
%TD*%
%TO.P,R13,1*%
%TO.N,GND*%
X200588449Y-82570093D03*
%TO.P,R13,2*%
%TO.N,Net-(C6-Pad1)*%
%TA.AperFunction,ComponentPad*%
G36*
G01*
X202955228Y-89072766D02*
X202955228Y-89072766D01*
G75*
G02*
X203852427Y-89491137I239414J-657785D01*
G01*
X203852427Y-89491137D01*
G75*
G02*
X203434056Y-90388336I-657785J-239414D01*
G01*
X203434056Y-90388336D01*
G75*
G02*
X202536857Y-89969965I-239414J657785D01*
G01*
X202536857Y-89969965D01*
G75*
G02*
X202955228Y-89072766I657785J239414D01*
G01*
G37*
%TD.AperFunction*%
%TD*%
%TO.P,R35,1*%
%TO.N,Net-(Q2-Pad2)*%
X196430000Y-116300000D03*
%TO.P,R35,2*%
%TO.N,+9V*%
%TA.AperFunction,ComponentPad*%
G36*
G01*
X202701650Y-119224518D02*
X202701650Y-119224518D01*
G75*
G02*
X203631898Y-118885936I634415J-295833D01*
G01*
X203631898Y-118885936D01*
G75*
G02*
X203970480Y-119816184I-295833J-634415D01*
G01*
X203970480Y-119816184D01*
G75*
G02*
X203040232Y-120154766I-634415J295833D01*
G01*
X203040232Y-120154766D01*
G75*
G02*
X202701650Y-119224518I295833J634415D01*
G01*
G37*
%TD.AperFunction*%
%TD*%
%TO.P,R43,1*%
%TO.N,GND*%
X196390000Y-131060000D03*
%TO.P,R43,2*%
%TO.N,Net-(Q8-Pad1)*%
%TA.AperFunction,ComponentPad*%
G36*
G01*
X189575130Y-129858355D02*
X189575130Y-129858355D01*
G75*
G02*
X188764211Y-130426166I-689365J121554D01*
G01*
X188764211Y-130426166D01*
G75*
G02*
X188196400Y-129615247I121554J689365D01*
G01*
X188196400Y-129615247D01*
G75*
G02*
X189007319Y-129047436I689365J-121554D01*
G01*
X189007319Y-129047436D01*
G75*
G02*
X189575130Y-129858355I-121554J-689365D01*
G01*
G37*
%TD.AperFunction*%
%TD*%
%TO.P,R45,1*%
%TO.N,Mido2*%
X176420000Y-129800000D03*
%TO.P,R45,2*%
%TO.N,Net-(Q8-Pad2)*%
%TA.AperFunction,ComponentPad*%
G36*
G01*
X178786779Y-123297327D02*
X178786779Y-123297327D01*
G75*
G02*
X178368408Y-122400128I239414J657785D01*
G01*
X178368408Y-122400128D01*
G75*
G02*
X179265607Y-121981757I657785J-239414D01*
G01*
X179265607Y-121981757D01*
G75*
G02*
X179683978Y-122878956I-239414J-657785D01*
G01*
X179683978Y-122878956D01*
G75*
G02*
X178786779Y-123297327I-657785J239414D01*
G01*
G37*
%TD.AperFunction*%
%TD*%
%TO.P,R39,2*%
%TO.N,Net-(Q4-Pad2)*%
%TA.AperFunction,ComponentPad*%
G36*
G01*
X178699137Y-117934110D02*
X178699137Y-117934110D01*
G75*
G02*
X178368685Y-117000942I301358J631810D01*
G01*
X178368685Y-117000942D01*
G75*
G02*
X179301853Y-116670490I631810J-301358D01*
G01*
X179301853Y-116670490D01*
G75*
G02*
X179632305Y-117603658I-301358J-631810D01*
G01*
X179632305Y-117603658D01*
G75*
G02*
X178699137Y-117934110I-631810J301358D01*
G01*
G37*
%TD.AperFunction*%
%TO.P,R39,1*%
%TO.N,Mido2*%
X175720000Y-124180000D03*
%TD*%
%TO.P,R34,1*%
%TO.N,Net-(Q1-Pad2)*%
X198710000Y-78910000D03*
%TO.P,R34,2*%
%TO.N,+9V*%
%TA.AperFunction,ComponentPad*%
G36*
G01*
X203158091Y-73608972D02*
X203158091Y-73608972D01*
G75*
G02*
X203071811Y-72622790I449951J536231D01*
G01*
X203071811Y-72622790D01*
G75*
G02*
X204057993Y-72536510I536231J-449951D01*
G01*
X204057993Y-72536510D01*
G75*
G02*
X204144273Y-73522692I-449951J-536231D01*
G01*
X204144273Y-73522692D01*
G75*
G02*
X203158091Y-73608972I-536231J449951D01*
G01*
G37*
%TD.AperFunction*%
%TD*%
%TO.P,R42,1*%
%TO.N,GND*%
X195760000Y-59620000D03*
D16*
%TO.P,R42,2*%
%TO.N,Net-(Q7-Pad1)*%
X188140000Y-59620000D03*
%TD*%
D15*
%TO.P,R44,1*%
%TO.N,Mido1*%
X173650000Y-60690000D03*
%TO.P,R44,2*%
%TO.N,Net-(Q7-Pad2)*%
%TA.AperFunction,ComponentPad*%
G36*
G01*
X178098091Y-65991028D02*
X178098091Y-65991028D01*
G75*
G02*
X179084273Y-66077308I449951J-536231D01*
G01*
X179084273Y-66077308D01*
G75*
G02*
X178997993Y-67063490I-536231J-449951D01*
G01*
X178997993Y-67063490D01*
G75*
G02*
X178011811Y-66977210I-449951J536231D01*
G01*
X178011811Y-66977210D01*
G75*
G02*
X178098091Y-65991028I536231J449951D01*
G01*
G37*
%TD.AperFunction*%
%TD*%
%TO.P,R38,2*%
%TO.N,Net-(Q3-Pad2)*%
%TA.AperFunction,ComponentPad*%
G36*
G01*
X171355118Y-65227668D02*
X171355118Y-65227668D01*
G75*
G02*
X172113463Y-65863995I61009J-697336D01*
G01*
X172113463Y-65863995D01*
G75*
G02*
X171477136Y-66622340I-697336J-61009D01*
G01*
X171477136Y-66622340D01*
G75*
G02*
X170718791Y-65986013I-61009J697336D01*
G01*
X170718791Y-65986013D01*
G75*
G02*
X171355118Y-65227668I697336J61009D01*
G01*
G37*
%TD.AperFunction*%
%TO.P,R38,1*%
%TO.N,Mido1*%
X170752000Y-58334000D03*
%TD*%
%TO.P,R31,2*%
%TO.N,Net-(Q4-Pad1)*%
%TA.AperFunction,ComponentPad*%
G36*
G01*
X175523221Y-113482673D02*
X175523221Y-113482673D01*
G75*
G02*
X175941592Y-114379872I-239414J-657785D01*
G01*
X175941592Y-114379872D01*
G75*
G02*
X175044393Y-114798243I-657785J239414D01*
G01*
X175044393Y-114798243D01*
G75*
G02*
X174626022Y-113901044I239414J657785D01*
G01*
X174626022Y-113901044D01*
G75*
G02*
X175523221Y-113482673I657785J-239414D01*
G01*
G37*
%TD.AperFunction*%
%TO.P,R31,1*%
%TO.N,Net-(R31-Pad1)*%
X177890000Y-106980000D03*
%TD*%
%TO.P,R49,1*%
%TO.N,Net-(C10-Pad1)*%
X172260000Y-104780000D03*
%TO.P,R49,2*%
%TO.N,Net-(C15-Pad2)*%
%TA.AperFunction,ComponentPad*%
G36*
G01*
X176708091Y-99478972D02*
X176708091Y-99478972D01*
G75*
G02*
X176621811Y-98492790I449951J536231D01*
G01*
X176621811Y-98492790D01*
G75*
G02*
X177607993Y-98406510I536231J-449951D01*
G01*
X177607993Y-98406510D01*
G75*
G02*
X177694273Y-99392692I-449951J-536231D01*
G01*
X177694273Y-99392692D01*
G75*
G02*
X176708091Y-99478972I-536231J449951D01*
G01*
G37*
%TD.AperFunction*%
%TD*%
%TO.P,R23,2*%
%TO.N,Net-(Q4-Pad1)*%
%TA.AperFunction,ComponentPad*%
G36*
G01*
X173122896Y-111250000D02*
X173122896Y-111250000D01*
G75*
G02*
X174079114Y-110993782I606218J-350000D01*
G01*
X174079114Y-110993782D01*
G75*
G02*
X174335332Y-111950000I-350000J-606218D01*
G01*
X174335332Y-111950000D01*
G75*
G02*
X173379114Y-112206218I-606218J350000D01*
G01*
X173379114Y-112206218D01*
G75*
G02*
X173122896Y-111250000I350000J606218D01*
G01*
G37*
%TD.AperFunction*%
%TO.P,R23,1*%
%TO.N,Net-(R23-Pad1)*%
X167130000Y-107790000D03*
%TD*%
%TO.P,R22,2*%
%TO.N,Net-(Q3-Pad1)*%
%TA.AperFunction,ComponentPad*%
G36*
G01*
X183278207Y-76635028D02*
X183278207Y-76635028D01*
G75*
G02*
X184135528Y-76140053I676148J-181173D01*
G01*
X184135528Y-76140053D01*
G75*
G02*
X184630503Y-76997374I-181173J-676148D01*
G01*
X184630503Y-76997374D01*
G75*
G02*
X183773182Y-77492349I-676148J181173D01*
G01*
X183773182Y-77492349D01*
G75*
G02*
X183278207Y-76635028I181173J676148D01*
G01*
G37*
%TD.AperFunction*%
%TO.P,R22,1*%
%TO.N,Net-(R22-Pad1)*%
X176594000Y-74844000D03*
%TD*%
%TO.P,R48,2*%
%TO.N,Net-(C13-Pad2)*%
%TA.AperFunction,ComponentPad*%
G36*
G01*
X179265482Y-82218350D02*
X179265482Y-82218350D01*
G75*
G02*
X178335234Y-81879768I-295833J634415D01*
G01*
X178335234Y-81879768D01*
G75*
G02*
X178673816Y-80949520I634415J295833D01*
G01*
X178673816Y-80949520D01*
G75*
G02*
X179604064Y-81288102I295833J-634415D01*
G01*
X179604064Y-81288102D01*
G75*
G02*
X179265482Y-82218350I-634415J-295833D01*
G01*
G37*
%TD.AperFunction*%
%TO.P,R48,1*%
%TO.N,Net-(C15-Pad2)*%
X182190000Y-88490000D03*
%TD*%
%TO.P,R30,1*%
%TO.N,Net-(R30-Pad1)*%
X169070000Y-80130000D03*
%TO.P,R30,2*%
%TO.N,Net-(Q3-Pad1)*%
%TA.AperFunction,ComponentPad*%
G36*
G01*
X175963668Y-79526882D02*
X175963668Y-79526882D01*
G75*
G02*
X176599995Y-78768537I697336J61009D01*
G01*
X176599995Y-78768537D01*
G75*
G02*
X177358340Y-79404864I61009J-697336D01*
G01*
X177358340Y-79404864D01*
G75*
G02*
X176722013Y-80163209I-697336J-61009D01*
G01*
X176722013Y-80163209D01*
G75*
G02*
X175963668Y-79526882I-61009J697336D01*
G01*
G37*
%TD.AperFunction*%
%TD*%
%TO.P,R33,2*%
%TO.N,Net-(R33-Pad2)*%
%TA.AperFunction,ComponentPad*%
G36*
G01*
X201291650Y-122294518D02*
X201291650Y-122294518D01*
G75*
G02*
X202221898Y-121955936I634415J-295833D01*
G01*
X202221898Y-121955936D01*
G75*
G02*
X202560480Y-122886184I-295833J-634415D01*
G01*
X202560480Y-122886184D01*
G75*
G02*
X201630232Y-123224766I-634415J295833D01*
G01*
X201630232Y-123224766D01*
G75*
G02*
X201291650Y-122294518I295833J634415D01*
G01*
G37*
%TD.AperFunction*%
%TO.P,R33,1*%
%TO.N,Net-(Q2-Pad2)*%
X195020000Y-119370000D03*
%TD*%
%TO.P,R47,2*%
%TO.N,Net-(Q8-Pad2)*%
%TA.AperFunction,ComponentPad*%
G36*
G01*
X181011028Y-124215793D02*
X181011028Y-124215793D01*
G75*
G02*
X180516053Y-123358472I181173J676148D01*
G01*
X180516053Y-123358472D01*
G75*
G02*
X181373374Y-122863497I676148J-181173D01*
G01*
X181373374Y-122863497D01*
G75*
G02*
X181868349Y-123720818I-181173J-676148D01*
G01*
X181868349Y-123720818D01*
G75*
G02*
X181011028Y-124215793I-676148J181173D01*
G01*
G37*
%TD.AperFunction*%
%TO.P,R47,1*%
%TO.N,N4*%
X179220000Y-130900000D03*
%TD*%
%TO.P,R37,1*%
%TO.N,Net-(Q4-Pad2)*%
X178090000Y-114570000D03*
%TO.P,R37,2*%
%TO.N,N3*%
%TA.AperFunction,ComponentPad*%
G36*
G01*
X174120852Y-120238533D02*
X174120852Y-120238533D01*
G75*
G02*
X174292754Y-121213443I-401504J-573406D01*
G01*
X174292754Y-121213443D01*
G75*
G02*
X173317844Y-121385345I-573406J401504D01*
G01*
X173317844Y-121385345D01*
G75*
G02*
X173145942Y-120410435I401504J573406D01*
G01*
X173145942Y-120410435D01*
G75*
G02*
X174120852Y-120238533I573406J-401504D01*
G01*
G37*
%TD.AperFunction*%
%TD*%
%TO.P,R32,2*%
%TO.N,Net-(R32-Pad2)*%
%TA.AperFunction,ComponentPad*%
G36*
G01*
X200521650Y-67925482D02*
X200521650Y-67925482D01*
G75*
G02*
X200860232Y-66995234I634415J295833D01*
G01*
X200860232Y-66995234D01*
G75*
G02*
X201790480Y-67333816I295833J-634415D01*
G01*
X201790480Y-67333816D01*
G75*
G02*
X201451898Y-68264064I-634415J-295833D01*
G01*
X201451898Y-68264064D01*
G75*
G02*
X200521650Y-67925482I-295833J634415D01*
G01*
G37*
%TD.AperFunction*%
%TO.P,R32,1*%
%TO.N,Net-(Q1-Pad2)*%
X194250000Y-70850000D03*
%TD*%
%TO.P,R46,2*%
%TO.N,Net-(Q7-Pad2)*%
%TA.AperFunction,ComponentPad*%
G36*
G01*
X180278091Y-64431028D02*
X180278091Y-64431028D01*
G75*
G02*
X181264273Y-64517308I449951J-536231D01*
G01*
X181264273Y-64517308D01*
G75*
G02*
X181177993Y-65503490I-536231J-449951D01*
G01*
X181177993Y-65503490D01*
G75*
G02*
X180191811Y-65417210I-449951J536231D01*
G01*
X180191811Y-65417210D01*
G75*
G02*
X180278091Y-64431028I536231J449951D01*
G01*
G37*
%TD.AperFunction*%
%TO.P,R46,1*%
%TO.N,N2*%
X175830000Y-59130000D03*
%TD*%
%TO.P,R36,1*%
%TO.N,Net-(Q3-Pad2)*%
X178920000Y-71430000D03*
%TO.P,R36,2*%
%TO.N,N1*%
%TA.AperFunction,ComponentPad*%
G36*
G01*
X174471909Y-66128972D02*
X174471909Y-66128972D01*
G75*
G02*
X173485727Y-66042692I-449951J536231D01*
G01*
X173485727Y-66042692D01*
G75*
G02*
X173572007Y-65056510I536231J449951D01*
G01*
X173572007Y-65056510D01*
G75*
G02*
X174558189Y-65142790I449951J-536231D01*
G01*
X174558189Y-65142790D01*
G75*
G02*
X174471909Y-66128972I-536231J-449951D01*
G01*
G37*
%TD.AperFunction*%
%TD*%
%TO.P,R17,2*%
%TO.N,Net-(R17-Pad2)*%
%TA.AperFunction,ComponentPad*%
G36*
G01*
X168038779Y-64328673D02*
X168038779Y-64328673D01*
G75*
G02*
X168935978Y-64747044I239414J-657785D01*
G01*
X168935978Y-64747044D01*
G75*
G02*
X168517607Y-65644243I-657785J-239414D01*
G01*
X168517607Y-65644243D01*
G75*
G02*
X167620408Y-65225872I-239414J657785D01*
G01*
X167620408Y-65225872D01*
G75*
G02*
X168038779Y-64328673I657785J239414D01*
G01*
G37*
%TD.AperFunction*%
%TO.P,R17,1*%
%TO.N,Mido1*%
X165672000Y-57826000D03*
%TD*%
%TO.P,R16,1*%
%TO.N,Net-(R14-Pad1)*%
X165418000Y-84750000D03*
%TO.P,R16,2*%
%TO.N,Mido1*%
%TA.AperFunction,ComponentPad*%
G36*
G01*
X159425104Y-81290000D02*
X159425104Y-81290000D01*
G75*
G02*
X158468886Y-81546218I-606218J350000D01*
G01*
X158468886Y-81546218D01*
G75*
G02*
X158212668Y-80590000I350000J606218D01*
G01*
X158212668Y-80590000D01*
G75*
G02*
X159168886Y-80333782I606218J-350000D01*
G01*
X159168886Y-80333782D01*
G75*
G02*
X159425104Y-81290000I-350000J-606218D01*
G01*
G37*
%TD.AperFunction*%
%TD*%
%TO.P,R26,1*%
%TO.N,Mido1*%
X149416000Y-75606000D03*
%TO.P,R26,2*%
%TO.N,Net-(R26-Pad2)*%
%TA.AperFunction,ComponentPad*%
G36*
G01*
X156309668Y-76209118D02*
X156309668Y-76209118D01*
G75*
G02*
X157068013Y-75572791I697336J-61009D01*
G01*
X157068013Y-75572791D01*
G75*
G02*
X157704340Y-76331136I-61009J-697336D01*
G01*
X157704340Y-76331136D01*
G75*
G02*
X156945995Y-76967463I-697336J61009D01*
G01*
X156945995Y-76967463D01*
G75*
G02*
X156309668Y-76209118I61009J697336D01*
G01*
G37*
%TD.AperFunction*%
%TD*%
%TO.P,R28,1*%
%TO.N,Net-(R24-Pad1)*%
X154750000Y-80178000D03*
%TO.P,R28,2*%
%TO.N,Mido1*%
%TA.AperFunction,ComponentPad*%
G36*
G01*
X147856332Y-80781118D02*
X147856332Y-80781118D01*
G75*
G02*
X147220005Y-81539463I-697336J-61009D01*
G01*
X147220005Y-81539463D01*
G75*
G02*
X146461660Y-80903136I-61009J697336D01*
G01*
X146461660Y-80903136D01*
G75*
G02*
X147097987Y-80144791I697336J61009D01*
G01*
X147097987Y-80144791D01*
G75*
G02*
X147856332Y-80781118I61009J-697336D01*
G01*
G37*
%TD.AperFunction*%
%TD*%
%TO.P,R29,1*%
%TO.N,Net-(R25-Pad1)*%
X171010000Y-122350000D03*
%TO.P,R29,2*%
%TO.N,Mido2*%
%TA.AperFunction,ComponentPad*%
G36*
G01*
X170647835Y-129260516D02*
X170647835Y-129260516D01*
G75*
G02*
X171310241Y-129996192I-36635J-699041D01*
G01*
X171310241Y-129996192D01*
G75*
G02*
X170574565Y-130658598I-699041J36635D01*
G01*
X170574565Y-130658598D01*
G75*
G02*
X169912159Y-129922922I36635J699041D01*
G01*
X169912159Y-129922922D01*
G75*
G02*
X170647835Y-129260516I699041J-36635D01*
G01*
G37*
%TD.AperFunction*%
%TD*%
%TO.P,R27,2*%
%TO.N,Net-(R27-Pad2)*%
%TA.AperFunction,ComponentPad*%
G36*
G01*
X168353118Y-124956332D02*
X168353118Y-124956332D01*
G75*
G02*
X167716791Y-124197987I61009J697336D01*
G01*
X167716791Y-124197987D01*
G75*
G02*
X168475136Y-123561660I697336J-61009D01*
G01*
X168475136Y-123561660D01*
G75*
G02*
X169111463Y-124320005I-61009J-697336D01*
G01*
X169111463Y-124320005D01*
G75*
G02*
X168353118Y-124956332I-697336J61009D01*
G01*
G37*
%TD.AperFunction*%
%TO.P,R27,1*%
%TO.N,Mido2*%
X167750000Y-131850000D03*
%TD*%
%TO.P,R18,1*%
%TO.N,Net-(R15-Pad1)*%
X162480000Y-111570000D03*
%TO.P,R18,2*%
%TO.N,Mido2*%
%TA.AperFunction,ComponentPad*%
G36*
G01*
X159020000Y-105577104D02*
X159020000Y-105577104D01*
G75*
G02*
X158063782Y-105320886I-350000J606218D01*
G01*
X158063782Y-105320886D01*
G75*
G02*
X158320000Y-104364668I606218J350000D01*
G01*
X158320000Y-104364668D01*
G75*
G02*
X159276218Y-104620886I350000J-606218D01*
G01*
X159276218Y-104620886D01*
G75*
G02*
X159020000Y-105577104I-606218J-350000D01*
G01*
G37*
%TD.AperFunction*%
%TD*%
%TO.P,R19,1*%
%TO.N,Mido2*%
X154900000Y-106880000D03*
%TO.P,R19,2*%
%TO.N,Net-(R19-Pad2)*%
%TA.AperFunction,ComponentPad*%
G36*
G01*
X158360000Y-112872896D02*
X158360000Y-112872896D01*
G75*
G02*
X159316218Y-113129114I350000J-606218D01*
G01*
X159316218Y-113129114D01*
G75*
G02*
X159060000Y-114085332I-606218J-350000D01*
G01*
X159060000Y-114085332D01*
G75*
G02*
X158103782Y-113829114I-350000J606218D01*
G01*
X158103782Y-113829114D01*
G75*
G02*
X158360000Y-112872896I606218J350000D01*
G01*
G37*
%TD.AperFunction*%
%TD*%
%TO.P,R3,1*%
%TO.N,+9V*%
X137800000Y-106710000D03*
%TO.P,R3,2*%
%TO.N,Net-(C2-Pad1)*%
%TA.AperFunction,ComponentPad*%
G36*
G01*
X143792896Y-110170000D02*
X143792896Y-110170000D01*
G75*
G02*
X144749114Y-109913782I606218J-350000D01*
G01*
X144749114Y-109913782D01*
G75*
G02*
X145005332Y-110870000I-350000J-606218D01*
G01*
X145005332Y-110870000D01*
G75*
G02*
X144049114Y-111126218I-606218J350000D01*
G01*
X144049114Y-111126218D01*
G75*
G02*
X143792896Y-110170000I350000J606218D01*
G01*
G37*
%TD.AperFunction*%
%TD*%
%TO.P,R4,2*%
%TO.N,GND*%
%TA.AperFunction,ComponentPad*%
G36*
G01*
X153052896Y-115890000D02*
X153052896Y-115890000D01*
G75*
G02*
X154009114Y-115633782I606218J-350000D01*
G01*
X154009114Y-115633782D01*
G75*
G02*
X154265332Y-116590000I-350000J-606218D01*
G01*
X154265332Y-116590000D01*
G75*
G02*
X153309114Y-116846218I-606218J350000D01*
G01*
X153309114Y-116846218D01*
G75*
G02*
X153052896Y-115890000I350000J606218D01*
G01*
G37*
%TD.AperFunction*%
%TO.P,R4,1*%
%TO.N,Net-(C2-Pad1)*%
X147060000Y-112430000D03*
%TD*%
%TO.P,R2,2*%
%TO.N,GND*%
%TA.AperFunction,ComponentPad*%
G36*
G01*
X126741645Y-59901130D02*
X126741645Y-59901130D01*
G75*
G02*
X126173834Y-59090211I121554J689365D01*
G01*
X126173834Y-59090211D01*
G75*
G02*
X126984753Y-58522400I689365J-121554D01*
G01*
X126984753Y-58522400D01*
G75*
G02*
X127552564Y-59333319I-121554J-689365D01*
G01*
X127552564Y-59333319D01*
G75*
G02*
X126741645Y-59901130I-689365J121554D01*
G01*
G37*
%TD.AperFunction*%
%TO.P,R2,1*%
%TO.N,Net-(C1-Pad1)*%
X125540000Y-66716000D03*
%TD*%
%TO.P,R1,1*%
%TO.N,+9V*%
X125440000Y-78500000D03*
%TO.P,R1,2*%
%TO.N,Net-(C1-Pad1)*%
%TA.AperFunction,ComponentPad*%
G36*
G01*
X125560770Y-71581054D02*
X125560770Y-71581054D01*
G75*
G02*
X124873094Y-70868944I12217J699893D01*
G01*
X124873094Y-70868944D01*
G75*
G02*
X125585204Y-70181268I699893J-12217D01*
G01*
X125585204Y-70181268D01*
G75*
G02*
X126272880Y-70893378I-12217J-699893D01*
G01*
X126272880Y-70893378D01*
G75*
G02*
X125560770Y-71581054I-699893J12217D01*
G01*
G37*
%TD.AperFunction*%
%TD*%
D17*
%TO.P,REF\u002A\u002A,*%
%TO.N,IN-AB*%
X134910000Y-96910000D03*
%TD*%
%TO.P,Out AB,*%
%TO.N,OUT-AB*%
X162446768Y-94359337D03*
%TD*%
%TO.P,R25,2*%
%TO.N,Net-(C10-Pad1)*%
%TA.AperFunction,ComponentPad*%
G36*
G01*
X139047327Y-131573221D02*
X139047327Y-131573221D01*
G75*
G02*
X138150128Y-131991592I-657785J239414D01*
G01*
X138150128Y-131991592D01*
G75*
G02*
X137731757Y-131094393I239414J657785D01*
G01*
X137731757Y-131094393D01*
G75*
G02*
X138628956Y-130676022I657785J-239414D01*
G01*
X138628956Y-130676022D01*
G75*
G02*
X139047327Y-131573221I-239414J-657785D01*
G01*
G37*
%TD.AperFunction*%
D15*
%TO.P,R25,1*%
%TO.N,Net-(R25-Pad1)*%
X145550000Y-133940000D03*
%TD*%
%TO.P,R15,2*%
%TO.N,Net-(R12-Pad1)*%
%TA.AperFunction,ComponentPad*%
G36*
G01*
X146725104Y-106488000D02*
X146725104Y-106488000D01*
G75*
G02*
X145768886Y-106744218I-606218J350000D01*
G01*
X145768886Y-106744218D01*
G75*
G02*
X145512668Y-105788000I350000J606218D01*
G01*
X145512668Y-105788000D01*
G75*
G02*
X146468886Y-105531782I606218J-350000D01*
G01*
X146468886Y-105531782D01*
G75*
G02*
X146725104Y-106488000I-350000J-606218D01*
G01*
G37*
%TD.AperFunction*%
%TO.P,R15,1*%
%TO.N,Net-(R15-Pad1)*%
X152718000Y-109948000D03*
%TD*%
D16*
%TO.P,R10,2*%
%TO.N,Net-(R10-Pad2)*%
X125720000Y-122090000D03*
D15*
%TO.P,R10,1*%
%TO.N,Net-(C11-Pad1)*%
X125720000Y-129710000D03*
%TD*%
%TO.P,R8,1*%
%TO.N,Net-(C5-Pad1)*%
X119430000Y-116940000D03*
%TO.P,R8,2*%
%TO.N,Net-(R10-Pad2)*%
%TA.AperFunction,ComponentPad*%
G36*
G01*
X126114207Y-118731028D02*
X126114207Y-118731028D01*
G75*
G02*
X126971528Y-118236053I676148J-181173D01*
G01*
X126971528Y-118236053D01*
G75*
G02*
X127466503Y-119093374I-181173J-676148D01*
G01*
X127466503Y-119093374D01*
G75*
G02*
X126609182Y-119588349I-676148J181173D01*
G01*
X126609182Y-119588349D01*
G75*
G02*
X126114207Y-118731028I181173J676148D01*
G01*
G37*
%TD.AperFunction*%
%TD*%
%TO.P,R12,2*%
%TO.N,Net-(R10-Pad2)*%
%TA.AperFunction,ComponentPad*%
G36*
G01*
X125370852Y-114548533D02*
X125370852Y-114548533D01*
G75*
G02*
X125542754Y-115523443I-401504J-573406D01*
G01*
X125542754Y-115523443D01*
G75*
G02*
X124567844Y-115695345I-573406J401504D01*
G01*
X124567844Y-115695345D01*
G75*
G02*
X124395942Y-114720435I401504J573406D01*
G01*
X124395942Y-114720435D01*
G75*
G02*
X125370852Y-114548533I573406J-401504D01*
G01*
G37*
%TD.AperFunction*%
%TO.P,R12,1*%
%TO.N,Net-(R12-Pad1)*%
X129340000Y-108880000D03*
%TD*%
%TO.P,R24,1*%
%TO.N,Net-(R24-Pad1)*%
X152464000Y-72558000D03*
%TO.P,R24,2*%
%TO.N,Net-(C13-Pad2)*%
%TA.AperFunction,ComponentPad*%
G36*
G01*
X150097221Y-66055327D02*
X150097221Y-66055327D01*
G75*
G02*
X149200022Y-65636956I-239414J657785D01*
G01*
X149200022Y-65636956D01*
G75*
G02*
X149618393Y-64739757I657785J239414D01*
G01*
X149618393Y-64739757D01*
G75*
G02*
X150515592Y-65158128I239414J-657785D01*
G01*
X150515592Y-65158128D01*
G75*
G02*
X150097221Y-66055327I-657785J-239414D01*
G01*
G37*
%TD.AperFunction*%
%TD*%
%TO.P,R9,2*%
%TO.N,Net-(R11-Pad2)*%
%TA.AperFunction,ComponentPad*%
G36*
G01*
X121810779Y-77536673D02*
X121810779Y-77536673D01*
G75*
G02*
X122707978Y-77955044I239414J-657785D01*
G01*
X122707978Y-77955044D01*
G75*
G02*
X122289607Y-78852243I-657785J-239414D01*
G01*
X122289607Y-78852243D01*
G75*
G02*
X121392408Y-78433872I-239414J657785D01*
G01*
X121392408Y-78433872D01*
G75*
G02*
X121810779Y-77536673I657785J239414D01*
G01*
G37*
%TD.AperFunction*%
%TO.P,R9,1*%
%TO.N,Net-(C12-Pad1)*%
X119444000Y-71034000D03*
%TD*%
%TO.P,R14,2*%
%TO.N,Net-(R11-Pad1)*%
%TA.AperFunction,ComponentPad*%
G36*
G01*
X139553130Y-82278355D02*
X139553130Y-82278355D01*
G75*
G02*
X138742211Y-82846166I-689365J121554D01*
G01*
X138742211Y-82846166D01*
G75*
G02*
X138174400Y-82035247I121554J689365D01*
G01*
X138174400Y-82035247D01*
G75*
G02*
X138985319Y-81467436I689365J-121554D01*
G01*
X138985319Y-81467436D01*
G75*
G02*
X139553130Y-82278355I-121554J-689365D01*
G01*
G37*
%TD.AperFunction*%
%TO.P,R14,1*%
%TO.N,Net-(R14-Pad1)*%
X146368000Y-83480000D03*
%TD*%
%TO.P,R11,2*%
%TO.N,Net-(R11-Pad2)*%
%TA.AperFunction,ComponentPad*%
G36*
G01*
X128412350Y-80301482D02*
X128412350Y-80301482D01*
G75*
G02*
X127482102Y-80640064I-634415J295833D01*
G01*
X127482102Y-80640064D01*
G75*
G02*
X127143520Y-79709816I295833J634415D01*
G01*
X127143520Y-79709816D01*
G75*
G02*
X128073768Y-79371234I634415J-295833D01*
G01*
X128073768Y-79371234D01*
G75*
G02*
X128412350Y-80301482I-295833J-634415D01*
G01*
G37*
%TD.AperFunction*%
%TO.P,R11,1*%
%TO.N,Net-(R11-Pad1)*%
X134684000Y-83226000D03*
%TD*%
%TO.P,R5,2*%
%TO.N,Net-(R11-Pad2)*%
%TA.AperFunction,ComponentPad*%
G36*
G01*
X119340896Y-80274000D02*
X119340896Y-80274000D01*
G75*
G02*
X119597114Y-79317782I606218J350000D01*
G01*
X119597114Y-79317782D01*
G75*
G02*
X120553332Y-79574000I350000J-606218D01*
G01*
X120553332Y-79574000D01*
G75*
G02*
X120297114Y-80530218I-606218J-350000D01*
G01*
X120297114Y-80530218D01*
G75*
G02*
X119340896Y-80274000I-350000J606218D01*
G01*
G37*
%TD.AperFunction*%
%TO.P,R5,1*%
%TO.N,Net-(C3-Pad1)*%
X113348000Y-83734000D03*
%TD*%
D16*
%TO.P,R6,2*%
%TO.N,Net-(R11-Pad2)*%
X122492000Y-81956000D03*
D15*
%TO.P,R6,1*%
%TO.N,Net-(C4-Pad1)*%
X122492000Y-89576000D03*
%TD*%
%TO.P,R7,2*%
%TO.N,Net-(R10-Pad2)*%
%TA.AperFunction,ComponentPad*%
G36*
G01*
X113100852Y-93698533D02*
X113100852Y-93698533D01*
G75*
G02*
X113272754Y-94673443I-401504J-573406D01*
G01*
X113272754Y-94673443D01*
G75*
G02*
X112297844Y-94845345I-573406J401504D01*
G01*
X112297844Y-94845345D01*
G75*
G02*
X112125942Y-93870435I401504J573406D01*
G01*
X112125942Y-93870435D01*
G75*
G02*
X113100852Y-93698533I573406J-401504D01*
G01*
G37*
%TD.AperFunction*%
%TO.P,R7,1*%
%TO.N,Net-(C4-Pad1)*%
X117070000Y-88030000D03*
%TD*%
%TO.P,R21,1*%
%TO.N,Net-(R21-Pad1)*%
X117490000Y-120850000D03*
%TO.P,R21,2*%
%TO.N,Net-(C10-Pad1)*%
%TA.AperFunction,ComponentPad*%
G36*
G01*
X120950000Y-126842896D02*
X120950000Y-126842896D01*
G75*
G02*
X121906218Y-127099114I350000J-606218D01*
G01*
X121906218Y-127099114D01*
G75*
G02*
X121650000Y-128055332I-606218J-350000D01*
G01*
X121650000Y-128055332D01*
G75*
G02*
X120693782Y-127799114I-350000J606218D01*
G01*
X120693782Y-127799114D01*
G75*
G02*
X120950000Y-126842896I606218J350000D01*
G01*
G37*
%TD.AperFunction*%
%TD*%
%TO.P,R20,1*%
%TO.N,Net-(R20-Pad1)*%
X139510000Y-58842000D03*
%TO.P,R20,2*%
%TO.N,Net-(C13-Pad2)*%
%TA.AperFunction,ComponentPad*%
G36*
G01*
X146403668Y-59445118D02*
X146403668Y-59445118D01*
G75*
G02*
X147162013Y-58808791I697336J-61009D01*
G01*
X147162013Y-58808791D01*
G75*
G02*
X147798340Y-59567136I-61009J-697336D01*
G01*
X147798340Y-59567136D01*
G75*
G02*
X147039995Y-60203463I-697336J61009D01*
G01*
X147039995Y-60203463D01*
G75*
G02*
X146403668Y-59445118I61009J697336D01*
G01*
G37*
%TD.AperFunction*%
%TD*%
D17*
%TO.P,Out B,*%
%TO.N,OUT-B*%
X152219973Y-98458279D03*
%TD*%
%TO.P,REF\u002A\u002A,*%
%TO.N,N4*%
X173890000Y-133050000D03*
%TD*%
%TO.P,REF\u002A\u002A,*%
%TO.N,N3*%
X162750000Y-133920000D03*
%TD*%
%TO.P,In B,*%
%TO.N,IN-B*%
X140990000Y-99280000D03*
%TD*%
%TO.P,Out A,*%
%TO.N,OUT-A*%
X151920000Y-90970000D03*
%TD*%
%TO.P,In A,*%
%TO.N,IN-A*%
X141010000Y-91840000D03*
%TD*%
%TO.P,REF\u002A\u002A,*%
%TO.N,N1*%
X161740000Y-59850000D03*
%TD*%
%TO.P,REF\u002A\u002A,*%
%TO.N,N2*%
X174320000Y-55420000D03*
%TD*%
D18*
%TO.P,C2,2*%
%TO.N,GND*%
X143020000Y-116225064D03*
%TA.AperFunction,ComponentPad*%
D10*
%TO.P,C2,1*%
%TO.N,Net-(C2-Pad1)*%
G36*
X143977180Y-112967180D02*
G01*
X145362820Y-113767180D01*
X144562820Y-115152820D01*
X143177180Y-114352820D01*
X143977180Y-112967180D01*
G37*
%TD.AperFunction*%
%TD*%
D18*
%TO.P,C11,1*%
%TO.N,Net-(C11-Pad1)*%
X144827679Y-130043301D03*
%TO.P,C11,2*%
%TO.N,Net-(C11-Pad2)*%
X146577679Y-127012212D03*
%TD*%
%TO.P,C10,2*%
%TO.N,Net-(C10-Pad2)*%
X132037679Y-126942212D03*
%TO.P,C10,1*%
%TO.N,Net-(C10-Pad1)*%
X133787679Y-129973301D03*
%TD*%
%TO.P,C12,2*%
%TO.N,Net-(C12-Pad2)*%
X121930938Y-66805998D03*
%TO.P,C12,1*%
%TO.N,Net-(C12-Pad1)*%
X119681182Y-64124842D03*
%TD*%
%TO.P,C9,1*%
%TO.N,Net-(C13-Pad2)*%
X146642000Y-62856000D03*
%TO.P,C9,2*%
%TO.N,Net-(C9-Pad2)*%
X146642000Y-66356000D03*
%TD*%
%TA.AperFunction,ComponentPad*%
D10*
%TO.P,C1,1*%
%TO.N,Net-(C1-Pad1)*%
G36*
X128686605Y-70637066D02*
G01*
X127460934Y-69608605D01*
X128489395Y-68382934D01*
X129715066Y-69411395D01*
X128686605Y-70637066D01*
G37*
%TD.AperFunction*%
D18*
%TO.P,C1,2*%
%TO.N,GND*%
X130194969Y-67594889D03*
%TD*%
%TO.P,C6,2*%
%TO.N,GND*%
X208749978Y-87416860D03*
%TA.AperFunction,ComponentPad*%
D10*
%TO.P,C6,1*%
%TO.N,Net-(C6-Pad1)*%
G36*
X211926210Y-92335351D02*
G01*
X210476117Y-93011540D01*
X209799928Y-91561447D01*
X211250021Y-90885258D01*
X211926210Y-92335351D01*
G37*
%TD.AperFunction*%
%TD*%
D17*
%TO.P,C3,2*%
%TO.N,IN-A*%
X124624444Y-93148857D03*
%TO.P,C3,1*%
%TO.N,Net-(C3-Pad1)*%
X117380000Y-95090000D03*
%TD*%
%TO.P,C4,2*%
%TO.N,IN-AB*%
X130546058Y-96987639D03*
%TO.P,C4,1*%
%TO.N,Net-(C4-Pad1)*%
X123160000Y-98290000D03*
%TD*%
%TO.P,C5,1*%
%TO.N,Net-(C5-Pad1)*%
X118060000Y-110410000D03*
%TO.P,C5,2*%
%TO.N,IN-B*%
X122880907Y-104664667D03*
%TD*%
%TO.P,C7,1*%
%TO.N,GND*%
X197432702Y-89493259D03*
%TO.P,C7,2*%
%TO.N,Net-(C6-Pad1)*%
X203576342Y-93795082D03*
%TD*%
%TO.P,C8,1*%
%TO.N,GND*%
X189120000Y-96040000D03*
%TO.P,C8,2*%
%TO.N,+9V*%
X184299093Y-101785333D03*
%TD*%
%TO.P,C13,2*%
%TO.N,Net-(C13-Pad2)*%
X172651823Y-82886360D03*
%TO.P,C13,1*%
%TO.N,OUT-A*%
X168350000Y-89030000D03*
%TD*%
%TO.P,C14,1*%
%TO.N,OUT-B*%
X161790000Y-99020000D03*
%TO.P,C14,2*%
%TO.N,Net-(C10-Pad1)*%
X164959637Y-105817308D03*
%TD*%
%TO.P,C15,2*%
%TO.N,Net-(C15-Pad2)*%
X180811460Y-94526332D03*
%TO.P,C15,1*%
%TO.N,OUT-AB*%
X173340000Y-95180000D03*
%TD*%
%TO.P,MFR090,1*%
%TO.N,+9V*%
X190940000Y-108140000D03*
%TO.P,MFR090,2*%
%TO.N,Net-(D2-Pad1)*%
X196020000Y-108150000D03*
%TD*%
%TA.AperFunction,ComponentPad*%
D10*
%TO.P,L7809,1*%
%TO.N,Net-(C6-Pad1)*%
G36*
X202067385Y-99753349D02*
G01*
X203599474Y-101038924D01*
X202374963Y-102498239D01*
X200842874Y-101212664D01*
X202067385Y-99753349D01*
G37*
%TD.AperFunction*%
%TO.P,L7809,2*%
%TO.N,GND*%
%TA.AperFunction,ComponentPad*%
G36*
G01*
X201164361Y-102311358D02*
X201237135Y-102372422D01*
G75*
G02*
X201354537Y-103714334I-612255J-729657D01*
G01*
X201354537Y-103714334D01*
G75*
G02*
X200012625Y-103831736I-729657J612255D01*
G01*
X199939851Y-103770672D01*
G75*
G02*
X199822449Y-102428760I612255J729657D01*
G01*
X199822449Y-102428760D01*
G75*
G02*
X201164361Y-102311358I729657J-612255D01*
G01*
G37*
%TD.AperFunction*%
%TO.P,L7809,3*%
%TO.N,Net-(D2-Pad1)*%
%TA.AperFunction,ComponentPad*%
G36*
G01*
X199531681Y-104257111D02*
X199604455Y-104318175D01*
G75*
G02*
X199721857Y-105660087I-612255J-729657D01*
G01*
X199721857Y-105660087D01*
G75*
G02*
X198379945Y-105777489I-729657J612255D01*
G01*
X198307171Y-105716425D01*
G75*
G02*
X198189769Y-104374513I612255J729657D01*
G01*
X198189769Y-104374513D01*
G75*
G02*
X199531681Y-104257111I729657J-612255D01*
G01*
G37*
%TD.AperFunction*%
%TD*%
D19*
%TO.N,GND*%
X145760000Y-99570000D03*
X150280000Y-104890000D03*
X180580000Y-111330000D03*
X186500000Y-108730000D03*
%TD*%
D20*
%TO.N,Net-(C1-Pad1)*%
X132210835Y-71845605D02*
X128588000Y-69510000D01*
X128588000Y-69510000D02*
X126302000Y-67732000D01*
X126302000Y-67732000D02*
X125540000Y-66716000D01*
X126302000Y-67732000D02*
X125572987Y-70881161D01*
D21*
%TO.N,GND*%
X207140908Y-78291362D02*
X208749979Y-87416861D01*
X200588449Y-82570093D02*
X197432702Y-89493259D01*
X207140908Y-78291362D02*
X200588449Y-82570093D01*
X210425312Y-74032232D02*
X207140908Y-78291362D01*
X217598447Y-70888877D02*
X210425312Y-74032232D01*
X197432702Y-89493259D02*
X193620083Y-93020867D01*
X193620083Y-93020867D02*
X193642937Y-98134585D01*
X193642937Y-98134585D02*
X200588493Y-103071548D01*
X202800000Y-64140000D02*
X198300000Y-62720000D01*
X198300000Y-62720000D02*
X195760000Y-59620000D01*
X199270000Y-129760000D02*
X197470000Y-128730000D01*
X206340000Y-122670000D02*
X206850000Y-126740000D01*
X206850000Y-126740000D02*
X199270000Y-129760000D01*
X199270000Y-129760000D02*
X196390000Y-131060000D01*
X217598447Y-70888877D02*
X217157380Y-68387462D01*
X193642937Y-98134585D02*
X189120000Y-96040000D01*
D22*
X150280000Y-104890000D02*
X145760000Y-99570000D01*
X186500000Y-108730000D02*
X180580000Y-111330000D01*
D20*
%TO.N,Net-(C2-Pad1)*%
X145050000Y-112080000D02*
X144270000Y-114060000D01*
X147060000Y-112430000D02*
X145050000Y-112080000D01*
X145050000Y-112080000D02*
X144399114Y-110520000D01*
X139102966Y-115273692D02*
X144270000Y-114060000D01*
%TO.N,IN-A*%
X124624444Y-93148857D02*
X141010000Y-91840000D01*
%TO.N,Net-(C3-Pad1)*%
X113348000Y-91058000D02*
X117380000Y-95090000D01*
X113348000Y-83734000D02*
X113348000Y-91058000D01*
%TO.N,IN-AB*%
X134910000Y-96910000D02*
X130546058Y-96987639D01*
%TO.N,Net-(C4-Pad1)*%
X122492000Y-89576000D02*
X120714000Y-88814000D01*
X120714000Y-88814000D02*
X123160000Y-98290000D01*
X120714000Y-88814000D02*
X117070000Y-88030000D01*
%TO.N,Net-(C5-Pad1)*%
X119430000Y-116940000D02*
X118060000Y-110410000D01*
%TO.N,IN-B*%
X140990000Y-99280000D02*
X122880907Y-104664667D01*
D22*
%TO.N,Net-(C6-Pad1)*%
X213056304Y-83194561D02*
X210863069Y-91948399D01*
X205553292Y-92356634D02*
X203194645Y-89730552D01*
X210863069Y-91948399D02*
X205553292Y-92356634D01*
X205553292Y-92356634D02*
X203576346Y-93795085D01*
X203576346Y-93795085D02*
X200219198Y-96830865D01*
X200219198Y-96830865D02*
X202221174Y-101125794D01*
X204790649Y-98685213D02*
X202221174Y-101125794D01*
D21*
%TO.N,+9V*%
X198610000Y-70110000D02*
X197600000Y-74410000D01*
X198610000Y-70110000D02*
X192894044Y-67373099D01*
D22*
X198600000Y-121940000D02*
X202804466Y-126205534D01*
X198600000Y-121940000D02*
X193404044Y-123076901D01*
D21*
X203088681Y-68698681D02*
X198610000Y-70110000D01*
X206335534Y-67675534D02*
X203088681Y-68698681D01*
X203088681Y-68698681D02*
X203608042Y-73072741D01*
D22*
X203336065Y-119520351D02*
X198600000Y-121940000D01*
D21*
X197870000Y-114080000D02*
X193160000Y-112990000D01*
X203336065Y-119520351D02*
X197870000Y-114080000D01*
D22*
X190940000Y-108140000D02*
X188744896Y-103971844D01*
X188744896Y-103971844D02*
X184299093Y-101785333D01*
D20*
%TO.N,Net-(C13-Pad2)*%
X144844000Y-61382000D02*
X143410702Y-65857869D01*
X146642000Y-62856000D02*
X144844000Y-61382000D01*
X144844000Y-61382000D02*
X147101004Y-59506127D01*
X149857807Y-65397542D02*
X146642000Y-62856000D01*
%TO.N,Net-(C9-Pad2)*%
X142337252Y-68159891D02*
X146642000Y-66356000D01*
X162624000Y-67986000D02*
X164207415Y-66222463D01*
X153480000Y-65700000D02*
X162624000Y-67986000D01*
X146642000Y-66356000D02*
X149416000Y-67478000D01*
X149416000Y-67478000D02*
X153480000Y-65700000D01*
%TO.N,Net-(C10-Pad2)*%
X135417252Y-125400109D02*
X132037679Y-126942212D01*
%TO.N,Net-(C10-Pad1)*%
X136360000Y-129170000D02*
X136490702Y-127702131D01*
X136360000Y-129170000D02*
X138389542Y-131333807D01*
X133787679Y-129973301D02*
X136360000Y-129170000D01*
X126835539Y-127449114D02*
X121300000Y-127449114D01*
X133787679Y-129973301D02*
X126835539Y-127449114D01*
%TO.N,Net-(C11-Pad1)*%
X137520000Y-133400000D02*
X144827679Y-130043301D01*
X125720000Y-129710000D02*
X137520000Y-133400000D01*
X144827679Y-130043301D02*
X143396768Y-124481780D01*
%TO.N,Net-(C11-Pad2)*%
X145110000Y-122820000D02*
X146577679Y-127012212D01*
X142323317Y-122179758D02*
X145110000Y-122820000D01*
X155580000Y-131790000D02*
X146577679Y-127012212D01*
X164148068Y-124059475D02*
X165168609Y-125751391D01*
X165168609Y-125751391D02*
X155580000Y-131790000D01*
%TO.N,Net-(C12-Pad2)*%
X131128000Y-64850418D02*
X135431187Y-64939540D01*
X121930938Y-66805998D02*
X126302000Y-64430000D01*
X126302000Y-64430000D02*
X131128000Y-64850418D01*
X121222000Y-71542000D02*
X121930938Y-66805998D01*
X117158000Y-79924000D02*
X121222000Y-71542000D01*
X122238000Y-87544000D02*
X117158000Y-79924000D01*
X158052000Y-73574000D02*
X151702000Y-70272000D01*
X138748000Y-88814000D02*
X122238000Y-87544000D01*
X159836763Y-72464402D02*
X158052000Y-73574000D01*
X151702000Y-70272000D02*
X143828000Y-77638000D01*
X143828000Y-77638000D02*
X138748000Y-88814000D01*
%TO.N,Net-(C12-Pad1)*%
X131636000Y-62906000D02*
X136504637Y-62637518D01*
X119681182Y-64124842D02*
X125794000Y-62652000D01*
X125794000Y-62652000D02*
X131636000Y-62906000D01*
X119444000Y-71034000D02*
X119681182Y-64124842D01*
%TO.N,OUT-A*%
X168350000Y-89030000D02*
X151920000Y-90970000D01*
%TO.N,OUT-B*%
X161790000Y-99020000D02*
X152219973Y-98458279D01*
%TO.N,OUT-AB*%
X173340000Y-95180000D02*
X162446768Y-94359337D01*
D22*
%TO.N,Net-(D2-Pad1)*%
X204113030Y-106014227D02*
X212294889Y-100008415D01*
X204113030Y-106014227D02*
X217300611Y-100642620D01*
X198955811Y-105017304D02*
X196020000Y-108150000D01*
X204113030Y-106014227D02*
X198955811Y-105017304D01*
D20*
%TO.N,Net-(Q1-Pad2)*%
X195060000Y-74410000D02*
X194250000Y-70850000D01*
X198223706Y-78426294D02*
X195060000Y-74410000D01*
X198710000Y-78910000D02*
X198223706Y-78426294D01*
%TO.N,Net-(Q1-Pad3)*%
X192520000Y-74410000D02*
X190592022Y-68446550D01*
X190592022Y-68446550D02*
X190708996Y-63384127D01*
%TO.N,Net-(Q2-Pad3)*%
X191102022Y-122003450D02*
X191013099Y-117594044D01*
X191102022Y-122003450D02*
X190309542Y-126123807D01*
%TO.N,Net-(Q2-Pad2)*%
X195020000Y-119370000D02*
X192086550Y-115292022D01*
X196430000Y-116300000D02*
X195020000Y-119370000D01*
%TO.N,Net-(Q3-Pad1)*%
X183954355Y-76816201D02*
X181928000Y-73828000D01*
X181928000Y-73828000D02*
X184900000Y-71640000D01*
X181928000Y-73828000D02*
X176661004Y-79465873D01*
%TO.N,Net-(Q3-Pad3)*%
X188290000Y-69520000D02*
X186771292Y-64703768D01*
X186771292Y-64703768D02*
X181634639Y-67748494D01*
%TO.N,Net-(Q3-Pad2)*%
X183267319Y-69694247D02*
X178920000Y-71430000D01*
X172784000Y-69002000D02*
X171416127Y-65925004D01*
X178920000Y-71430000D02*
X172784000Y-69002000D01*
%TO.N,Net-(Q4-Pad2)*%
X179000495Y-117302300D02*
X178090000Y-114570000D01*
X184242681Y-118794247D02*
X179000495Y-117302300D01*
%TO.N,Net-(Q4-Pad3)*%
X188800000Y-120930000D02*
X187261292Y-124896232D01*
X188800000Y-120930000D02*
X185875361Y-116848494D01*
%TO.N,Net-(Q4-Pad1)*%
X175283807Y-114140458D02*
X173729114Y-111600000D01*
X176530000Y-117910000D02*
X175283807Y-114140458D01*
X182610000Y-120740000D02*
X176530000Y-117910000D01*
%TO.N,Net-(Q7-Pad2)*%
X184690646Y-63246884D02*
X180728042Y-64967259D01*
X180728042Y-64967259D02*
X178548042Y-66527259D01*
%TO.N,Net-(Q7-Pad1)*%
X182610000Y-61790000D02*
X188140000Y-59620000D01*
%TO.N,Net-(Q8-Pad2)*%
X185180646Y-126353116D02*
X181192201Y-123539645D01*
X181192201Y-123539645D02*
X179026193Y-122639542D01*
%TO.N,Net-(Q8-Pad1)*%
X188885765Y-129736801D02*
X183100000Y-127810000D01*
%TO.N,Net-(R11-Pad2)*%
X130874000Y-80432000D02*
X127777935Y-80005649D01*
X138043450Y-77367978D02*
X136208000Y-76622000D01*
X136208000Y-76622000D02*
X130874000Y-80432000D01*
X122746000Y-80178000D02*
X122050193Y-78194458D01*
X127777935Y-80005649D02*
X122746000Y-80178000D01*
X122492000Y-81956000D02*
X122746000Y-80178000D01*
X122746000Y-80178000D02*
X119947114Y-79924000D01*
%TO.N,Net-(R10-Pad2)*%
X126690000Y-116390000D02*
X126790355Y-118912201D01*
X131123450Y-116192022D02*
X126690000Y-116390000D01*
X126690000Y-116390000D02*
X124969348Y-115121939D01*
X126790355Y-118912201D02*
X125720000Y-122090000D01*
X124969348Y-115121939D02*
X112699348Y-94271939D01*
%TO.N,Net-(R11-Pad1)*%
X137224000Y-81956000D02*
X136970000Y-79670000D01*
X134684000Y-83226000D02*
X137224000Y-81956000D01*
X137224000Y-81956000D02*
X138863765Y-82156801D01*
%TO.N,Net-(R12-Pad1)*%
X139130000Y-108160000D02*
X146118886Y-106138000D01*
X130050000Y-113890000D02*
X132190000Y-110360000D01*
X132190000Y-110360000D02*
X139130000Y-108160000D01*
X132190000Y-110360000D02*
X129340000Y-108880000D01*
%TO.N,Net-(R14-Pad1)*%
X165418000Y-84750000D02*
X146368000Y-83480000D01*
X170400883Y-82366883D02*
X165418000Y-84750000D01*
X171960000Y-77950000D02*
X170400883Y-82366883D01*
X168368708Y-69136232D02*
X168368708Y-74238708D01*
X168368708Y-74238708D02*
X171960000Y-77950000D01*
%TO.N,Net-(R15-Pad1)*%
X158650000Y-111370000D02*
X162480000Y-111570000D01*
X163938708Y-114903768D02*
X158650000Y-111370000D01*
X158650000Y-111370000D02*
X152718000Y-109948000D01*
%TO.N,Net-(R17-Pad2)*%
X166288061Y-67679348D02*
X168278193Y-64986458D01*
%TO.N,Net-(R19-Pad2)*%
X161858061Y-116360652D02*
X158710000Y-113479114D01*
%TO.N,Net-(R20-Pad1)*%
X121222000Y-61382000D02*
X112795534Y-64144466D01*
X139510000Y-58842000D02*
X130874000Y-61382000D01*
X130874000Y-61382000D02*
X121222000Y-61382000D01*
%TO.N,Net-(R21-Pad1)*%
X117490000Y-120850000D02*
X109260000Y-122680000D01*
%TO.N,Net-(R22-Pad1)*%
X176594000Y-74844000D02*
X172530000Y-72050000D01*
%TO.N,Net-(R23-Pad1)*%
X168100000Y-111990000D02*
X167130000Y-107790000D01*
%TO.N,Net-(R24-Pad1)*%
X156020000Y-78146000D02*
X152464000Y-72558000D01*
X154750000Y-80178000D02*
X156020000Y-78146000D01*
X160592000Y-77384000D02*
X163998055Y-75378170D01*
X156020000Y-78146000D02*
X160592000Y-77384000D01*
%TO.N,Net-(R25-Pad1)*%
X171010000Y-122350000D02*
X168309360Y-121145707D01*
X156040000Y-133880000D02*
X145550000Y-133940000D01*
X171010000Y-122350000D02*
X169570000Y-126020000D01*
X169570000Y-126020000D02*
X156040000Y-133880000D01*
%TO.N,Net-(R26-Pad2)*%
X159904347Y-75352000D02*
X161917409Y-73921286D01*
X157007004Y-76270127D02*
X159904347Y-75352000D01*
%TO.N,Net-(R27-Pad2)*%
X168414127Y-124258996D02*
X166228714Y-122602591D01*
%TO.N,Net-(R30-Pad1)*%
X168159348Y-78291939D02*
X169070000Y-80130000D01*
%TO.N,Net-(R31-Pad1)*%
X170780000Y-115680000D02*
X172470652Y-118231939D01*
X177890000Y-106980000D02*
X172707872Y-110217872D01*
X172707872Y-110217872D02*
X170780000Y-115680000D01*
%TO.N,Net-(R32-Pad2)*%
X201156065Y-67629649D02*
X204567767Y-65907767D01*
%TO.N,Net-(R33-Pad2)*%
X201926065Y-122590351D02*
X204572233Y-124437767D01*
%TO.N,N1*%
X169900000Y-62350000D02*
X161740000Y-59850000D01*
X174021958Y-65592741D02*
X169900000Y-62350000D01*
%TO.N,N3*%
X164940000Y-130730000D02*
X162750000Y-133920000D01*
X173719348Y-120811939D02*
X171003314Y-126723314D01*
X171003314Y-126723314D02*
X164940000Y-130730000D01*
%TO.N,N2*%
X175830000Y-59130000D02*
X174320000Y-55420000D01*
%TO.N,N4*%
X179220000Y-130900000D02*
X173890000Y-133050000D01*
%TO.N,Net-(RV1-Pad2)*%
X136970000Y-74082000D02*
X139116901Y-75065956D01*
X111316000Y-61382000D02*
X119698000Y-58164666D01*
X111027767Y-65912233D02*
X111316000Y-61382000D01*
X119698000Y-58164666D02*
X138771902Y-56302000D01*
X138771902Y-56302000D02*
X143574000Y-60112000D01*
X143574000Y-60112000D02*
X136970000Y-74082000D01*
%TO.N,Net-(RV2-Pad2)*%
X126180000Y-124090000D02*
X132196901Y-118494044D01*
X111027767Y-124447767D02*
X126180000Y-124090000D01*
D22*
%TO.N,Net-(D1-Pad2)*%
X218039517Y-73390286D02*
X212392175Y-75603556D01*
%TO.N,Net-(D2-Pad2)*%
X216636484Y-93051615D02*
X218480581Y-75891697D01*
%TD*%
M02*
