%TF.GenerationSoftware,KiCad,Pcbnew,(5.1.7)-1*%
%TF.CreationDate,2021-03-24T00:49:07-05:00*%
%TF.ProjectId,duber,64756265-722e-46b6-9963-61645f706362,rev?*%
%TF.SameCoordinates,Original*%
%TF.FileFunction,Soldermask,Bot*%
%TF.FilePolarity,Negative*%
%FSLAX46Y46*%
G04 Gerber Fmt 4.6, Leading zero omitted, Abs format (unit mm)*
G04 Created by KiCad (PCBNEW (5.1.7)-1) date 2021-03-24 00:49:07*
%MOMM*%
%LPD*%
G01*
G04 APERTURE LIST*
%ADD10C,3.300000*%
%ADD11C,3.340000*%
%ADD12C,1.900000*%
%ADD13C,1.600000*%
%ADD14C,1.500000*%
%ADD15O,1.500000X1.500000*%
%ADD16C,2.100000*%
%ADD17C,1.700000*%
G04 APERTURE END LIST*
D10*
%TO.C,REF\u002A\u002A*%
X218890000Y-136050000D03*
%TD*%
%TO.C,REF\u002A\u002A*%
X97710000Y-136050000D03*
%TD*%
%TO.C,REF\u002A\u002A*%
X97710000Y-53800000D03*
%TD*%
%TO.C,REF\u002A\u002A*%
X218890000Y-53800000D03*
%TD*%
%TO.C,D3*%
G36*
G01*
X194442808Y-93495865D02*
X194442808Y-93495865D01*
G75*
G02*
X193145084Y-93843589I-822724J475000D01*
G01*
X193145084Y-93843589D01*
G75*
G02*
X192797360Y-92545865I475000J822724D01*
G01*
X192797360Y-92545865D01*
G75*
G02*
X194095084Y-92198141I822724J-475000D01*
G01*
X194095084Y-92198141D01*
G75*
G02*
X194442808Y-93495865I-475000J-822724D01*
G01*
G37*
G36*
G01*
X201491922Y-96526442D02*
X200591922Y-98085288D01*
G75*
G02*
X200523621Y-98103589I-43301J25000D01*
G01*
X198964775Y-97203589D01*
G75*
G02*
X198946474Y-97135288I25000J43301D01*
G01*
X199846474Y-95576442D01*
G75*
G02*
X199914775Y-95558141I43301J-25000D01*
G01*
X201473621Y-96458141D01*
G75*
G02*
X201491922Y-96526442I-25000J-43301D01*
G01*
G37*
%TD*%
%TO.C,D5*%
G36*
G01*
X188823688Y-105278095D02*
X187444808Y-104121077D01*
G75*
G02*
X187438645Y-104050636I32139J38302D01*
G01*
X188595663Y-102671756D01*
G75*
G02*
X188666104Y-102665593I38302J-32139D01*
G01*
X190044984Y-103822611D01*
G75*
G02*
X190051147Y-103893052I-32139J-38302D01*
G01*
X188894129Y-105271932D01*
G75*
G02*
X188823688Y-105278095I-38302J32139D01*
G01*
G37*
G36*
G01*
X193032290Y-98862327D02*
X193032290Y-98862327D01*
G75*
G02*
X192915196Y-97523937I610648J727742D01*
G01*
X192915196Y-97523937D01*
G75*
G02*
X194253586Y-97406843I727742J-610648D01*
G01*
X194253586Y-97406843D01*
G75*
G02*
X194370680Y-98745233I-610648J-727742D01*
G01*
X194370680Y-98745233D01*
G75*
G02*
X193032290Y-98862327I-727742J610648D01*
G01*
G37*
%TD*%
%TO.C,1N4001*%
G36*
G01*
X214035677Y-84062506D02*
X212242527Y-84219386D01*
G75*
G02*
X212188359Y-84173934I-4358J49810D01*
G01*
X212031479Y-82380784D01*
G75*
G02*
X212076931Y-82326616I49810J4358D01*
G01*
X213870081Y-82169736D01*
G75*
G02*
X213924249Y-82215188I4358J-49810D01*
G01*
X214081129Y-84008338D01*
G75*
G02*
X214035677Y-84062506I-49810J-4358D01*
G01*
G37*
G36*
G01*
X212474975Y-76549942D02*
X212474975Y-76549942D01*
G75*
G02*
X211445792Y-75686355I-82798J946385D01*
G01*
X211445792Y-75686355D01*
G75*
G02*
X212309379Y-74657172I946385J82798D01*
G01*
X212309379Y-74657172D01*
G75*
G02*
X213338562Y-75520759I82798J-946385D01*
G01*
X213338562Y-75520759D01*
G75*
G02*
X212474975Y-76549942I-946385J-82798D01*
G01*
G37*
%TD*%
%TO.C,1N914*%
G36*
G01*
X216719282Y-93998001D02*
X216719282Y-93998001D01*
G75*
G02*
X215690099Y-93134414I-82798J946385D01*
G01*
X215690099Y-93134414D01*
G75*
G02*
X216553686Y-92105231I946385J82798D01*
G01*
X216553686Y-92105231D01*
G75*
G02*
X217582869Y-92968818I82798J-946385D01*
G01*
X217582869Y-92968818D01*
G75*
G02*
X216719282Y-93998001I-946385J-82798D01*
G01*
G37*
G36*
G01*
X218279984Y-101510565D02*
X216486834Y-101667445D01*
G75*
G02*
X216432666Y-101621993I-4358J49810D01*
G01*
X216275786Y-99828843D01*
G75*
G02*
X216321238Y-99774675I49810J4358D01*
G01*
X218114388Y-99617795D01*
G75*
G02*
X218168556Y-99663247I4358J-49810D01*
G01*
X218325436Y-101456397D01*
G75*
G02*
X218279984Y-101510565I-49810J-4358D01*
G01*
G37*
%TD*%
%TO.C,1N4001*%
G36*
G01*
X203698799Y-99406575D02*
X204011365Y-97633921D01*
G75*
G02*
X204069287Y-97593363I49240J-8682D01*
G01*
X205841941Y-97905929D01*
G75*
G02*
X205882499Y-97963851I-8682J-49240D01*
G01*
X205569933Y-99736505D01*
G75*
G02*
X205512011Y-99777063I-49240J8682D01*
G01*
X203739357Y-99464497D01*
G75*
G02*
X203698799Y-99406575I8682J49240D01*
G01*
G37*
G36*
G01*
X211359317Y-99843446D02*
X211359317Y-99843446D01*
G75*
G02*
X212459850Y-99072845I935567J-164966D01*
G01*
X212459850Y-99072845D01*
G75*
G02*
X213230451Y-100173378I-164966J-935567D01*
G01*
X213230451Y-100173378D01*
G75*
G02*
X212129918Y-100943979I-935567J164966D01*
G01*
X212129918Y-100943979D01*
G75*
G02*
X211359317Y-99843446I164966J935567D01*
G01*
G37*
%TD*%
D11*
%TO.C,FREQ.*%
X206476955Y-57210354D03*
X213265180Y-63998579D03*
D12*
X206335534Y-67675534D03*
X204567767Y-65907767D03*
G36*
G01*
X204108147Y-64175355D02*
X202835355Y-65448147D01*
G75*
G02*
X202764645Y-65448147I-35355J35355D01*
G01*
X201491853Y-64175355D01*
G75*
G02*
X201491853Y-64104645I35355J35355D01*
G01*
X202764645Y-62831853D01*
G75*
G02*
X202835355Y-62831853I35355J-35355D01*
G01*
X204108147Y-64104645D01*
G75*
G02*
X204108147Y-64175355I-35355J-35355D01*
G01*
G37*
%TD*%
%TO.C,FREQ.*%
G36*
G01*
X206304645Y-123978147D02*
X205031853Y-122705355D01*
G75*
G02*
X205031853Y-122634645I35355J35355D01*
G01*
X206304645Y-121361853D01*
G75*
G02*
X206375355Y-121361853I35355J-35355D01*
G01*
X207648147Y-122634645D01*
G75*
G02*
X207648147Y-122705355I-35355J-35355D01*
G01*
X206375355Y-123978147D01*
G75*
G02*
X206304645Y-123978147I-35355J35355D01*
G01*
G37*
X204572233Y-124437767D03*
X202804466Y-126205534D03*
D11*
X206481421Y-133135180D03*
X213269646Y-126346955D03*
%TD*%
%TO.C,RES.*%
X109118579Y-133145180D03*
X102330354Y-126356955D03*
D12*
X109260000Y-122680000D03*
X111027767Y-124447767D03*
G36*
G01*
X111487387Y-126180179D02*
X112760179Y-124907387D01*
G75*
G02*
X112830889Y-124907387I35355J-35355D01*
G01*
X114103681Y-126180179D01*
G75*
G02*
X114103681Y-126250889I-35355J-35355D01*
G01*
X112830889Y-127523681D01*
G75*
G02*
X112760179Y-127523681I-35355J35355D01*
G01*
X111487387Y-126250889D01*
G75*
G02*
X111487387Y-126180179I35355J35355D01*
G01*
G37*
%TD*%
%TO.C,RES.*%
G36*
G01*
X109295355Y-66371853D02*
X110568147Y-67644645D01*
G75*
G02*
X110568147Y-67715355I-35355J-35355D01*
G01*
X109295355Y-68988147D01*
G75*
G02*
X109224645Y-68988147I-35355J35355D01*
G01*
X107951853Y-67715355D01*
G75*
G02*
X107951853Y-67644645I35355J35355D01*
G01*
X109224645Y-66371853D01*
G75*
G02*
X109295355Y-66371853I35355J-35355D01*
G01*
G37*
X111027767Y-65912233D03*
X112795534Y-64144466D03*
D11*
X109118579Y-57214820D03*
X102330354Y-64003045D03*
%TD*%
%TO.C,J1*%
G36*
G01*
X216418654Y-69380832D02*
X216123452Y-67706658D01*
G75*
G02*
X216164010Y-67648736I49240J8682D01*
G01*
X217838184Y-67353534D01*
G75*
G02*
X217896106Y-67394092I8682J-49240D01*
G01*
X218191308Y-69068266D01*
G75*
G02*
X218150750Y-69126188I-49240J-8682D01*
G01*
X216476576Y-69421390D01*
G75*
G02*
X216418654Y-69380832I-8682J49240D01*
G01*
G37*
G36*
G01*
X216859720Y-71882244D02*
X216564518Y-70208070D01*
G75*
G02*
X216605076Y-70150148I49240J8682D01*
G01*
X218279250Y-69854946D01*
G75*
G02*
X218337172Y-69895504I8682J-49240D01*
G01*
X218632374Y-71569678D01*
G75*
G02*
X218591816Y-71627600I-49240J-8682D01*
G01*
X216917642Y-71922802D01*
G75*
G02*
X216859720Y-71882244I-8682J49240D01*
G01*
G37*
G36*
G01*
X217153186Y-73546568D02*
X217153186Y-73546568D01*
G75*
G02*
X217883230Y-72503958I886327J156283D01*
G01*
X217883230Y-72503958D01*
G75*
G02*
X218925840Y-73234002I156283J-886327D01*
G01*
X218925840Y-73234002D01*
G75*
G02*
X218195796Y-74276612I-886327J-156283D01*
G01*
X218195796Y-74276612D01*
G75*
G02*
X217153186Y-73546568I-156283J886327D01*
G01*
G37*
G36*
G01*
X217672394Y-76491144D02*
X217516111Y-75604817D01*
G75*
G02*
X217881132Y-75083512I443163J78142D01*
G01*
X218767459Y-74927229D01*
G75*
G02*
X219288764Y-75292250I78142J-443163D01*
G01*
X219445047Y-76178577D01*
G75*
G02*
X219080026Y-76699882I-443163J-78142D01*
G01*
X218193699Y-76856165D01*
G75*
G02*
X217672394Y-76491144I-78142J443163D01*
G01*
G37*
%TD*%
%TO.C,U2*%
G36*
G01*
X136185703Y-111028875D02*
X136185703Y-111028875D01*
G75*
G02*
X136596839Y-109899287I770362J359226D01*
G01*
X136596839Y-109899287D01*
G75*
G02*
X137726427Y-110310423I359226J-770362D01*
G01*
X137726427Y-110310423D01*
G75*
G02*
X137315291Y-111440011I-770362J-359226D01*
G01*
X137315291Y-111440011D01*
G75*
G02*
X136185703Y-111028875I-359226J770362D01*
G01*
G37*
G36*
G01*
X135720340Y-128061357D02*
X135720340Y-128061357D01*
G75*
G02*
X136131476Y-126931769I770362J359226D01*
G01*
X136131476Y-126931769D01*
G75*
G02*
X137261064Y-127342905I359226J-770362D01*
G01*
X137261064Y-127342905D01*
G75*
G02*
X136849928Y-128472493I-770362J-359226D01*
G01*
X136849928Y-128472493D01*
G75*
G02*
X135720340Y-128061357I-359226J770362D01*
G01*
G37*
G36*
G01*
X137259154Y-113330897D02*
X137259154Y-113330897D01*
G75*
G02*
X137670290Y-112201309I770362J359226D01*
G01*
X137670290Y-112201309D01*
G75*
G02*
X138799878Y-112612445I359226J-770362D01*
G01*
X138799878Y-112612445D01*
G75*
G02*
X138388742Y-113742033I-770362J-359226D01*
G01*
X138388742Y-113742033D01*
G75*
G02*
X137259154Y-113330897I-359226J770362D01*
G01*
G37*
G36*
G01*
X134646890Y-125759335D02*
X134646890Y-125759335D01*
G75*
G02*
X135058026Y-124629747I770362J359226D01*
G01*
X135058026Y-124629747D01*
G75*
G02*
X136187614Y-125040883I359226J-770362D01*
G01*
X136187614Y-125040883D01*
G75*
G02*
X135776478Y-126170471I-770362J-359226D01*
G01*
X135776478Y-126170471D01*
G75*
G02*
X134646890Y-125759335I-359226J770362D01*
G01*
G37*
G36*
G01*
X138332604Y-115632918D02*
X138332604Y-115632918D01*
G75*
G02*
X138743740Y-114503330I770362J359226D01*
G01*
X138743740Y-114503330D01*
G75*
G02*
X139873328Y-114914466I359226J-770362D01*
G01*
X139873328Y-114914466D01*
G75*
G02*
X139462192Y-116044054I-770362J-359226D01*
G01*
X139462192Y-116044054D01*
G75*
G02*
X138332604Y-115632918I-359226J770362D01*
G01*
G37*
G36*
G01*
X133573440Y-123457313D02*
X133573440Y-123457313D01*
G75*
G02*
X133984576Y-122327725I770362J359226D01*
G01*
X133984576Y-122327725D01*
G75*
G02*
X135114164Y-122738861I359226J-770362D01*
G01*
X135114164Y-122738861D01*
G75*
G02*
X134703028Y-123868449I-770362J-359226D01*
G01*
X134703028Y-123868449D01*
G75*
G02*
X133573440Y-123457313I-359226J770362D01*
G01*
G37*
G36*
G01*
X139406054Y-117934940D02*
X139406054Y-117934940D01*
G75*
G02*
X139817190Y-116805352I770362J359226D01*
G01*
X139817190Y-116805352D01*
G75*
G02*
X140946778Y-117216488I359226J-770362D01*
G01*
X140946778Y-117216488D01*
G75*
G02*
X140535642Y-118346076I-770362J-359226D01*
G01*
X140535642Y-118346076D01*
G75*
G02*
X139406054Y-117934940I-359226J770362D01*
G01*
G37*
G36*
G01*
X132499989Y-121155291D02*
X132499989Y-121155291D01*
G75*
G02*
X132911125Y-120025703I770362J359226D01*
G01*
X132911125Y-120025703D01*
G75*
G02*
X134040713Y-120436839I359226J-770362D01*
G01*
X134040713Y-120436839D01*
G75*
G02*
X133629577Y-121566427I-770362J-359226D01*
G01*
X133629577Y-121566427D01*
G75*
G02*
X132499989Y-121155291I-359226J770362D01*
G01*
G37*
G36*
G01*
X140479505Y-120236962D02*
X140479505Y-120236962D01*
G75*
G02*
X140890641Y-119107374I770362J359226D01*
G01*
X140890641Y-119107374D01*
G75*
G02*
X142020229Y-119518510I359226J-770362D01*
G01*
X142020229Y-119518510D01*
G75*
G02*
X141609093Y-120648098I-770362J-359226D01*
G01*
X141609093Y-120648098D01*
G75*
G02*
X140479505Y-120236962I-359226J770362D01*
G01*
G37*
G36*
G01*
X131426539Y-118853270D02*
X131426539Y-118853270D01*
G75*
G02*
X131837675Y-117723682I770362J359226D01*
G01*
X131837675Y-117723682D01*
G75*
G02*
X132967263Y-118134818I359226J-770362D01*
G01*
X132967263Y-118134818D01*
G75*
G02*
X132556127Y-119264406I-770362J-359226D01*
G01*
X132556127Y-119264406D01*
G75*
G02*
X131426539Y-118853270I-359226J770362D01*
G01*
G37*
G36*
G01*
X141552955Y-122538984D02*
X141552955Y-122538984D01*
G75*
G02*
X141964091Y-121409396I770362J359226D01*
G01*
X141964091Y-121409396D01*
G75*
G02*
X143093679Y-121820532I359226J-770362D01*
G01*
X143093679Y-121820532D01*
G75*
G02*
X142682543Y-122950120I-770362J-359226D01*
G01*
X142682543Y-122950120D01*
G75*
G02*
X141552955Y-122538984I-359226J770362D01*
G01*
G37*
G36*
G01*
X130353088Y-116551248D02*
X130353088Y-116551248D01*
G75*
G02*
X130764224Y-115421660I770362J359226D01*
G01*
X130764224Y-115421660D01*
G75*
G02*
X131893812Y-115832796I359226J-770362D01*
G01*
X131893812Y-115832796D01*
G75*
G02*
X131482676Y-116962384I-770362J-359226D01*
G01*
X131482676Y-116962384D01*
G75*
G02*
X130353088Y-116551248I-359226J770362D01*
G01*
G37*
G36*
G01*
X142626406Y-124841006D02*
X142626406Y-124841006D01*
G75*
G02*
X143037542Y-123711418I770362J359226D01*
G01*
X143037542Y-123711418D01*
G75*
G02*
X144167130Y-124122554I359226J-770362D01*
G01*
X144167130Y-124122554D01*
G75*
G02*
X143755994Y-125252142I-770362J-359226D01*
G01*
X143755994Y-125252142D01*
G75*
G02*
X142626406Y-124841006I-359226J770362D01*
G01*
G37*
G36*
G01*
X129617733Y-114974272D02*
X128941544Y-113524179D01*
G75*
G02*
X128965728Y-113457733I45315J21131D01*
G01*
X130415821Y-112781544D01*
G75*
G02*
X130482267Y-112805728I21131J-45315D01*
G01*
X131158456Y-114255821D01*
G75*
G02*
X131134272Y-114322267I-45315J-21131D01*
G01*
X129684179Y-114998456D01*
G75*
G02*
X129617733Y-114974272I-21131J45315D01*
G01*
G37*
%TD*%
%TO.C,U1*%
G36*
G01*
X138078456Y-79304179D02*
X137402267Y-80754272D01*
G75*
G02*
X137335821Y-80778456I-45315J21131D01*
G01*
X135885728Y-80102267D01*
G75*
G02*
X135861544Y-80035821I21131J45315D01*
G01*
X136537733Y-78585728D01*
G75*
G02*
X136604179Y-78561544I45315J-21131D01*
G01*
X138054272Y-79237733D01*
G75*
G02*
X138078456Y-79304179I-21131J-45315D01*
G01*
G37*
G36*
G01*
X137274999Y-62996744D02*
X137274999Y-62996744D01*
G75*
G02*
X136145411Y-63407880I-770362J359226D01*
G01*
X136145411Y-63407880D01*
G75*
G02*
X135734275Y-62278292I359226J770362D01*
G01*
X135734275Y-62278292D01*
G75*
G02*
X136863863Y-61867156I770362J-359226D01*
G01*
X136863863Y-61867156D01*
G75*
G02*
X137274999Y-62996744I-359226J-770362D01*
G01*
G37*
G36*
G01*
X138813812Y-77727204D02*
X138813812Y-77727204D01*
G75*
G02*
X137684224Y-78138340I-770362J359226D01*
G01*
X137684224Y-78138340D01*
G75*
G02*
X137273088Y-77008752I359226J770362D01*
G01*
X137273088Y-77008752D01*
G75*
G02*
X138402676Y-76597616I770362J-359226D01*
G01*
X138402676Y-76597616D01*
G75*
G02*
X138813812Y-77727204I-359226J-770362D01*
G01*
G37*
G36*
G01*
X136201549Y-65298766D02*
X136201549Y-65298766D01*
G75*
G02*
X135071961Y-65709902I-770362J359226D01*
G01*
X135071961Y-65709902D01*
G75*
G02*
X134660825Y-64580314I359226J770362D01*
G01*
X134660825Y-64580314D01*
G75*
G02*
X135790413Y-64169178I770362J-359226D01*
G01*
X135790413Y-64169178D01*
G75*
G02*
X136201549Y-65298766I-359226J-770362D01*
G01*
G37*
G36*
G01*
X139887263Y-75425182D02*
X139887263Y-75425182D01*
G75*
G02*
X138757675Y-75836318I-770362J359226D01*
G01*
X138757675Y-75836318D01*
G75*
G02*
X138346539Y-74706730I359226J770362D01*
G01*
X138346539Y-74706730D01*
G75*
G02*
X139476127Y-74295594I770362J-359226D01*
G01*
X139476127Y-74295594D01*
G75*
G02*
X139887263Y-75425182I-359226J-770362D01*
G01*
G37*
G36*
G01*
X135128098Y-67600788D02*
X135128098Y-67600788D01*
G75*
G02*
X133998510Y-68011924I-770362J359226D01*
G01*
X133998510Y-68011924D01*
G75*
G02*
X133587374Y-66882336I359226J770362D01*
G01*
X133587374Y-66882336D01*
G75*
G02*
X134716962Y-66471200I770362J-359226D01*
G01*
X134716962Y-66471200D01*
G75*
G02*
X135128098Y-67600788I-359226J-770362D01*
G01*
G37*
G36*
G01*
X140960713Y-73123161D02*
X140960713Y-73123161D01*
G75*
G02*
X139831125Y-73534297I-770362J359226D01*
G01*
X139831125Y-73534297D01*
G75*
G02*
X139419989Y-72404709I359226J770362D01*
G01*
X139419989Y-72404709D01*
G75*
G02*
X140549577Y-71993573I770362J-359226D01*
G01*
X140549577Y-71993573D01*
G75*
G02*
X140960713Y-73123161I-359226J-770362D01*
G01*
G37*
G36*
G01*
X134054648Y-69902810D02*
X134054648Y-69902810D01*
G75*
G02*
X132925060Y-70313946I-770362J359226D01*
G01*
X132925060Y-70313946D01*
G75*
G02*
X132513924Y-69184358I359226J770362D01*
G01*
X132513924Y-69184358D01*
G75*
G02*
X133643512Y-68773222I770362J-359226D01*
G01*
X133643512Y-68773222D01*
G75*
G02*
X134054648Y-69902810I-359226J-770362D01*
G01*
G37*
G36*
G01*
X142034164Y-70821139D02*
X142034164Y-70821139D01*
G75*
G02*
X140904576Y-71232275I-770362J359226D01*
G01*
X140904576Y-71232275D01*
G75*
G02*
X140493440Y-70102687I359226J770362D01*
G01*
X140493440Y-70102687D01*
G75*
G02*
X141623028Y-69691551I770362J-359226D01*
G01*
X141623028Y-69691551D01*
G75*
G02*
X142034164Y-70821139I-359226J-770362D01*
G01*
G37*
G36*
G01*
X132981197Y-72204831D02*
X132981197Y-72204831D01*
G75*
G02*
X131851609Y-72615967I-770362J359226D01*
G01*
X131851609Y-72615967D01*
G75*
G02*
X131440473Y-71486379I359226J770362D01*
G01*
X131440473Y-71486379D01*
G75*
G02*
X132570061Y-71075243I770362J-359226D01*
G01*
X132570061Y-71075243D01*
G75*
G02*
X132981197Y-72204831I-359226J-770362D01*
G01*
G37*
G36*
G01*
X143107614Y-68519117D02*
X143107614Y-68519117D01*
G75*
G02*
X141978026Y-68930253I-770362J359226D01*
G01*
X141978026Y-68930253D01*
G75*
G02*
X141566890Y-67800665I359226J770362D01*
G01*
X141566890Y-67800665D01*
G75*
G02*
X142696478Y-67389529I770362J-359226D01*
G01*
X142696478Y-67389529D01*
G75*
G02*
X143107614Y-68519117I-359226J-770362D01*
G01*
G37*
G36*
G01*
X131907747Y-74506853D02*
X131907747Y-74506853D01*
G75*
G02*
X130778159Y-74917989I-770362J359226D01*
G01*
X130778159Y-74917989D01*
G75*
G02*
X130367023Y-73788401I359226J770362D01*
G01*
X130367023Y-73788401D01*
G75*
G02*
X131496611Y-73377265I770362J-359226D01*
G01*
X131496611Y-73377265D01*
G75*
G02*
X131907747Y-74506853I-359226J-770362D01*
G01*
G37*
G36*
G01*
X144181064Y-66217095D02*
X144181064Y-66217095D01*
G75*
G02*
X143051476Y-66628231I-770362J359226D01*
G01*
X143051476Y-66628231D01*
G75*
G02*
X142640340Y-65498643I359226J770362D01*
G01*
X142640340Y-65498643D01*
G75*
G02*
X143769928Y-65087507I770362J-359226D01*
G01*
X143769928Y-65087507D01*
G75*
G02*
X144181064Y-66217095I-359226J-770362D01*
G01*
G37*
G36*
G01*
X130834297Y-76808875D02*
X130834297Y-76808875D01*
G75*
G02*
X129704709Y-77220011I-770362J359226D01*
G01*
X129704709Y-77220011D01*
G75*
G02*
X129293573Y-76090423I359226J770362D01*
G01*
X129293573Y-76090423D01*
G75*
G02*
X130423161Y-75679287I770362J-359226D01*
G01*
X130423161Y-75679287D01*
G75*
G02*
X130834297Y-76808875I-359226J-770362D01*
G01*
G37*
%TD*%
%TO.C,U4*%
G36*
G01*
X171983112Y-117535660D02*
X171983112Y-117535660D01*
G75*
G02*
X173166931Y-117744399I487540J-696279D01*
G01*
X173166931Y-117744399D01*
G75*
G02*
X172958192Y-118928218I-696279J-487540D01*
G01*
X172958192Y-118928218D01*
G75*
G02*
X171774373Y-118719479I-487540J696279D01*
G01*
X171774373Y-118719479D01*
G75*
G02*
X171983112Y-117535660I696279J487540D01*
G01*
G37*
G36*
G01*
X153047937Y-121491910D02*
X153047937Y-121491910D01*
G75*
G02*
X154231756Y-121700649I487540J-696279D01*
G01*
X154231756Y-121700649D01*
G75*
G02*
X154023017Y-122884468I-696279J-487540D01*
G01*
X154023017Y-122884468D01*
G75*
G02*
X152839198Y-122675729I-487540J696279D01*
G01*
X152839198Y-122675729D01*
G75*
G02*
X153047937Y-121491910I696279J487540D01*
G01*
G37*
G36*
G01*
X169902466Y-118992544D02*
X169902466Y-118992544D01*
G75*
G02*
X171086285Y-119201283I487540J-696279D01*
G01*
X171086285Y-119201283D01*
G75*
G02*
X170877546Y-120385102I-696279J-487540D01*
G01*
X170877546Y-120385102D01*
G75*
G02*
X169693727Y-120176363I-487540J696279D01*
G01*
X169693727Y-120176363D01*
G75*
G02*
X169902466Y-118992544I696279J487540D01*
G01*
G37*
G36*
G01*
X155128583Y-120035026D02*
X155128583Y-120035026D01*
G75*
G02*
X156312402Y-120243765I487540J-696279D01*
G01*
X156312402Y-120243765D01*
G75*
G02*
X156103663Y-121427584I-696279J-487540D01*
G01*
X156103663Y-121427584D01*
G75*
G02*
X154919844Y-121218845I-487540J696279D01*
G01*
X154919844Y-121218845D01*
G75*
G02*
X155128583Y-120035026I696279J487540D01*
G01*
G37*
G36*
G01*
X167821820Y-120449428D02*
X167821820Y-120449428D01*
G75*
G02*
X169005639Y-120658167I487540J-696279D01*
G01*
X169005639Y-120658167D01*
G75*
G02*
X168796900Y-121841986I-696279J-487540D01*
G01*
X168796900Y-121841986D01*
G75*
G02*
X167613081Y-121633247I-487540J696279D01*
G01*
X167613081Y-121633247D01*
G75*
G02*
X167821820Y-120449428I696279J487540D01*
G01*
G37*
G36*
G01*
X157209229Y-118578142D02*
X157209229Y-118578142D01*
G75*
G02*
X158393048Y-118786881I487540J-696279D01*
G01*
X158393048Y-118786881D01*
G75*
G02*
X158184309Y-119970700I-696279J-487540D01*
G01*
X158184309Y-119970700D01*
G75*
G02*
X157000490Y-119761961I-487540J696279D01*
G01*
X157000490Y-119761961D01*
G75*
G02*
X157209229Y-118578142I696279J487540D01*
G01*
G37*
G36*
G01*
X165741174Y-121906312D02*
X165741174Y-121906312D01*
G75*
G02*
X166924993Y-122115051I487540J-696279D01*
G01*
X166924993Y-122115051D01*
G75*
G02*
X166716254Y-123298870I-696279J-487540D01*
G01*
X166716254Y-123298870D01*
G75*
G02*
X165532435Y-123090131I-487540J696279D01*
G01*
X165532435Y-123090131D01*
G75*
G02*
X165741174Y-121906312I696279J487540D01*
G01*
G37*
G36*
G01*
X159289875Y-117121258D02*
X159289875Y-117121258D01*
G75*
G02*
X160473694Y-117329997I487540J-696279D01*
G01*
X160473694Y-117329997D01*
G75*
G02*
X160264955Y-118513816I-696279J-487540D01*
G01*
X160264955Y-118513816D01*
G75*
G02*
X159081136Y-118305077I-487540J696279D01*
G01*
X159081136Y-118305077D01*
G75*
G02*
X159289875Y-117121258I696279J487540D01*
G01*
G37*
G36*
G01*
X163660528Y-123363196D02*
X163660528Y-123363196D01*
G75*
G02*
X164844347Y-123571935I487540J-696279D01*
G01*
X164844347Y-123571935D01*
G75*
G02*
X164635608Y-124755754I-696279J-487540D01*
G01*
X164635608Y-124755754D01*
G75*
G02*
X163451789Y-124547015I-487540J696279D01*
G01*
X163451789Y-124547015D01*
G75*
G02*
X163660528Y-123363196I696279J487540D01*
G01*
G37*
G36*
G01*
X161370521Y-115664373D02*
X161370521Y-115664373D01*
G75*
G02*
X162554340Y-115873112I487540J-696279D01*
G01*
X162554340Y-115873112D01*
G75*
G02*
X162345601Y-117056931I-696279J-487540D01*
G01*
X162345601Y-117056931D01*
G75*
G02*
X161161782Y-116848192I-487540J696279D01*
G01*
X161161782Y-116848192D01*
G75*
G02*
X161370521Y-115664373I696279J487540D01*
G01*
G37*
G36*
G01*
X161579881Y-124820080D02*
X161579881Y-124820080D01*
G75*
G02*
X162763700Y-125028819I487540J-696279D01*
G01*
X162763700Y-125028819D01*
G75*
G02*
X162554961Y-126212638I-696279J-487540D01*
G01*
X162554961Y-126212638D01*
G75*
G02*
X161371142Y-126003899I-487540J696279D01*
G01*
X161371142Y-126003899D01*
G75*
G02*
X161579881Y-124820080I696279J487540D01*
G01*
G37*
G36*
G01*
X163451168Y-114207489D02*
X163451168Y-114207489D01*
G75*
G02*
X164634987Y-114416228I487540J-696279D01*
G01*
X164634987Y-114416228D01*
G75*
G02*
X164426248Y-115600047I-696279J-487540D01*
G01*
X164426248Y-115600047D01*
G75*
G02*
X163242429Y-115391308I-487540J696279D01*
G01*
X163242429Y-115391308D01*
G75*
G02*
X163451168Y-114207489I696279J487540D01*
G01*
G37*
G36*
G01*
X159499235Y-126276964D02*
X159499235Y-126276964D01*
G75*
G02*
X160683054Y-126485703I487540J-696279D01*
G01*
X160683054Y-126485703D01*
G75*
G02*
X160474315Y-127669522I-696279J-487540D01*
G01*
X160474315Y-127669522D01*
G75*
G02*
X159290496Y-127460783I-487540J696279D01*
G01*
X159290496Y-127460783D01*
G75*
G02*
X159499235Y-126276964I696279J487540D01*
G01*
G37*
G36*
G01*
X165531814Y-112750605D02*
X165531814Y-112750605D01*
G75*
G02*
X166715633Y-112959344I487540J-696279D01*
G01*
X166715633Y-112959344D01*
G75*
G02*
X166506894Y-114143163I-696279J-487540D01*
G01*
X166506894Y-114143163D01*
G75*
G02*
X165323075Y-113934424I-487540J696279D01*
G01*
X165323075Y-113934424D01*
G75*
G02*
X165531814Y-112750605I696279J487540D01*
G01*
G37*
G36*
G01*
X157418589Y-127733849D02*
X157418589Y-127733849D01*
G75*
G02*
X158602408Y-127942588I487540J-696279D01*
G01*
X158602408Y-127942588D01*
G75*
G02*
X158393669Y-129126407I-696279J-487540D01*
G01*
X158393669Y-129126407D01*
G75*
G02*
X157209850Y-128917668I-487540J696279D01*
G01*
X157209850Y-128917668D01*
G75*
G02*
X157418589Y-127733849I696279J487540D01*
G01*
G37*
G36*
G01*
X166957138Y-111752582D02*
X168267781Y-110834859D01*
G75*
G02*
X168337418Y-110847138I28679J-40958D01*
G01*
X169255141Y-112157781D01*
G75*
G02*
X169242862Y-112227418I-40958J-28679D01*
G01*
X167932219Y-113145141D01*
G75*
G02*
X167862582Y-113132862I-28679J40958D01*
G01*
X166944859Y-111822219D01*
G75*
G02*
X166957138Y-111752582I40958J28679D01*
G01*
G37*
%TD*%
%TO.C,U3*%
G36*
G01*
X172362219Y-70894859D02*
X173672862Y-71812582D01*
G75*
G02*
X173685141Y-71882219I-28679J-40958D01*
G01*
X172767418Y-73192862D01*
G75*
G02*
X172697781Y-73205141I-40958J28679D01*
G01*
X171387138Y-72287418D01*
G75*
G02*
X171374859Y-72217781I28679J40958D01*
G01*
X172292582Y-70907138D01*
G75*
G02*
X172362219Y-70894859I40958J-28679D01*
G01*
G37*
G36*
G01*
X154082364Y-67397471D02*
X154082364Y-67397471D01*
G75*
G02*
X154291103Y-68581290I-487540J-696279D01*
G01*
X154291103Y-68581290D01*
G75*
G02*
X153107284Y-68790029I-696279J487540D01*
G01*
X153107284Y-68790029D01*
G75*
G02*
X152898545Y-67606210I487540J696279D01*
G01*
X152898545Y-67606210D01*
G75*
G02*
X154082364Y-67397471I696279J-487540D01*
G01*
G37*
G36*
G01*
X170936894Y-69896837D02*
X170936894Y-69896837D01*
G75*
G02*
X171145633Y-71080656I-487540J-696279D01*
G01*
X171145633Y-71080656D01*
G75*
G02*
X169961814Y-71289395I-696279J487540D01*
G01*
X169961814Y-71289395D01*
G75*
G02*
X169753075Y-70105576I487540J696279D01*
G01*
X169753075Y-70105576D01*
G75*
G02*
X170936894Y-69896837I696279J-487540D01*
G01*
G37*
G36*
G01*
X156163010Y-68854355D02*
X156163010Y-68854355D01*
G75*
G02*
X156371749Y-70038174I-487540J-696279D01*
G01*
X156371749Y-70038174D01*
G75*
G02*
X155187930Y-70246913I-696279J487540D01*
G01*
X155187930Y-70246913D01*
G75*
G02*
X154979191Y-69063094I487540J696279D01*
G01*
X154979191Y-69063094D01*
G75*
G02*
X156163010Y-68854355I696279J-487540D01*
G01*
G37*
G36*
G01*
X168856248Y-68439953D02*
X168856248Y-68439953D01*
G75*
G02*
X169064987Y-69623772I-487540J-696279D01*
G01*
X169064987Y-69623772D01*
G75*
G02*
X167881168Y-69832511I-696279J487540D01*
G01*
X167881168Y-69832511D01*
G75*
G02*
X167672429Y-68648692I487540J696279D01*
G01*
X167672429Y-68648692D01*
G75*
G02*
X168856248Y-68439953I696279J-487540D01*
G01*
G37*
G36*
G01*
X158243657Y-70311239D02*
X158243657Y-70311239D01*
G75*
G02*
X158452396Y-71495058I-487540J-696279D01*
G01*
X158452396Y-71495058D01*
G75*
G02*
X157268577Y-71703797I-696279J487540D01*
G01*
X157268577Y-71703797D01*
G75*
G02*
X157059838Y-70519978I487540J696279D01*
G01*
X157059838Y-70519978D01*
G75*
G02*
X158243657Y-70311239I696279J-487540D01*
G01*
G37*
G36*
G01*
X166775601Y-66983069D02*
X166775601Y-66983069D01*
G75*
G02*
X166984340Y-68166888I-487540J-696279D01*
G01*
X166984340Y-68166888D01*
G75*
G02*
X165800521Y-68375627I-696279J487540D01*
G01*
X165800521Y-68375627D01*
G75*
G02*
X165591782Y-67191808I487540J696279D01*
G01*
X165591782Y-67191808D01*
G75*
G02*
X166775601Y-66983069I696279J-487540D01*
G01*
G37*
G36*
G01*
X160324303Y-71768123D02*
X160324303Y-71768123D01*
G75*
G02*
X160533042Y-72951942I-487540J-696279D01*
G01*
X160533042Y-72951942D01*
G75*
G02*
X159349223Y-73160681I-696279J487540D01*
G01*
X159349223Y-73160681D01*
G75*
G02*
X159140484Y-71976862I487540J696279D01*
G01*
X159140484Y-71976862D01*
G75*
G02*
X160324303Y-71768123I696279J-487540D01*
G01*
G37*
G36*
G01*
X164694955Y-65526184D02*
X164694955Y-65526184D01*
G75*
G02*
X164903694Y-66710003I-487540J-696279D01*
G01*
X164903694Y-66710003D01*
G75*
G02*
X163719875Y-66918742I-696279J487540D01*
G01*
X163719875Y-66918742D01*
G75*
G02*
X163511136Y-65734923I487540J696279D01*
G01*
X163511136Y-65734923D01*
G75*
G02*
X164694955Y-65526184I696279J-487540D01*
G01*
G37*
G36*
G01*
X162404949Y-73225007D02*
X162404949Y-73225007D01*
G75*
G02*
X162613688Y-74408826I-487540J-696279D01*
G01*
X162613688Y-74408826D01*
G75*
G02*
X161429869Y-74617565I-696279J487540D01*
G01*
X161429869Y-74617565D01*
G75*
G02*
X161221130Y-73433746I487540J696279D01*
G01*
X161221130Y-73433746D01*
G75*
G02*
X162404949Y-73225007I696279J-487540D01*
G01*
G37*
G36*
G01*
X162614309Y-64069300D02*
X162614309Y-64069300D01*
G75*
G02*
X162823048Y-65253119I-487540J-696279D01*
G01*
X162823048Y-65253119D01*
G75*
G02*
X161639229Y-65461858I-696279J487540D01*
G01*
X161639229Y-65461858D01*
G75*
G02*
X161430490Y-64278039I487540J696279D01*
G01*
X161430490Y-64278039D01*
G75*
G02*
X162614309Y-64069300I696279J-487540D01*
G01*
G37*
G36*
G01*
X164485595Y-74681891D02*
X164485595Y-74681891D01*
G75*
G02*
X164694334Y-75865710I-487540J-696279D01*
G01*
X164694334Y-75865710D01*
G75*
G02*
X163510515Y-76074449I-696279J487540D01*
G01*
X163510515Y-76074449D01*
G75*
G02*
X163301776Y-74890630I487540J696279D01*
G01*
X163301776Y-74890630D01*
G75*
G02*
X164485595Y-74681891I696279J-487540D01*
G01*
G37*
G36*
G01*
X160533663Y-62612416D02*
X160533663Y-62612416D01*
G75*
G02*
X160742402Y-63796235I-487540J-696279D01*
G01*
X160742402Y-63796235D01*
G75*
G02*
X159558583Y-64004974I-696279J487540D01*
G01*
X159558583Y-64004974D01*
G75*
G02*
X159349844Y-62821155I487540J696279D01*
G01*
X159349844Y-62821155D01*
G75*
G02*
X160533663Y-62612416I696279J-487540D01*
G01*
G37*
G36*
G01*
X166566241Y-76138775D02*
X166566241Y-76138775D01*
G75*
G02*
X166774980Y-77322594I-487540J-696279D01*
G01*
X166774980Y-77322594D01*
G75*
G02*
X165591161Y-77531333I-696279J487540D01*
G01*
X165591161Y-77531333D01*
G75*
G02*
X165382422Y-76347514I487540J696279D01*
G01*
X165382422Y-76347514D01*
G75*
G02*
X166566241Y-76138775I696279J-487540D01*
G01*
G37*
G36*
G01*
X158453017Y-61155532D02*
X158453017Y-61155532D01*
G75*
G02*
X158661756Y-62339351I-487540J-696279D01*
G01*
X158661756Y-62339351D01*
G75*
G02*
X157477937Y-62548090I-696279J487540D01*
G01*
X157477937Y-62548090D01*
G75*
G02*
X157269198Y-61364271I487540J696279D01*
G01*
X157269198Y-61364271D01*
G75*
G02*
X158453017Y-61155532I696279J-487540D01*
G01*
G37*
G36*
G01*
X168646888Y-77595660D02*
X168646888Y-77595660D01*
G75*
G02*
X168855627Y-78779479I-487540J-696279D01*
G01*
X168855627Y-78779479D01*
G75*
G02*
X167671808Y-78988218I-696279J487540D01*
G01*
X167671808Y-78988218D01*
G75*
G02*
X167463069Y-77804399I487540J696279D01*
G01*
X167463069Y-77804399D01*
G75*
G02*
X168646888Y-77595660I696279J-487540D01*
G01*
G37*
%TD*%
D13*
%TO.C,Q4*%
X184242681Y-118794247D03*
X185875361Y-116848494D03*
G36*
G01*
X183704926Y-120679696D02*
X182740745Y-121828763D01*
G75*
G02*
X182670304Y-121834926I-38302J32139D01*
G01*
X181521237Y-120870745D01*
G75*
G02*
X181515074Y-120800304I32139J38302D01*
G01*
X182479255Y-119651237D01*
G75*
G02*
X182549696Y-119645074I38302J-32139D01*
G01*
X183698763Y-120609255D01*
G75*
G02*
X183704926Y-120679696I-32139J-38302D01*
G01*
G37*
%TD*%
%TO.C,Q8*%
X185180646Y-126353116D03*
X187261292Y-124896232D03*
G36*
G01*
X184173225Y-128035140D02*
X182944497Y-128895504D01*
G75*
G02*
X182874860Y-128883225I-28679J40958D01*
G01*
X182014496Y-127654497D01*
G75*
G02*
X182026775Y-127584860I40958J28679D01*
G01*
X183255503Y-126724496D01*
G75*
G02*
X183325140Y-126736775I28679J-40958D01*
G01*
X184185504Y-127965503D01*
G75*
G02*
X184173225Y-128035140I-40958J-28679D01*
G01*
G37*
%TD*%
%TO.C,Q6*%
G36*
G01*
X189141636Y-121972010D02*
X187782174Y-121338082D01*
G75*
G02*
X187757990Y-121271636I21131J45315D01*
G01*
X188391918Y-119912174D01*
G75*
G02*
X188458364Y-119887990I45315J-21131D01*
G01*
X189817826Y-120521918D01*
G75*
G02*
X189842010Y-120588364I-21131J-45315D01*
G01*
X189208082Y-121947826D01*
G75*
G02*
X189141636Y-121972010I-45315J21131D01*
G01*
G37*
X193404044Y-123076901D03*
X191102022Y-122003450D03*
%TD*%
%TO.C,Q3*%
G36*
G01*
X185030745Y-70551237D02*
X185994926Y-71700304D01*
G75*
G02*
X185988763Y-71770745I-38302J-32139D01*
G01*
X184839696Y-72734926D01*
G75*
G02*
X184769255Y-72728763I-32139J38302D01*
G01*
X183805074Y-71579696D01*
G75*
G02*
X183811237Y-71509255I38302J32139D01*
G01*
X184960304Y-70545074D01*
G75*
G02*
X185030745Y-70551237I32139J-38302D01*
G01*
G37*
X181634639Y-67748494D03*
X183267319Y-69694247D03*
%TD*%
%TO.C,Q5*%
G36*
G01*
X189307826Y-69928082D02*
X187948364Y-70562010D01*
G75*
G02*
X187881918Y-70537826I-21131J45315D01*
G01*
X187247990Y-69178364D01*
G75*
G02*
X187272174Y-69111918I45315J21131D01*
G01*
X188631636Y-68477990D01*
G75*
G02*
X188698082Y-68502174I21131J-45315D01*
G01*
X189332010Y-69861636D01*
G75*
G02*
X189307826Y-69928082I-45315J-21131D01*
G01*
G37*
X192894044Y-67373099D03*
X190592022Y-68446550D03*
%TD*%
%TO.C,Q7*%
X184690646Y-63246884D03*
X186771292Y-64703768D03*
G36*
G01*
X182765503Y-62875504D02*
X181536775Y-62015140D01*
G75*
G02*
X181524496Y-61945503I28679J40958D01*
G01*
X182384860Y-60716775D01*
G75*
G02*
X182454497Y-60704496I40958J-28679D01*
G01*
X183683225Y-61564860D01*
G75*
G02*
X183695504Y-61634497I-28679J-40958D01*
G01*
X182835140Y-62863225D01*
G75*
G02*
X182765503Y-62875504I-40958J28679D01*
G01*
G37*
%TD*%
%TO.C,Q2*%
G36*
G01*
X192117990Y-113331636D02*
X192751918Y-111972174D01*
G75*
G02*
X192818364Y-111947990I45315J-21131D01*
G01*
X194177826Y-112581918D01*
G75*
G02*
X194202010Y-112648364I-21131J-45315D01*
G01*
X193568082Y-114007826D01*
G75*
G02*
X193501636Y-114032010I-45315J21131D01*
G01*
X192142174Y-113398082D01*
G75*
G02*
X192117990Y-113331636I21131J45315D01*
G01*
G37*
X191013099Y-117594044D03*
X192086550Y-115292022D03*
%TD*%
%TO.C,Q1*%
X195060000Y-74410000D03*
X192520000Y-74410000D03*
G36*
G01*
X196850000Y-73610000D02*
X198350000Y-73610000D01*
G75*
G02*
X198400000Y-73660000I0J-50000D01*
G01*
X198400000Y-75160000D01*
G75*
G02*
X198350000Y-75210000I-50000J0D01*
G01*
X196850000Y-75210000D01*
G75*
G02*
X196800000Y-75160000I0J50000D01*
G01*
X196800000Y-73660000D01*
G75*
G02*
X196850000Y-73610000I50000J0D01*
G01*
G37*
%TD*%
%TO.C,R40*%
G36*
G01*
X191456142Y-63318760D02*
X191456142Y-63318760D01*
G75*
G02*
X190774363Y-64131273I-747146J-65367D01*
G01*
X190774363Y-64131273D01*
G75*
G02*
X189961850Y-63449494I-65367J747146D01*
G01*
X189961850Y-63449494D01*
G75*
G02*
X190643629Y-62636981I747146J65367D01*
G01*
X190643629Y-62636981D01*
G75*
G02*
X191456142Y-63318760I65367J-747146D01*
G01*
G37*
D14*
X198300000Y-62720000D03*
%TD*%
%TO.C,R41*%
X197470000Y-128730000D03*
G36*
G01*
X191014311Y-126380322D02*
X191014311Y-126380322D01*
G75*
G02*
X190053027Y-126828576I-704769J256515D01*
G01*
X190053027Y-126828576D01*
G75*
G02*
X189604773Y-125867292I256515J704769D01*
G01*
X189604773Y-125867292D01*
G75*
G02*
X190566057Y-125419038I704769J-256515D01*
G01*
X190566057Y-125419038D01*
G75*
G02*
X191014311Y-126380322I-256515J-704769D01*
G01*
G37*
%TD*%
%TO.C,R13*%
X200588449Y-82570093D03*
G36*
G01*
X202938127Y-89025782D02*
X202938127Y-89025782D01*
G75*
G02*
X203899411Y-89474036I256515J-704769D01*
G01*
X203899411Y-89474036D01*
G75*
G02*
X203451157Y-90435320I-704769J-256515D01*
G01*
X203451157Y-90435320D01*
G75*
G02*
X202489873Y-89987066I-256515J704769D01*
G01*
X202489873Y-89987066D01*
G75*
G02*
X202938127Y-89025782I704769J256515D01*
G01*
G37*
%TD*%
%TO.C,R35*%
X196430000Y-116300000D03*
G36*
G01*
X202656334Y-119203387D02*
X202656334Y-119203387D01*
G75*
G02*
X203653029Y-118840620I679731J-316964D01*
G01*
X203653029Y-118840620D01*
G75*
G02*
X204015796Y-119837315I-316964J-679731D01*
G01*
X204015796Y-119837315D01*
G75*
G02*
X203019101Y-120200082I-679731J316964D01*
G01*
X203019101Y-120200082D01*
G75*
G02*
X202656334Y-119203387I316964J679731D01*
G01*
G37*
%TD*%
%TO.C,R43*%
X196390000Y-131060000D03*
G36*
G01*
X189624371Y-129867037D02*
X189624371Y-129867037D01*
G75*
G02*
X188755529Y-130475407I-738606J130236D01*
G01*
X188755529Y-130475407D01*
G75*
G02*
X188147159Y-129606565I130236J738606D01*
G01*
X188147159Y-129606565D01*
G75*
G02*
X189016001Y-128998195I738606J-130236D01*
G01*
X189016001Y-128998195D01*
G75*
G02*
X189624371Y-129867037I-130236J-738606D01*
G01*
G37*
%TD*%
%TO.C,R45*%
X176420000Y-129800000D03*
G36*
G01*
X178769678Y-123344311D02*
X178769678Y-123344311D01*
G75*
G02*
X178321424Y-122383027I256515J704769D01*
G01*
X178321424Y-122383027D01*
G75*
G02*
X179282708Y-121934773I704769J-256515D01*
G01*
X179282708Y-121934773D01*
G75*
G02*
X179730962Y-122896057I-256515J-704769D01*
G01*
X179730962Y-122896057D01*
G75*
G02*
X178769678Y-123344311I-704769J256515D01*
G01*
G37*
%TD*%
%TO.C,R39*%
G36*
G01*
X178677612Y-117979239D02*
X178677612Y-117979239D01*
G75*
G02*
X178323556Y-116979417I322883J676939D01*
G01*
X178323556Y-116979417D01*
G75*
G02*
X179323378Y-116625361I676939J-322883D01*
G01*
X179323378Y-116625361D01*
G75*
G02*
X179677434Y-117625183I-322883J-676939D01*
G01*
X179677434Y-117625183D01*
G75*
G02*
X178677612Y-117979239I-676939J322883D01*
G01*
G37*
X175720000Y-124180000D03*
%TD*%
%TO.C,R34*%
X198710000Y-78910000D03*
G36*
G01*
X203125951Y-73647274D02*
X203125951Y-73647274D01*
G75*
G02*
X203033509Y-72590650I482091J574533D01*
G01*
X203033509Y-72590650D01*
G75*
G02*
X204090133Y-72498208I574533J-482091D01*
G01*
X204090133Y-72498208D01*
G75*
G02*
X204182575Y-73554832I-482091J-574533D01*
G01*
X204182575Y-73554832D01*
G75*
G02*
X203125951Y-73647274I-574533J482091D01*
G01*
G37*
%TD*%
%TO.C,R42*%
X195760000Y-59620000D03*
D15*
X188140000Y-59620000D03*
%TD*%
D14*
%TO.C,R44*%
X173650000Y-60690000D03*
G36*
G01*
X178065951Y-65952726D02*
X178065951Y-65952726D01*
G75*
G02*
X179122575Y-66045168I482091J-574533D01*
G01*
X179122575Y-66045168D01*
G75*
G02*
X179030133Y-67101792I-574533J-482091D01*
G01*
X179030133Y-67101792D01*
G75*
G02*
X177973509Y-67009350I-482091J574533D01*
G01*
X177973509Y-67009350D01*
G75*
G02*
X178065951Y-65952726I574533J482091D01*
G01*
G37*
%TD*%
%TO.C,R38*%
G36*
G01*
X171350760Y-65177858D02*
X171350760Y-65177858D01*
G75*
G02*
X172163273Y-65859637I65367J-747146D01*
G01*
X172163273Y-65859637D01*
G75*
G02*
X171481494Y-66672150I-747146J-65367D01*
G01*
X171481494Y-66672150D01*
G75*
G02*
X170668981Y-65990371I-65367J747146D01*
G01*
X170668981Y-65990371D01*
G75*
G02*
X171350760Y-65177858I747146J65367D01*
G01*
G37*
X170752000Y-58334000D03*
%TD*%
%TO.C,R31*%
G36*
G01*
X175540322Y-113435689D02*
X175540322Y-113435689D01*
G75*
G02*
X175988576Y-114396973I-256515J-704769D01*
G01*
X175988576Y-114396973D01*
G75*
G02*
X175027292Y-114845227I-704769J256515D01*
G01*
X175027292Y-114845227D01*
G75*
G02*
X174579038Y-113883943I256515J704769D01*
G01*
X174579038Y-113883943D01*
G75*
G02*
X175540322Y-113435689I704769J-256515D01*
G01*
G37*
X177890000Y-106980000D03*
%TD*%
%TO.C,R49*%
X172260000Y-104780000D03*
G36*
G01*
X176675951Y-99517274D02*
X176675951Y-99517274D01*
G75*
G02*
X176583509Y-98460650I482091J574533D01*
G01*
X176583509Y-98460650D01*
G75*
G02*
X177640133Y-98368208I574533J-482091D01*
G01*
X177640133Y-98368208D01*
G75*
G02*
X177732575Y-99424832I-482091J-574533D01*
G01*
X177732575Y-99424832D01*
G75*
G02*
X176675951Y-99517274I-574533J482091D01*
G01*
G37*
%TD*%
%TO.C,R23*%
G36*
G01*
X173079595Y-111225000D02*
X173079595Y-111225000D01*
G75*
G02*
X174104114Y-110950481I649519J-375000D01*
G01*
X174104114Y-110950481D01*
G75*
G02*
X174378633Y-111975000I-375000J-649519D01*
G01*
X174378633Y-111975000D01*
G75*
G02*
X173354114Y-112249519I-649519J375000D01*
G01*
X173354114Y-112249519D01*
G75*
G02*
X173079595Y-111225000I375000J649519D01*
G01*
G37*
X167130000Y-107790000D03*
%TD*%
%TO.C,R22*%
G36*
G01*
X183229911Y-76622087D02*
X183229911Y-76622087D01*
G75*
G02*
X184148469Y-76091757I724444J-194114D01*
G01*
X184148469Y-76091757D01*
G75*
G02*
X184678799Y-77010315I-194114J-724444D01*
G01*
X184678799Y-77010315D01*
G75*
G02*
X183760241Y-77540645I-724444J194114D01*
G01*
X183760241Y-77540645D01*
G75*
G02*
X183229911Y-76622087I194114J724444D01*
G01*
G37*
X176594000Y-74844000D03*
%TD*%
%TO.C,R48*%
G36*
G01*
X179286613Y-82263666D02*
X179286613Y-82263666D01*
G75*
G02*
X178289918Y-81900899I-316964J679731D01*
G01*
X178289918Y-81900899D01*
G75*
G02*
X178652685Y-80904204I679731J316964D01*
G01*
X178652685Y-80904204D01*
G75*
G02*
X179649380Y-81266971I316964J-679731D01*
G01*
X179649380Y-81266971D01*
G75*
G02*
X179286613Y-82263666I-679731J-316964D01*
G01*
G37*
X182190000Y-88490000D03*
%TD*%
%TO.C,R30*%
X169070000Y-80130000D03*
G36*
G01*
X175913858Y-79531240D02*
X175913858Y-79531240D01*
G75*
G02*
X176595637Y-78718727I747146J65367D01*
G01*
X176595637Y-78718727D01*
G75*
G02*
X177408150Y-79400506I65367J-747146D01*
G01*
X177408150Y-79400506D01*
G75*
G02*
X176726371Y-80213019I-747146J-65367D01*
G01*
X176726371Y-80213019D01*
G75*
G02*
X175913858Y-79531240I-65367J747146D01*
G01*
G37*
%TD*%
%TO.C,R33*%
G36*
G01*
X201246334Y-122273387D02*
X201246334Y-122273387D01*
G75*
G02*
X202243029Y-121910620I679731J-316964D01*
G01*
X202243029Y-121910620D01*
G75*
G02*
X202605796Y-122907315I-316964J-679731D01*
G01*
X202605796Y-122907315D01*
G75*
G02*
X201609101Y-123270082I-679731J316964D01*
G01*
X201609101Y-123270082D01*
G75*
G02*
X201246334Y-122273387I316964J679731D01*
G01*
G37*
X195020000Y-119370000D03*
%TD*%
%TO.C,R47*%
G36*
G01*
X180998087Y-124264089D02*
X180998087Y-124264089D01*
G75*
G02*
X180467757Y-123345531I194114J724444D01*
G01*
X180467757Y-123345531D01*
G75*
G02*
X181386315Y-122815201I724444J-194114D01*
G01*
X181386315Y-122815201D01*
G75*
G02*
X181916645Y-123733759I-194114J-724444D01*
G01*
X181916645Y-123733759D01*
G75*
G02*
X180998087Y-124264089I-724444J194114D01*
G01*
G37*
X179220000Y-130900000D03*
%TD*%
%TO.C,R37*%
X178090000Y-114570000D03*
G36*
G01*
X174149530Y-120197575D02*
X174149530Y-120197575D01*
G75*
G02*
X174333712Y-121242121I-430182J-614364D01*
G01*
X174333712Y-121242121D01*
G75*
G02*
X173289166Y-121426303I-614364J430182D01*
G01*
X173289166Y-121426303D01*
G75*
G02*
X173104984Y-120381757I430182J614364D01*
G01*
X173104984Y-120381757D01*
G75*
G02*
X174149530Y-120197575I614364J-430182D01*
G01*
G37*
%TD*%
%TO.C,R32*%
G36*
G01*
X200476334Y-67946613D02*
X200476334Y-67946613D01*
G75*
G02*
X200839101Y-66949918I679731J316964D01*
G01*
X200839101Y-66949918D01*
G75*
G02*
X201835796Y-67312685I316964J-679731D01*
G01*
X201835796Y-67312685D01*
G75*
G02*
X201473029Y-68309380I-679731J-316964D01*
G01*
X201473029Y-68309380D01*
G75*
G02*
X200476334Y-67946613I-316964J679731D01*
G01*
G37*
X194250000Y-70850000D03*
%TD*%
%TO.C,R46*%
G36*
G01*
X180245951Y-64392726D02*
X180245951Y-64392726D01*
G75*
G02*
X181302575Y-64485168I482091J-574533D01*
G01*
X181302575Y-64485168D01*
G75*
G02*
X181210133Y-65541792I-574533J-482091D01*
G01*
X181210133Y-65541792D01*
G75*
G02*
X180153509Y-65449350I-482091J574533D01*
G01*
X180153509Y-65449350D01*
G75*
G02*
X180245951Y-64392726I574533J482091D01*
G01*
G37*
X175830000Y-59130000D03*
%TD*%
%TO.C,R36*%
X178920000Y-71430000D03*
G36*
G01*
X174504049Y-66167274D02*
X174504049Y-66167274D01*
G75*
G02*
X173447425Y-66074832I-482091J574533D01*
G01*
X173447425Y-66074832D01*
G75*
G02*
X173539867Y-65018208I574533J482091D01*
G01*
X173539867Y-65018208D01*
G75*
G02*
X174596491Y-65110650I482091J-574533D01*
G01*
X174596491Y-65110650D01*
G75*
G02*
X174504049Y-66167274I-574533J-482091D01*
G01*
G37*
%TD*%
%TO.C,R17*%
G36*
G01*
X168021678Y-64281689D02*
X168021678Y-64281689D01*
G75*
G02*
X168982962Y-64729943I256515J-704769D01*
G01*
X168982962Y-64729943D01*
G75*
G02*
X168534708Y-65691227I-704769J-256515D01*
G01*
X168534708Y-65691227D01*
G75*
G02*
X167573424Y-65242973I-256515J704769D01*
G01*
X167573424Y-65242973D01*
G75*
G02*
X168021678Y-64281689I704769J256515D01*
G01*
G37*
X165672000Y-57826000D03*
%TD*%
%TO.C,R16*%
X165418000Y-84750000D03*
G36*
G01*
X159468405Y-81315000D02*
X159468405Y-81315000D01*
G75*
G02*
X158443886Y-81589519I-649519J375000D01*
G01*
X158443886Y-81589519D01*
G75*
G02*
X158169367Y-80565000I375000J649519D01*
G01*
X158169367Y-80565000D01*
G75*
G02*
X159193886Y-80290481I649519J-375000D01*
G01*
X159193886Y-80290481D01*
G75*
G02*
X159468405Y-81315000I-375000J-649519D01*
G01*
G37*
%TD*%
%TO.C,R26*%
X149416000Y-75606000D03*
G36*
G01*
X156259858Y-76204760D02*
X156259858Y-76204760D01*
G75*
G02*
X157072371Y-75522981I747146J-65367D01*
G01*
X157072371Y-75522981D01*
G75*
G02*
X157754150Y-76335494I-65367J-747146D01*
G01*
X157754150Y-76335494D01*
G75*
G02*
X156941637Y-77017273I-747146J65367D01*
G01*
X156941637Y-77017273D01*
G75*
G02*
X156259858Y-76204760I65367J747146D01*
G01*
G37*
%TD*%
%TO.C,R28*%
X154750000Y-80178000D03*
G36*
G01*
X147906142Y-80776760D02*
X147906142Y-80776760D01*
G75*
G02*
X147224363Y-81589273I-747146J-65367D01*
G01*
X147224363Y-81589273D01*
G75*
G02*
X146411850Y-80907494I-65367J747146D01*
G01*
X146411850Y-80907494D01*
G75*
G02*
X147093629Y-80094981I747146J65367D01*
G01*
X147093629Y-80094981D01*
G75*
G02*
X147906142Y-80776760I65367J-747146D01*
G01*
G37*
%TD*%
%TO.C,R29*%
X171010000Y-122350000D03*
G36*
G01*
X170650452Y-129210585D02*
X170650452Y-129210585D01*
G75*
G02*
X171360172Y-129998809I-39252J-748972D01*
G01*
X171360172Y-129998809D01*
G75*
G02*
X170571948Y-130708529I-748972J39252D01*
G01*
X170571948Y-130708529D01*
G75*
G02*
X169862228Y-129920305I39252J748972D01*
G01*
X169862228Y-129920305D01*
G75*
G02*
X170650452Y-129210585I748972J-39252D01*
G01*
G37*
%TD*%
%TO.C,R27*%
G36*
G01*
X168348760Y-125006142D02*
X168348760Y-125006142D01*
G75*
G02*
X167666981Y-124193629I65367J747146D01*
G01*
X167666981Y-124193629D01*
G75*
G02*
X168479494Y-123511850I747146J-65367D01*
G01*
X168479494Y-123511850D01*
G75*
G02*
X169161273Y-124324363I-65367J-747146D01*
G01*
X169161273Y-124324363D01*
G75*
G02*
X168348760Y-125006142I-747146J65367D01*
G01*
G37*
X167750000Y-131850000D03*
%TD*%
%TO.C,R18*%
X162480000Y-111570000D03*
G36*
G01*
X159045000Y-105620405D02*
X159045000Y-105620405D01*
G75*
G02*
X158020481Y-105345886I-375000J649519D01*
G01*
X158020481Y-105345886D01*
G75*
G02*
X158295000Y-104321367I649519J375000D01*
G01*
X158295000Y-104321367D01*
G75*
G02*
X159319519Y-104595886I375000J-649519D01*
G01*
X159319519Y-104595886D01*
G75*
G02*
X159045000Y-105620405I-649519J-375000D01*
G01*
G37*
%TD*%
%TO.C,R19*%
X154900000Y-106880000D03*
G36*
G01*
X158335000Y-112829595D02*
X158335000Y-112829595D01*
G75*
G02*
X159359519Y-113104114I375000J-649519D01*
G01*
X159359519Y-113104114D01*
G75*
G02*
X159085000Y-114128633I-649519J-375000D01*
G01*
X159085000Y-114128633D01*
G75*
G02*
X158060481Y-113854114I-375000J649519D01*
G01*
X158060481Y-113854114D01*
G75*
G02*
X158335000Y-112829595I649519J375000D01*
G01*
G37*
%TD*%
%TO.C,R3*%
X137800000Y-106710000D03*
G36*
G01*
X143749595Y-110145000D02*
X143749595Y-110145000D01*
G75*
G02*
X144774114Y-109870481I649519J-375000D01*
G01*
X144774114Y-109870481D01*
G75*
G02*
X145048633Y-110895000I-375000J-649519D01*
G01*
X145048633Y-110895000D01*
G75*
G02*
X144024114Y-111169519I-649519J375000D01*
G01*
X144024114Y-111169519D01*
G75*
G02*
X143749595Y-110145000I375000J649519D01*
G01*
G37*
%TD*%
%TO.C,R4*%
G36*
G01*
X153009595Y-115865000D02*
X153009595Y-115865000D01*
G75*
G02*
X154034114Y-115590481I649519J-375000D01*
G01*
X154034114Y-115590481D01*
G75*
G02*
X154308633Y-116615000I-375000J-649519D01*
G01*
X154308633Y-116615000D01*
G75*
G02*
X153284114Y-116889519I-649519J375000D01*
G01*
X153284114Y-116889519D01*
G75*
G02*
X153009595Y-115865000I375000J649519D01*
G01*
G37*
X147060000Y-112430000D03*
%TD*%
%TO.C,R2*%
G36*
G01*
X126732963Y-59950371D02*
X126732963Y-59950371D01*
G75*
G02*
X126124593Y-59081529I130236J738606D01*
G01*
X126124593Y-59081529D01*
G75*
G02*
X126993435Y-58473159I738606J-130236D01*
G01*
X126993435Y-58473159D01*
G75*
G02*
X127601805Y-59342001I-130236J-738606D01*
G01*
X127601805Y-59342001D01*
G75*
G02*
X126732963Y-59950371I-738606J130236D01*
G01*
G37*
X125540000Y-66716000D03*
%TD*%
%TO.C,R1*%
X125440000Y-78500000D03*
G36*
G01*
X125559898Y-71631047D02*
X125559898Y-71631047D01*
G75*
G02*
X124823101Y-70868072I13089J749886D01*
G01*
X124823101Y-70868072D01*
G75*
G02*
X125586076Y-70131275I749886J-13089D01*
G01*
X125586076Y-70131275D01*
G75*
G02*
X126322873Y-70894250I-13089J-749886D01*
G01*
X126322873Y-70894250D01*
G75*
G02*
X125559898Y-71631047I-749886J13089D01*
G01*
G37*
%TD*%
D16*
%TO.C,REF\u002A\u002A*%
X134910000Y-96910000D03*
%TD*%
%TO.C,Out AB*%
X162446768Y-94359337D03*
%TD*%
%TO.C,R25*%
G36*
G01*
X139094311Y-131590322D02*
X139094311Y-131590322D01*
G75*
G02*
X138133027Y-132038576I-704769J256515D01*
G01*
X138133027Y-132038576D01*
G75*
G02*
X137684773Y-131077292I256515J704769D01*
G01*
X137684773Y-131077292D01*
G75*
G02*
X138646057Y-130629038I704769J-256515D01*
G01*
X138646057Y-130629038D01*
G75*
G02*
X139094311Y-131590322I-256515J-704769D01*
G01*
G37*
D14*
X145550000Y-133940000D03*
%TD*%
%TO.C,R15*%
G36*
G01*
X146768405Y-106513000D02*
X146768405Y-106513000D01*
G75*
G02*
X145743886Y-106787519I-649519J375000D01*
G01*
X145743886Y-106787519D01*
G75*
G02*
X145469367Y-105763000I375000J649519D01*
G01*
X145469367Y-105763000D01*
G75*
G02*
X146493886Y-105488481I649519J-375000D01*
G01*
X146493886Y-105488481D01*
G75*
G02*
X146768405Y-106513000I-375000J-649519D01*
G01*
G37*
X152718000Y-109948000D03*
%TD*%
D15*
%TO.C,R10*%
X125720000Y-122090000D03*
D14*
X125720000Y-129710000D03*
%TD*%
%TO.C,R8*%
X119430000Y-116940000D03*
G36*
G01*
X126065911Y-118718087D02*
X126065911Y-118718087D01*
G75*
G02*
X126984469Y-118187757I724444J-194114D01*
G01*
X126984469Y-118187757D01*
G75*
G02*
X127514799Y-119106315I-194114J-724444D01*
G01*
X127514799Y-119106315D01*
G75*
G02*
X126596241Y-119636645I-724444J194114D01*
G01*
X126596241Y-119636645D01*
G75*
G02*
X126065911Y-118718087I194114J724444D01*
G01*
G37*
%TD*%
%TO.C,R12*%
G36*
G01*
X125399530Y-114507575D02*
X125399530Y-114507575D01*
G75*
G02*
X125583712Y-115552121I-430182J-614364D01*
G01*
X125583712Y-115552121D01*
G75*
G02*
X124539166Y-115736303I-614364J430182D01*
G01*
X124539166Y-115736303D01*
G75*
G02*
X124354984Y-114691757I430182J614364D01*
G01*
X124354984Y-114691757D01*
G75*
G02*
X125399530Y-114507575I614364J-430182D01*
G01*
G37*
X129340000Y-108880000D03*
%TD*%
%TO.C,R24*%
X152464000Y-72558000D03*
G36*
G01*
X150114322Y-66102311D02*
X150114322Y-66102311D01*
G75*
G02*
X149153038Y-65654057I-256515J704769D01*
G01*
X149153038Y-65654057D01*
G75*
G02*
X149601292Y-64692773I704769J256515D01*
G01*
X149601292Y-64692773D01*
G75*
G02*
X150562576Y-65141027I256515J-704769D01*
G01*
X150562576Y-65141027D01*
G75*
G02*
X150114322Y-66102311I-704769J-256515D01*
G01*
G37*
%TD*%
%TO.C,R9*%
G36*
G01*
X121793678Y-77489689D02*
X121793678Y-77489689D01*
G75*
G02*
X122754962Y-77937943I256515J-704769D01*
G01*
X122754962Y-77937943D01*
G75*
G02*
X122306708Y-78899227I-704769J-256515D01*
G01*
X122306708Y-78899227D01*
G75*
G02*
X121345424Y-78450973I-256515J704769D01*
G01*
X121345424Y-78450973D01*
G75*
G02*
X121793678Y-77489689I704769J256515D01*
G01*
G37*
X119444000Y-71034000D03*
%TD*%
%TO.C,R14*%
G36*
G01*
X139602371Y-82287037D02*
X139602371Y-82287037D01*
G75*
G02*
X138733529Y-82895407I-738606J130236D01*
G01*
X138733529Y-82895407D01*
G75*
G02*
X138125159Y-82026565I130236J738606D01*
G01*
X138125159Y-82026565D01*
G75*
G02*
X138994001Y-81418195I738606J-130236D01*
G01*
X138994001Y-81418195D01*
G75*
G02*
X139602371Y-82287037I-130236J-738606D01*
G01*
G37*
X146368000Y-83480000D03*
%TD*%
%TO.C,R11*%
G36*
G01*
X128457666Y-80322613D02*
X128457666Y-80322613D01*
G75*
G02*
X127460971Y-80685380I-679731J316964D01*
G01*
X127460971Y-80685380D01*
G75*
G02*
X127098204Y-79688685I316964J679731D01*
G01*
X127098204Y-79688685D01*
G75*
G02*
X128094899Y-79325918I679731J-316964D01*
G01*
X128094899Y-79325918D01*
G75*
G02*
X128457666Y-80322613I-316964J-679731D01*
G01*
G37*
X134684000Y-83226000D03*
%TD*%
%TO.C,R5*%
G36*
G01*
X119297595Y-80299000D02*
X119297595Y-80299000D01*
G75*
G02*
X119572114Y-79274481I649519J375000D01*
G01*
X119572114Y-79274481D01*
G75*
G02*
X120596633Y-79549000I375000J-649519D01*
G01*
X120596633Y-79549000D01*
G75*
G02*
X120322114Y-80573519I-649519J-375000D01*
G01*
X120322114Y-80573519D01*
G75*
G02*
X119297595Y-80299000I-375000J649519D01*
G01*
G37*
X113348000Y-83734000D03*
%TD*%
D15*
%TO.C,R6*%
X122492000Y-81956000D03*
D14*
X122492000Y-89576000D03*
%TD*%
%TO.C,R7*%
G36*
G01*
X113129530Y-93657575D02*
X113129530Y-93657575D01*
G75*
G02*
X113313712Y-94702121I-430182J-614364D01*
G01*
X113313712Y-94702121D01*
G75*
G02*
X112269166Y-94886303I-614364J430182D01*
G01*
X112269166Y-94886303D01*
G75*
G02*
X112084984Y-93841757I430182J614364D01*
G01*
X112084984Y-93841757D01*
G75*
G02*
X113129530Y-93657575I614364J-430182D01*
G01*
G37*
X117070000Y-88030000D03*
%TD*%
%TO.C,R21*%
X117490000Y-120850000D03*
G36*
G01*
X120925000Y-126799595D02*
X120925000Y-126799595D01*
G75*
G02*
X121949519Y-127074114I375000J-649519D01*
G01*
X121949519Y-127074114D01*
G75*
G02*
X121675000Y-128098633I-649519J-375000D01*
G01*
X121675000Y-128098633D01*
G75*
G02*
X120650481Y-127824114I-375000J649519D01*
G01*
X120650481Y-127824114D01*
G75*
G02*
X120925000Y-126799595I649519J375000D01*
G01*
G37*
%TD*%
%TO.C,R20*%
X139510000Y-58842000D03*
G36*
G01*
X146353858Y-59440760D02*
X146353858Y-59440760D01*
G75*
G02*
X147166371Y-58758981I747146J-65367D01*
G01*
X147166371Y-58758981D01*
G75*
G02*
X147848150Y-59571494I-65367J-747146D01*
G01*
X147848150Y-59571494D01*
G75*
G02*
X147035637Y-60253273I-747146J65367D01*
G01*
X147035637Y-60253273D01*
G75*
G02*
X146353858Y-59440760I65367J747146D01*
G01*
G37*
%TD*%
D16*
%TO.C,Out B*%
X152219973Y-98458279D03*
%TD*%
%TO.C,REF\u002A\u002A*%
X173890000Y-133050000D03*
%TD*%
%TO.C,REF\u002A\u002A*%
X162750000Y-133920000D03*
%TD*%
%TO.C,In B*%
X140990000Y-99280000D03*
%TD*%
%TO.C,Out A*%
X151920000Y-90970000D03*
%TD*%
%TO.C,In A*%
X141010000Y-91840000D03*
%TD*%
%TO.C,REF\u002A\u002A*%
X161740000Y-59850000D03*
%TD*%
%TO.C,REF\u002A\u002A*%
X174320000Y-55420000D03*
%TD*%
D17*
%TO.C,C2*%
X143020000Y-116225064D03*
G36*
G01*
X144002180Y-112923879D02*
X145387820Y-113723879D01*
G75*
G02*
X145406121Y-113792180I-25000J-43301D01*
G01*
X144606121Y-115177820D01*
G75*
G02*
X144537820Y-115196121I-43301J25000D01*
G01*
X143152180Y-114396121D01*
G75*
G02*
X143133879Y-114327820I25000J43301D01*
G01*
X143933879Y-112942180D01*
G75*
G02*
X144002180Y-112923879I43301J-25000D01*
G01*
G37*
%TD*%
%TO.C,C11*%
X144827679Y-130043301D03*
X146577679Y-127012212D03*
%TD*%
%TO.C,C10*%
X132037679Y-126942212D03*
X133787679Y-129973301D03*
%TD*%
%TO.C,C12*%
X121930938Y-66805998D03*
X119681182Y-64124842D03*
%TD*%
%TO.C,C9*%
X146642000Y-62856000D03*
X146642000Y-66356000D03*
%TD*%
%TO.C,C1*%
G36*
G01*
X128654466Y-70675368D02*
X127428795Y-69646907D01*
G75*
G02*
X127422632Y-69576466I32139J38302D01*
G01*
X128451093Y-68350795D01*
G75*
G02*
X128521534Y-68344632I38302J-32139D01*
G01*
X129747205Y-69373093D01*
G75*
G02*
X129753368Y-69443534I-32139J-38302D01*
G01*
X128724907Y-70669205D01*
G75*
G02*
X128654466Y-70675368I-38302J32139D01*
G01*
G37*
X130194969Y-67594889D03*
%TD*%
%TO.C,C6*%
X208749978Y-87416860D03*
G36*
G01*
X211947341Y-92380666D02*
X210497248Y-93056855D01*
G75*
G02*
X210430802Y-93032671I-21131J45315D01*
G01*
X209754613Y-91582578D01*
G75*
G02*
X209778797Y-91516132I45315J21131D01*
G01*
X211228890Y-90839943D01*
G75*
G02*
X211295336Y-90864127I21131J-45315D01*
G01*
X211971525Y-92314220D01*
G75*
G02*
X211947341Y-92380666I-45315J-21131D01*
G01*
G37*
%TD*%
D16*
%TO.C,C3*%
X124624444Y-93148857D03*
X117380000Y-95090000D03*
%TD*%
%TO.C,C4*%
X130546058Y-96987639D03*
X123160000Y-98290000D03*
%TD*%
%TO.C,C5*%
X118060000Y-110410000D03*
X122880907Y-104664667D03*
%TD*%
%TO.C,C7*%
X197432702Y-89493259D03*
X203576342Y-93795082D03*
%TD*%
%TO.C,C8*%
X189120000Y-96040000D03*
X184299093Y-101785333D03*
%TD*%
%TO.C,C13*%
X172651823Y-82886360D03*
X168350000Y-89030000D03*
%TD*%
%TO.C,C14*%
X161790000Y-99020000D03*
X164959637Y-105817308D03*
%TD*%
%TO.C,C15*%
X180811460Y-94526332D03*
X173340000Y-95180000D03*
%TD*%
%TO.C,MFR090*%
X190940000Y-108140000D03*
X196020000Y-108150000D03*
%TD*%
%TO.C,L7809*%
G36*
G01*
X214507812Y-112401508D02*
X214507812Y-112401508D01*
G75*
G02*
X214729674Y-114937406I-1157018J-1378880D01*
G01*
X214729674Y-114937406D01*
G75*
G02*
X212193776Y-115159268I-1378880J1157018D01*
G01*
X212193776Y-115159268D01*
G75*
G02*
X211971914Y-112623370I1157018J1378880D01*
G01*
X211971914Y-112623370D01*
G75*
G02*
X214507812Y-112401508I1378880J-1157018D01*
G01*
G37*
G36*
G01*
X202099524Y-99715047D02*
X203631613Y-101000622D01*
G75*
G02*
X203637776Y-101071063I-32139J-38302D01*
G01*
X202413265Y-102530378D01*
G75*
G02*
X202342824Y-102536541I-38302J32139D01*
G01*
X200810735Y-101250966D01*
G75*
G02*
X200804572Y-101180525I32139J38302D01*
G01*
X202029083Y-99721210D01*
G75*
G02*
X202099524Y-99715047I38302J-32139D01*
G01*
G37*
G36*
G01*
X201196501Y-102273055D02*
X201269275Y-102334119D01*
G75*
G02*
X201392840Y-103746474I-644395J-767960D01*
G01*
X201392840Y-103746474D01*
G75*
G02*
X199980485Y-103870039I-767960J644395D01*
G01*
X199907711Y-103808975D01*
G75*
G02*
X199784146Y-102396620I644395J767960D01*
G01*
X199784146Y-102396620D01*
G75*
G02*
X201196501Y-102273055I767960J-644395D01*
G01*
G37*
G36*
G01*
X199563821Y-104218808D02*
X199636595Y-104279872D01*
G75*
G02*
X199760160Y-105692227I-644395J-767960D01*
G01*
X199760160Y-105692227D01*
G75*
G02*
X198347805Y-105815792I-767960J644395D01*
G01*
X198275031Y-105754728D01*
G75*
G02*
X198151466Y-104342373I644395J767960D01*
G01*
X198151466Y-104342373D01*
G75*
G02*
X199563821Y-104218808I767960J-644395D01*
G01*
G37*
%TD*%
M02*
