%TF.GenerationSoftware,KiCad,Pcbnew,(5.1.6)-1*%
%TF.CreationDate,2020-07-12T11:16:24-05:00*%
%TF.ProjectId,Bird Monk Train,42697264-204d-46f6-9e6b-20547261696e,rev?*%
%TF.SameCoordinates,Original*%
%TF.FileFunction,Legend,Bot*%
%TF.FilePolarity,Positive*%
%FSLAX46Y46*%
G04 Gerber Fmt 4.6, Leading zero omitted, Abs format (unit mm)*
G04 Created by KiCad (PCBNEW (5.1.6)-1) date 2020-07-12 11:16:24*
%MOMM*%
%LPD*%
G01*
G04 APERTURE LIST*
%ADD10C,0.300000*%
G04 APERTURE END LIST*
D10*
X168052857Y-121707142D02*
X168124285Y-121921428D01*
X168195714Y-121992857D01*
X168338571Y-122064285D01*
X168552857Y-122064285D01*
X168695714Y-121992857D01*
X168767142Y-121921428D01*
X168838571Y-121778571D01*
X168838571Y-121207142D01*
X167338571Y-121207142D01*
X167338571Y-121707142D01*
X167410000Y-121850000D01*
X167481428Y-121921428D01*
X167624285Y-121992857D01*
X167767142Y-121992857D01*
X167910000Y-121921428D01*
X167981428Y-121850000D01*
X168052857Y-121707142D01*
X168052857Y-121207142D01*
X168838571Y-122707142D02*
X167338571Y-122707142D01*
X168838571Y-124278571D02*
X168124285Y-123778571D01*
X168838571Y-123421428D02*
X167338571Y-123421428D01*
X167338571Y-123992857D01*
X167410000Y-124135714D01*
X167481428Y-124207142D01*
X167624285Y-124278571D01*
X167838571Y-124278571D01*
X167981428Y-124207142D01*
X168052857Y-124135714D01*
X168124285Y-123992857D01*
X168124285Y-123421428D01*
X168838571Y-124921428D02*
X167338571Y-124921428D01*
X167338571Y-125278571D01*
X167410000Y-125492857D01*
X167552857Y-125635714D01*
X167695714Y-125707142D01*
X167981428Y-125778571D01*
X168195714Y-125778571D01*
X168481428Y-125707142D01*
X168624285Y-125635714D01*
X168767142Y-125492857D01*
X168838571Y-125278571D01*
X168838571Y-124921428D01*
X168838571Y-128207142D02*
X168052857Y-128207142D01*
X167910000Y-128135714D01*
X167838571Y-127992857D01*
X167838571Y-127707142D01*
X167910000Y-127564285D01*
X168767142Y-128207142D02*
X168838571Y-128064285D01*
X168838571Y-127707142D01*
X168767142Y-127564285D01*
X168624285Y-127492857D01*
X168481428Y-127492857D01*
X168338571Y-127564285D01*
X168267142Y-127707142D01*
X168267142Y-128064285D01*
X168195714Y-128207142D01*
X168838571Y-128921428D02*
X167338571Y-128921428D01*
X168267142Y-129064285D02*
X168838571Y-129492857D01*
X167838571Y-129492857D02*
X168410000Y-128921428D01*
X168838571Y-130778571D02*
X168052857Y-130778571D01*
X167910000Y-130707142D01*
X167838571Y-130564285D01*
X167838571Y-130278571D01*
X167910000Y-130135714D01*
X168767142Y-130778571D02*
X168838571Y-130635714D01*
X168838571Y-130278571D01*
X168767142Y-130135714D01*
X168624285Y-130064285D01*
X168481428Y-130064285D01*
X168338571Y-130135714D01*
X168267142Y-130278571D01*
X168267142Y-130635714D01*
X168195714Y-130778571D01*
X168838571Y-132635714D02*
X167338571Y-132635714D01*
X168410000Y-133135714D01*
X167338571Y-133635714D01*
X168838571Y-133635714D01*
X168838571Y-134564285D02*
X168767142Y-134421428D01*
X168695714Y-134350000D01*
X168552857Y-134278571D01*
X168124285Y-134278571D01*
X167981428Y-134350000D01*
X167910000Y-134421428D01*
X167838571Y-134564285D01*
X167838571Y-134778571D01*
X167910000Y-134921428D01*
X167981428Y-134992857D01*
X168124285Y-135064285D01*
X168552857Y-135064285D01*
X168695714Y-134992857D01*
X168767142Y-134921428D01*
X168838571Y-134778571D01*
X168838571Y-134564285D01*
X167838571Y-136350000D02*
X168838571Y-136350000D01*
X167838571Y-135707142D02*
X168624285Y-135707142D01*
X168767142Y-135778571D01*
X168838571Y-135921428D01*
X168838571Y-136135714D01*
X168767142Y-136278571D01*
X168695714Y-136350000D01*
X168838571Y-137064285D02*
X167838571Y-137064285D01*
X168124285Y-137064285D02*
X167981428Y-137135714D01*
X167910000Y-137207142D01*
X167838571Y-137350000D01*
X167838571Y-137492857D01*
X167838571Y-137992857D02*
X168838571Y-137992857D01*
X167981428Y-137992857D02*
X167910000Y-138064285D01*
X167838571Y-138207142D01*
X167838571Y-138421428D01*
X167910000Y-138564285D01*
X168052857Y-138635714D01*
X168838571Y-138635714D01*
X168838571Y-139350000D02*
X167838571Y-139350000D01*
X167338571Y-139350000D02*
X167410000Y-139278571D01*
X167481428Y-139350000D01*
X167410000Y-139421428D01*
X167338571Y-139350000D01*
X167481428Y-139350000D01*
X167838571Y-140064285D02*
X168838571Y-140064285D01*
X167981428Y-140064285D02*
X167910000Y-140135714D01*
X167838571Y-140278571D01*
X167838571Y-140492857D01*
X167910000Y-140635714D01*
X168052857Y-140707142D01*
X168838571Y-140707142D01*
X167838571Y-142064285D02*
X169052857Y-142064285D01*
X169195714Y-141992857D01*
X169267142Y-141921428D01*
X169338571Y-141778571D01*
X169338571Y-141564285D01*
X169267142Y-141421428D01*
X168767142Y-142064285D02*
X168838571Y-141921428D01*
X168838571Y-141635714D01*
X168767142Y-141492857D01*
X168695714Y-141421428D01*
X168552857Y-141350000D01*
X168124285Y-141350000D01*
X167981428Y-141421428D01*
X167910000Y-141492857D01*
X167838571Y-141635714D01*
X167838571Y-141921428D01*
X167910000Y-142064285D01*
X168838571Y-143921428D02*
X167338571Y-143921428D01*
X167338571Y-144278571D01*
X167410000Y-144492857D01*
X167552857Y-144635714D01*
X167695714Y-144707142D01*
X167981428Y-144778571D01*
X168195714Y-144778571D01*
X168481428Y-144707142D01*
X168624285Y-144635714D01*
X168767142Y-144492857D01*
X168838571Y-144278571D01*
X168838571Y-143921428D01*
X168838571Y-145635714D02*
X168767142Y-145492857D01*
X168695714Y-145421428D01*
X168552857Y-145350000D01*
X168124285Y-145350000D01*
X167981428Y-145421428D01*
X167910000Y-145492857D01*
X167838571Y-145635714D01*
X167838571Y-145850000D01*
X167910000Y-145992857D01*
X167981428Y-146064285D01*
X168124285Y-146135714D01*
X168552857Y-146135714D01*
X168695714Y-146064285D01*
X168767142Y-145992857D01*
X168838571Y-145850000D01*
X168838571Y-145635714D01*
X167838571Y-146635714D02*
X168838571Y-146992857D01*
X167838571Y-147350000D01*
X168767142Y-148492857D02*
X168838571Y-148350000D01*
X168838571Y-148064285D01*
X168767142Y-147921428D01*
X168624285Y-147850000D01*
X168052857Y-147850000D01*
X167910000Y-147921428D01*
X167838571Y-148064285D01*
X167838571Y-148350000D01*
X167910000Y-148492857D01*
X168052857Y-148564285D01*
X168195714Y-148564285D01*
X168338571Y-147850000D01*
X96455714Y-118620000D02*
X96527142Y-118548571D01*
X96598571Y-118334285D01*
X96598571Y-118191428D01*
X96527142Y-117977142D01*
X96384285Y-117834285D01*
X96241428Y-117762857D01*
X95955714Y-117691428D01*
X95741428Y-117691428D01*
X95455714Y-117762857D01*
X95312857Y-117834285D01*
X95170000Y-117977142D01*
X95098571Y-118191428D01*
X95098571Y-118334285D01*
X95170000Y-118548571D01*
X95241428Y-118620000D01*
X96598571Y-119262857D02*
X95598571Y-119262857D01*
X95098571Y-119262857D02*
X95170000Y-119191428D01*
X95241428Y-119262857D01*
X95170000Y-119334285D01*
X95098571Y-119262857D01*
X95241428Y-119262857D01*
X96598571Y-120620000D02*
X95812857Y-120620000D01*
X95670000Y-120548571D01*
X95598571Y-120405714D01*
X95598571Y-120120000D01*
X95670000Y-119977142D01*
X96527142Y-120620000D02*
X96598571Y-120477142D01*
X96598571Y-120120000D01*
X96527142Y-119977142D01*
X96384285Y-119905714D01*
X96241428Y-119905714D01*
X96098571Y-119977142D01*
X96027142Y-120120000D01*
X96027142Y-120477142D01*
X95955714Y-120620000D01*
X95598571Y-121120000D02*
X95598571Y-121691428D01*
X95098571Y-121334285D02*
X96384285Y-121334285D01*
X96527142Y-121405714D01*
X96598571Y-121548571D01*
X96598571Y-121691428D01*
X96027142Y-122191428D02*
X96027142Y-123334285D01*
X96598571Y-124762857D02*
X96598571Y-124048571D01*
X95098571Y-124048571D01*
X96598571Y-125477142D02*
X96527142Y-125334285D01*
X96455714Y-125262857D01*
X96312857Y-125191428D01*
X95884285Y-125191428D01*
X95741428Y-125262857D01*
X95670000Y-125334285D01*
X95598571Y-125477142D01*
X95598571Y-125691428D01*
X95670000Y-125834285D01*
X95741428Y-125905714D01*
X95884285Y-125977142D01*
X96312857Y-125977142D01*
X96455714Y-125905714D01*
X96527142Y-125834285D01*
X96598571Y-125691428D01*
X96598571Y-125477142D01*
X95598571Y-126620000D02*
X96598571Y-126620000D01*
X95741428Y-126620000D02*
X95670000Y-126691428D01*
X95598571Y-126834285D01*
X95598571Y-127048571D01*
X95670000Y-127191428D01*
X95812857Y-127262857D01*
X96598571Y-127262857D01*
X96598571Y-127977142D02*
X95098571Y-127977142D01*
X95670000Y-127977142D02*
X95598571Y-128120000D01*
X95598571Y-128405714D01*
X95670000Y-128548571D01*
X95741428Y-128620000D01*
X95884285Y-128691428D01*
X96312857Y-128691428D01*
X96455714Y-128620000D01*
X96527142Y-128548571D01*
X96598571Y-128405714D01*
X96598571Y-128120000D01*
X96527142Y-127977142D01*
X96598571Y-129977142D02*
X95812857Y-129977142D01*
X95670000Y-129905714D01*
X95598571Y-129762857D01*
X95598571Y-129477142D01*
X95670000Y-129334285D01*
X96527142Y-129977142D02*
X96598571Y-129834285D01*
X96598571Y-129477142D01*
X96527142Y-129334285D01*
X96384285Y-129262857D01*
X96241428Y-129262857D01*
X96098571Y-129334285D01*
X96027142Y-129477142D01*
X96027142Y-129834285D01*
X95955714Y-129977142D01*
X96598571Y-130691428D02*
X95598571Y-130691428D01*
X95884285Y-130691428D02*
X95741428Y-130762857D01*
X95670000Y-130834285D01*
X95598571Y-130977142D01*
X95598571Y-131120000D01*
X96598571Y-132262857D02*
X95098571Y-132262857D01*
X96527142Y-132262857D02*
X96598571Y-132120000D01*
X96598571Y-131834285D01*
X96527142Y-131691428D01*
X96455714Y-131620000D01*
X96312857Y-131548571D01*
X95884285Y-131548571D01*
X95741428Y-131620000D01*
X95670000Y-131691428D01*
X95598571Y-131834285D01*
X95598571Y-132120000D01*
X95670000Y-132262857D01*
X96527142Y-133548571D02*
X96598571Y-133405714D01*
X96598571Y-133120000D01*
X96527142Y-132977142D01*
X96384285Y-132905714D01*
X95812857Y-132905714D01*
X95670000Y-132977142D01*
X95598571Y-133120000D01*
X95598571Y-133405714D01*
X95670000Y-133548571D01*
X95812857Y-133620000D01*
X95955714Y-133620000D01*
X96098571Y-132905714D01*
X96598571Y-135262857D02*
X95598571Y-136048571D01*
X95598571Y-135262857D02*
X96598571Y-136048571D01*
X96598571Y-137762857D02*
X95098571Y-137762857D01*
X95098571Y-138120000D01*
X95170000Y-138334285D01*
X95312857Y-138477142D01*
X95455714Y-138548571D01*
X95741428Y-138620000D01*
X95955714Y-138620000D01*
X96241428Y-138548571D01*
X96384285Y-138477142D01*
X96527142Y-138334285D01*
X96598571Y-138120000D01*
X96598571Y-137762857D01*
X96598571Y-139905714D02*
X95812857Y-139905714D01*
X95670000Y-139834285D01*
X95598571Y-139691428D01*
X95598571Y-139405714D01*
X95670000Y-139262857D01*
X96527142Y-139905714D02*
X96598571Y-139762857D01*
X96598571Y-139405714D01*
X96527142Y-139262857D01*
X96384285Y-139191428D01*
X96241428Y-139191428D01*
X96098571Y-139262857D01*
X96027142Y-139405714D01*
X96027142Y-139762857D01*
X95955714Y-139905714D01*
X95598571Y-140620000D02*
X96598571Y-140620000D01*
X95741428Y-140620000D02*
X95670000Y-140691428D01*
X95598571Y-140834285D01*
X95598571Y-141048571D01*
X95670000Y-141191428D01*
X95812857Y-141262857D01*
X96598571Y-141262857D01*
X96455714Y-143977142D02*
X96527142Y-143905714D01*
X96598571Y-143691428D01*
X96598571Y-143548571D01*
X96527142Y-143334285D01*
X96384285Y-143191428D01*
X96241428Y-143120000D01*
X95955714Y-143048571D01*
X95741428Y-143048571D01*
X95455714Y-143120000D01*
X95312857Y-143191428D01*
X95170000Y-143334285D01*
X95098571Y-143548571D01*
X95098571Y-143691428D01*
X95170000Y-143905714D01*
X95241428Y-143977142D01*
X96598571Y-144834285D02*
X96527142Y-144691428D01*
X96455714Y-144620000D01*
X96312857Y-144548571D01*
X95884285Y-144548571D01*
X95741428Y-144620000D01*
X95670000Y-144691428D01*
X95598571Y-144834285D01*
X95598571Y-145048571D01*
X95670000Y-145191428D01*
X95741428Y-145262857D01*
X95884285Y-145334285D01*
X96312857Y-145334285D01*
X96455714Y-145262857D01*
X96527142Y-145191428D01*
X96598571Y-145048571D01*
X96598571Y-144834285D01*
X95598571Y-145977142D02*
X96598571Y-145977142D01*
X95741428Y-145977142D02*
X95670000Y-146048571D01*
X95598571Y-146191428D01*
X95598571Y-146405714D01*
X95670000Y-146548571D01*
X95812857Y-146620000D01*
X96598571Y-146620000D01*
X96598571Y-147334285D02*
X95598571Y-147334285D01*
X95884285Y-147334285D02*
X95741428Y-147405714D01*
X95670000Y-147477142D01*
X95598571Y-147620000D01*
X95598571Y-147762857D01*
X96598571Y-148905714D02*
X95812857Y-148905714D01*
X95670000Y-148834285D01*
X95598571Y-148691428D01*
X95598571Y-148405714D01*
X95670000Y-148262857D01*
X96527142Y-148905714D02*
X96598571Y-148762857D01*
X96598571Y-148405714D01*
X96527142Y-148262857D01*
X96384285Y-148191428D01*
X96241428Y-148191428D01*
X96098571Y-148262857D01*
X96027142Y-148405714D01*
X96027142Y-148762857D01*
X95955714Y-148905714D01*
X96598571Y-150262857D02*
X95098571Y-150262857D01*
X96527142Y-150262857D02*
X96598571Y-150120000D01*
X96598571Y-149834285D01*
X96527142Y-149691428D01*
X96455714Y-149620000D01*
X96312857Y-149548571D01*
X95884285Y-149548571D01*
X95741428Y-149620000D01*
X95670000Y-149691428D01*
X95598571Y-149834285D01*
X95598571Y-150120000D01*
X95670000Y-150262857D01*
X96455714Y-150977142D02*
X96527142Y-151048571D01*
X96598571Y-150977142D01*
X96527142Y-150905714D01*
X96455714Y-150977142D01*
X96598571Y-150977142D01*
X95670000Y-150977142D02*
X95741428Y-151048571D01*
X95812857Y-150977142D01*
X95741428Y-150905714D01*
X95670000Y-150977142D01*
X95812857Y-150977142D01*
M02*
