M48
; DRILL file {KiCad (5.1.6)-1} date 07/12/20 11:16:26
; FORMAT={-:-/ absolute / inch / decimal}
; #@! TF.CreationDate,2020-07-12T11:16:26-05:00
; #@! TF.GenerationSoftware,Kicad,Pcbnew,(5.1.6)-1
; #@! TF.FileFunction,Plated,1,2,PTH
FMAT,2
INCH
T1C0.0315
T2C0.0394
T3C0.1260
%
G90
G05
T1
X6.2402Y-5.2193
X6.5367Y-5.2647
X3.9551Y-4.8
X4.2445Y-4.8791
X5.4223Y-5.129
X5.5295Y-4.8539
X5.0185Y-5.5539
X5.1185Y-5.552
X5.2185Y-5.55
X4.4671Y-4.4361
X4.5756Y-4.7157
X4.0996Y-5.0929
X4.3683Y-4.9705
X5.7024Y-5.1465
X5.7307Y-4.8525
X4.6554Y-4.95
X4.6709Y-5.2449
X5.7283Y-5.7591
X6.028Y-5.7742
X5.2366Y-5.0653
X5.2799Y-5.3622
X4.8611Y-4.6865
X4.8846Y-4.3874
X5.2236Y-5.8858
X5.5203Y-5.9302
X5.1994Y-4.6998
X5.2988Y-4.6894
X5.3983Y-4.6789
X6.0991Y-5.3649
X6.1453Y-5.0732
X4.8693Y-5.0874
X4.8744Y-4.7921
X5.3201Y-5.7732
X5.419Y-5.7584
X5.5179Y-5.7437
X5.5784Y-5.5996
X5.6484Y-5.8913
X5.089Y-4.7626
X5.1281Y-4.4652
X5.7366Y-5.635
X6.0358Y-5.657
X6.2165Y-5.385
X6.5095Y-5.4495
X4.2843Y-5.5945
X4.3604Y-5.8847
X4.381Y-5.5691
X4.4571Y-5.8593
X4.4777Y-5.5437
X4.5538Y-5.8339
X4.5744Y-5.5184
X4.6506Y-5.8085
X4.2138Y-5.2319
X4.5024Y-5.1502
X5.9228Y-5.3181
X5.926Y-5.2181
X5.9291Y-5.1182
X5.4724Y-5.3063
X5.7724Y-5.3063
X5.6319Y-5.4732
X5.9262Y-5.4974
X4.6966Y-5.4706
X4.9894Y-5.4051
X6.1004Y-4.8173
X6.3949Y-4.7601
X4.6913Y-4.813
X4.7125Y-4.5185
X6.4694Y-5.7874
X6.485Y-5.6886
X6.5007Y-5.5898
X3.9169Y-5.115
X4.0199Y-5.3917
X5.1112Y-4.9328
X5.2106Y-4.922
X5.31Y-4.9112
X6.2559Y-5.0646
X6.5499Y-5.0048
X4.8495Y-5.3145
X4.9402Y-5.2724
X5.0309Y-5.2303
X4.2876Y-4.5432
X4.4303Y-4.8071
X5.1075Y-5.9921
X5.1466Y-5.6947
X4.2331Y-5.4067
X4.5184Y-5.3308
X5.7628Y-5.917
X5.8346Y-5.9866
X5.9065Y-6.0562
X6.212Y-5.8484
X6.2299Y-5.75
X6.2478Y-5.6516
X5.9078Y-5.0218
X5.9303Y-4.9244
X5.9528Y-4.827
T2
X3.8972Y-5.6718
X4.0933Y-5.689
X4.4524Y-6.0221
X4.5498Y-5.9996
X5.7495Y-4.5859
X5.8461Y-4.6118
T3
X6.4913Y-6.0969
X3.889Y-6.0969
X3.889Y-4.4925
X6.4913Y-4.4925
T0
M30
