%TF.GenerationSoftware,KiCad,Pcbnew,(5.1.6)-1*%
%TF.CreationDate,2020-07-12T11:16:24-05:00*%
%TF.ProjectId,Bird Monk Train,42697264-204d-46f6-9e6b-20547261696e,rev?*%
%TF.SameCoordinates,Original*%
%TF.FileFunction,Soldermask,Top*%
%TF.FilePolarity,Negative*%
%FSLAX46Y46*%
G04 Gerber Fmt 4.6, Leading zero omitted, Abs format (unit mm)*
G04 Created by KiCad (PCBNEW (5.1.6)-1) date 2020-07-12 11:16:24*
%MOMM*%
%LPD*%
G01*
G04 APERTURE LIST*
%ADD10C,6.500000*%
%ADD11C,1.700000*%
%ADD12O,1.700000X1.700000*%
%ADD13C,0.100000*%
%ADD14C,1.600000*%
%ADD15C,2.100000*%
G04 APERTURE END LIST*
D10*
%TO.C,.*%
X98780000Y-114110000D03*
%TD*%
%TO.C,.*%
X98780000Y-154860000D03*
%TD*%
%TO.C,.*%
X164880000Y-114110000D03*
%TD*%
%TO.C,.*%
X164880000Y-154860000D03*
%TD*%
D11*
%TO.C,*%
X157900000Y-136780000D03*
G36*
G01*
X164512072Y-138233758D02*
X164512072Y-138233758D01*
G75*
G02*
X165524768Y-137586112I830171J-182525D01*
G01*
X165524768Y-137586112D01*
G75*
G02*
X166172414Y-138598808I-182525J-830171D01*
G01*
X166172414Y-138598808D01*
G75*
G02*
X165159718Y-139246454I-830171J182525D01*
G01*
X165159718Y-139246454D01*
G75*
G02*
X164512072Y-138233758I182525J830171D01*
G01*
G37*
%TD*%
%TO.C,*%
G36*
G01*
X165192103Y-133594035D02*
X165192103Y-133594035D01*
G75*
G02*
X166160895Y-132882387I840220J-128572D01*
G01*
X166160895Y-132882387D01*
G75*
G02*
X166872543Y-133851179I-128572J-840220D01*
G01*
X166872543Y-133851179D01*
G75*
G02*
X165903751Y-134562827I-840220J128572D01*
G01*
X165903751Y-134562827D01*
G75*
G02*
X165192103Y-133594035I128572J840220D01*
G01*
G37*
X158500000Y-132570000D03*
%TD*%
%TO.C,*%
G36*
G01*
X165534090Y-127290279D02*
X165534090Y-127290279D01*
G75*
G02*
X166197563Y-126287880I832936J169463D01*
G01*
X166197563Y-126287880D01*
G75*
G02*
X167199962Y-126951353I169463J-832936D01*
G01*
X167199962Y-126951353D01*
G75*
G02*
X166536489Y-127953752I-832936J-169463D01*
G01*
X166536489Y-127953752D01*
G75*
G02*
X165534090Y-127290279I-169463J832936D01*
G01*
G37*
X158900000Y-128640000D03*
%TD*%
%TO.C,*%
G36*
G01*
X161595616Y-121068223D02*
X161595616Y-121068223D01*
G75*
G02*
X162267811Y-120071652I834383J162188D01*
G01*
X162267811Y-120071652D01*
G75*
G02*
X163264382Y-120743847I162188J-834383D01*
G01*
X163264382Y-120743847D01*
G75*
G02*
X162592187Y-121740418I-834383J-162188D01*
G01*
X162592187Y-121740418D01*
G75*
G02*
X161595616Y-121068223I-162188J834383D01*
G01*
G37*
X154950000Y-122360000D03*
%TD*%
D12*
%TO.C,*%
X146620000Y-134780000D03*
D11*
X139000000Y-134780000D03*
%TD*%
%TO.C,*%
G36*
G01*
X152461819Y-143625823D02*
X152461819Y-143625823D01*
G75*
G02*
X153371788Y-142840358I847717J-62252D01*
G01*
X153371788Y-142840358D01*
G75*
G02*
X154157253Y-143750327I-62252J-847717D01*
G01*
X154157253Y-143750327D01*
G75*
G02*
X153247284Y-144535792I-847717J62252D01*
G01*
X153247284Y-144535792D01*
G75*
G02*
X152461819Y-143625823I62252J847717D01*
G01*
G37*
X145710000Y-143130000D03*
%TD*%
%TO.C,*%
G36*
G01*
X152261331Y-146622514D02*
X152261331Y-146622514D01*
G75*
G02*
X153153246Y-145816607I848911J-43004D01*
G01*
X153153246Y-145816607D01*
G75*
G02*
X153959153Y-146708522I-43004J-848911D01*
G01*
X153959153Y-146708522D01*
G75*
G02*
X153067238Y-147514429I-848911J43004D01*
G01*
X153067238Y-147514429D01*
G75*
G02*
X152261331Y-146622514I43004J848911D01*
G01*
G37*
X145500000Y-146280000D03*
%TD*%
%TO.C,*%
X154916741Y-136267664D03*
G36*
G01*
X155957031Y-129699534D02*
X155957031Y-129699534D01*
G75*
G02*
X155250465Y-128727030I132969J839535D01*
G01*
X155250465Y-128727030D01*
G75*
G02*
X156222969Y-128020464I839535J-132969D01*
G01*
X156222969Y-128020464D01*
G75*
G02*
X156929535Y-128992968I-132969J-839535D01*
G01*
X156929535Y-128992968D01*
G75*
G02*
X155957031Y-129699534I-839535J132969D01*
G01*
G37*
%TD*%
%TO.C,*%
X144840000Y-130720000D03*
G36*
G01*
X145477374Y-124100616D02*
X145477374Y-124100616D01*
G75*
G02*
X144712756Y-123173060I81469J846087D01*
G01*
X144712756Y-123173060D01*
G75*
G02*
X145640312Y-122408442I846087J-81469D01*
G01*
X145640312Y-122408442D01*
G75*
G02*
X146404930Y-123335998I-81469J-846087D01*
G01*
X146404930Y-123335998D01*
G75*
G02*
X145477374Y-124100616I-846087J81469D01*
G01*
G37*
%TD*%
%TO.C,*%
X137725615Y-130277685D03*
G36*
G01*
X140141236Y-124081938D02*
X140141236Y-124081938D01*
G75*
G02*
X139658062Y-122981236I308764J791938D01*
G01*
X139658062Y-122981236D01*
G75*
G02*
X140758764Y-122498062I791938J-308764D01*
G01*
X140758764Y-122498062D01*
G75*
G02*
X141241938Y-123598764I-308764J-791938D01*
G01*
X141241938Y-123598764D01*
G75*
G02*
X140141236Y-124081938I-791938J308764D01*
G01*
G37*
%TD*%
D13*
%TO.C,*%
G36*
X150241919Y-123204635D02*
G01*
X150601841Y-121645643D01*
X152160833Y-122005565D01*
X151800911Y-123564557D01*
X150241919Y-123204635D01*
G37*
D14*
X150058625Y-127554900D03*
X150630000Y-125080000D03*
%TD*%
D11*
%TO.C,*%
X143050000Y-139020000D03*
G36*
G01*
X149677639Y-139564891D02*
X149677639Y-139564891D01*
G75*
G02*
X150594429Y-138787397I847142J-69648D01*
G01*
X150594429Y-138787397D01*
G75*
G02*
X151371923Y-139704187I-69648J-847142D01*
G01*
X151371923Y-139704187D01*
G75*
G02*
X150455133Y-140481681I-847142J69648D01*
G01*
X150455133Y-140481681D01*
G75*
G02*
X149677639Y-139564891I69648J847142D01*
G01*
G37*
%TD*%
D13*
%TO.C,*%
G36*
X151264951Y-134304270D02*
G01*
X151214694Y-135903481D01*
X149615483Y-135853224D01*
X149665740Y-134254013D01*
X151264951Y-134304270D01*
G37*
D14*
X150599784Y-130001254D03*
X150520000Y-132540000D03*
%TD*%
%TO.C,*%
X164720001Y-144490000D03*
X165117343Y-141981271D03*
D13*
G36*
X165237954Y-146333725D02*
G01*
X164987659Y-147914026D01*
X163407358Y-147663731D01*
X163657653Y-146083430D01*
X165237954Y-146333725D01*
G37*
%TD*%
%TO.C,*%
G36*
X158715992Y-147905002D02*
G01*
X158429908Y-149479218D01*
X156855692Y-149193134D01*
X157141776Y-147618918D01*
X158715992Y-147905002D01*
G37*
D14*
X158694157Y-143550932D03*
X158240000Y-146050000D03*
%TD*%
D13*
%TO.C,*%
G36*
X150006270Y-152696388D02*
G01*
X151155272Y-153809848D01*
X150041812Y-154958850D01*
X148892810Y-153845390D01*
X150006270Y-152696388D01*
G37*
D14*
X146375959Y-150292382D03*
X148200000Y-152060000D03*
%TD*%
%TO.C,*%
G36*
G01*
X141889575Y-143057055D02*
X141889575Y-143057055D01*
G75*
G02*
X140864632Y-142428970I-198429J826514D01*
G01*
X140864632Y-142428970D01*
G75*
G02*
X141492717Y-141404027I826514J198429D01*
G01*
X141492717Y-141404027D01*
G75*
G02*
X142517660Y-142032112I198429J-826514D01*
G01*
X142517660Y-142032112D01*
G75*
G02*
X141889575Y-143057055I-826514J-198429D01*
G01*
G37*
D11*
X143470000Y-149640000D03*
%TD*%
%TO.C,*%
G36*
G01*
X133520663Y-149625638D02*
X133520663Y-149625638D01*
G75*
G02*
X132554362Y-150340663I-840663J125638D01*
G01*
X132554362Y-150340663D01*
G75*
G02*
X131839337Y-149374362I125638J840663D01*
G01*
X131839337Y-149374362D01*
G75*
G02*
X132805638Y-148659337I840663J-125638D01*
G01*
X132805638Y-148659337D01*
G75*
G02*
X133520663Y-149625638I-125638J-840663D01*
G01*
G37*
X140216301Y-150626308D03*
%TD*%
D14*
%TO.C,*%
X137642100Y-146264564D03*
X140154201Y-145889128D03*
D13*
G36*
X136039460Y-147312965D02*
G01*
X134457035Y-147549460D01*
X134220540Y-145967035D01*
X135802965Y-145730540D01*
X136039460Y-147312965D01*
G37*
%TD*%
%TO.C,*%
G36*
G01*
X130613663Y-145487918D02*
X130613663Y-145487918D01*
G75*
G02*
X129881882Y-144534243I110947J842728D01*
G01*
X129881882Y-144534243D01*
G75*
G02*
X130835557Y-143802462I842728J-110947D01*
G01*
X130835557Y-143802462D01*
G75*
G02*
X131567338Y-144756137I-110947J-842728D01*
G01*
X131567338Y-144756137D01*
G75*
G02*
X130613663Y-145487918I-842728J110947D01*
G01*
G37*
D11*
X129730000Y-152200000D03*
%TD*%
%TO.C,2073*%
G36*
G01*
X109035693Y-142922178D02*
X109035693Y-142922178D01*
G75*
G02*
X107997821Y-142315694I-215694J822178D01*
G01*
X107997821Y-142315694D01*
G75*
G02*
X108604305Y-141277822I822178J215694D01*
G01*
X108604305Y-141277822D01*
G75*
G02*
X109642177Y-141884306I215694J-822178D01*
G01*
X109642177Y-141884306D01*
G75*
G02*
X109035693Y-142922178I-822178J-215694D01*
G01*
G37*
G36*
G01*
X118339910Y-148359121D02*
X118339910Y-148359121D01*
G75*
G02*
X117302038Y-147752637I-215694J822178D01*
G01*
X117302038Y-147752637D01*
G75*
G02*
X117908522Y-146714765I822178J215694D01*
G01*
X117908522Y-146714765D01*
G75*
G02*
X118946394Y-147321249I215694J-822178D01*
G01*
X118946394Y-147321249D01*
G75*
G02*
X118339910Y-148359121I-822178J-215694D01*
G01*
G37*
G36*
G01*
X111492555Y-142277634D02*
X111492555Y-142277634D01*
G75*
G02*
X110454683Y-141671150I-215694J822178D01*
G01*
X110454683Y-141671150D01*
G75*
G02*
X111061167Y-140633278I822178J215694D01*
G01*
X111061167Y-140633278D01*
G75*
G02*
X112099039Y-141239762I215694J-822178D01*
G01*
X112099039Y-141239762D01*
G75*
G02*
X111492555Y-142277634I-822178J-215694D01*
G01*
G37*
G36*
G01*
X115883050Y-149003668D02*
X115883050Y-149003668D01*
G75*
G02*
X114845178Y-148397184I-215694J822178D01*
G01*
X114845178Y-148397184D01*
G75*
G02*
X115451662Y-147359312I822178J215694D01*
G01*
X115451662Y-147359312D01*
G75*
G02*
X116489534Y-147965796I215694J-822178D01*
G01*
X116489534Y-147965796D01*
G75*
G02*
X115883050Y-149003668I-822178J-215694D01*
G01*
G37*
G36*
G01*
X113949415Y-141633087D02*
X113949415Y-141633087D01*
G75*
G02*
X112911543Y-141026603I-215694J822178D01*
G01*
X112911543Y-141026603D01*
G75*
G02*
X113518027Y-139988731I822178J215694D01*
G01*
X113518027Y-139988731D01*
G75*
G02*
X114555899Y-140595215I215694J-822178D01*
G01*
X114555899Y-140595215D01*
G75*
G02*
X113949415Y-141633087I-822178J-215694D01*
G01*
G37*
G36*
G01*
X113426190Y-149648213D02*
X113426190Y-149648213D01*
G75*
G02*
X112388318Y-149041729I-215694J822178D01*
G01*
X112388318Y-149041729D01*
G75*
G02*
X112994802Y-148003857I822178J215694D01*
G01*
X112994802Y-148003857D01*
G75*
G02*
X114032674Y-148610341I215694J-822178D01*
G01*
X114032674Y-148610341D01*
G75*
G02*
X113426190Y-149648213I-822178J-215694D01*
G01*
G37*
G36*
G01*
X116406275Y-140988542D02*
X116406275Y-140988542D01*
G75*
G02*
X115368403Y-140382058I-215694J822178D01*
G01*
X115368403Y-140382058D01*
G75*
G02*
X115974887Y-139344186I822178J215694D01*
G01*
X115974887Y-139344186D01*
G75*
G02*
X117012759Y-139950670I215694J-822178D01*
G01*
X117012759Y-139950670D01*
G75*
G02*
X116406275Y-140988542I-822178J-215694D01*
G01*
G37*
D13*
G36*
X111791508Y-150077063D02*
G01*
X110147153Y-150508452D01*
X109715764Y-148864097D01*
X111360119Y-148432708D01*
X111791508Y-150077063D01*
G37*
%TD*%
%TO.C,*%
G36*
G01*
X115767356Y-153266933D02*
X115767356Y-153266933D01*
G75*
G02*
X114687967Y-152592456I-202456J876933D01*
G01*
X114687967Y-152592456D01*
G75*
G02*
X115362444Y-151513067I876933J202456D01*
G01*
X115362444Y-151513067D01*
G75*
G02*
X116441833Y-152187544I202456J-876933D01*
G01*
X116441833Y-152187544D01*
G75*
G02*
X115767356Y-153266933I-876933J-202456D01*
G01*
G37*
G36*
X114169389Y-153635853D02*
G01*
X112415523Y-154040765D01*
X112010611Y-152286899D01*
X113764477Y-151881987D01*
X114169389Y-153635853D01*
G37*
%TD*%
%TO.C,*%
G36*
G01*
X123693942Y-128368988D02*
X123693942Y-128368988D01*
G75*
G02*
X124528978Y-129233694I-14835J-849871D01*
G01*
X124528978Y-129233694D01*
G75*
G02*
X123664272Y-130068730I-849871J14835D01*
G01*
X123664272Y-130068730D01*
G75*
G02*
X122829236Y-129204024I14835J849871D01*
G01*
X122829236Y-129204024D01*
G75*
G02*
X123693942Y-128368988I849871J-14835D01*
G01*
G37*
D11*
X123810000Y-121720000D03*
%TD*%
%TO.C,*%
G36*
G01*
X130143663Y-114257918D02*
X130143663Y-114257918D01*
G75*
G02*
X129411882Y-113304243I110947J842728D01*
G01*
X129411882Y-113304243D01*
G75*
G02*
X130365557Y-112572462I842728J-110947D01*
G01*
X130365557Y-112572462D01*
G75*
G02*
X131097338Y-113526137I-110947J-842728D01*
G01*
X131097338Y-113526137D01*
G75*
G02*
X130143663Y-114257918I-842728J110947D01*
G01*
G37*
X129260000Y-120970000D03*
%TD*%
%TO.C,*%
G36*
G01*
X124003310Y-112287380D02*
X124003310Y-112287380D01*
G75*
G02*
X123222620Y-111373310I66690J847380D01*
G01*
X123222620Y-111373310D01*
G75*
G02*
X124136690Y-110592620I847380J-66690D01*
G01*
X124136690Y-110592620D01*
G75*
G02*
X124917380Y-111506690I-66690J-847380D01*
G01*
X124917380Y-111506690D01*
G75*
G02*
X124003310Y-112287380I-847380J66690D01*
G01*
G37*
X123472142Y-119036510D03*
%TD*%
%TO.C,*%
G36*
G01*
X119635458Y-115617019D02*
X119635458Y-115617019D01*
G75*
G02*
X118848406Y-114708421I60773J847825D01*
G01*
X118848406Y-114708421D01*
G75*
G02*
X119757004Y-113921369I847825J-60773D01*
G01*
X119757004Y-113921369D01*
G75*
G02*
X120544056Y-114829967I-60773J-847825D01*
G01*
X120544056Y-114829967D01*
G75*
G02*
X119635458Y-115617019I-847825J60773D01*
G01*
G37*
X119160000Y-122250000D03*
%TD*%
%TO.C,*%
G36*
G01*
X113771802Y-113468168D02*
X113771802Y-113468168D01*
G75*
G02*
X112671946Y-112983074I-307381J792475D01*
G01*
X112671946Y-112983074D01*
G75*
G02*
X113157040Y-111883218I792475J307381D01*
G01*
X113157040Y-111883218D01*
G75*
G02*
X114256896Y-112368312I307381J-792475D01*
G01*
X114256896Y-112368312D01*
G75*
G02*
X113771802Y-113468168I-792475J-307381D01*
G01*
G37*
X116220000Y-119780000D03*
%TD*%
%TO.C,*%
X112530000Y-122100000D03*
G36*
G01*
X109310025Y-116144779D02*
X109310025Y-116144779D01*
G75*
G02*
X108158043Y-115801359I-404281J747701D01*
G01*
X108158043Y-115801359D01*
G75*
G02*
X108501463Y-114649377I747701J404281D01*
G01*
X108501463Y-114649377D01*
G75*
G02*
X109653445Y-114992797I404281J-747701D01*
G01*
X109653445Y-114992797D01*
G75*
G02*
X109310025Y-116144779I-747701J-404281D01*
G01*
G37*
%TD*%
%TO.C,*%
G36*
G01*
X133132709Y-129500910D02*
X133132709Y-129500910D01*
G75*
G02*
X132168909Y-128782516I-122703J841097D01*
G01*
X132168909Y-128782516D01*
G75*
G02*
X132887303Y-127818716I841097J122703D01*
G01*
X132887303Y-127818716D01*
G75*
G02*
X133851103Y-128537110I122703J-841097D01*
G01*
X133851103Y-128537110D01*
G75*
G02*
X133132709Y-129500910I-841097J-122703D01*
G01*
G37*
X134110000Y-136200000D03*
%TD*%
D13*
%TO.C,*%
G36*
X128285679Y-141853257D02*
G01*
X126685973Y-141883973D01*
X126655257Y-140284267D01*
X128254963Y-140253551D01*
X128285679Y-141853257D01*
G37*
D14*
X132549532Y-140971239D03*
X130010000Y-141020000D03*
%TD*%
D13*
%TO.C,REF\u002A\u002A*%
G36*
X124238572Y-135378238D02*
G01*
X122787301Y-136051895D01*
X122113644Y-134600624D01*
X123564915Y-133926967D01*
X124238572Y-135378238D01*
G37*
D14*
X127783892Y-132850569D03*
X125480000Y-133920000D03*
%TD*%
D11*
%TO.C,REF\u002A\u002A*%
X119293514Y-138952251D03*
G36*
G01*
X125900471Y-137475422D02*
X125900471Y-137475422D01*
G75*
G02*
X126544578Y-136460471I829529J185422D01*
G01*
X126544578Y-136460471D01*
G75*
G02*
X127559529Y-137104578I185422J-829529D01*
G01*
X127559529Y-137104578D01*
G75*
G02*
X126915422Y-138119529I-829529J-185422D01*
G01*
X126915422Y-138119529D01*
G75*
G02*
X125900471Y-137475422I-185422J829529D01*
G01*
G37*
%TD*%
%TO.C,10k*%
G36*
G01*
X101279946Y-122143579D02*
X101279946Y-122143579D01*
G75*
G02*
X100235780Y-122739161I-819874J224292D01*
G01*
X100235780Y-122739161D01*
G75*
G02*
X99640198Y-121694995I224292J819874D01*
G01*
X99640198Y-121694995D01*
G75*
G02*
X100684364Y-121099413I819874J-224292D01*
G01*
X100684364Y-121099413D01*
G75*
G02*
X101279946Y-122143579I-224292J-819874D01*
G01*
G37*
X107810000Y-123930000D03*
%TD*%
%TO.C,*%
X118247480Y-125730000D03*
G36*
G01*
X118595514Y-132370888D02*
X118595514Y-132370888D01*
G75*
G02*
X119488835Y-133175237I44486J-848835D01*
G01*
X119488835Y-133175237D01*
G75*
G02*
X118684486Y-134068558I-848835J-44486D01*
G01*
X118684486Y-134068558D01*
G75*
G02*
X117791165Y-133264209I-44486J848835D01*
G01*
X117791165Y-133264209D01*
G75*
G02*
X118595514Y-132370888I848835J44486D01*
G01*
G37*
%TD*%
%TO.C,*%
G36*
G01*
X113946402Y-135620067D02*
X113946402Y-135620067D01*
G75*
G02*
X114549259Y-134580084I821420J218563D01*
G01*
X114549259Y-134580084D01*
G75*
G02*
X115589242Y-135182941I218563J-821420D01*
G01*
X115589242Y-135182941D01*
G75*
G02*
X114986385Y-136222924I-821420J-218563D01*
G01*
X114986385Y-136222924D01*
G75*
G02*
X113946402Y-135620067I-218563J821420D01*
G01*
G37*
X107520000Y-137330000D03*
%TD*%
%TO.C,470K*%
G36*
G01*
X113544216Y-131046663D02*
X113544216Y-131046663D01*
G75*
G02*
X114130663Y-129997340I817885J231438D01*
G01*
X114130663Y-129997340D01*
G75*
G02*
X115179986Y-130583787I231438J-817885D01*
G01*
X115179986Y-130583787D01*
G75*
G02*
X114593539Y-131633110I-817885J-231438D01*
G01*
X114593539Y-131633110D01*
G75*
G02*
X113544216Y-131046663I-231438J817885D01*
G01*
G37*
X107030000Y-132890000D03*
%TD*%
%TO.C,SPKIN*%
X104130000Y-129360000D03*
G36*
G01*
X110181243Y-126602289D02*
X110181243Y-126602289D01*
G75*
G02*
X110602221Y-125476333I773467J352489D01*
G01*
X110602221Y-125476333D01*
G75*
G02*
X111728177Y-125897311I352489J-773467D01*
G01*
X111728177Y-125897311D01*
G75*
G02*
X111307199Y-127023267I-773467J-352489D01*
G01*
X111307199Y-127023267D01*
G75*
G02*
X110181243Y-126602289I-352489J773467D01*
G01*
G37*
%TD*%
%TO.C,*%
X99490000Y-129920000D03*
G36*
G01*
X101808005Y-136152926D02*
X101808005Y-136152926D01*
G75*
G02*
X102900981Y-136653330I296286J-796690D01*
G01*
X102900981Y-136653330D01*
G75*
G02*
X102400577Y-137746306I-796690J-296286D01*
G01*
X102400577Y-137746306D01*
G75*
G02*
X101307601Y-137245902I-296286J796690D01*
G01*
X101307601Y-137245902D01*
G75*
G02*
X101808005Y-136152926I796690J296286D01*
G01*
G37*
%TD*%
D15*
%TO.C,REF\u002A\u002A*%
X98989027Y-144064221D03*
D13*
G36*
X105107518Y-143545509D02*
G01*
X104924491Y-145637518D01*
X102832482Y-145454491D01*
X103015509Y-143362482D01*
X105107518Y-143545509D01*
G37*
%TD*%
%TO.C,*%
G36*
X130706577Y-126003239D02*
G01*
X129115936Y-126176038D01*
X128943137Y-124585397D01*
X130533778Y-124412598D01*
X130706577Y-126003239D01*
G37*
D14*
X134875144Y-124745681D03*
X132350000Y-125020000D03*
%TD*%
D13*
%TO.C,REF\u002A\u002A*%
G36*
X146672944Y-117584870D02*
G01*
X144934278Y-117118996D01*
X145400152Y-115380330D01*
X147138818Y-115846204D01*
X146672944Y-117584870D01*
G37*
G36*
G01*
X148257063Y-118009333D02*
X148257063Y-118009333D01*
G75*
G02*
X147620667Y-116907063I232937J869333D01*
G01*
X147620667Y-116907063D01*
G75*
G02*
X148722937Y-116270667I869333J-232937D01*
G01*
X148722937Y-116270667D01*
G75*
G02*
X149359333Y-117372937I-232937J-869333D01*
G01*
X149359333Y-117372937D01*
G75*
G02*
X148257063Y-118009333I-869333J232937D01*
G01*
G37*
%TD*%
%TO.C,*%
G36*
X132943154Y-120087497D02*
G01*
X131351919Y-120254742D01*
X131184674Y-118663507D01*
X132775909Y-118496262D01*
X132943154Y-120087497D01*
G37*
D14*
X137116085Y-118844497D03*
X134590000Y-119110000D03*
%TD*%
M02*
