%TF.GenerationSoftware,KiCad,Pcbnew,(5.1.6)-1*%
%TF.CreationDate,2020-07-12T11:16:24-05:00*%
%TF.ProjectId,Bird Monk Train,42697264-204d-46f6-9e6b-20547261696e,rev?*%
%TF.SameCoordinates,Original*%
%TF.FileFunction,Soldermask,Bot*%
%TF.FilePolarity,Negative*%
%FSLAX46Y46*%
G04 Gerber Fmt 4.6, Leading zero omitted, Abs format (unit mm)*
G04 Created by KiCad (PCBNEW (5.1.6)-1) date 2020-07-12 11:16:24*
%MOMM*%
%LPD*%
G01*
G04 APERTURE LIST*
%ADD10C,0.010000*%
%ADD11C,6.500000*%
%ADD12C,1.700000*%
%ADD13O,1.700000X1.700000*%
%ADD14C,0.100000*%
%ADD15C,1.600000*%
%ADD16C,2.100000*%
G04 APERTURE END LIST*
D10*
%TO.C,G\u002A\u002A\u002A*%
G36*
X139835390Y-109472141D02*
G01*
X139597909Y-109538494D01*
X139371436Y-109645655D01*
X139161969Y-109790436D01*
X138975503Y-109969652D01*
X138818036Y-110180114D01*
X138744059Y-110311828D01*
X138669045Y-110478223D01*
X138610674Y-110640884D01*
X138572965Y-110786946D01*
X138559930Y-110901308D01*
X138555900Y-110945523D01*
X138534494Y-110966091D01*
X138481736Y-110971984D01*
X138449457Y-110972242D01*
X138356493Y-110983591D01*
X138293723Y-111022246D01*
X138255505Y-111095123D01*
X138236198Y-111209136D01*
X138234198Y-111236082D01*
X138233581Y-111353397D01*
X138252242Y-111451191D01*
X138280314Y-111526114D01*
X138334222Y-111621186D01*
X138410762Y-111718788D01*
X138497939Y-111806647D01*
X138583760Y-111872488D01*
X138647907Y-111902288D01*
X138707690Y-111912337D01*
X138721617Y-111901226D01*
X138689871Y-111869396D01*
X138612725Y-111817340D01*
X138525273Y-111752080D01*
X138443375Y-111673430D01*
X138410468Y-111633535D01*
X138351772Y-111527873D01*
X138309860Y-111404358D01*
X138289240Y-111281580D01*
X138294424Y-111178132D01*
X138297280Y-111166893D01*
X138319490Y-111089452D01*
X138412574Y-111216257D01*
X138464873Y-111292492D01*
X138490444Y-111349217D01*
X138495674Y-111405513D01*
X138491172Y-111451054D01*
X138486832Y-111528868D01*
X138504305Y-111582578D01*
X138535454Y-111621600D01*
X138584329Y-111664504D01*
X138623498Y-111684040D01*
X138625499Y-111684154D01*
X138653886Y-111704602D01*
X138695869Y-111757696D01*
X138733815Y-111817637D01*
X138872004Y-112011305D01*
X139049837Y-112188588D01*
X139256691Y-112340784D01*
X139481943Y-112459191D01*
X139550132Y-112486314D01*
X139640511Y-112519610D01*
X139506211Y-112521401D01*
X139406999Y-112514522D01*
X139335049Y-112499899D01*
X138979450Y-112499899D01*
X138892641Y-112546140D01*
X138837390Y-112583597D01*
X138801936Y-112634139D01*
X138774602Y-112715349D01*
X138770951Y-112729409D01*
X138736778Y-112862573D01*
X138711947Y-112953954D01*
X138693420Y-113011091D01*
X138678162Y-113041520D01*
X138663134Y-113052782D01*
X138645301Y-113052413D01*
X138641154Y-113051611D01*
X138616512Y-113037114D01*
X138603786Y-112998728D01*
X138600058Y-112924985D01*
X138600303Y-112891110D01*
X138617656Y-112735532D01*
X138663426Y-112616990D01*
X138735831Y-112538047D01*
X138833088Y-112501267D01*
X138873208Y-112498833D01*
X138979450Y-112499899D01*
X139335049Y-112499899D01*
X139311239Y-112495060D01*
X139277382Y-112483414D01*
X139204969Y-112464563D01*
X139098275Y-112450430D01*
X138973451Y-112441665D01*
X138846646Y-112438915D01*
X138734013Y-112442829D01*
X138651701Y-112454057D01*
X138638717Y-112457756D01*
X138596316Y-112467936D01*
X138591028Y-112451209D01*
X138599326Y-112430782D01*
X138612392Y-112377886D01*
X138620783Y-112297947D01*
X138622241Y-112256226D01*
X138621618Y-112226597D01*
X138590153Y-112226597D01*
X138581836Y-112290618D01*
X138553810Y-112363067D01*
X138507679Y-112431905D01*
X138506446Y-112433319D01*
X138446231Y-112495153D01*
X138409042Y-112519546D01*
X138398124Y-112506212D01*
X138416724Y-112454866D01*
X138423983Y-112440560D01*
X138459131Y-112355664D01*
X138482230Y-112269212D01*
X138506268Y-112199185D01*
X138541248Y-112172003D01*
X138577158Y-112183045D01*
X138590153Y-112226597D01*
X138621618Y-112226597D01*
X138620640Y-112180148D01*
X138609622Y-112140862D01*
X138582795Y-112124398D01*
X138559979Y-112120148D01*
X138503802Y-112096775D01*
X138437592Y-112048575D01*
X138413454Y-112025724D01*
X138297704Y-111937399D01*
X138172666Y-111895805D01*
X138044600Y-111899261D01*
X137919769Y-111946084D01*
X137804433Y-112034591D01*
X137704855Y-112163100D01*
X137670856Y-112225291D01*
X137608605Y-112380504D01*
X137588698Y-112508900D01*
X137611467Y-112612308D01*
X137677244Y-112692558D01*
X137764569Y-112742818D01*
X137831150Y-112762582D01*
X137908776Y-112774149D01*
X137981753Y-112776821D01*
X138034388Y-112769903D01*
X138051422Y-112755563D01*
X138028548Y-112740627D01*
X137969795Y-112725725D01*
X137918299Y-112717913D01*
X137788386Y-112688711D01*
X137702062Y-112636023D01*
X137656915Y-112558036D01*
X137649537Y-112516001D01*
X137660955Y-112403051D01*
X137707702Y-112277916D01*
X137782435Y-112156069D01*
X137863043Y-112066119D01*
X137931278Y-112007482D01*
X137986510Y-111976866D01*
X138050666Y-111965335D01*
X138114016Y-111963834D01*
X138204657Y-111968431D01*
X138267575Y-111987256D01*
X138325458Y-112027854D01*
X138337057Y-112038024D01*
X138403627Y-112127994D01*
X138423851Y-112234455D01*
X138397589Y-112352669D01*
X138348979Y-112443672D01*
X138285588Y-112526643D01*
X138230724Y-112565702D01*
X138176296Y-112564997D01*
X138143399Y-112549029D01*
X138106803Y-112527793D01*
X138108221Y-112536243D01*
X138134696Y-112566797D01*
X138164188Y-112607128D01*
X138157801Y-112634167D01*
X138141052Y-112649788D01*
X138108737Y-112686623D01*
X138102273Y-112704284D01*
X138119158Y-112725804D01*
X138159112Y-112718678D01*
X138206077Y-112686746D01*
X138215317Y-112677260D01*
X138266905Y-112638604D01*
X138342800Y-112600749D01*
X138371634Y-112589874D01*
X138483302Y-112551825D01*
X138445340Y-112625235D01*
X138421360Y-112697778D01*
X138408225Y-112788397D01*
X138407378Y-112814323D01*
X138403002Y-112884985D01*
X138384579Y-112921530D01*
X138344169Y-112925992D01*
X138273830Y-112900405D01*
X138203974Y-112866436D01*
X138123067Y-112826390D01*
X138077246Y-112807756D01*
X138056666Y-112808138D01*
X138051481Y-112825139D01*
X138051422Y-112829291D01*
X138072789Y-112851874D01*
X138129516Y-112888322D01*
X138210544Y-112931738D01*
X138234638Y-112943513D01*
X138323869Y-112989634D01*
X138395210Y-113032722D01*
X138435786Y-113064842D01*
X138439305Y-113069647D01*
X138478043Y-113097120D01*
X138537514Y-113107978D01*
X138614273Y-113107978D01*
X138488605Y-113254174D01*
X138403033Y-113357705D01*
X138348009Y-113436018D01*
X138317704Y-113499426D01*
X138306290Y-113558245D01*
X138305676Y-113577939D01*
X138318717Y-113657737D01*
X138361178Y-113740764D01*
X138438070Y-113834563D01*
X138544753Y-113937971D01*
X138709029Y-114086857D01*
X138720213Y-114671641D01*
X138724213Y-114841215D01*
X138729282Y-114995414D01*
X138735047Y-115126401D01*
X138741136Y-115226334D01*
X138747173Y-115287375D01*
X138750196Y-115301209D01*
X138756459Y-115333057D01*
X138727468Y-115330037D01*
X138724557Y-115328939D01*
X138691933Y-115325340D01*
X138692023Y-115347720D01*
X138720351Y-115373790D01*
X138783643Y-115408589D01*
X138868591Y-115444871D01*
X138874568Y-115447117D01*
X138968144Y-115484876D01*
X139029024Y-115520668D01*
X139073234Y-115567078D01*
X139116801Y-115636688D01*
X139117438Y-115637808D01*
X139168121Y-115718502D01*
X139219682Y-115787444D01*
X139245971Y-115815635D01*
X139286298Y-115862328D01*
X139340053Y-115938085D01*
X139396273Y-116027351D01*
X139401661Y-116036510D01*
X139495660Y-116172572D01*
X139593104Y-116267682D01*
X139690087Y-116319532D01*
X139782697Y-116325812D01*
X139846607Y-116299443D01*
X139891801Y-116244225D01*
X139907850Y-116154798D01*
X139895126Y-116027770D01*
X139888054Y-115993936D01*
X139816097Y-115993936D01*
X139794591Y-116021877D01*
X139753343Y-116056302D01*
X139704435Y-116087630D01*
X139659953Y-116106281D01*
X139646867Y-116108052D01*
X139609069Y-116101955D01*
X139602373Y-116095092D01*
X139622842Y-116071979D01*
X139672223Y-116039369D01*
X139732471Y-116007288D01*
X139785546Y-115985762D01*
X139805776Y-115982060D01*
X139816097Y-115993936D01*
X139888054Y-115993936D01*
X139882851Y-115969052D01*
X139867920Y-115892528D01*
X139867880Y-115868608D01*
X139751115Y-115868608D01*
X139749013Y-115893373D01*
X139715136Y-115930621D01*
X139663358Y-115970436D01*
X139607556Y-116002901D01*
X139561603Y-116018097D01*
X139545579Y-116015516D01*
X139552037Y-115995661D01*
X139592545Y-115959484D01*
X139632772Y-115931508D01*
X139696357Y-115893005D01*
X139740061Y-115870880D01*
X139751115Y-115868608D01*
X139867880Y-115868608D01*
X139867869Y-115862096D01*
X139880162Y-115876071D01*
X139902265Y-115932769D01*
X139921583Y-115994792D01*
X139945103Y-116124982D01*
X139937513Y-116235087D01*
X139902010Y-116318644D01*
X139841788Y-116369186D01*
X139760044Y-116380247D01*
X139733488Y-116375327D01*
X139630789Y-116328075D01*
X139524567Y-116240804D01*
X139425442Y-116122340D01*
X139420411Y-116115101D01*
X139371702Y-116054289D01*
X139337054Y-116028125D01*
X139322779Y-116037143D01*
X139335187Y-116081876D01*
X139348568Y-116109018D01*
X139398617Y-116182429D01*
X139470673Y-116265354D01*
X139549186Y-116341649D01*
X139618606Y-116395169D01*
X139630981Y-116402216D01*
X139729091Y-116433108D01*
X139828380Y-116432312D01*
X139888409Y-116411246D01*
X139953460Y-116345971D01*
X139993388Y-116247822D01*
X140003100Y-116130664D01*
X140000855Y-116105208D01*
X139978277Y-115994687D01*
X139939423Y-115878701D01*
X139910418Y-115815786D01*
X139856627Y-115815786D01*
X139843914Y-115828498D01*
X139831202Y-115815786D01*
X139843914Y-115803073D01*
X139856627Y-115815786D01*
X139910418Y-115815786D01*
X139891348Y-115774423D01*
X139885026Y-115764935D01*
X139831202Y-115764935D01*
X139818489Y-115777647D01*
X139805776Y-115764935D01*
X139818489Y-115752222D01*
X139831202Y-115764935D01*
X139885026Y-115764935D01*
X139841107Y-115699023D01*
X139828850Y-115686531D01*
X139791934Y-115645694D01*
X139704355Y-115645694D01*
X139703838Y-115696179D01*
X139689414Y-115759578D01*
X139664007Y-115818923D01*
X139651378Y-115837782D01*
X139581092Y-115893001D01*
X139495370Y-115899879D01*
X139394579Y-115858408D01*
X139372068Y-115843920D01*
X139315607Y-115796867D01*
X139256031Y-115734007D01*
X139202358Y-115666990D01*
X139163604Y-115607465D01*
X139148788Y-115567084D01*
X139151510Y-115558974D01*
X139181117Y-115556693D01*
X139249461Y-115562017D01*
X139345178Y-115573847D01*
X139418931Y-115584860D01*
X139526961Y-115601797D01*
X139615405Y-115615216D01*
X139672767Y-115623398D01*
X139688039Y-115625095D01*
X139704355Y-115645694D01*
X139791934Y-115645694D01*
X139789413Y-115642906D01*
X139789846Y-115610229D01*
X139833611Y-115577728D01*
X139869615Y-115559696D01*
X139918186Y-115531908D01*
X139951715Y-115496695D01*
X139972139Y-115445522D01*
X139981396Y-115369848D01*
X139981416Y-115275124D01*
X139737179Y-115275124D01*
X139734934Y-115294523D01*
X139734167Y-115294564D01*
X139708708Y-115274033D01*
X139683275Y-115231001D01*
X139676157Y-115212889D01*
X139561245Y-115212889D01*
X139550724Y-115218288D01*
X139528871Y-115197682D01*
X139526096Y-115180150D01*
X139531536Y-115146227D01*
X139536089Y-115142012D01*
X139552483Y-115161893D01*
X139560716Y-115180150D01*
X139561245Y-115212889D01*
X139676157Y-115212889D01*
X139665201Y-115185015D01*
X139663557Y-115167437D01*
X139682402Y-115186212D01*
X139714449Y-115231001D01*
X139737179Y-115275124D01*
X139981416Y-115275124D01*
X139981420Y-115261138D01*
X139974150Y-115110852D01*
X139973582Y-115101301D01*
X139956323Y-114812610D01*
X140318932Y-115039702D01*
X140454973Y-115124002D01*
X140554969Y-115183324D01*
X140625289Y-115220747D01*
X140672299Y-115239346D01*
X140702368Y-115242199D01*
X140720386Y-115233695D01*
X140773382Y-115194115D01*
X140797368Y-115179137D01*
X140822035Y-115169294D01*
X140809140Y-115192394D01*
X140807671Y-115194338D01*
X140767395Y-115257910D01*
X140768388Y-115296001D01*
X140814113Y-115315798D01*
X140869307Y-115322249D01*
X141119962Y-115333587D01*
X141326432Y-115327333D01*
X141492489Y-115302803D01*
X141621905Y-115259313D01*
X141718453Y-115196179D01*
X141751143Y-115162418D01*
X141780439Y-115132716D01*
X141499751Y-115132716D01*
X141478916Y-115170609D01*
X141442680Y-115210391D01*
X141395772Y-115252951D01*
X141372024Y-115260304D01*
X141362103Y-115238707D01*
X141352333Y-115212970D01*
X141329134Y-115213456D01*
X141278671Y-115241114D01*
X141272490Y-115244865D01*
X141218498Y-115270614D01*
X141185943Y-115272760D01*
X141182987Y-115268941D01*
X141154150Y-115249528D01*
X141113067Y-115243713D01*
X141061247Y-115236797D01*
X141051647Y-115220798D01*
X141078290Y-115202840D01*
X141135196Y-115190047D01*
X141159680Y-115188169D01*
X141263225Y-115183134D01*
X141329820Y-115177534D01*
X141373336Y-115169128D01*
X141407646Y-115155671D01*
X141428825Y-115144652D01*
X141482780Y-115122761D01*
X141499751Y-115132716D01*
X141780439Y-115132716D01*
X141795571Y-115117375D01*
X141827192Y-115099176D01*
X141832480Y-115100781D01*
X141830687Y-115130243D01*
X141793172Y-115174655D01*
X141729485Y-115225805D01*
X141649175Y-115275482D01*
X141602123Y-115298866D01*
X141540501Y-115324141D01*
X141479897Y-115341102D01*
X141408025Y-115351348D01*
X141312597Y-115356477D01*
X141181327Y-115358087D01*
X141146491Y-115358128D01*
X141013287Y-115358815D01*
X140924582Y-115361384D01*
X140874035Y-115366601D01*
X140855306Y-115375229D01*
X140862057Y-115388034D01*
X140866812Y-115391849D01*
X140905426Y-115407598D01*
X140974505Y-115416591D01*
X141081134Y-115419361D01*
X141204739Y-115417274D01*
X141335896Y-115412495D01*
X141430733Y-115404983D01*
X141503784Y-115391886D01*
X141569580Y-115370349D01*
X141642652Y-115337518D01*
X141664077Y-115327055D01*
X141787258Y-115253987D01*
X141862080Y-115183735D01*
X141891006Y-115120836D01*
X141876499Y-115069827D01*
X141821022Y-115035247D01*
X141727038Y-115021633D01*
X141597009Y-115033523D01*
X141514597Y-115051645D01*
X141430433Y-115072504D01*
X141365638Y-115086824D01*
X141337920Y-115091161D01*
X141335816Y-115070776D01*
X141353971Y-115017497D01*
X141386085Y-114947738D01*
X141445116Y-114787470D01*
X141450209Y-114708647D01*
X141401381Y-114708647D01*
X141384422Y-114813934D01*
X141359082Y-114879388D01*
X141326992Y-114908184D01*
X141285787Y-114914084D01*
X141176690Y-114939860D01*
X141079097Y-115014627D01*
X141052822Y-115045510D01*
X141000039Y-115095128D01*
X140961020Y-115100769D01*
X140943866Y-115065547D01*
X140952222Y-115006859D01*
X140973656Y-114886494D01*
X140958375Y-114790460D01*
X140911861Y-114714510D01*
X140848376Y-114639062D01*
X140951875Y-114484071D01*
X141005651Y-114406265D01*
X141050700Y-114345977D01*
X141078012Y-114315210D01*
X141079387Y-114314240D01*
X141116889Y-114317014D01*
X141176796Y-114345914D01*
X141244786Y-114391898D01*
X141306537Y-114445920D01*
X141330217Y-114472633D01*
X141385169Y-114581113D01*
X141401381Y-114708647D01*
X141450209Y-114708647D01*
X141454800Y-114637596D01*
X141415213Y-114496536D01*
X141407889Y-114481561D01*
X141372773Y-114381906D01*
X141371330Y-114310952D01*
X141370289Y-114239385D01*
X141351949Y-114195025D01*
X141309291Y-114163664D01*
X141229108Y-114125262D01*
X141123466Y-114084015D01*
X141004433Y-114044121D01*
X140884077Y-114009778D01*
X140774465Y-113985183D01*
X140727723Y-113977886D01*
X140581252Y-113959663D01*
X140491406Y-113801335D01*
X140404577Y-113801335D01*
X140400330Y-113811008D01*
X140390561Y-113818315D01*
X140341163Y-113842740D01*
X140255939Y-113874780D01*
X140148509Y-113910193D01*
X140032497Y-113944736D01*
X139921523Y-113974167D01*
X139829211Y-113994244D01*
X139821218Y-113995626D01*
X139736991Y-114006159D01*
X139634174Y-114013866D01*
X139524367Y-114018574D01*
X139419172Y-114020108D01*
X139330188Y-114018296D01*
X139269016Y-114012962D01*
X139247225Y-114004224D01*
X139261706Y-113970873D01*
X139283525Y-113938315D01*
X139311541Y-113881962D01*
X139333350Y-113805747D01*
X139335231Y-113795497D01*
X139351447Y-113699517D01*
X139526585Y-113690356D01*
X139272191Y-113690356D01*
X139265156Y-113817000D01*
X139262968Y-113826359D01*
X139218054Y-113912251D01*
X139135252Y-113989760D01*
X139027450Y-114047717D01*
X138994711Y-114058869D01*
X138918895Y-114078241D01*
X138865710Y-114077976D01*
X138810056Y-114055978D01*
X138782403Y-114041134D01*
X138723859Y-114004556D01*
X138690224Y-113975289D01*
X138687057Y-113968413D01*
X138707219Y-113943844D01*
X138755831Y-113912547D01*
X138756977Y-113911947D01*
X138802766Y-113880765D01*
X138734489Y-113880765D01*
X138706126Y-113904753D01*
X138641276Y-113917702D01*
X138580449Y-113895447D01*
X138512975Y-113836622D01*
X138464564Y-113782623D01*
X138449412Y-113749723D01*
X138462713Y-113725303D01*
X138468629Y-113720107D01*
X138523240Y-113700790D01*
X138592526Y-113724545D01*
X138667988Y-113781199D01*
X138723686Y-113840139D01*
X138734489Y-113880765D01*
X138802766Y-113880765D01*
X138823241Y-113866822D01*
X138887832Y-113807430D01*
X138890461Y-113804526D01*
X138954024Y-113733480D01*
X138882425Y-113778372D01*
X138840459Y-113802302D01*
X138807839Y-113806457D01*
X138769041Y-113786838D01*
X138708545Y-113739447D01*
X138698091Y-113730885D01*
X138626525Y-113667783D01*
X138593231Y-113621947D01*
X138594226Y-113582354D01*
X138625525Y-113537978D01*
X138627576Y-113535700D01*
X138654778Y-113495723D01*
X138656221Y-113475473D01*
X138634509Y-113486400D01*
X138590640Y-113528095D01*
X138534119Y-113591522D01*
X138466961Y-113664124D01*
X138420275Y-113697979D01*
X138401229Y-113696784D01*
X138381068Y-113647279D01*
X138378356Y-113571265D01*
X138391727Y-113489478D01*
X138419208Y-113423573D01*
X138470460Y-113358751D01*
X138545787Y-113278287D01*
X138629271Y-113197946D01*
X138704991Y-113133490D01*
X138731440Y-113114424D01*
X138812184Y-113089590D01*
X138909403Y-113102291D01*
X139008662Y-113149684D01*
X139043515Y-113175865D01*
X139128216Y-113273098D01*
X139198226Y-113402117D01*
X139248050Y-113546633D01*
X139272191Y-113690356D01*
X139526585Y-113690356D01*
X139596863Y-113686680D01*
X139710465Y-113681300D01*
X139786529Y-113681174D01*
X139838297Y-113688863D01*
X139879013Y-113706928D01*
X139921918Y-113737928D01*
X139941040Y-113753223D01*
X140015447Y-113804424D01*
X140087065Y-113827645D01*
X140170686Y-113832602D01*
X140260486Y-113828560D01*
X140338867Y-113818313D01*
X140365136Y-113811868D01*
X140404577Y-113801335D01*
X140491406Y-113801335D01*
X140475232Y-113772834D01*
X140391649Y-113596583D01*
X140351947Y-113432629D01*
X140355351Y-113268944D01*
X140401088Y-113093500D01*
X140427178Y-113026551D01*
X140449133Y-112957987D01*
X140454534Y-112905339D01*
X140452715Y-112897356D01*
X140458283Y-112853355D01*
X140475981Y-112831260D01*
X140501040Y-112821682D01*
X140542880Y-112826569D01*
X140609413Y-112848285D01*
X140708550Y-112889192D01*
X140788600Y-112924663D01*
X140910360Y-112980910D01*
X140994666Y-113024726D01*
X141051241Y-113062658D01*
X141089809Y-113101249D01*
X141120095Y-113147045D01*
X141120778Y-113148248D01*
X141179894Y-113298179D01*
X141194228Y-113451396D01*
X141166266Y-113598772D01*
X141098495Y-113731177D01*
X140993401Y-113839483D01*
X140919889Y-113885835D01*
X140874095Y-113918081D01*
X140860579Y-113945947D01*
X140861543Y-113948006D01*
X140893390Y-113957772D01*
X140947725Y-113935608D01*
X141015238Y-113889265D01*
X141086615Y-113826496D01*
X141152546Y-113755051D01*
X141203718Y-113682681D01*
X141220644Y-113649085D01*
X141249120Y-113533787D01*
X141253621Y-113397159D01*
X141234977Y-113262262D01*
X141203442Y-113170027D01*
X141146100Y-113080506D01*
X141060772Y-112982726D01*
X140957365Y-112884696D01*
X140845790Y-112794430D01*
X140803424Y-112765696D01*
X140364372Y-112765696D01*
X140361550Y-112850041D01*
X140360280Y-112870456D01*
X140349377Y-112973846D01*
X140330700Y-113037749D01*
X140302782Y-113072099D01*
X140252409Y-113095110D01*
X140243550Y-113088590D01*
X140008621Y-113088590D01*
X139988607Y-113127465D01*
X139936507Y-113176200D01*
X139901121Y-113200881D01*
X139833433Y-113246147D01*
X139740362Y-113311793D01*
X139636830Y-113387192D01*
X139579426Y-113430028D01*
X139489842Y-113496414D01*
X139415331Y-113549497D01*
X139365090Y-113582853D01*
X139348884Y-113591061D01*
X139332712Y-113568933D01*
X139308555Y-113511774D01*
X139288932Y-113454498D01*
X139237366Y-113338798D01*
X139161203Y-113225487D01*
X139072311Y-113129181D01*
X138982559Y-113064493D01*
X138966008Y-113056825D01*
X138916651Y-113032325D01*
X138897530Y-113002026D01*
X138900185Y-112947102D01*
X138904477Y-112919895D01*
X138916720Y-112853356D01*
X138926610Y-112812543D01*
X138928771Y-112807724D01*
X138954987Y-112809586D01*
X139015212Y-112822629D01*
X139072062Y-112837427D01*
X139169872Y-112862431D01*
X139265014Y-112883665D01*
X139303624Y-112890935D01*
X139375206Y-112915936D01*
X139399723Y-112956250D01*
X139377006Y-113007533D01*
X139310295Y-113063250D01*
X139247591Y-113109953D01*
X139221184Y-113143449D01*
X139234862Y-113158486D01*
X139241361Y-113158829D01*
X139269892Y-113146814D01*
X139333443Y-113113953D01*
X139423106Y-113065021D01*
X139529978Y-113004794D01*
X139549585Y-112993563D01*
X139660178Y-112931596D01*
X139756938Y-112880219D01*
X139830369Y-112844273D01*
X139870975Y-112828601D01*
X139873702Y-112828298D01*
X139903830Y-112849876D01*
X139940716Y-112903833D01*
X139975982Y-112974001D01*
X140001247Y-113044215D01*
X140008621Y-113088590D01*
X140243550Y-113088590D01*
X140222819Y-113073333D01*
X140212117Y-113005229D01*
X140212025Y-112998419D01*
X140193108Y-112888775D01*
X140144600Y-112778959D01*
X140076735Y-112688578D01*
X140031154Y-112651939D01*
X139986005Y-112621273D01*
X139975773Y-112600373D01*
X140005068Y-112584462D01*
X140078498Y-112568766D01*
X140117914Y-112562033D01*
X140184953Y-112556708D01*
X140234738Y-112574289D01*
X140291238Y-112623363D01*
X140292438Y-112624562D01*
X140334580Y-112670225D01*
X140356970Y-112711513D01*
X140364372Y-112765696D01*
X140803424Y-112765696D01*
X140735955Y-112719938D01*
X140637770Y-112669231D01*
X140561145Y-112650322D01*
X140560612Y-112650320D01*
X140517999Y-112632875D01*
X140481519Y-112601646D01*
X140463100Y-112577795D01*
X140462570Y-112557567D01*
X140486784Y-112534811D01*
X140542596Y-112503376D01*
X140636862Y-112457109D01*
X140649200Y-112451174D01*
X140762469Y-112400968D01*
X140877249Y-112357089D01*
X140973342Y-112327077D01*
X140995685Y-112321867D01*
X141089346Y-112298164D01*
X141175017Y-112269036D01*
X141206964Y-112254784D01*
X141309962Y-112186786D01*
X141413006Y-112094595D01*
X141498580Y-111995213D01*
X141536546Y-111934799D01*
X141570616Y-111840856D01*
X141582237Y-111757322D01*
X141533553Y-111757322D01*
X141516153Y-111822410D01*
X141481987Y-111901254D01*
X141436841Y-111979625D01*
X141405699Y-112021947D01*
X141352233Y-112074205D01*
X141279369Y-112129537D01*
X141197142Y-112182423D01*
X141115589Y-112227341D01*
X141044749Y-112258768D01*
X140994656Y-112271184D01*
X140975350Y-112259066D01*
X140975346Y-112258698D01*
X140994826Y-112240566D01*
X141045818Y-112203033D01*
X141114926Y-112155810D01*
X141213218Y-112084033D01*
X141272483Y-112021702D01*
X141293797Y-111973754D01*
X141247996Y-111973754D01*
X141245957Y-112001959D01*
X141230110Y-112026783D01*
X141195269Y-112061834D01*
X141187135Y-112054424D01*
X141205340Y-112012507D01*
X141231999Y-111977175D01*
X141247996Y-111973754D01*
X141293797Y-111973754D01*
X141300564Y-111958533D01*
X141305876Y-111905320D01*
X141323331Y-111850911D01*
X141380422Y-111795263D01*
X141409911Y-111774617D01*
X141472595Y-111737564D01*
X141516981Y-111719488D01*
X141528399Y-111720224D01*
X141533553Y-111757322D01*
X141582237Y-111757322D01*
X141584351Y-111742127D01*
X141579059Y-111650576D01*
X141556044Y-111578168D01*
X141516612Y-111536865D01*
X141492559Y-111531601D01*
X141466310Y-111538357D01*
X141481041Y-111566310D01*
X141483854Y-111569740D01*
X141502689Y-111610434D01*
X141483854Y-111646016D01*
X141443027Y-111678980D01*
X141409055Y-111683932D01*
X141396634Y-111662223D01*
X141404675Y-111638728D01*
X141417443Y-111600085D01*
X141436303Y-111526376D01*
X141458000Y-111432519D01*
X141479277Y-111333434D01*
X141496878Y-111244039D01*
X141507547Y-111179251D01*
X141509280Y-111159471D01*
X141528750Y-111162240D01*
X141575939Y-111183367D01*
X141579200Y-111185040D01*
X141745329Y-111248684D01*
X141926166Y-111280111D01*
X142110768Y-111280523D01*
X142288197Y-111251117D01*
X142447512Y-111193094D01*
X142577772Y-111107654D01*
X142614444Y-111071527D01*
X142692821Y-110972921D01*
X142736542Y-110881642D01*
X142753798Y-110777636D01*
X142755125Y-110727089D01*
X142752931Y-110702825D01*
X141270678Y-110702825D01*
X141266498Y-110750536D01*
X141248512Y-110827388D01*
X141217480Y-110943362D01*
X141216553Y-110946817D01*
X141194611Y-111043944D01*
X141184060Y-111138927D01*
X141183733Y-111250357D01*
X141190225Y-111366336D01*
X141200128Y-111519723D01*
X141204206Y-111634290D01*
X141201633Y-111721822D01*
X141191581Y-111794102D01*
X141173224Y-111862915D01*
X141150912Y-111926304D01*
X141085520Y-112050350D01*
X140984022Y-112163662D01*
X140841531Y-112270652D01*
X140653156Y-112375732D01*
X140652441Y-112376086D01*
X140540553Y-112428828D01*
X140450660Y-112461933D01*
X140360781Y-112481296D01*
X140248931Y-112492808D01*
X140206129Y-112495719D01*
X140018377Y-112501821D01*
X139859138Y-112491951D01*
X139707924Y-112463728D01*
X139562653Y-112420965D01*
X139354226Y-112328800D01*
X139156346Y-112198378D01*
X138980122Y-112039159D01*
X138836658Y-111860603D01*
X138769590Y-111745455D01*
X138712904Y-111631688D01*
X138636207Y-111631688D01*
X138621077Y-111647710D01*
X138586624Y-111635648D01*
X138549256Y-111603599D01*
X138533799Y-111581132D01*
X138513537Y-111521966D01*
X138511064Y-111466272D01*
X138526131Y-111432855D01*
X138535802Y-111429900D01*
X138560085Y-111450987D01*
X138590877Y-111501885D01*
X138618949Y-111564052D01*
X138635075Y-111618942D01*
X138636207Y-111631688D01*
X138712904Y-111631688D01*
X138694705Y-111595165D01*
X138728999Y-111396895D01*
X138745754Y-111315485D01*
X138566731Y-111315485D01*
X138464044Y-111188379D01*
X138412943Y-111120300D01*
X138380299Y-111067289D01*
X138373155Y-111042183D01*
X138406316Y-111026917D01*
X138460326Y-111024018D01*
X138506745Y-111033492D01*
X138517816Y-111042162D01*
X138528016Y-111076609D01*
X138541000Y-111143294D01*
X138548142Y-111188358D01*
X138566731Y-111315485D01*
X138745754Y-111315485D01*
X138758501Y-111253553D01*
X138793103Y-111150196D01*
X138838582Y-111075962D01*
X138900715Y-111019991D01*
X138943670Y-110993287D01*
X139024179Y-110936708D01*
X139083151Y-110865170D01*
X139124149Y-110770068D01*
X139150735Y-110642800D01*
X139166471Y-110474760D01*
X139167771Y-110451985D01*
X139182853Y-110173270D01*
X139330640Y-110128356D01*
X139440685Y-110100781D01*
X139567632Y-110077312D01*
X139648458Y-110066835D01*
X139818489Y-110050227D01*
X139746221Y-110127339D01*
X139692531Y-110202403D01*
X139687220Y-110263210D01*
X139730906Y-110311818D01*
X139812133Y-110346687D01*
X139849424Y-110380351D01*
X139856627Y-110408971D01*
X139879119Y-110471943D01*
X139943741Y-110510892D01*
X140005635Y-110521746D01*
X140056113Y-110528774D01*
X140074926Y-110550426D01*
X140071878Y-110602351D01*
X140068752Y-110622505D01*
X140066739Y-110707990D01*
X140085341Y-110755988D01*
X140140694Y-110786479D01*
X140224677Y-110791547D01*
X140322217Y-110771767D01*
X140388477Y-110744476D01*
X140478865Y-110682554D01*
X140573452Y-110592728D01*
X140657467Y-110491327D01*
X140716141Y-110394676D01*
X140725603Y-110371842D01*
X140752850Y-110309896D01*
X140783464Y-110289891D01*
X140832332Y-110307308D01*
X140868182Y-110328588D01*
X140981216Y-110410867D01*
X141056593Y-110492283D01*
X141079167Y-110533789D01*
X141115972Y-110581891D01*
X141178528Y-110627402D01*
X141192776Y-110634746D01*
X141234577Y-110654910D01*
X141260291Y-110674277D01*
X141270678Y-110702825D01*
X142752931Y-110702825D01*
X142747436Y-110642089D01*
X142716965Y-110579099D01*
X142677363Y-110534612D01*
X142599601Y-110456850D01*
X142365902Y-110473035D01*
X142247970Y-110480539D01*
X142098203Y-110489105D01*
X141935576Y-110497691D01*
X141779060Y-110505258D01*
X141774702Y-110505456D01*
X141417201Y-110521693D01*
X141373953Y-110408449D01*
X141314846Y-110284088D01*
X141229377Y-110142404D01*
X141208584Y-110112871D01*
X140999647Y-110112871D01*
X140988939Y-110113368D01*
X140963068Y-110076952D01*
X140946958Y-110048171D01*
X140921592Y-109993363D01*
X140847440Y-109993363D01*
X140843599Y-110026718D01*
X140827445Y-110013088D01*
X140822793Y-110006076D01*
X140801577Y-109948196D01*
X140798146Y-109917087D01*
X140801988Y-109883732D01*
X140818142Y-109897362D01*
X140822793Y-109904374D01*
X140844009Y-109962254D01*
X140847440Y-109993363D01*
X140921592Y-109993363D01*
X140918238Y-109986117D01*
X140906569Y-109944830D01*
X140908069Y-109937750D01*
X140926114Y-109948057D01*
X140952950Y-109988869D01*
X140979613Y-110043042D01*
X140997136Y-110093432D01*
X140999647Y-110112871D01*
X141208584Y-110112871D01*
X141129091Y-109999968D01*
X141025534Y-109873350D01*
X140943176Y-109790197D01*
X140804091Y-109686669D01*
X140637532Y-109592117D01*
X140464131Y-109516980D01*
X140319390Y-109474608D01*
X140077883Y-109449783D01*
X139835390Y-109472141D01*
G37*
X139835390Y-109472141D02*
X139597909Y-109538494D01*
X139371436Y-109645655D01*
X139161969Y-109790436D01*
X138975503Y-109969652D01*
X138818036Y-110180114D01*
X138744059Y-110311828D01*
X138669045Y-110478223D01*
X138610674Y-110640884D01*
X138572965Y-110786946D01*
X138559930Y-110901308D01*
X138555900Y-110945523D01*
X138534494Y-110966091D01*
X138481736Y-110971984D01*
X138449457Y-110972242D01*
X138356493Y-110983591D01*
X138293723Y-111022246D01*
X138255505Y-111095123D01*
X138236198Y-111209136D01*
X138234198Y-111236082D01*
X138233581Y-111353397D01*
X138252242Y-111451191D01*
X138280314Y-111526114D01*
X138334222Y-111621186D01*
X138410762Y-111718788D01*
X138497939Y-111806647D01*
X138583760Y-111872488D01*
X138647907Y-111902288D01*
X138707690Y-111912337D01*
X138721617Y-111901226D01*
X138689871Y-111869396D01*
X138612725Y-111817340D01*
X138525273Y-111752080D01*
X138443375Y-111673430D01*
X138410468Y-111633535D01*
X138351772Y-111527873D01*
X138309860Y-111404358D01*
X138289240Y-111281580D01*
X138294424Y-111178132D01*
X138297280Y-111166893D01*
X138319490Y-111089452D01*
X138412574Y-111216257D01*
X138464873Y-111292492D01*
X138490444Y-111349217D01*
X138495674Y-111405513D01*
X138491172Y-111451054D01*
X138486832Y-111528868D01*
X138504305Y-111582578D01*
X138535454Y-111621600D01*
X138584329Y-111664504D01*
X138623498Y-111684040D01*
X138625499Y-111684154D01*
X138653886Y-111704602D01*
X138695869Y-111757696D01*
X138733815Y-111817637D01*
X138872004Y-112011305D01*
X139049837Y-112188588D01*
X139256691Y-112340784D01*
X139481943Y-112459191D01*
X139550132Y-112486314D01*
X139640511Y-112519610D01*
X139506211Y-112521401D01*
X139406999Y-112514522D01*
X139335049Y-112499899D01*
X138979450Y-112499899D01*
X138892641Y-112546140D01*
X138837390Y-112583597D01*
X138801936Y-112634139D01*
X138774602Y-112715349D01*
X138770951Y-112729409D01*
X138736778Y-112862573D01*
X138711947Y-112953954D01*
X138693420Y-113011091D01*
X138678162Y-113041520D01*
X138663134Y-113052782D01*
X138645301Y-113052413D01*
X138641154Y-113051611D01*
X138616512Y-113037114D01*
X138603786Y-112998728D01*
X138600058Y-112924985D01*
X138600303Y-112891110D01*
X138617656Y-112735532D01*
X138663426Y-112616990D01*
X138735831Y-112538047D01*
X138833088Y-112501267D01*
X138873208Y-112498833D01*
X138979450Y-112499899D01*
X139335049Y-112499899D01*
X139311239Y-112495060D01*
X139277382Y-112483414D01*
X139204969Y-112464563D01*
X139098275Y-112450430D01*
X138973451Y-112441665D01*
X138846646Y-112438915D01*
X138734013Y-112442829D01*
X138651701Y-112454057D01*
X138638717Y-112457756D01*
X138596316Y-112467936D01*
X138591028Y-112451209D01*
X138599326Y-112430782D01*
X138612392Y-112377886D01*
X138620783Y-112297947D01*
X138622241Y-112256226D01*
X138621618Y-112226597D01*
X138590153Y-112226597D01*
X138581836Y-112290618D01*
X138553810Y-112363067D01*
X138507679Y-112431905D01*
X138506446Y-112433319D01*
X138446231Y-112495153D01*
X138409042Y-112519546D01*
X138398124Y-112506212D01*
X138416724Y-112454866D01*
X138423983Y-112440560D01*
X138459131Y-112355664D01*
X138482230Y-112269212D01*
X138506268Y-112199185D01*
X138541248Y-112172003D01*
X138577158Y-112183045D01*
X138590153Y-112226597D01*
X138621618Y-112226597D01*
X138620640Y-112180148D01*
X138609622Y-112140862D01*
X138582795Y-112124398D01*
X138559979Y-112120148D01*
X138503802Y-112096775D01*
X138437592Y-112048575D01*
X138413454Y-112025724D01*
X138297704Y-111937399D01*
X138172666Y-111895805D01*
X138044600Y-111899261D01*
X137919769Y-111946084D01*
X137804433Y-112034591D01*
X137704855Y-112163100D01*
X137670856Y-112225291D01*
X137608605Y-112380504D01*
X137588698Y-112508900D01*
X137611467Y-112612308D01*
X137677244Y-112692558D01*
X137764569Y-112742818D01*
X137831150Y-112762582D01*
X137908776Y-112774149D01*
X137981753Y-112776821D01*
X138034388Y-112769903D01*
X138051422Y-112755563D01*
X138028548Y-112740627D01*
X137969795Y-112725725D01*
X137918299Y-112717913D01*
X137788386Y-112688711D01*
X137702062Y-112636023D01*
X137656915Y-112558036D01*
X137649537Y-112516001D01*
X137660955Y-112403051D01*
X137707702Y-112277916D01*
X137782435Y-112156069D01*
X137863043Y-112066119D01*
X137931278Y-112007482D01*
X137986510Y-111976866D01*
X138050666Y-111965335D01*
X138114016Y-111963834D01*
X138204657Y-111968431D01*
X138267575Y-111987256D01*
X138325458Y-112027854D01*
X138337057Y-112038024D01*
X138403627Y-112127994D01*
X138423851Y-112234455D01*
X138397589Y-112352669D01*
X138348979Y-112443672D01*
X138285588Y-112526643D01*
X138230724Y-112565702D01*
X138176296Y-112564997D01*
X138143399Y-112549029D01*
X138106803Y-112527793D01*
X138108221Y-112536243D01*
X138134696Y-112566797D01*
X138164188Y-112607128D01*
X138157801Y-112634167D01*
X138141052Y-112649788D01*
X138108737Y-112686623D01*
X138102273Y-112704284D01*
X138119158Y-112725804D01*
X138159112Y-112718678D01*
X138206077Y-112686746D01*
X138215317Y-112677260D01*
X138266905Y-112638604D01*
X138342800Y-112600749D01*
X138371634Y-112589874D01*
X138483302Y-112551825D01*
X138445340Y-112625235D01*
X138421360Y-112697778D01*
X138408225Y-112788397D01*
X138407378Y-112814323D01*
X138403002Y-112884985D01*
X138384579Y-112921530D01*
X138344169Y-112925992D01*
X138273830Y-112900405D01*
X138203974Y-112866436D01*
X138123067Y-112826390D01*
X138077246Y-112807756D01*
X138056666Y-112808138D01*
X138051481Y-112825139D01*
X138051422Y-112829291D01*
X138072789Y-112851874D01*
X138129516Y-112888322D01*
X138210544Y-112931738D01*
X138234638Y-112943513D01*
X138323869Y-112989634D01*
X138395210Y-113032722D01*
X138435786Y-113064842D01*
X138439305Y-113069647D01*
X138478043Y-113097120D01*
X138537514Y-113107978D01*
X138614273Y-113107978D01*
X138488605Y-113254174D01*
X138403033Y-113357705D01*
X138348009Y-113436018D01*
X138317704Y-113499426D01*
X138306290Y-113558245D01*
X138305676Y-113577939D01*
X138318717Y-113657737D01*
X138361178Y-113740764D01*
X138438070Y-113834563D01*
X138544753Y-113937971D01*
X138709029Y-114086857D01*
X138720213Y-114671641D01*
X138724213Y-114841215D01*
X138729282Y-114995414D01*
X138735047Y-115126401D01*
X138741136Y-115226334D01*
X138747173Y-115287375D01*
X138750196Y-115301209D01*
X138756459Y-115333057D01*
X138727468Y-115330037D01*
X138724557Y-115328939D01*
X138691933Y-115325340D01*
X138692023Y-115347720D01*
X138720351Y-115373790D01*
X138783643Y-115408589D01*
X138868591Y-115444871D01*
X138874568Y-115447117D01*
X138968144Y-115484876D01*
X139029024Y-115520668D01*
X139073234Y-115567078D01*
X139116801Y-115636688D01*
X139117438Y-115637808D01*
X139168121Y-115718502D01*
X139219682Y-115787444D01*
X139245971Y-115815635D01*
X139286298Y-115862328D01*
X139340053Y-115938085D01*
X139396273Y-116027351D01*
X139401661Y-116036510D01*
X139495660Y-116172572D01*
X139593104Y-116267682D01*
X139690087Y-116319532D01*
X139782697Y-116325812D01*
X139846607Y-116299443D01*
X139891801Y-116244225D01*
X139907850Y-116154798D01*
X139895126Y-116027770D01*
X139888054Y-115993936D01*
X139816097Y-115993936D01*
X139794591Y-116021877D01*
X139753343Y-116056302D01*
X139704435Y-116087630D01*
X139659953Y-116106281D01*
X139646867Y-116108052D01*
X139609069Y-116101955D01*
X139602373Y-116095092D01*
X139622842Y-116071979D01*
X139672223Y-116039369D01*
X139732471Y-116007288D01*
X139785546Y-115985762D01*
X139805776Y-115982060D01*
X139816097Y-115993936D01*
X139888054Y-115993936D01*
X139882851Y-115969052D01*
X139867920Y-115892528D01*
X139867880Y-115868608D01*
X139751115Y-115868608D01*
X139749013Y-115893373D01*
X139715136Y-115930621D01*
X139663358Y-115970436D01*
X139607556Y-116002901D01*
X139561603Y-116018097D01*
X139545579Y-116015516D01*
X139552037Y-115995661D01*
X139592545Y-115959484D01*
X139632772Y-115931508D01*
X139696357Y-115893005D01*
X139740061Y-115870880D01*
X139751115Y-115868608D01*
X139867880Y-115868608D01*
X139867869Y-115862096D01*
X139880162Y-115876071D01*
X139902265Y-115932769D01*
X139921583Y-115994792D01*
X139945103Y-116124982D01*
X139937513Y-116235087D01*
X139902010Y-116318644D01*
X139841788Y-116369186D01*
X139760044Y-116380247D01*
X139733488Y-116375327D01*
X139630789Y-116328075D01*
X139524567Y-116240804D01*
X139425442Y-116122340D01*
X139420411Y-116115101D01*
X139371702Y-116054289D01*
X139337054Y-116028125D01*
X139322779Y-116037143D01*
X139335187Y-116081876D01*
X139348568Y-116109018D01*
X139398617Y-116182429D01*
X139470673Y-116265354D01*
X139549186Y-116341649D01*
X139618606Y-116395169D01*
X139630981Y-116402216D01*
X139729091Y-116433108D01*
X139828380Y-116432312D01*
X139888409Y-116411246D01*
X139953460Y-116345971D01*
X139993388Y-116247822D01*
X140003100Y-116130664D01*
X140000855Y-116105208D01*
X139978277Y-115994687D01*
X139939423Y-115878701D01*
X139910418Y-115815786D01*
X139856627Y-115815786D01*
X139843914Y-115828498D01*
X139831202Y-115815786D01*
X139843914Y-115803073D01*
X139856627Y-115815786D01*
X139910418Y-115815786D01*
X139891348Y-115774423D01*
X139885026Y-115764935D01*
X139831202Y-115764935D01*
X139818489Y-115777647D01*
X139805776Y-115764935D01*
X139818489Y-115752222D01*
X139831202Y-115764935D01*
X139885026Y-115764935D01*
X139841107Y-115699023D01*
X139828850Y-115686531D01*
X139791934Y-115645694D01*
X139704355Y-115645694D01*
X139703838Y-115696179D01*
X139689414Y-115759578D01*
X139664007Y-115818923D01*
X139651378Y-115837782D01*
X139581092Y-115893001D01*
X139495370Y-115899879D01*
X139394579Y-115858408D01*
X139372068Y-115843920D01*
X139315607Y-115796867D01*
X139256031Y-115734007D01*
X139202358Y-115666990D01*
X139163604Y-115607465D01*
X139148788Y-115567084D01*
X139151510Y-115558974D01*
X139181117Y-115556693D01*
X139249461Y-115562017D01*
X139345178Y-115573847D01*
X139418931Y-115584860D01*
X139526961Y-115601797D01*
X139615405Y-115615216D01*
X139672767Y-115623398D01*
X139688039Y-115625095D01*
X139704355Y-115645694D01*
X139791934Y-115645694D01*
X139789413Y-115642906D01*
X139789846Y-115610229D01*
X139833611Y-115577728D01*
X139869615Y-115559696D01*
X139918186Y-115531908D01*
X139951715Y-115496695D01*
X139972139Y-115445522D01*
X139981396Y-115369848D01*
X139981416Y-115275124D01*
X139737179Y-115275124D01*
X139734934Y-115294523D01*
X139734167Y-115294564D01*
X139708708Y-115274033D01*
X139683275Y-115231001D01*
X139676157Y-115212889D01*
X139561245Y-115212889D01*
X139550724Y-115218288D01*
X139528871Y-115197682D01*
X139526096Y-115180150D01*
X139531536Y-115146227D01*
X139536089Y-115142012D01*
X139552483Y-115161893D01*
X139560716Y-115180150D01*
X139561245Y-115212889D01*
X139676157Y-115212889D01*
X139665201Y-115185015D01*
X139663557Y-115167437D01*
X139682402Y-115186212D01*
X139714449Y-115231001D01*
X139737179Y-115275124D01*
X139981416Y-115275124D01*
X139981420Y-115261138D01*
X139974150Y-115110852D01*
X139973582Y-115101301D01*
X139956323Y-114812610D01*
X140318932Y-115039702D01*
X140454973Y-115124002D01*
X140554969Y-115183324D01*
X140625289Y-115220747D01*
X140672299Y-115239346D01*
X140702368Y-115242199D01*
X140720386Y-115233695D01*
X140773382Y-115194115D01*
X140797368Y-115179137D01*
X140822035Y-115169294D01*
X140809140Y-115192394D01*
X140807671Y-115194338D01*
X140767395Y-115257910D01*
X140768388Y-115296001D01*
X140814113Y-115315798D01*
X140869307Y-115322249D01*
X141119962Y-115333587D01*
X141326432Y-115327333D01*
X141492489Y-115302803D01*
X141621905Y-115259313D01*
X141718453Y-115196179D01*
X141751143Y-115162418D01*
X141780439Y-115132716D01*
X141499751Y-115132716D01*
X141478916Y-115170609D01*
X141442680Y-115210391D01*
X141395772Y-115252951D01*
X141372024Y-115260304D01*
X141362103Y-115238707D01*
X141352333Y-115212970D01*
X141329134Y-115213456D01*
X141278671Y-115241114D01*
X141272490Y-115244865D01*
X141218498Y-115270614D01*
X141185943Y-115272760D01*
X141182987Y-115268941D01*
X141154150Y-115249528D01*
X141113067Y-115243713D01*
X141061247Y-115236797D01*
X141051647Y-115220798D01*
X141078290Y-115202840D01*
X141135196Y-115190047D01*
X141159680Y-115188169D01*
X141263225Y-115183134D01*
X141329820Y-115177534D01*
X141373336Y-115169128D01*
X141407646Y-115155671D01*
X141428825Y-115144652D01*
X141482780Y-115122761D01*
X141499751Y-115132716D01*
X141780439Y-115132716D01*
X141795571Y-115117375D01*
X141827192Y-115099176D01*
X141832480Y-115100781D01*
X141830687Y-115130243D01*
X141793172Y-115174655D01*
X141729485Y-115225805D01*
X141649175Y-115275482D01*
X141602123Y-115298866D01*
X141540501Y-115324141D01*
X141479897Y-115341102D01*
X141408025Y-115351348D01*
X141312597Y-115356477D01*
X141181327Y-115358087D01*
X141146491Y-115358128D01*
X141013287Y-115358815D01*
X140924582Y-115361384D01*
X140874035Y-115366601D01*
X140855306Y-115375229D01*
X140862057Y-115388034D01*
X140866812Y-115391849D01*
X140905426Y-115407598D01*
X140974505Y-115416591D01*
X141081134Y-115419361D01*
X141204739Y-115417274D01*
X141335896Y-115412495D01*
X141430733Y-115404983D01*
X141503784Y-115391886D01*
X141569580Y-115370349D01*
X141642652Y-115337518D01*
X141664077Y-115327055D01*
X141787258Y-115253987D01*
X141862080Y-115183735D01*
X141891006Y-115120836D01*
X141876499Y-115069827D01*
X141821022Y-115035247D01*
X141727038Y-115021633D01*
X141597009Y-115033523D01*
X141514597Y-115051645D01*
X141430433Y-115072504D01*
X141365638Y-115086824D01*
X141337920Y-115091161D01*
X141335816Y-115070776D01*
X141353971Y-115017497D01*
X141386085Y-114947738D01*
X141445116Y-114787470D01*
X141450209Y-114708647D01*
X141401381Y-114708647D01*
X141384422Y-114813934D01*
X141359082Y-114879388D01*
X141326992Y-114908184D01*
X141285787Y-114914084D01*
X141176690Y-114939860D01*
X141079097Y-115014627D01*
X141052822Y-115045510D01*
X141000039Y-115095128D01*
X140961020Y-115100769D01*
X140943866Y-115065547D01*
X140952222Y-115006859D01*
X140973656Y-114886494D01*
X140958375Y-114790460D01*
X140911861Y-114714510D01*
X140848376Y-114639062D01*
X140951875Y-114484071D01*
X141005651Y-114406265D01*
X141050700Y-114345977D01*
X141078012Y-114315210D01*
X141079387Y-114314240D01*
X141116889Y-114317014D01*
X141176796Y-114345914D01*
X141244786Y-114391898D01*
X141306537Y-114445920D01*
X141330217Y-114472633D01*
X141385169Y-114581113D01*
X141401381Y-114708647D01*
X141450209Y-114708647D01*
X141454800Y-114637596D01*
X141415213Y-114496536D01*
X141407889Y-114481561D01*
X141372773Y-114381906D01*
X141371330Y-114310952D01*
X141370289Y-114239385D01*
X141351949Y-114195025D01*
X141309291Y-114163664D01*
X141229108Y-114125262D01*
X141123466Y-114084015D01*
X141004433Y-114044121D01*
X140884077Y-114009778D01*
X140774465Y-113985183D01*
X140727723Y-113977886D01*
X140581252Y-113959663D01*
X140491406Y-113801335D01*
X140404577Y-113801335D01*
X140400330Y-113811008D01*
X140390561Y-113818315D01*
X140341163Y-113842740D01*
X140255939Y-113874780D01*
X140148509Y-113910193D01*
X140032497Y-113944736D01*
X139921523Y-113974167D01*
X139829211Y-113994244D01*
X139821218Y-113995626D01*
X139736991Y-114006159D01*
X139634174Y-114013866D01*
X139524367Y-114018574D01*
X139419172Y-114020108D01*
X139330188Y-114018296D01*
X139269016Y-114012962D01*
X139247225Y-114004224D01*
X139261706Y-113970873D01*
X139283525Y-113938315D01*
X139311541Y-113881962D01*
X139333350Y-113805747D01*
X139335231Y-113795497D01*
X139351447Y-113699517D01*
X139526585Y-113690356D01*
X139272191Y-113690356D01*
X139265156Y-113817000D01*
X139262968Y-113826359D01*
X139218054Y-113912251D01*
X139135252Y-113989760D01*
X139027450Y-114047717D01*
X138994711Y-114058869D01*
X138918895Y-114078241D01*
X138865710Y-114077976D01*
X138810056Y-114055978D01*
X138782403Y-114041134D01*
X138723859Y-114004556D01*
X138690224Y-113975289D01*
X138687057Y-113968413D01*
X138707219Y-113943844D01*
X138755831Y-113912547D01*
X138756977Y-113911947D01*
X138802766Y-113880765D01*
X138734489Y-113880765D01*
X138706126Y-113904753D01*
X138641276Y-113917702D01*
X138580449Y-113895447D01*
X138512975Y-113836622D01*
X138464564Y-113782623D01*
X138449412Y-113749723D01*
X138462713Y-113725303D01*
X138468629Y-113720107D01*
X138523240Y-113700790D01*
X138592526Y-113724545D01*
X138667988Y-113781199D01*
X138723686Y-113840139D01*
X138734489Y-113880765D01*
X138802766Y-113880765D01*
X138823241Y-113866822D01*
X138887832Y-113807430D01*
X138890461Y-113804526D01*
X138954024Y-113733480D01*
X138882425Y-113778372D01*
X138840459Y-113802302D01*
X138807839Y-113806457D01*
X138769041Y-113786838D01*
X138708545Y-113739447D01*
X138698091Y-113730885D01*
X138626525Y-113667783D01*
X138593231Y-113621947D01*
X138594226Y-113582354D01*
X138625525Y-113537978D01*
X138627576Y-113535700D01*
X138654778Y-113495723D01*
X138656221Y-113475473D01*
X138634509Y-113486400D01*
X138590640Y-113528095D01*
X138534119Y-113591522D01*
X138466961Y-113664124D01*
X138420275Y-113697979D01*
X138401229Y-113696784D01*
X138381068Y-113647279D01*
X138378356Y-113571265D01*
X138391727Y-113489478D01*
X138419208Y-113423573D01*
X138470460Y-113358751D01*
X138545787Y-113278287D01*
X138629271Y-113197946D01*
X138704991Y-113133490D01*
X138731440Y-113114424D01*
X138812184Y-113089590D01*
X138909403Y-113102291D01*
X139008662Y-113149684D01*
X139043515Y-113175865D01*
X139128216Y-113273098D01*
X139198226Y-113402117D01*
X139248050Y-113546633D01*
X139272191Y-113690356D01*
X139526585Y-113690356D01*
X139596863Y-113686680D01*
X139710465Y-113681300D01*
X139786529Y-113681174D01*
X139838297Y-113688863D01*
X139879013Y-113706928D01*
X139921918Y-113737928D01*
X139941040Y-113753223D01*
X140015447Y-113804424D01*
X140087065Y-113827645D01*
X140170686Y-113832602D01*
X140260486Y-113828560D01*
X140338867Y-113818313D01*
X140365136Y-113811868D01*
X140404577Y-113801335D01*
X140491406Y-113801335D01*
X140475232Y-113772834D01*
X140391649Y-113596583D01*
X140351947Y-113432629D01*
X140355351Y-113268944D01*
X140401088Y-113093500D01*
X140427178Y-113026551D01*
X140449133Y-112957987D01*
X140454534Y-112905339D01*
X140452715Y-112897356D01*
X140458283Y-112853355D01*
X140475981Y-112831260D01*
X140501040Y-112821682D01*
X140542880Y-112826569D01*
X140609413Y-112848285D01*
X140708550Y-112889192D01*
X140788600Y-112924663D01*
X140910360Y-112980910D01*
X140994666Y-113024726D01*
X141051241Y-113062658D01*
X141089809Y-113101249D01*
X141120095Y-113147045D01*
X141120778Y-113148248D01*
X141179894Y-113298179D01*
X141194228Y-113451396D01*
X141166266Y-113598772D01*
X141098495Y-113731177D01*
X140993401Y-113839483D01*
X140919889Y-113885835D01*
X140874095Y-113918081D01*
X140860579Y-113945947D01*
X140861543Y-113948006D01*
X140893390Y-113957772D01*
X140947725Y-113935608D01*
X141015238Y-113889265D01*
X141086615Y-113826496D01*
X141152546Y-113755051D01*
X141203718Y-113682681D01*
X141220644Y-113649085D01*
X141249120Y-113533787D01*
X141253621Y-113397159D01*
X141234977Y-113262262D01*
X141203442Y-113170027D01*
X141146100Y-113080506D01*
X141060772Y-112982726D01*
X140957365Y-112884696D01*
X140845790Y-112794430D01*
X140803424Y-112765696D01*
X140364372Y-112765696D01*
X140361550Y-112850041D01*
X140360280Y-112870456D01*
X140349377Y-112973846D01*
X140330700Y-113037749D01*
X140302782Y-113072099D01*
X140252409Y-113095110D01*
X140243550Y-113088590D01*
X140008621Y-113088590D01*
X139988607Y-113127465D01*
X139936507Y-113176200D01*
X139901121Y-113200881D01*
X139833433Y-113246147D01*
X139740362Y-113311793D01*
X139636830Y-113387192D01*
X139579426Y-113430028D01*
X139489842Y-113496414D01*
X139415331Y-113549497D01*
X139365090Y-113582853D01*
X139348884Y-113591061D01*
X139332712Y-113568933D01*
X139308555Y-113511774D01*
X139288932Y-113454498D01*
X139237366Y-113338798D01*
X139161203Y-113225487D01*
X139072311Y-113129181D01*
X138982559Y-113064493D01*
X138966008Y-113056825D01*
X138916651Y-113032325D01*
X138897530Y-113002026D01*
X138900185Y-112947102D01*
X138904477Y-112919895D01*
X138916720Y-112853356D01*
X138926610Y-112812543D01*
X138928771Y-112807724D01*
X138954987Y-112809586D01*
X139015212Y-112822629D01*
X139072062Y-112837427D01*
X139169872Y-112862431D01*
X139265014Y-112883665D01*
X139303624Y-112890935D01*
X139375206Y-112915936D01*
X139399723Y-112956250D01*
X139377006Y-113007533D01*
X139310295Y-113063250D01*
X139247591Y-113109953D01*
X139221184Y-113143449D01*
X139234862Y-113158486D01*
X139241361Y-113158829D01*
X139269892Y-113146814D01*
X139333443Y-113113953D01*
X139423106Y-113065021D01*
X139529978Y-113004794D01*
X139549585Y-112993563D01*
X139660178Y-112931596D01*
X139756938Y-112880219D01*
X139830369Y-112844273D01*
X139870975Y-112828601D01*
X139873702Y-112828298D01*
X139903830Y-112849876D01*
X139940716Y-112903833D01*
X139975982Y-112974001D01*
X140001247Y-113044215D01*
X140008621Y-113088590D01*
X140243550Y-113088590D01*
X140222819Y-113073333D01*
X140212117Y-113005229D01*
X140212025Y-112998419D01*
X140193108Y-112888775D01*
X140144600Y-112778959D01*
X140076735Y-112688578D01*
X140031154Y-112651939D01*
X139986005Y-112621273D01*
X139975773Y-112600373D01*
X140005068Y-112584462D01*
X140078498Y-112568766D01*
X140117914Y-112562033D01*
X140184953Y-112556708D01*
X140234738Y-112574289D01*
X140291238Y-112623363D01*
X140292438Y-112624562D01*
X140334580Y-112670225D01*
X140356970Y-112711513D01*
X140364372Y-112765696D01*
X140803424Y-112765696D01*
X140735955Y-112719938D01*
X140637770Y-112669231D01*
X140561145Y-112650322D01*
X140560612Y-112650320D01*
X140517999Y-112632875D01*
X140481519Y-112601646D01*
X140463100Y-112577795D01*
X140462570Y-112557567D01*
X140486784Y-112534811D01*
X140542596Y-112503376D01*
X140636862Y-112457109D01*
X140649200Y-112451174D01*
X140762469Y-112400968D01*
X140877249Y-112357089D01*
X140973342Y-112327077D01*
X140995685Y-112321867D01*
X141089346Y-112298164D01*
X141175017Y-112269036D01*
X141206964Y-112254784D01*
X141309962Y-112186786D01*
X141413006Y-112094595D01*
X141498580Y-111995213D01*
X141536546Y-111934799D01*
X141570616Y-111840856D01*
X141582237Y-111757322D01*
X141533553Y-111757322D01*
X141516153Y-111822410D01*
X141481987Y-111901254D01*
X141436841Y-111979625D01*
X141405699Y-112021947D01*
X141352233Y-112074205D01*
X141279369Y-112129537D01*
X141197142Y-112182423D01*
X141115589Y-112227341D01*
X141044749Y-112258768D01*
X140994656Y-112271184D01*
X140975350Y-112259066D01*
X140975346Y-112258698D01*
X140994826Y-112240566D01*
X141045818Y-112203033D01*
X141114926Y-112155810D01*
X141213218Y-112084033D01*
X141272483Y-112021702D01*
X141293797Y-111973754D01*
X141247996Y-111973754D01*
X141245957Y-112001959D01*
X141230110Y-112026783D01*
X141195269Y-112061834D01*
X141187135Y-112054424D01*
X141205340Y-112012507D01*
X141231999Y-111977175D01*
X141247996Y-111973754D01*
X141293797Y-111973754D01*
X141300564Y-111958533D01*
X141305876Y-111905320D01*
X141323331Y-111850911D01*
X141380422Y-111795263D01*
X141409911Y-111774617D01*
X141472595Y-111737564D01*
X141516981Y-111719488D01*
X141528399Y-111720224D01*
X141533553Y-111757322D01*
X141582237Y-111757322D01*
X141584351Y-111742127D01*
X141579059Y-111650576D01*
X141556044Y-111578168D01*
X141516612Y-111536865D01*
X141492559Y-111531601D01*
X141466310Y-111538357D01*
X141481041Y-111566310D01*
X141483854Y-111569740D01*
X141502689Y-111610434D01*
X141483854Y-111646016D01*
X141443027Y-111678980D01*
X141409055Y-111683932D01*
X141396634Y-111662223D01*
X141404675Y-111638728D01*
X141417443Y-111600085D01*
X141436303Y-111526376D01*
X141458000Y-111432519D01*
X141479277Y-111333434D01*
X141496878Y-111244039D01*
X141507547Y-111179251D01*
X141509280Y-111159471D01*
X141528750Y-111162240D01*
X141575939Y-111183367D01*
X141579200Y-111185040D01*
X141745329Y-111248684D01*
X141926166Y-111280111D01*
X142110768Y-111280523D01*
X142288197Y-111251117D01*
X142447512Y-111193094D01*
X142577772Y-111107654D01*
X142614444Y-111071527D01*
X142692821Y-110972921D01*
X142736542Y-110881642D01*
X142753798Y-110777636D01*
X142755125Y-110727089D01*
X142752931Y-110702825D01*
X141270678Y-110702825D01*
X141266498Y-110750536D01*
X141248512Y-110827388D01*
X141217480Y-110943362D01*
X141216553Y-110946817D01*
X141194611Y-111043944D01*
X141184060Y-111138927D01*
X141183733Y-111250357D01*
X141190225Y-111366336D01*
X141200128Y-111519723D01*
X141204206Y-111634290D01*
X141201633Y-111721822D01*
X141191581Y-111794102D01*
X141173224Y-111862915D01*
X141150912Y-111926304D01*
X141085520Y-112050350D01*
X140984022Y-112163662D01*
X140841531Y-112270652D01*
X140653156Y-112375732D01*
X140652441Y-112376086D01*
X140540553Y-112428828D01*
X140450660Y-112461933D01*
X140360781Y-112481296D01*
X140248931Y-112492808D01*
X140206129Y-112495719D01*
X140018377Y-112501821D01*
X139859138Y-112491951D01*
X139707924Y-112463728D01*
X139562653Y-112420965D01*
X139354226Y-112328800D01*
X139156346Y-112198378D01*
X138980122Y-112039159D01*
X138836658Y-111860603D01*
X138769590Y-111745455D01*
X138712904Y-111631688D01*
X138636207Y-111631688D01*
X138621077Y-111647710D01*
X138586624Y-111635648D01*
X138549256Y-111603599D01*
X138533799Y-111581132D01*
X138513537Y-111521966D01*
X138511064Y-111466272D01*
X138526131Y-111432855D01*
X138535802Y-111429900D01*
X138560085Y-111450987D01*
X138590877Y-111501885D01*
X138618949Y-111564052D01*
X138635075Y-111618942D01*
X138636207Y-111631688D01*
X138712904Y-111631688D01*
X138694705Y-111595165D01*
X138728999Y-111396895D01*
X138745754Y-111315485D01*
X138566731Y-111315485D01*
X138464044Y-111188379D01*
X138412943Y-111120300D01*
X138380299Y-111067289D01*
X138373155Y-111042183D01*
X138406316Y-111026917D01*
X138460326Y-111024018D01*
X138506745Y-111033492D01*
X138517816Y-111042162D01*
X138528016Y-111076609D01*
X138541000Y-111143294D01*
X138548142Y-111188358D01*
X138566731Y-111315485D01*
X138745754Y-111315485D01*
X138758501Y-111253553D01*
X138793103Y-111150196D01*
X138838582Y-111075962D01*
X138900715Y-111019991D01*
X138943670Y-110993287D01*
X139024179Y-110936708D01*
X139083151Y-110865170D01*
X139124149Y-110770068D01*
X139150735Y-110642800D01*
X139166471Y-110474760D01*
X139167771Y-110451985D01*
X139182853Y-110173270D01*
X139330640Y-110128356D01*
X139440685Y-110100781D01*
X139567632Y-110077312D01*
X139648458Y-110066835D01*
X139818489Y-110050227D01*
X139746221Y-110127339D01*
X139692531Y-110202403D01*
X139687220Y-110263210D01*
X139730906Y-110311818D01*
X139812133Y-110346687D01*
X139849424Y-110380351D01*
X139856627Y-110408971D01*
X139879119Y-110471943D01*
X139943741Y-110510892D01*
X140005635Y-110521746D01*
X140056113Y-110528774D01*
X140074926Y-110550426D01*
X140071878Y-110602351D01*
X140068752Y-110622505D01*
X140066739Y-110707990D01*
X140085341Y-110755988D01*
X140140694Y-110786479D01*
X140224677Y-110791547D01*
X140322217Y-110771767D01*
X140388477Y-110744476D01*
X140478865Y-110682554D01*
X140573452Y-110592728D01*
X140657467Y-110491327D01*
X140716141Y-110394676D01*
X140725603Y-110371842D01*
X140752850Y-110309896D01*
X140783464Y-110289891D01*
X140832332Y-110307308D01*
X140868182Y-110328588D01*
X140981216Y-110410867D01*
X141056593Y-110492283D01*
X141079167Y-110533789D01*
X141115972Y-110581891D01*
X141178528Y-110627402D01*
X141192776Y-110634746D01*
X141234577Y-110654910D01*
X141260291Y-110674277D01*
X141270678Y-110702825D01*
X142752931Y-110702825D01*
X142747436Y-110642089D01*
X142716965Y-110579099D01*
X142677363Y-110534612D01*
X142599601Y-110456850D01*
X142365902Y-110473035D01*
X142247970Y-110480539D01*
X142098203Y-110489105D01*
X141935576Y-110497691D01*
X141779060Y-110505258D01*
X141774702Y-110505456D01*
X141417201Y-110521693D01*
X141373953Y-110408449D01*
X141314846Y-110284088D01*
X141229377Y-110142404D01*
X141208584Y-110112871D01*
X140999647Y-110112871D01*
X140988939Y-110113368D01*
X140963068Y-110076952D01*
X140946958Y-110048171D01*
X140921592Y-109993363D01*
X140847440Y-109993363D01*
X140843599Y-110026718D01*
X140827445Y-110013088D01*
X140822793Y-110006076D01*
X140801577Y-109948196D01*
X140798146Y-109917087D01*
X140801988Y-109883732D01*
X140818142Y-109897362D01*
X140822793Y-109904374D01*
X140844009Y-109962254D01*
X140847440Y-109993363D01*
X140921592Y-109993363D01*
X140918238Y-109986117D01*
X140906569Y-109944830D01*
X140908069Y-109937750D01*
X140926114Y-109948057D01*
X140952950Y-109988869D01*
X140979613Y-110043042D01*
X140997136Y-110093432D01*
X140999647Y-110112871D01*
X141208584Y-110112871D01*
X141129091Y-109999968D01*
X141025534Y-109873350D01*
X140943176Y-109790197D01*
X140804091Y-109686669D01*
X140637532Y-109592117D01*
X140464131Y-109516980D01*
X140319390Y-109474608D01*
X140077883Y-109449783D01*
X139835390Y-109472141D01*
G36*
X149153331Y-110779635D02*
G01*
X149083144Y-110789960D01*
X148973506Y-110806904D01*
X148829768Y-110829588D01*
X148657282Y-110857136D01*
X148461402Y-110888670D01*
X148247479Y-110923313D01*
X148020865Y-110960186D01*
X147786913Y-110998413D01*
X147550976Y-111037116D01*
X147318405Y-111075418D01*
X147094553Y-111112440D01*
X146884772Y-111147305D01*
X146694414Y-111179136D01*
X146528833Y-111207056D01*
X146393379Y-111230186D01*
X146293407Y-111247649D01*
X146234266Y-111258568D01*
X146219949Y-111261906D01*
X146217849Y-111290974D01*
X146224958Y-111352279D01*
X146238227Y-111430133D01*
X146254607Y-111508851D01*
X146271048Y-111572746D01*
X146284502Y-111606130D01*
X146287200Y-111607878D01*
X146320258Y-111603573D01*
X146387126Y-111592429D01*
X146452344Y-111580704D01*
X146532841Y-111567954D01*
X146590847Y-111562753D01*
X146610839Y-111565026D01*
X146599865Y-111588013D01*
X146562343Y-111645690D01*
X146502533Y-111732293D01*
X146424695Y-111842056D01*
X146333089Y-111969214D01*
X146231975Y-112108001D01*
X146125613Y-112252652D01*
X146018263Y-112397401D01*
X145914186Y-112536485D01*
X145817640Y-112664136D01*
X145732887Y-112774591D01*
X145664186Y-112862083D01*
X145615797Y-112920847D01*
X145591980Y-112945119D01*
X145590839Y-112945435D01*
X145568972Y-112926544D01*
X145516958Y-112873787D01*
X145438551Y-112791197D01*
X145337504Y-112682812D01*
X145217572Y-112552665D01*
X145082506Y-112404792D01*
X144936061Y-112243229D01*
X144884714Y-112186306D01*
X144735552Y-112021216D01*
X144596798Y-111868554D01*
X144472161Y-111732333D01*
X144365348Y-111616566D01*
X144280068Y-111525263D01*
X144220029Y-111462437D01*
X144188939Y-111432101D01*
X144185610Y-111429900D01*
X144159816Y-111446451D01*
X144109511Y-111489745D01*
X144048606Y-111547481D01*
X143929230Y-111665063D01*
X144605034Y-112418302D01*
X144755049Y-112585520D01*
X144895840Y-112742485D01*
X145023465Y-112884799D01*
X145133980Y-113008063D01*
X145223441Y-113107878D01*
X145287906Y-113179846D01*
X145323429Y-113219568D01*
X145327582Y-113224233D01*
X145338226Y-113237794D01*
X145343881Y-113253240D01*
X145342096Y-113274390D01*
X145330419Y-113305060D01*
X145306399Y-113349069D01*
X145267586Y-113410234D01*
X145211527Y-113492373D01*
X145135772Y-113599303D01*
X145037870Y-113734843D01*
X144915369Y-113902808D01*
X144765818Y-114107019D01*
X144725165Y-114162479D01*
X144076005Y-115048032D01*
X144210110Y-115145053D01*
X144281490Y-115194989D01*
X144336454Y-115230299D01*
X144361845Y-115242893D01*
X144380193Y-115223243D01*
X144425240Y-115166791D01*
X144493741Y-115077838D01*
X144582449Y-114960680D01*
X144688120Y-114819616D01*
X144807506Y-114658943D01*
X144937363Y-114482961D01*
X144995377Y-114403973D01*
X145128717Y-114222969D01*
X145253071Y-114055693D01*
X145365187Y-113906408D01*
X145461813Y-113779374D01*
X145539697Y-113678852D01*
X145595589Y-113609101D01*
X145626236Y-113574385D01*
X145630849Y-113571291D01*
X145651833Y-113591200D01*
X145702756Y-113644660D01*
X145779634Y-113727338D01*
X145878484Y-113834900D01*
X145995321Y-113963016D01*
X146126163Y-114107352D01*
X146251004Y-114245766D01*
X146390770Y-114400520D01*
X146519997Y-114542519D01*
X146634723Y-114667495D01*
X146730988Y-114771180D01*
X146804834Y-114849305D01*
X146852301Y-114897603D01*
X146869173Y-114912044D01*
X146895763Y-114895694D01*
X146948087Y-114854070D01*
X147010785Y-114799743D01*
X147134814Y-114688583D01*
X146502277Y-113985860D01*
X146358773Y-113826054D01*
X146226230Y-113677721D01*
X146108462Y-113545188D01*
X146009287Y-113432782D01*
X145932519Y-113344829D01*
X145881976Y-113285655D01*
X145861474Y-113259587D01*
X145861270Y-113259137D01*
X145874033Y-113234728D01*
X145913210Y-113174677D01*
X145975025Y-113084258D01*
X146055700Y-112968746D01*
X146151457Y-112833415D01*
X146258518Y-112683540D01*
X146373106Y-112524395D01*
X146491443Y-112361256D01*
X146609751Y-112199397D01*
X146724254Y-112044092D01*
X146831172Y-111900616D01*
X146892681Y-111819011D01*
X146954261Y-111737751D01*
X146819843Y-111641181D01*
X146754591Y-111589793D01*
X146720474Y-111553136D01*
X146722527Y-111537766D01*
X146816220Y-111521151D01*
X146943471Y-111499574D01*
X147097933Y-111474027D01*
X147273256Y-111445507D01*
X147463094Y-111415006D01*
X147661097Y-111383520D01*
X147860919Y-111352042D01*
X148056210Y-111321568D01*
X148240623Y-111293092D01*
X148407810Y-111267608D01*
X148551423Y-111246111D01*
X148665113Y-111229594D01*
X148742533Y-111219053D01*
X148777334Y-111215483D01*
X148778610Y-111215680D01*
X148778975Y-111241968D01*
X148776063Y-111311536D01*
X148770378Y-111416956D01*
X148762424Y-111550796D01*
X148752706Y-111705627D01*
X148741728Y-111874021D01*
X148729993Y-112048546D01*
X148718007Y-112221773D01*
X148706272Y-112386273D01*
X148695294Y-112534616D01*
X148685576Y-112659372D01*
X148677623Y-112753111D01*
X148671938Y-112808404D01*
X148669736Y-112820170D01*
X148644392Y-112822951D01*
X148576865Y-112827681D01*
X148475763Y-112833827D01*
X148349691Y-112840855D01*
X148259383Y-112845595D01*
X147852923Y-112866436D01*
X147860251Y-113043266D01*
X147864594Y-113131482D01*
X147869087Y-113196310D01*
X147872797Y-113224409D01*
X147872963Y-113224627D01*
X147898836Y-113224825D01*
X147966359Y-113222309D01*
X148066428Y-113217495D01*
X148189939Y-113210801D01*
X148245771Y-113207578D01*
X148377034Y-113200738D01*
X148489345Y-113196532D01*
X148573369Y-113195182D01*
X148619772Y-113196911D01*
X148625732Y-113198537D01*
X148628387Y-113228023D01*
X148625814Y-113300307D01*
X148618761Y-113407691D01*
X148607976Y-113542475D01*
X148594209Y-113696959D01*
X148578208Y-113863445D01*
X148560722Y-114034232D01*
X148542499Y-114201621D01*
X148524289Y-114357912D01*
X148506840Y-114495407D01*
X148490901Y-114606406D01*
X148485750Y-114637969D01*
X148469806Y-114731424D01*
X148627952Y-114811256D01*
X148707842Y-114849249D01*
X148768487Y-114873722D01*
X148797401Y-114879670D01*
X148797837Y-114879347D01*
X148811318Y-114843417D01*
X148828224Y-114762325D01*
X148847780Y-114641586D01*
X148869213Y-114486716D01*
X148891747Y-114303229D01*
X148914609Y-114096640D01*
X148932309Y-113921591D01*
X148948830Y-113752966D01*
X148964589Y-113594982D01*
X148978630Y-113456979D01*
X148990002Y-113348300D01*
X148997749Y-113278285D01*
X148999138Y-113266887D01*
X149012896Y-113158829D01*
X149172366Y-113158829D01*
X149256971Y-113157283D01*
X149318717Y-113153255D01*
X149342429Y-113148333D01*
X149346627Y-113119512D01*
X149347315Y-113054297D01*
X149344498Y-112970355D01*
X149335972Y-112802873D01*
X149030045Y-112802873D01*
X149046550Y-112631251D01*
X149053009Y-112557792D01*
X149061868Y-112447972D01*
X149072640Y-112308615D01*
X149084839Y-112146546D01*
X149097978Y-111968589D01*
X149111572Y-111781568D01*
X149125133Y-111592307D01*
X149138175Y-111407630D01*
X149150213Y-111234362D01*
X149160759Y-111079327D01*
X149169327Y-110949348D01*
X149175432Y-110851251D01*
X149178586Y-110791859D01*
X149178713Y-110776807D01*
X149153331Y-110779635D01*
G37*
X149153331Y-110779635D02*
X149083144Y-110789960D01*
X148973506Y-110806904D01*
X148829768Y-110829588D01*
X148657282Y-110857136D01*
X148461402Y-110888670D01*
X148247479Y-110923313D01*
X148020865Y-110960186D01*
X147786913Y-110998413D01*
X147550976Y-111037116D01*
X147318405Y-111075418D01*
X147094553Y-111112440D01*
X146884772Y-111147305D01*
X146694414Y-111179136D01*
X146528833Y-111207056D01*
X146393379Y-111230186D01*
X146293407Y-111247649D01*
X146234266Y-111258568D01*
X146219949Y-111261906D01*
X146217849Y-111290974D01*
X146224958Y-111352279D01*
X146238227Y-111430133D01*
X146254607Y-111508851D01*
X146271048Y-111572746D01*
X146284502Y-111606130D01*
X146287200Y-111607878D01*
X146320258Y-111603573D01*
X146387126Y-111592429D01*
X146452344Y-111580704D01*
X146532841Y-111567954D01*
X146590847Y-111562753D01*
X146610839Y-111565026D01*
X146599865Y-111588013D01*
X146562343Y-111645690D01*
X146502533Y-111732293D01*
X146424695Y-111842056D01*
X146333089Y-111969214D01*
X146231975Y-112108001D01*
X146125613Y-112252652D01*
X146018263Y-112397401D01*
X145914186Y-112536485D01*
X145817640Y-112664136D01*
X145732887Y-112774591D01*
X145664186Y-112862083D01*
X145615797Y-112920847D01*
X145591980Y-112945119D01*
X145590839Y-112945435D01*
X145568972Y-112926544D01*
X145516958Y-112873787D01*
X145438551Y-112791197D01*
X145337504Y-112682812D01*
X145217572Y-112552665D01*
X145082506Y-112404792D01*
X144936061Y-112243229D01*
X144884714Y-112186306D01*
X144735552Y-112021216D01*
X144596798Y-111868554D01*
X144472161Y-111732333D01*
X144365348Y-111616566D01*
X144280068Y-111525263D01*
X144220029Y-111462437D01*
X144188939Y-111432101D01*
X144185610Y-111429900D01*
X144159816Y-111446451D01*
X144109511Y-111489745D01*
X144048606Y-111547481D01*
X143929230Y-111665063D01*
X144605034Y-112418302D01*
X144755049Y-112585520D01*
X144895840Y-112742485D01*
X145023465Y-112884799D01*
X145133980Y-113008063D01*
X145223441Y-113107878D01*
X145287906Y-113179846D01*
X145323429Y-113219568D01*
X145327582Y-113224233D01*
X145338226Y-113237794D01*
X145343881Y-113253240D01*
X145342096Y-113274390D01*
X145330419Y-113305060D01*
X145306399Y-113349069D01*
X145267586Y-113410234D01*
X145211527Y-113492373D01*
X145135772Y-113599303D01*
X145037870Y-113734843D01*
X144915369Y-113902808D01*
X144765818Y-114107019D01*
X144725165Y-114162479D01*
X144076005Y-115048032D01*
X144210110Y-115145053D01*
X144281490Y-115194989D01*
X144336454Y-115230299D01*
X144361845Y-115242893D01*
X144380193Y-115223243D01*
X144425240Y-115166791D01*
X144493741Y-115077838D01*
X144582449Y-114960680D01*
X144688120Y-114819616D01*
X144807506Y-114658943D01*
X144937363Y-114482961D01*
X144995377Y-114403973D01*
X145128717Y-114222969D01*
X145253071Y-114055693D01*
X145365187Y-113906408D01*
X145461813Y-113779374D01*
X145539697Y-113678852D01*
X145595589Y-113609101D01*
X145626236Y-113574385D01*
X145630849Y-113571291D01*
X145651833Y-113591200D01*
X145702756Y-113644660D01*
X145779634Y-113727338D01*
X145878484Y-113834900D01*
X145995321Y-113963016D01*
X146126163Y-114107352D01*
X146251004Y-114245766D01*
X146390770Y-114400520D01*
X146519997Y-114542519D01*
X146634723Y-114667495D01*
X146730988Y-114771180D01*
X146804834Y-114849305D01*
X146852301Y-114897603D01*
X146869173Y-114912044D01*
X146895763Y-114895694D01*
X146948087Y-114854070D01*
X147010785Y-114799743D01*
X147134814Y-114688583D01*
X146502277Y-113985860D01*
X146358773Y-113826054D01*
X146226230Y-113677721D01*
X146108462Y-113545188D01*
X146009287Y-113432782D01*
X145932519Y-113344829D01*
X145881976Y-113285655D01*
X145861474Y-113259587D01*
X145861270Y-113259137D01*
X145874033Y-113234728D01*
X145913210Y-113174677D01*
X145975025Y-113084258D01*
X146055700Y-112968746D01*
X146151457Y-112833415D01*
X146258518Y-112683540D01*
X146373106Y-112524395D01*
X146491443Y-112361256D01*
X146609751Y-112199397D01*
X146724254Y-112044092D01*
X146831172Y-111900616D01*
X146892681Y-111819011D01*
X146954261Y-111737751D01*
X146819843Y-111641181D01*
X146754591Y-111589793D01*
X146720474Y-111553136D01*
X146722527Y-111537766D01*
X146816220Y-111521151D01*
X146943471Y-111499574D01*
X147097933Y-111474027D01*
X147273256Y-111445507D01*
X147463094Y-111415006D01*
X147661097Y-111383520D01*
X147860919Y-111352042D01*
X148056210Y-111321568D01*
X148240623Y-111293092D01*
X148407810Y-111267608D01*
X148551423Y-111246111D01*
X148665113Y-111229594D01*
X148742533Y-111219053D01*
X148777334Y-111215483D01*
X148778610Y-111215680D01*
X148778975Y-111241968D01*
X148776063Y-111311536D01*
X148770378Y-111416956D01*
X148762424Y-111550796D01*
X148752706Y-111705627D01*
X148741728Y-111874021D01*
X148729993Y-112048546D01*
X148718007Y-112221773D01*
X148706272Y-112386273D01*
X148695294Y-112534616D01*
X148685576Y-112659372D01*
X148677623Y-112753111D01*
X148671938Y-112808404D01*
X148669736Y-112820170D01*
X148644392Y-112822951D01*
X148576865Y-112827681D01*
X148475763Y-112833827D01*
X148349691Y-112840855D01*
X148259383Y-112845595D01*
X147852923Y-112866436D01*
X147860251Y-113043266D01*
X147864594Y-113131482D01*
X147869087Y-113196310D01*
X147872797Y-113224409D01*
X147872963Y-113224627D01*
X147898836Y-113224825D01*
X147966359Y-113222309D01*
X148066428Y-113217495D01*
X148189939Y-113210801D01*
X148245771Y-113207578D01*
X148377034Y-113200738D01*
X148489345Y-113196532D01*
X148573369Y-113195182D01*
X148619772Y-113196911D01*
X148625732Y-113198537D01*
X148628387Y-113228023D01*
X148625814Y-113300307D01*
X148618761Y-113407691D01*
X148607976Y-113542475D01*
X148594209Y-113696959D01*
X148578208Y-113863445D01*
X148560722Y-114034232D01*
X148542499Y-114201621D01*
X148524289Y-114357912D01*
X148506840Y-114495407D01*
X148490901Y-114606406D01*
X148485750Y-114637969D01*
X148469806Y-114731424D01*
X148627952Y-114811256D01*
X148707842Y-114849249D01*
X148768487Y-114873722D01*
X148797401Y-114879670D01*
X148797837Y-114879347D01*
X148811318Y-114843417D01*
X148828224Y-114762325D01*
X148847780Y-114641586D01*
X148869213Y-114486716D01*
X148891747Y-114303229D01*
X148914609Y-114096640D01*
X148932309Y-113921591D01*
X148948830Y-113752966D01*
X148964589Y-113594982D01*
X148978630Y-113456979D01*
X148990002Y-113348300D01*
X148997749Y-113278285D01*
X148999138Y-113266887D01*
X149012896Y-113158829D01*
X149172366Y-113158829D01*
X149256971Y-113157283D01*
X149318717Y-113153255D01*
X149342429Y-113148333D01*
X149346627Y-113119512D01*
X149347315Y-113054297D01*
X149344498Y-112970355D01*
X149335972Y-112802873D01*
X149030045Y-112802873D01*
X149046550Y-112631251D01*
X149053009Y-112557792D01*
X149061868Y-112447972D01*
X149072640Y-112308615D01*
X149084839Y-112146546D01*
X149097978Y-111968589D01*
X149111572Y-111781568D01*
X149125133Y-111592307D01*
X149138175Y-111407630D01*
X149150213Y-111234362D01*
X149160759Y-111079327D01*
X149169327Y-110949348D01*
X149175432Y-110851251D01*
X149178586Y-110791859D01*
X149178713Y-110776807D01*
X149153331Y-110779635D01*
G36*
X151943499Y-113158829D02*
G01*
X151932770Y-113401243D01*
X151922874Y-113627568D01*
X151914019Y-113832853D01*
X151906414Y-114012145D01*
X151900266Y-114160491D01*
X151895783Y-114272940D01*
X151893173Y-114344539D01*
X151892643Y-114370336D01*
X151892649Y-114370346D01*
X151917428Y-114373393D01*
X151979876Y-114377827D01*
X152066863Y-114382723D01*
X152073511Y-114383058D01*
X152251456Y-114391962D01*
X152268686Y-114217975D01*
X152278680Y-114129603D01*
X152288478Y-114063594D01*
X152295999Y-114033919D01*
X152296141Y-114033762D01*
X152309295Y-114052716D01*
X152340458Y-114111473D01*
X152386453Y-114203613D01*
X152444101Y-114322712D01*
X152510223Y-114462348D01*
X152542709Y-114531924D01*
X152611623Y-114679530D01*
X152673237Y-114810294D01*
X152724401Y-114917629D01*
X152761966Y-114994952D01*
X152782783Y-115035678D01*
X152785853Y-115040310D01*
X152796143Y-115018820D01*
X152810208Y-114970390D01*
X152831659Y-114882596D01*
X152861170Y-114758348D01*
X152897533Y-114602983D01*
X152939540Y-114421839D01*
X152985981Y-114220251D01*
X153035649Y-114003557D01*
X153087335Y-113777093D01*
X153139829Y-113546197D01*
X153191925Y-113316205D01*
X153242412Y-113092453D01*
X153290083Y-112880279D01*
X153333729Y-112685019D01*
X153372141Y-112512010D01*
X153404111Y-112366589D01*
X153428430Y-112254092D01*
X153443890Y-112179858D01*
X153449282Y-112149221D01*
X153449201Y-112148733D01*
X153420663Y-112137629D01*
X153359872Y-112120910D01*
X153282843Y-112102255D01*
X153205596Y-112085340D01*
X153144148Y-112073845D01*
X153114518Y-112071447D01*
X153113995Y-112071765D01*
X153106840Y-112097351D01*
X153089669Y-112167011D01*
X153063779Y-112275243D01*
X153030466Y-112416545D01*
X152991027Y-112585414D01*
X152946759Y-112776348D01*
X152898958Y-112983845D01*
X152895197Y-113000221D01*
X152847013Y-113208443D01*
X152801893Y-113400200D01*
X152761178Y-113570043D01*
X152726206Y-113712523D01*
X152698317Y-113822191D01*
X152678849Y-113893598D01*
X152669141Y-113921294D01*
X152668823Y-113921458D01*
X152653744Y-113899612D01*
X152621618Y-113839120D01*
X152576297Y-113747693D01*
X152521636Y-113633041D01*
X152481474Y-113546566D01*
X152309056Y-113171541D01*
X152333183Y-112574044D01*
X152339894Y-112405631D01*
X152345715Y-112255273D01*
X152350386Y-112130043D01*
X152353647Y-112037013D01*
X152355239Y-111983257D01*
X152355267Y-111972737D01*
X152330944Y-111969692D01*
X152268866Y-111965262D01*
X152182076Y-111960369D01*
X152175246Y-111960024D01*
X151997268Y-111951121D01*
X151943499Y-113158829D01*
G37*
X151943499Y-113158829D02*
X151932770Y-113401243D01*
X151922874Y-113627568D01*
X151914019Y-113832853D01*
X151906414Y-114012145D01*
X151900266Y-114160491D01*
X151895783Y-114272940D01*
X151893173Y-114344539D01*
X151892643Y-114370336D01*
X151892649Y-114370346D01*
X151917428Y-114373393D01*
X151979876Y-114377827D01*
X152066863Y-114382723D01*
X152073511Y-114383058D01*
X152251456Y-114391962D01*
X152268686Y-114217975D01*
X152278680Y-114129603D01*
X152288478Y-114063594D01*
X152295999Y-114033919D01*
X152296141Y-114033762D01*
X152309295Y-114052716D01*
X152340458Y-114111473D01*
X152386453Y-114203613D01*
X152444101Y-114322712D01*
X152510223Y-114462348D01*
X152542709Y-114531924D01*
X152611623Y-114679530D01*
X152673237Y-114810294D01*
X152724401Y-114917629D01*
X152761966Y-114994952D01*
X152782783Y-115035678D01*
X152785853Y-115040310D01*
X152796143Y-115018820D01*
X152810208Y-114970390D01*
X152831659Y-114882596D01*
X152861170Y-114758348D01*
X152897533Y-114602983D01*
X152939540Y-114421839D01*
X152985981Y-114220251D01*
X153035649Y-114003557D01*
X153087335Y-113777093D01*
X153139829Y-113546197D01*
X153191925Y-113316205D01*
X153242412Y-113092453D01*
X153290083Y-112880279D01*
X153333729Y-112685019D01*
X153372141Y-112512010D01*
X153404111Y-112366589D01*
X153428430Y-112254092D01*
X153443890Y-112179858D01*
X153449282Y-112149221D01*
X153449201Y-112148733D01*
X153420663Y-112137629D01*
X153359872Y-112120910D01*
X153282843Y-112102255D01*
X153205596Y-112085340D01*
X153144148Y-112073845D01*
X153114518Y-112071447D01*
X153113995Y-112071765D01*
X153106840Y-112097351D01*
X153089669Y-112167011D01*
X153063779Y-112275243D01*
X153030466Y-112416545D01*
X152991027Y-112585414D01*
X152946759Y-112776348D01*
X152898958Y-112983845D01*
X152895197Y-113000221D01*
X152847013Y-113208443D01*
X152801893Y-113400200D01*
X152761178Y-113570043D01*
X152726206Y-113712523D01*
X152698317Y-113822191D01*
X152678849Y-113893598D01*
X152669141Y-113921294D01*
X152668823Y-113921458D01*
X152653744Y-113899612D01*
X152621618Y-113839120D01*
X152576297Y-113747693D01*
X152521636Y-113633041D01*
X152481474Y-113546566D01*
X152309056Y-113171541D01*
X152333183Y-112574044D01*
X152339894Y-112405631D01*
X152345715Y-112255273D01*
X152350386Y-112130043D01*
X152353647Y-112037013D01*
X152355239Y-111983257D01*
X152355267Y-111972737D01*
X152330944Y-111969692D01*
X152268866Y-111965262D01*
X152182076Y-111960369D01*
X152175246Y-111960024D01*
X151997268Y-111951121D01*
X151943499Y-113158829D01*
G36*
X150324076Y-111950494D02*
G01*
X150259896Y-111984351D01*
X150164737Y-112036383D01*
X150045145Y-112102990D01*
X149907667Y-112180575D01*
X149836646Y-112221001D01*
X149341545Y-112503593D01*
X149423560Y-112652931D01*
X149467757Y-112728445D01*
X149504446Y-112782248D01*
X149525486Y-112802571D01*
X149553078Y-112790579D01*
X149616973Y-112757171D01*
X149709529Y-112706516D01*
X149823102Y-112642781D01*
X149919580Y-112587693D01*
X150293764Y-112372513D01*
X150795581Y-112873156D01*
X150949775Y-113027952D01*
X151069980Y-113151015D01*
X151159100Y-113245612D01*
X151220037Y-113315010D01*
X151255691Y-113362474D01*
X151268967Y-113391271D01*
X151265952Y-113402612D01*
X151235863Y-113428856D01*
X151173273Y-113482520D01*
X151084510Y-113558239D01*
X150975903Y-113650647D01*
X150853782Y-113754381D01*
X150724474Y-113864074D01*
X150594310Y-113974363D01*
X150469618Y-114079882D01*
X150356727Y-114175266D01*
X150261966Y-114255150D01*
X150191665Y-114314169D01*
X150152151Y-114346959D01*
X150147775Y-114350469D01*
X150125045Y-114362020D01*
X150096321Y-114358968D01*
X150053976Y-114337063D01*
X149990379Y-114292055D01*
X149897902Y-114219694D01*
X149863457Y-114192073D01*
X149768581Y-114116745D01*
X149687204Y-114053969D01*
X149627929Y-114010255D01*
X149599358Y-113992115D01*
X149599253Y-113992084D01*
X149575026Y-114006612D01*
X149531599Y-114048746D01*
X149479095Y-114106630D01*
X149427638Y-114168413D01*
X149387353Y-114222238D01*
X149368363Y-114256254D01*
X149369010Y-114261669D01*
X149400177Y-114286148D01*
X149462141Y-114335243D01*
X149546662Y-114402390D01*
X149645502Y-114481025D01*
X149750422Y-114564585D01*
X149853183Y-114646507D01*
X149945546Y-114720227D01*
X150019273Y-114779182D01*
X150066124Y-114816808D01*
X150077648Y-114826198D01*
X150091804Y-114829794D01*
X150116242Y-114821923D01*
X150154237Y-114800019D01*
X150209069Y-114761522D01*
X150284012Y-114703867D01*
X150382346Y-114624492D01*
X150507346Y-114520833D01*
X150662290Y-114390327D01*
X150850455Y-114230411D01*
X150971711Y-114126928D01*
X151827635Y-113395676D01*
X151098676Y-112667042D01*
X150940038Y-112508928D01*
X150792373Y-112362621D01*
X150659577Y-112231919D01*
X150545547Y-112120617D01*
X150454180Y-112032510D01*
X150389372Y-111971396D01*
X150355020Y-111941071D01*
X150350732Y-111938408D01*
X150324076Y-111950494D01*
G37*
X150324076Y-111950494D02*
X150259896Y-111984351D01*
X150164737Y-112036383D01*
X150045145Y-112102990D01*
X149907667Y-112180575D01*
X149836646Y-112221001D01*
X149341545Y-112503593D01*
X149423560Y-112652931D01*
X149467757Y-112728445D01*
X149504446Y-112782248D01*
X149525486Y-112802571D01*
X149553078Y-112790579D01*
X149616973Y-112757171D01*
X149709529Y-112706516D01*
X149823102Y-112642781D01*
X149919580Y-112587693D01*
X150293764Y-112372513D01*
X150795581Y-112873156D01*
X150949775Y-113027952D01*
X151069980Y-113151015D01*
X151159100Y-113245612D01*
X151220037Y-113315010D01*
X151255691Y-113362474D01*
X151268967Y-113391271D01*
X151265952Y-113402612D01*
X151235863Y-113428856D01*
X151173273Y-113482520D01*
X151084510Y-113558239D01*
X150975903Y-113650647D01*
X150853782Y-113754381D01*
X150724474Y-113864074D01*
X150594310Y-113974363D01*
X150469618Y-114079882D01*
X150356727Y-114175266D01*
X150261966Y-114255150D01*
X150191665Y-114314169D01*
X150152151Y-114346959D01*
X150147775Y-114350469D01*
X150125045Y-114362020D01*
X150096321Y-114358968D01*
X150053976Y-114337063D01*
X149990379Y-114292055D01*
X149897902Y-114219694D01*
X149863457Y-114192073D01*
X149768581Y-114116745D01*
X149687204Y-114053969D01*
X149627929Y-114010255D01*
X149599358Y-113992115D01*
X149599253Y-113992084D01*
X149575026Y-114006612D01*
X149531599Y-114048746D01*
X149479095Y-114106630D01*
X149427638Y-114168413D01*
X149387353Y-114222238D01*
X149368363Y-114256254D01*
X149369010Y-114261669D01*
X149400177Y-114286148D01*
X149462141Y-114335243D01*
X149546662Y-114402390D01*
X149645502Y-114481025D01*
X149750422Y-114564585D01*
X149853183Y-114646507D01*
X149945546Y-114720227D01*
X150019273Y-114779182D01*
X150066124Y-114816808D01*
X150077648Y-114826198D01*
X150091804Y-114829794D01*
X150116242Y-114821923D01*
X150154237Y-114800019D01*
X150209069Y-114761522D01*
X150284012Y-114703867D01*
X150382346Y-114624492D01*
X150507346Y-114520833D01*
X150662290Y-114390327D01*
X150850455Y-114230411D01*
X150971711Y-114126928D01*
X151827635Y-113395676D01*
X151098676Y-112667042D01*
X150940038Y-112508928D01*
X150792373Y-112362621D01*
X150659577Y-112231919D01*
X150545547Y-112120617D01*
X150454180Y-112032510D01*
X150389372Y-111971396D01*
X150355020Y-111941071D01*
X150350732Y-111938408D01*
X150324076Y-111950494D01*
G36*
X156237700Y-111780436D02*
G01*
X156171167Y-111816162D01*
X156074072Y-111869741D01*
X155953176Y-111937430D01*
X155815240Y-112015484D01*
X155753400Y-112050714D01*
X155267148Y-112328286D01*
X155348424Y-112476288D01*
X155392871Y-112551487D01*
X155430437Y-112604870D01*
X155452466Y-112624593D01*
X155480796Y-112612719D01*
X155544406Y-112580102D01*
X155634613Y-112531558D01*
X155742736Y-112471902D01*
X155860095Y-112405953D01*
X155978007Y-112338524D01*
X156087792Y-112274435D01*
X156142905Y-112241545D01*
X156220474Y-112194774D01*
X156722795Y-112697565D01*
X157225115Y-113200357D01*
X156646668Y-113694458D01*
X156500476Y-113819038D01*
X156366485Y-113932656D01*
X156249641Y-114031164D01*
X156154891Y-114110409D01*
X156087184Y-114166242D01*
X156051467Y-114194513D01*
X156047511Y-114197100D01*
X156020995Y-114185307D01*
X155963264Y-114146974D01*
X155882407Y-114087829D01*
X155786508Y-114013601D01*
X155770311Y-114000710D01*
X155513821Y-113795778D01*
X155399169Y-113936527D01*
X155344318Y-114006159D01*
X155306533Y-114058600D01*
X155293219Y-114083503D01*
X155293544Y-114084101D01*
X155323545Y-114107584D01*
X155384667Y-114155971D01*
X155468654Y-114222683D01*
X155567249Y-114301137D01*
X155672194Y-114384752D01*
X155775234Y-114466949D01*
X155868110Y-114541144D01*
X155942566Y-114600758D01*
X155990344Y-114639209D01*
X156002687Y-114649313D01*
X156016503Y-114653606D01*
X156039543Y-114647284D01*
X156075145Y-114627752D01*
X156126643Y-114592415D01*
X156197372Y-114538679D01*
X156290669Y-114463947D01*
X156409870Y-114365626D01*
X156558308Y-114241119D01*
X156739321Y-114087833D01*
X156898500Y-113952389D01*
X157755261Y-113222392D01*
X157024713Y-112490933D01*
X156865751Y-112332586D01*
X156717385Y-112186354D01*
X156583548Y-112055999D01*
X156468170Y-111945278D01*
X156375183Y-111857952D01*
X156308517Y-111797779D01*
X156272106Y-111768519D01*
X156266908Y-111766309D01*
X156237700Y-111780436D01*
G37*
X156237700Y-111780436D02*
X156171167Y-111816162D01*
X156074072Y-111869741D01*
X155953176Y-111937430D01*
X155815240Y-112015484D01*
X155753400Y-112050714D01*
X155267148Y-112328286D01*
X155348424Y-112476288D01*
X155392871Y-112551487D01*
X155430437Y-112604870D01*
X155452466Y-112624593D01*
X155480796Y-112612719D01*
X155544406Y-112580102D01*
X155634613Y-112531558D01*
X155742736Y-112471902D01*
X155860095Y-112405953D01*
X155978007Y-112338524D01*
X156087792Y-112274435D01*
X156142905Y-112241545D01*
X156220474Y-112194774D01*
X156722795Y-112697565D01*
X157225115Y-113200357D01*
X156646668Y-113694458D01*
X156500476Y-113819038D01*
X156366485Y-113932656D01*
X156249641Y-114031164D01*
X156154891Y-114110409D01*
X156087184Y-114166242D01*
X156051467Y-114194513D01*
X156047511Y-114197100D01*
X156020995Y-114185307D01*
X155963264Y-114146974D01*
X155882407Y-114087829D01*
X155786508Y-114013601D01*
X155770311Y-114000710D01*
X155513821Y-113795778D01*
X155399169Y-113936527D01*
X155344318Y-114006159D01*
X155306533Y-114058600D01*
X155293219Y-114083503D01*
X155293544Y-114084101D01*
X155323545Y-114107584D01*
X155384667Y-114155971D01*
X155468654Y-114222683D01*
X155567249Y-114301137D01*
X155672194Y-114384752D01*
X155775234Y-114466949D01*
X155868110Y-114541144D01*
X155942566Y-114600758D01*
X155990344Y-114639209D01*
X156002687Y-114649313D01*
X156016503Y-114653606D01*
X156039543Y-114647284D01*
X156075145Y-114627752D01*
X156126643Y-114592415D01*
X156197372Y-114538679D01*
X156290669Y-114463947D01*
X156409870Y-114365626D01*
X156558308Y-114241119D01*
X156739321Y-114087833D01*
X156898500Y-113952389D01*
X157755261Y-113222392D01*
X157024713Y-112490933D01*
X156865751Y-112332586D01*
X156717385Y-112186354D01*
X156583548Y-112055999D01*
X156468170Y-111945278D01*
X156375183Y-111857952D01*
X156308517Y-111797779D01*
X156272106Y-111768519D01*
X156266908Y-111766309D01*
X156237700Y-111780436D01*
G36*
X154369865Y-111760653D02*
G01*
X154312672Y-111810248D01*
X154232146Y-111883266D01*
X154134360Y-111973905D01*
X154025383Y-112076362D01*
X153911288Y-112184836D01*
X153798146Y-112293525D01*
X153692028Y-112396627D01*
X153599006Y-112488339D01*
X153525152Y-112562860D01*
X153476537Y-112614387D01*
X153459230Y-112637054D01*
X153476197Y-112668392D01*
X153520379Y-112721924D01*
X153573576Y-112777380D01*
X153687922Y-112889602D01*
X153796048Y-112789413D01*
X153857294Y-112731823D01*
X153943347Y-112649803D01*
X154042625Y-112554436D01*
X154140247Y-112460012D01*
X154376319Y-112230801D01*
X154554846Y-112413599D01*
X154733374Y-112596397D01*
X154719292Y-112744129D01*
X154713680Y-112815321D01*
X154706682Y-112923390D01*
X154698621Y-113061459D01*
X154689822Y-113222649D01*
X154680611Y-113400080D01*
X154671311Y-113586873D01*
X154662247Y-113776150D01*
X154653744Y-113961032D01*
X154646126Y-114134640D01*
X154639719Y-114290094D01*
X154634846Y-114420517D01*
X154631833Y-114519028D01*
X154631003Y-114578750D01*
X154631992Y-114593932D01*
X154660195Y-114601003D01*
X154725026Y-114610788D01*
X154812492Y-114621177D01*
X154813134Y-114621245D01*
X154912534Y-114628819D01*
X154967870Y-114625176D01*
X154984755Y-114610259D01*
X154986428Y-114574646D01*
X154991169Y-114494538D01*
X154998561Y-114376171D01*
X155008186Y-114225781D01*
X155019629Y-114049603D01*
X155032473Y-113853875D01*
X155046300Y-113644831D01*
X155060693Y-113428709D01*
X155075236Y-113211744D01*
X155089512Y-113000171D01*
X155103103Y-112800228D01*
X155115594Y-112618151D01*
X155126567Y-112460174D01*
X155135605Y-112332535D01*
X155142291Y-112241470D01*
X155146209Y-112193214D01*
X155146573Y-112189690D01*
X155156987Y-112097729D01*
X154975774Y-112080887D01*
X154865539Y-112074379D01*
X154802614Y-112079958D01*
X154785234Y-112092026D01*
X154765555Y-112086325D01*
X154719637Y-112049030D01*
X154654889Y-111986675D01*
X154597534Y-111926427D01*
X154521629Y-111846838D01*
X154457379Y-111784636D01*
X154412907Y-111747387D01*
X154397653Y-111740282D01*
X154369865Y-111760653D01*
G37*
X154369865Y-111760653D02*
X154312672Y-111810248D01*
X154232146Y-111883266D01*
X154134360Y-111973905D01*
X154025383Y-112076362D01*
X153911288Y-112184836D01*
X153798146Y-112293525D01*
X153692028Y-112396627D01*
X153599006Y-112488339D01*
X153525152Y-112562860D01*
X153476537Y-112614387D01*
X153459230Y-112637054D01*
X153476197Y-112668392D01*
X153520379Y-112721924D01*
X153573576Y-112777380D01*
X153687922Y-112889602D01*
X153796048Y-112789413D01*
X153857294Y-112731823D01*
X153943347Y-112649803D01*
X154042625Y-112554436D01*
X154140247Y-112460012D01*
X154376319Y-112230801D01*
X154554846Y-112413599D01*
X154733374Y-112596397D01*
X154719292Y-112744129D01*
X154713680Y-112815321D01*
X154706682Y-112923390D01*
X154698621Y-113061459D01*
X154689822Y-113222649D01*
X154680611Y-113400080D01*
X154671311Y-113586873D01*
X154662247Y-113776150D01*
X154653744Y-113961032D01*
X154646126Y-114134640D01*
X154639719Y-114290094D01*
X154634846Y-114420517D01*
X154631833Y-114519028D01*
X154631003Y-114578750D01*
X154631992Y-114593932D01*
X154660195Y-114601003D01*
X154725026Y-114610788D01*
X154812492Y-114621177D01*
X154813134Y-114621245D01*
X154912534Y-114628819D01*
X154967870Y-114625176D01*
X154984755Y-114610259D01*
X154986428Y-114574646D01*
X154991169Y-114494538D01*
X154998561Y-114376171D01*
X155008186Y-114225781D01*
X155019629Y-114049603D01*
X155032473Y-113853875D01*
X155046300Y-113644831D01*
X155060693Y-113428709D01*
X155075236Y-113211744D01*
X155089512Y-113000171D01*
X155103103Y-112800228D01*
X155115594Y-112618151D01*
X155126567Y-112460174D01*
X155135605Y-112332535D01*
X155142291Y-112241470D01*
X155146209Y-112193214D01*
X155146573Y-112189690D01*
X155156987Y-112097729D01*
X154975774Y-112080887D01*
X154865539Y-112074379D01*
X154802614Y-112079958D01*
X154785234Y-112092026D01*
X154765555Y-112086325D01*
X154719637Y-112049030D01*
X154654889Y-111986675D01*
X154597534Y-111926427D01*
X154521629Y-111846838D01*
X154457379Y-111784636D01*
X154412907Y-111747387D01*
X154397653Y-111740282D01*
X154369865Y-111760653D01*
G36*
X142834929Y-112871428D02*
G01*
X142652565Y-112927412D01*
X142495892Y-113025769D01*
X142438964Y-113078951D01*
X142379370Y-113147244D01*
X142347490Y-113207567D01*
X142332821Y-113283903D01*
X142329029Y-113329979D01*
X142326807Y-113423076D01*
X142339696Y-113491600D01*
X142373984Y-113561059D01*
X142393879Y-113592918D01*
X142518577Y-113743573D01*
X142680763Y-113873984D01*
X142870376Y-113980657D01*
X143077354Y-114060100D01*
X143291638Y-114108820D01*
X143503165Y-114123323D01*
X143701875Y-114100116D01*
X143785490Y-114076068D01*
X143924695Y-114027142D01*
X143924695Y-114099839D01*
X143901746Y-114234641D01*
X143836027Y-114348874D01*
X143732227Y-114440224D01*
X143595036Y-114506379D01*
X143429144Y-114545025D01*
X143239241Y-114553848D01*
X143045745Y-114533359D01*
X142891649Y-114492267D01*
X142723510Y-114424044D01*
X142558299Y-114337390D01*
X142412985Y-114241004D01*
X142322149Y-114162414D01*
X142261555Y-114098346D01*
X142227560Y-114048988D01*
X142212493Y-113994996D01*
X142208682Y-113917025D01*
X142208591Y-113876053D01*
X142211979Y-113780980D01*
X142220712Y-113701244D01*
X142231711Y-113657511D01*
X142242099Y-113622523D01*
X142219555Y-113620979D01*
X142218887Y-113621195D01*
X142190074Y-113650744D01*
X142159013Y-113711790D01*
X142147316Y-113744006D01*
X142128849Y-113881420D01*
X142156700Y-114022281D01*
X142227092Y-114152963D01*
X142297171Y-114225739D01*
X142402004Y-114307564D01*
X142528605Y-114389974D01*
X142663986Y-114464507D01*
X142793264Y-114521976D01*
X142896856Y-114556947D01*
X142997609Y-114579298D01*
X143114408Y-114592265D01*
X143238209Y-114598259D01*
X143356451Y-114599901D01*
X143461485Y-114597484D01*
X143539219Y-114591535D01*
X143568904Y-114585873D01*
X143733017Y-114511464D01*
X143856653Y-114410638D01*
X143937629Y-114286019D01*
X143973761Y-114140232D01*
X143975546Y-114096885D01*
X143996911Y-113983285D01*
X144030747Y-113921145D01*
X144075939Y-113819279D01*
X144080510Y-113742515D01*
X144018641Y-113742515D01*
X143986006Y-113854103D01*
X143907908Y-113943559D01*
X143783914Y-114011906D01*
X143699715Y-114039845D01*
X143589488Y-114057180D01*
X143449382Y-114060181D01*
X143298100Y-114049534D01*
X143154346Y-114025923D01*
X143124467Y-114018770D01*
X142958835Y-113961551D01*
X142796446Y-113878998D01*
X142648433Y-113778878D01*
X142525927Y-113668954D01*
X142440060Y-113556994D01*
X142426830Y-113532115D01*
X142380263Y-113405149D01*
X142376652Y-113296973D01*
X142417170Y-113197398D01*
X142473509Y-113126182D01*
X142573275Y-113019229D01*
X142605078Y-113145532D01*
X142660697Y-113271705D01*
X142759215Y-113394015D01*
X142892855Y-113504371D01*
X143022417Y-113579883D01*
X143164471Y-113632327D01*
X143322214Y-113662389D01*
X143480037Y-113669182D01*
X143622333Y-113651821D01*
X143715890Y-113619242D01*
X143793949Y-113574585D01*
X143838483Y-113530098D01*
X143863452Y-113467757D01*
X143874913Y-113413946D01*
X143891617Y-113324094D01*
X143949248Y-113448854D01*
X144006245Y-113607773D01*
X144018641Y-113742515D01*
X144080510Y-113742515D01*
X144083332Y-113695127D01*
X144055359Y-113557503D01*
X143994453Y-113415220D01*
X143903047Y-113277092D01*
X143842903Y-113209679D01*
X143467037Y-113209679D01*
X143446553Y-113232484D01*
X143430400Y-113235105D01*
X143387112Y-113219609D01*
X143378048Y-113209679D01*
X143385833Y-113189667D01*
X143414686Y-113184254D01*
X143456809Y-113194627D01*
X143467037Y-113209679D01*
X143842903Y-113209679D01*
X143830486Y-113195762D01*
X143759292Y-113137484D01*
X143492463Y-113137484D01*
X143475614Y-113158370D01*
X143435644Y-113150700D01*
X143388419Y-113118565D01*
X143378048Y-113107978D01*
X143349592Y-113071229D01*
X143347486Y-113057127D01*
X143388679Y-113068340D01*
X143440557Y-113094039D01*
X143481635Y-113122315D01*
X143492463Y-113137484D01*
X143759292Y-113137484D01*
X143648894Y-113047115D01*
X143443230Y-112941892D01*
X143266431Y-112888941D01*
X143040409Y-112858407D01*
X142834929Y-112871428D01*
G37*
X142834929Y-112871428D02*
X142652565Y-112927412D01*
X142495892Y-113025769D01*
X142438964Y-113078951D01*
X142379370Y-113147244D01*
X142347490Y-113207567D01*
X142332821Y-113283903D01*
X142329029Y-113329979D01*
X142326807Y-113423076D01*
X142339696Y-113491600D01*
X142373984Y-113561059D01*
X142393879Y-113592918D01*
X142518577Y-113743573D01*
X142680763Y-113873984D01*
X142870376Y-113980657D01*
X143077354Y-114060100D01*
X143291638Y-114108820D01*
X143503165Y-114123323D01*
X143701875Y-114100116D01*
X143785490Y-114076068D01*
X143924695Y-114027142D01*
X143924695Y-114099839D01*
X143901746Y-114234641D01*
X143836027Y-114348874D01*
X143732227Y-114440224D01*
X143595036Y-114506379D01*
X143429144Y-114545025D01*
X143239241Y-114553848D01*
X143045745Y-114533359D01*
X142891649Y-114492267D01*
X142723510Y-114424044D01*
X142558299Y-114337390D01*
X142412985Y-114241004D01*
X142322149Y-114162414D01*
X142261555Y-114098346D01*
X142227560Y-114048988D01*
X142212493Y-113994996D01*
X142208682Y-113917025D01*
X142208591Y-113876053D01*
X142211979Y-113780980D01*
X142220712Y-113701244D01*
X142231711Y-113657511D01*
X142242099Y-113622523D01*
X142219555Y-113620979D01*
X142218887Y-113621195D01*
X142190074Y-113650744D01*
X142159013Y-113711790D01*
X142147316Y-113744006D01*
X142128849Y-113881420D01*
X142156700Y-114022281D01*
X142227092Y-114152963D01*
X142297171Y-114225739D01*
X142402004Y-114307564D01*
X142528605Y-114389974D01*
X142663986Y-114464507D01*
X142793264Y-114521976D01*
X142896856Y-114556947D01*
X142997609Y-114579298D01*
X143114408Y-114592265D01*
X143238209Y-114598259D01*
X143356451Y-114599901D01*
X143461485Y-114597484D01*
X143539219Y-114591535D01*
X143568904Y-114585873D01*
X143733017Y-114511464D01*
X143856653Y-114410638D01*
X143937629Y-114286019D01*
X143973761Y-114140232D01*
X143975546Y-114096885D01*
X143996911Y-113983285D01*
X144030747Y-113921145D01*
X144075939Y-113819279D01*
X144080510Y-113742515D01*
X144018641Y-113742515D01*
X143986006Y-113854103D01*
X143907908Y-113943559D01*
X143783914Y-114011906D01*
X143699715Y-114039845D01*
X143589488Y-114057180D01*
X143449382Y-114060181D01*
X143298100Y-114049534D01*
X143154346Y-114025923D01*
X143124467Y-114018770D01*
X142958835Y-113961551D01*
X142796446Y-113878998D01*
X142648433Y-113778878D01*
X142525927Y-113668954D01*
X142440060Y-113556994D01*
X142426830Y-113532115D01*
X142380263Y-113405149D01*
X142376652Y-113296973D01*
X142417170Y-113197398D01*
X142473509Y-113126182D01*
X142573275Y-113019229D01*
X142605078Y-113145532D01*
X142660697Y-113271705D01*
X142759215Y-113394015D01*
X142892855Y-113504371D01*
X143022417Y-113579883D01*
X143164471Y-113632327D01*
X143322214Y-113662389D01*
X143480037Y-113669182D01*
X143622333Y-113651821D01*
X143715890Y-113619242D01*
X143793949Y-113574585D01*
X143838483Y-113530098D01*
X143863452Y-113467757D01*
X143874913Y-113413946D01*
X143891617Y-113324094D01*
X143949248Y-113448854D01*
X144006245Y-113607773D01*
X144018641Y-113742515D01*
X144080510Y-113742515D01*
X144083332Y-113695127D01*
X144055359Y-113557503D01*
X143994453Y-113415220D01*
X143903047Y-113277092D01*
X143842903Y-113209679D01*
X143467037Y-113209679D01*
X143446553Y-113232484D01*
X143430400Y-113235105D01*
X143387112Y-113219609D01*
X143378048Y-113209679D01*
X143385833Y-113189667D01*
X143414686Y-113184254D01*
X143456809Y-113194627D01*
X143467037Y-113209679D01*
X143842903Y-113209679D01*
X143830486Y-113195762D01*
X143759292Y-113137484D01*
X143492463Y-113137484D01*
X143475614Y-113158370D01*
X143435644Y-113150700D01*
X143388419Y-113118565D01*
X143378048Y-113107978D01*
X143349592Y-113071229D01*
X143347486Y-113057127D01*
X143388679Y-113068340D01*
X143440557Y-113094039D01*
X143481635Y-113122315D01*
X143492463Y-113137484D01*
X143759292Y-113137484D01*
X143648894Y-113047115D01*
X143443230Y-112941892D01*
X143266431Y-112888941D01*
X143040409Y-112858407D01*
X142834929Y-112871428D01*
G36*
X142313364Y-111556385D02*
G01*
X142307860Y-111583195D01*
X142324998Y-111593382D01*
X142691620Y-111737346D01*
X143025406Y-111900560D01*
X143324031Y-112080910D01*
X143585173Y-112276283D01*
X143806509Y-112484566D01*
X143985716Y-112703645D01*
X144120471Y-112931408D01*
X144208450Y-113165740D01*
X144241466Y-113336807D01*
X144245143Y-113476494D01*
X144228307Y-113621344D01*
X144194112Y-113744978D01*
X144192070Y-113749970D01*
X144186415Y-113787067D01*
X144205671Y-113792573D01*
X144236960Y-113768921D01*
X144258548Y-113737405D01*
X144284345Y-113656417D01*
X144298554Y-113541689D01*
X144300864Y-113409066D01*
X144290966Y-113274392D01*
X144269852Y-113158508D01*
X144190142Y-112940369D01*
X144064208Y-112720272D01*
X143896207Y-112503151D01*
X143690298Y-112293943D01*
X143450636Y-112097581D01*
X143273490Y-111975816D01*
X143152247Y-111902876D01*
X143016498Y-111828846D01*
X142873990Y-111757110D01*
X142732465Y-111691050D01*
X142599670Y-111634051D01*
X142483350Y-111589496D01*
X142391248Y-111560767D01*
X142331109Y-111551248D01*
X142313364Y-111556385D01*
G37*
X142313364Y-111556385D02*
X142307860Y-111583195D01*
X142324998Y-111593382D01*
X142691620Y-111737346D01*
X143025406Y-111900560D01*
X143324031Y-112080910D01*
X143585173Y-112276283D01*
X143806509Y-112484566D01*
X143985716Y-112703645D01*
X144120471Y-112931408D01*
X144208450Y-113165740D01*
X144241466Y-113336807D01*
X144245143Y-113476494D01*
X144228307Y-113621344D01*
X144194112Y-113744978D01*
X144192070Y-113749970D01*
X144186415Y-113787067D01*
X144205671Y-113792573D01*
X144236960Y-113768921D01*
X144258548Y-113737405D01*
X144284345Y-113656417D01*
X144298554Y-113541689D01*
X144300864Y-113409066D01*
X144290966Y-113274392D01*
X144269852Y-113158508D01*
X144190142Y-112940369D01*
X144064208Y-112720272D01*
X143896207Y-112503151D01*
X143690298Y-112293943D01*
X143450636Y-112097581D01*
X143273490Y-111975816D01*
X143152247Y-111902876D01*
X143016498Y-111828846D01*
X142873990Y-111757110D01*
X142732465Y-111691050D01*
X142599670Y-111634051D01*
X142483350Y-111589496D01*
X142391248Y-111560767D01*
X142331109Y-111551248D01*
X142313364Y-111556385D01*
G36*
X136682837Y-111680268D02*
G01*
X136688171Y-111747134D01*
X136722981Y-111889719D01*
X136790493Y-112053094D01*
X136884857Y-112224886D01*
X136981965Y-112368497D01*
X137062708Y-112469133D01*
X137163594Y-112582191D01*
X137278267Y-112701813D01*
X137400373Y-112822147D01*
X137523558Y-112937337D01*
X137641468Y-113041528D01*
X137747748Y-113128866D01*
X137836044Y-113193497D01*
X137900002Y-113229564D01*
X137922519Y-113235105D01*
X137948715Y-113228044D01*
X137949720Y-113225447D01*
X137930969Y-113206618D01*
X137881548Y-113165984D01*
X137811702Y-113111933D01*
X137803524Y-113105763D01*
X137696227Y-113018747D01*
X137569855Y-112906446D01*
X137434901Y-112779158D01*
X137301858Y-112647183D01*
X137181218Y-112520818D01*
X137083476Y-112410362D01*
X137041750Y-112358097D01*
X136918709Y-112174958D01*
X136821970Y-111990793D01*
X136758702Y-111819550D01*
X136752363Y-111795106D01*
X136726728Y-111705592D01*
X136704427Y-111654994D01*
X136688714Y-111645743D01*
X136682837Y-111680268D01*
G37*
X136682837Y-111680268D02*
X136688171Y-111747134D01*
X136722981Y-111889719D01*
X136790493Y-112053094D01*
X136884857Y-112224886D01*
X136981965Y-112368497D01*
X137062708Y-112469133D01*
X137163594Y-112582191D01*
X137278267Y-112701813D01*
X137400373Y-112822147D01*
X137523558Y-112937337D01*
X137641468Y-113041528D01*
X137747748Y-113128866D01*
X137836044Y-113193497D01*
X137900002Y-113229564D01*
X137922519Y-113235105D01*
X137948715Y-113228044D01*
X137949720Y-113225447D01*
X137930969Y-113206618D01*
X137881548Y-113165984D01*
X137811702Y-113111933D01*
X137803524Y-113105763D01*
X137696227Y-113018747D01*
X137569855Y-112906446D01*
X137434901Y-112779158D01*
X137301858Y-112647183D01*
X137181218Y-112520818D01*
X137083476Y-112410362D01*
X137041750Y-112358097D01*
X136918709Y-112174958D01*
X136821970Y-111990793D01*
X136758702Y-111819550D01*
X136752363Y-111795106D01*
X136726728Y-111705592D01*
X136704427Y-111654994D01*
X136688714Y-111645743D01*
X136682837Y-111680268D01*
G36*
X138240916Y-112290111D02*
G01*
X138302736Y-112354272D01*
X138337604Y-112386521D01*
X138352920Y-112392440D01*
X138356082Y-112377611D01*
X138356069Y-112376997D01*
X138337588Y-112351693D01*
X138290540Y-112306913D01*
X138248011Y-112271042D01*
X138140411Y-112184157D01*
X138240916Y-112290111D01*
G37*
X138240916Y-112290111D02*
X138302736Y-112354272D01*
X138337604Y-112386521D01*
X138352920Y-112392440D01*
X138356082Y-112377611D01*
X138356069Y-112376997D01*
X138337588Y-112351693D01*
X138290540Y-112306913D01*
X138248011Y-112271042D01*
X138140411Y-112184157D01*
X138240916Y-112290111D01*
G36*
X152992479Y-111316793D02*
G01*
X152982032Y-111363410D01*
X152976993Y-111449451D01*
X152976147Y-111530101D01*
X152978138Y-111631924D01*
X152983465Y-111712462D01*
X152991161Y-111759692D01*
X152995216Y-111766915D01*
X153030335Y-111769394D01*
X153094923Y-111764064D01*
X153119044Y-111760788D01*
X153242537Y-111725334D01*
X153335332Y-111663456D01*
X153385242Y-111589145D01*
X153397789Y-111544314D01*
X153204975Y-111544314D01*
X153192263Y-111557027D01*
X153179550Y-111544314D01*
X153192263Y-111531601D01*
X153204975Y-111544314D01*
X153397789Y-111544314D01*
X153405943Y-111515180D01*
X153397870Y-111461372D01*
X153354833Y-111419266D01*
X153270640Y-111380408D01*
X153219092Y-111362204D01*
X153128032Y-111333006D01*
X153053681Y-111311800D01*
X153011029Y-111302834D01*
X153009332Y-111302773D01*
X152992479Y-111316793D01*
G37*
X152992479Y-111316793D02*
X152982032Y-111363410D01*
X152976993Y-111449451D01*
X152976147Y-111530101D01*
X152978138Y-111631924D01*
X152983465Y-111712462D01*
X152991161Y-111759692D01*
X152995216Y-111766915D01*
X153030335Y-111769394D01*
X153094923Y-111764064D01*
X153119044Y-111760788D01*
X153242537Y-111725334D01*
X153335332Y-111663456D01*
X153385242Y-111589145D01*
X153397789Y-111544314D01*
X153204975Y-111544314D01*
X153192263Y-111557027D01*
X153179550Y-111544314D01*
X153192263Y-111531601D01*
X153204975Y-111544314D01*
X153397789Y-111544314D01*
X153405943Y-111515180D01*
X153397870Y-111461372D01*
X153354833Y-111419266D01*
X153270640Y-111380408D01*
X153219092Y-111362204D01*
X153128032Y-111333006D01*
X153053681Y-111311800D01*
X153011029Y-111302834D01*
X153009332Y-111302773D01*
X152992479Y-111316793D01*
G36*
X152590657Y-111359032D02*
G01*
X152496825Y-111363845D01*
X152456730Y-111366911D01*
X152351529Y-111376483D01*
X152287097Y-111386147D01*
X152253476Y-111399536D01*
X152240707Y-111420285D01*
X152238809Y-111446436D01*
X152258717Y-111563507D01*
X152312612Y-111662129D01*
X152391748Y-111733603D01*
X152487382Y-111769230D01*
X152561781Y-111767756D01*
X152611533Y-111742009D01*
X152629892Y-111714325D01*
X152652796Y-111623668D01*
X152672420Y-111529280D01*
X152686388Y-111445102D01*
X152692325Y-111385072D01*
X152689640Y-111363747D01*
X152659136Y-111358942D01*
X152590657Y-111359032D01*
G37*
X152590657Y-111359032D02*
X152496825Y-111363845D01*
X152456730Y-111366911D01*
X152351529Y-111376483D01*
X152287097Y-111386147D01*
X152253476Y-111399536D01*
X152240707Y-111420285D01*
X152238809Y-111446436D01*
X152258717Y-111563507D01*
X152312612Y-111662129D01*
X152391748Y-111733603D01*
X152487382Y-111769230D01*
X152561781Y-111767756D01*
X152611533Y-111742009D01*
X152629892Y-111714325D01*
X152652796Y-111623668D01*
X152672420Y-111529280D01*
X152686388Y-111445102D01*
X152692325Y-111385072D01*
X152689640Y-111363747D01*
X152659136Y-111358942D01*
X152590657Y-111359032D01*
G36*
X136783097Y-111298921D02*
G01*
X136756903Y-111349776D01*
X136738265Y-111409112D01*
X136735368Y-111456130D01*
X136736625Y-111460389D01*
X136752794Y-111461284D01*
X136778846Y-111422682D01*
X136790025Y-111398935D01*
X136819474Y-111327828D01*
X136829011Y-111291457D01*
X136820364Y-111278540D01*
X136808661Y-111277347D01*
X136783097Y-111298921D01*
G37*
X136783097Y-111298921D02*
X136756903Y-111349776D01*
X136738265Y-111409112D01*
X136735368Y-111456130D01*
X136736625Y-111460389D01*
X136752794Y-111461284D01*
X136778846Y-111422682D01*
X136790025Y-111398935D01*
X136819474Y-111327828D01*
X136829011Y-111291457D01*
X136820364Y-111278540D01*
X136808661Y-111277347D01*
X136783097Y-111298921D01*
G36*
X137745147Y-110881821D02*
G01*
X137742165Y-110882079D01*
X137607345Y-110900440D01*
X137463989Y-110931133D01*
X137320741Y-110970984D01*
X137186240Y-111016818D01*
X137069129Y-111065463D01*
X136978050Y-111113743D01*
X136921645Y-111158485D01*
X136907278Y-111188724D01*
X136910722Y-111220793D01*
X136913634Y-111223767D01*
X136937230Y-111210644D01*
X136991744Y-111179498D01*
X137047117Y-111147605D01*
X137251740Y-111053315D01*
X137497732Y-110982089D01*
X137722966Y-110942425D01*
X137843862Y-110922975D01*
X137918809Y-110904339D01*
X137947110Y-110888711D01*
X137928065Y-110878285D01*
X137860977Y-110875257D01*
X137745147Y-110881821D01*
G37*
X137745147Y-110881821D02*
X137742165Y-110882079D01*
X137607345Y-110900440D01*
X137463989Y-110931133D01*
X137320741Y-110970984D01*
X137186240Y-111016818D01*
X137069129Y-111065463D01*
X136978050Y-111113743D01*
X136921645Y-111158485D01*
X136907278Y-111188724D01*
X136910722Y-111220793D01*
X136913634Y-111223767D01*
X136937230Y-111210644D01*
X136991744Y-111179498D01*
X137047117Y-111147605D01*
X137251740Y-111053315D01*
X137497732Y-110982089D01*
X137722966Y-110942425D01*
X137843862Y-110922975D01*
X137918809Y-110904339D01*
X137947110Y-110888711D01*
X137928065Y-110878285D01*
X137860977Y-110875257D01*
X137745147Y-110881821D01*
G36*
X139530187Y-111637243D02*
G01*
X139553810Y-111688429D01*
X139596328Y-111749749D01*
X139663843Y-111828655D01*
X139743702Y-111912196D01*
X139823250Y-111987419D01*
X139889834Y-112041373D01*
X139912225Y-112055278D01*
X140014944Y-112084868D01*
X140138587Y-112085763D01*
X140262554Y-112058617D01*
X140301572Y-112042906D01*
X140355927Y-112011890D01*
X140415499Y-111969408D01*
X140469609Y-111924591D01*
X140507577Y-111886568D01*
X140518724Y-111864469D01*
X140513022Y-111862132D01*
X140485609Y-111873092D01*
X140425180Y-111902130D01*
X140343635Y-111943484D01*
X140324255Y-111953552D01*
X140221914Y-112003143D01*
X140146472Y-112028735D01*
X140082657Y-112034749D01*
X140052722Y-112032120D01*
X139944517Y-111997347D01*
X139832241Y-111919881D01*
X139712364Y-111797020D01*
X139657734Y-111729730D01*
X139595724Y-111656183D01*
X139551071Y-111615170D01*
X139527863Y-111608315D01*
X139530187Y-111637243D01*
G37*
X139530187Y-111637243D02*
X139553810Y-111688429D01*
X139596328Y-111749749D01*
X139663843Y-111828655D01*
X139743702Y-111912196D01*
X139823250Y-111987419D01*
X139889834Y-112041373D01*
X139912225Y-112055278D01*
X140014944Y-112084868D01*
X140138587Y-112085763D01*
X140262554Y-112058617D01*
X140301572Y-112042906D01*
X140355927Y-112011890D01*
X140415499Y-111969408D01*
X140469609Y-111924591D01*
X140507577Y-111886568D01*
X140518724Y-111864469D01*
X140513022Y-111862132D01*
X140485609Y-111873092D01*
X140425180Y-111902130D01*
X140343635Y-111943484D01*
X140324255Y-111953552D01*
X140221914Y-112003143D01*
X140146472Y-112028735D01*
X140082657Y-112034749D01*
X140052722Y-112032120D01*
X139944517Y-111997347D01*
X139832241Y-111919881D01*
X139712364Y-111797020D01*
X139657734Y-111729730D01*
X139595724Y-111656183D01*
X139551071Y-111615170D01*
X139527863Y-111608315D01*
X139530187Y-111637243D01*
G36*
X140381884Y-110805493D02*
G01*
X140329891Y-110851471D01*
X140288763Y-110934907D01*
X140252983Y-111042098D01*
X140224011Y-111162500D01*
X140203304Y-111285574D01*
X140192321Y-111400776D01*
X140192520Y-111497565D01*
X140205361Y-111565399D01*
X140227375Y-111592445D01*
X140325477Y-111610940D01*
X140404925Y-111587423D01*
X140453460Y-111532886D01*
X140500885Y-111418995D01*
X140536404Y-111290009D01*
X140558879Y-111157510D01*
X140567169Y-111033077D01*
X140560133Y-110928289D01*
X140536631Y-110854725D01*
X140522042Y-110836343D01*
X140451443Y-110798761D01*
X140381884Y-110805493D01*
G37*
X140381884Y-110805493D02*
X140329891Y-110851471D01*
X140288763Y-110934907D01*
X140252983Y-111042098D01*
X140224011Y-111162500D01*
X140203304Y-111285574D01*
X140192321Y-111400776D01*
X140192520Y-111497565D01*
X140205361Y-111565399D01*
X140227375Y-111592445D01*
X140325477Y-111610940D01*
X140404925Y-111587423D01*
X140453460Y-111532886D01*
X140500885Y-111418995D01*
X140536404Y-111290009D01*
X140558879Y-111157510D01*
X140567169Y-111033077D01*
X140560133Y-110928289D01*
X140536631Y-110854725D01*
X140522042Y-110836343D01*
X140451443Y-110798761D01*
X140381884Y-110805493D01*
G36*
X139796680Y-110705290D02*
G01*
X139760472Y-110760618D01*
X139725200Y-110847579D01*
X139692791Y-110955740D01*
X139665173Y-111074666D01*
X139644272Y-111193925D01*
X139632016Y-111303082D01*
X139630332Y-111391705D01*
X139641148Y-111449358D01*
X139656267Y-111465441D01*
X139747567Y-111490742D01*
X139806099Y-111494037D01*
X139846096Y-111472727D01*
X139881746Y-111424291D01*
X139923449Y-111334601D01*
X139957764Y-111221221D01*
X139983234Y-111096140D01*
X139998401Y-110971346D01*
X140001807Y-110858830D01*
X139991994Y-110770579D01*
X139967559Y-110718634D01*
X139903616Y-110684419D01*
X139835620Y-110683743D01*
X139796680Y-110705290D01*
G37*
X139796680Y-110705290D02*
X139760472Y-110760618D01*
X139725200Y-110847579D01*
X139692791Y-110955740D01*
X139665173Y-111074666D01*
X139644272Y-111193925D01*
X139632016Y-111303082D01*
X139630332Y-111391705D01*
X139641148Y-111449358D01*
X139656267Y-111465441D01*
X139747567Y-111490742D01*
X139806099Y-111494037D01*
X139846096Y-111472727D01*
X139881746Y-111424291D01*
X139923449Y-111334601D01*
X139957764Y-111221221D01*
X139983234Y-111096140D01*
X139998401Y-110971346D01*
X140001807Y-110858830D01*
X139991994Y-110770579D01*
X139967559Y-110718634D01*
X139903616Y-110684419D01*
X139835620Y-110683743D01*
X139796680Y-110705290D01*
%TD*%
D11*
%TO.C,.*%
X98780000Y-114110000D03*
%TD*%
%TO.C,.*%
X98780000Y-154860000D03*
%TD*%
%TO.C,.*%
X164880000Y-114110000D03*
%TD*%
%TO.C,.*%
X164880000Y-154860000D03*
%TD*%
D12*
%TO.C,*%
X157900000Y-136780000D03*
G36*
G01*
X164512072Y-138233758D02*
X164512072Y-138233758D01*
G75*
G02*
X165524768Y-137586112I830171J-182525D01*
G01*
X165524768Y-137586112D01*
G75*
G02*
X166172414Y-138598808I-182525J-830171D01*
G01*
X166172414Y-138598808D01*
G75*
G02*
X165159718Y-139246454I-830171J182525D01*
G01*
X165159718Y-139246454D01*
G75*
G02*
X164512072Y-138233758I182525J830171D01*
G01*
G37*
%TD*%
%TO.C,*%
G36*
G01*
X165192103Y-133594035D02*
X165192103Y-133594035D01*
G75*
G02*
X166160895Y-132882387I840220J-128572D01*
G01*
X166160895Y-132882387D01*
G75*
G02*
X166872543Y-133851179I-128572J-840220D01*
G01*
X166872543Y-133851179D01*
G75*
G02*
X165903751Y-134562827I-840220J128572D01*
G01*
X165903751Y-134562827D01*
G75*
G02*
X165192103Y-133594035I128572J840220D01*
G01*
G37*
X158500000Y-132570000D03*
%TD*%
%TO.C,*%
G36*
G01*
X165534090Y-127290279D02*
X165534090Y-127290279D01*
G75*
G02*
X166197563Y-126287880I832936J169463D01*
G01*
X166197563Y-126287880D01*
G75*
G02*
X167199962Y-126951353I169463J-832936D01*
G01*
X167199962Y-126951353D01*
G75*
G02*
X166536489Y-127953752I-832936J-169463D01*
G01*
X166536489Y-127953752D01*
G75*
G02*
X165534090Y-127290279I-169463J832936D01*
G01*
G37*
X158900000Y-128640000D03*
%TD*%
%TO.C,*%
G36*
G01*
X161595616Y-121068223D02*
X161595616Y-121068223D01*
G75*
G02*
X162267811Y-120071652I834383J162188D01*
G01*
X162267811Y-120071652D01*
G75*
G02*
X163264382Y-120743847I162188J-834383D01*
G01*
X163264382Y-120743847D01*
G75*
G02*
X162592187Y-121740418I-834383J-162188D01*
G01*
X162592187Y-121740418D01*
G75*
G02*
X161595616Y-121068223I-162188J834383D01*
G01*
G37*
X154950000Y-122360000D03*
%TD*%
D13*
%TO.C,*%
X146620000Y-134780000D03*
D12*
X139000000Y-134780000D03*
%TD*%
%TO.C,*%
G36*
G01*
X152461819Y-143625823D02*
X152461819Y-143625823D01*
G75*
G02*
X153371788Y-142840358I847717J-62252D01*
G01*
X153371788Y-142840358D01*
G75*
G02*
X154157253Y-143750327I-62252J-847717D01*
G01*
X154157253Y-143750327D01*
G75*
G02*
X153247284Y-144535792I-847717J62252D01*
G01*
X153247284Y-144535792D01*
G75*
G02*
X152461819Y-143625823I62252J847717D01*
G01*
G37*
X145710000Y-143130000D03*
%TD*%
%TO.C,*%
G36*
G01*
X152261331Y-146622514D02*
X152261331Y-146622514D01*
G75*
G02*
X153153246Y-145816607I848911J-43004D01*
G01*
X153153246Y-145816607D01*
G75*
G02*
X153959153Y-146708522I-43004J-848911D01*
G01*
X153959153Y-146708522D01*
G75*
G02*
X153067238Y-147514429I-848911J43004D01*
G01*
X153067238Y-147514429D01*
G75*
G02*
X152261331Y-146622514I43004J848911D01*
G01*
G37*
X145500000Y-146280000D03*
%TD*%
%TO.C,*%
X154916741Y-136267664D03*
G36*
G01*
X155957031Y-129699534D02*
X155957031Y-129699534D01*
G75*
G02*
X155250465Y-128727030I132969J839535D01*
G01*
X155250465Y-128727030D01*
G75*
G02*
X156222969Y-128020464I839535J-132969D01*
G01*
X156222969Y-128020464D01*
G75*
G02*
X156929535Y-128992968I-132969J-839535D01*
G01*
X156929535Y-128992968D01*
G75*
G02*
X155957031Y-129699534I-839535J132969D01*
G01*
G37*
%TD*%
%TO.C,*%
X144840000Y-130720000D03*
G36*
G01*
X145477374Y-124100616D02*
X145477374Y-124100616D01*
G75*
G02*
X144712756Y-123173060I81469J846087D01*
G01*
X144712756Y-123173060D01*
G75*
G02*
X145640312Y-122408442I846087J-81469D01*
G01*
X145640312Y-122408442D01*
G75*
G02*
X146404930Y-123335998I-81469J-846087D01*
G01*
X146404930Y-123335998D01*
G75*
G02*
X145477374Y-124100616I-846087J81469D01*
G01*
G37*
%TD*%
%TO.C,*%
X137725615Y-130277685D03*
G36*
G01*
X140141236Y-124081938D02*
X140141236Y-124081938D01*
G75*
G02*
X139658062Y-122981236I308764J791938D01*
G01*
X139658062Y-122981236D01*
G75*
G02*
X140758764Y-122498062I791938J-308764D01*
G01*
X140758764Y-122498062D01*
G75*
G02*
X141241938Y-123598764I-308764J-791938D01*
G01*
X141241938Y-123598764D01*
G75*
G02*
X140141236Y-124081938I-791938J308764D01*
G01*
G37*
%TD*%
D14*
%TO.C,*%
G36*
X150241919Y-123204635D02*
G01*
X150601841Y-121645643D01*
X152160833Y-122005565D01*
X151800911Y-123564557D01*
X150241919Y-123204635D01*
G37*
D15*
X150058625Y-127554900D03*
X150630000Y-125080000D03*
%TD*%
D12*
%TO.C,*%
X143050000Y-139020000D03*
G36*
G01*
X149677639Y-139564891D02*
X149677639Y-139564891D01*
G75*
G02*
X150594429Y-138787397I847142J-69648D01*
G01*
X150594429Y-138787397D01*
G75*
G02*
X151371923Y-139704187I-69648J-847142D01*
G01*
X151371923Y-139704187D01*
G75*
G02*
X150455133Y-140481681I-847142J69648D01*
G01*
X150455133Y-140481681D01*
G75*
G02*
X149677639Y-139564891I69648J847142D01*
G01*
G37*
%TD*%
D14*
%TO.C,*%
G36*
X151264951Y-134304270D02*
G01*
X151214694Y-135903481D01*
X149615483Y-135853224D01*
X149665740Y-134254013D01*
X151264951Y-134304270D01*
G37*
D15*
X150599784Y-130001254D03*
X150520000Y-132540000D03*
%TD*%
%TO.C,*%
X164720001Y-144490000D03*
X165117343Y-141981271D03*
D14*
G36*
X165237954Y-146333725D02*
G01*
X164987659Y-147914026D01*
X163407358Y-147663731D01*
X163657653Y-146083430D01*
X165237954Y-146333725D01*
G37*
%TD*%
%TO.C,*%
G36*
X158715992Y-147905002D02*
G01*
X158429908Y-149479218D01*
X156855692Y-149193134D01*
X157141776Y-147618918D01*
X158715992Y-147905002D01*
G37*
D15*
X158694157Y-143550932D03*
X158240000Y-146050000D03*
%TD*%
D14*
%TO.C,*%
G36*
X150006270Y-152696388D02*
G01*
X151155272Y-153809848D01*
X150041812Y-154958850D01*
X148892810Y-153845390D01*
X150006270Y-152696388D01*
G37*
D15*
X146375959Y-150292382D03*
X148200000Y-152060000D03*
%TD*%
%TO.C,*%
G36*
G01*
X141889575Y-143057055D02*
X141889575Y-143057055D01*
G75*
G02*
X140864632Y-142428970I-198429J826514D01*
G01*
X140864632Y-142428970D01*
G75*
G02*
X141492717Y-141404027I826514J198429D01*
G01*
X141492717Y-141404027D01*
G75*
G02*
X142517660Y-142032112I198429J-826514D01*
G01*
X142517660Y-142032112D01*
G75*
G02*
X141889575Y-143057055I-826514J-198429D01*
G01*
G37*
D12*
X143470000Y-149640000D03*
%TD*%
%TO.C,*%
G36*
G01*
X133520663Y-149625638D02*
X133520663Y-149625638D01*
G75*
G02*
X132554362Y-150340663I-840663J125638D01*
G01*
X132554362Y-150340663D01*
G75*
G02*
X131839337Y-149374362I125638J840663D01*
G01*
X131839337Y-149374362D01*
G75*
G02*
X132805638Y-148659337I840663J-125638D01*
G01*
X132805638Y-148659337D01*
G75*
G02*
X133520663Y-149625638I-125638J-840663D01*
G01*
G37*
X140216301Y-150626308D03*
%TD*%
D15*
%TO.C,*%
X137642100Y-146264564D03*
X140154201Y-145889128D03*
D14*
G36*
X136039460Y-147312965D02*
G01*
X134457035Y-147549460D01*
X134220540Y-145967035D01*
X135802965Y-145730540D01*
X136039460Y-147312965D01*
G37*
%TD*%
%TO.C,*%
G36*
G01*
X130613663Y-145487918D02*
X130613663Y-145487918D01*
G75*
G02*
X129881882Y-144534243I110947J842728D01*
G01*
X129881882Y-144534243D01*
G75*
G02*
X130835557Y-143802462I842728J-110947D01*
G01*
X130835557Y-143802462D01*
G75*
G02*
X131567338Y-144756137I-110947J-842728D01*
G01*
X131567338Y-144756137D01*
G75*
G02*
X130613663Y-145487918I-842728J110947D01*
G01*
G37*
D12*
X129730000Y-152200000D03*
%TD*%
%TO.C,2073*%
G36*
G01*
X109035693Y-142922178D02*
X109035693Y-142922178D01*
G75*
G02*
X107997821Y-142315694I-215694J822178D01*
G01*
X107997821Y-142315694D01*
G75*
G02*
X108604305Y-141277822I822178J215694D01*
G01*
X108604305Y-141277822D01*
G75*
G02*
X109642177Y-141884306I215694J-822178D01*
G01*
X109642177Y-141884306D01*
G75*
G02*
X109035693Y-142922178I-822178J-215694D01*
G01*
G37*
G36*
G01*
X118339910Y-148359121D02*
X118339910Y-148359121D01*
G75*
G02*
X117302038Y-147752637I-215694J822178D01*
G01*
X117302038Y-147752637D01*
G75*
G02*
X117908522Y-146714765I822178J215694D01*
G01*
X117908522Y-146714765D01*
G75*
G02*
X118946394Y-147321249I215694J-822178D01*
G01*
X118946394Y-147321249D01*
G75*
G02*
X118339910Y-148359121I-822178J-215694D01*
G01*
G37*
G36*
G01*
X111492555Y-142277634D02*
X111492555Y-142277634D01*
G75*
G02*
X110454683Y-141671150I-215694J822178D01*
G01*
X110454683Y-141671150D01*
G75*
G02*
X111061167Y-140633278I822178J215694D01*
G01*
X111061167Y-140633278D01*
G75*
G02*
X112099039Y-141239762I215694J-822178D01*
G01*
X112099039Y-141239762D01*
G75*
G02*
X111492555Y-142277634I-822178J-215694D01*
G01*
G37*
G36*
G01*
X115883050Y-149003668D02*
X115883050Y-149003668D01*
G75*
G02*
X114845178Y-148397184I-215694J822178D01*
G01*
X114845178Y-148397184D01*
G75*
G02*
X115451662Y-147359312I822178J215694D01*
G01*
X115451662Y-147359312D01*
G75*
G02*
X116489534Y-147965796I215694J-822178D01*
G01*
X116489534Y-147965796D01*
G75*
G02*
X115883050Y-149003668I-822178J-215694D01*
G01*
G37*
G36*
G01*
X113949415Y-141633087D02*
X113949415Y-141633087D01*
G75*
G02*
X112911543Y-141026603I-215694J822178D01*
G01*
X112911543Y-141026603D01*
G75*
G02*
X113518027Y-139988731I822178J215694D01*
G01*
X113518027Y-139988731D01*
G75*
G02*
X114555899Y-140595215I215694J-822178D01*
G01*
X114555899Y-140595215D01*
G75*
G02*
X113949415Y-141633087I-822178J-215694D01*
G01*
G37*
G36*
G01*
X113426190Y-149648213D02*
X113426190Y-149648213D01*
G75*
G02*
X112388318Y-149041729I-215694J822178D01*
G01*
X112388318Y-149041729D01*
G75*
G02*
X112994802Y-148003857I822178J215694D01*
G01*
X112994802Y-148003857D01*
G75*
G02*
X114032674Y-148610341I215694J-822178D01*
G01*
X114032674Y-148610341D01*
G75*
G02*
X113426190Y-149648213I-822178J-215694D01*
G01*
G37*
G36*
G01*
X116406275Y-140988542D02*
X116406275Y-140988542D01*
G75*
G02*
X115368403Y-140382058I-215694J822178D01*
G01*
X115368403Y-140382058D01*
G75*
G02*
X115974887Y-139344186I822178J215694D01*
G01*
X115974887Y-139344186D01*
G75*
G02*
X117012759Y-139950670I215694J-822178D01*
G01*
X117012759Y-139950670D01*
G75*
G02*
X116406275Y-140988542I-822178J-215694D01*
G01*
G37*
D14*
G36*
X111791508Y-150077063D02*
G01*
X110147153Y-150508452D01*
X109715764Y-148864097D01*
X111360119Y-148432708D01*
X111791508Y-150077063D01*
G37*
%TD*%
%TO.C,*%
G36*
G01*
X115767356Y-153266933D02*
X115767356Y-153266933D01*
G75*
G02*
X114687967Y-152592456I-202456J876933D01*
G01*
X114687967Y-152592456D01*
G75*
G02*
X115362444Y-151513067I876933J202456D01*
G01*
X115362444Y-151513067D01*
G75*
G02*
X116441833Y-152187544I202456J-876933D01*
G01*
X116441833Y-152187544D01*
G75*
G02*
X115767356Y-153266933I-876933J-202456D01*
G01*
G37*
G36*
X114169389Y-153635853D02*
G01*
X112415523Y-154040765D01*
X112010611Y-152286899D01*
X113764477Y-151881987D01*
X114169389Y-153635853D01*
G37*
%TD*%
%TO.C,*%
G36*
G01*
X123693942Y-128368988D02*
X123693942Y-128368988D01*
G75*
G02*
X124528978Y-129233694I-14835J-849871D01*
G01*
X124528978Y-129233694D01*
G75*
G02*
X123664272Y-130068730I-849871J14835D01*
G01*
X123664272Y-130068730D01*
G75*
G02*
X122829236Y-129204024I14835J849871D01*
G01*
X122829236Y-129204024D01*
G75*
G02*
X123693942Y-128368988I849871J-14835D01*
G01*
G37*
D12*
X123810000Y-121720000D03*
%TD*%
%TO.C,*%
G36*
G01*
X130143663Y-114257918D02*
X130143663Y-114257918D01*
G75*
G02*
X129411882Y-113304243I110947J842728D01*
G01*
X129411882Y-113304243D01*
G75*
G02*
X130365557Y-112572462I842728J-110947D01*
G01*
X130365557Y-112572462D01*
G75*
G02*
X131097338Y-113526137I-110947J-842728D01*
G01*
X131097338Y-113526137D01*
G75*
G02*
X130143663Y-114257918I-842728J110947D01*
G01*
G37*
X129260000Y-120970000D03*
%TD*%
%TO.C,*%
G36*
G01*
X124003310Y-112287380D02*
X124003310Y-112287380D01*
G75*
G02*
X123222620Y-111373310I66690J847380D01*
G01*
X123222620Y-111373310D01*
G75*
G02*
X124136690Y-110592620I847380J-66690D01*
G01*
X124136690Y-110592620D01*
G75*
G02*
X124917380Y-111506690I-66690J-847380D01*
G01*
X124917380Y-111506690D01*
G75*
G02*
X124003310Y-112287380I-847380J66690D01*
G01*
G37*
X123472142Y-119036510D03*
%TD*%
%TO.C,*%
G36*
G01*
X119635458Y-115617019D02*
X119635458Y-115617019D01*
G75*
G02*
X118848406Y-114708421I60773J847825D01*
G01*
X118848406Y-114708421D01*
G75*
G02*
X119757004Y-113921369I847825J-60773D01*
G01*
X119757004Y-113921369D01*
G75*
G02*
X120544056Y-114829967I-60773J-847825D01*
G01*
X120544056Y-114829967D01*
G75*
G02*
X119635458Y-115617019I-847825J60773D01*
G01*
G37*
X119160000Y-122250000D03*
%TD*%
%TO.C,*%
G36*
G01*
X113771802Y-113468168D02*
X113771802Y-113468168D01*
G75*
G02*
X112671946Y-112983074I-307381J792475D01*
G01*
X112671946Y-112983074D01*
G75*
G02*
X113157040Y-111883218I792475J307381D01*
G01*
X113157040Y-111883218D01*
G75*
G02*
X114256896Y-112368312I307381J-792475D01*
G01*
X114256896Y-112368312D01*
G75*
G02*
X113771802Y-113468168I-792475J-307381D01*
G01*
G37*
X116220000Y-119780000D03*
%TD*%
%TO.C,*%
X112530000Y-122100000D03*
G36*
G01*
X109310025Y-116144779D02*
X109310025Y-116144779D01*
G75*
G02*
X108158043Y-115801359I-404281J747701D01*
G01*
X108158043Y-115801359D01*
G75*
G02*
X108501463Y-114649377I747701J404281D01*
G01*
X108501463Y-114649377D01*
G75*
G02*
X109653445Y-114992797I404281J-747701D01*
G01*
X109653445Y-114992797D01*
G75*
G02*
X109310025Y-116144779I-747701J-404281D01*
G01*
G37*
%TD*%
%TO.C,*%
G36*
G01*
X133132709Y-129500910D02*
X133132709Y-129500910D01*
G75*
G02*
X132168909Y-128782516I-122703J841097D01*
G01*
X132168909Y-128782516D01*
G75*
G02*
X132887303Y-127818716I841097J122703D01*
G01*
X132887303Y-127818716D01*
G75*
G02*
X133851103Y-128537110I122703J-841097D01*
G01*
X133851103Y-128537110D01*
G75*
G02*
X133132709Y-129500910I-841097J-122703D01*
G01*
G37*
X134110000Y-136200000D03*
%TD*%
D14*
%TO.C,*%
G36*
X128285679Y-141853257D02*
G01*
X126685973Y-141883973D01*
X126655257Y-140284267D01*
X128254963Y-140253551D01*
X128285679Y-141853257D01*
G37*
D15*
X132549532Y-140971239D03*
X130010000Y-141020000D03*
%TD*%
D14*
%TO.C,REF\u002A\u002A*%
G36*
X124238572Y-135378238D02*
G01*
X122787301Y-136051895D01*
X122113644Y-134600624D01*
X123564915Y-133926967D01*
X124238572Y-135378238D01*
G37*
D15*
X127783892Y-132850569D03*
X125480000Y-133920000D03*
%TD*%
D12*
%TO.C,REF\u002A\u002A*%
X119293514Y-138952251D03*
G36*
G01*
X125900471Y-137475422D02*
X125900471Y-137475422D01*
G75*
G02*
X126544578Y-136460471I829529J185422D01*
G01*
X126544578Y-136460471D01*
G75*
G02*
X127559529Y-137104578I185422J-829529D01*
G01*
X127559529Y-137104578D01*
G75*
G02*
X126915422Y-138119529I-829529J-185422D01*
G01*
X126915422Y-138119529D01*
G75*
G02*
X125900471Y-137475422I-185422J829529D01*
G01*
G37*
%TD*%
%TO.C,10k*%
G36*
G01*
X101279946Y-122143579D02*
X101279946Y-122143579D01*
G75*
G02*
X100235780Y-122739161I-819874J224292D01*
G01*
X100235780Y-122739161D01*
G75*
G02*
X99640198Y-121694995I224292J819874D01*
G01*
X99640198Y-121694995D01*
G75*
G02*
X100684364Y-121099413I819874J-224292D01*
G01*
X100684364Y-121099413D01*
G75*
G02*
X101279946Y-122143579I-224292J-819874D01*
G01*
G37*
X107810000Y-123930000D03*
%TD*%
%TO.C,*%
X118247480Y-125730000D03*
G36*
G01*
X118595514Y-132370888D02*
X118595514Y-132370888D01*
G75*
G02*
X119488835Y-133175237I44486J-848835D01*
G01*
X119488835Y-133175237D01*
G75*
G02*
X118684486Y-134068558I-848835J-44486D01*
G01*
X118684486Y-134068558D01*
G75*
G02*
X117791165Y-133264209I-44486J848835D01*
G01*
X117791165Y-133264209D01*
G75*
G02*
X118595514Y-132370888I848835J44486D01*
G01*
G37*
%TD*%
%TO.C,*%
G36*
G01*
X113946402Y-135620067D02*
X113946402Y-135620067D01*
G75*
G02*
X114549259Y-134580084I821420J218563D01*
G01*
X114549259Y-134580084D01*
G75*
G02*
X115589242Y-135182941I218563J-821420D01*
G01*
X115589242Y-135182941D01*
G75*
G02*
X114986385Y-136222924I-821420J-218563D01*
G01*
X114986385Y-136222924D01*
G75*
G02*
X113946402Y-135620067I-218563J821420D01*
G01*
G37*
X107520000Y-137330000D03*
%TD*%
%TO.C,470K*%
G36*
G01*
X113544216Y-131046663D02*
X113544216Y-131046663D01*
G75*
G02*
X114130663Y-129997340I817885J231438D01*
G01*
X114130663Y-129997340D01*
G75*
G02*
X115179986Y-130583787I231438J-817885D01*
G01*
X115179986Y-130583787D01*
G75*
G02*
X114593539Y-131633110I-817885J-231438D01*
G01*
X114593539Y-131633110D01*
G75*
G02*
X113544216Y-131046663I-231438J817885D01*
G01*
G37*
X107030000Y-132890000D03*
%TD*%
%TO.C,SPKIN*%
X104130000Y-129360000D03*
G36*
G01*
X110181243Y-126602289D02*
X110181243Y-126602289D01*
G75*
G02*
X110602221Y-125476333I773467J352489D01*
G01*
X110602221Y-125476333D01*
G75*
G02*
X111728177Y-125897311I352489J-773467D01*
G01*
X111728177Y-125897311D01*
G75*
G02*
X111307199Y-127023267I-773467J-352489D01*
G01*
X111307199Y-127023267D01*
G75*
G02*
X110181243Y-126602289I-352489J773467D01*
G01*
G37*
%TD*%
%TO.C,*%
X99490000Y-129920000D03*
G36*
G01*
X101808005Y-136152926D02*
X101808005Y-136152926D01*
G75*
G02*
X102900981Y-136653330I296286J-796690D01*
G01*
X102900981Y-136653330D01*
G75*
G02*
X102400577Y-137746306I-796690J-296286D01*
G01*
X102400577Y-137746306D01*
G75*
G02*
X101307601Y-137245902I-296286J796690D01*
G01*
X101307601Y-137245902D01*
G75*
G02*
X101808005Y-136152926I796690J296286D01*
G01*
G37*
%TD*%
D16*
%TO.C,REF\u002A\u002A*%
X98989027Y-144064221D03*
D14*
G36*
X105107518Y-143545509D02*
G01*
X104924491Y-145637518D01*
X102832482Y-145454491D01*
X103015509Y-143362482D01*
X105107518Y-143545509D01*
G37*
%TD*%
%TO.C,*%
G36*
X130706577Y-126003239D02*
G01*
X129115936Y-126176038D01*
X128943137Y-124585397D01*
X130533778Y-124412598D01*
X130706577Y-126003239D01*
G37*
D15*
X134875144Y-124745681D03*
X132350000Y-125020000D03*
%TD*%
D14*
%TO.C,REF\u002A\u002A*%
G36*
X146672944Y-117584870D02*
G01*
X144934278Y-117118996D01*
X145400152Y-115380330D01*
X147138818Y-115846204D01*
X146672944Y-117584870D01*
G37*
G36*
G01*
X148257063Y-118009333D02*
X148257063Y-118009333D01*
G75*
G02*
X147620667Y-116907063I232937J869333D01*
G01*
X147620667Y-116907063D01*
G75*
G02*
X148722937Y-116270667I869333J-232937D01*
G01*
X148722937Y-116270667D01*
G75*
G02*
X149359333Y-117372937I-232937J-869333D01*
G01*
X149359333Y-117372937D01*
G75*
G02*
X148257063Y-118009333I-869333J232937D01*
G01*
G37*
%TD*%
%TO.C,*%
G36*
X132943154Y-120087497D02*
G01*
X131351919Y-120254742D01*
X131184674Y-118663507D01*
X132775909Y-118496262D01*
X132943154Y-120087497D01*
G37*
D15*
X137116085Y-118844497D03*
X134590000Y-119110000D03*
%TD*%
M02*
