%TF.GenerationSoftware,KiCad,Pcbnew,(5.1.6)-1*%
%TF.CreationDate,2020-10-30T22:14:25-05:00*%
%TF.ProjectId,NOSBRINE,4e4f5342-5249-44e4-952e-6b696361645f,rev?*%
%TF.SameCoordinates,Original*%
%TF.FileFunction,Soldermask,Top*%
%TF.FilePolarity,Negative*%
%FSLAX46Y46*%
G04 Gerber Fmt 4.6, Leading zero omitted, Abs format (unit mm)*
G04 Created by KiCad (PCBNEW (5.1.6)-1) date 2020-10-30 22:14:25*
%MOMM*%
%LPD*%
G01*
G04 APERTURE LIST*
%ADD10C,3.300000*%
%ADD11C,1.600000*%
%ADD12R,1.600000X1.600000*%
%ADD13O,2.290000X1.840000*%
%ADD14R,2.100000X2.100000*%
%ADD15C,1.700000*%
%ADD16C,0.100000*%
%ADD17C,1.900000*%
%ADD18C,2.100000*%
%ADD19R,1.700000X1.700000*%
%ADD20O,1.700000X1.700000*%
G04 APERTURE END LIST*
D10*
%TO.C,REF\u002A\u002A*%
X103020000Y-145000000D03*
%TD*%
%TO.C,REF\u002A\u002A*%
X222970000Y-145000000D03*
%TD*%
%TO.C,REF\u002A\u002A*%
X222970000Y-25050000D03*
%TD*%
%TO.C,REF\u002A\u002A*%
X103020000Y-25050000D03*
%TD*%
D11*
%TO.C,REF\u002A\u002A*%
X199560000Y-33870000D03*
%TD*%
%TO.C,REF\u002A\u002A*%
X126590000Y-136220000D03*
%TD*%
D12*
%TO.C,REF\u002A\u002A*%
X126580000Y-138870000D03*
%TD*%
%TO.C,REF\u002A\u002A*%
X199540000Y-31400000D03*
%TD*%
D13*
%TO.C,REF\u002A\u002A*%
X109770000Y-49800000D03*
G36*
G01*
X108889367Y-46340000D02*
X110650633Y-46340000D01*
G75*
G02*
X110915000Y-46604367I0J-264367D01*
G01*
X110915000Y-47915633D01*
G75*
G02*
X110650633Y-48180000I-264367J0D01*
G01*
X108889367Y-48180000D01*
G75*
G02*
X108625000Y-47915633I0J264367D01*
G01*
X108625000Y-46604367D01*
G75*
G02*
X108889367Y-46340000I264367J0D01*
G01*
G37*
%TD*%
D11*
%TO.C,REF\u002A\u002A*%
X153420000Y-65840000D03*
%TD*%
%TO.C,REF\u002A\u002A*%
X172390000Y-103890000D03*
%TD*%
%TO.C,REF\u002A\u002A*%
X167160000Y-98350000D03*
%TD*%
%TO.C,REF\u002A\u002A*%
X158650000Y-71380000D03*
%TD*%
D14*
%TO.C,REF\u002A\u002A*%
X216260000Y-85880000D03*
%TD*%
%TO.C,REF\u002A\u002A*%
X109400000Y-84020000D03*
%TD*%
D15*
%TO.C,REF\u002A\u002A*%
X134778720Y-100284625D03*
X131533577Y-101595748D03*
%TD*%
%TO.C,REF\u002A\u002A*%
X190803577Y-69615748D03*
X194048720Y-68304625D03*
%TD*%
%TO.C,REF\u002A\u002A*%
X202636532Y-58173229D03*
X200205228Y-60690918D03*
%TD*%
%TO.C,REF\u002A\u002A*%
X122995228Y-111710918D03*
X125426532Y-109193229D03*
%TD*%
D16*
%TO.C,REF\u002A\u002A*%
G36*
X143178532Y-125595732D02*
G01*
X144914268Y-126368532D01*
X144141468Y-128104268D01*
X142405732Y-127331468D01*
X143178532Y-125595732D01*
G37*
D17*
X144676842Y-124566136D03*
X145693683Y-122282273D03*
%TD*%
%TO.C,REF\u002A\u002A*%
X178198914Y-51299221D03*
X178590000Y-48830000D03*
D16*
G36*
X179770777Y-47447696D02*
G01*
X177894169Y-47150470D01*
X178191395Y-45273862D01*
X180068003Y-45571088D01*
X179770777Y-47447696D01*
G37*
%TD*%
D14*
%TO.C,REF\u002A\u002A*%
X188850000Y-79790000D03*
%TD*%
%TO.C,REF\u002A\u002A*%
X136750000Y-90140000D03*
%TD*%
%TO.C,REF\u002A\u002A*%
X206330000Y-136380000D03*
%TD*%
%TO.C,REF\u002A\u002A*%
X134760000Y-127370000D03*
%TD*%
%TO.C,REF\u002A\u002A*%
X119340000Y-33510000D03*
%TD*%
%TO.C,REF\u002A\u002A*%
X190910000Y-42450000D03*
%TD*%
D18*
%TO.C,REF\u002A\u002A*%
X205444466Y-35675534D03*
D16*
G36*
X208980000Y-30655076D02*
G01*
X210464924Y-32140000D01*
X208980000Y-33624924D01*
X207495076Y-32140000D01*
X208980000Y-30655076D01*
G37*
%TD*%
%TO.C,REF\u002A\u002A*%
G36*
X134423738Y-130933202D02*
G01*
X136356798Y-131753738D01*
X135536262Y-133686798D01*
X133603202Y-132866262D01*
X134423738Y-130933202D01*
G37*
D18*
X133026344Y-136912524D03*
%TD*%
%TO.C,REF\u002A\u002A*%
X121466769Y-133960008D03*
D16*
G36*
X117758177Y-138854020D02*
G01*
X116325980Y-137318177D01*
X117861823Y-135885980D01*
X119294020Y-137421823D01*
X117758177Y-138854020D01*
G37*
%TD*%
%TO.C,REF\u002A\u002A*%
G36*
G01*
X109732965Y-55023914D02*
X109732965Y-55023914D01*
G75*
G02*
X108626443Y-55493604I-788106J318416D01*
G01*
X108626443Y-55493604D01*
G75*
G02*
X108156753Y-54387082I318416J788106D01*
G01*
X108156753Y-54387082D01*
G75*
G02*
X109263275Y-53917392I788106J-318416D01*
G01*
X109263275Y-53917392D01*
G75*
G02*
X109732965Y-55023914I-318416J-788106D01*
G01*
G37*
G36*
X117116522Y-57090309D02*
G01*
X116479691Y-58666522D01*
X114903478Y-58029691D01*
X115540309Y-56453478D01*
X117116522Y-57090309D01*
G37*
%TD*%
%TO.C,REF\u002A\u002A*%
G36*
X148640787Y-53827760D02*
G01*
X149332240Y-55380787D01*
X147779213Y-56072240D01*
X147087760Y-54519213D01*
X148640787Y-53827760D01*
G37*
G36*
G01*
X142025298Y-57703607D02*
X142025298Y-57703607D01*
G75*
G02*
X141594510Y-58825847I-776514J-345726D01*
G01*
X141594510Y-58825847D01*
G75*
G02*
X140472270Y-58395059I-345726J776514D01*
G01*
X140472270Y-58395059D01*
G75*
G02*
X140903058Y-57272819I776514J345726D01*
G01*
X140903058Y-57272819D01*
G75*
G02*
X142025298Y-57703607I345726J-776514D01*
G01*
G37*
%TD*%
%TO.C,REF\u002A\u002A*%
G36*
G01*
X162458182Y-67624750D02*
X162458182Y-67624750D01*
G75*
G02*
X161343632Y-68075058I-782429J332121D01*
G01*
X161343632Y-68075058D01*
G75*
G02*
X160893324Y-66960508I332121J782429D01*
G01*
X160893324Y-66960508D01*
G75*
G02*
X162007874Y-66510200I782429J-332121D01*
G01*
X162007874Y-66510200D01*
G75*
G02*
X162458182Y-67624750I-332121J-782429D01*
G01*
G37*
G36*
X169804551Y-69819692D02*
G01*
X169140308Y-71384551D01*
X167575449Y-70720308D01*
X168239692Y-69155449D01*
X169804551Y-69819692D01*
G37*
%TD*%
%TO.C,REF\u002A\u002A*%
G36*
X166664551Y-71109692D02*
G01*
X166000308Y-72674551D01*
X164435449Y-72010308D01*
X165099692Y-70445449D01*
X166664551Y-71109692D01*
G37*
G36*
G01*
X159318182Y-68914750D02*
X159318182Y-68914750D01*
G75*
G02*
X158203632Y-69365058I-782429J332121D01*
G01*
X158203632Y-69365058D01*
G75*
G02*
X157753324Y-68250508I332121J782429D01*
G01*
X157753324Y-68250508D01*
G75*
G02*
X158867874Y-67800200I782429J-332121D01*
G01*
X158867874Y-67800200D01*
G75*
G02*
X159318182Y-68914750I-332121J-782429D01*
G01*
G37*
%TD*%
%TO.C,REF\u002A\u002A*%
G36*
G01*
X166401818Y-100805250D02*
X166401818Y-100805250D01*
G75*
G02*
X167516368Y-100354942I782429J-332121D01*
G01*
X167516368Y-100354942D01*
G75*
G02*
X167966676Y-101469492I-332121J-782429D01*
G01*
X167966676Y-101469492D01*
G75*
G02*
X166852126Y-101919800I-782429J332121D01*
G01*
X166852126Y-101919800D01*
G75*
G02*
X166401818Y-100805250I332121J782429D01*
G01*
G37*
G36*
X159055449Y-98610308D02*
G01*
X159719692Y-97045449D01*
X161284551Y-97709692D01*
X160620308Y-99274551D01*
X159055449Y-98610308D01*
G37*
%TD*%
%TO.C,REF\u002A\u002A*%
G36*
X155915449Y-99900308D02*
G01*
X156579692Y-98335449D01*
X158144551Y-98999692D01*
X157480308Y-100564551D01*
X155915449Y-99900308D01*
G37*
G36*
G01*
X163261818Y-102095250D02*
X163261818Y-102095250D01*
G75*
G02*
X164376368Y-101644942I782429J-332121D01*
G01*
X164376368Y-101644942D01*
G75*
G02*
X164826676Y-102759492I-332121J-782429D01*
G01*
X164826676Y-102759492D01*
G75*
G02*
X163712126Y-103209800I-782429J332121D01*
G01*
X163712126Y-103209800D01*
G75*
G02*
X163261818Y-102095250I332121J782429D01*
G01*
G37*
%TD*%
%TO.C,REF\u002A\u002A*%
G36*
G01*
X183694702Y-111856393D02*
X183694702Y-111856393D01*
G75*
G02*
X184125490Y-110734153I776514J345726D01*
G01*
X184125490Y-110734153D01*
G75*
G02*
X185247730Y-111164941I345726J-776514D01*
G01*
X185247730Y-111164941D01*
G75*
G02*
X184816942Y-112287181I-776514J-345726D01*
G01*
X184816942Y-112287181D01*
G75*
G02*
X183694702Y-111856393I-345726J776514D01*
G01*
G37*
G36*
X177079213Y-115732240D02*
G01*
X176387760Y-114179213D01*
X177940787Y-113487760D01*
X178632240Y-115040787D01*
X177079213Y-115732240D01*
G37*
%TD*%
D19*
%TO.C,REF\u002A\u002A*%
X198550000Y-117560000D03*
D20*
X198550000Y-125180000D03*
%TD*%
%TO.C,REF\u002A\u002A*%
X127140000Y-44510000D03*
D19*
X127140000Y-52130000D03*
%TD*%
D11*
%TO.C,REF\u002A\u002A*%
X205962457Y-54081918D03*
X206954914Y-51743835D03*
D16*
G36*
X206018989Y-55996181D02*
G01*
X205393819Y-57468989D01*
X203921011Y-56843819D01*
X204546181Y-55371011D01*
X206018989Y-55996181D01*
G37*
%TD*%
%TO.C,REF\u002A\u002A*%
G36*
X201551011Y-77176181D02*
G01*
X203023819Y-76551011D01*
X203648989Y-78023819D01*
X202176181Y-78648989D01*
X201551011Y-77176181D01*
G37*
D11*
X197923835Y-79584914D03*
X200261918Y-78592457D03*
%TD*%
%TO.C,REF\u002A\u002A*%
X185690000Y-71470000D03*
X183150000Y-71470000D03*
D12*
X188230000Y-71470000D03*
%TD*%
%TO.C,REF\u002A\u002A*%
X185300000Y-92550000D03*
D11*
X180220000Y-92550000D03*
X182760000Y-92550000D03*
%TD*%
%TO.C,REF\u002A\u002A*%
X185986051Y-89106051D03*
X187782102Y-90902102D03*
D16*
G36*
X184190000Y-88441371D02*
G01*
X183058629Y-87310000D01*
X184190000Y-86178629D01*
X185321371Y-87310000D01*
X184190000Y-88441371D01*
G37*
%TD*%
%TO.C,REF\u002A\u002A*%
G36*
X206847949Y-90522655D02*
G01*
X205277345Y-90827949D01*
X204972051Y-89257345D01*
X206542655Y-88952051D01*
X206847949Y-90522655D01*
G37*
D11*
X210896666Y-88920690D03*
X208403333Y-89405345D03*
%TD*%
%TO.C,REF\u002A\u002A*%
X213536667Y-96884655D03*
X211043334Y-97369310D03*
D16*
G36*
X215092051Y-95767345D02*
G01*
X216662655Y-95462051D01*
X216967949Y-97032655D01*
X215397345Y-97337949D01*
X215092051Y-95767345D01*
G37*
%TD*%
%TO.C,REF\u002A\u002A*%
G36*
X210551011Y-100706181D02*
G01*
X212023819Y-100081011D01*
X212648989Y-101553819D01*
X211176181Y-102178989D01*
X210551011Y-100706181D01*
G37*
D11*
X206923835Y-103114914D03*
X209261918Y-102122457D03*
%TD*%
%TO.C,REF\u002A\u002A*%
X208627543Y-108658082D03*
X207635086Y-110996165D03*
D16*
G36*
X208571011Y-106743819D02*
G01*
X209196181Y-105271011D01*
X210668989Y-105896181D01*
X210043819Y-107368989D01*
X208571011Y-106743819D01*
G37*
%TD*%
%TO.C,REF\u002A\u002A*%
G36*
X209416463Y-114976656D02*
G01*
X210727106Y-114058933D01*
X211644829Y-115369576D01*
X210334186Y-116287299D01*
X209416463Y-114976656D01*
G37*
D11*
X206369354Y-118086884D03*
X208450000Y-116630000D03*
%TD*%
%TO.C,REF\u002A\u002A*%
X188371617Y-118273057D03*
X190773234Y-117446114D03*
D16*
G36*
X186986869Y-119595960D02*
G01*
X185474040Y-120116869D01*
X184953131Y-118604040D01*
X186465960Y-118083131D01*
X186986869Y-119595960D01*
G37*
%TD*%
%TO.C,REF\u002A\u002A*%
G36*
X198803294Y-134110678D02*
G01*
X198498000Y-135681282D01*
X196927396Y-135375988D01*
X197232690Y-133805384D01*
X198803294Y-134110678D01*
G37*
D11*
X198834655Y-129756667D03*
X198350000Y-132250000D03*
%TD*%
%TO.C,REF\u002A\u002A*%
X187270000Y-131570000D03*
X187270000Y-129030000D03*
D12*
X187270000Y-134110000D03*
%TD*%
D16*
%TO.C,REF\u002A\u002A*%
G36*
X184360170Y-139656441D02*
G01*
X184933559Y-141150170D01*
X183439830Y-141723559D01*
X182866441Y-140229830D01*
X184360170Y-139656441D01*
G37*
D11*
X182079491Y-135947411D03*
X182989745Y-138318706D03*
%TD*%
%TO.C,REF\u002A\u002A*%
X173070405Y-134243111D03*
X175390811Y-135276222D03*
D16*
G36*
X171155447Y-134266226D02*
G01*
X169693774Y-133615447D01*
X170344553Y-132153774D01*
X171806226Y-132804553D01*
X171155447Y-134266226D01*
G37*
%TD*%
%TO.C,REF\u002A\u002A*%
G36*
X119916885Y-113725042D02*
G01*
X120567664Y-112263369D01*
X122029337Y-112914148D01*
X121378558Y-114375821D01*
X119916885Y-113725042D01*
G37*
D11*
X118906889Y-117960406D03*
X119940000Y-115640000D03*
%TD*%
%TO.C,REF\u002A\u002A*%
X140070000Y-98380000D03*
X142610000Y-98380000D03*
D12*
X137530000Y-98380000D03*
%TD*%
%TO.C,REF\u002A\u002A*%
X140560000Y-77170000D03*
D11*
X145640000Y-77170000D03*
X143100000Y-77170000D03*
%TD*%
%TO.C,REF\u002A\u002A*%
X139682877Y-80715568D03*
X137855754Y-78951135D03*
D16*
G36*
X141490255Y-81348801D02*
G01*
X142641199Y-82460255D01*
X141529745Y-83611199D01*
X140378801Y-82499745D01*
X141490255Y-81348801D01*
G37*
%TD*%
%TO.C,REF\u002A\u002A*%
G36*
X124183559Y-92560170D02*
G01*
X122689830Y-93133559D01*
X122116441Y-91639830D01*
X123610170Y-91066441D01*
X124183559Y-92560170D01*
G37*
D11*
X127892589Y-90279491D03*
X125521294Y-91189745D03*
%TD*%
%TO.C,REF\u002A\u002A*%
X117416667Y-80354655D03*
X114923334Y-80839310D03*
D16*
G36*
X118972051Y-79237345D02*
G01*
X120542655Y-78932051D01*
X120847949Y-80502655D01*
X119277345Y-80807949D01*
X118972051Y-79237345D01*
G37*
%TD*%
%TO.C,REF\u002A\u002A*%
G36*
X110687949Y-74032655D02*
G01*
X109117345Y-74337949D01*
X108812051Y-72767345D01*
X110382655Y-72462051D01*
X110687949Y-74032655D01*
G37*
D11*
X114736666Y-72430690D03*
X112243333Y-72915345D03*
%TD*%
%TO.C,REF\u002A\u002A*%
X116730000Y-68380000D03*
X119085047Y-67428500D03*
D16*
G36*
X115416385Y-69773563D02*
G01*
X113932891Y-70372933D01*
X113333521Y-68889439D01*
X114817015Y-68290069D01*
X115416385Y-69773563D01*
G37*
%TD*%
%TO.C,REF\u002A\u002A*%
G36*
X117051432Y-63897938D02*
G01*
X116452062Y-65381432D01*
X114968568Y-64782062D01*
X115567938Y-63298568D01*
X117051432Y-63897938D01*
G37*
D11*
X117913001Y-59629906D03*
X116961501Y-61984953D03*
%TD*%
%TO.C,REF\u002A\u002A*%
X117375755Y-53229650D03*
X119481511Y-51809300D03*
D16*
G36*
X116380584Y-54865876D02*
G01*
X115054124Y-55760584D01*
X114159416Y-54434124D01*
X115485876Y-53539416D01*
X116380584Y-54865876D01*
G37*
%TD*%
%TO.C,REF\u002A\u002A*%
G36*
X138768568Y-50047938D02*
G01*
X140252062Y-49448568D01*
X140851432Y-50932062D01*
X139367938Y-51531432D01*
X138768568Y-50047938D01*
G37*
D11*
X135099906Y-52393001D03*
X137454953Y-51441501D03*
%TD*%
%TO.C,REF\u002A\u002A*%
X127440000Y-37560000D03*
X126955345Y-40053333D03*
D16*
G36*
X126986706Y-35699322D02*
G01*
X127292000Y-34128718D01*
X128862604Y-34434012D01*
X128557310Y-36004616D01*
X126986706Y-35699322D01*
G37*
%TD*%
%TO.C,REF\u002A\u002A*%
G36*
X137780489Y-36456303D02*
G01*
X137808413Y-34856547D01*
X139408169Y-34884471D01*
X139380245Y-36484227D01*
X137780489Y-36456303D01*
G37*
D11*
X138505671Y-40749613D03*
X138550000Y-38210000D03*
%TD*%
%TO.C,REF\u002A\u002A*%
X142773450Y-31282022D03*
X143846901Y-33584044D03*
D16*
G36*
X141313048Y-30043141D02*
G01*
X140636859Y-28593048D01*
X142086952Y-27916859D01*
X142763141Y-29366952D01*
X141313048Y-30043141D01*
G37*
%TD*%
%TO.C,REF\u002A\u002A*%
G36*
X154656181Y-35471011D02*
G01*
X156128989Y-36096181D01*
X155503819Y-37568989D01*
X154031011Y-36943819D01*
X154656181Y-35471011D01*
G37*
D11*
X150403835Y-34535086D03*
X152741918Y-35527543D03*
%TD*%
%TO.C,REF\u002A\u002A*%
X200170000Y-85470000D03*
X202710000Y-85470000D03*
D12*
X197630000Y-85470000D03*
%TD*%
D15*
%TO.C,REF\u002A\u002A*%
X107220000Y-123010000D03*
G36*
G01*
X112007113Y-118222887D02*
X112007113Y-118222887D01*
G75*
G02*
X112007113Y-117020805I601041J601041D01*
G01*
X112007113Y-117020805D01*
G75*
G02*
X113209195Y-117020805I601041J-601041D01*
G01*
X113209195Y-117020805D01*
G75*
G02*
X113209195Y-118222887I-601041J-601041D01*
G01*
X113209195Y-118222887D01*
G75*
G02*
X112007113Y-118222887I-601041J601041D01*
G01*
G37*
%TD*%
%TO.C,REF\u002A\u002A*%
X112230000Y-67050000D03*
D20*
X112230000Y-59430000D03*
%TD*%
D15*
%TO.C,REF\u002A\u002A*%
X169700000Y-40590000D03*
G36*
G01*
X163468182Y-37944750D02*
X163468182Y-37944750D01*
G75*
G02*
X162353632Y-38395058I-782429J332121D01*
G01*
X162353632Y-38395058D01*
G75*
G02*
X161903324Y-37280508I332121J782429D01*
G01*
X161903324Y-37280508D01*
G75*
G02*
X163017874Y-36830200I782429J-332121D01*
G01*
X163017874Y-36830200D01*
G75*
G02*
X163468182Y-37944750I-332121J-782429D01*
G01*
G37*
%TD*%
%TO.C,REF\u002A\u002A*%
G36*
G01*
X162488182Y-41394750D02*
X162488182Y-41394750D01*
G75*
G02*
X161373632Y-41845058I-782429J332121D01*
G01*
X161373632Y-41845058D01*
G75*
G02*
X160923324Y-40730508I332121J782429D01*
G01*
X160923324Y-40730508D01*
G75*
G02*
X162037874Y-40280200I782429J-332121D01*
G01*
X162037874Y-40280200D01*
G75*
G02*
X162488182Y-41394750I-332121J-782429D01*
G01*
G37*
X168720000Y-44040000D03*
%TD*%
%TO.C,REF\u002A\u002A*%
X136750000Y-29970000D03*
D20*
X129130000Y-29970000D03*
%TD*%
%TO.C,REF\u002A\u002A*%
G36*
G01*
X134532438Y-38927940D02*
X134532438Y-38927940D01*
G75*
G02*
X133524288Y-38273240I-176725J831425D01*
G01*
X133524288Y-38273240D01*
G75*
G02*
X134178988Y-37265090I831425J176725D01*
G01*
X134178988Y-37265090D01*
G75*
G02*
X135187138Y-37919790I176725J-831425D01*
G01*
X135187138Y-37919790D01*
G75*
G02*
X134532438Y-38927940I-831425J-176725D01*
G01*
G37*
D15*
X135940000Y-45550000D03*
%TD*%
%TO.C,REF\u002A\u002A*%
X132810000Y-50280000D03*
G36*
G01*
X131402438Y-43657940D02*
X131402438Y-43657940D01*
G75*
G02*
X130394288Y-43003240I-176725J831425D01*
G01*
X130394288Y-43003240D01*
G75*
G02*
X131048988Y-41995090I831425J176725D01*
G01*
X131048988Y-41995090D01*
G75*
G02*
X132057138Y-42649790I176725J-831425D01*
G01*
X132057138Y-42649790D01*
G75*
G02*
X131402438Y-43657940I-831425J-176725D01*
G01*
G37*
%TD*%
%TO.C,REF\u002A\u002A*%
G36*
G01*
X123262438Y-45517940D02*
X123262438Y-45517940D01*
G75*
G02*
X122254288Y-44863240I-176725J831425D01*
G01*
X122254288Y-44863240D01*
G75*
G02*
X122908988Y-43855090I831425J176725D01*
G01*
X122908988Y-43855090D01*
G75*
G02*
X123917138Y-44509790I176725J-831425D01*
G01*
X123917138Y-44509790D01*
G75*
G02*
X123262438Y-45517940I-831425J-176725D01*
G01*
G37*
X124670000Y-52140000D03*
%TD*%
%TO.C,REF\u002A\u002A*%
X121730000Y-51530000D03*
G36*
G01*
X120322438Y-44907940D02*
X120322438Y-44907940D01*
G75*
G02*
X119314288Y-44253240I-176725J831425D01*
G01*
X119314288Y-44253240D01*
G75*
G02*
X119968988Y-43245090I831425J176725D01*
G01*
X119968988Y-43245090D01*
G75*
G02*
X120977138Y-43899790I176725J-831425D01*
G01*
X120977138Y-43899790D01*
G75*
G02*
X120322438Y-44907940I-831425J-176725D01*
G01*
G37*
%TD*%
%TO.C,REF\u002A\u002A*%
G36*
G01*
X134672060Y-82057562D02*
X134672060Y-82057562D01*
G75*
G02*
X135680210Y-81402862I831425J-176725D01*
G01*
X135680210Y-81402862D01*
G75*
G02*
X136334910Y-82411012I-176725J-831425D01*
G01*
X136334910Y-82411012D01*
G75*
G02*
X135326760Y-83065712I-831425J176725D01*
G01*
X135326760Y-83065712D01*
G75*
G02*
X134672060Y-82057562I176725J831425D01*
G01*
G37*
X128050000Y-80650000D03*
%TD*%
%TO.C,REF\u002A\u002A*%
X129880000Y-75150000D03*
G36*
G01*
X136547148Y-73974402D02*
X136547148Y-73974402D01*
G75*
G02*
X137236634Y-72989714I837087J147601D01*
G01*
X137236634Y-72989714D01*
G75*
G02*
X138221322Y-73679200I147601J-837087D01*
G01*
X138221322Y-73679200D01*
G75*
G02*
X137531836Y-74663888I-837087J-147601D01*
G01*
X137531836Y-74663888D01*
G75*
G02*
X136547148Y-73974402I-147601J837087D01*
G01*
G37*
%TD*%
%TO.C,REF\u002A\u002A*%
G36*
G01*
X151597148Y-82764402D02*
X151597148Y-82764402D01*
G75*
G02*
X152286634Y-81779714I837087J147601D01*
G01*
X152286634Y-81779714D01*
G75*
G02*
X153271322Y-82469200I147601J-837087D01*
G01*
X153271322Y-82469200D01*
G75*
G02*
X152581836Y-83453888I-837087J-147601D01*
G01*
X152581836Y-83453888D01*
G75*
G02*
X151597148Y-82764402I-147601J837087D01*
G01*
G37*
X144930000Y-83940000D03*
%TD*%
%TO.C,REF\u002A\u002A*%
X145420000Y-86850000D03*
G36*
G01*
X152087148Y-85674402D02*
X152087148Y-85674402D01*
G75*
G02*
X152776634Y-84689714I837087J147601D01*
G01*
X152776634Y-84689714D01*
G75*
G02*
X153761322Y-85379200I147601J-837087D01*
G01*
X153761322Y-85379200D01*
G75*
G02*
X153071836Y-86363888I-837087J-147601D01*
G01*
X153071836Y-86363888D01*
G75*
G02*
X152087148Y-85674402I-147601J837087D01*
G01*
G37*
%TD*%
%TO.C,REF\u002A\u002A*%
G36*
G01*
X137627035Y-94643914D02*
X137627035Y-94643914D01*
G75*
G02*
X138096725Y-93537392I788106J318416D01*
G01*
X138096725Y-93537392D01*
G75*
G02*
X139203247Y-94007082I318416J-788106D01*
G01*
X139203247Y-94007082D01*
G75*
G02*
X138733557Y-95113604I-788106J-318416D01*
G01*
X138733557Y-95113604D01*
G75*
G02*
X137627035Y-94643914I-318416J788106D01*
G01*
G37*
X131350000Y-97180000D03*
%TD*%
%TO.C,REF\u002A\u002A*%
X141210000Y-92400000D03*
G36*
G01*
X142385598Y-85732852D02*
X142385598Y-85732852D01*
G75*
G02*
X141696112Y-84748164I147601J837087D01*
G01*
X141696112Y-84748164D01*
G75*
G02*
X142680800Y-84058678I837087J-147601D01*
G01*
X142680800Y-84058678D01*
G75*
G02*
X143370286Y-85043366I-147601J-837087D01*
G01*
X143370286Y-85043366D01*
G75*
G02*
X142385598Y-85732852I-837087J147601D01*
G01*
G37*
%TD*%
%TO.C,REF\u002A\u002A*%
G36*
G01*
X133515598Y-85922852D02*
X133515598Y-85922852D01*
G75*
G02*
X132826112Y-84938164I147601J837087D01*
G01*
X132826112Y-84938164D01*
G75*
G02*
X133810800Y-84248678I837087J-147601D01*
G01*
X133810800Y-84248678D01*
G75*
G02*
X134500286Y-85233366I-147601J-837087D01*
G01*
X134500286Y-85233366D01*
G75*
G02*
X133515598Y-85922852I-837087J147601D01*
G01*
G37*
X132340000Y-92590000D03*
%TD*%
%TO.C,REF\u002A\u002A*%
X129260000Y-93870000D03*
G36*
G01*
X130435598Y-87202852D02*
X130435598Y-87202852D01*
G75*
G02*
X129746112Y-86218164I147601J837087D01*
G01*
X129746112Y-86218164D01*
G75*
G02*
X130730800Y-85528678I837087J-147601D01*
G01*
X130730800Y-85528678D01*
G75*
G02*
X131420286Y-86513366I-147601J-837087D01*
G01*
X131420286Y-86513366D01*
G75*
G02*
X130435598Y-87202852I-837087J147601D01*
G01*
G37*
%TD*%
D20*
%TO.C,REF\u002A\u002A*%
X126660000Y-95670000D03*
D15*
X126660000Y-103290000D03*
%TD*%
%TO.C,REF\u002A\u002A*%
X123790000Y-105180000D03*
D20*
X123790000Y-97560000D03*
%TD*%
D15*
%TO.C,REF\u002A\u002A*%
X151760000Y-130880000D03*
D20*
X151760000Y-123260000D03*
%TD*%
D15*
%TO.C,REF\u002A\u002A*%
X116000000Y-97920000D03*
G36*
G01*
X118645250Y-104151818D02*
X118645250Y-104151818D01*
G75*
G02*
X119759800Y-104602126I332121J-782429D01*
G01*
X119759800Y-104602126D01*
G75*
G02*
X119309492Y-105716676I-782429J-332121D01*
G01*
X119309492Y-105716676D01*
G75*
G02*
X118194942Y-105266368I-332121J782429D01*
G01*
X118194942Y-105266368D01*
G75*
G02*
X118645250Y-104151818I782429J332121D01*
G01*
G37*
%TD*%
%TO.C,REF\u002A\u002A*%
G36*
G01*
X120145250Y-99851818D02*
X120145250Y-99851818D01*
G75*
G02*
X121259800Y-100302126I332121J-782429D01*
G01*
X121259800Y-100302126D01*
G75*
G02*
X120809492Y-101416676I-782429J-332121D01*
G01*
X120809492Y-101416676D01*
G75*
G02*
X119694942Y-100966368I-332121J782429D01*
G01*
X119694942Y-100966368D01*
G75*
G02*
X120145250Y-99851818I782429J332121D01*
G01*
G37*
X117500000Y-93620000D03*
%TD*%
%TO.C,REF\u002A\u002A*%
X118100000Y-91630000D03*
G36*
G01*
X123434833Y-87461972D02*
X123434833Y-87461972D01*
G75*
G02*
X123581330Y-86268851I669809J523312D01*
G01*
X123581330Y-86268851D01*
G75*
G02*
X124774451Y-86415348I523312J-669809D01*
G01*
X124774451Y-86415348D01*
G75*
G02*
X124627954Y-87608469I-669809J-523312D01*
G01*
X124627954Y-87608469D01*
G75*
G02*
X123434833Y-87461972I-523312J669809D01*
G01*
G37*
%TD*%
%TO.C,REF\u002A\u002A*%
G36*
G01*
X151472837Y-56550070D02*
X151472837Y-56550070D01*
G75*
G02*
X151451858Y-55348171I590460J611439D01*
G01*
X151451858Y-55348171D01*
G75*
G02*
X152653757Y-55327192I611439J-590460D01*
G01*
X152653757Y-55327192D01*
G75*
G02*
X152674736Y-56529091I-590460J-611439D01*
G01*
X152674736Y-56529091D01*
G75*
G02*
X151472837Y-56550070I-611439J590460D01*
G01*
G37*
X146770000Y-61420000D03*
%TD*%
%TO.C,REF\u002A\u002A*%
X109800000Y-90590000D03*
G36*
G01*
X114502837Y-85720070D02*
X114502837Y-85720070D01*
G75*
G02*
X114481858Y-84518171I590460J611439D01*
G01*
X114481858Y-84518171D01*
G75*
G02*
X115683757Y-84497192I611439J-590460D01*
G01*
X115683757Y-84497192D01*
G75*
G02*
X115704736Y-85699091I-590460J-611439D01*
G01*
X115704736Y-85699091D01*
G75*
G02*
X114502837Y-85720070I-611439J590460D01*
G01*
G37*
%TD*%
%TO.C,REF\u002A\u002A*%
G36*
G01*
X111962837Y-92400070D02*
X111962837Y-92400070D01*
G75*
G02*
X111941858Y-91198171I590460J611439D01*
G01*
X111941858Y-91198171D01*
G75*
G02*
X113143757Y-91177192I611439J-590460D01*
G01*
X113143757Y-91177192D01*
G75*
G02*
X113164736Y-92379091I-590460J-611439D01*
G01*
X113164736Y-92379091D01*
G75*
G02*
X111962837Y-92400070I-611439J590460D01*
G01*
G37*
X107260000Y-97270000D03*
%TD*%
%TO.C,REF\u002A\u002A*%
X107630000Y-101070000D03*
G36*
G01*
X112332837Y-96200070D02*
X112332837Y-96200070D01*
G75*
G02*
X112311858Y-94998171I590460J611439D01*
G01*
X112311858Y-94998171D01*
G75*
G02*
X113513757Y-94977192I611439J-590460D01*
G01*
X113513757Y-94977192D01*
G75*
G02*
X113534736Y-96179091I-590460J-611439D01*
G01*
X113534736Y-96179091D01*
G75*
G02*
X112332837Y-96200070I-611439J590460D01*
G01*
G37*
%TD*%
%TO.C,REF\u002A\u002A*%
G36*
G01*
X121732837Y-107290070D02*
X121732837Y-107290070D01*
G75*
G02*
X121711858Y-106088171I590460J611439D01*
G01*
X121711858Y-106088171D01*
G75*
G02*
X122913757Y-106067192I611439J-590460D01*
G01*
X122913757Y-106067192D01*
G75*
G02*
X122934736Y-107269091I-590460J-611439D01*
G01*
X122934736Y-107269091D01*
G75*
G02*
X121732837Y-107290070I-611439J590460D01*
G01*
G37*
X117030000Y-112160000D03*
%TD*%
%TO.C,REF\u002A\u002A*%
X130180000Y-124010000D03*
G36*
G01*
X134882837Y-119140070D02*
X134882837Y-119140070D01*
G75*
G02*
X134861858Y-117938171I590460J611439D01*
G01*
X134861858Y-117938171D01*
G75*
G02*
X136063757Y-117917192I611439J-590460D01*
G01*
X136063757Y-117917192D01*
G75*
G02*
X136084736Y-119119091I-590460J-611439D01*
G01*
X136084736Y-119119091D01*
G75*
G02*
X134882837Y-119140070I-611439J590460D01*
G01*
G37*
%TD*%
%TO.C,REF\u002A\u002A*%
G36*
G01*
X142157206Y-112712200D02*
X142157206Y-112712200D01*
G75*
G02*
X141907279Y-111536387I462943J712870D01*
G01*
X141907279Y-111536387D01*
G75*
G02*
X143083092Y-111286460I712870J-462943D01*
G01*
X143083092Y-111286460D01*
G75*
G02*
X143333019Y-112462273I-462943J-712870D01*
G01*
X143333019Y-112462273D01*
G75*
G02*
X142157206Y-112712200I-712870J462943D01*
G01*
G37*
X138470000Y-118390000D03*
%TD*%
%TO.C,REF\u002A\u002A*%
X147590000Y-120800000D03*
G36*
G01*
X149569356Y-114325817D02*
X149569356Y-114325817D01*
G75*
G02*
X149005013Y-113264442I248516J812859D01*
G01*
X149005013Y-113264442D01*
G75*
G02*
X150066388Y-112700099I812859J-248516D01*
G01*
X150066388Y-112700099D01*
G75*
G02*
X150630731Y-113761474I-248516J-812859D01*
G01*
X150630731Y-113761474D01*
G75*
G02*
X149569356Y-114325817I-812859J248516D01*
G01*
G37*
%TD*%
%TO.C,REF\u002A\u002A*%
G36*
G01*
X148577562Y-130197940D02*
X148577562Y-130197940D01*
G75*
G02*
X147922862Y-129189790I176725J831425D01*
G01*
X147922862Y-129189790D01*
G75*
G02*
X148931012Y-128535090I831425J-176725D01*
G01*
X148931012Y-128535090D01*
G75*
G02*
X149585712Y-129543240I-176725J-831425D01*
G01*
X149585712Y-129543240D01*
G75*
G02*
X148577562Y-130197940I-831425J176725D01*
G01*
G37*
X147170000Y-136820000D03*
%TD*%
%TO.C,REF\u002A\u002A*%
X163910000Y-128720000D03*
G36*
G01*
X157678182Y-126074750D02*
X157678182Y-126074750D01*
G75*
G02*
X156563632Y-126525058I-782429J332121D01*
G01*
X156563632Y-126525058D01*
G75*
G02*
X156113324Y-125410508I332121J782429D01*
G01*
X156113324Y-125410508D01*
G75*
G02*
X157227874Y-124960200I782429J-332121D01*
G01*
X157227874Y-124960200D01*
G75*
G02*
X157678182Y-126074750I-332121J-782429D01*
G01*
G37*
%TD*%
%TO.C,REF\u002A\u002A*%
G36*
G01*
X156768182Y-129664750D02*
X156768182Y-129664750D01*
G75*
G02*
X155653632Y-130115058I-782429J332121D01*
G01*
X155653632Y-130115058D01*
G75*
G02*
X155203324Y-129000508I332121J782429D01*
G01*
X155203324Y-129000508D01*
G75*
G02*
X156317874Y-128550200I782429J-332121D01*
G01*
X156317874Y-128550200D01*
G75*
G02*
X156768182Y-129664750I-332121J-782429D01*
G01*
G37*
X163000000Y-132310000D03*
%TD*%
%TO.C,REF\u002A\u002A*%
X158690000Y-134730000D03*
G36*
G01*
X152022852Y-133554402D02*
X152022852Y-133554402D01*
G75*
G02*
X151038164Y-134243888I-837087J147601D01*
G01*
X151038164Y-134243888D01*
G75*
G02*
X150348678Y-133259200I147601J837087D01*
G01*
X150348678Y-133259200D01*
G75*
G02*
X151333366Y-132569714I837087J-147601D01*
G01*
X151333366Y-132569714D01*
G75*
G02*
X152022852Y-133554402I-147601J-837087D01*
G01*
G37*
%TD*%
%TO.C,REF\u002A\u002A*%
G36*
G01*
X139112438Y-67457940D02*
X139112438Y-67457940D01*
G75*
G02*
X138104288Y-66803240I-176725J831425D01*
G01*
X138104288Y-66803240D01*
G75*
G02*
X138758988Y-65795090I831425J176725D01*
G01*
X138758988Y-65795090D01*
G75*
G02*
X139767138Y-66449790I176725J-831425D01*
G01*
X139767138Y-66449790D01*
G75*
G02*
X139112438Y-67457940I-831425J-176725D01*
G01*
G37*
X140520000Y-74080000D03*
%TD*%
%TO.C,REF\u002A\u002A*%
X124250000Y-80700000D03*
G36*
G01*
X122842438Y-74077940D02*
X122842438Y-74077940D01*
G75*
G02*
X121834288Y-73423240I-176725J831425D01*
G01*
X121834288Y-73423240D01*
G75*
G02*
X122488988Y-72415090I831425J176725D01*
G01*
X122488988Y-72415090D01*
G75*
G02*
X123497138Y-73069790I176725J-831425D01*
G01*
X123497138Y-73069790D01*
G75*
G02*
X122842438Y-74077940I-831425J-176725D01*
G01*
G37*
%TD*%
%TO.C,REF\u002A\u002A*%
G36*
G01*
X118337800Y-74392794D02*
X118337800Y-74392794D01*
G75*
G02*
X118587727Y-73216981I712870J462943D01*
G01*
X118587727Y-73216981D01*
G75*
G02*
X119763540Y-73466908I462943J-712870D01*
G01*
X119763540Y-73466908D01*
G75*
G02*
X119513613Y-74642721I-712870J-462943D01*
G01*
X119513613Y-74642721D01*
G75*
G02*
X118337800Y-74392794I-462943J712870D01*
G01*
G37*
X112660000Y-78080000D03*
%TD*%
D20*
%TO.C,REF\u002A\u002A*%
X112420000Y-101500000D03*
D15*
X112420000Y-109120000D03*
%TD*%
%TO.C,REF\u002A\u002A*%
X109480000Y-110100000D03*
D20*
X109480000Y-102480000D03*
%TD*%
D15*
%TO.C,REF\u002A\u002A*%
X113410000Y-51120000D03*
G36*
G01*
X116055250Y-44888182D02*
X116055250Y-44888182D01*
G75*
G02*
X115604942Y-43773632I332121J782429D01*
G01*
X115604942Y-43773632D01*
G75*
G02*
X116719492Y-43323324I782429J-332121D01*
G01*
X116719492Y-43323324D01*
G75*
G02*
X117169800Y-44437874I-332121J-782429D01*
G01*
X117169800Y-44437874D01*
G75*
G02*
X116055250Y-44888182I-782429J332121D01*
G01*
G37*
%TD*%
%TO.C,REF\u002A\u002A*%
G36*
G01*
X147795250Y-31788182D02*
X147795250Y-31788182D01*
G75*
G02*
X147344942Y-30673632I332121J782429D01*
G01*
X147344942Y-30673632D01*
G75*
G02*
X148459492Y-30223324I782429J-332121D01*
G01*
X148459492Y-30223324D01*
G75*
G02*
X148909800Y-31337874I-332121J-782429D01*
G01*
X148909800Y-31337874D01*
G75*
G02*
X147795250Y-31788182I-782429J332121D01*
G01*
G37*
X145150000Y-38020000D03*
%TD*%
%TO.C,REF\u002A\u002A*%
X148160000Y-50600000D03*
G36*
G01*
X150805250Y-44368182D02*
X150805250Y-44368182D01*
G75*
G02*
X150354942Y-43253632I332121J782429D01*
G01*
X150354942Y-43253632D01*
G75*
G02*
X151469492Y-42803324I782429J-332121D01*
G01*
X151469492Y-42803324D01*
G75*
G02*
X151919800Y-43917874I-332121J-782429D01*
G01*
X151919800Y-43917874D01*
G75*
G02*
X150805250Y-44368182I-782429J332121D01*
G01*
G37*
%TD*%
%TO.C,REF\u002A\u002A*%
G36*
G01*
X147405250Y-40078182D02*
X147405250Y-40078182D01*
G75*
G02*
X146954942Y-38963632I332121J782429D01*
G01*
X146954942Y-38963632D01*
G75*
G02*
X148069492Y-38513324I782429J-332121D01*
G01*
X148069492Y-38513324D01*
G75*
G02*
X148519800Y-39627874I-332121J-782429D01*
G01*
X148519800Y-39627874D01*
G75*
G02*
X147405250Y-40078182I-782429J332121D01*
G01*
G37*
X144760000Y-46310000D03*
%TD*%
%TO.C,REF\u002A\u002A*%
X140710000Y-55860000D03*
G36*
G01*
X143355250Y-49628182D02*
X143355250Y-49628182D01*
G75*
G02*
X142904942Y-48513632I332121J782429D01*
G01*
X142904942Y-48513632D01*
G75*
G02*
X144019492Y-48063324I782429J-332121D01*
G01*
X144019492Y-48063324D01*
G75*
G02*
X144469800Y-49177874I-332121J-782429D01*
G01*
X144469800Y-49177874D01*
G75*
G02*
X143355250Y-49628182I-782429J332121D01*
G01*
G37*
%TD*%
%TO.C,REF\u002A\u002A*%
G36*
G01*
X109585250Y-113598182D02*
X109585250Y-113598182D01*
G75*
G02*
X109134942Y-112483632I332121J782429D01*
G01*
X109134942Y-112483632D01*
G75*
G02*
X110249492Y-112033324I782429J-332121D01*
G01*
X110249492Y-112033324D01*
G75*
G02*
X110699800Y-113147874I-332121J-782429D01*
G01*
X110699800Y-113147874D01*
G75*
G02*
X109585250Y-113598182I-782429J332121D01*
G01*
G37*
X106940000Y-119830000D03*
%TD*%
%TO.C,REF\u002A\u002A*%
X142790000Y-136850000D03*
G36*
G01*
X145435250Y-130618182D02*
X145435250Y-130618182D01*
G75*
G02*
X144984942Y-129503632I332121J782429D01*
G01*
X144984942Y-129503632D01*
G75*
G02*
X146099492Y-129053324I782429J-332121D01*
G01*
X146099492Y-129053324D01*
G75*
G02*
X146549800Y-130167874I-332121J-782429D01*
G01*
X146549800Y-130167874D01*
G75*
G02*
X145435250Y-130618182I-782429J332121D01*
G01*
G37*
%TD*%
%TO.C,REF\u002A\u002A*%
X122380000Y-127870000D03*
G36*
G01*
X117592887Y-123082887D02*
X117592887Y-123082887D01*
G75*
G02*
X116390805Y-123082887I-601041J601041D01*
G01*
X116390805Y-123082887D01*
G75*
G02*
X116390805Y-121880805I601041J601041D01*
G01*
X116390805Y-121880805D01*
G75*
G02*
X117592887Y-121880805I601041J-601041D01*
G01*
X117592887Y-121880805D01*
G75*
G02*
X117592887Y-123082887I-601041J-601041D01*
G01*
G37*
%TD*%
%TO.C,REF\u002A\u002A*%
G36*
G01*
X119522887Y-121262887D02*
X119522887Y-121262887D01*
G75*
G02*
X118320805Y-121262887I-601041J601041D01*
G01*
X118320805Y-121262887D01*
G75*
G02*
X118320805Y-120060805I601041J601041D01*
G01*
X118320805Y-120060805D01*
G75*
G02*
X119522887Y-120060805I601041J-601041D01*
G01*
X119522887Y-120060805D01*
G75*
G02*
X119522887Y-121262887I-601041J-601041D01*
G01*
G37*
X124310000Y-126050000D03*
%TD*%
%TO.C,REF\u002A\u002A*%
X127720000Y-123470000D03*
G36*
G01*
X122932887Y-118682887D02*
X122932887Y-118682887D01*
G75*
G02*
X121730805Y-118682887I-601041J601041D01*
G01*
X121730805Y-118682887D01*
G75*
G02*
X121730805Y-117480805I601041J601041D01*
G01*
X121730805Y-117480805D01*
G75*
G02*
X122932887Y-117480805I601041J-601041D01*
G01*
X122932887Y-117480805D01*
G75*
G02*
X122932887Y-118682887I-601041J-601041D01*
G01*
G37*
%TD*%
%TO.C,REF\u002A\u002A*%
G36*
G01*
X139562887Y-102152887D02*
X139562887Y-102152887D01*
G75*
G02*
X138360805Y-102152887I-601041J601041D01*
G01*
X138360805Y-102152887D01*
G75*
G02*
X138360805Y-100950805I601041J601041D01*
G01*
X138360805Y-100950805D01*
G75*
G02*
X139562887Y-100950805I601041J-601041D01*
G01*
X139562887Y-100950805D01*
G75*
G02*
X139562887Y-102152887I-601041J-601041D01*
G01*
G37*
X144350000Y-106940000D03*
%TD*%
%TO.C,REF\u002A\u002A*%
X152090000Y-100240000D03*
G36*
G01*
X147302887Y-95452887D02*
X147302887Y-95452887D01*
G75*
G02*
X146100805Y-95452887I-601041J601041D01*
G01*
X146100805Y-95452887D01*
G75*
G02*
X146100805Y-94250805I601041J601041D01*
G01*
X146100805Y-94250805D01*
G75*
G02*
X147302887Y-94250805I601041J-601041D01*
G01*
X147302887Y-94250805D01*
G75*
G02*
X147302887Y-95452887I-601041J-601041D01*
G01*
G37*
%TD*%
%TO.C,REF\u002A\u002A*%
G36*
G01*
X145493914Y-97592965D02*
X145493914Y-97592965D01*
G75*
G02*
X144387392Y-97123275I-318416J788106D01*
G01*
X144387392Y-97123275D01*
G75*
G02*
X144857082Y-96016753I788106J318416D01*
G01*
X144857082Y-96016753D01*
G75*
G02*
X145963604Y-96486443I318416J-788106D01*
G01*
X145963604Y-96486443D01*
G75*
G02*
X145493914Y-97592965I-788106J-318416D01*
G01*
G37*
X148030000Y-103870000D03*
%TD*%
%TO.C,REF\u002A\u002A*%
G36*
G01*
X193477035Y-73073914D02*
X193477035Y-73073914D01*
G75*
G02*
X193946725Y-71967392I788106J318416D01*
G01*
X193946725Y-71967392D01*
G75*
G02*
X195053247Y-72437082I318416J-788106D01*
G01*
X195053247Y-72437082D01*
G75*
G02*
X194583557Y-73543604I-788106J-318416D01*
G01*
X194583557Y-73543604D01*
G75*
G02*
X193477035Y-73073914I-318416J788106D01*
G01*
G37*
X187200000Y-75610000D03*
%TD*%
%TO.C,REF\u002A\u002A*%
X180600000Y-73000000D03*
G36*
G01*
X178063914Y-66722965D02*
X178063914Y-66722965D01*
G75*
G02*
X176957392Y-66253275I-318416J788106D01*
G01*
X176957392Y-66253275D01*
G75*
G02*
X177427082Y-65146753I788106J318416D01*
G01*
X177427082Y-65146753D01*
G75*
G02*
X178533604Y-65616443I318416J-788106D01*
G01*
X178533604Y-65616443D01*
G75*
G02*
X178063914Y-66722965I-788106J-318416D01*
G01*
G37*
%TD*%
%TO.C,REF\u002A\u002A*%
G36*
G01*
X172031848Y-39061032D02*
X172031848Y-39061032D01*
G75*
G02*
X171167142Y-38225996I-14835J849871D01*
G01*
X171167142Y-38225996D01*
G75*
G02*
X172002178Y-37361290I849871J14835D01*
G01*
X172002178Y-37361290D01*
G75*
G02*
X172866884Y-38196326I14835J-849871D01*
G01*
X172866884Y-38196326D01*
G75*
G02*
X172031848Y-39061032I-849871J-14835D01*
G01*
G37*
X172150000Y-45830000D03*
%TD*%
%TO.C,REF\u002A\u002A*%
X181270000Y-44610000D03*
G36*
G01*
X183696151Y-38289660D02*
X183696151Y-38289660D01*
G75*
G02*
X183207221Y-37191504I304613J793543D01*
G01*
X183207221Y-37191504D01*
G75*
G02*
X184305377Y-36702574I793543J-304613D01*
G01*
X184305377Y-36702574D01*
G75*
G02*
X184794307Y-37800730I-304613J-793543D01*
G01*
X184794307Y-37800730D01*
G75*
G02*
X183696151Y-38289660I-793543J304613D01*
G01*
G37*
%TD*%
%TO.C,REF\u002A\u002A*%
G36*
G01*
X181736151Y-33829660D02*
X181736151Y-33829660D01*
G75*
G02*
X181247221Y-32731504I304613J793543D01*
G01*
X181247221Y-32731504D01*
G75*
G02*
X182345377Y-32242574I793543J-304613D01*
G01*
X182345377Y-32242574D01*
G75*
G02*
X182834307Y-33340730I-304613J-793543D01*
G01*
X182834307Y-33340730D01*
G75*
G02*
X181736151Y-33829660I-793543J304613D01*
G01*
G37*
X179310000Y-40150000D03*
%TD*%
%TO.C,REF\u002A\u002A*%
X175760000Y-41110000D03*
G36*
G01*
X177051777Y-34464384D02*
X177051777Y-34464384D01*
G75*
G02*
X176379582Y-33467813I162188J834383D01*
G01*
X176379582Y-33467813D01*
G75*
G02*
X177376153Y-32795618I834383J-162188D01*
G01*
X177376153Y-32795618D01*
G75*
G02*
X178048348Y-33792189I-162188J-834383D01*
G01*
X178048348Y-33792189D01*
G75*
G02*
X177051777Y-34464384I-834383J162188D01*
G01*
G37*
%TD*%
%TO.C,REF\u002A\u002A*%
G36*
G01*
X175762202Y-48335885D02*
X175762202Y-48335885D01*
G75*
G02*
X175038771Y-47375860I118297J841728D01*
G01*
X175038771Y-47375860D01*
G75*
G02*
X175998796Y-46652429I841728J-118297D01*
G01*
X175998796Y-46652429D01*
G75*
G02*
X176722227Y-47612454I-118297J-841728D01*
G01*
X176722227Y-47612454D01*
G75*
G02*
X175762202Y-48335885I-841728J118297D01*
G01*
G37*
X174820000Y-55040000D03*
%TD*%
%TO.C,REF\u002A\u002A*%
X183020000Y-57830000D03*
G36*
G01*
X186805736Y-52217416D02*
X186805736Y-52217416D01*
G75*
G02*
X186576368Y-51037420I475314J704682D01*
G01*
X186576368Y-51037420D01*
G75*
G02*
X187756364Y-50808052I704682J-475314D01*
G01*
X187756364Y-50808052D01*
G75*
G02*
X187985732Y-51988048I-475314J-704682D01*
G01*
X187985732Y-51988048D01*
G75*
G02*
X186805736Y-52217416I-704682J475314D01*
G01*
G37*
%TD*%
%TO.C,REF\u002A\u002A*%
G36*
G01*
X194812837Y-46530070D02*
X194812837Y-46530070D01*
G75*
G02*
X194791858Y-45328171I590460J611439D01*
G01*
X194791858Y-45328171D01*
G75*
G02*
X195993757Y-45307192I611439J-590460D01*
G01*
X195993757Y-45307192D01*
G75*
G02*
X196014736Y-46509091I-590460J-611439D01*
G01*
X196014736Y-46509091D01*
G75*
G02*
X194812837Y-46530070I-611439J590460D01*
G01*
G37*
X190110000Y-51400000D03*
%TD*%
%TO.C,REF\u002A\u002A*%
X208640000Y-47290000D03*
G36*
G01*
X203852887Y-42502887D02*
X203852887Y-42502887D01*
G75*
G02*
X202650805Y-42502887I-601041J601041D01*
G01*
X202650805Y-42502887D01*
G75*
G02*
X202650805Y-41300805I601041J601041D01*
G01*
X202650805Y-41300805D01*
G75*
G02*
X203852887Y-41300805I601041J-601041D01*
G01*
X203852887Y-41300805D01*
G75*
G02*
X203852887Y-42502887I-601041J-601041D01*
G01*
G37*
%TD*%
%TO.C,REF\u002A\u002A*%
G36*
G01*
X201902887Y-44412887D02*
X201902887Y-44412887D01*
G75*
G02*
X200700805Y-44412887I-601041J601041D01*
G01*
X200700805Y-44412887D01*
G75*
G02*
X200700805Y-43210805I601041J601041D01*
G01*
X200700805Y-43210805D01*
G75*
G02*
X201902887Y-43210805I601041J-601041D01*
G01*
X201902887Y-43210805D01*
G75*
G02*
X201902887Y-44412887I-601041J-601041D01*
G01*
G37*
X206690000Y-49200000D03*
%TD*%
%TO.C,REF\u002A\u002A*%
X203390000Y-51720000D03*
G36*
G01*
X198602887Y-46932887D02*
X198602887Y-46932887D01*
G75*
G02*
X197400805Y-46932887I-601041J601041D01*
G01*
X197400805Y-46932887D01*
G75*
G02*
X197400805Y-45730805I601041J601041D01*
G01*
X197400805Y-45730805D01*
G75*
G02*
X198602887Y-45730805I601041J-601041D01*
G01*
X198602887Y-45730805D01*
G75*
G02*
X198602887Y-46932887I-601041J-601041D01*
G01*
G37*
%TD*%
%TO.C,REF\u002A\u002A*%
G36*
G01*
X181902887Y-63522887D02*
X181902887Y-63522887D01*
G75*
G02*
X180700805Y-63522887I-601041J601041D01*
G01*
X180700805Y-63522887D01*
G75*
G02*
X180700805Y-62320805I601041J601041D01*
G01*
X180700805Y-62320805D01*
G75*
G02*
X181902887Y-62320805I601041J-601041D01*
G01*
X181902887Y-62320805D01*
G75*
G02*
X181902887Y-63522887I-601041J-601041D01*
G01*
G37*
X186690000Y-68310000D03*
%TD*%
%TO.C,REF\u002A\u002A*%
X178990000Y-74950000D03*
G36*
G01*
X174202887Y-70162887D02*
X174202887Y-70162887D01*
G75*
G02*
X173000805Y-70162887I-601041J601041D01*
G01*
X173000805Y-70162887D01*
G75*
G02*
X173000805Y-68960805I601041J601041D01*
G01*
X173000805Y-68960805D01*
G75*
G02*
X174202887Y-68960805I601041J-601041D01*
G01*
X174202887Y-68960805D01*
G75*
G02*
X174202887Y-70162887I-601041J-601041D01*
G01*
G37*
%TD*%
%TO.C,REF\u002A\u002A*%
G36*
G01*
X179352060Y-82772438D02*
X179352060Y-82772438D01*
G75*
G02*
X180006760Y-81764288I831425J176725D01*
G01*
X180006760Y-81764288D01*
G75*
G02*
X181014910Y-82418988I176725J-831425D01*
G01*
X181014910Y-82418988D01*
G75*
G02*
X180360210Y-83427138I-831425J-176725D01*
G01*
X180360210Y-83427138D01*
G75*
G02*
X179352060Y-82772438I-176725J831425D01*
G01*
G37*
X172730000Y-84180000D03*
%TD*%
%TO.C,REF\u002A\u002A*%
X173310000Y-86990000D03*
G36*
G01*
X179932060Y-85582438D02*
X179932060Y-85582438D01*
G75*
G02*
X180586760Y-84574288I831425J176725D01*
G01*
X180586760Y-84574288D01*
G75*
G02*
X181594910Y-85228988I176725J-831425D01*
G01*
X181594910Y-85228988D01*
G75*
G02*
X180940210Y-86237138I-831425J-176725D01*
G01*
X180940210Y-86237138D01*
G75*
G02*
X179932060Y-85582438I-176725J831425D01*
G01*
G37*
%TD*%
%TO.C,REF\u002A\u002A*%
G36*
G01*
X184441777Y-78264384D02*
X184441777Y-78264384D01*
G75*
G02*
X183769582Y-77267813I162188J834383D01*
G01*
X183769582Y-77267813D01*
G75*
G02*
X184766153Y-76595618I834383J-162188D01*
G01*
X184766153Y-76595618D01*
G75*
G02*
X185438348Y-77592189I-162188J-834383D01*
G01*
X185438348Y-77592189D01*
G75*
G02*
X184441777Y-78264384I-834383J162188D01*
G01*
G37*
X183150000Y-84910000D03*
%TD*%
%TO.C,REF\u002A\u002A*%
X191910000Y-84780000D03*
G36*
G01*
X193201777Y-78134384D02*
X193201777Y-78134384D01*
G75*
G02*
X192529582Y-77137813I162188J834383D01*
G01*
X192529582Y-77137813D01*
G75*
G02*
X193526153Y-76465618I834383J-162188D01*
G01*
X193526153Y-76465618D01*
G75*
G02*
X194198348Y-77462189I-162188J-834383D01*
G01*
X194198348Y-77462189D01*
G75*
G02*
X193201777Y-78134384I-834383J162188D01*
G01*
G37*
%TD*%
%TO.C,REF\u002A\u002A*%
G36*
G01*
X196271777Y-76744384D02*
X196271777Y-76744384D01*
G75*
G02*
X195599582Y-75747813I162188J834383D01*
G01*
X195599582Y-75747813D01*
G75*
G02*
X196596153Y-75075618I834383J-162188D01*
G01*
X196596153Y-75075618D01*
G75*
G02*
X197268348Y-76072189I-162188J-834383D01*
G01*
X197268348Y-76072189D01*
G75*
G02*
X196271777Y-76744384I-834383J162188D01*
G01*
G37*
X194980000Y-83390000D03*
%TD*%
%TO.C,REF\u002A\u002A*%
X199090000Y-74100000D03*
G36*
G01*
X198971848Y-67331032D02*
X198971848Y-67331032D01*
G75*
G02*
X198107142Y-66495996I-14835J849871D01*
G01*
X198107142Y-66495996D01*
G75*
G02*
X198942178Y-65631290I849871J14835D01*
G01*
X198942178Y-65631290D01*
G75*
G02*
X199806884Y-66466326I14835J-849871D01*
G01*
X199806884Y-66466326D01*
G75*
G02*
X198971848Y-67331032I-849871J-14835D01*
G01*
G37*
%TD*%
%TO.C,REF\u002A\u002A*%
G36*
G01*
X201761848Y-65571032D02*
X201761848Y-65571032D01*
G75*
G02*
X200897142Y-64735996I-14835J849871D01*
G01*
X200897142Y-64735996D01*
G75*
G02*
X201732178Y-63871290I849871J14835D01*
G01*
X201732178Y-63871290D01*
G75*
G02*
X202596884Y-64706326I14835J-849871D01*
G01*
X202596884Y-64706326D01*
G75*
G02*
X201761848Y-65571032I-849871J-14835D01*
G01*
G37*
X201880000Y-72340000D03*
%TD*%
%TO.C,REF\u002A\u002A*%
X213070000Y-62580000D03*
G36*
G01*
X212951848Y-55811032D02*
X212951848Y-55811032D01*
G75*
G02*
X212087142Y-54975996I-14835J849871D01*
G01*
X212087142Y-54975996D01*
G75*
G02*
X212922178Y-54111290I849871J14835D01*
G01*
X212922178Y-54111290D01*
G75*
G02*
X213786884Y-54946326I14835J-849871D01*
G01*
X213786884Y-54946326D01*
G75*
G02*
X212951848Y-55811032I-849871J-14835D01*
G01*
G37*
%TD*%
%TO.C,REF\u002A\u002A*%
G36*
G01*
X215781848Y-59801032D02*
X215781848Y-59801032D01*
G75*
G02*
X214917142Y-58965996I-14835J849871D01*
G01*
X214917142Y-58965996D01*
G75*
G02*
X215752178Y-58101290I849871J14835D01*
G01*
X215752178Y-58101290D01*
G75*
G02*
X216616884Y-58936326I14835J-849871D01*
G01*
X216616884Y-58936326D01*
G75*
G02*
X215781848Y-59801032I-849871J-14835D01*
G01*
G37*
X215900000Y-66570000D03*
%TD*%
%TO.C,REF\u002A\u002A*%
X215860000Y-56360000D03*
G36*
G01*
X218396086Y-50082965D02*
X218396086Y-50082965D01*
G75*
G02*
X217926396Y-48976443I318416J788106D01*
G01*
X217926396Y-48976443D01*
G75*
G02*
X219032918Y-48506753I788106J-318416D01*
G01*
X219032918Y-48506753D01*
G75*
G02*
X219502608Y-49613275I-318416J-788106D01*
G01*
X219502608Y-49613275D01*
G75*
G02*
X218396086Y-50082965I-788106J318416D01*
G01*
G37*
%TD*%
%TO.C,REF\u002A\u002A*%
G36*
G01*
X217822837Y-46960070D02*
X217822837Y-46960070D01*
G75*
G02*
X217801858Y-45758171I590460J611439D01*
G01*
X217801858Y-45758171D01*
G75*
G02*
X219003757Y-45737192I611439J-590460D01*
G01*
X219003757Y-45737192D01*
G75*
G02*
X219024736Y-46939091I-590460J-611439D01*
G01*
X219024736Y-46939091D01*
G75*
G02*
X217822837Y-46960070I-611439J590460D01*
G01*
G37*
X213120000Y-51830000D03*
%TD*%
%TO.C,REF\u002A\u002A*%
X203370000Y-63140000D03*
G36*
G01*
X208072837Y-58270070D02*
X208072837Y-58270070D01*
G75*
G02*
X208051858Y-57068171I590460J611439D01*
G01*
X208051858Y-57068171D01*
G75*
G02*
X209253757Y-57047192I611439J-590460D01*
G01*
X209253757Y-57047192D01*
G75*
G02*
X209274736Y-58249091I-590460J-611439D01*
G01*
X209274736Y-58249091D01*
G75*
G02*
X208072837Y-58270070I-611439J590460D01*
G01*
G37*
%TD*%
%TO.C,REF\u002A\u002A*%
G36*
G01*
X207044750Y-65648182D02*
X207044750Y-65648182D01*
G75*
G02*
X205930200Y-65197874I-332121J782429D01*
G01*
X205930200Y-65197874D01*
G75*
G02*
X206380508Y-64083324I782429J332121D01*
G01*
X206380508Y-64083324D01*
G75*
G02*
X207495058Y-64533632I332121J-782429D01*
G01*
X207495058Y-64533632D01*
G75*
G02*
X207044750Y-65648182I-782429J-332121D01*
G01*
G37*
X209690000Y-71880000D03*
%TD*%
%TO.C,REF\u002A\u002A*%
X208330000Y-76280000D03*
G36*
G01*
X205684750Y-70048182D02*
X205684750Y-70048182D01*
G75*
G02*
X204570200Y-69597874I-332121J782429D01*
G01*
X204570200Y-69597874D01*
G75*
G02*
X205020508Y-68483324I782429J332121D01*
G01*
X205020508Y-68483324D01*
G75*
G02*
X206135058Y-68933632I332121J-782429D01*
G01*
X206135058Y-68933632D01*
G75*
G02*
X205684750Y-70048182I-782429J-332121D01*
G01*
G37*
%TD*%
%TO.C,REF\u002A\u002A*%
G36*
G01*
X217487113Y-69492887D02*
X217487113Y-69492887D01*
G75*
G02*
X217487113Y-68290805I601041J601041D01*
G01*
X217487113Y-68290805D01*
G75*
G02*
X218689195Y-68290805I601041J-601041D01*
G01*
X218689195Y-68290805D01*
G75*
G02*
X218689195Y-69492887I-601041J-601041D01*
G01*
X218689195Y-69492887D01*
G75*
G02*
X217487113Y-69492887I-601041J601041D01*
G01*
G37*
X212700000Y-74280000D03*
%TD*%
%TO.C,REF\u002A\u002A*%
X212960000Y-78080000D03*
G36*
G01*
X217747113Y-73292887D02*
X217747113Y-73292887D01*
G75*
G02*
X217747113Y-72090805I601041J601041D01*
G01*
X217747113Y-72090805D01*
G75*
G02*
X218949195Y-72090805I601041J-601041D01*
G01*
X218949195Y-72090805D01*
G75*
G02*
X218949195Y-73292887I-601041J-601041D01*
G01*
X218949195Y-73292887D01*
G75*
G02*
X217747113Y-73292887I-601041J601041D01*
G01*
G37*
%TD*%
%TO.C,REF\u002A\u002A*%
G36*
G01*
X206937113Y-78762887D02*
X206937113Y-78762887D01*
G75*
G02*
X206937113Y-77560805I601041J601041D01*
G01*
X206937113Y-77560805D01*
G75*
G02*
X208139195Y-77560805I601041J-601041D01*
G01*
X208139195Y-77560805D01*
G75*
G02*
X208139195Y-78762887I-601041J-601041D01*
G01*
X208139195Y-78762887D01*
G75*
G02*
X206937113Y-78762887I-601041J601041D01*
G01*
G37*
X202150000Y-83550000D03*
%TD*%
%TO.C,REF\u002A\u002A*%
X210470000Y-84640000D03*
G36*
G01*
X215257113Y-79852887D02*
X215257113Y-79852887D01*
G75*
G02*
X215257113Y-78650805I601041J601041D01*
G01*
X215257113Y-78650805D01*
G75*
G02*
X216459195Y-78650805I601041J-601041D01*
G01*
X216459195Y-78650805D01*
G75*
G02*
X216459195Y-79852887I-601041J-601041D01*
G01*
X216459195Y-79852887D01*
G75*
G02*
X215257113Y-79852887I-601041J601041D01*
G01*
G37*
%TD*%
%TO.C,REF\u002A\u002A*%
G36*
G01*
X212291285Y-92352446D02*
X212291285Y-92352446D01*
G75*
G02*
X212561695Y-91181174I720841J450431D01*
G01*
X212561695Y-91181174D01*
G75*
G02*
X213732967Y-91451584I450431J-720841D01*
G01*
X213732967Y-91451584D01*
G75*
G02*
X213462557Y-92622856I-720841J-450431D01*
G01*
X213462557Y-92622856D01*
G75*
G02*
X212291285Y-92352446I-450431J720841D01*
G01*
G37*
X206550000Y-95940000D03*
%TD*%
%TO.C,REF\u002A\u002A*%
X190100000Y-87680000D03*
G36*
G01*
X196722060Y-89087562D02*
X196722060Y-89087562D01*
G75*
G02*
X197730210Y-88432862I831425J-176725D01*
G01*
X197730210Y-88432862D01*
G75*
G02*
X198384910Y-89441012I-176725J-831425D01*
G01*
X198384910Y-89441012D01*
G75*
G02*
X197376760Y-90095712I-831425J176725D01*
G01*
X197376760Y-90095712D01*
G75*
G02*
X196722060Y-89087562I176725J831425D01*
G01*
G37*
%TD*%
%TO.C,REF\u002A\u002A*%
G36*
G01*
X202747562Y-95752060D02*
X202747562Y-95752060D01*
G75*
G02*
X203755712Y-96406760I176725J-831425D01*
G01*
X203755712Y-96406760D01*
G75*
G02*
X203101012Y-97414910I-831425J-176725D01*
G01*
X203101012Y-97414910D01*
G75*
G02*
X202092862Y-96760210I-176725J831425D01*
G01*
X202092862Y-96760210D01*
G75*
G02*
X202747562Y-95752060I831425J176725D01*
G01*
G37*
X201340000Y-89130000D03*
%TD*%
%TO.C,REF\u002A\u002A*%
X195840000Y-94530000D03*
G36*
G01*
X189217940Y-95937562D02*
X189217940Y-95937562D01*
G75*
G02*
X188563240Y-96945712I-831425J-176725D01*
G01*
X188563240Y-96945712D01*
G75*
G02*
X187555090Y-96291012I-176725J831425D01*
G01*
X187555090Y-96291012D01*
G75*
G02*
X188209790Y-95282862I831425J176725D01*
G01*
X188209790Y-95282862D01*
G75*
G02*
X189217940Y-95937562I176725J-831425D01*
G01*
G37*
%TD*%
%TO.C,REF\u002A\u002A*%
G36*
G01*
X185222438Y-96647940D02*
X185222438Y-96647940D01*
G75*
G02*
X184214288Y-95993240I-176725J831425D01*
G01*
X184214288Y-95993240D01*
G75*
G02*
X184868988Y-94985090I831425J176725D01*
G01*
X184868988Y-94985090D01*
G75*
G02*
X185877138Y-95639790I176725J-831425D01*
G01*
X185877138Y-95639790D01*
G75*
G02*
X185222438Y-96647940I-831425J-176725D01*
G01*
G37*
X186630000Y-103270000D03*
%TD*%
%TO.C,REF\u002A\u002A*%
X212740000Y-113900000D03*
G36*
G01*
X213915598Y-107232852D02*
X213915598Y-107232852D01*
G75*
G02*
X213226112Y-106248164I147601J837087D01*
G01*
X213226112Y-106248164D01*
G75*
G02*
X214210800Y-105558678I837087J-147601D01*
G01*
X214210800Y-105558678D01*
G75*
G02*
X214900286Y-106543366I-147601J-837087D01*
G01*
X214900286Y-106543366D01*
G75*
G02*
X213915598Y-107232852I-837087J147601D01*
G01*
G37*
%TD*%
%TO.C,REF\u002A\u002A*%
G36*
G01*
X212386086Y-120232965D02*
X212386086Y-120232965D01*
G75*
G02*
X211916396Y-119126443I318416J788106D01*
G01*
X211916396Y-119126443D01*
G75*
G02*
X213022918Y-118656753I788106J-318416D01*
G01*
X213022918Y-118656753D01*
G75*
G02*
X213492608Y-119763275I-318416J-788106D01*
G01*
X213492608Y-119763275D01*
G75*
G02*
X212386086Y-120232965I-788106J318416D01*
G01*
G37*
X209850000Y-126510000D03*
%TD*%
%TO.C,REF\u002A\u002A*%
X205390000Y-125740000D03*
G36*
G01*
X204098223Y-119094384D02*
X204098223Y-119094384D01*
G75*
G02*
X203101652Y-118422189I-162188J834383D01*
G01*
X203101652Y-118422189D01*
G75*
G02*
X203773847Y-117425618I834383J162188D01*
G01*
X203773847Y-117425618D01*
G75*
G02*
X204770418Y-118097813I162188J-834383D01*
G01*
X204770418Y-118097813D01*
G75*
G02*
X204098223Y-119094384I-834383J-162188D01*
G01*
G37*
%TD*%
%TO.C,REF\u002A\u002A*%
G36*
G01*
X201088223Y-118464384D02*
X201088223Y-118464384D01*
G75*
G02*
X200091652Y-117792189I-162188J834383D01*
G01*
X200091652Y-117792189D01*
G75*
G02*
X200763847Y-116795618I834383J162188D01*
G01*
X200763847Y-116795618D01*
G75*
G02*
X201760418Y-117467813I162188J-834383D01*
G01*
X201760418Y-117467813D01*
G75*
G02*
X201088223Y-118464384I-834383J-162188D01*
G01*
G37*
X202380000Y-125110000D03*
%TD*%
%TO.C,REF\u002A\u002A*%
X194270000Y-127060000D03*
G36*
G01*
X192978223Y-120414384D02*
X192978223Y-120414384D01*
G75*
G02*
X191981652Y-119742189I-162188J834383D01*
G01*
X191981652Y-119742189D01*
G75*
G02*
X192653847Y-118745618I834383J162188D01*
G01*
X192653847Y-118745618D01*
G75*
G02*
X193650418Y-119417813I162188J-834383D01*
G01*
X193650418Y-119417813D01*
G75*
G02*
X192978223Y-120414384I-834383J-162188D01*
G01*
G37*
%TD*%
%TO.C,REF\u002A\u002A*%
G36*
G01*
X189918223Y-125144384D02*
X189918223Y-125144384D01*
G75*
G02*
X188921652Y-124472189I-162188J834383D01*
G01*
X188921652Y-124472189D01*
G75*
G02*
X189593847Y-123475618I834383J162188D01*
G01*
X189593847Y-123475618D01*
G75*
G02*
X190590418Y-124147813I162188J-834383D01*
G01*
X190590418Y-124147813D01*
G75*
G02*
X189918223Y-125144384I-834383J-162188D01*
G01*
G37*
X191210000Y-131790000D03*
%TD*%
%TO.C,REF\u002A\u002A*%
X173580000Y-113750000D03*
G36*
G01*
X178367113Y-108962887D02*
X178367113Y-108962887D01*
G75*
G02*
X178367113Y-107760805I601041J601041D01*
G01*
X178367113Y-107760805D01*
G75*
G02*
X179569195Y-107760805I601041J-601041D01*
G01*
X179569195Y-107760805D01*
G75*
G02*
X179569195Y-108962887I-601041J-601041D01*
G01*
X179569195Y-108962887D01*
G75*
G02*
X178367113Y-108962887I-601041J601041D01*
G01*
G37*
%TD*%
%TO.C,REF\u002A\u002A*%
G36*
G01*
X184465250Y-114808182D02*
X184465250Y-114808182D01*
G75*
G02*
X184014942Y-113693632I332121J782429D01*
G01*
X184014942Y-113693632D01*
G75*
G02*
X185129492Y-113243324I782429J-332121D01*
G01*
X185129492Y-113243324D01*
G75*
G02*
X185579800Y-114357874I-332121J-782429D01*
G01*
X185579800Y-114357874D01*
G75*
G02*
X184465250Y-114808182I-782429J332121D01*
G01*
G37*
X181820000Y-121040000D03*
%TD*%
%TO.C,REF\u002A\u002A*%
X174580000Y-126260000D03*
G36*
G01*
X177225250Y-120028182D02*
X177225250Y-120028182D01*
G75*
G02*
X176774942Y-118913632I332121J782429D01*
G01*
X176774942Y-118913632D01*
G75*
G02*
X177889492Y-118463324I782429J-332121D01*
G01*
X177889492Y-118463324D01*
G75*
G02*
X178339800Y-119577874I-332121J-782429D01*
G01*
X178339800Y-119577874D01*
G75*
G02*
X177225250Y-120028182I-782429J332121D01*
G01*
G37*
%TD*%
%TO.C,REF\u002A\u002A*%
G36*
G01*
X180475250Y-124328182D02*
X180475250Y-124328182D01*
G75*
G02*
X180024942Y-123213632I332121J782429D01*
G01*
X180024942Y-123213632D01*
G75*
G02*
X181139492Y-122763324I782429J-332121D01*
G01*
X181139492Y-122763324D01*
G75*
G02*
X181589800Y-123877874I-332121J-782429D01*
G01*
X181589800Y-123877874D01*
G75*
G02*
X180475250Y-124328182I-782429J332121D01*
G01*
G37*
X177830000Y-130560000D03*
%TD*%
%TO.C,REF\u002A\u002A*%
X177350000Y-138700000D03*
G36*
G01*
X179995250Y-132468182D02*
X179995250Y-132468182D01*
G75*
G02*
X179544942Y-131353632I332121J782429D01*
G01*
X179544942Y-131353632D01*
G75*
G02*
X180659492Y-130903324I782429J-332121D01*
G01*
X180659492Y-130903324D01*
G75*
G02*
X181109800Y-132017874I-332121J-782429D01*
G01*
X181109800Y-132017874D01*
G75*
G02*
X179995250Y-132468182I-782429J332121D01*
G01*
G37*
%TD*%
%TO.C,REF\u002A\u002A*%
X214843947Y-30812218D03*
X210650000Y-37030000D03*
%TD*%
%TO.C,REF\u002A\u002A*%
X191240000Y-38280000D03*
X195433947Y-32062218D03*
%TD*%
%TO.C,REF\u002A\u002A*%
X171316742Y-49832337D03*
X172490000Y-57240000D03*
%TD*%
%TO.C,REF\u002A\u002A*%
X168560000Y-49980000D03*
X163350062Y-44584951D03*
%TD*%
%TO.C,REF\u002A\u002A*%
X166010483Y-58326214D03*
X163080000Y-65230000D03*
%TD*%
%TO.C,REF\u002A\u002A*%
X150740000Y-54120000D03*
X153670483Y-47216214D03*
%TD*%
%TO.C,REF\u002A\u002A*%
X147799938Y-65705049D03*
X142590000Y-60310000D03*
%TD*%
%TO.C,REF\u002A\u002A*%
X140450000Y-62220000D03*
X145659938Y-67615049D03*
%TD*%
%TO.C,REF\u002A\u002A*%
X124730000Y-69120000D03*
X132230000Y-69120000D03*
%TD*%
%TO.C,REF\u002A\u002A*%
X136236107Y-76600662D03*
X128900000Y-78160000D03*
%TD*%
%TO.C,REF\u002A\u002A*%
X189550000Y-93210000D03*
X196886107Y-91650662D03*
%TD*%
%TO.C,REF\u002A\u002A*%
X201090000Y-100690000D03*
X193590000Y-100690000D03*
%TD*%
%TO.C,REF\u002A\u002A*%
X185369938Y-107705049D03*
X180160000Y-102310000D03*
%TD*%
%TO.C,REF\u002A\u002A*%
X178100000Y-104130000D03*
X183309938Y-109525049D03*
%TD*%
%TO.C,REF\u002A\u002A*%
X174950000Y-115680000D03*
X172140451Y-122633879D03*
%TD*%
%TO.C,REF\u002A\u002A*%
X159900451Y-111493879D03*
X162710000Y-104540000D03*
%TD*%
%TO.C,REF\u002A\u002A*%
X152140000Y-114030000D03*
X154081143Y-121274444D03*
%TD*%
%TO.C,REF\u002A\u002A*%
X162549938Y-125225049D03*
X157340000Y-119830000D03*
%TD*%
%TO.C,REF\u002A\u002A*%
X115410000Y-132770000D03*
X111216053Y-138987782D03*
%TD*%
D12*
%TO.C,REF\u002A\u002A*%
X128060000Y-84500000D03*
D11*
X122980000Y-84500000D03*
X125520000Y-84500000D03*
%TD*%
D20*
%TO.C,REF\u002A\u002A*%
X196580000Y-139810000D03*
D15*
X188960000Y-139810000D03*
%TD*%
D16*
%TO.C,REF\u002A\u002A*%
G36*
X112794187Y-121810073D02*
G01*
X114219927Y-120884187D01*
X115145813Y-122309927D01*
X113720073Y-123235813D01*
X112794187Y-121810073D01*
G37*
G36*
G01*
X111266537Y-131887949D02*
X111266537Y-131887949D01*
G75*
G02*
X112442350Y-132137876I462943J-712870D01*
G01*
X112442350Y-132137876D01*
G75*
G02*
X112192423Y-133313689I-712870J-462943D01*
G01*
X112192423Y-133313689D01*
G75*
G02*
X111016610Y-133063762I-462943J712870D01*
G01*
X111016610Y-133063762D01*
G75*
G02*
X111266537Y-131887949I712870J462943D01*
G01*
G37*
G36*
G01*
X111376834Y-122730513D02*
X111376834Y-122730513D01*
G75*
G02*
X112552647Y-122980440I462943J-712870D01*
G01*
X112552647Y-122980440D01*
G75*
G02*
X112302720Y-124156253I-712870J-462943D01*
G01*
X112302720Y-124156253D01*
G75*
G02*
X111126907Y-123906326I-462943J712870D01*
G01*
X111126907Y-123906326D01*
G75*
G02*
X111376834Y-122730513I712870J462943D01*
G01*
G37*
G36*
G01*
X113396760Y-130504566D02*
X113396760Y-130504566D01*
G75*
G02*
X114572573Y-130754493I462943J-712870D01*
G01*
X114572573Y-130754493D01*
G75*
G02*
X114322646Y-131930306I-712870J-462943D01*
G01*
X114322646Y-131930306D01*
G75*
G02*
X113146833Y-131680379I-462943J712870D01*
G01*
X113146833Y-131680379D01*
G75*
G02*
X113396760Y-130504566I712870J462943D01*
G01*
G37*
G36*
G01*
X109246611Y-124113896D02*
X109246611Y-124113896D01*
G75*
G02*
X110422424Y-124363823I462943J-712870D01*
G01*
X110422424Y-124363823D01*
G75*
G02*
X110172497Y-125539636I-712870J-462943D01*
G01*
X110172497Y-125539636D01*
G75*
G02*
X108996684Y-125289709I-462943J712870D01*
G01*
X108996684Y-125289709D01*
G75*
G02*
X109246611Y-124113896I712870J462943D01*
G01*
G37*
G36*
G01*
X115526983Y-129121183D02*
X115526983Y-129121183D01*
G75*
G02*
X116702796Y-129371110I462943J-712870D01*
G01*
X116702796Y-129371110D01*
G75*
G02*
X116452869Y-130546923I-712870J-462943D01*
G01*
X116452869Y-130546923D01*
G75*
G02*
X115277056Y-130296996I-462943J712870D01*
G01*
X115277056Y-130296996D01*
G75*
G02*
X115526983Y-129121183I712870J462943D01*
G01*
G37*
G36*
G01*
X107116387Y-125497279D02*
X107116387Y-125497279D01*
G75*
G02*
X108292200Y-125747206I462943J-712870D01*
G01*
X108292200Y-125747206D01*
G75*
G02*
X108042273Y-126923019I-712870J-462943D01*
G01*
X108042273Y-126923019D01*
G75*
G02*
X106866460Y-126673092I-462943J712870D01*
G01*
X106866460Y-126673092D01*
G75*
G02*
X107116387Y-125497279I712870J462943D01*
G01*
G37*
G36*
G01*
X117657206Y-127737800D02*
X117657206Y-127737800D01*
G75*
G02*
X118833019Y-127987727I462943J-712870D01*
G01*
X118833019Y-127987727D01*
G75*
G02*
X118583092Y-129163540I-712870J-462943D01*
G01*
X118583092Y-129163540D01*
G75*
G02*
X117407279Y-128913613I-462943J712870D01*
G01*
X117407279Y-128913613D01*
G75*
G02*
X117657206Y-127737800I712870J462943D01*
G01*
G37*
%TD*%
%TO.C,REF\u002A\u002A*%
G36*
G01*
X208222794Y-42032200D02*
X208222794Y-42032200D01*
G75*
G02*
X207046981Y-41782273I-462943J712870D01*
G01*
X207046981Y-41782273D01*
G75*
G02*
X207296908Y-40606460I712870J462943D01*
G01*
X207296908Y-40606460D01*
G75*
G02*
X208472721Y-40856387I462943J-712870D01*
G01*
X208472721Y-40856387D01*
G75*
G02*
X208222794Y-42032200I-712870J-462943D01*
G01*
G37*
G36*
G01*
X218763613Y-44272721D02*
X218763613Y-44272721D01*
G75*
G02*
X217587800Y-44022794I-462943J712870D01*
G01*
X217587800Y-44022794D01*
G75*
G02*
X217837727Y-42846981I712870J462943D01*
G01*
X217837727Y-42846981D01*
G75*
G02*
X219013540Y-43096908I462943J-712870D01*
G01*
X219013540Y-43096908D01*
G75*
G02*
X218763613Y-44272721I-712870J-462943D01*
G01*
G37*
G36*
G01*
X210353017Y-40648817D02*
X210353017Y-40648817D01*
G75*
G02*
X209177204Y-40398890I-462943J712870D01*
G01*
X209177204Y-40398890D01*
G75*
G02*
X209427131Y-39223077I712870J462943D01*
G01*
X209427131Y-39223077D01*
G75*
G02*
X210602944Y-39473004I462943J-712870D01*
G01*
X210602944Y-39473004D01*
G75*
G02*
X210353017Y-40648817I-712870J-462943D01*
G01*
G37*
G36*
G01*
X216633389Y-45656104D02*
X216633389Y-45656104D01*
G75*
G02*
X215457576Y-45406177I-462943J712870D01*
G01*
X215457576Y-45406177D01*
G75*
G02*
X215707503Y-44230364I712870J462943D01*
G01*
X215707503Y-44230364D01*
G75*
G02*
X216883316Y-44480291I462943J-712870D01*
G01*
X216883316Y-44480291D01*
G75*
G02*
X216633389Y-45656104I-712870J-462943D01*
G01*
G37*
G36*
G01*
X212483240Y-39265434D02*
X212483240Y-39265434D01*
G75*
G02*
X211307427Y-39015507I-462943J712870D01*
G01*
X211307427Y-39015507D01*
G75*
G02*
X211557354Y-37839694I712870J462943D01*
G01*
X211557354Y-37839694D01*
G75*
G02*
X212733167Y-38089621I462943J-712870D01*
G01*
X212733167Y-38089621D01*
G75*
G02*
X212483240Y-39265434I-712870J-462943D01*
G01*
G37*
G36*
G01*
X214503166Y-47039487D02*
X214503166Y-47039487D01*
G75*
G02*
X213327353Y-46789560I-462943J712870D01*
G01*
X213327353Y-46789560D01*
G75*
G02*
X213577280Y-45613747I712870J462943D01*
G01*
X213577280Y-45613747D01*
G75*
G02*
X214753093Y-45863674I462943J-712870D01*
G01*
X214753093Y-45863674D01*
G75*
G02*
X214503166Y-47039487I-712870J-462943D01*
G01*
G37*
G36*
G01*
X214613463Y-37882051D02*
X214613463Y-37882051D01*
G75*
G02*
X213437650Y-37632124I-462943J712870D01*
G01*
X213437650Y-37632124D01*
G75*
G02*
X213687577Y-36456311I712870J462943D01*
G01*
X213687577Y-36456311D01*
G75*
G02*
X214863390Y-36706238I462943J-712870D01*
G01*
X214863390Y-36706238D01*
G75*
G02*
X214613463Y-37882051I-712870J-462943D01*
G01*
G37*
G36*
X213085813Y-47959927D02*
G01*
X211660073Y-48885813D01*
X210734187Y-47460073D01*
X212159927Y-46534187D01*
X213085813Y-47959927D01*
G37*
%TD*%
%TO.C,REF\u002A\u002A*%
G36*
G01*
X153622965Y-62393914D02*
X153622965Y-62393914D01*
G75*
G02*
X152516443Y-62863604I-788106J318416D01*
G01*
X152516443Y-62863604D01*
G75*
G02*
X152046753Y-61757082I318416J788106D01*
G01*
X152046753Y-61757082D01*
G75*
G02*
X153153275Y-61287392I788106J-318416D01*
G01*
X153153275Y-61287392D01*
G75*
G02*
X153622965Y-62393914I-318416J-788106D01*
G01*
G37*
G36*
G01*
X166397110Y-51118134D02*
X166397110Y-51118134D01*
G75*
G02*
X165290588Y-51587824I-788106J318416D01*
G01*
X165290588Y-51587824D01*
G75*
G02*
X164820898Y-50481302I318416J788106D01*
G01*
X164820898Y-50481302D01*
G75*
G02*
X165927420Y-50011612I788106J-318416D01*
G01*
X165927420Y-50011612D01*
G75*
G02*
X166397110Y-51118134I-318416J-788106D01*
G01*
G37*
G36*
G01*
X154574466Y-60038867D02*
X154574466Y-60038867D01*
G75*
G02*
X153467944Y-60508557I-788106J318416D01*
G01*
X153467944Y-60508557D01*
G75*
G02*
X152998254Y-59402035I318416J788106D01*
G01*
X152998254Y-59402035D01*
G75*
G02*
X154104776Y-58932345I788106J-318416D01*
G01*
X154104776Y-58932345D01*
G75*
G02*
X154574466Y-60038867I-318416J-788106D01*
G01*
G37*
G36*
G01*
X165445610Y-53473181D02*
X165445610Y-53473181D01*
G75*
G02*
X164339088Y-53942871I-788106J318416D01*
G01*
X164339088Y-53942871D01*
G75*
G02*
X163869398Y-52836349I318416J788106D01*
G01*
X163869398Y-52836349D01*
G75*
G02*
X164975920Y-52366659I788106J-318416D01*
G01*
X164975920Y-52366659D01*
G75*
G02*
X165445610Y-53473181I-318416J-788106D01*
G01*
G37*
G36*
G01*
X155525967Y-57683820D02*
X155525967Y-57683820D01*
G75*
G02*
X154419445Y-58153510I-788106J318416D01*
G01*
X154419445Y-58153510D01*
G75*
G02*
X153949755Y-57046988I318416J788106D01*
G01*
X153949755Y-57046988D01*
G75*
G02*
X155056277Y-56577298I788106J-318416D01*
G01*
X155056277Y-56577298D01*
G75*
G02*
X155525967Y-57683820I-318416J-788106D01*
G01*
G37*
G36*
G01*
X164494109Y-55828228D02*
X164494109Y-55828228D01*
G75*
G02*
X163387587Y-56297918I-788106J318416D01*
G01*
X163387587Y-56297918D01*
G75*
G02*
X162917897Y-55191396I318416J788106D01*
G01*
X162917897Y-55191396D01*
G75*
G02*
X164024419Y-54721706I788106J-318416D01*
G01*
X164024419Y-54721706D01*
G75*
G02*
X164494109Y-55828228I-318416J-788106D01*
G01*
G37*
G36*
G01*
X156477467Y-55328773D02*
X156477467Y-55328773D01*
G75*
G02*
X155370945Y-55798463I-788106J318416D01*
G01*
X155370945Y-55798463D01*
G75*
G02*
X154901255Y-54691941I318416J788106D01*
G01*
X154901255Y-54691941D01*
G75*
G02*
X156007777Y-54222251I788106J-318416D01*
G01*
X156007777Y-54222251D01*
G75*
G02*
X156477467Y-55328773I-318416J-788106D01*
G01*
G37*
G36*
G01*
X163542608Y-58183275D02*
X163542608Y-58183275D01*
G75*
G02*
X162436086Y-58652965I-788106J318416D01*
G01*
X162436086Y-58652965D01*
G75*
G02*
X161966396Y-57546443I318416J788106D01*
G01*
X161966396Y-57546443D01*
G75*
G02*
X163072918Y-57076753I788106J-318416D01*
G01*
X163072918Y-57076753D01*
G75*
G02*
X163542608Y-58183275I-318416J-788106D01*
G01*
G37*
G36*
G01*
X157428968Y-52973726D02*
X157428968Y-52973726D01*
G75*
G02*
X156322446Y-53443416I-788106J318416D01*
G01*
X156322446Y-53443416D01*
G75*
G02*
X155852756Y-52336894I318416J788106D01*
G01*
X155852756Y-52336894D01*
G75*
G02*
X156959278Y-51867204I788106J-318416D01*
G01*
X156959278Y-51867204D01*
G75*
G02*
X157428968Y-52973726I-318416J-788106D01*
G01*
G37*
G36*
G01*
X162591107Y-60538322D02*
X162591107Y-60538322D01*
G75*
G02*
X161484585Y-61008012I-788106J318416D01*
G01*
X161484585Y-61008012D01*
G75*
G02*
X161014895Y-59901490I318416J788106D01*
G01*
X161014895Y-59901490D01*
G75*
G02*
X162121417Y-59431800I788106J-318416D01*
G01*
X162121417Y-59431800D01*
G75*
G02*
X162591107Y-60538322I-318416J-788106D01*
G01*
G37*
G36*
G01*
X158380469Y-50618679D02*
X158380469Y-50618679D01*
G75*
G02*
X157273947Y-51088369I-788106J318416D01*
G01*
X157273947Y-51088369D01*
G75*
G02*
X156804257Y-49981847I318416J788106D01*
G01*
X156804257Y-49981847D01*
G75*
G02*
X157910779Y-49512157I788106J-318416D01*
G01*
X157910779Y-49512157D01*
G75*
G02*
X158380469Y-50618679I-318416J-788106D01*
G01*
G37*
G36*
G01*
X161639607Y-62893369D02*
X161639607Y-62893369D01*
G75*
G02*
X160533085Y-63363059I-788106J318416D01*
G01*
X160533085Y-63363059D01*
G75*
G02*
X160063395Y-62256537I318416J788106D01*
G01*
X160063395Y-62256537D01*
G75*
G02*
X161169917Y-61786847I788106J-318416D01*
G01*
X161169917Y-61786847D01*
G75*
G02*
X161639607Y-62893369I-318416J-788106D01*
G01*
G37*
G36*
G01*
X159331970Y-48263632D02*
X159331970Y-48263632D01*
G75*
G02*
X158225448Y-48733322I-788106J318416D01*
G01*
X158225448Y-48733322D01*
G75*
G02*
X157755758Y-47626800I318416J788106D01*
G01*
X157755758Y-47626800D01*
G75*
G02*
X158862280Y-47157110I788106J-318416D01*
G01*
X158862280Y-47157110D01*
G75*
G02*
X159331970Y-48263632I-318416J-788106D01*
G01*
G37*
G36*
X161006522Y-64460309D02*
G01*
X160369691Y-66036522D01*
X158793478Y-65399691D01*
X159430309Y-63823478D01*
X161006522Y-64460309D01*
G37*
%TD*%
%TO.C,REF\u002A\u002A*%
G36*
X164803478Y-105389691D02*
G01*
X165440309Y-103813478D01*
X167016522Y-104450309D01*
X166379691Y-106026522D01*
X164803478Y-105389691D01*
G37*
G36*
G01*
X166478030Y-121586368D02*
X166478030Y-121586368D01*
G75*
G02*
X167584552Y-121116678I788106J-318416D01*
G01*
X167584552Y-121116678D01*
G75*
G02*
X168054242Y-122223200I-318416J-788106D01*
G01*
X168054242Y-122223200D01*
G75*
G02*
X166947720Y-122692890I-788106J318416D01*
G01*
X166947720Y-122692890D01*
G75*
G02*
X166478030Y-121586368I318416J788106D01*
G01*
G37*
G36*
G01*
X164170393Y-106956631D02*
X164170393Y-106956631D01*
G75*
G02*
X165276915Y-106486941I788106J-318416D01*
G01*
X165276915Y-106486941D01*
G75*
G02*
X165746605Y-107593463I-318416J-788106D01*
G01*
X165746605Y-107593463D01*
G75*
G02*
X164640083Y-108063153I-788106J318416D01*
G01*
X164640083Y-108063153D01*
G75*
G02*
X164170393Y-106956631I318416J788106D01*
G01*
G37*
G36*
G01*
X167429531Y-119231321D02*
X167429531Y-119231321D01*
G75*
G02*
X168536053Y-118761631I788106J-318416D01*
G01*
X168536053Y-118761631D01*
G75*
G02*
X169005743Y-119868153I-318416J-788106D01*
G01*
X169005743Y-119868153D01*
G75*
G02*
X167899221Y-120337843I-788106J318416D01*
G01*
X167899221Y-120337843D01*
G75*
G02*
X167429531Y-119231321I318416J788106D01*
G01*
G37*
G36*
G01*
X163218893Y-109311678D02*
X163218893Y-109311678D01*
G75*
G02*
X164325415Y-108841988I788106J-318416D01*
G01*
X164325415Y-108841988D01*
G75*
G02*
X164795105Y-109948510I-318416J-788106D01*
G01*
X164795105Y-109948510D01*
G75*
G02*
X163688583Y-110418200I-788106J318416D01*
G01*
X163688583Y-110418200D01*
G75*
G02*
X163218893Y-109311678I318416J788106D01*
G01*
G37*
G36*
G01*
X168381032Y-116876274D02*
X168381032Y-116876274D01*
G75*
G02*
X169487554Y-116406584I788106J-318416D01*
G01*
X169487554Y-116406584D01*
G75*
G02*
X169957244Y-117513106I-318416J-788106D01*
G01*
X169957244Y-117513106D01*
G75*
G02*
X168850722Y-117982796I-788106J318416D01*
G01*
X168850722Y-117982796D01*
G75*
G02*
X168381032Y-116876274I318416J788106D01*
G01*
G37*
G36*
G01*
X162267392Y-111666725D02*
X162267392Y-111666725D01*
G75*
G02*
X163373914Y-111197035I788106J-318416D01*
G01*
X163373914Y-111197035D01*
G75*
G02*
X163843604Y-112303557I-318416J-788106D01*
G01*
X163843604Y-112303557D01*
G75*
G02*
X162737082Y-112773247I-788106J318416D01*
G01*
X162737082Y-112773247D01*
G75*
G02*
X162267392Y-111666725I318416J788106D01*
G01*
G37*
G36*
G01*
X169332533Y-114521227D02*
X169332533Y-114521227D01*
G75*
G02*
X170439055Y-114051537I788106J-318416D01*
G01*
X170439055Y-114051537D01*
G75*
G02*
X170908745Y-115158059I-318416J-788106D01*
G01*
X170908745Y-115158059D01*
G75*
G02*
X169802223Y-115627749I-788106J318416D01*
G01*
X169802223Y-115627749D01*
G75*
G02*
X169332533Y-114521227I318416J788106D01*
G01*
G37*
G36*
G01*
X161315891Y-114021772D02*
X161315891Y-114021772D01*
G75*
G02*
X162422413Y-113552082I788106J-318416D01*
G01*
X162422413Y-113552082D01*
G75*
G02*
X162892103Y-114658604I-318416J-788106D01*
G01*
X162892103Y-114658604D01*
G75*
G02*
X161785581Y-115128294I-788106J318416D01*
G01*
X161785581Y-115128294D01*
G75*
G02*
X161315891Y-114021772I318416J788106D01*
G01*
G37*
G36*
G01*
X170284033Y-112166180D02*
X170284033Y-112166180D01*
G75*
G02*
X171390555Y-111696490I788106J-318416D01*
G01*
X171390555Y-111696490D01*
G75*
G02*
X171860245Y-112803012I-318416J-788106D01*
G01*
X171860245Y-112803012D01*
G75*
G02*
X170753723Y-113272702I-788106J318416D01*
G01*
X170753723Y-113272702D01*
G75*
G02*
X170284033Y-112166180I318416J788106D01*
G01*
G37*
G36*
G01*
X160364390Y-116376819D02*
X160364390Y-116376819D01*
G75*
G02*
X161470912Y-115907129I788106J-318416D01*
G01*
X161470912Y-115907129D01*
G75*
G02*
X161940602Y-117013651I-318416J-788106D01*
G01*
X161940602Y-117013651D01*
G75*
G02*
X160834080Y-117483341I-788106J318416D01*
G01*
X160834080Y-117483341D01*
G75*
G02*
X160364390Y-116376819I318416J788106D01*
G01*
G37*
G36*
G01*
X171235534Y-109811133D02*
X171235534Y-109811133D01*
G75*
G02*
X172342056Y-109341443I788106J-318416D01*
G01*
X172342056Y-109341443D01*
G75*
G02*
X172811746Y-110447965I-318416J-788106D01*
G01*
X172811746Y-110447965D01*
G75*
G02*
X171705224Y-110917655I-788106J318416D01*
G01*
X171705224Y-110917655D01*
G75*
G02*
X171235534Y-109811133I318416J788106D01*
G01*
G37*
G36*
G01*
X159412890Y-118731866D02*
X159412890Y-118731866D01*
G75*
G02*
X160519412Y-118262176I788106J-318416D01*
G01*
X160519412Y-118262176D01*
G75*
G02*
X160989102Y-119368698I-318416J-788106D01*
G01*
X160989102Y-119368698D01*
G75*
G02*
X159882580Y-119838388I-788106J318416D01*
G01*
X159882580Y-119838388D01*
G75*
G02*
X159412890Y-118731866I318416J788106D01*
G01*
G37*
G36*
G01*
X172187035Y-107456086D02*
X172187035Y-107456086D01*
G75*
G02*
X173293557Y-106986396I788106J-318416D01*
G01*
X173293557Y-106986396D01*
G75*
G02*
X173763247Y-108092918I-318416J-788106D01*
G01*
X173763247Y-108092918D01*
G75*
G02*
X172656725Y-108562608I-788106J318416D01*
G01*
X172656725Y-108562608D01*
G75*
G02*
X172187035Y-107456086I318416J788106D01*
G01*
G37*
%TD*%
%TO.C,REF\u002A\u002A*%
G36*
G01*
X199747113Y-55097113D02*
X199747113Y-55097113D01*
G75*
G02*
X200949195Y-55097113I601041J-601041D01*
G01*
X200949195Y-55097113D01*
G75*
G02*
X200949195Y-56299195I-601041J-601041D01*
G01*
X200949195Y-56299195D01*
G75*
G02*
X199747113Y-56299195I-601041J601041D01*
G01*
X199747113Y-56299195D01*
G75*
G02*
X199747113Y-55097113I601041J601041D01*
G01*
G37*
G36*
G01*
X183582652Y-60485266D02*
X183582652Y-60485266D01*
G75*
G02*
X184784734Y-60485266I601041J-601041D01*
G01*
X184784734Y-60485266D01*
G75*
G02*
X184784734Y-61687348I-601041J-601041D01*
G01*
X184784734Y-61687348D01*
G75*
G02*
X183582652Y-61687348I-601041J601041D01*
G01*
X183582652Y-61687348D01*
G75*
G02*
X183582652Y-60485266I601041J601041D01*
G01*
G37*
G36*
G01*
X197951061Y-56893164D02*
X197951061Y-56893164D01*
G75*
G02*
X199153143Y-56893164I601041J-601041D01*
G01*
X199153143Y-56893164D01*
G75*
G02*
X199153143Y-58095246I-601041J-601041D01*
G01*
X199153143Y-58095246D01*
G75*
G02*
X197951061Y-58095246I-601041J601041D01*
G01*
X197951061Y-58095246D01*
G75*
G02*
X197951061Y-56893164I601041J601041D01*
G01*
G37*
G36*
G01*
X185378703Y-58689215D02*
X185378703Y-58689215D01*
G75*
G02*
X186580785Y-58689215I601041J-601041D01*
G01*
X186580785Y-58689215D01*
G75*
G02*
X186580785Y-59891297I-601041J-601041D01*
G01*
X186580785Y-59891297D01*
G75*
G02*
X185378703Y-59891297I-601041J601041D01*
G01*
X185378703Y-59891297D01*
G75*
G02*
X185378703Y-58689215I601041J601041D01*
G01*
G37*
G36*
G01*
X196155010Y-58689215D02*
X196155010Y-58689215D01*
G75*
G02*
X197357092Y-58689215I601041J-601041D01*
G01*
X197357092Y-58689215D01*
G75*
G02*
X197357092Y-59891297I-601041J-601041D01*
G01*
X197357092Y-59891297D01*
G75*
G02*
X196155010Y-59891297I-601041J601041D01*
G01*
X196155010Y-59891297D01*
G75*
G02*
X196155010Y-58689215I601041J601041D01*
G01*
G37*
G36*
G01*
X187174754Y-56893164D02*
X187174754Y-56893164D01*
G75*
G02*
X188376836Y-56893164I601041J-601041D01*
G01*
X188376836Y-56893164D01*
G75*
G02*
X188376836Y-58095246I-601041J-601041D01*
G01*
X188376836Y-58095246D01*
G75*
G02*
X187174754Y-58095246I-601041J601041D01*
G01*
X187174754Y-58095246D01*
G75*
G02*
X187174754Y-56893164I601041J601041D01*
G01*
G37*
G36*
G01*
X194358959Y-60485266D02*
X194358959Y-60485266D01*
G75*
G02*
X195561041Y-60485266I601041J-601041D01*
G01*
X195561041Y-60485266D01*
G75*
G02*
X195561041Y-61687348I-601041J-601041D01*
G01*
X195561041Y-61687348D01*
G75*
G02*
X194358959Y-61687348I-601041J601041D01*
G01*
X194358959Y-61687348D01*
G75*
G02*
X194358959Y-60485266I601041J601041D01*
G01*
G37*
G36*
G01*
X188970805Y-55097113D02*
X188970805Y-55097113D01*
G75*
G02*
X190172887Y-55097113I601041J-601041D01*
G01*
X190172887Y-55097113D01*
G75*
G02*
X190172887Y-56299195I-601041J-601041D01*
G01*
X190172887Y-56299195D01*
G75*
G02*
X188970805Y-56299195I-601041J601041D01*
G01*
X188970805Y-56299195D01*
G75*
G02*
X188970805Y-55097113I601041J601041D01*
G01*
G37*
G36*
G01*
X192562908Y-62281318D02*
X192562908Y-62281318D01*
G75*
G02*
X193764990Y-62281318I601041J-601041D01*
G01*
X193764990Y-62281318D01*
G75*
G02*
X193764990Y-63483400I-601041J-601041D01*
G01*
X193764990Y-63483400D01*
G75*
G02*
X192562908Y-63483400I-601041J601041D01*
G01*
X192562908Y-63483400D01*
G75*
G02*
X192562908Y-62281318I601041J601041D01*
G01*
G37*
G36*
G01*
X190766857Y-53301061D02*
X190766857Y-53301061D01*
G75*
G02*
X191968939Y-53301061I601041J-601041D01*
G01*
X191968939Y-53301061D01*
G75*
G02*
X191968939Y-54503143I-601041J-601041D01*
G01*
X191968939Y-54503143D01*
G75*
G02*
X190766857Y-54503143I-601041J601041D01*
G01*
X190766857Y-54503143D01*
G75*
G02*
X190766857Y-53301061I601041J601041D01*
G01*
G37*
G36*
G01*
X190766857Y-64077369D02*
X190766857Y-64077369D01*
G75*
G02*
X191968939Y-64077369I601041J-601041D01*
G01*
X191968939Y-64077369D01*
G75*
G02*
X191968939Y-65279451I-601041J-601041D01*
G01*
X191968939Y-65279451D01*
G75*
G02*
X190766857Y-65279451I-601041J601041D01*
G01*
X190766857Y-65279451D01*
G75*
G02*
X190766857Y-64077369I601041J601041D01*
G01*
G37*
G36*
G01*
X192562908Y-51505010D02*
X192562908Y-51505010D01*
G75*
G02*
X193764990Y-51505010I601041J-601041D01*
G01*
X193764990Y-51505010D01*
G75*
G02*
X193764990Y-52707092I-601041J-601041D01*
G01*
X193764990Y-52707092D01*
G75*
G02*
X192562908Y-52707092I-601041J601041D01*
G01*
X192562908Y-52707092D01*
G75*
G02*
X192562908Y-51505010I601041J601041D01*
G01*
G37*
G36*
G01*
X188970805Y-65873420D02*
X188970805Y-65873420D01*
G75*
G02*
X190172887Y-65873420I601041J-601041D01*
G01*
X190172887Y-65873420D01*
G75*
G02*
X190172887Y-67075502I-601041J-601041D01*
G01*
X190172887Y-67075502D01*
G75*
G02*
X188970805Y-67075502I-601041J601041D01*
G01*
X188970805Y-67075502D01*
G75*
G02*
X188970805Y-65873420I601041J601041D01*
G01*
G37*
G36*
X193757918Y-50310000D02*
G01*
X194960000Y-49107918D01*
X196162082Y-50310000D01*
X194960000Y-51512082D01*
X193757918Y-50310000D01*
G37*
%TD*%
%TO.C,REF\u002A\u002A*%
G36*
X132092082Y-119490000D02*
G01*
X130890000Y-120692082D01*
X129687918Y-119490000D01*
X130890000Y-118287918D01*
X132092082Y-119490000D01*
G37*
G36*
G01*
X136879195Y-103926580D02*
X136879195Y-103926580D01*
G75*
G02*
X135677113Y-103926580I-601041J601041D01*
G01*
X135677113Y-103926580D01*
G75*
G02*
X135677113Y-102724498I601041J601041D01*
G01*
X135677113Y-102724498D01*
G75*
G02*
X136879195Y-102724498I601041J-601041D01*
G01*
X136879195Y-102724498D01*
G75*
G02*
X136879195Y-103926580I-601041J-601041D01*
G01*
G37*
G36*
G01*
X133287092Y-118294990D02*
X133287092Y-118294990D01*
G75*
G02*
X132085010Y-118294990I-601041J601041D01*
G01*
X132085010Y-118294990D01*
G75*
G02*
X132085010Y-117092908I601041J601041D01*
G01*
X132085010Y-117092908D01*
G75*
G02*
X133287092Y-117092908I601041J-601041D01*
G01*
X133287092Y-117092908D01*
G75*
G02*
X133287092Y-118294990I-601041J-601041D01*
G01*
G37*
G36*
G01*
X135083143Y-105722631D02*
X135083143Y-105722631D01*
G75*
G02*
X133881061Y-105722631I-601041J601041D01*
G01*
X133881061Y-105722631D01*
G75*
G02*
X133881061Y-104520549I601041J601041D01*
G01*
X133881061Y-104520549D01*
G75*
G02*
X135083143Y-104520549I601041J-601041D01*
G01*
X135083143Y-104520549D01*
G75*
G02*
X135083143Y-105722631I-601041J-601041D01*
G01*
G37*
G36*
G01*
X135083143Y-116498939D02*
X135083143Y-116498939D01*
G75*
G02*
X133881061Y-116498939I-601041J601041D01*
G01*
X133881061Y-116498939D01*
G75*
G02*
X133881061Y-115296857I601041J601041D01*
G01*
X133881061Y-115296857D01*
G75*
G02*
X135083143Y-115296857I601041J-601041D01*
G01*
X135083143Y-115296857D01*
G75*
G02*
X135083143Y-116498939I-601041J-601041D01*
G01*
G37*
G36*
G01*
X133287092Y-107518682D02*
X133287092Y-107518682D01*
G75*
G02*
X132085010Y-107518682I-601041J601041D01*
G01*
X132085010Y-107518682D01*
G75*
G02*
X132085010Y-106316600I601041J601041D01*
G01*
X132085010Y-106316600D01*
G75*
G02*
X133287092Y-106316600I601041J-601041D01*
G01*
X133287092Y-106316600D01*
G75*
G02*
X133287092Y-107518682I-601041J-601041D01*
G01*
G37*
G36*
G01*
X136879195Y-114702887D02*
X136879195Y-114702887D01*
G75*
G02*
X135677113Y-114702887I-601041J601041D01*
G01*
X135677113Y-114702887D01*
G75*
G02*
X135677113Y-113500805I601041J601041D01*
G01*
X135677113Y-113500805D01*
G75*
G02*
X136879195Y-113500805I601041J-601041D01*
G01*
X136879195Y-113500805D01*
G75*
G02*
X136879195Y-114702887I-601041J-601041D01*
G01*
G37*
G36*
G01*
X131491041Y-109314734D02*
X131491041Y-109314734D01*
G75*
G02*
X130288959Y-109314734I-601041J601041D01*
G01*
X130288959Y-109314734D01*
G75*
G02*
X130288959Y-108112652I601041J601041D01*
G01*
X130288959Y-108112652D01*
G75*
G02*
X131491041Y-108112652I601041J-601041D01*
G01*
X131491041Y-108112652D01*
G75*
G02*
X131491041Y-109314734I-601041J-601041D01*
G01*
G37*
G36*
G01*
X138675246Y-112906836D02*
X138675246Y-112906836D01*
G75*
G02*
X137473164Y-112906836I-601041J601041D01*
G01*
X137473164Y-112906836D01*
G75*
G02*
X137473164Y-111704754I601041J601041D01*
G01*
X137473164Y-111704754D01*
G75*
G02*
X138675246Y-111704754I601041J-601041D01*
G01*
X138675246Y-111704754D01*
G75*
G02*
X138675246Y-112906836I-601041J-601041D01*
G01*
G37*
G36*
G01*
X129694990Y-111110785D02*
X129694990Y-111110785D01*
G75*
G02*
X128492908Y-111110785I-601041J601041D01*
G01*
X128492908Y-111110785D01*
G75*
G02*
X128492908Y-109908703I601041J601041D01*
G01*
X128492908Y-109908703D01*
G75*
G02*
X129694990Y-109908703I601041J-601041D01*
G01*
X129694990Y-109908703D01*
G75*
G02*
X129694990Y-111110785I-601041J-601041D01*
G01*
G37*
G36*
G01*
X140471297Y-111110785D02*
X140471297Y-111110785D01*
G75*
G02*
X139269215Y-111110785I-601041J601041D01*
G01*
X139269215Y-111110785D01*
G75*
G02*
X139269215Y-109908703I601041J601041D01*
G01*
X139269215Y-109908703D01*
G75*
G02*
X140471297Y-109908703I601041J-601041D01*
G01*
X140471297Y-109908703D01*
G75*
G02*
X140471297Y-111110785I-601041J-601041D01*
G01*
G37*
G36*
G01*
X127898939Y-112906836D02*
X127898939Y-112906836D01*
G75*
G02*
X126696857Y-112906836I-601041J601041D01*
G01*
X126696857Y-112906836D01*
G75*
G02*
X126696857Y-111704754I601041J601041D01*
G01*
X126696857Y-111704754D01*
G75*
G02*
X127898939Y-111704754I601041J-601041D01*
G01*
X127898939Y-111704754D01*
G75*
G02*
X127898939Y-112906836I-601041J-601041D01*
G01*
G37*
G36*
G01*
X142267348Y-109314734D02*
X142267348Y-109314734D01*
G75*
G02*
X141065266Y-109314734I-601041J601041D01*
G01*
X141065266Y-109314734D01*
G75*
G02*
X141065266Y-108112652I601041J601041D01*
G01*
X141065266Y-108112652D01*
G75*
G02*
X142267348Y-108112652I601041J-601041D01*
G01*
X142267348Y-108112652D01*
G75*
G02*
X142267348Y-109314734I-601041J-601041D01*
G01*
G37*
G36*
G01*
X126102887Y-114702887D02*
X126102887Y-114702887D01*
G75*
G02*
X124900805Y-114702887I-601041J601041D01*
G01*
X124900805Y-114702887D01*
G75*
G02*
X124900805Y-113500805I601041J601041D01*
G01*
X124900805Y-113500805D01*
G75*
G02*
X126102887Y-113500805I601041J-601041D01*
G01*
X126102887Y-113500805D01*
G75*
G02*
X126102887Y-114702887I-601041J-601041D01*
G01*
G37*
%TD*%
%TO.C,REF\u002A\u002A*%
G36*
G01*
X155602887Y-88042887D02*
X155602887Y-88042887D01*
G75*
G02*
X154400805Y-88042887I-601041J601041D01*
G01*
X154400805Y-88042887D01*
G75*
G02*
X154400805Y-86840805I601041J601041D01*
G01*
X154400805Y-86840805D01*
G75*
G02*
X155602887Y-86840805I601041J-601041D01*
G01*
X155602887Y-86840805D01*
G75*
G02*
X155602887Y-88042887I-601041J-601041D01*
G01*
G37*
G36*
G01*
X171767348Y-82654734D02*
X171767348Y-82654734D01*
G75*
G02*
X170565266Y-82654734I-601041J601041D01*
G01*
X170565266Y-82654734D01*
G75*
G02*
X170565266Y-81452652I601041J601041D01*
G01*
X170565266Y-81452652D01*
G75*
G02*
X171767348Y-81452652I601041J-601041D01*
G01*
X171767348Y-81452652D01*
G75*
G02*
X171767348Y-82654734I-601041J-601041D01*
G01*
G37*
G36*
G01*
X157398939Y-86246836D02*
X157398939Y-86246836D01*
G75*
G02*
X156196857Y-86246836I-601041J601041D01*
G01*
X156196857Y-86246836D01*
G75*
G02*
X156196857Y-85044754I601041J601041D01*
G01*
X156196857Y-85044754D01*
G75*
G02*
X157398939Y-85044754I601041J-601041D01*
G01*
X157398939Y-85044754D01*
G75*
G02*
X157398939Y-86246836I-601041J-601041D01*
G01*
G37*
G36*
G01*
X169971297Y-84450785D02*
X169971297Y-84450785D01*
G75*
G02*
X168769215Y-84450785I-601041J601041D01*
G01*
X168769215Y-84450785D01*
G75*
G02*
X168769215Y-83248703I601041J601041D01*
G01*
X168769215Y-83248703D01*
G75*
G02*
X169971297Y-83248703I601041J-601041D01*
G01*
X169971297Y-83248703D01*
G75*
G02*
X169971297Y-84450785I-601041J-601041D01*
G01*
G37*
G36*
G01*
X159194990Y-84450785D02*
X159194990Y-84450785D01*
G75*
G02*
X157992908Y-84450785I-601041J601041D01*
G01*
X157992908Y-84450785D01*
G75*
G02*
X157992908Y-83248703I601041J601041D01*
G01*
X157992908Y-83248703D01*
G75*
G02*
X159194990Y-83248703I601041J-601041D01*
G01*
X159194990Y-83248703D01*
G75*
G02*
X159194990Y-84450785I-601041J-601041D01*
G01*
G37*
G36*
G01*
X168175246Y-86246836D02*
X168175246Y-86246836D01*
G75*
G02*
X166973164Y-86246836I-601041J601041D01*
G01*
X166973164Y-86246836D01*
G75*
G02*
X166973164Y-85044754I601041J601041D01*
G01*
X166973164Y-85044754D01*
G75*
G02*
X168175246Y-85044754I601041J-601041D01*
G01*
X168175246Y-85044754D01*
G75*
G02*
X168175246Y-86246836I-601041J-601041D01*
G01*
G37*
G36*
G01*
X160991041Y-82654734D02*
X160991041Y-82654734D01*
G75*
G02*
X159788959Y-82654734I-601041J601041D01*
G01*
X159788959Y-82654734D01*
G75*
G02*
X159788959Y-81452652I601041J601041D01*
G01*
X159788959Y-81452652D01*
G75*
G02*
X160991041Y-81452652I601041J-601041D01*
G01*
X160991041Y-81452652D01*
G75*
G02*
X160991041Y-82654734I-601041J-601041D01*
G01*
G37*
G36*
G01*
X166379195Y-88042887D02*
X166379195Y-88042887D01*
G75*
G02*
X165177113Y-88042887I-601041J601041D01*
G01*
X165177113Y-88042887D01*
G75*
G02*
X165177113Y-86840805I601041J601041D01*
G01*
X165177113Y-86840805D01*
G75*
G02*
X166379195Y-86840805I601041J-601041D01*
G01*
X166379195Y-86840805D01*
G75*
G02*
X166379195Y-88042887I-601041J-601041D01*
G01*
G37*
G36*
G01*
X162787092Y-80858682D02*
X162787092Y-80858682D01*
G75*
G02*
X161585010Y-80858682I-601041J601041D01*
G01*
X161585010Y-80858682D01*
G75*
G02*
X161585010Y-79656600I601041J601041D01*
G01*
X161585010Y-79656600D01*
G75*
G02*
X162787092Y-79656600I601041J-601041D01*
G01*
X162787092Y-79656600D01*
G75*
G02*
X162787092Y-80858682I-601041J-601041D01*
G01*
G37*
G36*
G01*
X164583143Y-89838939D02*
X164583143Y-89838939D01*
G75*
G02*
X163381061Y-89838939I-601041J601041D01*
G01*
X163381061Y-89838939D01*
G75*
G02*
X163381061Y-88636857I601041J601041D01*
G01*
X163381061Y-88636857D01*
G75*
G02*
X164583143Y-88636857I601041J-601041D01*
G01*
X164583143Y-88636857D01*
G75*
G02*
X164583143Y-89838939I-601041J-601041D01*
G01*
G37*
G36*
G01*
X164583143Y-79062631D02*
X164583143Y-79062631D01*
G75*
G02*
X163381061Y-79062631I-601041J601041D01*
G01*
X163381061Y-79062631D01*
G75*
G02*
X163381061Y-77860549I601041J601041D01*
G01*
X163381061Y-77860549D01*
G75*
G02*
X164583143Y-77860549I601041J-601041D01*
G01*
X164583143Y-77860549D01*
G75*
G02*
X164583143Y-79062631I-601041J-601041D01*
G01*
G37*
G36*
G01*
X162787092Y-91634990D02*
X162787092Y-91634990D01*
G75*
G02*
X161585010Y-91634990I-601041J601041D01*
G01*
X161585010Y-91634990D01*
G75*
G02*
X161585010Y-90432908I601041J601041D01*
G01*
X161585010Y-90432908D01*
G75*
G02*
X162787092Y-90432908I601041J-601041D01*
G01*
X162787092Y-90432908D01*
G75*
G02*
X162787092Y-91634990I-601041J-601041D01*
G01*
G37*
G36*
G01*
X166379195Y-77266580D02*
X166379195Y-77266580D01*
G75*
G02*
X165177113Y-77266580I-601041J601041D01*
G01*
X165177113Y-77266580D01*
G75*
G02*
X165177113Y-76064498I601041J601041D01*
G01*
X165177113Y-76064498D01*
G75*
G02*
X166379195Y-76064498I601041J-601041D01*
G01*
X166379195Y-76064498D01*
G75*
G02*
X166379195Y-77266580I-601041J-601041D01*
G01*
G37*
G36*
X161592082Y-92830000D02*
G01*
X160390000Y-94032082D01*
X159187918Y-92830000D01*
X160390000Y-91627918D01*
X161592082Y-92830000D01*
G37*
%TD*%
D19*
%TO.C,REF\u002A\u002A*%
X121570000Y-65180000D03*
D20*
X136810000Y-57560000D03*
X124110000Y-65180000D03*
X134270000Y-57560000D03*
X126650000Y-65180000D03*
X131730000Y-57560000D03*
X129190000Y-65180000D03*
X129190000Y-57560000D03*
X131730000Y-65180000D03*
X126650000Y-57560000D03*
X134270000Y-65180000D03*
X124110000Y-57560000D03*
X136810000Y-65180000D03*
X121570000Y-57560000D03*
%TD*%
%TO.C,REF\u002A\u002A*%
X204350000Y-112250000D03*
X189110000Y-104630000D03*
X201810000Y-112250000D03*
X191650000Y-104630000D03*
X199270000Y-112250000D03*
X194190000Y-104630000D03*
X196730000Y-112250000D03*
X196730000Y-104630000D03*
X194190000Y-112250000D03*
X199270000Y-104630000D03*
X191650000Y-112250000D03*
X201810000Y-104630000D03*
X189110000Y-112250000D03*
D19*
X204350000Y-104630000D03*
%TD*%
M02*
