M48
; DRILL file {KiCad (5.1.6)-1} date 10/30/20 22:14:28
; FORMAT={-:-/ absolute / inch / decimal}
; #@! TF.CreationDate,2020-10-30T22:14:28-05:00
; #@! TF.GenerationSoftware,Kicad,Pcbnew,(5.1.6)-1
; #@! TF.FileFunction,Plated,1,2,PTH
FMAT,2
INCH
T1C0.0157
T2C0.0276
T3C0.0315
T4C0.0394
T5C0.0469
%
G90
G05
T1
X5.878Y-3.6496
X5.9299Y-2.7551
X5.9307Y-2.4547
X5.9587Y-3.5827
X6.0354Y-3.5177
X6.0921Y-3.8626
X6.1075Y-4.5543
X6.1685Y-3.7972
X6.2169Y-4.15
X6.2213Y-4.2728
X6.2465Y-3.7303
X6.5752Y-2.6024
X6.6134Y-2.9425
X6.6602Y-2.4327
X6.6654Y-2.1319
X6.6894Y-2.8807
X6.7665Y-2.8169
X6.8252Y-3.1571
X6.8992Y-3.0949
X6.9024Y-3.9244
X6.9024Y-4.2232
X6.9783Y-3.0283
X7.3717Y-1.4591
X7.5866Y-1.2476
T2
X7.8559Y-1.2362
X4.9835Y-5.4673
X7.8567Y-1.3335
X6.2461Y-2.8102
X6.5811Y-3.872
X4.9839Y-5.363
X6.787Y-4.0902
X6.0402Y-2.5921
T3
X4.5382Y-2.1516
X4.6211Y-2.0957
X4.704Y-2.0397
X7.3701Y-2.9768
X7.6482Y-2.8644
X5.0055Y-1.7524
X5.0055Y-2.0524
X7.9428Y-2.5481
X7.948Y-2.848
X4.8417Y-3.3268
X4.9417Y-3.3268
X5.0417Y-3.3268
X8.002Y-1.6497
X8.2142Y-1.8618
X4.941Y-4.4922
X5.0117Y-4.4215
X5.0824Y-4.3508
X5.1531Y-4.2801
X5.1531Y-4.7043
X5.2239Y-4.2094
X5.2239Y-4.6336
X5.2946Y-4.1386
X5.2946Y-4.5629
X5.3653Y-4.0679
X5.3653Y-4.4922
X5.436Y-4.4215
X5.5067Y-4.3508
X5.5774Y-4.2801
X6.9197Y-1.6185
X6.9769Y-1.324
X5.6138Y-2.3744
X5.8189Y-2.5868
X7.833Y-2.6174
X7.8382Y-2.9173
X6.4205Y-2.5681
X6.5358Y-2.2963
X8.3088Y-3.8334
X8.407Y-3.8144
X8.5051Y-3.7953
X4.426Y-3.9961
X4.426Y-4.2961
X8.3843Y-3.074
X8.5964Y-2.8619
X6.1412Y-5.0918
X6.4173Y-5.2091
X8.2618Y-4.9807
X8.3742Y-4.7026
X5.7783Y-2.4181
X5.9867Y-2.2023
X7.0012Y-5.1402
X7.1184Y-4.864
X6.3664Y-1.6166
X6.6425Y-1.7339
X8.0067Y-2.4858
X8.2151Y-2.27
X4.8459Y-1.7593
X4.9083Y-2.0528
X5.1664Y-1.6861
X5.2287Y-1.9795
X4.3228Y-3.5665
X4.5312Y-3.3507
X4.3209Y-2.8898
X4.419Y-2.8707
X4.5172Y-2.8516
X8.1067Y-3.539
X8.2049Y-3.5199
X8.303Y-3.5008
X8.3906Y-2.0406
X8.5989Y-1.8247
X7.7923Y-3.1333
X7.8843Y-3.0942
X7.9764Y-3.0551
X7.6764Y-3.2831
X7.7336Y-2.9886
X6.8827Y-2.1669
X6.9244Y-1.8698
X6.0171Y-2.4439
X6.0546Y-2.3512
X6.092Y-2.2585
X6.1295Y-2.1658
X6.167Y-2.073
X6.2044Y-1.9803
X6.2419Y-1.8876
X6.2953Y-2.5563
X6.3327Y-2.4636
X6.3702Y-2.3709
X6.4077Y-2.2781
X6.4451Y-2.1854
X6.4826Y-2.0927
X6.52Y-2.0
X6.3059Y-3.8646
X6.5821Y-3.9818
X5.8331Y-1.9921
X5.9503Y-1.716
X5.9346Y-2.1307
X6.05Y-1.8589
X7.4846Y-2.0236
X7.693Y-1.8078
X7.9587Y-3.2894
X8.1708Y-3.0772
X4.4354Y-3.074
X4.687Y-2.9106
X6.7448Y-1.9619
X6.7909Y-2.2535
X6.177Y-4.9505
X6.4531Y-5.0677
X7.9268Y-3.5091
X7.9891Y-3.8025
X4.626Y-3.6858
X4.7432Y-3.962
X7.0929Y-4.028
X7.298Y-4.2404
X4.4185Y-2.3398
X4.4185Y-2.6398
X7.1583Y-4.7654
X7.2755Y-4.4892
X5.2102Y-3.6453
X5.2623Y-3.3498
X4.6496Y-3.6075
X4.886Y-3.4228
X4.8484Y-3.626
X4.9418Y-3.5901
X5.0351Y-3.5543
X7.3728Y-5.0799
X7.3728Y-5.1799
X7.3728Y-5.2799
X7.2516Y-3.4374
X7.3223Y-3.5081
X7.393Y-3.5788
X6.8004Y-3.3142
X7.0938Y-3.2518
X7.2513Y-2.405
X7.322Y-2.3343
X7.3927Y-2.2636
X7.4635Y-2.1928
X7.4635Y-2.6171
X7.5342Y-2.1221
X7.5342Y-2.5464
X7.6049Y-2.0514
X7.6049Y-2.4757
X7.6756Y-1.9807
X7.6756Y-2.405
X7.7463Y-2.3343
X7.817Y-2.2636
X7.8877Y-2.1928
X8.0697Y-2.2213
X8.1088Y-2.1292
X8.1478Y-2.0372
X7.5555Y-3.3378
X7.6128Y-3.0433
X6.9979Y-2.5959
X7.1102Y-2.874
X8.1795Y-1.6267
X8.2634Y-1.5723
X8.3429Y-1.8783
X8.3473Y-1.5178
X8.4268Y-1.8239
X8.4311Y-1.4634
X8.5106Y-1.7694
X8.5945Y-1.715
X7.0594Y-1.5807
X7.167Y-1.3006
X7.4707Y-4.8941
X7.528Y-5.1886
X4.8423Y-4.3981
X4.9381Y-4.2989
X7.9253Y-1.7249
X8.1374Y-1.937
X6.2953Y-4.3895
X6.4059Y-4.1157
X4.2892Y-2.1538
X4.5673Y-2.2661
X4.8294Y-2.8837
X4.8917Y-3.1772
X6.8732Y-4.9709
X6.9904Y-4.6947
X7.512Y-2.7408
X7.6397Y-2.6892
X5.7941Y-5.3866
X5.8565Y-5.0932
X8.1383Y-2.5538
X8.2555Y-2.8299
X4.5669Y-3.8551
X4.6841Y-4.1313
X7.4626Y-3.6697
X7.7514Y-3.6083
X5.0413Y-3.1752
X5.3348Y-3.2376
X6.4311Y-1.7553
X6.6362Y-1.9677
X5.089Y-3.6957
X5.1411Y-3.4002
X5.2896Y-1.4999
X5.352Y-1.7933
X5.453Y-1.6043
X5.4547Y-1.5043
X5.4565Y-1.4043
X4.5673Y-2.5331
X4.6048Y-2.4404
X4.6422Y-2.3476
X4.5245Y-3.1826
X4.6227Y-3.1636
X4.7209Y-3.1445
X6.7224Y-5.2445
X6.8138Y-5.2852
X6.9052Y-5.3258
X7.79Y-5.3049
X7.8091Y-5.2067
X7.8281Y-5.1085
X8.4948Y-2.3209
X8.5Y-2.6209
X7.0953Y-3.6437
X7.1953Y-3.6437
X7.2953Y-3.6437
X7.1379Y-2.4772
X7.35Y-2.6894
X6.9886Y-4.5122
X7.2626Y-4.3902
X7.2106Y-3.3429
X7.2679Y-3.0484
X6.1024Y-3.4426
X6.1731Y-3.3719
X6.2439Y-3.3012
X6.3146Y-3.2305
X6.3146Y-3.6547
X6.3853Y-3.1597
X6.3853Y-3.584
X6.456Y-3.089
X6.456Y-3.5133
X6.5267Y-3.0183
X6.5267Y-3.4426
X6.5974Y-3.3719
X6.6681Y-3.3012
X6.7388Y-3.2305
X4.606Y-4.8221
X4.8181Y-5.0343
X7.4394Y-5.5043
X7.7394Y-5.5043
X5.4709Y-3.9981
X5.6831Y-4.2102
X6.9823Y-5.4606
X7.0995Y-5.1845
X7.8821Y-2.3894
X7.9778Y-2.2903
X5.6217Y-5.3878
X5.7389Y-5.1116
X7.4168Y-3.784
X7.7102Y-3.7217
X5.4699Y-2.6231
X5.5323Y-2.9165
X6.8339Y-4.4783
X7.046Y-4.2662
X5.8106Y-4.7559
X5.8983Y-4.469
X4.9106Y-2.7213
X5.2059Y-2.7213
X5.9748Y-4.8528
X5.9748Y-5.1528
X7.5291Y-1.5071
X7.6942Y-1.2623
X5.5787Y-1.1409
X5.621Y-1.2316
X5.6633Y-1.3222
X7.5912Y-4.7079
X7.6484Y-5.0024
X5.3189Y-2.0627
X5.4116Y-2.0253
X5.5043Y-1.9878
X4.503Y-2.7296
X4.5957Y-2.6921
X4.6884Y-2.6547
X7.7807Y-3.365
X7.8807Y-3.365
X7.9807Y-3.365
X5.9214Y-1.3596
X6.0135Y-1.3987
X6.1055Y-1.4378
X4.6814Y-4.6441
X4.722Y-4.5528
X4.7627Y-4.4614
X8.1248Y-4.6491
X8.2067Y-4.5917
X8.2886Y-4.5344
X6.7723Y-1.5044
X6.7776Y-1.8043
X4.2354Y-4.9689
X4.3193Y-4.9144
X4.3988Y-5.2205
X4.4031Y-4.86
X4.4827Y-5.166
X4.487Y-4.8055
X4.5665Y-5.1116
X4.6504Y-5.0571
X7.8169Y-4.6283
X7.8169Y-4.9283
X8.4984Y-2.2189
X8.6108Y-1.9407
X4.7862Y-2.2661
X4.7862Y-2.5661
X4.8862Y-2.2661
X4.8862Y-2.5661
X4.9862Y-2.2661
X4.9862Y-2.5661
X5.0862Y-2.2661
X5.0862Y-2.5661
X5.1862Y-2.2661
X5.1862Y-2.5661
X5.2862Y-2.2661
X5.2862Y-2.5661
X5.3862Y-2.2661
X5.3862Y-2.5661
X6.8232Y-3.4248
X7.1167Y-3.3624
X6.3071Y-4.687
X6.3446Y-4.5943
X6.382Y-4.5016
X6.4195Y-4.4089
X6.457Y-4.3161
X6.4944Y-4.2234
X6.5319Y-4.1307
X6.5853Y-4.7994
X6.6227Y-4.7067
X6.6602Y-4.614
X6.6977Y-4.5212
X6.7351Y-4.4285
X6.7726Y-4.3358
X6.81Y-4.2431
X4.8162Y-4.6489
X5.0283Y-4.861
X4.3786Y-5.472
X4.5437Y-5.2272
X5.5398Y-2.1992
X5.657Y-1.9231
X8.2862Y-3.3323
X8.4984Y-3.1202
X7.3217Y-4.689
X7.4162Y-4.6564
X7.5108Y-4.6239
X7.2055Y-2.2768
X7.3733Y-2.0281
X6.7772Y-4.8281
X6.8878Y-4.5543
X5.1785Y-3.9998
X5.3062Y-3.9482
X5.9522Y-5.2522
X6.2476Y-5.3043
X7.9105Y-4.6311
X7.9677Y-4.9256
X5.4516Y-4.661
X5.615Y-4.4094
X5.5295Y-2.4496
X5.7346Y-2.662
X5.1713Y-3.826
X5.4494Y-3.7136
X5.4274Y-3.1083
X5.4993Y-3.1778
X5.5713Y-3.2472
X8.374Y-2.9244
X8.5861Y-2.7123
X5.5339Y-3.0382
X5.6339Y-3.0382
X5.7339Y-3.0382
X4.9866Y-3.7665
X4.9866Y-4.0665
X5.5594Y-3.6378
X5.6115Y-3.3424
X4.9982Y-1.5769
X5.0173Y-1.4787
X5.0364Y-1.3806
X8.1746Y-4.3699
X8.2137Y-4.2779
X8.2528Y-4.1858
X5.7156Y-3.8112
X5.828Y-4.0894
X8.3833Y-2.1638
X8.3886Y-2.4638
X6.1823Y-3.9154
X6.4584Y-4.0326
X6.8347Y-2.7387
X7.0469Y-2.9508
X7.1366Y-1.7563
X7.2441Y-1.4762
X5.9898Y-4.4894
X6.0662Y-4.7746
X4.682Y-4.7505
X4.8941Y-4.9626
X8.1319Y-3.7772
X8.3863Y-3.6182
X6.3652Y-2.6493
X6.6413Y-2.7665
X5.7146Y-1.4969
X5.8318Y-1.2207
X7.0118Y-4.0996
X7.2169Y-4.312
X5.1252Y-4.8823
X5.3336Y-4.6665
X8.3756Y-4.4843
X8.4277Y-4.1888
X4.6075Y-4.4157
X4.8159Y-4.1999
X7.2853Y-3.7723
X7.3476Y-4.0657
X5.0839Y-1.1799
X5.3839Y-1.1799
X6.1945Y-4.7177
X6.3996Y-4.9301
X6.405Y-1.4808
X6.6811Y-1.598
X5.1134Y-2.9587
X5.4088Y-2.9066
X5.7252Y-3.4193
X6.0206Y-3.3672
X5.4146Y-3.8732
X5.5146Y-3.8732
X5.6146Y-3.8732
X7.1685Y-5.3523
X7.2043Y-5.4456
X7.2402Y-5.539
X8.1466Y-4.0596
X8.2387Y-4.0206
X8.3307Y-3.9815
X4.465Y-2.0126
X4.5822Y-1.7364
X7.2106Y-2.8138
X7.3106Y-2.8138
X7.4106Y-2.8138
X5.6992Y-1.8232
X5.8164Y-1.5471
X5.561Y-2.2854
X5.835Y-2.1634
X7.7953Y-1.8241
X8.0075Y-2.0362
X7.4453Y-4.1193
X7.4453Y-4.4193
X7.5453Y-4.1193
X7.5453Y-4.4193
X7.6453Y-4.1193
X7.6453Y-4.4193
X7.7453Y-4.1193
X7.7453Y-4.4193
X7.8453Y-4.1193
X7.8453Y-4.4193
X7.9453Y-4.1193
X7.9453Y-4.4193
X8.0453Y-4.1193
X8.0453Y-4.4193
X4.2102Y-4.7177
X4.3275Y-4.4416
X7.6217Y-3.9642
X7.9169Y-3.9642
X5.7757Y-3.7343
X5.9878Y-3.9465
X8.029Y-4.6559
X8.0862Y-4.9504
X4.3102Y-4.0346
X4.3102Y-4.3346
X5.0748Y-3.0772
X5.3636Y-3.0158
X4.2228Y-3.8295
X4.4312Y-3.6137
X8.0847Y-2.727
X8.202Y-3.0031
X6.2416Y-2.7001
X6.5177Y-2.8173
X4.2374Y-3.9791
X4.4458Y-3.7633
X8.2933Y-1.4579
X8.4584Y-1.2131
X4.2213Y-4.8429
X4.4334Y-4.6308
X7.4843Y-3.452
X7.7777Y-3.5143
X4.7301Y-1.7353
X4.7925Y-2.0287
X4.8736Y-3.8409
X4.8736Y-4.1409
X5.7059Y-3.3047
X6.0013Y-3.2526
T4
X4.3071Y-3.3079
X8.0884Y-1.4045
X8.2276Y-1.2654
X7.5161Y-1.6713
X4.6984Y-1.3193
X5.3839Y-3.5488
X5.3055Y-5.0146
X4.6382Y-5.4083
X4.7822Y-5.274
X7.0157Y-2.0197
X7.0311Y-1.9224
X7.0465Y-1.8252
X5.6559Y-4.9941
X5.6959Y-4.9042
X5.736Y-4.8143
X7.435Y-3.1413
X5.2373Y-5.3903
X5.3142Y-5.2091
X8.1232Y-5.3693
X8.5142Y-3.3811
T5
X4.3217Y-1.8606
X4.3217Y-1.9606
T0
M30
