%TF.GenerationSoftware,KiCad,Pcbnew,(5.1.6)-1*%
%TF.CreationDate,2020-10-31T12:28:38-05:00*%
%TF.ProjectId,Old Mr Grassi,4f6c6420-4d72-4204-9772-617373692e6b,rev?*%
%TF.SameCoordinates,Original*%
%TF.FileFunction,Copper,L2,Bot*%
%TF.FilePolarity,Positive*%
%FSLAX46Y46*%
G04 Gerber Fmt 4.6, Leading zero omitted, Abs format (unit mm)*
G04 Created by KiCad (PCBNEW (5.1.6)-1) date 2020-10-31 12:28:38*
%MOMM*%
%LPD*%
G01*
G04 APERTURE LIST*
%TA.AperFunction,ComponentPad*%
%ADD10C,5.500000*%
%TD*%
%TA.AperFunction,ComponentPad*%
%ADD11C,1.500000*%
%TD*%
%TA.AperFunction,ComponentPad*%
%ADD12C,0.100000*%
%TD*%
%TA.AperFunction,ComponentPad*%
%ADD13C,2.000000*%
%TD*%
%TA.AperFunction,ComponentPad*%
%ADD14C,1.600000*%
%TD*%
%TA.AperFunction,ComponentPad*%
%ADD15C,2.130000*%
%TD*%
%TA.AperFunction,ComponentPad*%
%ADD16R,1.930000X1.830000*%
%TD*%
%TA.AperFunction,ComponentPad*%
%ADD17O,1.600000X1.600000*%
%TD*%
%TA.AperFunction,Conductor*%
%ADD18C,0.635000*%
%TD*%
G04 APERTURE END LIST*
D10*
%TO.P,REF\u002A\u002A,*%
%TO.N,*%
X208150000Y-78840000D03*
%TD*%
%TO.P,REF\u002A\u002A,*%
%TO.N,*%
X182880000Y-130400000D03*
%TD*%
%TO.P,\u002A,*%
%TO.N,*%
X251800000Y-98750000D03*
%TD*%
%TO.P,REF\u002A\u002A,*%
%TO.N,*%
X230050000Y-129400000D03*
%TD*%
%TO.P,REF\u002A\u002A,*%
%TO.N,*%
X245480000Y-88470000D03*
%TD*%
%TO.P,REF\u002A\u002A,*%
%TO.N,*%
X216710000Y-86700000D03*
%TD*%
%TO.P,REF\u002A\u002A,*%
%TO.N,*%
X170080000Y-90400000D03*
%TD*%
D11*
%TO.P,REF\u002A\u002A,*%
%TO.N,*%
X260470000Y-75720000D03*
%TD*%
%TO.P,REF\u002A\u002A,*%
%TO.N,*%
X263420000Y-73330000D03*
%TD*%
%TO.P,REF\u002A\u002A,*%
%TO.N,*%
X162910000Y-68740000D03*
%TD*%
D10*
%TO.P,REF\u002A\u002A,*%
%TO.N,*%
X205170000Y-155670000D03*
%TD*%
%TO.P,REF\u002A\u002A,*%
%TO.N,*%
X179740000Y-81740000D03*
%TD*%
%TA.AperFunction,ComponentPad*%
D12*
%TO.P,REF\u002A\u002A,1*%
%TO.N,N/C*%
G36*
X258490465Y-66610543D02*
G01*
X260049457Y-66970465D01*
X259689535Y-68529457D01*
X258130543Y-68169535D01*
X258490465Y-66610543D01*
G37*
%TD.AperFunction*%
%TO.P,REF\u002A\u002A,5*%
%TA.AperFunction,ComponentPad*%
G36*
G01*
X250131134Y-72501077D02*
X250131134Y-72501077D01*
G75*
G02*
X250730669Y-73460534I-179961J-779496D01*
G01*
X250730669Y-73460534D01*
G75*
G02*
X249771212Y-74060069I-779496J179961D01*
G01*
X249771212Y-74060069D01*
G75*
G02*
X249171677Y-73100612I179961J779496D01*
G01*
X249171677Y-73100612D01*
G75*
G02*
X250131134Y-72501077I779496J-179961D01*
G01*
G37*
%TD.AperFunction*%
%TO.P,REF\u002A\u002A,2*%
%TA.AperFunction,ComponentPad*%
G36*
G01*
X256795061Y-66219128D02*
X256795061Y-66219128D01*
G75*
G02*
X257394596Y-67178585I-179961J-779496D01*
G01*
X257394596Y-67178585D01*
G75*
G02*
X256435139Y-67778120I-779496J179961D01*
G01*
X256435139Y-67778120D01*
G75*
G02*
X255835604Y-66818663I179961J779496D01*
G01*
X255835604Y-66818663D01*
G75*
G02*
X256795061Y-66219128I779496J-179961D01*
G01*
G37*
%TD.AperFunction*%
%TO.P,REF\u002A\u002A,6*%
%TA.AperFunction,ComponentPad*%
G36*
G01*
X252606034Y-73072453D02*
X252606034Y-73072453D01*
G75*
G02*
X253205569Y-74031910I-179961J-779496D01*
G01*
X253205569Y-74031910D01*
G75*
G02*
X252246112Y-74631445I-779496J179961D01*
G01*
X252246112Y-74631445D01*
G75*
G02*
X251646577Y-73671988I179961J779496D01*
G01*
X251646577Y-73671988D01*
G75*
G02*
X252606034Y-73072453I779496J-179961D01*
G01*
G37*
%TD.AperFunction*%
%TO.P,REF\u002A\u002A,3*%
%TA.AperFunction,ComponentPad*%
G36*
G01*
X254320161Y-65647753D02*
X254320161Y-65647753D01*
G75*
G02*
X254919696Y-66607210I-179961J-779496D01*
G01*
X254919696Y-66607210D01*
G75*
G02*
X253960239Y-67206745I-779496J179961D01*
G01*
X253960239Y-67206745D01*
G75*
G02*
X253360704Y-66247288I179961J779496D01*
G01*
X253360704Y-66247288D01*
G75*
G02*
X254320161Y-65647753I779496J-179961D01*
G01*
G37*
%TD.AperFunction*%
%TO.P,REF\u002A\u002A,7*%
%TA.AperFunction,ComponentPad*%
G36*
G01*
X255080934Y-73643828D02*
X255080934Y-73643828D01*
G75*
G02*
X255680469Y-74603285I-179961J-779496D01*
G01*
X255680469Y-74603285D01*
G75*
G02*
X254721012Y-75202820I-779496J179961D01*
G01*
X254721012Y-75202820D01*
G75*
G02*
X254121477Y-74243363I179961J779496D01*
G01*
X254121477Y-74243363D01*
G75*
G02*
X255080934Y-73643828I779496J-179961D01*
G01*
G37*
%TD.AperFunction*%
%TO.P,REF\u002A\u002A,4*%
%TA.AperFunction,ComponentPad*%
G36*
G01*
X251845261Y-65076377D02*
X251845261Y-65076377D01*
G75*
G02*
X252444796Y-66035834I-179961J-779496D01*
G01*
X252444796Y-66035834D01*
G75*
G02*
X251485339Y-66635369I-779496J179961D01*
G01*
X251485339Y-66635369D01*
G75*
G02*
X250885804Y-65675912I179961J779496D01*
G01*
X250885804Y-65675912D01*
G75*
G02*
X251845261Y-65076377I779496J-179961D01*
G01*
G37*
%TD.AperFunction*%
%TO.P,REF\u002A\u002A,8*%
%TA.AperFunction,ComponentPad*%
G36*
G01*
X257555834Y-74215204D02*
X257555834Y-74215204D01*
G75*
G02*
X258155369Y-75174661I-179961J-779496D01*
G01*
X258155369Y-75174661D01*
G75*
G02*
X257195912Y-75774196I-779496J179961D01*
G01*
X257195912Y-75774196D01*
G75*
G02*
X256596377Y-74814739I179961J779496D01*
G01*
X256596377Y-74814739D01*
G75*
G02*
X257555834Y-74215204I779496J-179961D01*
G01*
G37*
%TD.AperFunction*%
%TD*%
D10*
%TO.P,REF\u002A\u002A,*%
%TO.N,*%
X184260000Y-119050000D03*
%TD*%
%TO.P,REF\u002A\u002A,*%
%TO.N,*%
X242540000Y-127300000D03*
%TD*%
%TO.P,REF\u002A\u002A,*%
%TO.N,*%
X196800000Y-147630000D03*
%TD*%
D11*
%TO.P,REF\u002A\u002A,*%
%TO.N,*%
X161360000Y-72160000D03*
%TD*%
%TA.AperFunction,ComponentPad*%
D12*
%TO.P,REF\u002A\u002A,1*%
%TO.N,N/C*%
G36*
X162453941Y-82010236D02*
G01*
X162869764Y-80053941D01*
X164826059Y-80469764D01*
X164410236Y-82426059D01*
X162453941Y-82010236D01*
G37*
%TD.AperFunction*%
%TD*%
%TO.P,REF\u002A\u002A,8*%
%TO.N,N/C*%
%TA.AperFunction,ComponentPad*%
G36*
G01*
X166008526Y-70292337D02*
X166008526Y-70292337D01*
G75*
G02*
X165229742Y-69471669I20942J799726D01*
G01*
X165229742Y-69471669D01*
G75*
G02*
X166050410Y-68692885I799726J-20942D01*
G01*
X166050410Y-68692885D01*
G75*
G02*
X166829194Y-69513553I-20942J-799726D01*
G01*
X166829194Y-69513553D01*
G75*
G02*
X166008526Y-70292337I-799726J20942D01*
G01*
G37*
%TD.AperFunction*%
%TO.P,REF\u002A\u002A,4*%
%TA.AperFunction,ComponentPad*%
G36*
G01*
X173426447Y-78109194D02*
X173426447Y-78109194D01*
G75*
G02*
X172647663Y-77288526I20942J799726D01*
G01*
X172647663Y-77288526D01*
G75*
G02*
X173468331Y-76509742I799726J-20942D01*
G01*
X173468331Y-76509742D01*
G75*
G02*
X174247115Y-77330410I-20942J-799726D01*
G01*
X174247115Y-77330410D01*
G75*
G02*
X173426447Y-78109194I-799726J20942D01*
G01*
G37*
%TD.AperFunction*%
%TO.P,REF\u002A\u002A,7*%
%TA.AperFunction,ComponentPad*%
G36*
G01*
X168547656Y-70358827D02*
X168547656Y-70358827D01*
G75*
G02*
X167768872Y-69538159I20942J799726D01*
G01*
X167768872Y-69538159D01*
G75*
G02*
X168589540Y-68759375I799726J-20942D01*
G01*
X168589540Y-68759375D01*
G75*
G02*
X169368324Y-69580043I-20942J-799726D01*
G01*
X169368324Y-69580043D01*
G75*
G02*
X168547656Y-70358827I-799726J20942D01*
G01*
G37*
%TD.AperFunction*%
%TO.P,REF\u002A\u002A,3*%
%TA.AperFunction,ComponentPad*%
G36*
G01*
X170887317Y-78042705D02*
X170887317Y-78042705D01*
G75*
G02*
X170108533Y-77222037I20942J799726D01*
G01*
X170108533Y-77222037D01*
G75*
G02*
X170929201Y-76443253I799726J-20942D01*
G01*
X170929201Y-76443253D01*
G75*
G02*
X171707985Y-77263921I-20942J-799726D01*
G01*
X171707985Y-77263921D01*
G75*
G02*
X170887317Y-78042705I-799726J20942D01*
G01*
G37*
%TD.AperFunction*%
%TO.P,REF\u002A\u002A,6*%
%TA.AperFunction,ComponentPad*%
G36*
G01*
X171086786Y-70425316D02*
X171086786Y-70425316D01*
G75*
G02*
X170308002Y-69604648I20942J799726D01*
G01*
X170308002Y-69604648D01*
G75*
G02*
X171128670Y-68825864I799726J-20942D01*
G01*
X171128670Y-68825864D01*
G75*
G02*
X171907454Y-69646532I-20942J-799726D01*
G01*
X171907454Y-69646532D01*
G75*
G02*
X171086786Y-70425316I-799726J20942D01*
G01*
G37*
%TD.AperFunction*%
%TO.P,REF\u002A\u002A,2*%
%TA.AperFunction,ComponentPad*%
G36*
G01*
X168348188Y-77976215D02*
X168348188Y-77976215D01*
G75*
G02*
X167569404Y-77155547I20942J799726D01*
G01*
X167569404Y-77155547D01*
G75*
G02*
X168390072Y-76376763I799726J-20942D01*
G01*
X168390072Y-76376763D01*
G75*
G02*
X169168856Y-77197431I-20942J-799726D01*
G01*
X169168856Y-77197431D01*
G75*
G02*
X168348188Y-77976215I-799726J20942D01*
G01*
G37*
%TD.AperFunction*%
%TO.P,REF\u002A\u002A,5*%
%TA.AperFunction,ComponentPad*%
G36*
G01*
X173625915Y-70491806D02*
X173625915Y-70491806D01*
G75*
G02*
X172847131Y-69671138I20942J799726D01*
G01*
X172847131Y-69671138D01*
G75*
G02*
X173667799Y-68892354I799726J-20942D01*
G01*
X173667799Y-68892354D01*
G75*
G02*
X174446583Y-69713022I-20942J-799726D01*
G01*
X174446583Y-69713022D01*
G75*
G02*
X173625915Y-70491806I-799726J20942D01*
G01*
G37*
%TD.AperFunction*%
%TA.AperFunction,ComponentPad*%
%TO.P,REF\u002A\u002A,1*%
G36*
X166608784Y-77930667D02*
G01*
X165009333Y-77888784D01*
X165051216Y-76289333D01*
X166650667Y-76331216D01*
X166608784Y-77930667D01*
G37*
%TD.AperFunction*%
%TD*%
D13*
%TO.P,REF\u002A\u002A,1*%
%TO.N,N/C*%
X230500000Y-122010000D03*
%TD*%
%TO.P,REF\u002A\u002A,1*%
%TO.N,N/C*%
X180750000Y-76990000D03*
%TD*%
D11*
%TO.P,REF\u002A\u002A,2*%
%TO.N,N/C*%
X247143136Y-120846843D03*
%TO.P,REF\u002A\u002A,3*%
X248296272Y-118583687D03*
%TA.AperFunction,ComponentPad*%
D12*
%TO.P,REF\u002A\u002A,1*%
G36*
X246998748Y-122782238D02*
G01*
X246317762Y-124118748D01*
X244981252Y-123437762D01*
X245662238Y-122101252D01*
X246998748Y-122782238D01*
G37*
%TD.AperFunction*%
%TD*%
D13*
%TO.P,REF\u002A\u002A,1*%
%TO.N,N/C*%
X188140000Y-125030000D03*
%TD*%
D14*
%TO.P,REF\u002A\u002A,1*%
%TO.N,N/C*%
X231570000Y-106700000D03*
%TO.P,REF\u002A\u002A,2*%
%TA.AperFunction,ComponentPad*%
G36*
G01*
X236638248Y-111263471D02*
X236638248Y-111263471D01*
G75*
G02*
X237768068Y-111204259I594516J-535304D01*
G01*
X237768068Y-111204259D01*
G75*
G02*
X237827280Y-112334079I-535304J-594516D01*
G01*
X237827280Y-112334079D01*
G75*
G02*
X236697460Y-112393291I-594516J535304D01*
G01*
X236697460Y-112393291D01*
G75*
G02*
X236638248Y-111263471I535304J594516D01*
G01*
G37*
%TD.AperFunction*%
%TD*%
D13*
%TO.P,REF\u002A\u002A,1*%
%TO.N,N/C*%
X249360000Y-85550000D03*
%TD*%
%TO.P,REF\u002A\u002A,1*%
%TO.N,N/C*%
X191260000Y-124210000D03*
%TD*%
%TO.P,REF\u002A\u002A,1*%
%TO.N,N/C*%
X210980000Y-92500000D03*
%TD*%
%TO.P,REF\u002A\u002A,1*%
%TO.N,N/C*%
X195400000Y-154170000D03*
%TD*%
%TO.P,REF\u002A\u002A,1*%
%TO.N,N/C*%
X200440000Y-156550000D03*
%TD*%
%TO.P,REF\u002A\u002A,1*%
%TO.N,N/C*%
X254720000Y-102720000D03*
%TD*%
D14*
%TO.P,REF\u002A\u002A,1*%
%TO.N,N/C*%
X178320000Y-89620000D03*
%TO.P,REF\u002A\u002A,2*%
%TA.AperFunction,ComponentPad*%
G36*
G01*
X173890764Y-84434032D02*
X173890764Y-84434032D01*
G75*
G02*
X172762881Y-84345265I-519558J608325D01*
G01*
X172762881Y-84345265D01*
G75*
G02*
X172851648Y-83217382I608325J519558D01*
G01*
X172851648Y-83217382D01*
G75*
G02*
X173979531Y-83306149I519558J-608325D01*
G01*
X173979531Y-83306149D01*
G75*
G02*
X173890764Y-84434032I-608325J-519558D01*
G01*
G37*
%TD.AperFunction*%
%TD*%
%TO.P,REF\u002A\u002A,2*%
%TO.N,N/C*%
%TA.AperFunction,ComponentPad*%
G36*
G01*
X245154032Y-62579236D02*
X245154032Y-62579236D01*
G75*
G02*
X245065265Y-63707119I-608325J-519558D01*
G01*
X245065265Y-63707119D01*
G75*
G02*
X243937382Y-63618352I-519558J608325D01*
G01*
X243937382Y-63618352D01*
G75*
G02*
X244026149Y-62490469I608325J519558D01*
G01*
X244026149Y-62490469D01*
G75*
G02*
X245154032Y-62579236I519558J-608325D01*
G01*
G37*
%TD.AperFunction*%
%TO.P,REF\u002A\u002A,1*%
X250340000Y-58150000D03*
%TD*%
D13*
%TO.P,REF\u002A\u002A,1*%
%TO.N,N/C*%
X246770000Y-129540000D03*
%TD*%
%TO.P,REF\u002A\u002A,1*%
%TO.N,N/C*%
X208920000Y-85870000D03*
%TD*%
%TO.P,REF\u002A\u002A,1*%
%TO.N,N/C*%
X165440000Y-87480000D03*
%TD*%
%TO.P,REF\u002A\u002A,2*%
%TO.N,N/C*%
%TA.AperFunction,ComponentPad*%
G36*
G01*
X228420202Y-89624368D02*
X228420202Y-89624368D01*
G75*
G02*
X229551529Y-89634241I560727J-570600D01*
G01*
X229551529Y-89634241D01*
G75*
G02*
X229541656Y-90765568I-570600J-560727D01*
G01*
X229541656Y-90765568D01*
G75*
G02*
X228410329Y-90755695I-560727J570600D01*
G01*
X228410329Y-90755695D01*
G75*
G02*
X228420202Y-89624368I570600J560727D01*
G01*
G37*
%TD.AperFunction*%
D14*
%TO.P,REF\u002A\u002A,1*%
X223640000Y-84760000D03*
%TD*%
%TO.P,REF\u002A\u002A,1*%
%TO.N,N/C*%
X221680000Y-87230000D03*
%TO.P,REF\u002A\u002A,2*%
%TA.AperFunction,ComponentPad*%
G36*
G01*
X226748248Y-91793471D02*
X226748248Y-91793471D01*
G75*
G02*
X227878068Y-91734259I594516J-535304D01*
G01*
X227878068Y-91734259D01*
G75*
G02*
X227937280Y-92864079I-535304J-594516D01*
G01*
X227937280Y-92864079D01*
G75*
G02*
X226807460Y-92923291I-594516J535304D01*
G01*
X226807460Y-92923291D01*
G75*
G02*
X226748248Y-91793471I535304J594516D01*
G01*
G37*
%TD.AperFunction*%
%TD*%
%TO.P,REF\u002A\u002A,2*%
%TO.N,N/C*%
%TA.AperFunction,ComponentPad*%
G36*
G01*
X224728248Y-94073471D02*
X224728248Y-94073471D01*
G75*
G02*
X225858068Y-94014259I594516J-535304D01*
G01*
X225858068Y-94014259D01*
G75*
G02*
X225917280Y-95144079I-535304J-594516D01*
G01*
X225917280Y-95144079D01*
G75*
G02*
X224787460Y-95203291I-594516J535304D01*
G01*
X224787460Y-95203291D01*
G75*
G02*
X224728248Y-94073471I535304J594516D01*
G01*
G37*
%TD.AperFunction*%
%TO.P,REF\u002A\u002A,1*%
X219660000Y-89510000D03*
%TD*%
%TO.P,REF\u002A\u002A,2*%
%TO.N,N/C*%
%TA.AperFunction,ComponentPad*%
G36*
G01*
X234353471Y-113848248D02*
X234353471Y-113848248D01*
G75*
G02*
X235483291Y-113907460I535304J-594516D01*
G01*
X235483291Y-113907460D01*
G75*
G02*
X235424079Y-115037280I-594516J-535304D01*
G01*
X235424079Y-115037280D01*
G75*
G02*
X234294259Y-114978068I-535304J594516D01*
G01*
X234294259Y-114978068D01*
G75*
G02*
X234353471Y-113848248I594516J535304D01*
G01*
G37*
%TD.AperFunction*%
%TO.P,REF\u002A\u002A,1*%
X229790000Y-108780000D03*
%TD*%
%TO.P,REF\u002A\u002A,1*%
%TO.N,N/C*%
X217400000Y-92410000D03*
%TO.P,REF\u002A\u002A,2*%
%TA.AperFunction,ComponentPad*%
G36*
G01*
X223054036Y-96223696D02*
X223054036Y-96223696D01*
G75*
G02*
X224164620Y-96007820I663230J-447354D01*
G01*
X224164620Y-96007820D01*
G75*
G02*
X224380496Y-97118404I-447354J-663230D01*
G01*
X224380496Y-97118404D01*
G75*
G02*
X223269912Y-97334280I-663230J447354D01*
G01*
X223269912Y-97334280D01*
G75*
G02*
X223054036Y-96223696I447354J663230D01*
G01*
G37*
%TD.AperFunction*%
%TD*%
%TO.P,REF\u002A\u002A,1*%
%TO.N,N/C*%
X235390000Y-102250000D03*
%TO.P,REF\u002A\u002A,2*%
%TA.AperFunction,ComponentPad*%
G36*
G01*
X240976617Y-106161791D02*
X240976617Y-106161791D01*
G75*
G02*
X242090800Y-105965330I655322J-458861D01*
G01*
X242090800Y-105965330D01*
G75*
G02*
X242287261Y-107079513I-458861J-655322D01*
G01*
X242287261Y-107079513D01*
G75*
G02*
X241173078Y-107275974I-655322J458861D01*
G01*
X241173078Y-107275974D01*
G75*
G02*
X240976617Y-106161791I458861J655322D01*
G01*
G37*
%TD.AperFunction*%
%TD*%
%TO.P,REF\u002A\u002A,1*%
%TO.N,N/C*%
X231530000Y-115550000D03*
%TO.P,REF\u002A\u002A,2*%
%TA.AperFunction,ComponentPad*%
G36*
G01*
X227425622Y-120996695D02*
X227425622Y-120996695D01*
G75*
G02*
X227583078Y-122117055I-481452J-638908D01*
G01*
X227583078Y-122117055D01*
G75*
G02*
X226462718Y-122274511I-638908J481452D01*
G01*
X226462718Y-122274511D01*
G75*
G02*
X226305262Y-121154151I481452J638908D01*
G01*
X226305262Y-121154151D01*
G75*
G02*
X227425622Y-120996695I638908J-481452D01*
G01*
G37*
%TD.AperFunction*%
%TD*%
%TO.P,REF\u002A\u002A,2*%
%TO.N,N/C*%
%TA.AperFunction,ComponentPad*%
G36*
G01*
X220643305Y-120415622D02*
X220643305Y-120415622D01*
G75*
G02*
X219522945Y-120573078I-638908J481452D01*
G01*
X219522945Y-120573078D01*
G75*
G02*
X219365489Y-119452718I481452J638908D01*
G01*
X219365489Y-119452718D01*
G75*
G02*
X220485849Y-119295262I638908J-481452D01*
G01*
X220485849Y-119295262D01*
G75*
G02*
X220643305Y-120415622I-481452J-638908D01*
G01*
G37*
%TD.AperFunction*%
%TO.P,REF\u002A\u002A,1*%
X226090000Y-124520000D03*
%TD*%
%TO.P,REF\u002A\u002A,2*%
%TO.N,N/C*%
%TA.AperFunction,ComponentPad*%
G36*
G01*
X184168682Y-113894697D02*
X184168682Y-113894697D01*
G75*
G02*
X184801337Y-114832646I-152647J-785302D01*
G01*
X184801337Y-114832646D01*
G75*
G02*
X183863388Y-115465301I-785302J152647D01*
G01*
X183863388Y-115465301D01*
G75*
G02*
X183230733Y-114527352I152647J785302D01*
G01*
X183230733Y-114527352D01*
G75*
G02*
X184168682Y-113894697I785302J-152647D01*
G01*
G37*
%TD.AperFunction*%
%TO.P,REF\u002A\u002A,1*%
X185470000Y-107200000D03*
%TD*%
%TO.P,REF\u002A\u002A,1*%
%TO.N,N/C*%
X188390000Y-107970000D03*
%TO.P,REF\u002A\u002A,2*%
%TA.AperFunction,ComponentPad*%
G36*
G01*
X187264375Y-114696468D02*
X187264375Y-114696468D01*
G75*
G02*
X187921365Y-115617534I-132038J-789028D01*
G01*
X187921365Y-115617534D01*
G75*
G02*
X187000299Y-116274524I-789028J132038D01*
G01*
X187000299Y-116274524D01*
G75*
G02*
X186343309Y-115353458I132038J789028D01*
G01*
X186343309Y-115353458D01*
G75*
G02*
X187264375Y-114696468I789028J-132038D01*
G01*
G37*
%TD.AperFunction*%
%TD*%
%TO.P,REF\u002A\u002A,2*%
%TO.N,N/C*%
%TA.AperFunction,ComponentPad*%
G36*
G01*
X190469811Y-115021654D02*
X190469811Y-115021654D01*
G75*
G02*
X191158546Y-115919231I-104421J-793156D01*
G01*
X191158546Y-115919231D01*
G75*
G02*
X190260969Y-116607966I-793156J104421D01*
G01*
X190260969Y-116607966D01*
G75*
G02*
X189572234Y-115710389I104421J793156D01*
G01*
X189572234Y-115710389D01*
G75*
G02*
X190469811Y-115021654I793156J-104421D01*
G01*
G37*
%TD.AperFunction*%
%TO.P,REF\u002A\u002A,1*%
X191360000Y-108260000D03*
%TD*%
%TO.P,REF\u002A\u002A,1*%
%TO.N,N/C*%
X190670000Y-87570000D03*
%TO.P,REF\u002A\u002A,2*%
%TA.AperFunction,ComponentPad*%
G36*
G01*
X190016332Y-94358602D02*
X190016332Y-94358602D01*
G75*
G02*
X190735972Y-95231596I-76677J-796317D01*
G01*
X190735972Y-95231596D01*
G75*
G02*
X189862978Y-95951236I-796317J76677D01*
G01*
X189862978Y-95951236D01*
G75*
G02*
X189143338Y-95078242I76677J796317D01*
G01*
X189143338Y-95078242D01*
G75*
G02*
X190016332Y-94358602I796317J-76677D01*
G01*
G37*
%TD.AperFunction*%
%TD*%
%TO.P,REF\u002A\u002A,2*%
%TO.N,N/C*%
%TA.AperFunction,ComponentPad*%
G36*
G01*
X243382268Y-104170395D02*
X243382268Y-104170395D01*
G75*
G02*
X244498122Y-103983665I651292J-464562D01*
G01*
X244498122Y-103983665D01*
G75*
G02*
X244684852Y-105099519I-464562J-651292D01*
G01*
X244684852Y-105099519D01*
G75*
G02*
X243568998Y-105286249I-651292J464562D01*
G01*
X243568998Y-105286249D01*
G75*
G02*
X243382268Y-104170395I464562J651292D01*
G01*
G37*
%TD.AperFunction*%
%TO.P,REF\u002A\u002A,1*%
X237830000Y-100210000D03*
%TD*%
%TO.P,REF\u002A\u002A,1*%
%TO.N,N/C*%
X197130000Y-88780000D03*
%TO.P,REF\u002A\u002A,2*%
%TA.AperFunction,ComponentPad*%
G36*
G01*
X195595834Y-95425204D02*
X195595834Y-95425204D01*
G75*
G02*
X196195369Y-96384661I-179961J-779496D01*
G01*
X196195369Y-96384661D01*
G75*
G02*
X195235912Y-96984196I-779496J179961D01*
G01*
X195235912Y-96984196D01*
G75*
G02*
X194636377Y-96024739I179961J779496D01*
G01*
X194636377Y-96024739D01*
G75*
G02*
X195595834Y-95425204I779496J-179961D01*
G01*
G37*
%TD.AperFunction*%
%TD*%
%TO.P,REF\u002A\u002A,2*%
%TO.N,N/C*%
%TA.AperFunction,ComponentPad*%
G36*
G01*
X192775720Y-94866389D02*
X192775720Y-94866389D01*
G75*
G02*
X193424647Y-95793154I-138919J-787846D01*
G01*
X193424647Y-95793154D01*
G75*
G02*
X192497882Y-96442081I-787846J138919D01*
G01*
X192497882Y-96442081D01*
G75*
G02*
X191848955Y-95515316I138919J787846D01*
G01*
X191848955Y-95515316D01*
G75*
G02*
X192775720Y-94866389I787846J-138919D01*
G01*
G37*
%TD.AperFunction*%
%TO.P,REF\u002A\u002A,1*%
X193960000Y-88150000D03*
%TD*%
%TO.P,REF\u002A\u002A,2*%
%TO.N,N/C*%
%TA.AperFunction,ComponentPad*%
G36*
G01*
X186736332Y-93228602D02*
X186736332Y-93228602D01*
G75*
G02*
X187455972Y-94101596I-76677J-796317D01*
G01*
X187455972Y-94101596D01*
G75*
G02*
X186582978Y-94821236I-796317J76677D01*
G01*
X186582978Y-94821236D01*
G75*
G02*
X185863338Y-93948242I76677J796317D01*
G01*
X185863338Y-93948242D01*
G75*
G02*
X186736332Y-93228602I796317J-76677D01*
G01*
G37*
%TD.AperFunction*%
%TO.P,REF\u002A\u002A,1*%
X187390000Y-86440000D03*
%TD*%
%TO.P,REF\u002A\u002A,2*%
%TO.N,N/C*%
%TA.AperFunction,ComponentPad*%
G36*
G01*
X238635968Y-108899236D02*
X238635968Y-108899236D01*
G75*
G02*
X239763851Y-108810469I608325J-519558D01*
G01*
X239763851Y-108810469D01*
G75*
G02*
X239852618Y-109938352I-519558J-608325D01*
G01*
X239852618Y-109938352D01*
G75*
G02*
X238724735Y-110027119I-608325J519558D01*
G01*
X238724735Y-110027119D01*
G75*
G02*
X238635968Y-108899236I519558J608325D01*
G01*
G37*
%TD.AperFunction*%
%TO.P,REF\u002A\u002A,1*%
X233450000Y-104470000D03*
%TD*%
%TO.P,REF\u002A\u002A,2*%
%TO.N,N/C*%
%TA.AperFunction,ComponentPad*%
G36*
G01*
X198500153Y-96115805D02*
X198500153Y-96115805D01*
G75*
G02*
X199048652Y-97105324I-220510J-769009D01*
G01*
X199048652Y-97105324D01*
G75*
G02*
X198059133Y-97653823I-769009J220510D01*
G01*
X198059133Y-97653823D01*
G75*
G02*
X197510634Y-96664304I220510J769009D01*
G01*
X197510634Y-96664304D01*
G75*
G02*
X198500153Y-96115805I769009J-220510D01*
G01*
G37*
%TD.AperFunction*%
%TO.P,REF\u002A\u002A,1*%
X200380000Y-89560000D03*
%TD*%
%TO.P,REF\u002A\u002A,1*%
%TO.N,N/C*%
X187290000Y-82240000D03*
%TO.P,REF\u002A\u002A,2*%
%TA.AperFunction,ComponentPad*%
G36*
G01*
X181703383Y-86151791D02*
X181703383Y-86151791D01*
G75*
G02*
X181506922Y-87265974I-655322J-458861D01*
G01*
X181506922Y-87265974D01*
G75*
G02*
X180392739Y-87069513I-458861J655322D01*
G01*
X180392739Y-87069513D01*
G75*
G02*
X180589200Y-85955330I655322J458861D01*
G01*
X180589200Y-85955330D01*
G75*
G02*
X181703383Y-86151791I458861J-655322D01*
G01*
G37*
%TD.AperFunction*%
%TD*%
%TO.P,REF\u002A\u002A,1*%
%TO.N,N/C*%
X182930000Y-106700000D03*
%TO.P,REF\u002A\u002A,2*%
%TA.AperFunction,ComponentPad*%
G36*
G01*
X181107435Y-113271960D02*
X181107435Y-113271960D01*
G75*
G02*
X181664548Y-114256655I-213791J-770904D01*
G01*
X181664548Y-114256655D01*
G75*
G02*
X180679853Y-114813768I-770904J213791D01*
G01*
X180679853Y-114813768D01*
G75*
G02*
X180122740Y-113829073I213791J770904D01*
G01*
X180122740Y-113829073D01*
G75*
G02*
X181107435Y-113271960I770904J-213791D01*
G01*
G37*
%TD.AperFunction*%
%TD*%
%TO.P,REF\u002A\u002A,1*%
%TO.N,N/C*%
X163360000Y-63100000D03*
%TO.P,REF\u002A\u002A,2*%
%TA.AperFunction,ComponentPad*%
G36*
G01*
X170148602Y-62446332D02*
X170148602Y-62446332D01*
G75*
G02*
X170868242Y-61573338I796317J76677D01*
G01*
X170868242Y-61573338D01*
G75*
G02*
X171741236Y-62292978I76677J-796317D01*
G01*
X171741236Y-62292978D01*
G75*
G02*
X171021596Y-63165972I-796317J-76677D01*
G01*
X171021596Y-63165972D01*
G75*
G02*
X170148602Y-62446332I-76677J796317D01*
G01*
G37*
%TD.AperFunction*%
%TD*%
%TO.P,REF\u002A\u002A,2*%
%TO.N,N/C*%
%TA.AperFunction,ComponentPad*%
G36*
G01*
X167498602Y-59216332D02*
X167498602Y-59216332D01*
G75*
G02*
X168218242Y-58343338I796317J76677D01*
G01*
X168218242Y-58343338D01*
G75*
G02*
X169091236Y-59062978I76677J-796317D01*
G01*
X169091236Y-59062978D01*
G75*
G02*
X168371596Y-59935972I-796317J-76677D01*
G01*
X168371596Y-59935972D01*
G75*
G02*
X167498602Y-59216332I-76677J796317D01*
G01*
G37*
%TD.AperFunction*%
%TO.P,REF\u002A\u002A,1*%
X160710000Y-59870000D03*
%TD*%
%TO.P,REF\u002A\u002A,1*%
%TO.N,N/C*%
X187560000Y-64020000D03*
%TO.P,REF\u002A\u002A,2*%
%TA.AperFunction,ComponentPad*%
G36*
G01*
X190333944Y-57789620D02*
X190333944Y-57789620D01*
G75*
G02*
X189928497Y-56733395I325389J730836D01*
G01*
X189928497Y-56733395D01*
G75*
G02*
X190984722Y-56327948I730836J-325389D01*
G01*
X190984722Y-56327948D01*
G75*
G02*
X191390169Y-57384173I-325389J-730836D01*
G01*
X191390169Y-57384173D01*
G75*
G02*
X190333944Y-57789620I-730836J325389D01*
G01*
G37*
%TD.AperFunction*%
%TD*%
%TO.P,REF\u002A\u002A,2*%
%TO.N,N/C*%
%TA.AperFunction,ComponentPad*%
G36*
G01*
X172545632Y-58789798D02*
X172545632Y-58789798D01*
G75*
G02*
X171414305Y-58799671I-570600J560727D01*
G01*
X171414305Y-58799671D01*
G75*
G02*
X171404432Y-57668344I560727J570600D01*
G01*
X171404432Y-57668344D01*
G75*
G02*
X172535759Y-57658471I570600J-560727D01*
G01*
X172535759Y-57658471D01*
G75*
G02*
X172545632Y-58789798I-560727J-570600D01*
G01*
G37*
%TD.AperFunction*%
%TO.P,REF\u002A\u002A,1*%
X177410000Y-63570000D03*
%TD*%
%TO.P,REF\u002A\u002A,1*%
%TO.N,N/C*%
X184860000Y-76120000D03*
%TO.P,REF\u002A\u002A,2*%
%TA.AperFunction,ComponentPad*%
G36*
G01*
X179912946Y-71425422D02*
X179912946Y-71425422D01*
G75*
G02*
X178781963Y-71455037I-580299J550684D01*
G01*
X178781963Y-71455037D01*
G75*
G02*
X178752348Y-70324054I550684J580299D01*
G01*
X178752348Y-70324054D01*
G75*
G02*
X179883331Y-70294439I580299J-550684D01*
G01*
X179883331Y-70294439D01*
G75*
G02*
X179912946Y-71425422I-550684J-580299D01*
G01*
G37*
%TD.AperFunction*%
%TD*%
%TO.P,REF\u002A\u002A,1*%
%TO.N,N/C*%
X254350000Y-107330000D03*
%TO.P,REF\u002A\u002A,2*%
%TA.AperFunction,ComponentPad*%
G36*
G01*
X260889150Y-105393015D02*
X260889150Y-105393015D01*
G75*
G02*
X261428994Y-104398747I767056J227212D01*
G01*
X261428994Y-104398747D01*
G75*
G02*
X262423262Y-104938591I227212J-767056D01*
G01*
X262423262Y-104938591D01*
G75*
G02*
X261883418Y-105932859I-767056J-227212D01*
G01*
X261883418Y-105932859D01*
G75*
G02*
X260889150Y-105393015I-227212J767056D01*
G01*
G37*
%TD.AperFunction*%
%TD*%
%TO.P,REF\u002A\u002A,1*%
%TO.N,N/C*%
X214010000Y-91600000D03*
%TO.P,REF\u002A\u002A,2*%
%TA.AperFunction,ComponentPad*%
G36*
G01*
X213653069Y-98410653D02*
X213653069Y-98410653D01*
G75*
G02*
X214410104Y-99251426I-41869J-798904D01*
G01*
X214410104Y-99251426D01*
G75*
G02*
X213569331Y-100008461I-798904J41869D01*
G01*
X213569331Y-100008461D01*
G75*
G02*
X212812296Y-99167688I41869J798904D01*
G01*
X212812296Y-99167688D01*
G75*
G02*
X213653069Y-98410653I798904J-41869D01*
G01*
G37*
%TD.AperFunction*%
%TD*%
%TO.P,REF\u002A\u002A,1*%
%TO.N,N/C*%
X211630000Y-75870000D03*
%TO.P,REF\u002A\u002A,2*%
%TA.AperFunction,ComponentPad*%
G36*
G01*
X216104323Y-81017119D02*
X216104323Y-81017119D01*
G75*
G02*
X217232938Y-81096040I524847J-603768D01*
G01*
X217232938Y-81096040D01*
G75*
G02*
X217154017Y-82224655I-603768J-524847D01*
G01*
X217154017Y-82224655D01*
G75*
G02*
X216025402Y-82145734I-524847J603768D01*
G01*
X216025402Y-82145734D01*
G75*
G02*
X216104323Y-81017119I603768J524847D01*
G01*
G37*
%TD.AperFunction*%
%TD*%
%TO.P,REF\u002A\u002A,1*%
%TO.N,N/C*%
X233560000Y-79480000D03*
%TO.P,REF\u002A\u002A,2*%
%TA.AperFunction,ComponentPad*%
G36*
G01*
X229314450Y-84817387D02*
X229314450Y-84817387D01*
G75*
G02*
X229442525Y-85941486I-498012J-626087D01*
G01*
X229442525Y-85941486D01*
G75*
G02*
X228318426Y-86069561I-626087J498012D01*
G01*
X228318426Y-86069561D01*
G75*
G02*
X228190351Y-84945462I498012J626087D01*
G01*
X228190351Y-84945462D01*
G75*
G02*
X229314450Y-84817387I626087J-498012D01*
G01*
G37*
%TD.AperFunction*%
%TD*%
%TO.P,REF\u002A\u002A,2*%
%TO.N,N/C*%
%TA.AperFunction,ComponentPad*%
G36*
G01*
X184234450Y-69772613D02*
X184234450Y-69772613D01*
G75*
G02*
X183110351Y-69644538I-498012J626087D01*
G01*
X183110351Y-69644538D01*
G75*
G02*
X183238426Y-68520439I626087J498012D01*
G01*
X183238426Y-68520439D01*
G75*
G02*
X184362525Y-68648514I498012J-626087D01*
G01*
X184362525Y-68648514D01*
G75*
G02*
X184234450Y-69772613I-626087J-498012D01*
G01*
G37*
%TD.AperFunction*%
%TO.P,REF\u002A\u002A,1*%
X188480000Y-75110000D03*
%TD*%
%TO.P,REF\u002A\u002A,1*%
%TO.N,N/C*%
X192620000Y-72800000D03*
%TO.P,REF\u002A\u002A,2*%
%TA.AperFunction,ComponentPad*%
G36*
G01*
X191027902Y-66168437D02*
X191027902Y-66168437D01*
G75*
G02*
X190063250Y-65577297I-186756J777896D01*
G01*
X190063250Y-65577297D01*
G75*
G02*
X190654390Y-64612645I777896J186756D01*
G01*
X190654390Y-64612645D01*
G75*
G02*
X191619042Y-65203785I186756J-777896D01*
G01*
X191619042Y-65203785D01*
G75*
G02*
X191027902Y-66168437I-777896J-186756D01*
G01*
G37*
%TD.AperFunction*%
%TD*%
%TO.P,REF\u002A\u002A,2*%
%TO.N,N/C*%
%TA.AperFunction,ComponentPad*%
G36*
G01*
X205205950Y-75563688D02*
X205205950Y-75563688D01*
G75*
G02*
X205460453Y-76666061I-423935J-678438D01*
G01*
X205460453Y-76666061D01*
G75*
G02*
X204358080Y-76920564I-678438J423935D01*
G01*
X204358080Y-76920564D01*
G75*
G02*
X204103577Y-75818191I423935J678438D01*
G01*
X204103577Y-75818191D01*
G75*
G02*
X205205950Y-75563688I678438J-423935D01*
G01*
G37*
%TD.AperFunction*%
%TO.P,REF\u002A\u002A,1*%
X208820000Y-69780000D03*
%TD*%
%TO.P,REF\u002A\u002A,1*%
%TO.N,N/C*%
X212210000Y-57940000D03*
%TO.P,REF\u002A\u002A,2*%
%TA.AperFunction,ComponentPad*%
G36*
G01*
X205821896Y-60328414D02*
X205821896Y-60328414D01*
G75*
G02*
X205352724Y-61357918I-749338J-280166D01*
G01*
X205352724Y-61357918D01*
G75*
G02*
X204323220Y-60888746I-280166J749338D01*
G01*
X204323220Y-60888746D01*
G75*
G02*
X204792392Y-59859242I749338J280166D01*
G01*
X204792392Y-59859242D01*
G75*
G02*
X205821896Y-60328414I280166J-749338D01*
G01*
G37*
%TD.AperFunction*%
%TD*%
%TO.P,REF\u002A\u002A,1*%
%TO.N,N/C*%
X213280000Y-64530000D03*
%TO.P,REF\u002A\u002A,2*%
%TA.AperFunction,ComponentPad*%
G36*
G01*
X211172505Y-71016206D02*
X211172505Y-71016206D01*
G75*
G02*
X211686136Y-72024265I-247214J-760845D01*
G01*
X211686136Y-72024265D01*
G75*
G02*
X210678077Y-72537896I-760845J247214D01*
G01*
X210678077Y-72537896D01*
G75*
G02*
X210164446Y-71529837I247214J760845D01*
G01*
X210164446Y-71529837D01*
G75*
G02*
X211172505Y-71016206I760845J-247214D01*
G01*
G37*
%TD.AperFunction*%
%TD*%
%TO.P,REF\u002A\u002A,2*%
%TO.N,N/C*%
%TA.AperFunction,ComponentPad*%
G36*
G01*
X210176161Y-89077955D02*
X210176161Y-89077955D01*
G75*
G02*
X210880455Y-88192535I794857J90563D01*
G01*
X210880455Y-88192535D01*
G75*
G02*
X211765875Y-88896829I90563J-794857D01*
G01*
X211765875Y-88896829D01*
G75*
G02*
X211061581Y-89782249I-794857J-90563D01*
G01*
X211061581Y-89782249D01*
G75*
G02*
X210176161Y-89077955I-90563J794857D01*
G01*
G37*
%TD.AperFunction*%
%TO.P,REF\u002A\u002A,1*%
X203400000Y-89850000D03*
%TD*%
%TO.P,REF\u002A\u002A,2*%
%TO.N,N/C*%
%TA.AperFunction,ComponentPad*%
G36*
G01*
X218380395Y-78252268D02*
X218380395Y-78252268D01*
G75*
G02*
X219496249Y-78438998I464562J-651292D01*
G01*
X219496249Y-78438998D01*
G75*
G02*
X219309519Y-79554852I-651292J-464562D01*
G01*
X219309519Y-79554852D01*
G75*
G02*
X218193665Y-79368122I-464562J651292D01*
G01*
X218193665Y-79368122D01*
G75*
G02*
X218380395Y-78252268I651292J464562D01*
G01*
G37*
%TD.AperFunction*%
%TO.P,REF\u002A\u002A,1*%
X214420000Y-72700000D03*
%TD*%
%TO.P,REF\u002A\u002A,2*%
%TO.N,N/C*%
%TA.AperFunction,ComponentPad*%
G36*
G01*
X217507435Y-62271960D02*
X217507435Y-62271960D01*
G75*
G02*
X218064548Y-63256655I-213791J-770904D01*
G01*
X218064548Y-63256655D01*
G75*
G02*
X217079853Y-63813768I-770904J213791D01*
G01*
X217079853Y-63813768D01*
G75*
G02*
X216522740Y-62829073I213791J770904D01*
G01*
X216522740Y-62829073D01*
G75*
G02*
X217507435Y-62271960I770904J-213791D01*
G01*
G37*
%TD.AperFunction*%
%TO.P,REF\u002A\u002A,1*%
X219330000Y-55700000D03*
%TD*%
%TO.P,REF\u002A\u002A,1*%
%TO.N,N/C*%
X234830000Y-57510000D03*
%TO.P,REF\u002A\u002A,2*%
%TA.AperFunction,ComponentPad*%
G36*
G01*
X230007531Y-62332469D02*
X230007531Y-62332469D01*
G75*
G02*
X230007531Y-63463839I-565685J-565685D01*
G01*
X230007531Y-63463839D01*
G75*
G02*
X228876161Y-63463839I-565685J565685D01*
G01*
X228876161Y-63463839D01*
G75*
G02*
X228876161Y-62332469I565685J565685D01*
G01*
X228876161Y-62332469D01*
G75*
G02*
X230007531Y-62332469I565685J-565685D01*
G01*
G37*
%TD.AperFunction*%
%TD*%
%TO.P,REF\u002A\u002A,2*%
%TO.N,N/C*%
%TA.AperFunction,ComponentPad*%
G36*
G01*
X239479865Y-62811965D02*
X239479865Y-62811965D01*
G75*
G02*
X239361604Y-63937138I-621717J-503456D01*
G01*
X239361604Y-63937138D01*
G75*
G02*
X238236431Y-63818877I-503456J621717D01*
G01*
X238236431Y-63818877D01*
G75*
G02*
X238354692Y-62693704I621717J503456D01*
G01*
X238354692Y-62693704D01*
G75*
G02*
X239479865Y-62811965I503456J-621717D01*
G01*
G37*
%TD.AperFunction*%
%TO.P,REF\u002A\u002A,1*%
X244780000Y-58520000D03*
%TD*%
%TO.P,REF\u002A\u002A,1*%
%TO.N,N/C*%
X249680000Y-62730000D03*
%TO.P,REF\u002A\u002A,2*%
%TA.AperFunction,ComponentPad*%
G36*
G01*
X244342613Y-66975550D02*
X244342613Y-66975550D01*
G75*
G02*
X244214538Y-68099649I-626087J-498012D01*
G01*
X244214538Y-68099649D01*
G75*
G02*
X243090439Y-67971574I-498012J626087D01*
G01*
X243090439Y-67971574D01*
G75*
G02*
X243218514Y-66847475I626087J498012D01*
G01*
X243218514Y-66847475D01*
G75*
G02*
X244342613Y-66975550I498012J-626087D01*
G01*
G37*
%TD.AperFunction*%
%TD*%
%TO.P,REF\u002A\u002A,2*%
%TO.N,N/C*%
%TA.AperFunction,ComponentPad*%
G36*
G01*
X244121671Y-76424175D02*
X244121671Y-76424175D01*
G75*
G02*
X243031447Y-76121829I-393939J696285D01*
G01*
X243031447Y-76121829D01*
G75*
G02*
X243333793Y-75031605I696285J393939D01*
G01*
X243333793Y-75031605D01*
G75*
G02*
X244424017Y-75333951I393939J-696285D01*
G01*
X244424017Y-75333951D01*
G75*
G02*
X244121671Y-76424175I-696285J-393939D01*
G01*
G37*
%TD.AperFunction*%
%TO.P,REF\u002A\u002A,1*%
X247480000Y-82360000D03*
%TD*%
%TO.P,REF\u002A\u002A,2*%
%TO.N,N/C*%
%TA.AperFunction,ComponentPad*%
G36*
G01*
X206557109Y-68090541D02*
X206557109Y-68090541D01*
G75*
G02*
X206763285Y-69202967I-453125J-659301D01*
G01*
X206763285Y-69202967D01*
G75*
G02*
X205650859Y-69409143I-659301J453125D01*
G01*
X205650859Y-69409143D01*
G75*
G02*
X205444683Y-68296717I453125J659301D01*
G01*
X205444683Y-68296717D01*
G75*
G02*
X206557109Y-68090541I659301J-453125D01*
G01*
G37*
%TD.AperFunction*%
%TO.P,REF\u002A\u002A,1*%
X210420000Y-62470000D03*
%TD*%
%TO.P,REF\u002A\u002A,1*%
%TO.N,N/C*%
X250280000Y-82240000D03*
%TO.P,REF\u002A\u002A,2*%
%TA.AperFunction,ComponentPad*%
G36*
G01*
X257049165Y-83071149D02*
X257049165Y-83071149D01*
G75*
G02*
X257940697Y-82374607I794037J-97495D01*
G01*
X257940697Y-82374607D01*
G75*
G02*
X258637239Y-83266139I-97495J-794037D01*
G01*
X258637239Y-83266139D01*
G75*
G02*
X257745707Y-83962681I-794037J97495D01*
G01*
X257745707Y-83962681D01*
G75*
G02*
X257049165Y-83071149I97495J794037D01*
G01*
G37*
%TD.AperFunction*%
%TD*%
%TO.P,REF\u002A\u002A,2*%
%TO.N,N/C*%
%TA.AperFunction,ComponentPad*%
G36*
G01*
X259199165Y-87281149D02*
X259199165Y-87281149D01*
G75*
G02*
X260090697Y-86584607I794037J-97495D01*
G01*
X260090697Y-86584607D01*
G75*
G02*
X260787239Y-87476139I-97495J-794037D01*
G01*
X260787239Y-87476139D01*
G75*
G02*
X259895707Y-88172681I-794037J97495D01*
G01*
X259895707Y-88172681D01*
G75*
G02*
X259199165Y-87281149I97495J794037D01*
G01*
G37*
%TD.AperFunction*%
%TO.P,REF\u002A\u002A,1*%
X252430000Y-86450000D03*
%TD*%
%TO.P,REF\u002A\u002A,1*%
%TO.N,N/C*%
X252440000Y-90240000D03*
%TO.P,REF\u002A\u002A,2*%
%TA.AperFunction,ComponentPad*%
G36*
G01*
X258191930Y-93904383D02*
X258191930Y-93904383D01*
G75*
G02*
X259296483Y-93659510I674713J-429840D01*
G01*
X259296483Y-93659510D01*
G75*
G02*
X259541356Y-94764063I-429840J-674713D01*
G01*
X259541356Y-94764063D01*
G75*
G02*
X258436803Y-95008936I-674713J429840D01*
G01*
X258436803Y-95008936D01*
G75*
G02*
X258191930Y-93904383I429840J674713D01*
G01*
G37*
%TD.AperFunction*%
%TD*%
%TO.P,REF\u002A\u002A,2*%
%TO.N,N/C*%
%TA.AperFunction,ComponentPad*%
G36*
G01*
X232537531Y-75012469D02*
X232537531Y-75012469D01*
G75*
G02*
X232537531Y-76143839I-565685J-565685D01*
G01*
X232537531Y-76143839D01*
G75*
G02*
X231406161Y-76143839I-565685J565685D01*
G01*
X231406161Y-76143839D01*
G75*
G02*
X231406161Y-75012469I565685J565685D01*
G01*
X231406161Y-75012469D01*
G75*
G02*
X232537531Y-75012469I565685J-565685D01*
G01*
G37*
%TD.AperFunction*%
%TO.P,REF\u002A\u002A,1*%
X237360000Y-70190000D03*
%TD*%
%TO.P,REF\u002A\u002A,2*%
%TO.N,N/C*%
%TA.AperFunction,ComponentPad*%
G36*
G01*
X248156883Y-105466034D02*
X248156883Y-105466034D01*
G75*
G02*
X249072182Y-106131037I125148J-790151D01*
G01*
X249072182Y-106131037D01*
G75*
G02*
X248407179Y-107046336I-790151J-125148D01*
G01*
X248407179Y-107046336D01*
G75*
G02*
X247491880Y-106381333I-125148J790151D01*
G01*
X247491880Y-106381333D01*
G75*
G02*
X248156883Y-105466034I790151J125148D01*
G01*
G37*
%TD.AperFunction*%
%TO.P,REF\u002A\u002A,1*%
X247090000Y-98730000D03*
%TD*%
%TO.P,REF\u002A\u002A,1*%
%TO.N,N/C*%
X254230000Y-115750000D03*
%TO.P,REF\u002A\u002A,2*%
%TA.AperFunction,ComponentPad*%
G36*
G01*
X260999165Y-116581149D02*
X260999165Y-116581149D01*
G75*
G02*
X261890697Y-115884607I794037J-97495D01*
G01*
X261890697Y-115884607D01*
G75*
G02*
X262587239Y-116776139I-97495J-794037D01*
G01*
X262587239Y-116776139D01*
G75*
G02*
X261695707Y-117472681I-794037J97495D01*
G01*
X261695707Y-117472681D01*
G75*
G02*
X260999165Y-116581149I97495J794037D01*
G01*
G37*
%TD.AperFunction*%
%TD*%
%TO.P,REF\u002A\u002A,2*%
%TO.N,N/C*%
%TA.AperFunction,ComponentPad*%
G36*
G01*
X255535632Y-132126086D02*
X255535632Y-132126086D01*
G75*
G02*
X256602109Y-131748427I722068J-344409D01*
G01*
X256602109Y-131748427D01*
G75*
G02*
X256979768Y-132814904I-344409J-722068D01*
G01*
X256979768Y-132814904D01*
G75*
G02*
X255913291Y-133192563I-722068J344409D01*
G01*
X255913291Y-133192563D01*
G75*
G02*
X255535632Y-132126086I344409J722068D01*
G01*
G37*
%TD.AperFunction*%
%TO.P,REF\u002A\u002A,1*%
X249380000Y-129190000D03*
%TD*%
%TO.P,REF\u002A\u002A,2*%
%TO.N,N/C*%
%TA.AperFunction,ComponentPad*%
G36*
G01*
X238194223Y-127653532D02*
X238194223Y-127653532D01*
G75*
G02*
X239279004Y-127974859I381727J-703054D01*
G01*
X239279004Y-127974859D01*
G75*
G02*
X238957677Y-129059640I-703054J-381727D01*
G01*
X238957677Y-129059640D01*
G75*
G02*
X237872896Y-128738313I-381727J703054D01*
G01*
X237872896Y-128738313D01*
G75*
G02*
X238194223Y-127653532I703054J381727D01*
G01*
G37*
%TD.AperFunction*%
%TO.P,REF\u002A\u002A,1*%
X234940000Y-121660000D03*
%TD*%
%TO.P,REF\u002A\u002A,2*%
%TO.N,N/C*%
%TA.AperFunction,ComponentPad*%
G36*
G01*
X241748602Y-134646332D02*
X241748602Y-134646332D01*
G75*
G02*
X242468242Y-133773338I796317J76677D01*
G01*
X242468242Y-133773338D01*
G75*
G02*
X243341236Y-134492978I76677J-796317D01*
G01*
X243341236Y-134492978D01*
G75*
G02*
X242621596Y-135365972I-796317J-76677D01*
G01*
X242621596Y-135365972D01*
G75*
G02*
X241748602Y-134646332I-76677J796317D01*
G01*
G37*
%TD.AperFunction*%
%TO.P,REF\u002A\u002A,1*%
X234960000Y-135300000D03*
%TD*%
%TO.P,REF\u002A\u002A,1*%
%TO.N,N/C*%
X223990000Y-140570000D03*
%TO.P,REF\u002A\u002A,2*%
%TA.AperFunction,ComponentPad*%
G36*
G01*
X226654786Y-146847843D02*
X226654786Y-146847843D01*
G75*
G02*
X227703775Y-147271662I312585J-736404D01*
G01*
X227703775Y-147271662D01*
G75*
G02*
X227279956Y-148320651I-736404J-312585D01*
G01*
X227279956Y-148320651D01*
G75*
G02*
X226230967Y-147896832I-312585J736404D01*
G01*
X226230967Y-147896832D01*
G75*
G02*
X226654786Y-146847843I736404J312585D01*
G01*
G37*
%TD.AperFunction*%
%TD*%
%TO.P,REF\u002A\u002A,1*%
%TO.N,N/C*%
X245520000Y-132120000D03*
%TO.P,REF\u002A\u002A,2*%
%TA.AperFunction,ComponentPad*%
G36*
G01*
X251623453Y-135163069D02*
X251623453Y-135163069D01*
G75*
G02*
X252696358Y-134804080I715947J-356958D01*
G01*
X252696358Y-134804080D01*
G75*
G02*
X253055347Y-135876985I-356958J-715947D01*
G01*
X253055347Y-135876985D01*
G75*
G02*
X251982442Y-136235974I-715947J356958D01*
G01*
X251982442Y-136235974D01*
G75*
G02*
X251623453Y-135163069I356958J715947D01*
G01*
G37*
%TD.AperFunction*%
%TD*%
%TO.P,REF\u002A\u002A,1*%
%TO.N,N/C*%
X242710000Y-151200000D03*
%TO.P,REF\u002A\u002A,2*%
%TA.AperFunction,ComponentPad*%
G36*
G01*
X249158437Y-153420374D02*
X249158437Y-153420374D01*
G75*
G02*
X250175307Y-152924414I756415J-260455D01*
G01*
X250175307Y-152924414D01*
G75*
G02*
X250671267Y-153941284I-260455J-756415D01*
G01*
X250671267Y-153941284D01*
G75*
G02*
X249654397Y-154437244I-756415J260455D01*
G01*
X249654397Y-154437244D01*
G75*
G02*
X249158437Y-153420374I260455J756415D01*
G01*
G37*
%TD.AperFunction*%
%TD*%
%TO.P,REF\u002A\u002A,2*%
%TO.N,N/C*%
%TA.AperFunction,ComponentPad*%
G36*
G01*
X236649414Y-151189125D02*
X236649414Y-151189125D01*
G75*
G02*
X237728422Y-150848915I709609J-369399D01*
G01*
X237728422Y-150848915D01*
G75*
G02*
X238068632Y-151927923I-369399J-709609D01*
G01*
X238068632Y-151927923D01*
G75*
G02*
X236989624Y-152268133I-709609J369399D01*
G01*
X236989624Y-152268133D01*
G75*
G02*
X236649414Y-151189125I369399J709609D01*
G01*
G37*
%TD.AperFunction*%
%TO.P,REF\u002A\u002A,1*%
X230600000Y-148040000D03*
%TD*%
%TO.P,REF\u002A\u002A,1*%
%TO.N,N/C*%
X233780000Y-131910000D03*
%TO.P,REF\u002A\u002A,2*%
%TA.AperFunction,ComponentPad*%
G36*
G01*
X240583387Y-131434261D02*
X240583387Y-131434261D01*
G75*
G02*
X241325633Y-130580405I798051J55805D01*
G01*
X241325633Y-130580405D01*
G75*
G02*
X242179489Y-131322651I55805J-798051D01*
G01*
X242179489Y-131322651D01*
G75*
G02*
X241437243Y-132176507I-798051J-55805D01*
G01*
X241437243Y-132176507D01*
G75*
G02*
X240583387Y-131434261I-55805J798051D01*
G01*
G37*
%TD.AperFunction*%
%TD*%
%TO.P,REF\u002A\u002A,2*%
%TO.N,N/C*%
%TA.AperFunction,ComponentPad*%
G36*
G01*
X253021411Y-152846311D02*
X253021411Y-152846311D01*
G75*
G02*
X254116745Y-153129583I406031J-689303D01*
G01*
X254116745Y-153129583D01*
G75*
G02*
X253833473Y-154224917I-689303J-406031D01*
G01*
X253833473Y-154224917D01*
G75*
G02*
X252738139Y-153941645I-406031J689303D01*
G01*
X252738139Y-153941645D01*
G75*
G02*
X253021411Y-152846311I689303J406031D01*
G01*
G37*
%TD.AperFunction*%
%TO.P,REF\u002A\u002A,1*%
X249560000Y-146970000D03*
%TD*%
%TO.P,REF\u002A\u002A,1*%
%TO.N,N/C*%
X238650000Y-154880000D03*
%TO.P,REF\u002A\u002A,2*%
%TA.AperFunction,ComponentPad*%
G36*
G01*
X245386034Y-155946883D02*
X245386034Y-155946883D01*
G75*
G02*
X246301333Y-155281880I790151J-125148D01*
G01*
X246301333Y-155281880D01*
G75*
G02*
X246966336Y-156197179I-125148J-790151D01*
G01*
X246966336Y-156197179D01*
G75*
G02*
X246051037Y-156862182I-790151J125148D01*
G01*
X246051037Y-156862182D01*
G75*
G02*
X245386034Y-155946883I125148J790151D01*
G01*
G37*
%TD.AperFunction*%
%TD*%
%TO.P,REF\u002A\u002A,1*%
%TO.N,N/C*%
X262140000Y-140520000D03*
%TO.P,REF\u002A\u002A,2*%
%TA.AperFunction,ComponentPad*%
G36*
G01*
X262318526Y-133702337D02*
X262318526Y-133702337D01*
G75*
G02*
X261539742Y-132881669I20942J799726D01*
G01*
X261539742Y-132881669D01*
G75*
G02*
X262360410Y-132102885I799726J-20942D01*
G01*
X262360410Y-132102885D01*
G75*
G02*
X263139194Y-132923553I-20942J-799726D01*
G01*
X263139194Y-132923553D01*
G75*
G02*
X262318526Y-133702337I-799726J20942D01*
G01*
G37*
%TD.AperFunction*%
%TD*%
%TO.P,REF\u002A\u002A,2*%
%TO.N,N/C*%
%TA.AperFunction,ComponentPad*%
G36*
G01*
X260215088Y-109951940D02*
X260215088Y-109951940D01*
G75*
G02*
X260888053Y-109042479I791213J118248D01*
G01*
X260888053Y-109042479D01*
G75*
G02*
X261797514Y-109715444I118248J-791213D01*
G01*
X261797514Y-109715444D01*
G75*
G02*
X261124549Y-110624905I-791213J-118248D01*
G01*
X261124549Y-110624905D01*
G75*
G02*
X260215088Y-109951940I-118248J791213D01*
G01*
G37*
%TD.AperFunction*%
%TO.P,REF\u002A\u002A,1*%
X253470000Y-110960000D03*
%TD*%
%TA.AperFunction,ComponentPad*%
D12*
%TO.P,REF\u002A\u002A,1*%
%TO.N,N/C*%
G36*
X201801569Y-74475337D02*
G01*
X203294663Y-74331569D01*
X203438431Y-75824663D01*
X201945337Y-75968431D01*
X201801569Y-74475337D01*
G37*
%TD.AperFunction*%
D11*
%TO.P,REF\u002A\u002A,3*%
X197563387Y-75636896D03*
%TO.P,REF\u002A\u002A,2*%
X200091694Y-75393448D03*
%TD*%
%TA.AperFunction,ComponentPad*%
D12*
%TO.P,REF\u002A\u002A,1*%
%TO.N,N/C*%
G36*
X182197246Y-89760738D02*
G01*
X183379262Y-88837246D01*
X184302754Y-90019262D01*
X183120738Y-90942754D01*
X182197246Y-89760738D01*
G37*
%TD.AperFunction*%
D11*
%TO.P,REF\u002A\u002A,3*%
X179246905Y-93017560D03*
%TO.P,REF\u002A\u002A,2*%
X181248453Y-91453780D03*
%TD*%
%TA.AperFunction,ComponentPad*%
D12*
%TO.P,REF\u002A\u002A,1*%
%TO.N,N/C*%
G36*
X244070784Y-98190636D02*
G01*
X244305436Y-99672168D01*
X242823904Y-99906820D01*
X242589252Y-98425288D01*
X244070784Y-98190636D01*
G37*
%TD.AperFunction*%
D11*
%TO.P,REF\u002A\u002A,3*%
X242652657Y-94031271D03*
%TO.P,REF\u002A\u002A,2*%
X243050000Y-96540000D03*
%TD*%
%TO.P,REF\u002A\u002A,2*%
%TO.N,N/C*%
X216888204Y-123109150D03*
%TO.P,REF\u002A\u002A,3*%
X214846407Y-121598300D03*
%TA.AperFunction,ComponentPad*%
D12*
%TO.P,REF\u002A\u002A,1*%
G36*
X218773224Y-123570990D02*
G01*
X219979010Y-124463224D01*
X219086776Y-125669010D01*
X217880990Y-124776776D01*
X218773224Y-123570990D01*
G37*
%TD.AperFunction*%
%TD*%
%TA.AperFunction,ComponentPad*%
%TO.P,REF\u002A\u002A,1*%
%TO.N,N/C*%
G36*
X241789126Y-146937878D02*
G01*
X240291923Y-147029451D01*
X240200350Y-145532248D01*
X241697553Y-145440675D01*
X241789126Y-146937878D01*
G37*
%TD.AperFunction*%
D11*
%TO.P,REF\u002A\u002A,3*%
X246065263Y-145924936D03*
%TO.P,REF\u002A\u002A,2*%
X243530000Y-146080000D03*
%TD*%
%TO.P,REF\u002A\u002A,2*%
%TO.N,N/C*%
X243759613Y-140144329D03*
%TO.P,REF\u002A\u002A,3*%
X246299226Y-140188658D03*
%TA.AperFunction,ComponentPad*%
D12*
%TO.P,REF\u002A\u002A,1*%
G36*
X241956796Y-140862975D02*
G01*
X240457025Y-140836796D01*
X240483204Y-139337025D01*
X241982975Y-139363204D01*
X241956796Y-140862975D01*
G37*
%TD.AperFunction*%
%TD*%
%TA.AperFunction,ComponentPad*%
%TO.P,REF\u002A\u002A,1*%
%TO.N,N/C*%
G36*
X247974709Y-111813201D02*
G01*
X248053213Y-110315257D01*
X249551157Y-110393761D01*
X249472653Y-111891705D01*
X247974709Y-111813201D01*
G37*
%TD.AperFunction*%
D11*
%TO.P,REF\u002A\u002A,3*%
X248497066Y-116176519D03*
%TO.P,REF\u002A\u002A,2*%
X248630000Y-113640000D03*
%TD*%
%TA.AperFunction,ComponentPad*%
D12*
%TO.P,REF\u002A\u002A,1*%
%TO.N,N/C*%
G36*
X228464683Y-141182874D02*
G01*
X227807126Y-139834683D01*
X229155317Y-139177126D01*
X229812874Y-140525317D01*
X228464683Y-141182874D01*
G37*
%TD.AperFunction*%
D11*
%TO.P,REF\u002A\u002A,3*%
X231036925Y-144745874D03*
%TO.P,REF\u002A\u002A,2*%
X229923463Y-142462937D03*
%TD*%
%TO.P,REF\u002A\u002A,2*%
%TO.N,N/C*%
X228810000Y-152440000D03*
%TO.P,REF\u002A\u002A,3*%
X228109881Y-149998396D03*
%TA.AperFunction,ComponentPad*%
D12*
%TO.P,REF\u002A\u002A,1*%
G36*
X230024337Y-153953931D02*
G01*
X230437793Y-155395823D01*
X228995901Y-155809279D01*
X228582445Y-154367387D01*
X230024337Y-153953931D01*
G37*
%TD.AperFunction*%
%TD*%
D11*
%TO.P,REF\u002A\u002A,2*%
%TO.N,N/C*%
X224332165Y-66560097D03*
%TO.P,REF\u002A\u002A,3*%
X224354331Y-64020193D03*
%TA.AperFunction,ComponentPad*%
D12*
%TO.P,REF\u002A\u002A,1*%
G36*
X225066516Y-68356573D02*
G01*
X225053427Y-69856516D01*
X223553484Y-69843427D01*
X223566573Y-68343484D01*
X225066516Y-68356573D01*
G37*
%TD.AperFunction*%
%TD*%
D15*
%TO.P,REF\u002A\u002A,TN*%
%TO.N,N/C*%
X216320000Y-116190000D03*
D16*
%TO.P,REF\u002A\u002A,S*%
X216320000Y-119290000D03*
D15*
%TO.P,REF\u002A\u002A,T*%
X216320000Y-107890000D03*
%TD*%
D14*
%TO.P,REF\u002A\u002A,2*%
%TO.N,N/C*%
X228464710Y-72389801D03*
%TO.P,REF\u002A\u002A,1*%
X221640000Y-75500000D03*
%TD*%
%TO.P,REF\u002A\u002A,1*%
%TO.N,N/C*%
X253640000Y-119130000D03*
%TO.P,REF\u002A\u002A,2*%
X250470363Y-125927308D03*
%TD*%
D11*
%TO.P,REF\u002A\u002A,2*%
%TO.N,N/C*%
X194557542Y-62857313D03*
%TO.P,REF\u002A\u002A,3*%
X193365084Y-60614626D03*
%TA.AperFunction,ComponentPad*%
D12*
%TO.P,REF\u002A\u002A,1*%
G36*
X196060107Y-64085686D02*
G01*
X196764314Y-65410107D01*
X195439893Y-66114314D01*
X194735686Y-64789893D01*
X196060107Y-64085686D01*
G37*
%TD.AperFunction*%
%TD*%
D15*
%TO.P,REF\u002A\u002A,T*%
%TO.N,N/C*%
X205950000Y-107890000D03*
D16*
%TO.P,REF\u002A\u002A,S*%
X205950000Y-119290000D03*
D15*
%TO.P,REF\u002A\u002A,TN*%
X205950000Y-116190000D03*
%TD*%
D10*
%TO.P,GROUND,*%
%TO.N,*%
X257660000Y-154080000D03*
%TD*%
%TA.AperFunction,ComponentPad*%
D12*
%TO.P,REF\u002A\u002A,1*%
%TO.N,N/C*%
G36*
X255401451Y-126883491D02*
G01*
X254036509Y-126261451D01*
X254658549Y-124896509D01*
X256023491Y-125518549D01*
X255401451Y-126883491D01*
G37*
%TD.AperFunction*%
D11*
%TO.P,REF\u002A\u002A,3*%
X259652603Y-127996642D03*
%TO.P,REF\u002A\u002A,2*%
X257341302Y-126943321D03*
%TD*%
%TA.AperFunction,ComponentPad*%
D12*
%TO.P,REF\u002A\u002A,1*%
%TO.N,N/C*%
G36*
X176331267Y-110753143D02*
G01*
X177706857Y-111351267D01*
X177108733Y-112726857D01*
X175733143Y-112128733D01*
X176331267Y-110753143D01*
G37*
%TD.AperFunction*%
D11*
%TO.P,REF\u002A\u002A,3*%
X172061335Y-109714355D03*
%TO.P,REF\u002A\u002A,2*%
X174390667Y-110727177D03*
%TD*%
%TO.P,REF\u002A\u002A,2*%
%TO.N,N/C*%
X217252656Y-100868728D03*
%TO.P,REF\u002A\u002A,3*%
X216855313Y-103377457D03*
%TA.AperFunction,ComponentPad*%
D12*
%TO.P,REF\u002A\u002A,1*%
G36*
X216791908Y-98983440D02*
G01*
X217026560Y-97501908D01*
X218508092Y-97736560D01*
X218273440Y-99218092D01*
X216791908Y-98983440D01*
G37*
%TD.AperFunction*%
%TD*%
D11*
%TO.P,REF\u002A\u002A,2*%
%TO.N,N/C*%
X259510296Y-121540000D03*
%TO.P,REF\u002A\u002A,3*%
X261710000Y-122810000D03*
%TA.AperFunction,ComponentPad*%
D12*
%TO.P,REF\u002A\u002A,1*%
G36*
X257585110Y-121294519D02*
G01*
X256286072Y-120544519D01*
X257036072Y-119245481D01*
X258335110Y-119995481D01*
X257585110Y-121294519D01*
G37*
%TD.AperFunction*%
%TD*%
D11*
%TO.P,REF\u002A\u002A,2*%
%TO.N,N/C*%
X193152687Y-78107542D03*
%TO.P,REF\u002A\u002A,3*%
X195395374Y-76915084D03*
%TA.AperFunction,ComponentPad*%
D12*
%TO.P,REF\u002A\u002A,1*%
G36*
X191924314Y-79610107D02*
G01*
X190599893Y-80314314D01*
X189895686Y-78989893D01*
X191220107Y-78285686D01*
X191924314Y-79610107D01*
G37*
%TD.AperFunction*%
%TD*%
%TA.AperFunction,ComponentPad*%
%TO.P,REF\u002A\u002A,1*%
%TO.N,N/C*%
G36*
X196496857Y-112998733D02*
G01*
X195121267Y-113596857D01*
X194523143Y-112221267D01*
X195898733Y-111623143D01*
X196496857Y-112998733D01*
G37*
%TD.AperFunction*%
D11*
%TO.P,REF\u002A\u002A,3*%
X200168665Y-110584355D03*
%TO.P,REF\u002A\u002A,2*%
X197839333Y-111597177D03*
%TD*%
%TA.AperFunction,ComponentPad*%
D12*
%TO.P,REF\u002A\u002A,1*%
%TO.N,N/C*%
G36*
X227211173Y-81787616D02*
G01*
X226372384Y-83031173D01*
X225128827Y-82192384D01*
X225967616Y-80948827D01*
X227211173Y-81787616D01*
G37*
%TD.AperFunction*%
D11*
%TO.P,REF\u002A\u002A,3*%
X229010700Y-77778489D03*
%TO.P,REF\u002A\u002A,2*%
X227590350Y-79884245D03*
%TD*%
%TO.P,REF\u002A\u002A,2*%
%TO.N,N/C*%
X237770000Y-75970000D03*
%TO.P,REF\u002A\u002A,3*%
X235702146Y-77444985D03*
%TA.AperFunction,ComponentPad*%
D12*
%TO.P,REF\u002A\u002A,1*%
G36*
X238791739Y-74319955D02*
G01*
X240012912Y-73448900D01*
X240883967Y-74670073D01*
X239662794Y-75541128D01*
X238791739Y-74319955D01*
G37*
%TD.AperFunction*%
%TD*%
%TA.AperFunction,ComponentPad*%
%TO.P,REF\u002A\u002A,1*%
%TO.N,N/C*%
G36*
X231480620Y-69949256D02*
G01*
X230410744Y-71000620D01*
X229359380Y-69930744D01*
X230429256Y-68879380D01*
X231480620Y-69949256D01*
G37*
%TD.AperFunction*%
D11*
%TO.P,REF\u002A\u002A,3*%
X234043312Y-66379381D03*
%TO.P,REF\u002A\u002A,2*%
X232231656Y-68159690D03*
%TD*%
%TA.AperFunction,ComponentPad*%
D12*
%TO.P,REF\u002A\u002A,1*%
%TO.N,N/C*%
G36*
X201054663Y-63251569D02*
G01*
X201198431Y-64744663D01*
X199705337Y-64888431D01*
X199561569Y-63395337D01*
X201054663Y-63251569D01*
G37*
%TD.AperFunction*%
D11*
%TO.P,REF\u002A\u002A,3*%
X199893104Y-59013387D03*
%TO.P,REF\u002A\u002A,2*%
X200136552Y-61541694D03*
%TD*%
%TO.P,REF\u002A\u002A,2*%
%TO.N,N/C*%
X167720000Y-103440000D03*
%TO.P,REF\u002A\u002A,3*%
X170184551Y-104054481D03*
%TA.AperFunction,ComponentPad*%
D12*
%TO.P,REF\u002A\u002A,1*%
G36*
X165801729Y-103734681D02*
G01*
X164346286Y-103371798D01*
X164709169Y-101916355D01*
X166164612Y-102279238D01*
X165801729Y-103734681D01*
G37*
%TD.AperFunction*%
%TD*%
D11*
%TO.P,REF\u002A\u002A,2*%
%TO.N,N/C*%
X164848934Y-122701412D03*
%TO.P,REF\u002A\u002A,3*%
X164407867Y-125202823D03*
%TA.AperFunction,ComponentPad*%
D12*
%TO.P,REF\u002A\u002A,1*%
G36*
X164421158Y-120808370D02*
G01*
X164681630Y-119331158D01*
X166158842Y-119591630D01*
X165898370Y-121068842D01*
X164421158Y-120808370D01*
G37*
%TD.AperFunction*%
%TD*%
%TA.AperFunction,ComponentPad*%
%TO.P,REF\u002A\u002A,1*%
%TO.N,N/C*%
G36*
X170686524Y-122378597D02*
G01*
X171481403Y-121106524D01*
X172753476Y-121901403D01*
X171958597Y-123173476D01*
X170686524Y-122378597D01*
G37*
%TD.AperFunction*%
D11*
%TO.P,REF\u002A\u002A,3*%
X169028010Y-126448084D03*
%TO.P,REF\u002A\u002A,2*%
X170374005Y-124294042D03*
%TD*%
D14*
%TO.P,REF\u002A\u002A,2*%
%TO.N,N/C*%
X160749631Y-141034050D03*
%TA.AperFunction,ComponentPad*%
D12*
%TO.P,REF\u002A\u002A,1*%
G36*
X164144822Y-141085786D02*
G01*
X163744214Y-142634822D01*
X162195178Y-142234214D01*
X162595786Y-140685178D01*
X164144822Y-141085786D01*
G37*
%TD.AperFunction*%
%TD*%
D14*
%TO.P,REF\u002A\u002A,2*%
%TO.N,N/C*%
X173520000Y-66670000D03*
%TO.P,REF\u002A\u002A,1*%
X166020000Y-66670000D03*
%TD*%
%TO.P,REF\u002A\u002A,2*%
%TO.N,N/C*%
X167206058Y-149142361D03*
%TO.P,REF\u002A\u002A,1*%
X159820000Y-147840000D03*
%TD*%
%TO.P,REF\u002A\u002A,1*%
%TO.N,N/C*%
X221500000Y-153860000D03*
%TO.P,REF\u002A\u002A,2*%
X219244707Y-146707123D03*
%TD*%
%TO.P,REF\u002A\u002A,2*%
%TO.N,N/C*%
X240461557Y-114413120D03*
%TO.P,REF\u002A\u002A,1*%
X241050000Y-121890000D03*
%TD*%
%TO.P,REF\u002A\u002A,1*%
%TO.N,N/C*%
X179770000Y-59300000D03*
%TO.P,REF\u002A\u002A,2*%
X185798926Y-54838829D03*
%TD*%
%TO.P,REF\u002A\u002A,1*%
%TO.N,N/C*%
X261410000Y-97070000D03*
%TO.P,REF\u002A\u002A,2*%
X265046072Y-103629648D03*
%TD*%
%TO.P,REF\u002A\u002A,2*%
%TO.N,N/C*%
X235871157Y-146965471D03*
%TO.P,REF\u002A\u002A,1*%
X236590000Y-139500000D03*
%TD*%
%TO.P,REF\u002A\u002A,2*%
%TO.N,N/C*%
X256287775Y-78967133D03*
%TO.P,REF\u002A\u002A,1*%
X248980000Y-77280000D03*
%TD*%
%TO.P,REF\u002A\u002A,1*%
%TO.N,N/C*%
X241590000Y-81430000D03*
%TO.P,REF\u002A\u002A,2*%
X236523073Y-86959580D03*
%TD*%
%TO.P,REF\u002A\u002A,1*%
%TO.N,N/C*%
X203440000Y-80940000D03*
%TO.P,REF\u002A\u002A,2*%
X197185856Y-85079527D03*
%TD*%
%TO.P,REF\u002A\u002A,1*%
%TO.N,N/C*%
X220050000Y-138650000D03*
%TO.P,REF\u002A\u002A,2*%
%TA.AperFunction,ComponentPad*%
G36*
G01*
X226621960Y-136827435D02*
X226621960Y-136827435D01*
G75*
G02*
X227179073Y-135842740I770904J213791D01*
G01*
X227179073Y-135842740D01*
G75*
G02*
X228163768Y-136399853I213791J-770904D01*
G01*
X228163768Y-136399853D01*
G75*
G02*
X227606655Y-137384548I-770904J-213791D01*
G01*
X227606655Y-137384548D01*
G75*
G02*
X226621960Y-136827435I-213791J770904D01*
G01*
G37*
%TD.AperFunction*%
%TD*%
%TO.P,REF\u002A\u002A,1*%
%TO.N,N/C*%
X218410000Y-133290000D03*
%TO.P,REF\u002A\u002A,2*%
%TA.AperFunction,ComponentPad*%
G36*
G01*
X224710858Y-130680099D02*
X224710858Y-130680099D01*
G75*
G02*
X225143815Y-129634848I739104J306147D01*
G01*
X225143815Y-129634848D01*
G75*
G02*
X226189066Y-130067805I306147J-739104D01*
G01*
X226189066Y-130067805D01*
G75*
G02*
X225756109Y-131113056I-739104J-306147D01*
G01*
X225756109Y-131113056D01*
G75*
G02*
X224710858Y-130680099I-306147J739104D01*
G01*
G37*
%TD.AperFunction*%
%TD*%
%TO.P,REF\u002A\u002A,2*%
%TO.N,N/C*%
%TA.AperFunction,ComponentPad*%
G36*
G01*
X223690858Y-127750099D02*
X223690858Y-127750099D01*
G75*
G02*
X224123815Y-126704848I739104J306147D01*
G01*
X224123815Y-126704848D01*
G75*
G02*
X225169066Y-127137805I306147J-739104D01*
G01*
X225169066Y-127137805D01*
G75*
G02*
X224736109Y-128183056I-739104J-306147D01*
G01*
X224736109Y-128183056D01*
G75*
G02*
X223690858Y-127750099I-306147J739104D01*
G01*
G37*
%TD.AperFunction*%
%TO.P,REF\u002A\u002A,1*%
X217390000Y-130360000D03*
%TD*%
%TO.P,REF\u002A\u002A,2*%
%TO.N,N/C*%
X187356214Y-132909517D03*
%TO.P,REF\u002A\u002A,1*%
X194260000Y-135840000D03*
%TD*%
%TO.P,REF\u002A\u002A,16*%
%TO.N,N/C*%
%TA.AperFunction,ComponentPad*%
G36*
G01*
X212103852Y-143767852D02*
X212103852Y-143767852D01*
G75*
G02*
X211604346Y-144782984I-757319J-257813D01*
G01*
X211604346Y-144782984D01*
G75*
G02*
X210589214Y-144283478I-257813J757319D01*
G01*
X210589214Y-144283478D01*
G75*
G02*
X211088720Y-143268346I757319J257813D01*
G01*
X211088720Y-143268346D01*
G75*
G02*
X212103852Y-143767852I257813J-757319D01*
G01*
G37*
%TD.AperFunction*%
%TO.P,REF\u002A\u002A,8*%
%TA.AperFunction,ComponentPad*%
G36*
G01*
X213587435Y-124480763D02*
X213587435Y-124480763D01*
G75*
G02*
X213087929Y-125495895I-757319J-257813D01*
G01*
X213087929Y-125495895D01*
G75*
G02*
X212072797Y-124996389I-257813J757319D01*
G01*
X212072797Y-124996389D01*
G75*
G02*
X212572303Y-123981257I757319J257813D01*
G01*
X212572303Y-123981257D01*
G75*
G02*
X213587435Y-124480763I257813J-757319D01*
G01*
G37*
%TD.AperFunction*%
%TO.P,REF\u002A\u002A,15*%
%TA.AperFunction,ComponentPad*%
G36*
G01*
X211285297Y-141363362D02*
X211285297Y-141363362D01*
G75*
G02*
X210785791Y-142378494I-757319J-257813D01*
G01*
X210785791Y-142378494D01*
G75*
G02*
X209770659Y-141878988I-257813J757319D01*
G01*
X209770659Y-141878988D01*
G75*
G02*
X210270165Y-140863856I757319J257813D01*
G01*
X210270165Y-140863856D01*
G75*
G02*
X211285297Y-141363362I257813J-757319D01*
G01*
G37*
%TD.AperFunction*%
%TO.P,REF\u002A\u002A,7*%
%TA.AperFunction,ComponentPad*%
G36*
G01*
X214405990Y-126885252D02*
X214405990Y-126885252D01*
G75*
G02*
X213906484Y-127900384I-757319J-257813D01*
G01*
X213906484Y-127900384D01*
G75*
G02*
X212891352Y-127400878I-257813J757319D01*
G01*
X212891352Y-127400878D01*
G75*
G02*
X213390858Y-126385746I757319J257813D01*
G01*
X213390858Y-126385746D01*
G75*
G02*
X214405990Y-126885252I257813J-757319D01*
G01*
G37*
%TD.AperFunction*%
%TO.P,REF\u002A\u002A,14*%
%TA.AperFunction,ComponentPad*%
G36*
G01*
X210466742Y-138958873D02*
X210466742Y-138958873D01*
G75*
G02*
X209967236Y-139974005I-757319J-257813D01*
G01*
X209967236Y-139974005D01*
G75*
G02*
X208952104Y-139474499I-257813J757319D01*
G01*
X208952104Y-139474499D01*
G75*
G02*
X209451610Y-138459367I757319J257813D01*
G01*
X209451610Y-138459367D01*
G75*
G02*
X210466742Y-138958873I257813J-757319D01*
G01*
G37*
%TD.AperFunction*%
%TO.P,REF\u002A\u002A,6*%
%TA.AperFunction,ComponentPad*%
G36*
G01*
X215224545Y-129289741D02*
X215224545Y-129289741D01*
G75*
G02*
X214725039Y-130304873I-757319J-257813D01*
G01*
X214725039Y-130304873D01*
G75*
G02*
X213709907Y-129805367I-257813J757319D01*
G01*
X213709907Y-129805367D01*
G75*
G02*
X214209413Y-128790235I757319J257813D01*
G01*
X214209413Y-128790235D01*
G75*
G02*
X215224545Y-129289741I257813J-757319D01*
G01*
G37*
%TD.AperFunction*%
%TO.P,REF\u002A\u002A,13*%
%TA.AperFunction,ComponentPad*%
G36*
G01*
X209648187Y-136554384D02*
X209648187Y-136554384D01*
G75*
G02*
X209148681Y-137569516I-757319J-257813D01*
G01*
X209148681Y-137569516D01*
G75*
G02*
X208133549Y-137070010I-257813J757319D01*
G01*
X208133549Y-137070010D01*
G75*
G02*
X208633055Y-136054878I757319J257813D01*
G01*
X208633055Y-136054878D01*
G75*
G02*
X209648187Y-136554384I257813J-757319D01*
G01*
G37*
%TD.AperFunction*%
%TO.P,REF\u002A\u002A,5*%
%TA.AperFunction,ComponentPad*%
G36*
G01*
X216043100Y-131694231D02*
X216043100Y-131694231D01*
G75*
G02*
X215543594Y-132709363I-757319J-257813D01*
G01*
X215543594Y-132709363D01*
G75*
G02*
X214528462Y-132209857I-257813J757319D01*
G01*
X214528462Y-132209857D01*
G75*
G02*
X215027968Y-131194725I757319J257813D01*
G01*
X215027968Y-131194725D01*
G75*
G02*
X216043100Y-131694231I257813J-757319D01*
G01*
G37*
%TD.AperFunction*%
%TO.P,REF\u002A\u002A,12*%
%TA.AperFunction,ComponentPad*%
G36*
G01*
X208829632Y-134149895D02*
X208829632Y-134149895D01*
G75*
G02*
X208330126Y-135165027I-757319J-257813D01*
G01*
X208330126Y-135165027D01*
G75*
G02*
X207314994Y-134665521I-257813J757319D01*
G01*
X207314994Y-134665521D01*
G75*
G02*
X207814500Y-133650389I757319J257813D01*
G01*
X207814500Y-133650389D01*
G75*
G02*
X208829632Y-134149895I257813J-757319D01*
G01*
G37*
%TD.AperFunction*%
%TO.P,REF\u002A\u002A,4*%
%TA.AperFunction,ComponentPad*%
G36*
G01*
X216861654Y-134098720D02*
X216861654Y-134098720D01*
G75*
G02*
X216362148Y-135113852I-757319J-257813D01*
G01*
X216362148Y-135113852D01*
G75*
G02*
X215347016Y-134614346I-257813J757319D01*
G01*
X215347016Y-134614346D01*
G75*
G02*
X215846522Y-133599214I757319J257813D01*
G01*
X215846522Y-133599214D01*
G75*
G02*
X216861654Y-134098720I257813J-757319D01*
G01*
G37*
%TD.AperFunction*%
%TO.P,REF\u002A\u002A,11*%
%TA.AperFunction,ComponentPad*%
G36*
G01*
X208011077Y-131745406D02*
X208011077Y-131745406D01*
G75*
G02*
X207511571Y-132760538I-757319J-257813D01*
G01*
X207511571Y-132760538D01*
G75*
G02*
X206496439Y-132261032I-257813J757319D01*
G01*
X206496439Y-132261032D01*
G75*
G02*
X206995945Y-131245900I757319J257813D01*
G01*
X206995945Y-131245900D01*
G75*
G02*
X208011077Y-131745406I257813J-757319D01*
G01*
G37*
%TD.AperFunction*%
%TO.P,REF\u002A\u002A,3*%
%TA.AperFunction,ComponentPad*%
G36*
G01*
X217680209Y-136503209D02*
X217680209Y-136503209D01*
G75*
G02*
X217180703Y-137518341I-757319J-257813D01*
G01*
X217180703Y-137518341D01*
G75*
G02*
X216165571Y-137018835I-257813J757319D01*
G01*
X216165571Y-137018835D01*
G75*
G02*
X216665077Y-136003703I757319J257813D01*
G01*
X216665077Y-136003703D01*
G75*
G02*
X217680209Y-136503209I257813J-757319D01*
G01*
G37*
%TD.AperFunction*%
%TO.P,REF\u002A\u002A,10*%
%TA.AperFunction,ComponentPad*%
G36*
G01*
X207192522Y-129340917D02*
X207192522Y-129340917D01*
G75*
G02*
X206693016Y-130356049I-757319J-257813D01*
G01*
X206693016Y-130356049D01*
G75*
G02*
X205677884Y-129856543I-257813J757319D01*
G01*
X205677884Y-129856543D01*
G75*
G02*
X206177390Y-128841411I757319J257813D01*
G01*
X206177390Y-128841411D01*
G75*
G02*
X207192522Y-129340917I257813J-757319D01*
G01*
G37*
%TD.AperFunction*%
%TO.P,REF\u002A\u002A,2*%
%TA.AperFunction,ComponentPad*%
G36*
G01*
X218498764Y-138907698D02*
X218498764Y-138907698D01*
G75*
G02*
X217999258Y-139922830I-757319J-257813D01*
G01*
X217999258Y-139922830D01*
G75*
G02*
X216984126Y-139423324I-257813J757319D01*
G01*
X216984126Y-139423324D01*
G75*
G02*
X217483632Y-138408192I757319J257813D01*
G01*
X217483632Y-138408192D01*
G75*
G02*
X218498764Y-138907698I257813J-757319D01*
G01*
G37*
%TD.AperFunction*%
%TO.P,REF\u002A\u002A,9*%
%TA.AperFunction,ComponentPad*%
G36*
G01*
X206373968Y-126936428D02*
X206373968Y-126936428D01*
G75*
G02*
X205874462Y-127951560I-757319J-257813D01*
G01*
X205874462Y-127951560D01*
G75*
G02*
X204859330Y-127452054I-257813J757319D01*
G01*
X204859330Y-127452054D01*
G75*
G02*
X205358836Y-126436922I757319J257813D01*
G01*
X205358836Y-126436922D01*
G75*
G02*
X206373968Y-126936428I257813J-757319D01*
G01*
G37*
%TD.AperFunction*%
%TA.AperFunction,ComponentPad*%
D12*
%TO.P,REF\u002A\u002A,1*%
G36*
X219059507Y-140554868D02*
G01*
X219575132Y-142069507D01*
X218060493Y-142585132D01*
X217544868Y-141070493D01*
X219059507Y-140554868D01*
G37*
%TD.AperFunction*%
%TD*%
D14*
%TO.P,REF\u002A\u002A,2*%
%TO.N,N/C*%
X177612549Y-99054929D03*
%TO.P,REF\u002A\u002A,1*%
X170930000Y-95650000D03*
%TD*%
%TO.P,REF\u002A\u002A,1*%
%TO.N,N/C*%
X183610000Y-147620000D03*
%TO.P,REF\u002A\u002A,2*%
X179308177Y-141476360D03*
%TD*%
%TO.P,REF\u002A\u002A,2*%
%TO.N,N/C*%
X202895431Y-68891746D03*
%TO.P,REF\u002A\u002A,1*%
X195400000Y-68630000D03*
%TD*%
%TO.P,REF\u002A\u002A,1*%
%TO.N,N/C*%
X174180000Y-118130000D03*
%TO.P,REF\u002A\u002A,2*%
X167999054Y-113881953D03*
%TD*%
%TO.P,REF\u002A\u002A,2*%
%TO.N,N/C*%
%TA.AperFunction,ComponentPad*%
G36*
G01*
X225646206Y-133792505D02*
X225646206Y-133792505D01*
G75*
G02*
X226159837Y-132784446I760845J247214D01*
G01*
X226159837Y-132784446D01*
G75*
G02*
X227167896Y-133298077I247214J-760845D01*
G01*
X227167896Y-133298077D01*
G75*
G02*
X226654265Y-134306136I-760845J-247214D01*
G01*
X226654265Y-134306136D01*
G75*
G02*
X225646206Y-133792505I-247214J760845D01*
G01*
G37*
%TD.AperFunction*%
%TO.P,REF\u002A\u002A,1*%
X219160000Y-135900000D03*
%TD*%
%TO.P,REF\u002A\u002A,1*%
%TO.N,N/C*%
X190880000Y-159420000D03*
%TO.P,REF\u002A\u002A,2*%
%TA.AperFunction,ComponentPad*%
G36*
G01*
X192472098Y-152788437D02*
X192472098Y-152788437D01*
G75*
G02*
X191880958Y-151823785I186756J777896D01*
G01*
X191880958Y-151823785D01*
G75*
G02*
X192845610Y-151232645I777896J-186756D01*
G01*
X192845610Y-151232645D01*
G75*
G02*
X193436750Y-152197297I-186756J-777896D01*
G01*
X193436750Y-152197297D01*
G75*
G02*
X192472098Y-152788437I-777896J186756D01*
G01*
G37*
%TD.AperFunction*%
%TD*%
%TO.P,REF\u002A\u002A,16*%
%TO.N,N/C*%
%TA.AperFunction,ComponentPad*%
G36*
G01*
X237601470Y-94662262D02*
X237601470Y-94662262D01*
G75*
G02*
X238730354Y-94587282I601932J-526952D01*
G01*
X238730354Y-94587282D01*
G75*
G02*
X238805334Y-95716166I-526952J-601932D01*
G01*
X238805334Y-95716166D01*
G75*
G02*
X237676450Y-95791146I-601932J526952D01*
G01*
X237676450Y-95791146D01*
G75*
G02*
X237601470Y-94662262I526952J601932D01*
G01*
G37*
%TD.AperFunction*%
%TO.P,REF\u002A\u002A,8*%
%TA.AperFunction,ComponentPad*%
G36*
G01*
X220156569Y-103020985D02*
X220156569Y-103020985D01*
G75*
G02*
X221285453Y-102946005I601932J-526952D01*
G01*
X221285453Y-102946005D01*
G75*
G02*
X221360433Y-104074889I-526952J-601932D01*
G01*
X221360433Y-104074889D01*
G75*
G02*
X220231549Y-104149869I-601932J526952D01*
G01*
X220231549Y-104149869D01*
G75*
G02*
X220156569Y-103020985I526952J601932D01*
G01*
G37*
%TD.AperFunction*%
%TO.P,REF\u002A\u002A,15*%
%TA.AperFunction,ComponentPad*%
G36*
G01*
X235928398Y-96573396D02*
X235928398Y-96573396D01*
G75*
G02*
X237057282Y-96498416I601932J-526952D01*
G01*
X237057282Y-96498416D01*
G75*
G02*
X237132262Y-97627300I-526952J-601932D01*
G01*
X237132262Y-97627300D01*
G75*
G02*
X236003378Y-97702280I-601932J526952D01*
G01*
X236003378Y-97702280D01*
G75*
G02*
X235928398Y-96573396I526952J601932D01*
G01*
G37*
%TD.AperFunction*%
%TO.P,REF\u002A\u002A,7*%
%TA.AperFunction,ComponentPad*%
G36*
G01*
X221829641Y-101109851D02*
X221829641Y-101109851D01*
G75*
G02*
X222958525Y-101034871I601932J-526952D01*
G01*
X222958525Y-101034871D01*
G75*
G02*
X223033505Y-102163755I-526952J-601932D01*
G01*
X223033505Y-102163755D01*
G75*
G02*
X221904621Y-102238735I-601932J526952D01*
G01*
X221904621Y-102238735D01*
G75*
G02*
X221829641Y-101109851I526952J601932D01*
G01*
G37*
%TD.AperFunction*%
%TO.P,REF\u002A\u002A,14*%
%TA.AperFunction,ComponentPad*%
G36*
G01*
X234255327Y-98484529D02*
X234255327Y-98484529D01*
G75*
G02*
X235384211Y-98409549I601932J-526952D01*
G01*
X235384211Y-98409549D01*
G75*
G02*
X235459191Y-99538433I-526952J-601932D01*
G01*
X235459191Y-99538433D01*
G75*
G02*
X234330307Y-99613413I-601932J526952D01*
G01*
X234330307Y-99613413D01*
G75*
G02*
X234255327Y-98484529I526952J601932D01*
G01*
G37*
%TD.AperFunction*%
%TO.P,REF\u002A\u002A,6*%
%TA.AperFunction,ComponentPad*%
G36*
G01*
X223502712Y-99198717D02*
X223502712Y-99198717D01*
G75*
G02*
X224631596Y-99123737I601932J-526952D01*
G01*
X224631596Y-99123737D01*
G75*
G02*
X224706576Y-100252621I-526952J-601932D01*
G01*
X224706576Y-100252621D01*
G75*
G02*
X223577692Y-100327601I-601932J526952D01*
G01*
X223577692Y-100327601D01*
G75*
G02*
X223502712Y-99198717I526952J601932D01*
G01*
G37*
%TD.AperFunction*%
%TO.P,REF\u002A\u002A,13*%
%TA.AperFunction,ComponentPad*%
G36*
G01*
X232582256Y-100395663D02*
X232582256Y-100395663D01*
G75*
G02*
X233711140Y-100320683I601932J-526952D01*
G01*
X233711140Y-100320683D01*
G75*
G02*
X233786120Y-101449567I-526952J-601932D01*
G01*
X233786120Y-101449567D01*
G75*
G02*
X232657236Y-101524547I-601932J526952D01*
G01*
X232657236Y-101524547D01*
G75*
G02*
X232582256Y-100395663I526952J601932D01*
G01*
G37*
%TD.AperFunction*%
%TO.P,REF\u002A\u002A,5*%
%TA.AperFunction,ComponentPad*%
G36*
G01*
X225175783Y-97287583D02*
X225175783Y-97287583D01*
G75*
G02*
X226304667Y-97212603I601932J-526952D01*
G01*
X226304667Y-97212603D01*
G75*
G02*
X226379647Y-98341487I-526952J-601932D01*
G01*
X226379647Y-98341487D01*
G75*
G02*
X225250763Y-98416467I-601932J526952D01*
G01*
X225250763Y-98416467D01*
G75*
G02*
X225175783Y-97287583I526952J601932D01*
G01*
G37*
%TD.AperFunction*%
%TO.P,REF\u002A\u002A,12*%
%TA.AperFunction,ComponentPad*%
G36*
G01*
X230909185Y-102306797D02*
X230909185Y-102306797D01*
G75*
G02*
X232038069Y-102231817I601932J-526952D01*
G01*
X232038069Y-102231817D01*
G75*
G02*
X232113049Y-103360701I-526952J-601932D01*
G01*
X232113049Y-103360701D01*
G75*
G02*
X230984165Y-103435681I-601932J526952D01*
G01*
X230984165Y-103435681D01*
G75*
G02*
X230909185Y-102306797I526952J601932D01*
G01*
G37*
%TD.AperFunction*%
%TO.P,REF\u002A\u002A,4*%
%TA.AperFunction,ComponentPad*%
G36*
G01*
X226848854Y-95376450D02*
X226848854Y-95376450D01*
G75*
G02*
X227977738Y-95301470I601932J-526952D01*
G01*
X227977738Y-95301470D01*
G75*
G02*
X228052718Y-96430354I-526952J-601932D01*
G01*
X228052718Y-96430354D01*
G75*
G02*
X226923834Y-96505334I-601932J526952D01*
G01*
X226923834Y-96505334D01*
G75*
G02*
X226848854Y-95376450I526952J601932D01*
G01*
G37*
%TD.AperFunction*%
%TO.P,REF\u002A\u002A,11*%
%TA.AperFunction,ComponentPad*%
G36*
G01*
X229236113Y-104217931D02*
X229236113Y-104217931D01*
G75*
G02*
X230364997Y-104142951I601932J-526952D01*
G01*
X230364997Y-104142951D01*
G75*
G02*
X230439977Y-105271835I-526952J-601932D01*
G01*
X230439977Y-105271835D01*
G75*
G02*
X229311093Y-105346815I-601932J526952D01*
G01*
X229311093Y-105346815D01*
G75*
G02*
X229236113Y-104217931I526952J601932D01*
G01*
G37*
%TD.AperFunction*%
%TO.P,REF\u002A\u002A,3*%
%TA.AperFunction,ComponentPad*%
G36*
G01*
X228521926Y-93465316D02*
X228521926Y-93465316D01*
G75*
G02*
X229650810Y-93390336I601932J-526952D01*
G01*
X229650810Y-93390336D01*
G75*
G02*
X229725790Y-94519220I-526952J-601932D01*
G01*
X229725790Y-94519220D01*
G75*
G02*
X228596906Y-94594200I-601932J526952D01*
G01*
X228596906Y-94594200D01*
G75*
G02*
X228521926Y-93465316I526952J601932D01*
G01*
G37*
%TD.AperFunction*%
%TO.P,REF\u002A\u002A,10*%
%TA.AperFunction,ComponentPad*%
G36*
G01*
X227563042Y-106129065D02*
X227563042Y-106129065D01*
G75*
G02*
X228691926Y-106054085I601932J-526952D01*
G01*
X228691926Y-106054085D01*
G75*
G02*
X228766906Y-107182969I-526952J-601932D01*
G01*
X228766906Y-107182969D01*
G75*
G02*
X227638022Y-107257949I-601932J526952D01*
G01*
X227638022Y-107257949D01*
G75*
G02*
X227563042Y-106129065I526952J601932D01*
G01*
G37*
%TD.AperFunction*%
%TO.P,REF\u002A\u002A,2*%
%TA.AperFunction,ComponentPad*%
G36*
G01*
X230194997Y-91554182D02*
X230194997Y-91554182D01*
G75*
G02*
X231323881Y-91479202I601932J-526952D01*
G01*
X231323881Y-91479202D01*
G75*
G02*
X231398861Y-92608086I-526952J-601932D01*
G01*
X231398861Y-92608086D01*
G75*
G02*
X230269977Y-92683066I-601932J526952D01*
G01*
X230269977Y-92683066D01*
G75*
G02*
X230194997Y-91554182I526952J601932D01*
G01*
G37*
%TD.AperFunction*%
%TO.P,REF\u002A\u002A,9*%
%TA.AperFunction,ComponentPad*%
G36*
G01*
X225889971Y-108040199D02*
X225889971Y-108040199D01*
G75*
G02*
X227018855Y-107965219I601932J-526952D01*
G01*
X227018855Y-107965219D01*
G75*
G02*
X227093835Y-109094103I-526952J-601932D01*
G01*
X227093835Y-109094103D01*
G75*
G02*
X225964951Y-109169083I-601932J526952D01*
G01*
X225964951Y-109169083D01*
G75*
G02*
X225889971Y-108040199I526952J601932D01*
G01*
G37*
%TD.AperFunction*%
%TA.AperFunction,ComponentPad*%
D12*
%TO.P,REF\u002A\u002A,1*%
G36*
X231341117Y-90244980D02*
G01*
X232395020Y-89041117D01*
X233598883Y-90095020D01*
X232544980Y-91298883D01*
X231341117Y-90244980D01*
G37*
%TD.AperFunction*%
%TD*%
%TA.AperFunction,ComponentPad*%
%TO.P,REF\u002A\u002A,1*%
%TO.N,N/C*%
G36*
X181579377Y-104750152D02*
G01*
X180009848Y-104439377D01*
X180320623Y-102869848D01*
X181890152Y-103180623D01*
X181579377Y-104750152D01*
G37*
%TD.AperFunction*%
%TO.P,REF\u002A\u002A,9*%
%TA.AperFunction,ComponentPad*%
G36*
G01*
X199716061Y-100573372D02*
X199716061Y-100573372D01*
G75*
G02*
X199086684Y-99633221I155387J784764D01*
G01*
X199086684Y-99633221D01*
G75*
G02*
X200026835Y-99003844I784764J-155387D01*
G01*
X200026835Y-99003844D01*
G75*
G02*
X200656212Y-99943995I-155387J-784764D01*
G01*
X200656212Y-99943995D01*
G75*
G02*
X199716061Y-100573372I-784764J155387D01*
G01*
G37*
%TD.AperFunction*%
%TO.P,REF\u002A\u002A,2*%
%TA.AperFunction,ComponentPad*%
G36*
G01*
X183286239Y-105088119D02*
X183286239Y-105088119D01*
G75*
G02*
X182656862Y-104147968I155387J784764D01*
G01*
X182656862Y-104147968D01*
G75*
G02*
X183597013Y-103518591I784764J-155387D01*
G01*
X183597013Y-103518591D01*
G75*
G02*
X184226390Y-104458742I-155387J-784764D01*
G01*
X184226390Y-104458742D01*
G75*
G02*
X183286239Y-105088119I-784764J155387D01*
G01*
G37*
%TD.AperFunction*%
%TO.P,REF\u002A\u002A,10*%
%TA.AperFunction,ComponentPad*%
G36*
G01*
X197224435Y-100080017D02*
X197224435Y-100080017D01*
G75*
G02*
X196595058Y-99139866I155387J784764D01*
G01*
X196595058Y-99139866D01*
G75*
G02*
X197535209Y-98510489I784764J-155387D01*
G01*
X197535209Y-98510489D01*
G75*
G02*
X198164586Y-99450640I-155387J-784764D01*
G01*
X198164586Y-99450640D01*
G75*
G02*
X197224435Y-100080017I-784764J155387D01*
G01*
G37*
%TD.AperFunction*%
%TO.P,REF\u002A\u002A,3*%
%TA.AperFunction,ComponentPad*%
G36*
G01*
X185777865Y-105581475D02*
X185777865Y-105581475D01*
G75*
G02*
X185148488Y-104641324I155387J784764D01*
G01*
X185148488Y-104641324D01*
G75*
G02*
X186088639Y-104011947I784764J-155387D01*
G01*
X186088639Y-104011947D01*
G75*
G02*
X186718016Y-104952098I-155387J-784764D01*
G01*
X186718016Y-104952098D01*
G75*
G02*
X185777865Y-105581475I-784764J155387D01*
G01*
G37*
%TD.AperFunction*%
%TO.P,REF\u002A\u002A,11*%
%TA.AperFunction,ComponentPad*%
G36*
G01*
X194732809Y-99586662D02*
X194732809Y-99586662D01*
G75*
G02*
X194103432Y-98646511I155387J784764D01*
G01*
X194103432Y-98646511D01*
G75*
G02*
X195043583Y-98017134I784764J-155387D01*
G01*
X195043583Y-98017134D01*
G75*
G02*
X195672960Y-98957285I-155387J-784764D01*
G01*
X195672960Y-98957285D01*
G75*
G02*
X194732809Y-99586662I-784764J155387D01*
G01*
G37*
%TD.AperFunction*%
%TO.P,REF\u002A\u002A,4*%
%TA.AperFunction,ComponentPad*%
G36*
G01*
X188269491Y-106074830D02*
X188269491Y-106074830D01*
G75*
G02*
X187640114Y-105134679I155387J784764D01*
G01*
X187640114Y-105134679D01*
G75*
G02*
X188580265Y-104505302I784764J-155387D01*
G01*
X188580265Y-104505302D01*
G75*
G02*
X189209642Y-105445453I-155387J-784764D01*
G01*
X189209642Y-105445453D01*
G75*
G02*
X188269491Y-106074830I-784764J155387D01*
G01*
G37*
%TD.AperFunction*%
%TO.P,REF\u002A\u002A,12*%
%TA.AperFunction,ComponentPad*%
G36*
G01*
X192241183Y-99093307D02*
X192241183Y-99093307D01*
G75*
G02*
X191611806Y-98153156I155387J784764D01*
G01*
X191611806Y-98153156D01*
G75*
G02*
X192551957Y-97523779I784764J-155387D01*
G01*
X192551957Y-97523779D01*
G75*
G02*
X193181334Y-98463930I-155387J-784764D01*
G01*
X193181334Y-98463930D01*
G75*
G02*
X192241183Y-99093307I-784764J155387D01*
G01*
G37*
%TD.AperFunction*%
%TO.P,REF\u002A\u002A,5*%
%TA.AperFunction,ComponentPad*%
G36*
G01*
X190761117Y-106568185D02*
X190761117Y-106568185D01*
G75*
G02*
X190131740Y-105628034I155387J784764D01*
G01*
X190131740Y-105628034D01*
G75*
G02*
X191071891Y-104998657I784764J-155387D01*
G01*
X191071891Y-104998657D01*
G75*
G02*
X191701268Y-105938808I-155387J-784764D01*
G01*
X191701268Y-105938808D01*
G75*
G02*
X190761117Y-106568185I-784764J155387D01*
G01*
G37*
%TD.AperFunction*%
%TO.P,REF\u002A\u002A,13*%
%TA.AperFunction,ComponentPad*%
G36*
G01*
X189749557Y-98599951D02*
X189749557Y-98599951D01*
G75*
G02*
X189120180Y-97659800I155387J784764D01*
G01*
X189120180Y-97659800D01*
G75*
G02*
X190060331Y-97030423I784764J-155387D01*
G01*
X190060331Y-97030423D01*
G75*
G02*
X190689708Y-97970574I-155387J-784764D01*
G01*
X190689708Y-97970574D01*
G75*
G02*
X189749557Y-98599951I-784764J155387D01*
G01*
G37*
%TD.AperFunction*%
%TO.P,REF\u002A\u002A,6*%
%TA.AperFunction,ComponentPad*%
G36*
G01*
X193252743Y-107061540D02*
X193252743Y-107061540D01*
G75*
G02*
X192623366Y-106121389I155387J784764D01*
G01*
X192623366Y-106121389D01*
G75*
G02*
X193563517Y-105492012I784764J-155387D01*
G01*
X193563517Y-105492012D01*
G75*
G02*
X194192894Y-106432163I-155387J-784764D01*
G01*
X194192894Y-106432163D01*
G75*
G02*
X193252743Y-107061540I-784764J155387D01*
G01*
G37*
%TD.AperFunction*%
%TO.P,REF\u002A\u002A,14*%
%TA.AperFunction,ComponentPad*%
G36*
G01*
X187257931Y-98106596D02*
X187257931Y-98106596D01*
G75*
G02*
X186628554Y-97166445I155387J784764D01*
G01*
X186628554Y-97166445D01*
G75*
G02*
X187568705Y-96537068I784764J-155387D01*
G01*
X187568705Y-96537068D01*
G75*
G02*
X188198082Y-97477219I-155387J-784764D01*
G01*
X188198082Y-97477219D01*
G75*
G02*
X187257931Y-98106596I-784764J155387D01*
G01*
G37*
%TD.AperFunction*%
%TO.P,REF\u002A\u002A,7*%
%TA.AperFunction,ComponentPad*%
G36*
G01*
X195744370Y-107554896D02*
X195744370Y-107554896D01*
G75*
G02*
X195114993Y-106614745I155387J784764D01*
G01*
X195114993Y-106614745D01*
G75*
G02*
X196055144Y-105985368I784764J-155387D01*
G01*
X196055144Y-105985368D01*
G75*
G02*
X196684521Y-106925519I-155387J-784764D01*
G01*
X196684521Y-106925519D01*
G75*
G02*
X195744370Y-107554896I-784764J155387D01*
G01*
G37*
%TD.AperFunction*%
%TO.P,REF\u002A\u002A,15*%
%TA.AperFunction,ComponentPad*%
G36*
G01*
X184766305Y-97613241D02*
X184766305Y-97613241D01*
G75*
G02*
X184136928Y-96673090I155387J784764D01*
G01*
X184136928Y-96673090D01*
G75*
G02*
X185077079Y-96043713I784764J-155387D01*
G01*
X185077079Y-96043713D01*
G75*
G02*
X185706456Y-96983864I-155387J-784764D01*
G01*
X185706456Y-96983864D01*
G75*
G02*
X184766305Y-97613241I-784764J155387D01*
G01*
G37*
%TD.AperFunction*%
%TO.P,REF\u002A\u002A,8*%
%TA.AperFunction,ComponentPad*%
G36*
G01*
X198235996Y-108048251D02*
X198235996Y-108048251D01*
G75*
G02*
X197606619Y-107108100I155387J784764D01*
G01*
X197606619Y-107108100D01*
G75*
G02*
X198546770Y-106478723I784764J-155387D01*
G01*
X198546770Y-106478723D01*
G75*
G02*
X199176147Y-107418874I-155387J-784764D01*
G01*
X199176147Y-107418874D01*
G75*
G02*
X198235996Y-108048251I-784764J155387D01*
G01*
G37*
%TD.AperFunction*%
%TO.P,REF\u002A\u002A,16*%
%TA.AperFunction,ComponentPad*%
G36*
G01*
X182274679Y-97119886D02*
X182274679Y-97119886D01*
G75*
G02*
X181645302Y-96179735I155387J784764D01*
G01*
X181645302Y-96179735D01*
G75*
G02*
X182585453Y-95550358I784764J-155387D01*
G01*
X182585453Y-95550358D01*
G75*
G02*
X183214830Y-96490509I-155387J-784764D01*
G01*
X183214830Y-96490509D01*
G75*
G02*
X182274679Y-97119886I-784764J155387D01*
G01*
G37*
%TD.AperFunction*%
%TD*%
D14*
%TO.P,REF\u002A\u002A,1*%
%TO.N,N/C*%
X165740000Y-95980000D03*
%TO.P,REF\u002A\u002A,2*%
%TA.AperFunction,ComponentPad*%
G36*
G01*
X161683308Y-90497696D02*
X161683308Y-90497696D01*
G75*
G02*
X160564365Y-90330469I-475858J643085D01*
G01*
X160564365Y-90330469D01*
G75*
G02*
X160731592Y-89211526I643085J475858D01*
G01*
X160731592Y-89211526D01*
G75*
G02*
X161850535Y-89378753I475858J-643085D01*
G01*
X161850535Y-89378753D01*
G75*
G02*
X161683308Y-90497696I-643085J-475858D01*
G01*
G37*
%TD.AperFunction*%
%TD*%
%TO.P,REF\u002A\u002A,1*%
%TO.N,N/C*%
X188000000Y-150320000D03*
%TO.P,REF\u002A\u002A,2*%
%TA.AperFunction,ComponentPad*%
G36*
G01*
X187880975Y-143501039D02*
X187880975Y-143501039D01*
G75*
G02*
X187067135Y-142715123I-13962J799878D01*
G01*
X187067135Y-142715123D01*
G75*
G02*
X187853051Y-141901283I799878J13962D01*
G01*
X187853051Y-141901283D01*
G75*
G02*
X188666891Y-142687199I13962J-799878D01*
G01*
X188666891Y-142687199D01*
G75*
G02*
X187880975Y-143501039I-799878J-13962D01*
G01*
G37*
%TD.AperFunction*%
%TD*%
%TO.P,REF\u002A\u002A,1*%
%TO.N,N/C*%
X165950000Y-133760000D03*
%TO.P,REF\u002A\u002A,2*%
%TA.AperFunction,ComponentPad*%
G36*
G01*
X162800875Y-127710586D02*
X162800875Y-127710586D01*
G75*
G02*
X161721867Y-127370376I-369399J709609D01*
G01*
X161721867Y-127370376D01*
G75*
G02*
X162062077Y-126291368I709609J369399D01*
G01*
X162062077Y-126291368D01*
G75*
G02*
X163141085Y-126631578I369399J-709609D01*
G01*
X163141085Y-126631578D01*
G75*
G02*
X162800875Y-127710586I-709609J-369399D01*
G01*
G37*
%TD.AperFunction*%
%TD*%
%TO.P,REF\u002A\u002A,2*%
%TO.N,N/C*%
%TA.AperFunction,ComponentPad*%
G36*
G01*
X168165964Y-129006304D02*
X168165964Y-129006304D01*
G75*
G02*
X167055380Y-129222180I-663230J447354D01*
G01*
X167055380Y-129222180D01*
G75*
G02*
X166839504Y-128111596I447354J663230D01*
G01*
X166839504Y-128111596D01*
G75*
G02*
X167950088Y-127895720I663230J-447354D01*
G01*
X167950088Y-127895720D01*
G75*
G02*
X168165964Y-129006304I-447354J-663230D01*
G01*
G37*
%TD.AperFunction*%
%TO.P,REF\u002A\u002A,1*%
X173820000Y-132820000D03*
%TD*%
%TO.P,REF\u002A\u002A,2*%
%TO.N,N/C*%
%TA.AperFunction,ComponentPad*%
G36*
G01*
X197594906Y-116033599D02*
X197594906Y-116033599D01*
G75*
G02*
X197906754Y-114946055I699696J387848D01*
G01*
X197906754Y-114946055D01*
G75*
G02*
X198994298Y-115257903I387848J-699696D01*
G01*
X198994298Y-115257903D01*
G75*
G02*
X198682450Y-116345447I-699696J-387848D01*
G01*
X198682450Y-116345447D01*
G75*
G02*
X197594906Y-116033599I-387848J699696D01*
G01*
G37*
%TD.AperFunction*%
%TO.P,REF\u002A\u002A,1*%
X191630000Y-119340000D03*
%TD*%
%TO.P,REF\u002A\u002A,1*%
%TO.N,N/C*%
X199310000Y-141470000D03*
%TO.P,REF\u002A\u002A,2*%
%TA.AperFunction,ComponentPad*%
G36*
G01*
X205491019Y-138587744D02*
X205491019Y-138587744D01*
G75*
G02*
X205877970Y-137524603I725046J338095D01*
G01*
X205877970Y-137524603D01*
G75*
G02*
X206941111Y-137911554I338095J-725046D01*
G01*
X206941111Y-137911554D01*
G75*
G02*
X206554160Y-138974695I-725046J-338095D01*
G01*
X206554160Y-138974695D01*
G75*
G02*
X205491019Y-138587744I-338095J725046D01*
G01*
G37*
%TD.AperFunction*%
%TD*%
%TO.P,REF\u002A\u002A,1*%
%TO.N,N/C*%
X175770000Y-136250000D03*
%TO.P,REF\u002A\u002A,2*%
%TA.AperFunction,ComponentPad*%
G36*
G01*
X182415204Y-134715834D02*
X182415204Y-134715834D01*
G75*
G02*
X183014739Y-133756377I779496J179961D01*
G01*
X183014739Y-133756377D01*
G75*
G02*
X183974196Y-134355912I179961J-779496D01*
G01*
X183974196Y-134355912D01*
G75*
G02*
X183374661Y-135315369I-779496J-179961D01*
G01*
X183374661Y-135315369D01*
G75*
G02*
X182415204Y-134715834I-179961J779496D01*
G01*
G37*
%TD.AperFunction*%
%TD*%
D17*
%TO.P,REF\u002A\u002A,2*%
%TO.N,N/C*%
X165760000Y-136640000D03*
D14*
%TO.P,REF\u002A\u002A,1*%
X158140000Y-136640000D03*
%TD*%
%TO.P,REF\u002A\u002A,1*%
%TO.N,N/C*%
X197500000Y-152230000D03*
%TO.P,REF\u002A\u002A,2*%
%TA.AperFunction,ComponentPad*%
G36*
G01*
X204194697Y-150928682D02*
X204194697Y-150928682D01*
G75*
G02*
X204827352Y-149990733I785302J152647D01*
G01*
X204827352Y-149990733D01*
G75*
G02*
X205765301Y-150623388I152647J-785302D01*
G01*
X205765301Y-150623388D01*
G75*
G02*
X205132646Y-151561337I-785302J-152647D01*
G01*
X205132646Y-151561337D01*
G75*
G02*
X204194697Y-150928682I-152647J785302D01*
G01*
G37*
%TD.AperFunction*%
%TD*%
D11*
%TO.P,REF\u002A\u002A,2*%
%TO.N,N/C*%
X173001930Y-146501920D03*
%TO.P,REF\u002A\u002A,3*%
X170883860Y-147903840D03*
%TA.AperFunction,ComponentPad*%
D12*
%TO.P,REF\u002A\u002A,1*%
G36*
X174080633Y-144888538D02*
G01*
X175331462Y-144060633D01*
X176159367Y-145311462D01*
X174908538Y-146139367D01*
X174080633Y-144888538D01*
G37*
%TD.AperFunction*%
%TD*%
D13*
%TO.P,REF\u002A\u002A,1*%
%TO.N,N/C*%
X163833895Y-160170590D03*
%TD*%
D14*
%TO.P,REF\u002A\u002A,1*%
%TO.N,N/C*%
X198380000Y-138210000D03*
%TO.P,REF\u002A\u002A,2*%
%TA.AperFunction,ComponentPad*%
G36*
G01*
X204680858Y-135600099D02*
X204680858Y-135600099D01*
G75*
G02*
X205113815Y-134554848I739104J306147D01*
G01*
X205113815Y-134554848D01*
G75*
G02*
X206159066Y-134987805I306147J-739104D01*
G01*
X206159066Y-134987805D01*
G75*
G02*
X205726109Y-136033056I-739104J-306147D01*
G01*
X205726109Y-136033056D01*
G75*
G02*
X204680858Y-135600099I-306147J739104D01*
G01*
G37*
%TD.AperFunction*%
%TD*%
%TO.P,REF\u002A\u002A,1*%
%TO.N,N/C*%
X166850000Y-141070000D03*
%TO.P,REF\u002A\u002A,2*%
%TA.AperFunction,ComponentPad*%
G36*
G01*
X172569734Y-137355562D02*
X172569734Y-137355562D01*
G75*
G02*
X172804959Y-136248915I670936J435711D01*
G01*
X172804959Y-136248915D01*
G75*
G02*
X173911606Y-136484140I435711J-670936D01*
G01*
X173911606Y-136484140D01*
G75*
G02*
X173676381Y-137590787I-670936J-435711D01*
G01*
X173676381Y-137590787D01*
G75*
G02*
X172569734Y-137355562I-435711J670936D01*
G01*
G37*
%TD.AperFunction*%
%TD*%
%TA.AperFunction,ComponentPad*%
D12*
%TO.P,REF\u002A\u002A,1*%
%TO.N,N/C*%
G36*
X159212471Y-152905393D02*
G01*
X160978366Y-151966450D01*
X161917309Y-153732345D01*
X160151414Y-154671288D01*
X159212471Y-152905393D01*
G37*
%TD.AperFunction*%
%TD*%
D14*
%TO.P,REF\u002A\u002A,1*%
%TO.N,N/C*%
X196530000Y-131730000D03*
%TO.P,REF\u002A\u002A,2*%
%TA.AperFunction,ComponentPad*%
G36*
G01*
X203175204Y-130195834D02*
X203175204Y-130195834D01*
G75*
G02*
X203774739Y-129236377I779496J179961D01*
G01*
X203774739Y-129236377D01*
G75*
G02*
X204734196Y-129835912I179961J-779496D01*
G01*
X204734196Y-129835912D01*
G75*
G02*
X204134661Y-130795369I-779496J-179961D01*
G01*
X204134661Y-130795369D01*
G75*
G02*
X203175204Y-130195834I-179961J779496D01*
G01*
G37*
%TD.AperFunction*%
%TD*%
%TA.AperFunction,ComponentPad*%
D12*
%TO.P,REF\u002A\u002A,1*%
%TO.N,N/C*%
G36*
X177652519Y-148924555D02*
G01*
X178447398Y-147652482D01*
X179719471Y-148447361D01*
X178924592Y-149719434D01*
X177652519Y-148924555D01*
G37*
%TD.AperFunction*%
D11*
%TO.P,REF\u002A\u002A,3*%
X175994005Y-152994042D03*
%TO.P,REF\u002A\u002A,2*%
X177340000Y-150840000D03*
%TD*%
%TO.P,REF\u002A\u002A,2*%
%TO.N,N/C*%
X191995958Y-140434005D03*
%TO.P,REF\u002A\u002A,3*%
X189841916Y-139088010D03*
%TA.AperFunction,ComponentPad*%
D12*
%TO.P,REF\u002A\u002A,1*%
G36*
X193911403Y-140746524D02*
G01*
X195183476Y-141541403D01*
X194388597Y-142813476D01*
X193116524Y-142018597D01*
X193911403Y-140746524D01*
G37*
%TD.AperFunction*%
%TD*%
%TO.P,REF\u002A\u002A,2*%
%TO.N,N/C*%
%TA.AperFunction,ComponentPad*%
G36*
G01*
X168725584Y-158947523D02*
X168725584Y-158947523D01*
G75*
G02*
X170030249Y-159794782I228703J-1075962D01*
G01*
X170030249Y-159794782D01*
G75*
G02*
X169182990Y-161099447I-1075962J-228703D01*
G01*
X169182990Y-161099447D01*
G75*
G02*
X167878325Y-160252188I-228703J1075962D01*
G01*
X167878325Y-160252188D01*
G75*
G02*
X168725584Y-158947523I1075962J228703D01*
G01*
G37*
%TD.AperFunction*%
%TA.AperFunction,ComponentPad*%
%TO.P,REF\u002A\u002A,1*%
G36*
X166065335Y-151722740D02*
G01*
X168217260Y-151265335D01*
X168674665Y-153417260D01*
X166522740Y-153874665D01*
X166065335Y-151722740D01*
G37*
%TD.AperFunction*%
%TD*%
%TA.AperFunction,ComponentPad*%
%TO.P,REF\u002A\u002A,1*%
%TO.N,N/C*%
G36*
X182805818Y-138014546D02*
G01*
X181945454Y-136785818D01*
X183174182Y-135925454D01*
X184034546Y-137154182D01*
X182805818Y-138014546D01*
G37*
%TD.AperFunction*%
D11*
%TO.P,REF\u002A\u002A,3*%
X185903768Y-141131292D03*
%TO.P,REF\u002A\u002A,2*%
X184446884Y-139050646D03*
%TD*%
%TO.P,REF\u002A\u002A,2*%
%TO.N,N/C*%
%TA.AperFunction,ComponentPad*%
G36*
G01*
X203841998Y-133016025D02*
X203841998Y-133016025D01*
G75*
G02*
X204373145Y-132017084I765044J233897D01*
G01*
X204373145Y-132017084D01*
G75*
G02*
X205372086Y-132548231I233897J-765044D01*
G01*
X205372086Y-132548231D01*
G75*
G02*
X204840939Y-133547172I-765044J-233897D01*
G01*
X204840939Y-133547172D01*
G75*
G02*
X203841998Y-133016025I-233897J765044D01*
G01*
G37*
%TD.AperFunction*%
D14*
%TO.P,REF\u002A\u002A,1*%
X197320000Y-135010000D03*
%TD*%
%TO.P,REF\u002A\u002A,1*%
%TO.N,N/C*%
X260740000Y-144770000D03*
%TO.P,REF\u002A\u002A,2*%
%TA.AperFunction,ComponentPad*%
G36*
G01*
X254200850Y-142833015D02*
X254200850Y-142833015D01*
G75*
G02*
X253206582Y-143372859I-767056J227212D01*
G01*
X253206582Y-143372859D01*
G75*
G02*
X252666738Y-142378591I227212J767056D01*
G01*
X252666738Y-142378591D01*
G75*
G02*
X253661006Y-141838747I767056J-227212D01*
G01*
X253661006Y-141838747D01*
G75*
G02*
X254200850Y-142833015I-227212J-767056D01*
G01*
G37*
%TD.AperFunction*%
%TD*%
%TA.AperFunction,ComponentPad*%
D12*
%TO.P,REF\u002A\u002A,1*%
%TO.N,N/C*%
G36*
X205824814Y-147394519D02*
G01*
X204525776Y-146644519D01*
X205275776Y-145345481D01*
X206574814Y-146095481D01*
X205824814Y-147394519D01*
G37*
%TD.AperFunction*%
D11*
%TO.P,REF\u002A\u002A,3*%
X209949704Y-148910000D03*
%TO.P,REF\u002A\u002A,2*%
X207750000Y-147640000D03*
%TD*%
%TO.P,REF\u002A\u002A,2*%
%TO.N,N/C*%
%TA.AperFunction,ComponentPad*%
G36*
G01*
X163076118Y-99411661D02*
X163076118Y-99411661D01*
G75*
G02*
X162468233Y-98457472I173152J781037D01*
G01*
X162468233Y-98457472D01*
G75*
G02*
X163422422Y-97849587I781037J-173152D01*
G01*
X163422422Y-97849587D01*
G75*
G02*
X164030307Y-98803776I-173152J-781037D01*
G01*
X164030307Y-98803776D01*
G75*
G02*
X163076118Y-99411661I-781037J173152D01*
G01*
G37*
%TD.AperFunction*%
D14*
%TO.P,REF\u002A\u002A,1*%
X161600000Y-106070000D03*
%TD*%
%TO.P,REF\u002A\u002A,2*%
%TO.N,N/C*%
%TA.AperFunction,ComponentPad*%
G36*
G01*
X173516468Y-105135777D02*
X173516468Y-105135777D01*
G75*
G02*
X172431687Y-105457104I-703054J381727D01*
G01*
X172431687Y-105457104D01*
G75*
G02*
X172110360Y-104372323I381727J703054D01*
G01*
X172110360Y-104372323D01*
G75*
G02*
X173195141Y-104050996I703054J-381727D01*
G01*
X173195141Y-104050996D01*
G75*
G02*
X173516468Y-105135777I-381727J-703054D01*
G01*
G37*
%TD.AperFunction*%
%TO.P,REF\u002A\u002A,1*%
X179510000Y-108390000D03*
%TD*%
%TO.P,REF\u002A\u002A,1*%
%TO.N,N/C*%
X161640000Y-114120000D03*
%TO.P,REF\u002A\u002A,2*%
%TA.AperFunction,ComponentPad*%
G36*
G01*
X166247525Y-109091769D02*
X166247525Y-109091769D01*
G75*
G02*
X166198175Y-107961475I540472J589822D01*
G01*
X166198175Y-107961475D01*
G75*
G02*
X167328469Y-107912125I589822J-540472D01*
G01*
X167328469Y-107912125D01*
G75*
G02*
X167377819Y-109042419I-540472J-589822D01*
G01*
X167377819Y-109042419D01*
G75*
G02*
X166247525Y-109091769I-589822J540472D01*
G01*
G37*
%TD.AperFunction*%
%TD*%
%TO.P,REF\u002A\u002A,2*%
%TO.N,N/C*%
%TA.AperFunction,ComponentPad*%
G36*
G01*
X180456563Y-122751185D02*
X180456563Y-122751185D01*
G75*
G02*
X179969495Y-121730027I267045J754113D01*
G01*
X179969495Y-121730027D01*
G75*
G02*
X180990653Y-121242959I754113J-267045D01*
G01*
X180990653Y-121242959D01*
G75*
G02*
X181477721Y-122264117I-267045J-754113D01*
G01*
X181477721Y-122264117D01*
G75*
G02*
X180456563Y-122751185I-754113J267045D01*
G01*
G37*
%TD.AperFunction*%
%TO.P,REF\u002A\u002A,1*%
X178180000Y-129180000D03*
%TD*%
%TO.P,REF\u002A\u002A,2*%
%TO.N,N/C*%
%TA.AperFunction,ComponentPad*%
G36*
G01*
X215814698Y-153512647D02*
X215814698Y-153512647D01*
G75*
G02*
X216447353Y-152574698I785302J152647D01*
G01*
X216447353Y-152574698D01*
G75*
G02*
X217385302Y-153207353I152647J-785302D01*
G01*
X217385302Y-153207353D01*
G75*
G02*
X216752647Y-154145302I-785302J-152647D01*
G01*
X216752647Y-154145302D01*
G75*
G02*
X215814698Y-153512647I-152647J785302D01*
G01*
G37*
%TD.AperFunction*%
%TO.P,REF\u002A\u002A,1*%
X209120001Y-154813965D03*
%TD*%
%TO.P,REF\u002A\u002A,2*%
%TO.N,N/C*%
%TA.AperFunction,ComponentPad*%
G36*
G01*
X171346931Y-152156547D02*
X171346931Y-152156547D01*
G75*
G02*
X170274026Y-151797558I-356958J715947D01*
G01*
X170274026Y-151797558D01*
G75*
G02*
X170633015Y-150724653I715947J356958D01*
G01*
X170633015Y-150724653D01*
G75*
G02*
X171705920Y-151083642I356958J-715947D01*
G01*
X171705920Y-151083642D01*
G75*
G02*
X171346931Y-152156547I-715947J-356958D01*
G01*
G37*
%TD.AperFunction*%
%TO.P,REF\u002A\u002A,1*%
X174390000Y-158260000D03*
%TD*%
%TO.P,REF\u002A\u002A,1*%
%TO.N,N/C*%
X196590000Y-128900000D03*
%TO.P,REF\u002A\u002A,2*%
%TA.AperFunction,ComponentPad*%
G36*
G01*
X193870531Y-122645650D02*
X193870531Y-122645650D01*
G75*
G02*
X192817884Y-122231001I-318999J733648D01*
G01*
X192817884Y-122231001D01*
G75*
G02*
X193232533Y-121178354I733648J318999D01*
G01*
X193232533Y-121178354D01*
G75*
G02*
X194285180Y-121593003I318999J-733648D01*
G01*
X194285180Y-121593003D01*
G75*
G02*
X193870531Y-122645650I-733648J-318999D01*
G01*
G37*
%TD.AperFunction*%
%TD*%
%TO.P,REF\u002A\u002A,2*%
%TO.N,N/C*%
%TA.AperFunction,ComponentPad*%
G36*
G01*
X174222268Y-139879605D02*
X174222268Y-139879605D01*
G75*
G02*
X174408998Y-138763751I651292J464562D01*
G01*
X174408998Y-138763751D01*
G75*
G02*
X175524852Y-138950481I464562J-651292D01*
G01*
X175524852Y-138950481D01*
G75*
G02*
X175338122Y-140066335I-651292J-464562D01*
G01*
X175338122Y-140066335D01*
G75*
G02*
X174222268Y-139879605I-464562J651292D01*
G01*
G37*
%TD.AperFunction*%
%TO.P,REF\u002A\u002A,1*%
X168670000Y-143840000D03*
%TD*%
%TO.P,REF\u002A\u002A,1*%
%TO.N,N/C*%
X175050000Y-128150000D03*
%TO.P,REF\u002A\u002A,2*%
%TA.AperFunction,ComponentPad*%
G36*
G01*
X177769469Y-121895650D02*
X177769469Y-121895650D01*
G75*
G02*
X177354820Y-120843003I318999J733648D01*
G01*
X177354820Y-120843003D01*
G75*
G02*
X178407467Y-120428354I733648J-318999D01*
G01*
X178407467Y-120428354D01*
G75*
G02*
X178822116Y-121481001I-318999J-733648D01*
G01*
X178822116Y-121481001D01*
G75*
G02*
X177769469Y-121895650I-733648J318999D01*
G01*
G37*
%TD.AperFunction*%
%TD*%
%TO.P,REF\u002A\u002A,2*%
%TO.N,N/C*%
%TA.AperFunction,ComponentPad*%
G36*
G01*
X206480380Y-141906056D02*
X206480380Y-141906056D01*
G75*
G02*
X206885827Y-140849831I730836J325389D01*
G01*
X206885827Y-140849831D01*
G75*
G02*
X207942052Y-141255278I325389J-730836D01*
G01*
X207942052Y-141255278D01*
G75*
G02*
X207536605Y-142311503I-730836J-325389D01*
G01*
X207536605Y-142311503D01*
G75*
G02*
X206480380Y-141906056I-325389J730836D01*
G01*
G37*
%TD.AperFunction*%
%TO.P,REF\u002A\u002A,1*%
X200250000Y-144680000D03*
%TD*%
%TO.P,REF\u002A\u002A,2*%
%TO.N,N/C*%
%TA.AperFunction,ComponentPad*%
G36*
G01*
X258582565Y-133508040D02*
X258582565Y-133508040D01*
G75*
G02*
X258025452Y-132523345I213791J770904D01*
G01*
X258025452Y-132523345D01*
G75*
G02*
X259010147Y-131966232I770904J-213791D01*
G01*
X259010147Y-131966232D01*
G75*
G02*
X259567260Y-132950927I-213791J-770904D01*
G01*
X259567260Y-132950927D01*
G75*
G02*
X258582565Y-133508040I-770904J213791D01*
G01*
G37*
%TD.AperFunction*%
%TO.P,REF\u002A\u002A,1*%
X256760000Y-140080000D03*
%TD*%
%TO.P,REF\u002A\u002A,1*%
%TO.N,N/C*%
X178690000Y-160920000D03*
%TO.P,REF\u002A\u002A,2*%
%TA.AperFunction,ComponentPad*%
G36*
G01*
X181299901Y-154619142D02*
X181299901Y-154619142D01*
G75*
G02*
X180866944Y-153573891I306147J739104D01*
G01*
X180866944Y-153573891D01*
G75*
G02*
X181912195Y-153140934I739104J-306147D01*
G01*
X181912195Y-153140934D01*
G75*
G02*
X182345152Y-154186185I-306147J-739104D01*
G01*
X182345152Y-154186185D01*
G75*
G02*
X181299901Y-154619142I-739104J306147D01*
G01*
G37*
%TD.AperFunction*%
%TD*%
D13*
%TO.P,REF\u002A\u002A,1*%
%TO.N,N/C*%
X170990000Y-83140000D03*
%TD*%
%TO.P,REF\u002A\u002A,1*%
%TO.N,N/C*%
X253530000Y-59410000D03*
%TD*%
%TO.P,REF\u002A\u002A,2*%
%TO.N,N/C*%
%TA.AperFunction,ComponentPad*%
G36*
G01*
X186089901Y-154409142D02*
X186089901Y-154409142D01*
G75*
G02*
X185656944Y-153363891I306147J739104D01*
G01*
X185656944Y-153363891D01*
G75*
G02*
X186702195Y-152930934I739104J-306147D01*
G01*
X186702195Y-152930934D01*
G75*
G02*
X187135152Y-153976185I-306147J-739104D01*
G01*
X187135152Y-153976185D01*
G75*
G02*
X186089901Y-154409142I-739104J306147D01*
G01*
G37*
%TD.AperFunction*%
D14*
%TO.P,REF\u002A\u002A,1*%
X183480000Y-160710000D03*
%TD*%
%TA.AperFunction,ComponentPad*%
D12*
%TO.P,REF\u002A\u002A,1*%
%TO.N,N/C*%
G36*
X259624185Y-61988925D02*
G01*
X260091075Y-60044185D01*
X262035815Y-60511075D01*
X261568925Y-62455815D01*
X259624185Y-61988925D01*
G37*
%TD.AperFunction*%
%TD*%
D18*
%TO.N,*%
X188140000Y-125030000D02*
X182880000Y-130290000D01*
X246770000Y-129540000D02*
X242540000Y-127300000D01*
X245770000Y-78970000D02*
X245700000Y-67610000D01*
X170990000Y-83140000D02*
X173371206Y-83825707D01*
X216710000Y-86770000D02*
X216710000Y-86700000D01*
X180750000Y-76990000D02*
X179740000Y-81740000D01*
X216320000Y-107890000D02*
X222090000Y-106220000D01*
X191260000Y-124210000D02*
X184260000Y-119050000D01*
X200440000Y-156550000D02*
X205170000Y-155670000D01*
X237310000Y-89100000D02*
X245770000Y-78970000D01*
X254720000Y-102720000D02*
X251800000Y-98750000D01*
X210980000Y-92500000D02*
X216710000Y-86770000D01*
X208920000Y-85870000D02*
X208150000Y-78840000D01*
X177755934Y-94865934D02*
X182540000Y-98590000D01*
X195400000Y-154170000D02*
X196800000Y-147630000D01*
X222090000Y-106220000D02*
X237310000Y-89100000D01*
X182540000Y-98590000D02*
X200850000Y-102000000D01*
X182880000Y-130290000D02*
X182880000Y-130400000D01*
X230500000Y-122010000D02*
X230050000Y-129400000D01*
X249360000Y-85550000D02*
X245480000Y-88470000D01*
X165440000Y-87480000D02*
X170080000Y-90400000D01*
X245700000Y-67610000D02*
X244545707Y-63098794D01*
X253530000Y-59410000D02*
X250340000Y-58150000D01*
X178320000Y-89620000D02*
X177755934Y-94865934D01*
X200850000Y-102000000D02*
X205950000Y-107890000D01*
X200675584Y-159648837D02*
X201170962Y-159697066D01*
X170908555Y-155994860D02*
X171276812Y-156053299D01*
X200180964Y-159593380D02*
X200675584Y-159648837D01*
X182837075Y-156386822D02*
X183209785Y-156413928D01*
X183209785Y-156413928D02*
X183582119Y-156445787D01*
X185066483Y-156620632D02*
X185436029Y-156676161D01*
X201170962Y-159697066D02*
X201666990Y-159738058D01*
X201666990Y-159738058D02*
X202163565Y-159771804D01*
X172386616Y-156192478D02*
X172757900Y-156226784D01*
X186539995Y-156870967D02*
X186906228Y-156945274D01*
X171645974Y-156105724D02*
X172015941Y-156152121D01*
X169446523Y-155701300D02*
X169810187Y-155783623D01*
X168723465Y-155518917D02*
X169084250Y-155613056D01*
X253477703Y-157311797D02*
X253782481Y-157116545D01*
X171276812Y-156053299D02*
X171645974Y-156105724D01*
X170541300Y-155930423D02*
X170908555Y-155994860D01*
X183582119Y-156445787D02*
X183954017Y-156482393D01*
X197722899Y-159208151D02*
X198212157Y-159299537D01*
X169084250Y-155613056D02*
X169446523Y-155701300D01*
X185804836Y-156736399D02*
X186172845Y-156801338D01*
X185436029Y-156676161D02*
X185804836Y-156736399D01*
X202660579Y-159798296D02*
X203157927Y-159817529D01*
X172015941Y-156152121D02*
X172386616Y-156192478D01*
X186172845Y-156801338D02*
X186539995Y-156870967D01*
X199687206Y-159530707D02*
X200180964Y-159593380D01*
X202163565Y-159771804D02*
X202660579Y-159798296D01*
X198702698Y-159383770D02*
X199194415Y-159460832D01*
X198212157Y-159299537D02*
X198702698Y-159383770D01*
X183954017Y-156482393D02*
X184325417Y-156523740D01*
X197235028Y-159109633D02*
X197722899Y-159208151D01*
X184696259Y-156569822D02*
X185066483Y-156620632D01*
X170175145Y-155860004D02*
X170541300Y-155930423D01*
X224000000Y-107310000D02*
X220710000Y-117250000D01*
X253165324Y-157494642D02*
X253477703Y-157311797D01*
X203655502Y-159829498D02*
X204153200Y-159834202D01*
X252845850Y-157664784D02*
X253165324Y-157494642D01*
X254079165Y-156909202D02*
X254367277Y-156690104D01*
X182090769Y-156346886D02*
X182464050Y-156364474D01*
X160564890Y-153318869D02*
X168723465Y-155518917D01*
X184325417Y-156523740D02*
X184696259Y-156569822D01*
X169810187Y-155783623D02*
X170175145Y-155860004D01*
X180970008Y-156322712D02*
X181343687Y-156326003D01*
X203157927Y-159817529D02*
X203655502Y-159829498D01*
X252187687Y-157965883D02*
X252519795Y-157821949D01*
X249017407Y-158634832D02*
X249378961Y-158617771D01*
X181343687Y-156326003D02*
X181717295Y-156334062D01*
X172757900Y-156226784D02*
X173129693Y-156255030D01*
X249739537Y-158586193D02*
X250098553Y-158540150D01*
X175770000Y-91330000D02*
X176330000Y-95360000D01*
X251507468Y-158213150D02*
X251850063Y-158096354D01*
X173129693Y-156255030D02*
X173501898Y-156277208D01*
X173501898Y-156277208D02*
X173874416Y-156293312D01*
X173874416Y-156293312D02*
X174247146Y-156303339D01*
X182464050Y-156364474D02*
X182837075Y-156386822D01*
X174619991Y-156307287D02*
X180970008Y-156322712D01*
X249378961Y-158617771D02*
X249739537Y-158586193D01*
X253782481Y-157116545D02*
X254079165Y-156909202D01*
X174247146Y-156303339D02*
X174619991Y-156307287D01*
X199194415Y-159460832D02*
X199687206Y-159530707D01*
X186906228Y-156945274D02*
X197235028Y-159109633D01*
X247020000Y-79970000D02*
X224000000Y-107310000D01*
X181717295Y-156334062D02*
X182090769Y-156346886D01*
X204153200Y-159834202D02*
X204650913Y-159831639D01*
X204650913Y-159831639D02*
X205148536Y-159821810D01*
X205148536Y-159821810D02*
X249017407Y-158634832D01*
X247250000Y-67590000D02*
X247020000Y-79970000D01*
X250098553Y-158540150D02*
X250455429Y-158479714D01*
X250455429Y-158479714D02*
X250809587Y-158404985D01*
X251850063Y-158096354D02*
X252187687Y-157965883D01*
X182020000Y-99720000D02*
X200100000Y-103340000D01*
X250809587Y-158404985D02*
X251160456Y-158316082D01*
X251160456Y-158316082D02*
X251507468Y-158213150D01*
X252519795Y-157821949D02*
X252845850Y-157664784D01*
X252360000Y-62910000D02*
X247250000Y-67590000D01*
X260830000Y-61250000D02*
X252360000Y-62910000D01*
X220710000Y-117250000D02*
X216320000Y-119290000D01*
X254367277Y-156690104D02*
X257660000Y-154080000D01*
X163640000Y-81240000D02*
X169830000Y-85160000D01*
X169830000Y-85160000D02*
X175770000Y-91330000D01*
X176330000Y-95360000D02*
X182020000Y-99720000D01*
X203360000Y-108630000D02*
X203300000Y-116390000D01*
X203300000Y-116390000D02*
X205950000Y-119290000D01*
X200100000Y-103340000D02*
X203360000Y-108630000D01*
%TD*%
M02*
