%TF.GenerationSoftware,KiCad,Pcbnew,(5.1.6)-1*%
%TF.CreationDate,2020-10-31T12:28:38-05:00*%
%TF.ProjectId,Old Mr Grassi,4f6c6420-4d72-4204-9772-617373692e6b,rev?*%
%TF.SameCoordinates,Original*%
%TF.FileFunction,Soldermask,Top*%
%TF.FilePolarity,Negative*%
%FSLAX46Y46*%
G04 Gerber Fmt 4.6, Leading zero omitted, Abs format (unit mm)*
G04 Created by KiCad (PCBNEW (5.1.6)-1) date 2020-10-31 12:28:38*
%MOMM*%
%LPD*%
G01*
G04 APERTURE LIST*
%ADD10C,5.600000*%
%ADD11C,1.600000*%
%ADD12C,0.100000*%
%ADD13C,2.100000*%
%ADD14C,1.700000*%
%ADD15C,2.230000*%
%ADD16R,2.030000X1.930000*%
%ADD17O,1.700000X1.700000*%
G04 APERTURE END LIST*
D10*
%TO.C,REF\u002A\u002A*%
X208150000Y-78840000D03*
%TD*%
%TO.C,REF\u002A\u002A*%
X182880000Y-130400000D03*
%TD*%
%TO.C,\u002A*%
X251800000Y-98750000D03*
%TD*%
%TO.C,REF\u002A\u002A*%
X230050000Y-129400000D03*
%TD*%
%TO.C,REF\u002A\u002A*%
X245480000Y-88470000D03*
%TD*%
%TO.C,REF\u002A\u002A*%
X216710000Y-86700000D03*
%TD*%
%TO.C,REF\u002A\u002A*%
X170080000Y-90400000D03*
%TD*%
D11*
%TO.C,REF\u002A\u002A*%
X260470000Y-75720000D03*
%TD*%
%TO.C,REF\u002A\u002A*%
X263420000Y-73330000D03*
%TD*%
%TO.C,REF\u002A\u002A*%
X162910000Y-68740000D03*
%TD*%
D10*
%TO.C,REF\u002A\u002A*%
X205170000Y-155670000D03*
%TD*%
%TO.C,REF\u002A\u002A*%
X179740000Y-81740000D03*
%TD*%
D12*
%TO.C,REF\u002A\u002A*%
G36*
X258452994Y-66550577D02*
G01*
X260109423Y-66932994D01*
X259727006Y-68589423D01*
X258070577Y-68207006D01*
X258452994Y-66550577D01*
G37*
G36*
G01*
X250142381Y-72452358D02*
X250142381Y-72452358D01*
G75*
G02*
X250779388Y-73471781I-191208J-828215D01*
G01*
X250779388Y-73471781D01*
G75*
G02*
X249759965Y-74108788I-828215J191208D01*
G01*
X249759965Y-74108788D01*
G75*
G02*
X249122958Y-73089365I191208J828215D01*
G01*
X249122958Y-73089365D01*
G75*
G02*
X250142381Y-72452358I828215J-191208D01*
G01*
G37*
G36*
G01*
X256806308Y-66170409D02*
X256806308Y-66170409D01*
G75*
G02*
X257443315Y-67189832I-191208J-828215D01*
G01*
X257443315Y-67189832D01*
G75*
G02*
X256423892Y-67826839I-828215J191208D01*
G01*
X256423892Y-67826839D01*
G75*
G02*
X255786885Y-66807416I191208J828215D01*
G01*
X255786885Y-66807416D01*
G75*
G02*
X256806308Y-66170409I828215J-191208D01*
G01*
G37*
G36*
G01*
X252617281Y-73023734D02*
X252617281Y-73023734D01*
G75*
G02*
X253254288Y-74043157I-191208J-828215D01*
G01*
X253254288Y-74043157D01*
G75*
G02*
X252234865Y-74680164I-828215J191208D01*
G01*
X252234865Y-74680164D01*
G75*
G02*
X251597858Y-73660741I191208J828215D01*
G01*
X251597858Y-73660741D01*
G75*
G02*
X252617281Y-73023734I828215J-191208D01*
G01*
G37*
G36*
G01*
X254331408Y-65599034D02*
X254331408Y-65599034D01*
G75*
G02*
X254968415Y-66618457I-191208J-828215D01*
G01*
X254968415Y-66618457D01*
G75*
G02*
X253948992Y-67255464I-828215J191208D01*
G01*
X253948992Y-67255464D01*
G75*
G02*
X253311985Y-66236041I191208J828215D01*
G01*
X253311985Y-66236041D01*
G75*
G02*
X254331408Y-65599034I828215J-191208D01*
G01*
G37*
G36*
G01*
X255092181Y-73595109D02*
X255092181Y-73595109D01*
G75*
G02*
X255729188Y-74614532I-191208J-828215D01*
G01*
X255729188Y-74614532D01*
G75*
G02*
X254709765Y-75251539I-828215J191208D01*
G01*
X254709765Y-75251539D01*
G75*
G02*
X254072758Y-74232116I191208J828215D01*
G01*
X254072758Y-74232116D01*
G75*
G02*
X255092181Y-73595109I828215J-191208D01*
G01*
G37*
G36*
G01*
X251856508Y-65027658D02*
X251856508Y-65027658D01*
G75*
G02*
X252493515Y-66047081I-191208J-828215D01*
G01*
X252493515Y-66047081D01*
G75*
G02*
X251474092Y-66684088I-828215J191208D01*
G01*
X251474092Y-66684088D01*
G75*
G02*
X250837085Y-65664665I191208J828215D01*
G01*
X250837085Y-65664665D01*
G75*
G02*
X251856508Y-65027658I828215J-191208D01*
G01*
G37*
G36*
G01*
X257567081Y-74166485D02*
X257567081Y-74166485D01*
G75*
G02*
X258204088Y-75185908I-191208J-828215D01*
G01*
X258204088Y-75185908D01*
G75*
G02*
X257184665Y-75822915I-828215J191208D01*
G01*
X257184665Y-75822915D01*
G75*
G02*
X256547658Y-74803492I191208J828215D01*
G01*
X256547658Y-74803492D01*
G75*
G02*
X257567081Y-74166485I828215J-191208D01*
G01*
G37*
%TD*%
D10*
%TO.C,REF\u002A\u002A*%
X184260000Y-119050000D03*
%TD*%
%TO.C,REF\u002A\u002A*%
X242540000Y-127300000D03*
%TD*%
%TO.C,REF\u002A\u002A*%
X196800000Y-147630000D03*
%TD*%
D11*
%TO.C,REF\u002A\u002A*%
X161360000Y-72160000D03*
%TD*%
D12*
%TO.C,REF\u002A\u002A*%
G36*
X162394638Y-82048748D02*
G01*
X162831252Y-79994638D01*
X164885362Y-80431252D01*
X164448748Y-82485362D01*
X162394638Y-82048748D01*
G37*
%TD*%
%TO.C,REF\u002A\u002A*%
G36*
G01*
X166007218Y-70342320D02*
X166007218Y-70342320D01*
G75*
G02*
X165179759Y-69470361I22250J849709D01*
G01*
X165179759Y-69470361D01*
G75*
G02*
X166051718Y-68642902I849709J-22250D01*
G01*
X166051718Y-68642902D01*
G75*
G02*
X166879177Y-69514861I-22250J-849709D01*
G01*
X166879177Y-69514861D01*
G75*
G02*
X166007218Y-70342320I-849709J22250D01*
G01*
G37*
G36*
G01*
X173425139Y-78159177D02*
X173425139Y-78159177D01*
G75*
G02*
X172597680Y-77287218I22250J849709D01*
G01*
X172597680Y-77287218D01*
G75*
G02*
X173469639Y-76459759I849709J-22250D01*
G01*
X173469639Y-76459759D01*
G75*
G02*
X174297098Y-77331718I-22250J-849709D01*
G01*
X174297098Y-77331718D01*
G75*
G02*
X173425139Y-78159177I-849709J22250D01*
G01*
G37*
G36*
G01*
X168546348Y-70408810D02*
X168546348Y-70408810D01*
G75*
G02*
X167718889Y-69536851I22250J849709D01*
G01*
X167718889Y-69536851D01*
G75*
G02*
X168590848Y-68709392I849709J-22250D01*
G01*
X168590848Y-68709392D01*
G75*
G02*
X169418307Y-69581351I-22250J-849709D01*
G01*
X169418307Y-69581351D01*
G75*
G02*
X168546348Y-70408810I-849709J22250D01*
G01*
G37*
G36*
G01*
X170886009Y-78092688D02*
X170886009Y-78092688D01*
G75*
G02*
X170058550Y-77220729I22250J849709D01*
G01*
X170058550Y-77220729D01*
G75*
G02*
X170930509Y-76393270I849709J-22250D01*
G01*
X170930509Y-76393270D01*
G75*
G02*
X171757968Y-77265229I-22250J-849709D01*
G01*
X171757968Y-77265229D01*
G75*
G02*
X170886009Y-78092688I-849709J22250D01*
G01*
G37*
G36*
G01*
X171085478Y-70475299D02*
X171085478Y-70475299D01*
G75*
G02*
X170258019Y-69603340I22250J849709D01*
G01*
X170258019Y-69603340D01*
G75*
G02*
X171129978Y-68775881I849709J-22250D01*
G01*
X171129978Y-68775881D01*
G75*
G02*
X171957437Y-69647840I-22250J-849709D01*
G01*
X171957437Y-69647840D01*
G75*
G02*
X171085478Y-70475299I-849709J22250D01*
G01*
G37*
G36*
G01*
X168346880Y-78026198D02*
X168346880Y-78026198D01*
G75*
G02*
X167519421Y-77154239I22250J849709D01*
G01*
X167519421Y-77154239D01*
G75*
G02*
X168391380Y-76326780I849709J-22250D01*
G01*
X168391380Y-76326780D01*
G75*
G02*
X169218839Y-77198739I-22250J-849709D01*
G01*
X169218839Y-77198739D01*
G75*
G02*
X168346880Y-78026198I-849709J22250D01*
G01*
G37*
G36*
G01*
X173624607Y-70541789D02*
X173624607Y-70541789D01*
G75*
G02*
X172797148Y-69669830I22250J849709D01*
G01*
X172797148Y-69669830D01*
G75*
G02*
X173669107Y-68842371I849709J-22250D01*
G01*
X173669107Y-68842371D01*
G75*
G02*
X174496566Y-69714330I-22250J-849709D01*
G01*
X174496566Y-69714330D01*
G75*
G02*
X173624607Y-70541789I-849709J22250D01*
G01*
G37*
G36*
X166657458Y-77981959D02*
G01*
X164958041Y-77937458D01*
X165002542Y-76238041D01*
X166701959Y-76282542D01*
X166657458Y-77981959D01*
G37*
%TD*%
D13*
%TO.C,REF\u002A\u002A*%
X230500000Y-122010000D03*
%TD*%
%TO.C,REF\u002A\u002A*%
X180750000Y-76990000D03*
%TD*%
D11*
%TO.C,REF\u002A\u002A*%
X247143136Y-120846843D03*
X248296272Y-118583687D03*
D12*
G36*
X247065998Y-122760387D02*
G01*
X246339613Y-124185998D01*
X244914002Y-123459613D01*
X245640387Y-122034002D01*
X247065998Y-122760387D01*
G37*
%TD*%
D13*
%TO.C,REF\u002A\u002A*%
X188140000Y-125030000D03*
%TD*%
D14*
%TO.C,REF\u002A\u002A*%
X231570000Y-106700000D03*
G36*
G01*
X236601091Y-111230014D02*
X236601091Y-111230014D01*
G75*
G02*
X237801525Y-111167102I631673J-568761D01*
G01*
X237801525Y-111167102D01*
G75*
G02*
X237864437Y-112367536I-568761J-631673D01*
G01*
X237864437Y-112367536D01*
G75*
G02*
X236664003Y-112430448I-631673J568761D01*
G01*
X236664003Y-112430448D01*
G75*
G02*
X236601091Y-111230014I568761J631673D01*
G01*
G37*
%TD*%
D13*
%TO.C,REF\u002A\u002A*%
X249360000Y-85550000D03*
%TD*%
%TO.C,REF\u002A\u002A*%
X191260000Y-124210000D03*
%TD*%
%TO.C,REF\u002A\u002A*%
X210980000Y-92500000D03*
%TD*%
%TO.C,REF\u002A\u002A*%
X195400000Y-154170000D03*
%TD*%
%TO.C,REF\u002A\u002A*%
X200440000Y-156550000D03*
%TD*%
%TO.C,REF\u002A\u002A*%
X254720000Y-102720000D03*
%TD*%
D14*
%TO.C,REF\u002A\u002A*%
X178320000Y-89620000D03*
G36*
G01*
X173923237Y-84472052D02*
X173923237Y-84472052D01*
G75*
G02*
X172724861Y-84377738I-552031J646345D01*
G01*
X172724861Y-84377738D01*
G75*
G02*
X172819175Y-83179362I646345J552031D01*
G01*
X172819175Y-83179362D01*
G75*
G02*
X174017551Y-83273676I552031J-646345D01*
G01*
X174017551Y-83273676D01*
G75*
G02*
X173923237Y-84472052I-646345J-552031D01*
G01*
G37*
%TD*%
%TO.C,REF\u002A\u002A*%
G36*
G01*
X245192052Y-62546763D02*
X245192052Y-62546763D01*
G75*
G02*
X245097738Y-63745139I-646345J-552031D01*
G01*
X245097738Y-63745139D01*
G75*
G02*
X243899362Y-63650825I-552031J646345D01*
G01*
X243899362Y-63650825D01*
G75*
G02*
X243993676Y-62452449I646345J552031D01*
G01*
X243993676Y-62452449D01*
G75*
G02*
X245192052Y-62546763I552031J-646345D01*
G01*
G37*
X250340000Y-58150000D03*
%TD*%
D13*
%TO.C,REF\u002A\u002A*%
X246770000Y-129540000D03*
%TD*%
%TO.C,REF\u002A\u002A*%
X208920000Y-85870000D03*
%TD*%
%TO.C,REF\u002A\u002A*%
X165440000Y-87480000D03*
%TD*%
%TO.C,REF\u002A\u002A*%
G36*
G01*
X228385156Y-89588705D02*
X228385156Y-89588705D01*
G75*
G02*
X229587192Y-89599195I595773J-606263D01*
G01*
X229587192Y-89599195D01*
G75*
G02*
X229576702Y-90801231I-606263J-595773D01*
G01*
X229576702Y-90801231D01*
G75*
G02*
X228374666Y-90790741I-595773J606263D01*
G01*
X228374666Y-90790741D01*
G75*
G02*
X228385156Y-89588705I606263J595773D01*
G01*
G37*
D14*
X223640000Y-84760000D03*
%TD*%
%TO.C,REF\u002A\u002A*%
X221680000Y-87230000D03*
G36*
G01*
X226711091Y-91760014D02*
X226711091Y-91760014D01*
G75*
G02*
X227911525Y-91697102I631673J-568761D01*
G01*
X227911525Y-91697102D01*
G75*
G02*
X227974437Y-92897536I-568761J-631673D01*
G01*
X227974437Y-92897536D01*
G75*
G02*
X226774003Y-92960448I-631673J568761D01*
G01*
X226774003Y-92960448D01*
G75*
G02*
X226711091Y-91760014I568761J631673D01*
G01*
G37*
%TD*%
%TO.C,REF\u002A\u002A*%
G36*
G01*
X224691091Y-94040014D02*
X224691091Y-94040014D01*
G75*
G02*
X225891525Y-93977102I631673J-568761D01*
G01*
X225891525Y-93977102D01*
G75*
G02*
X225954437Y-95177536I-568761J-631673D01*
G01*
X225954437Y-95177536D01*
G75*
G02*
X224754003Y-95240448I-631673J568761D01*
G01*
X224754003Y-95240448D01*
G75*
G02*
X224691091Y-94040014I568761J631673D01*
G01*
G37*
X219660000Y-89510000D03*
%TD*%
%TO.C,REF\u002A\u002A*%
G36*
G01*
X234320014Y-113811091D02*
X234320014Y-113811091D01*
G75*
G02*
X235520448Y-113874003I568761J-631673D01*
G01*
X235520448Y-113874003D01*
G75*
G02*
X235457536Y-115074437I-631673J-568761D01*
G01*
X235457536Y-115074437D01*
G75*
G02*
X234257102Y-115011525I-568761J631673D01*
G01*
X234257102Y-115011525D01*
G75*
G02*
X234320014Y-113811091I631673J568761D01*
G01*
G37*
X229790000Y-108780000D03*
%TD*%
%TO.C,REF\u002A\u002A*%
X217400000Y-92410000D03*
G36*
G01*
X223012584Y-96195736D02*
X223012584Y-96195736D01*
G75*
G02*
X224192580Y-95966368I704682J-475314D01*
G01*
X224192580Y-95966368D01*
G75*
G02*
X224421948Y-97146364I-475314J-704682D01*
G01*
X224421948Y-97146364D01*
G75*
G02*
X223241952Y-97375732I-704682J475314D01*
G01*
X223241952Y-97375732D01*
G75*
G02*
X223012584Y-96195736I475314J704682D01*
G01*
G37*
%TD*%
%TO.C,REF\u002A\u002A*%
X235390000Y-102250000D03*
G36*
G01*
X240935660Y-106133112D02*
X240935660Y-106133112D01*
G75*
G02*
X242119479Y-105924373I696279J-487540D01*
G01*
X242119479Y-105924373D01*
G75*
G02*
X242328218Y-107108192I-487540J-696279D01*
G01*
X242328218Y-107108192D01*
G75*
G02*
X241144399Y-107316931I-696279J487540D01*
G01*
X241144399Y-107316931D01*
G75*
G02*
X240935660Y-106133112I487540J696279D01*
G01*
G37*
%TD*%
%TO.C,REF\u002A\u002A*%
X231530000Y-115550000D03*
G36*
G01*
X227455713Y-120956763D02*
X227455713Y-120956763D01*
G75*
G02*
X227623010Y-122147146I-511543J-678840D01*
G01*
X227623010Y-122147146D01*
G75*
G02*
X226432627Y-122314443I-678840J511543D01*
G01*
X226432627Y-122314443D01*
G75*
G02*
X226265330Y-121124060I511543J678840D01*
G01*
X226265330Y-121124060D01*
G75*
G02*
X227455713Y-120956763I678840J-511543D01*
G01*
G37*
%TD*%
%TO.C,REF\u002A\u002A*%
G36*
G01*
X220683237Y-120445713D02*
X220683237Y-120445713D01*
G75*
G02*
X219492854Y-120613010I-678840J511543D01*
G01*
X219492854Y-120613010D01*
G75*
G02*
X219325557Y-119422627I511543J678840D01*
G01*
X219325557Y-119422627D01*
G75*
G02*
X220515940Y-119255330I678840J-511543D01*
G01*
X220515940Y-119255330D01*
G75*
G02*
X220683237Y-120445713I-511543J-678840D01*
G01*
G37*
X226090000Y-124520000D03*
%TD*%
%TO.C,REF\u002A\u002A*%
G36*
G01*
X184178223Y-113845616D02*
X184178223Y-113845616D01*
G75*
G02*
X184850418Y-114842187I-162188J-834383D01*
G01*
X184850418Y-114842187D01*
G75*
G02*
X183853847Y-115514382I-834383J162188D01*
G01*
X183853847Y-115514382D01*
G75*
G02*
X183181652Y-114517811I162188J834383D01*
G01*
X183181652Y-114517811D01*
G75*
G02*
X184178223Y-113845616I834383J-162188D01*
G01*
G37*
X185470000Y-107200000D03*
%TD*%
%TO.C,REF\u002A\u002A*%
X188390000Y-107970000D03*
G36*
G01*
X187272627Y-114647153D02*
X187272627Y-114647153D01*
G75*
G02*
X187970680Y-115625786I-140290J-838343D01*
G01*
X187970680Y-115625786D01*
G75*
G02*
X186992047Y-116323839I-838343J140290D01*
G01*
X186992047Y-116323839D01*
G75*
G02*
X186293994Y-115345206I140290J838343D01*
G01*
X186293994Y-115345206D01*
G75*
G02*
X187272627Y-114647153I838343J-140290D01*
G01*
G37*
%TD*%
%TO.C,REF\u002A\u002A*%
G36*
G01*
X190476337Y-114972082D02*
X190476337Y-114972082D01*
G75*
G02*
X191208118Y-115925757I-110947J-842728D01*
G01*
X191208118Y-115925757D01*
G75*
G02*
X190254443Y-116657538I-842728J110947D01*
G01*
X190254443Y-116657538D01*
G75*
G02*
X189522662Y-115703863I110947J842728D01*
G01*
X189522662Y-115703863D01*
G75*
G02*
X190476337Y-114972082I842728J-110947D01*
G01*
G37*
X191360000Y-108260000D03*
%TD*%
%TO.C,REF\u002A\u002A*%
X190670000Y-87570000D03*
G36*
G01*
X190021124Y-94308832D02*
X190021124Y-94308832D01*
G75*
G02*
X190785742Y-95236388I-81469J-846087D01*
G01*
X190785742Y-95236388D01*
G75*
G02*
X189858186Y-96001006I-846087J81469D01*
G01*
X189858186Y-96001006D01*
G75*
G02*
X189093568Y-95073450I81469J846087D01*
G01*
X189093568Y-95073450D01*
G75*
G02*
X190021124Y-94308832I846087J-81469D01*
G01*
G37*
%TD*%
%TO.C,REF\u002A\u002A*%
G36*
G01*
X243341562Y-104141359D02*
X243341562Y-104141359D01*
G75*
G02*
X244527158Y-103942959I691998J-493598D01*
G01*
X244527158Y-103942959D01*
G75*
G02*
X244725558Y-105128555I-493598J-691998D01*
G01*
X244725558Y-105128555D01*
G75*
G02*
X243539962Y-105326955I-691998J493598D01*
G01*
X243539962Y-105326955D01*
G75*
G02*
X243341562Y-104141359I493598J691998D01*
G01*
G37*
X237830000Y-100210000D03*
%TD*%
%TO.C,REF\u002A\u002A*%
X197130000Y-88780000D03*
G36*
G01*
X195607081Y-95376485D02*
X195607081Y-95376485D01*
G75*
G02*
X196244088Y-96395908I-191208J-828215D01*
G01*
X196244088Y-96395908D01*
G75*
G02*
X195224665Y-97032915I-828215J191208D01*
G01*
X195224665Y-97032915D01*
G75*
G02*
X194587658Y-96013492I191208J828215D01*
G01*
X194587658Y-96013492D01*
G75*
G02*
X195607081Y-95376485I828215J-191208D01*
G01*
G37*
%TD*%
%TO.C,REF\u002A\u002A*%
G36*
G01*
X192784402Y-94817148D02*
X192784402Y-94817148D01*
G75*
G02*
X193473888Y-95801836I-147601J-837087D01*
G01*
X193473888Y-95801836D01*
G75*
G02*
X192489200Y-96491322I-837087J147601D01*
G01*
X192489200Y-96491322D01*
G75*
G02*
X191799714Y-95506634I147601J837087D01*
G01*
X191799714Y-95506634D01*
G75*
G02*
X192784402Y-94817148I837087J-147601D01*
G01*
G37*
X193960000Y-88150000D03*
%TD*%
%TO.C,REF\u002A\u002A*%
G36*
G01*
X186741124Y-93178832D02*
X186741124Y-93178832D01*
G75*
G02*
X187505742Y-94106388I-81469J-846087D01*
G01*
X187505742Y-94106388D01*
G75*
G02*
X186578186Y-94871006I-846087J81469D01*
G01*
X186578186Y-94871006D01*
G75*
G02*
X185813568Y-93943450I81469J846087D01*
G01*
X185813568Y-93943450D01*
G75*
G02*
X186741124Y-93178832I846087J-81469D01*
G01*
G37*
X187390000Y-86440000D03*
%TD*%
%TO.C,REF\u002A\u002A*%
G36*
G01*
X238597948Y-108866763D02*
X238597948Y-108866763D01*
G75*
G02*
X239796324Y-108772449I646345J-552031D01*
G01*
X239796324Y-108772449D01*
G75*
G02*
X239890638Y-109970825I-552031J-646345D01*
G01*
X239890638Y-109970825D01*
G75*
G02*
X238692262Y-110065139I-646345J552031D01*
G01*
X238692262Y-110065139D01*
G75*
G02*
X238597948Y-108866763I552031J646345D01*
G01*
G37*
X233450000Y-104470000D03*
%TD*%
%TO.C,REF\u002A\u002A*%
G36*
G01*
X198513935Y-96067742D02*
X198513935Y-96067742D01*
G75*
G02*
X199096715Y-97119106I-234292J-817072D01*
G01*
X199096715Y-97119106D01*
G75*
G02*
X198045351Y-97701886I-817072J234292D01*
G01*
X198045351Y-97701886D01*
G75*
G02*
X197462571Y-96650522I234292J817072D01*
G01*
X197462571Y-96650522D01*
G75*
G02*
X198513935Y-96067742I817072J-234292D01*
G01*
G37*
X200380000Y-89560000D03*
%TD*%
%TO.C,REF\u002A\u002A*%
X187290000Y-82240000D03*
G36*
G01*
X181744340Y-86123112D02*
X181744340Y-86123112D01*
G75*
G02*
X181535601Y-87306931I-696279J-487540D01*
G01*
X181535601Y-87306931D01*
G75*
G02*
X180351782Y-87098192I-487540J696279D01*
G01*
X180351782Y-87098192D01*
G75*
G02*
X180560521Y-85914373I696279J487540D01*
G01*
X180560521Y-85914373D01*
G75*
G02*
X181744340Y-86123112I487540J-696279D01*
G01*
G37*
%TD*%
%TO.C,REF\u002A\u002A*%
X182930000Y-106700000D03*
G36*
G01*
X181120797Y-113223778D02*
X181120797Y-113223778D01*
G75*
G02*
X181712730Y-114270017I-227153J-819086D01*
G01*
X181712730Y-114270017D01*
G75*
G02*
X180666491Y-114861950I-819086J227153D01*
G01*
X180666491Y-114861950D01*
G75*
G02*
X180074558Y-113815711I227153J819086D01*
G01*
X180074558Y-113815711D01*
G75*
G02*
X181120797Y-113223778I819086J-227153D01*
G01*
G37*
%TD*%
%TO.C,REF\u002A\u002A*%
X163360000Y-63100000D03*
G36*
G01*
X170098832Y-62451124D02*
X170098832Y-62451124D01*
G75*
G02*
X170863450Y-61523568I846087J81469D01*
G01*
X170863450Y-61523568D01*
G75*
G02*
X171791006Y-62288186I81469J-846087D01*
G01*
X171791006Y-62288186D01*
G75*
G02*
X171026388Y-63215742I-846087J-81469D01*
G01*
X171026388Y-63215742D01*
G75*
G02*
X170098832Y-62451124I-81469J846087D01*
G01*
G37*
%TD*%
%TO.C,REF\u002A\u002A*%
G36*
G01*
X167448832Y-59221124D02*
X167448832Y-59221124D01*
G75*
G02*
X168213450Y-58293568I846087J81469D01*
G01*
X168213450Y-58293568D01*
G75*
G02*
X169141006Y-59058186I81469J-846087D01*
G01*
X169141006Y-59058186D01*
G75*
G02*
X168376388Y-59985742I-846087J-81469D01*
G01*
X168376388Y-59985742D01*
G75*
G02*
X167448832Y-59221124I-81469J846087D01*
G01*
G37*
X160710000Y-59870000D03*
%TD*%
%TO.C,REF\u002A\u002A*%
X187560000Y-64020000D03*
G36*
G01*
X190313607Y-57835298D02*
X190313607Y-57835298D01*
G75*
G02*
X189882819Y-56713058I345726J776514D01*
G01*
X189882819Y-56713058D01*
G75*
G02*
X191005059Y-56282270I776514J-345726D01*
G01*
X191005059Y-56282270D01*
G75*
G02*
X191435847Y-57404510I-345726J-776514D01*
G01*
X191435847Y-57404510D01*
G75*
G02*
X190313607Y-57835298I-776514J345726D01*
G01*
G37*
%TD*%
%TO.C,REF\u002A\u002A*%
G36*
G01*
X172581295Y-58824844D02*
X172581295Y-58824844D01*
G75*
G02*
X171379259Y-58835334I-606263J595773D01*
G01*
X171379259Y-58835334D01*
G75*
G02*
X171368769Y-57633298I595773J606263D01*
G01*
X171368769Y-57633298D01*
G75*
G02*
X172570805Y-57622808I606263J-595773D01*
G01*
X172570805Y-57622808D01*
G75*
G02*
X172581295Y-58824844I-595773J-606263D01*
G01*
G37*
X177410000Y-63570000D03*
%TD*%
%TO.C,REF\u002A\u002A*%
X184860000Y-76120000D03*
G36*
G01*
X179949215Y-71459839D02*
X179949215Y-71459839D01*
G75*
G02*
X178747546Y-71491306I-616568J585101D01*
G01*
X178747546Y-71491306D01*
G75*
G02*
X178716079Y-70289637I585101J616568D01*
G01*
X178716079Y-70289637D01*
G75*
G02*
X179917748Y-70258170I616568J-585101D01*
G01*
X179917748Y-70258170D01*
G75*
G02*
X179949215Y-71459839I-585101J-616568D01*
G01*
G37*
%TD*%
%TO.C,REF\u002A\u002A*%
X254350000Y-107330000D03*
G36*
G01*
X260841209Y-105407216D02*
X260841209Y-105407216D01*
G75*
G02*
X261414793Y-104350806I814997J241413D01*
G01*
X261414793Y-104350806D01*
G75*
G02*
X262471203Y-104924390I241413J-814997D01*
G01*
X262471203Y-104924390D01*
G75*
G02*
X261897619Y-105980800I-814997J-241413D01*
G01*
X261897619Y-105980800D01*
G75*
G02*
X260841209Y-105407216I-241413J814997D01*
G01*
G37*
%TD*%
%TO.C,REF\u002A\u002A*%
X214010000Y-91600000D03*
G36*
G01*
X213655686Y-98360722D02*
X213655686Y-98360722D01*
G75*
G02*
X214460035Y-99254043I-44486J-848835D01*
G01*
X214460035Y-99254043D01*
G75*
G02*
X213566714Y-100058392I-848835J44486D01*
G01*
X213566714Y-100058392D01*
G75*
G02*
X212762365Y-99165071I44486J848835D01*
G01*
X212762365Y-99165071D01*
G75*
G02*
X213655686Y-98360722I848835J-44486D01*
G01*
G37*
%TD*%
%TO.C,REF\u002A\u002A*%
X211630000Y-75870000D03*
G36*
G01*
X216071520Y-80979384D02*
X216071520Y-80979384D01*
G75*
G02*
X217270673Y-81063237I557650J-641503D01*
G01*
X217270673Y-81063237D01*
G75*
G02*
X217186820Y-82262390I-641503J-557650D01*
G01*
X217186820Y-82262390D01*
G75*
G02*
X215987667Y-82178537I-557650J641503D01*
G01*
X215987667Y-82178537D01*
G75*
G02*
X216071520Y-80979384I641503J557650D01*
G01*
G37*
%TD*%
%TO.C,REF\u002A\u002A*%
X233560000Y-79480000D03*
G36*
G01*
X229345575Y-84778257D02*
X229345575Y-84778257D01*
G75*
G02*
X229481655Y-85972611I-529137J-665217D01*
G01*
X229481655Y-85972611D01*
G75*
G02*
X228287301Y-86108691I-665217J529137D01*
G01*
X228287301Y-86108691D01*
G75*
G02*
X228151221Y-84914337I529137J665217D01*
G01*
X228151221Y-84914337D01*
G75*
G02*
X229345575Y-84778257I665217J-529137D01*
G01*
G37*
%TD*%
%TO.C,REF\u002A\u002A*%
G36*
G01*
X184265575Y-69811743D02*
X184265575Y-69811743D01*
G75*
G02*
X183071221Y-69675663I-529137J665217D01*
G01*
X183071221Y-69675663D01*
G75*
G02*
X183207301Y-68481309I665217J529137D01*
G01*
X183207301Y-68481309D01*
G75*
G02*
X184401655Y-68617389I529137J-665217D01*
G01*
X184401655Y-68617389D01*
G75*
G02*
X184265575Y-69811743I-665217J-529137D01*
G01*
G37*
X188480000Y-75110000D03*
%TD*%
%TO.C,REF\u002A\u002A*%
X192620000Y-72800000D03*
G36*
G01*
X191039575Y-66217055D02*
X191039575Y-66217055D01*
G75*
G02*
X190014632Y-65588970I-198429J826514D01*
G01*
X190014632Y-65588970D01*
G75*
G02*
X190642717Y-64564027I826514J198429D01*
G01*
X190642717Y-64564027D01*
G75*
G02*
X191667660Y-65192112I198429J-826514D01*
G01*
X191667660Y-65192112D01*
G75*
G02*
X191039575Y-66217055I-826514J-198429D01*
G01*
G37*
%TD*%
%TO.C,REF\u002A\u002A*%
G36*
G01*
X205232446Y-75521285D02*
X205232446Y-75521285D01*
G75*
G02*
X205502856Y-76692557I-450431J-720841D01*
G01*
X205502856Y-76692557D01*
G75*
G02*
X204331584Y-76962967I-720841J450431D01*
G01*
X204331584Y-76962967D01*
G75*
G02*
X204061174Y-75791695I450431J720841D01*
G01*
X204061174Y-75791695D01*
G75*
G02*
X205232446Y-75521285I720841J-450431D01*
G01*
G37*
X208820000Y-69780000D03*
%TD*%
%TO.C,REF\u002A\u002A*%
X212210000Y-57940000D03*
G36*
G01*
X205868729Y-60310904D02*
X205868729Y-60310904D01*
G75*
G02*
X205370234Y-61404751I-796171J-297676D01*
G01*
X205370234Y-61404751D01*
G75*
G02*
X204276387Y-60906256I-297676J796171D01*
G01*
X204276387Y-60906256D01*
G75*
G02*
X204774882Y-59812409I796171J297676D01*
G01*
X204774882Y-59812409D01*
G75*
G02*
X205868729Y-60310904I297676J-796171D01*
G01*
G37*
%TD*%
%TO.C,REF\u002A\u002A*%
X213280000Y-64530000D03*
G36*
G01*
X211187955Y-70968653D02*
X211187955Y-70968653D01*
G75*
G02*
X211733689Y-72039715I-262664J-808398D01*
G01*
X211733689Y-72039715D01*
G75*
G02*
X210662627Y-72585449I-808398J262664D01*
G01*
X210662627Y-72585449D01*
G75*
G02*
X210116893Y-71514387I262664J808398D01*
G01*
X210116893Y-71514387D01*
G75*
G02*
X211187955Y-70968653I808398J-262664D01*
G01*
G37*
%TD*%
%TO.C,REF\u002A\u002A*%
G36*
G01*
X210126482Y-89083615D02*
X210126482Y-89083615D01*
G75*
G02*
X210874795Y-88142856I844536J96223D01*
G01*
X210874795Y-88142856D01*
G75*
G02*
X211815554Y-88891169I96223J-844536D01*
G01*
X211815554Y-88891169D01*
G75*
G02*
X211067241Y-89831928I-844536J-96223D01*
G01*
X211067241Y-89831928D01*
G75*
G02*
X210126482Y-89083615I-96223J844536D01*
G01*
G37*
X203400000Y-89850000D03*
%TD*%
%TO.C,REF\u002A\u002A*%
G36*
G01*
X218351359Y-78211562D02*
X218351359Y-78211562D01*
G75*
G02*
X219536955Y-78409962I493598J-691998D01*
G01*
X219536955Y-78409962D01*
G75*
G02*
X219338555Y-79595558I-691998J-493598D01*
G01*
X219338555Y-79595558D01*
G75*
G02*
X218152959Y-79397158I-493598J691998D01*
G01*
X218152959Y-79397158D01*
G75*
G02*
X218351359Y-78211562I691998J493598D01*
G01*
G37*
X214420000Y-72700000D03*
%TD*%
%TO.C,REF\u002A\u002A*%
G36*
G01*
X217520797Y-62223778D02*
X217520797Y-62223778D01*
G75*
G02*
X218112730Y-63270017I-227153J-819086D01*
G01*
X218112730Y-63270017D01*
G75*
G02*
X217066491Y-63861950I-819086J227153D01*
G01*
X217066491Y-63861950D01*
G75*
G02*
X216474558Y-62815711I227153J819086D01*
G01*
X216474558Y-62815711D01*
G75*
G02*
X217520797Y-62223778I819086J-227153D01*
G01*
G37*
X219330000Y-55700000D03*
%TD*%
%TO.C,REF\u002A\u002A*%
X234830000Y-57510000D03*
G36*
G01*
X230042887Y-62297113D02*
X230042887Y-62297113D01*
G75*
G02*
X230042887Y-63499195I-601041J-601041D01*
G01*
X230042887Y-63499195D01*
G75*
G02*
X228840805Y-63499195I-601041J601041D01*
G01*
X228840805Y-63499195D01*
G75*
G02*
X228840805Y-62297113I601041J601041D01*
G01*
X228840805Y-62297113D01*
G75*
G02*
X230042887Y-62297113I601041J-601041D01*
G01*
G37*
%TD*%
%TO.C,REF\u002A\u002A*%
G36*
G01*
X239518722Y-62780499D02*
X239518722Y-62780499D01*
G75*
G02*
X239393070Y-63975995I-660574J-534922D01*
G01*
X239393070Y-63975995D01*
G75*
G02*
X238197574Y-63850343I-534922J660574D01*
G01*
X238197574Y-63850343D01*
G75*
G02*
X238323226Y-62654847I660574J534922D01*
G01*
X238323226Y-62654847D01*
G75*
G02*
X239518722Y-62780499I534922J-660574D01*
G01*
G37*
X244780000Y-58520000D03*
%TD*%
%TO.C,REF\u002A\u002A*%
X249680000Y-62730000D03*
G36*
G01*
X244381743Y-66944425D02*
X244381743Y-66944425D01*
G75*
G02*
X244245663Y-68138779I-665217J-529137D01*
G01*
X244245663Y-68138779D01*
G75*
G02*
X243051309Y-68002699I-529137J665217D01*
G01*
X243051309Y-68002699D01*
G75*
G02*
X243187389Y-66808345I665217J529137D01*
G01*
X243187389Y-66808345D01*
G75*
G02*
X244381743Y-66944425I529137J-665217D01*
G01*
G37*
%TD*%
%TO.C,REF\u002A\u002A*%
G36*
G01*
X244146292Y-76467692D02*
X244146292Y-76467692D01*
G75*
G02*
X242987930Y-76146450I-418560J739802D01*
G01*
X242987930Y-76146450D01*
G75*
G02*
X243309172Y-74988088I739802J418560D01*
G01*
X243309172Y-74988088D01*
G75*
G02*
X244467534Y-75309330I418560J-739802D01*
G01*
X244467534Y-75309330D01*
G75*
G02*
X244146292Y-76467692I-739802J-418560D01*
G01*
G37*
X247480000Y-82360000D03*
%TD*%
%TO.C,REF\u002A\u002A*%
G36*
G01*
X206585429Y-68049335D02*
X206585429Y-68049335D01*
G75*
G02*
X206804491Y-69231287I-481445J-700507D01*
G01*
X206804491Y-69231287D01*
G75*
G02*
X205622539Y-69450349I-700507J481445D01*
G01*
X205622539Y-69450349D01*
G75*
G02*
X205403477Y-68268397I481445J700507D01*
G01*
X205403477Y-68268397D01*
G75*
G02*
X206585429Y-68049335I700507J-481445D01*
G01*
G37*
X210420000Y-62470000D03*
%TD*%
%TO.C,REF\u002A\u002A*%
X250280000Y-82240000D03*
G36*
G01*
X256999538Y-83065055D02*
X256999538Y-83065055D01*
G75*
G02*
X257946791Y-82324980I843664J-103589D01*
G01*
X257946791Y-82324980D01*
G75*
G02*
X258686866Y-83272233I-103589J-843664D01*
G01*
X258686866Y-83272233D01*
G75*
G02*
X257739613Y-84012308I-843664J103589D01*
G01*
X257739613Y-84012308D01*
G75*
G02*
X256999538Y-83065055I103589J843664D01*
G01*
G37*
%TD*%
%TO.C,REF\u002A\u002A*%
G36*
G01*
X259149538Y-87275055D02*
X259149538Y-87275055D01*
G75*
G02*
X260096791Y-86534980I843664J-103589D01*
G01*
X260096791Y-86534980D01*
G75*
G02*
X260836866Y-87482233I-103589J-843664D01*
G01*
X260836866Y-87482233D01*
G75*
G02*
X259889613Y-88222308I-843664J103589D01*
G01*
X259889613Y-88222308D01*
G75*
G02*
X259149538Y-87275055I103589J843664D01*
G01*
G37*
X252430000Y-86450000D03*
%TD*%
%TO.C,REF\u002A\u002A*%
X252440000Y-90240000D03*
G36*
G01*
X258149760Y-93877518D02*
X258149760Y-93877518D01*
G75*
G02*
X259323348Y-93617340I716883J-456705D01*
G01*
X259323348Y-93617340D01*
G75*
G02*
X259583526Y-94790928I-456705J-716883D01*
G01*
X259583526Y-94790928D01*
G75*
G02*
X258409938Y-95051106I-716883J456705D01*
G01*
X258409938Y-95051106D01*
G75*
G02*
X258149760Y-93877518I456705J716883D01*
G01*
G37*
%TD*%
%TO.C,REF\u002A\u002A*%
G36*
G01*
X232572887Y-74977113D02*
X232572887Y-74977113D01*
G75*
G02*
X232572887Y-76179195I-601041J-601041D01*
G01*
X232572887Y-76179195D01*
G75*
G02*
X231370805Y-76179195I-601041J601041D01*
G01*
X231370805Y-76179195D01*
G75*
G02*
X231370805Y-74977113I601041J601041D01*
G01*
X231370805Y-74977113D01*
G75*
G02*
X232572887Y-74977113I601041J-601041D01*
G01*
G37*
X237360000Y-70190000D03*
%TD*%
%TO.C,REF\u002A\u002A*%
G36*
G01*
X248149062Y-105416650D02*
X248149062Y-105416650D01*
G75*
G02*
X249121566Y-106123216I132969J-839535D01*
G01*
X249121566Y-106123216D01*
G75*
G02*
X248415000Y-107095720I-839535J-132969D01*
G01*
X248415000Y-107095720D01*
G75*
G02*
X247442496Y-106389154I-132969J839535D01*
G01*
X247442496Y-106389154D01*
G75*
G02*
X248149062Y-105416650I839535J132969D01*
G01*
G37*
X247090000Y-98730000D03*
%TD*%
%TO.C,REF\u002A\u002A*%
X254230000Y-115750000D03*
G36*
G01*
X260949538Y-116575055D02*
X260949538Y-116575055D01*
G75*
G02*
X261896791Y-115834980I843664J-103589D01*
G01*
X261896791Y-115834980D01*
G75*
G02*
X262636866Y-116782233I-103589J-843664D01*
G01*
X262636866Y-116782233D01*
G75*
G02*
X261689613Y-117522308I-843664J103589D01*
G01*
X261689613Y-117522308D01*
G75*
G02*
X260949538Y-116575055I103589J843664D01*
G01*
G37*
%TD*%
%TO.C,REF\u002A\u002A*%
G36*
G01*
X255490503Y-132104561D02*
X255490503Y-132104561D01*
G75*
G02*
X256623634Y-131703298I767197J-365934D01*
G01*
X256623634Y-131703298D01*
G75*
G02*
X257024897Y-132836429I-365934J-767197D01*
G01*
X257024897Y-132836429D01*
G75*
G02*
X255891766Y-133237692I-767197J365934D01*
G01*
X255891766Y-133237692D01*
G75*
G02*
X255490503Y-132104561I365934J767197D01*
G01*
G37*
X249380000Y-129190000D03*
%TD*%
%TO.C,REF\u002A\u002A*%
G36*
G01*
X238170365Y-127609591D02*
X238170365Y-127609591D01*
G75*
G02*
X239322945Y-127951001I405585J-746995D01*
G01*
X239322945Y-127951001D01*
G75*
G02*
X238981535Y-129103581I-746995J-405585D01*
G01*
X238981535Y-129103581D01*
G75*
G02*
X237828955Y-128762171I-405585J746995D01*
G01*
X237828955Y-128762171D01*
G75*
G02*
X238170365Y-127609591I746995J405585D01*
G01*
G37*
X234940000Y-121660000D03*
%TD*%
%TO.C,REF\u002A\u002A*%
G36*
G01*
X241698832Y-134651124D02*
X241698832Y-134651124D01*
G75*
G02*
X242463450Y-133723568I846087J81469D01*
G01*
X242463450Y-133723568D01*
G75*
G02*
X243391006Y-134488186I81469J-846087D01*
G01*
X243391006Y-134488186D01*
G75*
G02*
X242626388Y-135415742I-846087J-81469D01*
G01*
X242626388Y-135415742D01*
G75*
G02*
X241698832Y-134651124I-81469J846087D01*
G01*
G37*
X234960000Y-135300000D03*
%TD*%
%TO.C,REF\u002A\u002A*%
X223990000Y-140570000D03*
G36*
G01*
X226635250Y-146801818D02*
X226635250Y-146801818D01*
G75*
G02*
X227749800Y-147252126I332121J-782429D01*
G01*
X227749800Y-147252126D01*
G75*
G02*
X227299492Y-148366676I-782429J-332121D01*
G01*
X227299492Y-148366676D01*
G75*
G02*
X226184942Y-147916368I-332121J782429D01*
G01*
X226184942Y-147916368D01*
G75*
G02*
X226635250Y-146801818I782429J332121D01*
G01*
G37*
%TD*%
%TO.C,REF\u002A\u002A*%
X245520000Y-132120000D03*
G36*
G01*
X251578706Y-135140759D02*
X251578706Y-135140759D01*
G75*
G02*
X252718668Y-134759333I760694J-379268D01*
G01*
X252718668Y-134759333D01*
G75*
G02*
X253100094Y-135899295I-379268J-760694D01*
G01*
X253100094Y-135899295D01*
G75*
G02*
X251960132Y-136280721I-760694J379268D01*
G01*
X251960132Y-136280721D01*
G75*
G02*
X251578706Y-135140759I379268J760694D01*
G01*
G37*
%TD*%
%TO.C,REF\u002A\u002A*%
X242710000Y-151200000D03*
G36*
G01*
X249111161Y-153404096D02*
X249111161Y-153404096D01*
G75*
G02*
X250191585Y-152877138I803691J-276733D01*
G01*
X250191585Y-152877138D01*
G75*
G02*
X250718543Y-153957562I-276733J-803691D01*
G01*
X250718543Y-153957562D01*
G75*
G02*
X249638119Y-154484520I-803691J276733D01*
G01*
X249638119Y-154484520D01*
G75*
G02*
X249111161Y-153404096I276733J803691D01*
G01*
G37*
%TD*%
%TO.C,REF\u002A\u002A*%
G36*
G01*
X236605064Y-151166038D02*
X236605064Y-151166038D01*
G75*
G02*
X237751509Y-150804565I753959J-392486D01*
G01*
X237751509Y-150804565D01*
G75*
G02*
X238112982Y-151951010I-392486J-753959D01*
G01*
X238112982Y-151951010D01*
G75*
G02*
X236966537Y-152312483I-753959J392486D01*
G01*
X236966537Y-152312483D01*
G75*
G02*
X236605064Y-151166038I392486J753959D01*
G01*
G37*
X230600000Y-148040000D03*
%TD*%
%TO.C,REF\u002A\u002A*%
X233780000Y-131910000D03*
G36*
G01*
X240533509Y-131437749D02*
X240533509Y-131437749D01*
G75*
G02*
X241322145Y-130530527I847929J59293D01*
G01*
X241322145Y-130530527D01*
G75*
G02*
X242229367Y-131319163I59293J-847929D01*
G01*
X242229367Y-131319163D01*
G75*
G02*
X241440731Y-132226385I-847929J-59293D01*
G01*
X241440731Y-132226385D01*
G75*
G02*
X240533509Y-131437749I-59293J847929D01*
G01*
G37*
%TD*%
%TO.C,REF\u002A\u002A*%
G36*
G01*
X252996034Y-152803229D02*
X252996034Y-152803229D01*
G75*
G02*
X254159827Y-153104206I431408J-732385D01*
G01*
X254159827Y-153104206D01*
G75*
G02*
X253858850Y-154267999I-732385J-431408D01*
G01*
X253858850Y-154267999D01*
G75*
G02*
X252695057Y-153967022I-431408J732385D01*
G01*
X252695057Y-153967022D01*
G75*
G02*
X252996034Y-152803229I732385J431408D01*
G01*
G37*
X249560000Y-146970000D03*
%TD*%
%TO.C,REF\u002A\u002A*%
X238650000Y-154880000D03*
G36*
G01*
X245336650Y-155939062D02*
X245336650Y-155939062D01*
G75*
G02*
X246309154Y-155232496I839535J-132969D01*
G01*
X246309154Y-155232496D01*
G75*
G02*
X247015720Y-156205000I-132969J-839535D01*
G01*
X247015720Y-156205000D01*
G75*
G02*
X246043216Y-156911566I-839535J132969D01*
G01*
X246043216Y-156911566D01*
G75*
G02*
X245336650Y-155939062I132969J839535D01*
G01*
G37*
%TD*%
%TO.C,REF\u002A\u002A*%
X262140000Y-140520000D03*
G36*
G01*
X262317218Y-133752320D02*
X262317218Y-133752320D01*
G75*
G02*
X261489759Y-132880361I22250J849709D01*
G01*
X261489759Y-132880361D01*
G75*
G02*
X262361718Y-132052902I849709J-22250D01*
G01*
X262361718Y-132052902D01*
G75*
G02*
X263189177Y-132924861I-22250J-849709D01*
G01*
X263189177Y-132924861D01*
G75*
G02*
X262317218Y-133752320I-849709J22250D01*
G01*
G37*
%TD*%
%TO.C,REF\u002A\u002A*%
G36*
G01*
X260165638Y-109959330D02*
X260165638Y-109959330D01*
G75*
G02*
X260880663Y-108993029I840663J125638D01*
G01*
X260880663Y-108993029D01*
G75*
G02*
X261846964Y-109708054I125638J-840663D01*
G01*
X261846964Y-109708054D01*
G75*
G02*
X261131939Y-110674355I-840663J-125638D01*
G01*
X261131939Y-110674355D01*
G75*
G02*
X260165638Y-109959330I-125638J840663D01*
G01*
G37*
X253470000Y-110960000D03*
%TD*%
D12*
%TO.C,REF\u002A\u002A*%
G36*
X201747006Y-74430360D02*
G01*
X203339640Y-74277006D01*
X203492994Y-75869640D01*
X201900360Y-76022994D01*
X201747006Y-74430360D01*
G37*
D11*
X197563387Y-75636896D03*
X200091694Y-75393448D03*
%TD*%
D12*
%TO.C,REF\u002A\u002A*%
G36*
X182127062Y-89752121D02*
G01*
X183387879Y-88767062D01*
X184372938Y-90027879D01*
X183112121Y-91012938D01*
X182127062Y-89752121D01*
G37*
D11*
X179246905Y-93017560D03*
X181248453Y-91453780D03*
%TD*%
D12*
%TO.C,REF\u002A\u002A*%
G36*
X244112347Y-98133430D02*
G01*
X244362642Y-99713731D01*
X242782341Y-99964026D01*
X242532046Y-98383725D01*
X244112347Y-98133430D01*
G37*
D11*
X242652657Y-94031271D03*
X243050000Y-96540000D03*
%TD*%
%TO.C,REF\u002A\u002A*%
X216888204Y-123109150D03*
X214846407Y-121598300D03*
D12*
G36*
X218762773Y-123501056D02*
G01*
X220048944Y-124452773D01*
X219097227Y-125738944D01*
X217811056Y-124787227D01*
X218762773Y-123501056D01*
G37*
%TD*%
%TO.C,REF\u002A\u002A*%
G36*
X241842085Y-146984732D02*
G01*
X240245069Y-147082410D01*
X240147391Y-145485394D01*
X241744407Y-145387716D01*
X241842085Y-146984732D01*
G37*
D11*
X246065263Y-145924936D03*
X243530000Y-146080000D03*
%TD*%
%TO.C,REF\u002A\u002A*%
X243759613Y-140144329D03*
X246299226Y-140188658D03*
D12*
G36*
X242005916Y-140913840D02*
G01*
X240406160Y-140885916D01*
X240434084Y-139286160D01*
X242033840Y-139314084D01*
X242005916Y-140913840D01*
G37*
%TD*%
%TO.C,REF\u002A\u002A*%
G36*
X247922161Y-111860516D02*
G01*
X248005898Y-110262709D01*
X249603705Y-110346446D01*
X249519968Y-111944253D01*
X247922161Y-111860516D01*
G37*
D11*
X248497066Y-116176519D03*
X248630000Y-113640000D03*
%TD*%
D12*
%TO.C,REF\u002A\u002A*%
G36*
X228441662Y-141249732D02*
G01*
X227740268Y-139811662D01*
X229178338Y-139110268D01*
X229879732Y-140548338D01*
X228441662Y-141249732D01*
G37*
D11*
X231036925Y-144745874D03*
X229923463Y-142462937D03*
%TD*%
%TO.C,REF\u002A\u002A*%
X228810000Y-152440000D03*
X228109881Y-149998396D03*
D12*
G36*
X230058618Y-153892086D02*
G01*
X230499638Y-155430104D01*
X228961620Y-155871124D01*
X228520600Y-154333106D01*
X230058618Y-153892086D01*
G37*
%TD*%
D11*
%TO.C,REF\u002A\u002A*%
X224332165Y-66560097D03*
X224354331Y-64020193D03*
D12*
G36*
X225116951Y-68307012D02*
G01*
X225102988Y-69906951D01*
X223503049Y-69892988D01*
X223517012Y-68293049D01*
X225116951Y-68307012D01*
G37*
%TD*%
D15*
%TO.C,REF\u002A\u002A*%
X216320000Y-116190000D03*
D16*
X216320000Y-119290000D03*
D15*
X216320000Y-107890000D03*
%TD*%
D14*
%TO.C,REF\u002A\u002A*%
X228464710Y-72389801D03*
X221640000Y-75500000D03*
%TD*%
%TO.C,REF\u002A\u002A*%
X253640000Y-119130000D03*
X250470363Y-125927308D03*
%TD*%
D11*
%TO.C,REF\u002A\u002A*%
X194557542Y-62857313D03*
X193365084Y-60614626D03*
D12*
G36*
X196080781Y-64018065D02*
G01*
X196831935Y-65430781D01*
X195419219Y-66181935D01*
X194668065Y-64769219D01*
X196080781Y-64018065D01*
G37*
%TD*%
D15*
%TO.C,REF\u002A\u002A*%
X205950000Y-107890000D03*
D16*
X205950000Y-119290000D03*
D15*
X205950000Y-116190000D03*
%TD*%
D10*
%TO.C,GROUND*%
X257660000Y-154080000D03*
%TD*%
D12*
%TO.C,REF\u002A\u002A*%
G36*
X255426214Y-126949724D02*
G01*
X253970276Y-126286214D01*
X254633786Y-124830276D01*
X256089724Y-125493786D01*
X255426214Y-126949724D01*
G37*
D11*
X259652603Y-127996642D03*
X257341302Y-126943321D03*
%TD*%
D12*
%TO.C,REF\u002A\u002A*%
G36*
X176305351Y-110687353D02*
G01*
X177772647Y-111325351D01*
X177134649Y-112792647D01*
X175667353Y-112154649D01*
X176305351Y-110687353D01*
G37*
D11*
X172061335Y-109714355D03*
X174390667Y-110727177D03*
%TD*%
%TO.C,REF\u002A\u002A*%
X217252656Y-100868728D03*
X216855313Y-103377457D03*
D12*
G36*
X216734702Y-99025003D02*
G01*
X216984997Y-97444702D01*
X218565298Y-97694997D01*
X218315003Y-99275298D01*
X216734702Y-99025003D01*
G37*
%TD*%
D11*
%TO.C,REF\u002A\u002A*%
X259510296Y-121540000D03*
X261710000Y-122810000D03*
D12*
G36*
X257603411Y-121362820D02*
G01*
X256217771Y-120562820D01*
X257017771Y-119177180D01*
X258403411Y-119977180D01*
X257603411Y-121362820D01*
G37*
%TD*%
D11*
%TO.C,REF\u002A\u002A*%
X193152687Y-78107542D03*
X195395374Y-76915084D03*
D12*
G36*
X191991935Y-79630781D02*
G01*
X190579219Y-80381935D01*
X189828065Y-78969219D01*
X191240781Y-78218065D01*
X191991935Y-79630781D01*
G37*
%TD*%
%TO.C,REF\u002A\u002A*%
G36*
X196562647Y-113024649D02*
G01*
X195095351Y-113662647D01*
X194457353Y-112195351D01*
X195924649Y-111557353D01*
X196562647Y-113024649D01*
G37*
D11*
X200168665Y-110584355D03*
X197839333Y-111597177D03*
%TD*%
D12*
%TO.C,REF\u002A\u002A*%
G36*
X227280584Y-81774124D02*
G01*
X226385876Y-83100584D01*
X225059416Y-82205876D01*
X225954124Y-80879416D01*
X227280584Y-81774124D01*
G37*
D11*
X229010700Y-77778489D03*
X227590350Y-79884245D03*
%TD*%
%TO.C,REF\u002A\u002A*%
X237770000Y-75970000D03*
X235702146Y-77444985D03*
D12*
G36*
X238721998Y-74308284D02*
G01*
X240024583Y-73379159D01*
X240953708Y-74681744D01*
X239651123Y-75610869D01*
X238721998Y-74308284D01*
G37*
%TD*%
%TO.C,REF\u002A\u002A*%
G36*
X231551328Y-69949873D02*
G01*
X230410127Y-71071328D01*
X229288672Y-69930127D01*
X230429873Y-68808672D01*
X231551328Y-69949873D01*
G37*
D11*
X234043312Y-66379381D03*
X232231656Y-68159690D03*
%TD*%
D12*
%TO.C,REF\u002A\u002A*%
G36*
X201099640Y-63197006D02*
G01*
X201252994Y-64789640D01*
X199660360Y-64942994D01*
X199507006Y-63350360D01*
X201099640Y-63197006D01*
G37*
D11*
X199893104Y-59013387D03*
X200136552Y-61541694D03*
%TD*%
%TO.C,REF\u002A\u002A*%
X167720000Y-103440000D03*
X170184551Y-104054481D03*
D12*
G36*
X165838148Y-103795292D02*
G01*
X164285675Y-103408217D01*
X164672750Y-101855744D01*
X166225223Y-102242819D01*
X165838148Y-103795292D01*
G37*
%TD*%
D11*
%TO.C,REF\u002A\u002A*%
X164848934Y-122701412D03*
X164407867Y-125202823D03*
D12*
G36*
X164363235Y-120848928D02*
G01*
X164641072Y-119273235D01*
X166216765Y-119551072D01*
X165938928Y-121126765D01*
X164363235Y-120848928D01*
G37*
%TD*%
%TO.C,REF\u002A\u002A*%
G36*
X170617626Y-122394503D02*
G01*
X171465497Y-121037626D01*
X172822374Y-121885497D01*
X171974503Y-123242374D01*
X170617626Y-122394503D01*
G37*
D11*
X169028010Y-126448084D03*
X170374005Y-124294042D03*
%TD*%
D14*
%TO.C,REF\u002A\u002A*%
X160749631Y-141034050D03*
D12*
G36*
X164205748Y-141049898D02*
G01*
X163780102Y-142695748D01*
X162134252Y-142270102D01*
X162559898Y-140624252D01*
X164205748Y-141049898D01*
G37*
%TD*%
D14*
%TO.C,REF\u002A\u002A*%
X173520000Y-66670000D03*
X166020000Y-66670000D03*
%TD*%
%TO.C,REF\u002A\u002A*%
X167206058Y-149142361D03*
X159820000Y-147840000D03*
%TD*%
%TO.C,REF\u002A\u002A*%
X221500000Y-153860000D03*
X219244707Y-146707123D03*
%TD*%
%TO.C,REF\u002A\u002A*%
X240461557Y-114413120D03*
X241050000Y-121890000D03*
%TD*%
%TO.C,REF\u002A\u002A*%
X179770000Y-59300000D03*
X185798926Y-54838829D03*
%TD*%
%TO.C,REF\u002A\u002A*%
X261410000Y-97070000D03*
X265046072Y-103629648D03*
%TD*%
%TO.C,REF\u002A\u002A*%
X235871157Y-146965471D03*
X236590000Y-139500000D03*
%TD*%
%TO.C,REF\u002A\u002A*%
X256287775Y-78967133D03*
X248980000Y-77280000D03*
%TD*%
%TO.C,REF\u002A\u002A*%
X241590000Y-81430000D03*
X236523073Y-86959580D03*
%TD*%
%TO.C,REF\u002A\u002A*%
X203440000Y-80940000D03*
X197185856Y-85079527D03*
%TD*%
%TO.C,REF\u002A\u002A*%
X220050000Y-138650000D03*
G36*
G01*
X226573778Y-136840797D02*
X226573778Y-136840797D01*
G75*
G02*
X227165711Y-135794558I819086J227153D01*
G01*
X227165711Y-135794558D01*
G75*
G02*
X228211950Y-136386491I227153J-819086D01*
G01*
X228211950Y-136386491D01*
G75*
G02*
X227620017Y-137432730I-819086J-227153D01*
G01*
X227620017Y-137432730D01*
G75*
G02*
X226573778Y-136840797I-227153J819086D01*
G01*
G37*
%TD*%
%TO.C,REF\u002A\u002A*%
X218410000Y-133290000D03*
G36*
G01*
X224664664Y-130699233D02*
X224664664Y-130699233D01*
G75*
G02*
X225124681Y-129588654I785298J325281D01*
G01*
X225124681Y-129588654D01*
G75*
G02*
X226235260Y-130048671I325281J-785298D01*
G01*
X226235260Y-130048671D01*
G75*
G02*
X225775243Y-131159250I-785298J-325281D01*
G01*
X225775243Y-131159250D01*
G75*
G02*
X224664664Y-130699233I-325281J785298D01*
G01*
G37*
%TD*%
%TO.C,REF\u002A\u002A*%
G36*
G01*
X223644664Y-127769233D02*
X223644664Y-127769233D01*
G75*
G02*
X224104681Y-126658654I785298J325281D01*
G01*
X224104681Y-126658654D01*
G75*
G02*
X225215260Y-127118671I325281J-785298D01*
G01*
X225215260Y-127118671D01*
G75*
G02*
X224755243Y-128229250I-785298J-325281D01*
G01*
X224755243Y-128229250D01*
G75*
G02*
X223644664Y-127769233I-325281J785298D01*
G01*
G37*
X217390000Y-130360000D03*
%TD*%
%TO.C,REF\u002A\u002A*%
X187356214Y-132909517D03*
X194260000Y-135840000D03*
%TD*%
%TO.C,REF\u002A\u002A*%
G36*
G01*
X212151185Y-143751739D02*
X212151185Y-143751739D01*
G75*
G02*
X211620459Y-144830317I-804652J-273926D01*
G01*
X211620459Y-144830317D01*
G75*
G02*
X210541881Y-144299591I-273926J804652D01*
G01*
X210541881Y-144299591D01*
G75*
G02*
X211072607Y-143221013I804652J273926D01*
G01*
X211072607Y-143221013D01*
G75*
G02*
X212151185Y-143751739I273926J-804652D01*
G01*
G37*
G36*
G01*
X213634768Y-124464650D02*
X213634768Y-124464650D01*
G75*
G02*
X213104042Y-125543228I-804652J-273926D01*
G01*
X213104042Y-125543228D01*
G75*
G02*
X212025464Y-125012502I-273926J804652D01*
G01*
X212025464Y-125012502D01*
G75*
G02*
X212556190Y-123933924I804652J273926D01*
G01*
X212556190Y-123933924D01*
G75*
G02*
X213634768Y-124464650I273926J-804652D01*
G01*
G37*
G36*
G01*
X211332630Y-141347249D02*
X211332630Y-141347249D01*
G75*
G02*
X210801904Y-142425827I-804652J-273926D01*
G01*
X210801904Y-142425827D01*
G75*
G02*
X209723326Y-141895101I-273926J804652D01*
G01*
X209723326Y-141895101D01*
G75*
G02*
X210254052Y-140816523I804652J273926D01*
G01*
X210254052Y-140816523D01*
G75*
G02*
X211332630Y-141347249I273926J-804652D01*
G01*
G37*
G36*
G01*
X214453323Y-126869139D02*
X214453323Y-126869139D01*
G75*
G02*
X213922597Y-127947717I-804652J-273926D01*
G01*
X213922597Y-127947717D01*
G75*
G02*
X212844019Y-127416991I-273926J804652D01*
G01*
X212844019Y-127416991D01*
G75*
G02*
X213374745Y-126338413I804652J273926D01*
G01*
X213374745Y-126338413D01*
G75*
G02*
X214453323Y-126869139I273926J-804652D01*
G01*
G37*
G36*
G01*
X210514075Y-138942760D02*
X210514075Y-138942760D01*
G75*
G02*
X209983349Y-140021338I-804652J-273926D01*
G01*
X209983349Y-140021338D01*
G75*
G02*
X208904771Y-139490612I-273926J804652D01*
G01*
X208904771Y-139490612D01*
G75*
G02*
X209435497Y-138412034I804652J273926D01*
G01*
X209435497Y-138412034D01*
G75*
G02*
X210514075Y-138942760I273926J-804652D01*
G01*
G37*
G36*
G01*
X215271878Y-129273628D02*
X215271878Y-129273628D01*
G75*
G02*
X214741152Y-130352206I-804652J-273926D01*
G01*
X214741152Y-130352206D01*
G75*
G02*
X213662574Y-129821480I-273926J804652D01*
G01*
X213662574Y-129821480D01*
G75*
G02*
X214193300Y-128742902I804652J273926D01*
G01*
X214193300Y-128742902D01*
G75*
G02*
X215271878Y-129273628I273926J-804652D01*
G01*
G37*
G36*
G01*
X209695520Y-136538271D02*
X209695520Y-136538271D01*
G75*
G02*
X209164794Y-137616849I-804652J-273926D01*
G01*
X209164794Y-137616849D01*
G75*
G02*
X208086216Y-137086123I-273926J804652D01*
G01*
X208086216Y-137086123D01*
G75*
G02*
X208616942Y-136007545I804652J273926D01*
G01*
X208616942Y-136007545D01*
G75*
G02*
X209695520Y-136538271I273926J-804652D01*
G01*
G37*
G36*
G01*
X216090433Y-131678118D02*
X216090433Y-131678118D01*
G75*
G02*
X215559707Y-132756696I-804652J-273926D01*
G01*
X215559707Y-132756696D01*
G75*
G02*
X214481129Y-132225970I-273926J804652D01*
G01*
X214481129Y-132225970D01*
G75*
G02*
X215011855Y-131147392I804652J273926D01*
G01*
X215011855Y-131147392D01*
G75*
G02*
X216090433Y-131678118I273926J-804652D01*
G01*
G37*
G36*
G01*
X208876965Y-134133782D02*
X208876965Y-134133782D01*
G75*
G02*
X208346239Y-135212360I-804652J-273926D01*
G01*
X208346239Y-135212360D01*
G75*
G02*
X207267661Y-134681634I-273926J804652D01*
G01*
X207267661Y-134681634D01*
G75*
G02*
X207798387Y-133603056I804652J273926D01*
G01*
X207798387Y-133603056D01*
G75*
G02*
X208876965Y-134133782I273926J-804652D01*
G01*
G37*
G36*
G01*
X216908987Y-134082607D02*
X216908987Y-134082607D01*
G75*
G02*
X216378261Y-135161185I-804652J-273926D01*
G01*
X216378261Y-135161185D01*
G75*
G02*
X215299683Y-134630459I-273926J804652D01*
G01*
X215299683Y-134630459D01*
G75*
G02*
X215830409Y-133551881I804652J273926D01*
G01*
X215830409Y-133551881D01*
G75*
G02*
X216908987Y-134082607I273926J-804652D01*
G01*
G37*
G36*
G01*
X208058410Y-131729293D02*
X208058410Y-131729293D01*
G75*
G02*
X207527684Y-132807871I-804652J-273926D01*
G01*
X207527684Y-132807871D01*
G75*
G02*
X206449106Y-132277145I-273926J804652D01*
G01*
X206449106Y-132277145D01*
G75*
G02*
X206979832Y-131198567I804652J273926D01*
G01*
X206979832Y-131198567D01*
G75*
G02*
X208058410Y-131729293I273926J-804652D01*
G01*
G37*
G36*
G01*
X217727542Y-136487096D02*
X217727542Y-136487096D01*
G75*
G02*
X217196816Y-137565674I-804652J-273926D01*
G01*
X217196816Y-137565674D01*
G75*
G02*
X216118238Y-137034948I-273926J804652D01*
G01*
X216118238Y-137034948D01*
G75*
G02*
X216648964Y-135956370I804652J273926D01*
G01*
X216648964Y-135956370D01*
G75*
G02*
X217727542Y-136487096I273926J-804652D01*
G01*
G37*
G36*
G01*
X207239855Y-129324804D02*
X207239855Y-129324804D01*
G75*
G02*
X206709129Y-130403382I-804652J-273926D01*
G01*
X206709129Y-130403382D01*
G75*
G02*
X205630551Y-129872656I-273926J804652D01*
G01*
X205630551Y-129872656D01*
G75*
G02*
X206161277Y-128794078I804652J273926D01*
G01*
X206161277Y-128794078D01*
G75*
G02*
X207239855Y-129324804I273926J-804652D01*
G01*
G37*
G36*
G01*
X218546097Y-138891585D02*
X218546097Y-138891585D01*
G75*
G02*
X218015371Y-139970163I-804652J-273926D01*
G01*
X218015371Y-139970163D01*
G75*
G02*
X216936793Y-139439437I-273926J804652D01*
G01*
X216936793Y-139439437D01*
G75*
G02*
X217467519Y-138360859I804652J273926D01*
G01*
X217467519Y-138360859D01*
G75*
G02*
X218546097Y-138891585I273926J-804652D01*
G01*
G37*
G36*
G01*
X206421301Y-126920315D02*
X206421301Y-126920315D01*
G75*
G02*
X205890575Y-127998893I-804652J-273926D01*
G01*
X205890575Y-127998893D01*
G75*
G02*
X204811997Y-127468167I-273926J804652D01*
G01*
X204811997Y-127468167D01*
G75*
G02*
X205342723Y-126389589I804652J273926D01*
G01*
X205342723Y-126389589D01*
G75*
G02*
X206421301Y-126920315I273926J-804652D01*
G01*
G37*
D12*
G36*
X219090726Y-140491422D02*
G01*
X219638578Y-142100726D01*
X218029274Y-142648578D01*
X217481422Y-141039274D01*
X219090726Y-140491422D01*
G37*
%TD*%
D14*
%TO.C,REF\u002A\u002A*%
X177612549Y-99054929D03*
X170930000Y-95650000D03*
%TD*%
%TO.C,REF\u002A\u002A*%
X183610000Y-147620000D03*
X179308177Y-141476360D03*
%TD*%
%TO.C,REF\u002A\u002A*%
X202895431Y-68891746D03*
X195400000Y-68630000D03*
%TD*%
%TO.C,REF\u002A\u002A*%
X174180000Y-118130000D03*
X167999054Y-113881953D03*
%TD*%
%TO.C,REF\u002A\u002A*%
G36*
G01*
X225598653Y-133807955D02*
X225598653Y-133807955D01*
G75*
G02*
X226144387Y-132736893I808398J262664D01*
G01*
X226144387Y-132736893D01*
G75*
G02*
X227215449Y-133282627I262664J-808398D01*
G01*
X227215449Y-133282627D01*
G75*
G02*
X226669715Y-134353689I-808398J-262664D01*
G01*
X226669715Y-134353689D01*
G75*
G02*
X225598653Y-133807955I-262664J808398D01*
G01*
G37*
X219160000Y-135900000D03*
%TD*%
%TO.C,REF\u002A\u002A*%
X190880000Y-159420000D03*
G36*
G01*
X192460425Y-152837055D02*
X192460425Y-152837055D01*
G75*
G02*
X191832340Y-151812112I198429J826514D01*
G01*
X191832340Y-151812112D01*
G75*
G02*
X192857283Y-151184027I826514J-198429D01*
G01*
X192857283Y-151184027D01*
G75*
G02*
X193485368Y-152208970I-198429J-826514D01*
G01*
X193485368Y-152208970D01*
G75*
G02*
X192460425Y-152837055I-826514J198429D01*
G01*
G37*
%TD*%
%TO.C,REF\u002A\u002A*%
G36*
G01*
X237563849Y-94629328D02*
X237563849Y-94629328D01*
G75*
G02*
X238763288Y-94549661I639553J-559886D01*
G01*
X238763288Y-94549661D01*
G75*
G02*
X238842955Y-95749100I-559886J-639553D01*
G01*
X238842955Y-95749100D01*
G75*
G02*
X237643516Y-95828767I-639553J559886D01*
G01*
X237643516Y-95828767D01*
G75*
G02*
X237563849Y-94629328I559886J639553D01*
G01*
G37*
G36*
G01*
X220118948Y-102988051D02*
X220118948Y-102988051D01*
G75*
G02*
X221318387Y-102908384I639553J-559886D01*
G01*
X221318387Y-102908384D01*
G75*
G02*
X221398054Y-104107823I-559886J-639553D01*
G01*
X221398054Y-104107823D01*
G75*
G02*
X220198615Y-104187490I-639553J559886D01*
G01*
X220198615Y-104187490D01*
G75*
G02*
X220118948Y-102988051I559886J639553D01*
G01*
G37*
G36*
G01*
X235890777Y-96540462D02*
X235890777Y-96540462D01*
G75*
G02*
X237090216Y-96460795I639553J-559886D01*
G01*
X237090216Y-96460795D01*
G75*
G02*
X237169883Y-97660234I-559886J-639553D01*
G01*
X237169883Y-97660234D01*
G75*
G02*
X235970444Y-97739901I-639553J559886D01*
G01*
X235970444Y-97739901D01*
G75*
G02*
X235890777Y-96540462I559886J639553D01*
G01*
G37*
G36*
G01*
X221792020Y-101076917D02*
X221792020Y-101076917D01*
G75*
G02*
X222991459Y-100997250I639553J-559886D01*
G01*
X222991459Y-100997250D01*
G75*
G02*
X223071126Y-102196689I-559886J-639553D01*
G01*
X223071126Y-102196689D01*
G75*
G02*
X221871687Y-102276356I-639553J559886D01*
G01*
X221871687Y-102276356D01*
G75*
G02*
X221792020Y-101076917I559886J639553D01*
G01*
G37*
G36*
G01*
X234217706Y-98451595D02*
X234217706Y-98451595D01*
G75*
G02*
X235417145Y-98371928I639553J-559886D01*
G01*
X235417145Y-98371928D01*
G75*
G02*
X235496812Y-99571367I-559886J-639553D01*
G01*
X235496812Y-99571367D01*
G75*
G02*
X234297373Y-99651034I-639553J559886D01*
G01*
X234297373Y-99651034D01*
G75*
G02*
X234217706Y-98451595I559886J639553D01*
G01*
G37*
G36*
G01*
X223465091Y-99165783D02*
X223465091Y-99165783D01*
G75*
G02*
X224664530Y-99086116I639553J-559886D01*
G01*
X224664530Y-99086116D01*
G75*
G02*
X224744197Y-100285555I-559886J-639553D01*
G01*
X224744197Y-100285555D01*
G75*
G02*
X223544758Y-100365222I-639553J559886D01*
G01*
X223544758Y-100365222D01*
G75*
G02*
X223465091Y-99165783I559886J639553D01*
G01*
G37*
G36*
G01*
X232544635Y-100362729D02*
X232544635Y-100362729D01*
G75*
G02*
X233744074Y-100283062I639553J-559886D01*
G01*
X233744074Y-100283062D01*
G75*
G02*
X233823741Y-101482501I-559886J-639553D01*
G01*
X233823741Y-101482501D01*
G75*
G02*
X232624302Y-101562168I-639553J559886D01*
G01*
X232624302Y-101562168D01*
G75*
G02*
X232544635Y-100362729I559886J639553D01*
G01*
G37*
G36*
G01*
X225138162Y-97254649D02*
X225138162Y-97254649D01*
G75*
G02*
X226337601Y-97174982I639553J-559886D01*
G01*
X226337601Y-97174982D01*
G75*
G02*
X226417268Y-98374421I-559886J-639553D01*
G01*
X226417268Y-98374421D01*
G75*
G02*
X225217829Y-98454088I-639553J559886D01*
G01*
X225217829Y-98454088D01*
G75*
G02*
X225138162Y-97254649I559886J639553D01*
G01*
G37*
G36*
G01*
X230871564Y-102273863D02*
X230871564Y-102273863D01*
G75*
G02*
X232071003Y-102194196I639553J-559886D01*
G01*
X232071003Y-102194196D01*
G75*
G02*
X232150670Y-103393635I-559886J-639553D01*
G01*
X232150670Y-103393635D01*
G75*
G02*
X230951231Y-103473302I-639553J559886D01*
G01*
X230951231Y-103473302D01*
G75*
G02*
X230871564Y-102273863I559886J639553D01*
G01*
G37*
G36*
G01*
X226811233Y-95343516D02*
X226811233Y-95343516D01*
G75*
G02*
X228010672Y-95263849I639553J-559886D01*
G01*
X228010672Y-95263849D01*
G75*
G02*
X228090339Y-96463288I-559886J-639553D01*
G01*
X228090339Y-96463288D01*
G75*
G02*
X226890900Y-96542955I-639553J559886D01*
G01*
X226890900Y-96542955D01*
G75*
G02*
X226811233Y-95343516I559886J639553D01*
G01*
G37*
G36*
G01*
X229198492Y-104184997D02*
X229198492Y-104184997D01*
G75*
G02*
X230397931Y-104105330I639553J-559886D01*
G01*
X230397931Y-104105330D01*
G75*
G02*
X230477598Y-105304769I-559886J-639553D01*
G01*
X230477598Y-105304769D01*
G75*
G02*
X229278159Y-105384436I-639553J559886D01*
G01*
X229278159Y-105384436D01*
G75*
G02*
X229198492Y-104184997I559886J639553D01*
G01*
G37*
G36*
G01*
X228484305Y-93432382D02*
X228484305Y-93432382D01*
G75*
G02*
X229683744Y-93352715I639553J-559886D01*
G01*
X229683744Y-93352715D01*
G75*
G02*
X229763411Y-94552154I-559886J-639553D01*
G01*
X229763411Y-94552154D01*
G75*
G02*
X228563972Y-94631821I-639553J559886D01*
G01*
X228563972Y-94631821D01*
G75*
G02*
X228484305Y-93432382I559886J639553D01*
G01*
G37*
G36*
G01*
X227525421Y-106096131D02*
X227525421Y-106096131D01*
G75*
G02*
X228724860Y-106016464I639553J-559886D01*
G01*
X228724860Y-106016464D01*
G75*
G02*
X228804527Y-107215903I-559886J-639553D01*
G01*
X228804527Y-107215903D01*
G75*
G02*
X227605088Y-107295570I-639553J559886D01*
G01*
X227605088Y-107295570D01*
G75*
G02*
X227525421Y-106096131I559886J639553D01*
G01*
G37*
G36*
G01*
X230157376Y-91521248D02*
X230157376Y-91521248D01*
G75*
G02*
X231356815Y-91441581I639553J-559886D01*
G01*
X231356815Y-91441581D01*
G75*
G02*
X231436482Y-92641020I-559886J-639553D01*
G01*
X231436482Y-92641020D01*
G75*
G02*
X230237043Y-92720687I-639553J559886D01*
G01*
X230237043Y-92720687D01*
G75*
G02*
X230157376Y-91521248I559886J639553D01*
G01*
G37*
G36*
G01*
X225852350Y-108007265D02*
X225852350Y-108007265D01*
G75*
G02*
X227051789Y-107927598I639553J-559886D01*
G01*
X227051789Y-107927598D01*
G75*
G02*
X227131456Y-109127037I-559886J-639553D01*
G01*
X227131456Y-109127037D01*
G75*
G02*
X225932017Y-109206704I-639553J559886D01*
G01*
X225932017Y-109206704D01*
G75*
G02*
X225852350Y-108007265I559886J639553D01*
G01*
G37*
D12*
G36*
X231270561Y-90249667D02*
G01*
X232390333Y-88970561D01*
X233669439Y-90090333D01*
X232549667Y-91369439D01*
X231270561Y-90249667D01*
G37*
%TD*%
%TO.C,REF\u002A\u002A*%
G36*
X181618713Y-104808911D02*
G01*
X179951089Y-104478713D01*
X180281287Y-102811089D01*
X181948911Y-103141287D01*
X181618713Y-104808911D01*
G37*
G36*
G01*
X199706349Y-100622420D02*
X199706349Y-100622420D01*
G75*
G02*
X199037636Y-99623509I165099J833812D01*
G01*
X199037636Y-99623509D01*
G75*
G02*
X200036547Y-98954796I833812J-165099D01*
G01*
X200036547Y-98954796D01*
G75*
G02*
X200705260Y-99953707I-165099J-833812D01*
G01*
X200705260Y-99953707D01*
G75*
G02*
X199706349Y-100622420I-833812J165099D01*
G01*
G37*
G36*
G01*
X183276527Y-105137167D02*
X183276527Y-105137167D01*
G75*
G02*
X182607814Y-104138256I165099J833812D01*
G01*
X182607814Y-104138256D01*
G75*
G02*
X183606725Y-103469543I833812J-165099D01*
G01*
X183606725Y-103469543D01*
G75*
G02*
X184275438Y-104468454I-165099J-833812D01*
G01*
X184275438Y-104468454D01*
G75*
G02*
X183276527Y-105137167I-833812J165099D01*
G01*
G37*
G36*
G01*
X197214723Y-100129065D02*
X197214723Y-100129065D01*
G75*
G02*
X196546010Y-99130154I165099J833812D01*
G01*
X196546010Y-99130154D01*
G75*
G02*
X197544921Y-98461441I833812J-165099D01*
G01*
X197544921Y-98461441D01*
G75*
G02*
X198213634Y-99460352I-165099J-833812D01*
G01*
X198213634Y-99460352D01*
G75*
G02*
X197214723Y-100129065I-833812J165099D01*
G01*
G37*
G36*
G01*
X185768153Y-105630523D02*
X185768153Y-105630523D01*
G75*
G02*
X185099440Y-104631612I165099J833812D01*
G01*
X185099440Y-104631612D01*
G75*
G02*
X186098351Y-103962899I833812J-165099D01*
G01*
X186098351Y-103962899D01*
G75*
G02*
X186767064Y-104961810I-165099J-833812D01*
G01*
X186767064Y-104961810D01*
G75*
G02*
X185768153Y-105630523I-833812J165099D01*
G01*
G37*
G36*
G01*
X194723097Y-99635710D02*
X194723097Y-99635710D01*
G75*
G02*
X194054384Y-98636799I165099J833812D01*
G01*
X194054384Y-98636799D01*
G75*
G02*
X195053295Y-97968086I833812J-165099D01*
G01*
X195053295Y-97968086D01*
G75*
G02*
X195722008Y-98966997I-165099J-833812D01*
G01*
X195722008Y-98966997D01*
G75*
G02*
X194723097Y-99635710I-833812J165099D01*
G01*
G37*
G36*
G01*
X188259779Y-106123878D02*
X188259779Y-106123878D01*
G75*
G02*
X187591066Y-105124967I165099J833812D01*
G01*
X187591066Y-105124967D01*
G75*
G02*
X188589977Y-104456254I833812J-165099D01*
G01*
X188589977Y-104456254D01*
G75*
G02*
X189258690Y-105455165I-165099J-833812D01*
G01*
X189258690Y-105455165D01*
G75*
G02*
X188259779Y-106123878I-833812J165099D01*
G01*
G37*
G36*
G01*
X192231471Y-99142355D02*
X192231471Y-99142355D01*
G75*
G02*
X191562758Y-98143444I165099J833812D01*
G01*
X191562758Y-98143444D01*
G75*
G02*
X192561669Y-97474731I833812J-165099D01*
G01*
X192561669Y-97474731D01*
G75*
G02*
X193230382Y-98473642I-165099J-833812D01*
G01*
X193230382Y-98473642D01*
G75*
G02*
X192231471Y-99142355I-833812J165099D01*
G01*
G37*
G36*
G01*
X190751405Y-106617233D02*
X190751405Y-106617233D01*
G75*
G02*
X190082692Y-105618322I165099J833812D01*
G01*
X190082692Y-105618322D01*
G75*
G02*
X191081603Y-104949609I833812J-165099D01*
G01*
X191081603Y-104949609D01*
G75*
G02*
X191750316Y-105948520I-165099J-833812D01*
G01*
X191750316Y-105948520D01*
G75*
G02*
X190751405Y-106617233I-833812J165099D01*
G01*
G37*
G36*
G01*
X189739845Y-98648999D02*
X189739845Y-98648999D01*
G75*
G02*
X189071132Y-97650088I165099J833812D01*
G01*
X189071132Y-97650088D01*
G75*
G02*
X190070043Y-96981375I833812J-165099D01*
G01*
X190070043Y-96981375D01*
G75*
G02*
X190738756Y-97980286I-165099J-833812D01*
G01*
X190738756Y-97980286D01*
G75*
G02*
X189739845Y-98648999I-833812J165099D01*
G01*
G37*
G36*
G01*
X193243031Y-107110588D02*
X193243031Y-107110588D01*
G75*
G02*
X192574318Y-106111677I165099J833812D01*
G01*
X192574318Y-106111677D01*
G75*
G02*
X193573229Y-105442964I833812J-165099D01*
G01*
X193573229Y-105442964D01*
G75*
G02*
X194241942Y-106441875I-165099J-833812D01*
G01*
X194241942Y-106441875D01*
G75*
G02*
X193243031Y-107110588I-833812J165099D01*
G01*
G37*
G36*
G01*
X187248219Y-98155644D02*
X187248219Y-98155644D01*
G75*
G02*
X186579506Y-97156733I165099J833812D01*
G01*
X186579506Y-97156733D01*
G75*
G02*
X187578417Y-96488020I833812J-165099D01*
G01*
X187578417Y-96488020D01*
G75*
G02*
X188247130Y-97486931I-165099J-833812D01*
G01*
X188247130Y-97486931D01*
G75*
G02*
X187248219Y-98155644I-833812J165099D01*
G01*
G37*
G36*
G01*
X195734658Y-107603944D02*
X195734658Y-107603944D01*
G75*
G02*
X195065945Y-106605033I165099J833812D01*
G01*
X195065945Y-106605033D01*
G75*
G02*
X196064856Y-105936320I833812J-165099D01*
G01*
X196064856Y-105936320D01*
G75*
G02*
X196733569Y-106935231I-165099J-833812D01*
G01*
X196733569Y-106935231D01*
G75*
G02*
X195734658Y-107603944I-833812J165099D01*
G01*
G37*
G36*
G01*
X184756593Y-97662289D02*
X184756593Y-97662289D01*
G75*
G02*
X184087880Y-96663378I165099J833812D01*
G01*
X184087880Y-96663378D01*
G75*
G02*
X185086791Y-95994665I833812J-165099D01*
G01*
X185086791Y-95994665D01*
G75*
G02*
X185755504Y-96993576I-165099J-833812D01*
G01*
X185755504Y-96993576D01*
G75*
G02*
X184756593Y-97662289I-833812J165099D01*
G01*
G37*
G36*
G01*
X198226284Y-108097299D02*
X198226284Y-108097299D01*
G75*
G02*
X197557571Y-107098388I165099J833812D01*
G01*
X197557571Y-107098388D01*
G75*
G02*
X198556482Y-106429675I833812J-165099D01*
G01*
X198556482Y-106429675D01*
G75*
G02*
X199225195Y-107428586I-165099J-833812D01*
G01*
X199225195Y-107428586D01*
G75*
G02*
X198226284Y-108097299I-833812J165099D01*
G01*
G37*
G36*
G01*
X182264967Y-97168934D02*
X182264967Y-97168934D01*
G75*
G02*
X181596254Y-96170023I165099J833812D01*
G01*
X181596254Y-96170023D01*
G75*
G02*
X182595165Y-95501310I833812J-165099D01*
G01*
X182595165Y-95501310D01*
G75*
G02*
X183263878Y-96500221I-165099J-833812D01*
G01*
X183263878Y-96500221D01*
G75*
G02*
X182264967Y-97168934I-833812J165099D01*
G01*
G37*
%TD*%
D14*
%TO.C,REF\u002A\u002A*%
X165740000Y-95980000D03*
G36*
G01*
X161713049Y-90537889D02*
X161713049Y-90537889D01*
G75*
G02*
X160524172Y-90360210I-505599J683278D01*
G01*
X160524172Y-90360210D01*
G75*
G02*
X160701851Y-89171333I683278J505599D01*
G01*
X160701851Y-89171333D01*
G75*
G02*
X161890728Y-89349012I505599J-683278D01*
G01*
X161890728Y-89349012D01*
G75*
G02*
X161713049Y-90537889I-683278J-505599D01*
G01*
G37*
%TD*%
%TO.C,REF\u002A\u002A*%
X188000000Y-150320000D03*
G36*
G01*
X187881848Y-143551032D02*
X187881848Y-143551032D01*
G75*
G02*
X187017142Y-142715996I-14835J849871D01*
G01*
X187017142Y-142715996D01*
G75*
G02*
X187852178Y-141851290I849871J14835D01*
G01*
X187852178Y-141851290D01*
G75*
G02*
X188716884Y-142686326I14835J-849871D01*
G01*
X188716884Y-142686326D01*
G75*
G02*
X187881848Y-143551032I-849871J-14835D01*
G01*
G37*
%TD*%
%TO.C,REF\u002A\u002A*%
X165950000Y-133760000D03*
G36*
G01*
X162823962Y-127754936D02*
X162823962Y-127754936D01*
G75*
G02*
X161677517Y-127393463I-392486J753959D01*
G01*
X161677517Y-127393463D01*
G75*
G02*
X162038990Y-126247018I753959J392486D01*
G01*
X162038990Y-126247018D01*
G75*
G02*
X163185435Y-126608491I392486J-753959D01*
G01*
X163185435Y-126608491D01*
G75*
G02*
X162823962Y-127754936I-753959J-392486D01*
G01*
G37*
%TD*%
%TO.C,REF\u002A\u002A*%
G36*
G01*
X168207416Y-129034264D02*
X168207416Y-129034264D01*
G75*
G02*
X167027420Y-129263632I-704682J475314D01*
G01*
X167027420Y-129263632D01*
G75*
G02*
X166798052Y-128083636I475314J704682D01*
G01*
X166798052Y-128083636D01*
G75*
G02*
X167978048Y-127854268I704682J-475314D01*
G01*
X167978048Y-127854268D01*
G75*
G02*
X168207416Y-129034264I-475314J-704682D01*
G01*
G37*
X173820000Y-132820000D03*
%TD*%
%TO.C,REF\u002A\u002A*%
G36*
G01*
X197551175Y-116057839D02*
X197551175Y-116057839D01*
G75*
G02*
X197882514Y-114902324I743427J412088D01*
G01*
X197882514Y-114902324D01*
G75*
G02*
X199038029Y-115233663I412088J-743427D01*
G01*
X199038029Y-115233663D01*
G75*
G02*
X198706690Y-116389178I-743427J-412088D01*
G01*
X198706690Y-116389178D01*
G75*
G02*
X197551175Y-116057839I-412088J743427D01*
G01*
G37*
X191630000Y-119340000D03*
%TD*%
%TO.C,REF\u002A\u002A*%
X199310000Y-141470000D03*
G36*
G01*
X205445703Y-138608875D02*
X205445703Y-138608875D01*
G75*
G02*
X205856839Y-137479287I770362J359226D01*
G01*
X205856839Y-137479287D01*
G75*
G02*
X206986427Y-137890423I359226J-770362D01*
G01*
X206986427Y-137890423D01*
G75*
G02*
X206575291Y-139020011I-770362J-359226D01*
G01*
X206575291Y-139020011D01*
G75*
G02*
X205445703Y-138608875I-359226J770362D01*
G01*
G37*
%TD*%
%TO.C,REF\u002A\u002A*%
X175770000Y-136250000D03*
G36*
G01*
X182366485Y-134727081D02*
X182366485Y-134727081D01*
G75*
G02*
X183003492Y-133707658I828215J191208D01*
G01*
X183003492Y-133707658D01*
G75*
G02*
X184022915Y-134344665I191208J-828215D01*
G01*
X184022915Y-134344665D01*
G75*
G02*
X183385908Y-135364088I-828215J-191208D01*
G01*
X183385908Y-135364088D01*
G75*
G02*
X182366485Y-134727081I-191208J828215D01*
G01*
G37*
%TD*%
D17*
%TO.C,REF\u002A\u002A*%
X165760000Y-136640000D03*
D14*
X158140000Y-136640000D03*
%TD*%
%TO.C,REF\u002A\u002A*%
X197500000Y-152230000D03*
G36*
G01*
X204145616Y-150938223D02*
X204145616Y-150938223D01*
G75*
G02*
X204817811Y-149941652I834383J162188D01*
G01*
X204817811Y-149941652D01*
G75*
G02*
X205814382Y-150613847I162188J-834383D01*
G01*
X205814382Y-150613847D01*
G75*
G02*
X205142187Y-151610418I-834383J-162188D01*
G01*
X205142187Y-151610418D01*
G75*
G02*
X204145616Y-150938223I-162188J834383D01*
G01*
G37*
%TD*%
D11*
%TO.C,REF\u002A\u002A*%
X173001930Y-146501920D03*
X170883860Y-147903840D03*
D12*
G36*
X174011342Y-144874441D02*
G01*
X175345559Y-143991342D01*
X176228658Y-145325559D01*
X174894441Y-146208658D01*
X174011342Y-144874441D01*
G37*
%TD*%
D13*
%TO.C,REF\u002A\u002A*%
X163833895Y-160170590D03*
%TD*%
D14*
%TO.C,REF\u002A\u002A*%
X198380000Y-138210000D03*
G36*
G01*
X204634664Y-135619233D02*
X204634664Y-135619233D01*
G75*
G02*
X205094681Y-134508654I785298J325281D01*
G01*
X205094681Y-134508654D01*
G75*
G02*
X206205260Y-134968671I325281J-785298D01*
G01*
X206205260Y-134968671D01*
G75*
G02*
X205745243Y-136079250I-785298J-325281D01*
G01*
X205745243Y-136079250D01*
G75*
G02*
X204634664Y-135619233I-325281J785298D01*
G01*
G37*
%TD*%
%TO.C,REF\u002A\u002A*%
X166850000Y-141070000D03*
G36*
G01*
X172527800Y-137382794D02*
X172527800Y-137382794D01*
G75*
G02*
X172777727Y-136206981I712870J462943D01*
G01*
X172777727Y-136206981D01*
G75*
G02*
X173953540Y-136456908I462943J-712870D01*
G01*
X173953540Y-136456908D01*
G75*
G02*
X173703613Y-137632721I-712870J-462943D01*
G01*
X173703613Y-137632721D01*
G75*
G02*
X172527800Y-137382794I-462943J712870D01*
G01*
G37*
%TD*%
D12*
%TO.C,REF\u002A\u002A*%
G36*
X159144850Y-152884719D02*
G01*
X160999040Y-151898829D01*
X161984930Y-153753019D01*
X160130740Y-154738909D01*
X159144850Y-152884719D01*
G37*
%TD*%
D14*
%TO.C,REF\u002A\u002A*%
X196530000Y-131730000D03*
G36*
G01*
X203126485Y-130207081D02*
X203126485Y-130207081D01*
G75*
G02*
X203763492Y-129187658I828215J191208D01*
G01*
X203763492Y-129187658D01*
G75*
G02*
X204782915Y-129824665I191208J-828215D01*
G01*
X204782915Y-129824665D01*
G75*
G02*
X204145908Y-130844088I-828215J-191208D01*
G01*
X204145908Y-130844088D01*
G75*
G02*
X203126485Y-130207081I-191208J828215D01*
G01*
G37*
%TD*%
D12*
%TO.C,REF\u002A\u002A*%
G36*
X177583621Y-148940461D02*
G01*
X178431492Y-147583584D01*
X179788369Y-148431455D01*
X178940498Y-149788332D01*
X177583621Y-148940461D01*
G37*
D11*
X175994005Y-152994042D03*
X177340000Y-150840000D03*
%TD*%
%TO.C,REF\u002A\u002A*%
X191995958Y-140434005D03*
X189841916Y-139088010D03*
D12*
G36*
X193895497Y-140677626D02*
G01*
X195252374Y-141525497D01*
X194404503Y-142882374D01*
X193047626Y-142034503D01*
X193895497Y-140677626D01*
G37*
%TD*%
%TO.C,REF\u002A\u002A*%
G36*
G01*
X168715189Y-158898615D02*
X168715189Y-158898615D01*
G75*
G02*
X170079157Y-159784387I239098J-1124870D01*
G01*
X170079157Y-159784387D01*
G75*
G02*
X169193385Y-161148355I-1124870J-239098D01*
G01*
X169193385Y-161148355D01*
G75*
G02*
X167829417Y-160262583I-239098J1124870D01*
G01*
X167829417Y-160262583D01*
G75*
G02*
X168715189Y-158898615I1124870J239098D01*
G01*
G37*
G36*
X166006032Y-151684229D02*
G01*
X168255771Y-151206032D01*
X168733968Y-153455771D01*
X166484229Y-153933968D01*
X166006032Y-151684229D01*
G37*
%TD*%
%TO.C,REF\u002A\u002A*%
G36*
X182793540Y-138084183D02*
G01*
X181875817Y-136773540D01*
X183186460Y-135855817D01*
X184104183Y-137166460D01*
X182793540Y-138084183D01*
G37*
D11*
X185903768Y-141131292D03*
X184446884Y-139050646D03*
%TD*%
%TO.C,REF\u002A\u002A*%
G36*
G01*
X203794183Y-133030644D02*
X203794183Y-133030644D01*
G75*
G02*
X204358526Y-131969269I812859J248516D01*
G01*
X204358526Y-131969269D01*
G75*
G02*
X205419901Y-132533612I248516J-812859D01*
G01*
X205419901Y-132533612D01*
G75*
G02*
X204855558Y-133594987I-812859J-248516D01*
G01*
X204855558Y-133594987D01*
G75*
G02*
X203794183Y-133030644I-248516J812859D01*
G01*
G37*
D14*
X197320000Y-135010000D03*
%TD*%
%TO.C,REF\u002A\u002A*%
X260740000Y-144770000D03*
G36*
G01*
X254248791Y-142847216D02*
X254248791Y-142847216D01*
G75*
G02*
X253192381Y-143420800I-814997J241413D01*
G01*
X253192381Y-143420800D01*
G75*
G02*
X252618797Y-142364390I241413J814997D01*
G01*
X252618797Y-142364390D01*
G75*
G02*
X253675207Y-141790806I814997J-241413D01*
G01*
X253675207Y-141790806D01*
G75*
G02*
X254248791Y-142847216I-241413J-814997D01*
G01*
G37*
%TD*%
D12*
%TO.C,REF\u002A\u002A*%
G36*
X205843115Y-147462820D02*
G01*
X204457475Y-146662820D01*
X205257475Y-145277180D01*
X206643115Y-146077180D01*
X205843115Y-147462820D01*
G37*
D11*
X209949704Y-148910000D03*
X207750000Y-147640000D03*
%TD*%
%TO.C,REF\u002A\u002A*%
G36*
G01*
X163065296Y-99460476D02*
X163065296Y-99460476D01*
G75*
G02*
X162419418Y-98446650I183974J829852D01*
G01*
X162419418Y-98446650D01*
G75*
G02*
X163433244Y-97800772I829852J-183974D01*
G01*
X163433244Y-97800772D01*
G75*
G02*
X164079122Y-98814598I-183974J-829852D01*
G01*
X164079122Y-98814598D01*
G75*
G02*
X163065296Y-99460476I-829852J183974D01*
G01*
G37*
D14*
X161600000Y-106070000D03*
%TD*%
%TO.C,REF\u002A\u002A*%
G36*
G01*
X173560409Y-105159635D02*
X173560409Y-105159635D01*
G75*
G02*
X172407829Y-105501045I-746995J405585D01*
G01*
X172407829Y-105501045D01*
G75*
G02*
X172066419Y-104348465I405585J746995D01*
G01*
X172066419Y-104348465D01*
G75*
G02*
X173218999Y-104007055I746995J-405585D01*
G01*
X173218999Y-104007055D01*
G75*
G02*
X173560409Y-105159635I-405585J-746995D01*
G01*
G37*
X179510000Y-108390000D03*
%TD*%
%TO.C,REF\u002A\u002A*%
X161640000Y-114120000D03*
G36*
G01*
X166213745Y-109128633D02*
X166213745Y-109128633D01*
G75*
G02*
X166161311Y-107927695I574252J626686D01*
G01*
X166161311Y-107927695D01*
G75*
G02*
X167362249Y-107875261I626686J-574252D01*
G01*
X167362249Y-107875261D01*
G75*
G02*
X167414683Y-109076199I-574252J-626686D01*
G01*
X167414683Y-109076199D01*
G75*
G02*
X166213745Y-109128633I-626686J574252D01*
G01*
G37*
%TD*%
%TO.C,REF\u002A\u002A*%
G36*
G01*
X180439872Y-122798317D02*
X180439872Y-122798317D01*
G75*
G02*
X179922363Y-121713336I283736J801245D01*
G01*
X179922363Y-121713336D01*
G75*
G02*
X181007344Y-121195827I801245J-283736D01*
G01*
X181007344Y-121195827D01*
G75*
G02*
X181524853Y-122280808I-283736J-801245D01*
G01*
X181524853Y-122280808D01*
G75*
G02*
X180439872Y-122798317I-801245J283736D01*
G01*
G37*
X178180000Y-129180000D03*
%TD*%
%TO.C,REF\u002A\u002A*%
G36*
G01*
X215765617Y-153522188D02*
X215765617Y-153522188D01*
G75*
G02*
X216437812Y-152525617I834383J162188D01*
G01*
X216437812Y-152525617D01*
G75*
G02*
X217434383Y-153197812I162188J-834383D01*
G01*
X217434383Y-153197812D01*
G75*
G02*
X216762188Y-154194383I-834383J-162188D01*
G01*
X216762188Y-154194383D01*
G75*
G02*
X215765617Y-153522188I-162188J834383D01*
G01*
G37*
X209120001Y-154813965D03*
%TD*%
%TO.C,REF\u002A\u002A*%
G36*
G01*
X171369241Y-152201294D02*
X171369241Y-152201294D01*
G75*
G02*
X170229279Y-151819868I-379268J760694D01*
G01*
X170229279Y-151819868D01*
G75*
G02*
X170610705Y-150679906I760694J379268D01*
G01*
X170610705Y-150679906D01*
G75*
G02*
X171750667Y-151061332I379268J-760694D01*
G01*
X171750667Y-151061332D01*
G75*
G02*
X171369241Y-152201294I-760694J-379268D01*
G01*
G37*
X174390000Y-158260000D03*
%TD*%
%TO.C,REF\u002A\u002A*%
X196590000Y-128900000D03*
G36*
G01*
X193890469Y-122691503D02*
X193890469Y-122691503D01*
G75*
G02*
X192772031Y-122250939I-338937J779501D01*
G01*
X192772031Y-122250939D01*
G75*
G02*
X193212595Y-121132501I779501J338937D01*
G01*
X193212595Y-121132501D01*
G75*
G02*
X194331033Y-121573065I338937J-779501D01*
G01*
X194331033Y-121573065D01*
G75*
G02*
X193890469Y-122691503I-779501J-338937D01*
G01*
G37*
%TD*%
%TO.C,REF\u002A\u002A*%
G36*
G01*
X174181562Y-139908641D02*
X174181562Y-139908641D01*
G75*
G02*
X174379962Y-138723045I691998J493598D01*
G01*
X174379962Y-138723045D01*
G75*
G02*
X175565558Y-138921445I493598J-691998D01*
G01*
X175565558Y-138921445D01*
G75*
G02*
X175367158Y-140107041I-691998J-493598D01*
G01*
X175367158Y-140107041D01*
G75*
G02*
X174181562Y-139908641I-493598J691998D01*
G01*
G37*
X168670000Y-143840000D03*
%TD*%
%TO.C,REF\u002A\u002A*%
X175050000Y-128150000D03*
G36*
G01*
X177749531Y-121941503D02*
X177749531Y-121941503D01*
G75*
G02*
X177308967Y-120823065I338937J779501D01*
G01*
X177308967Y-120823065D01*
G75*
G02*
X178427405Y-120382501I779501J-338937D01*
G01*
X178427405Y-120382501D01*
G75*
G02*
X178867969Y-121500939I-338937J-779501D01*
G01*
X178867969Y-121500939D01*
G75*
G02*
X177749531Y-121941503I-779501J338937D01*
G01*
G37*
%TD*%
%TO.C,REF\u002A\u002A*%
G36*
G01*
X206434702Y-141926393D02*
X206434702Y-141926393D01*
G75*
G02*
X206865490Y-140804153I776514J345726D01*
G01*
X206865490Y-140804153D01*
G75*
G02*
X207987730Y-141234941I345726J-776514D01*
G01*
X207987730Y-141234941D01*
G75*
G02*
X207556942Y-142357181I-776514J-345726D01*
G01*
X207556942Y-142357181D01*
G75*
G02*
X206434702Y-141926393I-345726J776514D01*
G01*
G37*
X200250000Y-144680000D03*
%TD*%
%TO.C,REF\u002A\u002A*%
G36*
G01*
X258569203Y-133556222D02*
X258569203Y-133556222D01*
G75*
G02*
X257977270Y-132509983I227153J819086D01*
G01*
X257977270Y-132509983D01*
G75*
G02*
X259023509Y-131918050I819086J-227153D01*
G01*
X259023509Y-131918050D01*
G75*
G02*
X259615442Y-132964289I-227153J-819086D01*
G01*
X259615442Y-132964289D01*
G75*
G02*
X258569203Y-133556222I-819086J227153D01*
G01*
G37*
X256760000Y-140080000D03*
%TD*%
%TO.C,REF\u002A\u002A*%
X178690000Y-160920000D03*
G36*
G01*
X181280767Y-154665336D02*
X181280767Y-154665336D01*
G75*
G02*
X180820750Y-153554757I325281J785298D01*
G01*
X180820750Y-153554757D01*
G75*
G02*
X181931329Y-153094740I785298J-325281D01*
G01*
X181931329Y-153094740D01*
G75*
G02*
X182391346Y-154205319I-325281J-785298D01*
G01*
X182391346Y-154205319D01*
G75*
G02*
X181280767Y-154665336I-785298J325281D01*
G01*
G37*
%TD*%
D13*
%TO.C,REF\u002A\u002A*%
X170990000Y-83140000D03*
%TD*%
%TO.C,REF\u002A\u002A*%
X253530000Y-59410000D03*
%TD*%
%TO.C,REF\u002A\u002A*%
G36*
G01*
X186070767Y-154455336D02*
X186070767Y-154455336D01*
G75*
G02*
X185610750Y-153344757I325281J785298D01*
G01*
X185610750Y-153344757D01*
G75*
G02*
X186721329Y-152884740I785298J-325281D01*
G01*
X186721329Y-152884740D01*
G75*
G02*
X187181346Y-153995319I-325281J-785298D01*
G01*
X187181346Y-153995319D01*
G75*
G02*
X186070767Y-154455336I-785298J325281D01*
G01*
G37*
D14*
X183480000Y-160710000D03*
%TD*%
D12*
%TO.C,REF\u002A\u002A*%
G36*
X259563894Y-62025871D02*
G01*
X260054129Y-59983894D01*
X262096106Y-60474129D01*
X261605871Y-62516106D01*
X259563894Y-62025871D01*
G37*
%TD*%
M02*
