%TF.GenerationSoftware,KiCad,Pcbnew,(5.1.6)-1*%
%TF.CreationDate,2020-10-31T12:28:38-05:00*%
%TF.ProjectId,Old Mr Grassi,4f6c6420-4d72-4204-9772-617373692e6b,rev?*%
%TF.SameCoordinates,Original*%
%TF.FileFunction,Copper,L1,Top*%
%TF.FilePolarity,Positive*%
%FSLAX46Y46*%
G04 Gerber Fmt 4.6, Leading zero omitted, Abs format (unit mm)*
G04 Created by KiCad (PCBNEW (5.1.6)-1) date 2020-10-31 12:28:38*
%MOMM*%
%LPD*%
G01*
G04 APERTURE LIST*
%TA.AperFunction,ComponentPad*%
%ADD10C,5.500000*%
%TD*%
%TA.AperFunction,ComponentPad*%
%ADD11C,1.500000*%
%TD*%
%TA.AperFunction,ComponentPad*%
%ADD12C,0.100000*%
%TD*%
%TA.AperFunction,ComponentPad*%
%ADD13C,2.000000*%
%TD*%
%TA.AperFunction,ComponentPad*%
%ADD14C,1.600000*%
%TD*%
%TA.AperFunction,ComponentPad*%
%ADD15C,2.130000*%
%TD*%
%TA.AperFunction,ComponentPad*%
%ADD16R,1.930000X1.830000*%
%TD*%
%TA.AperFunction,ComponentPad*%
%ADD17O,1.600000X1.600000*%
%TD*%
%TA.AperFunction,Conductor*%
%ADD18C,0.635000*%
%TD*%
G04 APERTURE END LIST*
D10*
%TO.P,REF\u002A\u002A,*%
%TO.N,*%
X208150000Y-78840000D03*
%TD*%
%TO.P,REF\u002A\u002A,*%
%TO.N,*%
X182880000Y-130400000D03*
%TD*%
%TO.P,\u002A,*%
%TO.N,*%
X251800000Y-98750000D03*
%TD*%
%TO.P,REF\u002A\u002A,*%
%TO.N,*%
X230050000Y-129400000D03*
%TD*%
%TO.P,REF\u002A\u002A,*%
%TO.N,*%
X245480000Y-88470000D03*
%TD*%
%TO.P,REF\u002A\u002A,*%
%TO.N,*%
X216710000Y-86700000D03*
%TD*%
%TO.P,REF\u002A\u002A,*%
%TO.N,*%
X170080000Y-90400000D03*
%TD*%
D11*
%TO.P,REF\u002A\u002A,*%
%TO.N,*%
X260470000Y-75720000D03*
%TD*%
%TO.P,REF\u002A\u002A,*%
%TO.N,*%
X263420000Y-73330000D03*
%TD*%
%TO.P,REF\u002A\u002A,*%
%TO.N,*%
X162910000Y-68740000D03*
%TD*%
D10*
%TO.P,REF\u002A\u002A,*%
%TO.N,*%
X205170000Y-155670000D03*
%TD*%
%TO.P,REF\u002A\u002A,*%
%TO.N,*%
X179740000Y-81740000D03*
%TD*%
%TA.AperFunction,ComponentPad*%
D12*
%TO.P,REF\u002A\u002A,1*%
%TO.N,N/C*%
G36*
X258490465Y-66610543D02*
G01*
X260049457Y-66970465D01*
X259689535Y-68529457D01*
X258130543Y-68169535D01*
X258490465Y-66610543D01*
G37*
%TD.AperFunction*%
%TO.P,REF\u002A\u002A,5*%
%TA.AperFunction,ComponentPad*%
G36*
G01*
X250131134Y-72501077D02*
X250131134Y-72501077D01*
G75*
G02*
X250730669Y-73460534I-179961J-779496D01*
G01*
X250730669Y-73460534D01*
G75*
G02*
X249771212Y-74060069I-779496J179961D01*
G01*
X249771212Y-74060069D01*
G75*
G02*
X249171677Y-73100612I179961J779496D01*
G01*
X249171677Y-73100612D01*
G75*
G02*
X250131134Y-72501077I779496J-179961D01*
G01*
G37*
%TD.AperFunction*%
%TO.P,REF\u002A\u002A,2*%
%TA.AperFunction,ComponentPad*%
G36*
G01*
X256795061Y-66219128D02*
X256795061Y-66219128D01*
G75*
G02*
X257394596Y-67178585I-179961J-779496D01*
G01*
X257394596Y-67178585D01*
G75*
G02*
X256435139Y-67778120I-779496J179961D01*
G01*
X256435139Y-67778120D01*
G75*
G02*
X255835604Y-66818663I179961J779496D01*
G01*
X255835604Y-66818663D01*
G75*
G02*
X256795061Y-66219128I779496J-179961D01*
G01*
G37*
%TD.AperFunction*%
%TO.P,REF\u002A\u002A,6*%
%TA.AperFunction,ComponentPad*%
G36*
G01*
X252606034Y-73072453D02*
X252606034Y-73072453D01*
G75*
G02*
X253205569Y-74031910I-179961J-779496D01*
G01*
X253205569Y-74031910D01*
G75*
G02*
X252246112Y-74631445I-779496J179961D01*
G01*
X252246112Y-74631445D01*
G75*
G02*
X251646577Y-73671988I179961J779496D01*
G01*
X251646577Y-73671988D01*
G75*
G02*
X252606034Y-73072453I779496J-179961D01*
G01*
G37*
%TD.AperFunction*%
%TO.P,REF\u002A\u002A,3*%
%TA.AperFunction,ComponentPad*%
G36*
G01*
X254320161Y-65647753D02*
X254320161Y-65647753D01*
G75*
G02*
X254919696Y-66607210I-179961J-779496D01*
G01*
X254919696Y-66607210D01*
G75*
G02*
X253960239Y-67206745I-779496J179961D01*
G01*
X253960239Y-67206745D01*
G75*
G02*
X253360704Y-66247288I179961J779496D01*
G01*
X253360704Y-66247288D01*
G75*
G02*
X254320161Y-65647753I779496J-179961D01*
G01*
G37*
%TD.AperFunction*%
%TO.P,REF\u002A\u002A,7*%
%TA.AperFunction,ComponentPad*%
G36*
G01*
X255080934Y-73643828D02*
X255080934Y-73643828D01*
G75*
G02*
X255680469Y-74603285I-179961J-779496D01*
G01*
X255680469Y-74603285D01*
G75*
G02*
X254721012Y-75202820I-779496J179961D01*
G01*
X254721012Y-75202820D01*
G75*
G02*
X254121477Y-74243363I179961J779496D01*
G01*
X254121477Y-74243363D01*
G75*
G02*
X255080934Y-73643828I779496J-179961D01*
G01*
G37*
%TD.AperFunction*%
%TO.P,REF\u002A\u002A,4*%
%TA.AperFunction,ComponentPad*%
G36*
G01*
X251845261Y-65076377D02*
X251845261Y-65076377D01*
G75*
G02*
X252444796Y-66035834I-179961J-779496D01*
G01*
X252444796Y-66035834D01*
G75*
G02*
X251485339Y-66635369I-779496J179961D01*
G01*
X251485339Y-66635369D01*
G75*
G02*
X250885804Y-65675912I179961J779496D01*
G01*
X250885804Y-65675912D01*
G75*
G02*
X251845261Y-65076377I779496J-179961D01*
G01*
G37*
%TD.AperFunction*%
%TO.P,REF\u002A\u002A,8*%
%TA.AperFunction,ComponentPad*%
G36*
G01*
X257555834Y-74215204D02*
X257555834Y-74215204D01*
G75*
G02*
X258155369Y-75174661I-179961J-779496D01*
G01*
X258155369Y-75174661D01*
G75*
G02*
X257195912Y-75774196I-779496J179961D01*
G01*
X257195912Y-75774196D01*
G75*
G02*
X256596377Y-74814739I179961J779496D01*
G01*
X256596377Y-74814739D01*
G75*
G02*
X257555834Y-74215204I779496J-179961D01*
G01*
G37*
%TD.AperFunction*%
%TD*%
D10*
%TO.P,REF\u002A\u002A,*%
%TO.N,*%
X184260000Y-119050000D03*
%TD*%
%TO.P,REF\u002A\u002A,*%
%TO.N,*%
X242540000Y-127300000D03*
%TD*%
%TO.P,REF\u002A\u002A,*%
%TO.N,*%
X196800000Y-147630000D03*
%TD*%
D11*
%TO.P,REF\u002A\u002A,*%
%TO.N,*%
X161360000Y-72160000D03*
%TD*%
%TA.AperFunction,ComponentPad*%
D12*
%TO.P,REF\u002A\u002A,1*%
%TO.N,N/C*%
G36*
X162453941Y-82010236D02*
G01*
X162869764Y-80053941D01*
X164826059Y-80469764D01*
X164410236Y-82426059D01*
X162453941Y-82010236D01*
G37*
%TD.AperFunction*%
%TD*%
%TO.P,REF\u002A\u002A,8*%
%TO.N,N/C*%
%TA.AperFunction,ComponentPad*%
G36*
G01*
X166008526Y-70292337D02*
X166008526Y-70292337D01*
G75*
G02*
X165229742Y-69471669I20942J799726D01*
G01*
X165229742Y-69471669D01*
G75*
G02*
X166050410Y-68692885I799726J-20942D01*
G01*
X166050410Y-68692885D01*
G75*
G02*
X166829194Y-69513553I-20942J-799726D01*
G01*
X166829194Y-69513553D01*
G75*
G02*
X166008526Y-70292337I-799726J20942D01*
G01*
G37*
%TD.AperFunction*%
%TO.P,REF\u002A\u002A,4*%
%TA.AperFunction,ComponentPad*%
G36*
G01*
X173426447Y-78109194D02*
X173426447Y-78109194D01*
G75*
G02*
X172647663Y-77288526I20942J799726D01*
G01*
X172647663Y-77288526D01*
G75*
G02*
X173468331Y-76509742I799726J-20942D01*
G01*
X173468331Y-76509742D01*
G75*
G02*
X174247115Y-77330410I-20942J-799726D01*
G01*
X174247115Y-77330410D01*
G75*
G02*
X173426447Y-78109194I-799726J20942D01*
G01*
G37*
%TD.AperFunction*%
%TO.P,REF\u002A\u002A,7*%
%TA.AperFunction,ComponentPad*%
G36*
G01*
X168547656Y-70358827D02*
X168547656Y-70358827D01*
G75*
G02*
X167768872Y-69538159I20942J799726D01*
G01*
X167768872Y-69538159D01*
G75*
G02*
X168589540Y-68759375I799726J-20942D01*
G01*
X168589540Y-68759375D01*
G75*
G02*
X169368324Y-69580043I-20942J-799726D01*
G01*
X169368324Y-69580043D01*
G75*
G02*
X168547656Y-70358827I-799726J20942D01*
G01*
G37*
%TD.AperFunction*%
%TO.P,REF\u002A\u002A,3*%
%TA.AperFunction,ComponentPad*%
G36*
G01*
X170887317Y-78042705D02*
X170887317Y-78042705D01*
G75*
G02*
X170108533Y-77222037I20942J799726D01*
G01*
X170108533Y-77222037D01*
G75*
G02*
X170929201Y-76443253I799726J-20942D01*
G01*
X170929201Y-76443253D01*
G75*
G02*
X171707985Y-77263921I-20942J-799726D01*
G01*
X171707985Y-77263921D01*
G75*
G02*
X170887317Y-78042705I-799726J20942D01*
G01*
G37*
%TD.AperFunction*%
%TO.P,REF\u002A\u002A,6*%
%TA.AperFunction,ComponentPad*%
G36*
G01*
X171086786Y-70425316D02*
X171086786Y-70425316D01*
G75*
G02*
X170308002Y-69604648I20942J799726D01*
G01*
X170308002Y-69604648D01*
G75*
G02*
X171128670Y-68825864I799726J-20942D01*
G01*
X171128670Y-68825864D01*
G75*
G02*
X171907454Y-69646532I-20942J-799726D01*
G01*
X171907454Y-69646532D01*
G75*
G02*
X171086786Y-70425316I-799726J20942D01*
G01*
G37*
%TD.AperFunction*%
%TO.P,REF\u002A\u002A,2*%
%TA.AperFunction,ComponentPad*%
G36*
G01*
X168348188Y-77976215D02*
X168348188Y-77976215D01*
G75*
G02*
X167569404Y-77155547I20942J799726D01*
G01*
X167569404Y-77155547D01*
G75*
G02*
X168390072Y-76376763I799726J-20942D01*
G01*
X168390072Y-76376763D01*
G75*
G02*
X169168856Y-77197431I-20942J-799726D01*
G01*
X169168856Y-77197431D01*
G75*
G02*
X168348188Y-77976215I-799726J20942D01*
G01*
G37*
%TD.AperFunction*%
%TO.P,REF\u002A\u002A,5*%
%TA.AperFunction,ComponentPad*%
G36*
G01*
X173625915Y-70491806D02*
X173625915Y-70491806D01*
G75*
G02*
X172847131Y-69671138I20942J799726D01*
G01*
X172847131Y-69671138D01*
G75*
G02*
X173667799Y-68892354I799726J-20942D01*
G01*
X173667799Y-68892354D01*
G75*
G02*
X174446583Y-69713022I-20942J-799726D01*
G01*
X174446583Y-69713022D01*
G75*
G02*
X173625915Y-70491806I-799726J20942D01*
G01*
G37*
%TD.AperFunction*%
%TA.AperFunction,ComponentPad*%
%TO.P,REF\u002A\u002A,1*%
G36*
X166608784Y-77930667D02*
G01*
X165009333Y-77888784D01*
X165051216Y-76289333D01*
X166650667Y-76331216D01*
X166608784Y-77930667D01*
G37*
%TD.AperFunction*%
%TD*%
D13*
%TO.P,REF\u002A\u002A,1*%
%TO.N,N/C*%
X230500000Y-122010000D03*
%TD*%
%TO.P,REF\u002A\u002A,1*%
%TO.N,N/C*%
X180750000Y-76990000D03*
%TD*%
D11*
%TO.P,REF\u002A\u002A,2*%
%TO.N,N/C*%
X247143136Y-120846843D03*
%TO.P,REF\u002A\u002A,3*%
X248296272Y-118583687D03*
%TA.AperFunction,ComponentPad*%
D12*
%TO.P,REF\u002A\u002A,1*%
G36*
X246998748Y-122782238D02*
G01*
X246317762Y-124118748D01*
X244981252Y-123437762D01*
X245662238Y-122101252D01*
X246998748Y-122782238D01*
G37*
%TD.AperFunction*%
%TD*%
D13*
%TO.P,REF\u002A\u002A,1*%
%TO.N,N/C*%
X188140000Y-125030000D03*
%TD*%
D14*
%TO.P,REF\u002A\u002A,1*%
%TO.N,N/C*%
X231570000Y-106700000D03*
%TO.P,REF\u002A\u002A,2*%
%TA.AperFunction,ComponentPad*%
G36*
G01*
X236638248Y-111263471D02*
X236638248Y-111263471D01*
G75*
G02*
X237768068Y-111204259I594516J-535304D01*
G01*
X237768068Y-111204259D01*
G75*
G02*
X237827280Y-112334079I-535304J-594516D01*
G01*
X237827280Y-112334079D01*
G75*
G02*
X236697460Y-112393291I-594516J535304D01*
G01*
X236697460Y-112393291D01*
G75*
G02*
X236638248Y-111263471I535304J594516D01*
G01*
G37*
%TD.AperFunction*%
%TD*%
D13*
%TO.P,REF\u002A\u002A,1*%
%TO.N,N/C*%
X249360000Y-85550000D03*
%TD*%
%TO.P,REF\u002A\u002A,1*%
%TO.N,N/C*%
X191260000Y-124210000D03*
%TD*%
%TO.P,REF\u002A\u002A,1*%
%TO.N,N/C*%
X210980000Y-92500000D03*
%TD*%
%TO.P,REF\u002A\u002A,1*%
%TO.N,N/C*%
X195400000Y-154170000D03*
%TD*%
%TO.P,REF\u002A\u002A,1*%
%TO.N,N/C*%
X200440000Y-156550000D03*
%TD*%
%TO.P,REF\u002A\u002A,1*%
%TO.N,N/C*%
X254720000Y-102720000D03*
%TD*%
D14*
%TO.P,REF\u002A\u002A,1*%
%TO.N,N/C*%
X178320000Y-89620000D03*
%TO.P,REF\u002A\u002A,2*%
%TA.AperFunction,ComponentPad*%
G36*
G01*
X173890764Y-84434032D02*
X173890764Y-84434032D01*
G75*
G02*
X172762881Y-84345265I-519558J608325D01*
G01*
X172762881Y-84345265D01*
G75*
G02*
X172851648Y-83217382I608325J519558D01*
G01*
X172851648Y-83217382D01*
G75*
G02*
X173979531Y-83306149I519558J-608325D01*
G01*
X173979531Y-83306149D01*
G75*
G02*
X173890764Y-84434032I-608325J-519558D01*
G01*
G37*
%TD.AperFunction*%
%TD*%
%TO.P,REF\u002A\u002A,2*%
%TO.N,N/C*%
%TA.AperFunction,ComponentPad*%
G36*
G01*
X245154032Y-62579236D02*
X245154032Y-62579236D01*
G75*
G02*
X245065265Y-63707119I-608325J-519558D01*
G01*
X245065265Y-63707119D01*
G75*
G02*
X243937382Y-63618352I-519558J608325D01*
G01*
X243937382Y-63618352D01*
G75*
G02*
X244026149Y-62490469I608325J519558D01*
G01*
X244026149Y-62490469D01*
G75*
G02*
X245154032Y-62579236I519558J-608325D01*
G01*
G37*
%TD.AperFunction*%
%TO.P,REF\u002A\u002A,1*%
X250340000Y-58150000D03*
%TD*%
D13*
%TO.P,REF\u002A\u002A,1*%
%TO.N,N/C*%
X246770000Y-129540000D03*
%TD*%
%TO.P,REF\u002A\u002A,1*%
%TO.N,N/C*%
X208920000Y-85870000D03*
%TD*%
%TO.P,REF\u002A\u002A,1*%
%TO.N,N/C*%
X165440000Y-87480000D03*
%TD*%
%TO.P,REF\u002A\u002A,2*%
%TO.N,N/C*%
%TA.AperFunction,ComponentPad*%
G36*
G01*
X228420202Y-89624368D02*
X228420202Y-89624368D01*
G75*
G02*
X229551529Y-89634241I560727J-570600D01*
G01*
X229551529Y-89634241D01*
G75*
G02*
X229541656Y-90765568I-570600J-560727D01*
G01*
X229541656Y-90765568D01*
G75*
G02*
X228410329Y-90755695I-560727J570600D01*
G01*
X228410329Y-90755695D01*
G75*
G02*
X228420202Y-89624368I570600J560727D01*
G01*
G37*
%TD.AperFunction*%
D14*
%TO.P,REF\u002A\u002A,1*%
X223640000Y-84760000D03*
%TD*%
%TO.P,REF\u002A\u002A,1*%
%TO.N,N/C*%
X221680000Y-87230000D03*
%TO.P,REF\u002A\u002A,2*%
%TA.AperFunction,ComponentPad*%
G36*
G01*
X226748248Y-91793471D02*
X226748248Y-91793471D01*
G75*
G02*
X227878068Y-91734259I594516J-535304D01*
G01*
X227878068Y-91734259D01*
G75*
G02*
X227937280Y-92864079I-535304J-594516D01*
G01*
X227937280Y-92864079D01*
G75*
G02*
X226807460Y-92923291I-594516J535304D01*
G01*
X226807460Y-92923291D01*
G75*
G02*
X226748248Y-91793471I535304J594516D01*
G01*
G37*
%TD.AperFunction*%
%TD*%
%TO.P,REF\u002A\u002A,2*%
%TO.N,N/C*%
%TA.AperFunction,ComponentPad*%
G36*
G01*
X224728248Y-94073471D02*
X224728248Y-94073471D01*
G75*
G02*
X225858068Y-94014259I594516J-535304D01*
G01*
X225858068Y-94014259D01*
G75*
G02*
X225917280Y-95144079I-535304J-594516D01*
G01*
X225917280Y-95144079D01*
G75*
G02*
X224787460Y-95203291I-594516J535304D01*
G01*
X224787460Y-95203291D01*
G75*
G02*
X224728248Y-94073471I535304J594516D01*
G01*
G37*
%TD.AperFunction*%
%TO.P,REF\u002A\u002A,1*%
X219660000Y-89510000D03*
%TD*%
%TO.P,REF\u002A\u002A,2*%
%TO.N,N/C*%
%TA.AperFunction,ComponentPad*%
G36*
G01*
X234353471Y-113848248D02*
X234353471Y-113848248D01*
G75*
G02*
X235483291Y-113907460I535304J-594516D01*
G01*
X235483291Y-113907460D01*
G75*
G02*
X235424079Y-115037280I-594516J-535304D01*
G01*
X235424079Y-115037280D01*
G75*
G02*
X234294259Y-114978068I-535304J594516D01*
G01*
X234294259Y-114978068D01*
G75*
G02*
X234353471Y-113848248I594516J535304D01*
G01*
G37*
%TD.AperFunction*%
%TO.P,REF\u002A\u002A,1*%
X229790000Y-108780000D03*
%TD*%
%TO.P,REF\u002A\u002A,1*%
%TO.N,N/C*%
X217400000Y-92410000D03*
%TO.P,REF\u002A\u002A,2*%
%TA.AperFunction,ComponentPad*%
G36*
G01*
X223054036Y-96223696D02*
X223054036Y-96223696D01*
G75*
G02*
X224164620Y-96007820I663230J-447354D01*
G01*
X224164620Y-96007820D01*
G75*
G02*
X224380496Y-97118404I-447354J-663230D01*
G01*
X224380496Y-97118404D01*
G75*
G02*
X223269912Y-97334280I-663230J447354D01*
G01*
X223269912Y-97334280D01*
G75*
G02*
X223054036Y-96223696I447354J663230D01*
G01*
G37*
%TD.AperFunction*%
%TD*%
%TO.P,REF\u002A\u002A,1*%
%TO.N,N/C*%
X235390000Y-102250000D03*
%TO.P,REF\u002A\u002A,2*%
%TA.AperFunction,ComponentPad*%
G36*
G01*
X240976617Y-106161791D02*
X240976617Y-106161791D01*
G75*
G02*
X242090800Y-105965330I655322J-458861D01*
G01*
X242090800Y-105965330D01*
G75*
G02*
X242287261Y-107079513I-458861J-655322D01*
G01*
X242287261Y-107079513D01*
G75*
G02*
X241173078Y-107275974I-655322J458861D01*
G01*
X241173078Y-107275974D01*
G75*
G02*
X240976617Y-106161791I458861J655322D01*
G01*
G37*
%TD.AperFunction*%
%TD*%
%TO.P,REF\u002A\u002A,1*%
%TO.N,N/C*%
X231530000Y-115550000D03*
%TO.P,REF\u002A\u002A,2*%
%TA.AperFunction,ComponentPad*%
G36*
G01*
X227425622Y-120996695D02*
X227425622Y-120996695D01*
G75*
G02*
X227583078Y-122117055I-481452J-638908D01*
G01*
X227583078Y-122117055D01*
G75*
G02*
X226462718Y-122274511I-638908J481452D01*
G01*
X226462718Y-122274511D01*
G75*
G02*
X226305262Y-121154151I481452J638908D01*
G01*
X226305262Y-121154151D01*
G75*
G02*
X227425622Y-120996695I638908J-481452D01*
G01*
G37*
%TD.AperFunction*%
%TD*%
%TO.P,REF\u002A\u002A,2*%
%TO.N,N/C*%
%TA.AperFunction,ComponentPad*%
G36*
G01*
X220643305Y-120415622D02*
X220643305Y-120415622D01*
G75*
G02*
X219522945Y-120573078I-638908J481452D01*
G01*
X219522945Y-120573078D01*
G75*
G02*
X219365489Y-119452718I481452J638908D01*
G01*
X219365489Y-119452718D01*
G75*
G02*
X220485849Y-119295262I638908J-481452D01*
G01*
X220485849Y-119295262D01*
G75*
G02*
X220643305Y-120415622I-481452J-638908D01*
G01*
G37*
%TD.AperFunction*%
%TO.P,REF\u002A\u002A,1*%
X226090000Y-124520000D03*
%TD*%
%TO.P,REF\u002A\u002A,2*%
%TO.N,N/C*%
%TA.AperFunction,ComponentPad*%
G36*
G01*
X184168682Y-113894697D02*
X184168682Y-113894697D01*
G75*
G02*
X184801337Y-114832646I-152647J-785302D01*
G01*
X184801337Y-114832646D01*
G75*
G02*
X183863388Y-115465301I-785302J152647D01*
G01*
X183863388Y-115465301D01*
G75*
G02*
X183230733Y-114527352I152647J785302D01*
G01*
X183230733Y-114527352D01*
G75*
G02*
X184168682Y-113894697I785302J-152647D01*
G01*
G37*
%TD.AperFunction*%
%TO.P,REF\u002A\u002A,1*%
X185470000Y-107200000D03*
%TD*%
%TO.P,REF\u002A\u002A,1*%
%TO.N,N/C*%
X188390000Y-107970000D03*
%TO.P,REF\u002A\u002A,2*%
%TA.AperFunction,ComponentPad*%
G36*
G01*
X187264375Y-114696468D02*
X187264375Y-114696468D01*
G75*
G02*
X187921365Y-115617534I-132038J-789028D01*
G01*
X187921365Y-115617534D01*
G75*
G02*
X187000299Y-116274524I-789028J132038D01*
G01*
X187000299Y-116274524D01*
G75*
G02*
X186343309Y-115353458I132038J789028D01*
G01*
X186343309Y-115353458D01*
G75*
G02*
X187264375Y-114696468I789028J-132038D01*
G01*
G37*
%TD.AperFunction*%
%TD*%
%TO.P,REF\u002A\u002A,2*%
%TO.N,N/C*%
%TA.AperFunction,ComponentPad*%
G36*
G01*
X190469811Y-115021654D02*
X190469811Y-115021654D01*
G75*
G02*
X191158546Y-115919231I-104421J-793156D01*
G01*
X191158546Y-115919231D01*
G75*
G02*
X190260969Y-116607966I-793156J104421D01*
G01*
X190260969Y-116607966D01*
G75*
G02*
X189572234Y-115710389I104421J793156D01*
G01*
X189572234Y-115710389D01*
G75*
G02*
X190469811Y-115021654I793156J-104421D01*
G01*
G37*
%TD.AperFunction*%
%TO.P,REF\u002A\u002A,1*%
X191360000Y-108260000D03*
%TD*%
%TO.P,REF\u002A\u002A,1*%
%TO.N,N/C*%
X190670000Y-87570000D03*
%TO.P,REF\u002A\u002A,2*%
%TA.AperFunction,ComponentPad*%
G36*
G01*
X190016332Y-94358602D02*
X190016332Y-94358602D01*
G75*
G02*
X190735972Y-95231596I-76677J-796317D01*
G01*
X190735972Y-95231596D01*
G75*
G02*
X189862978Y-95951236I-796317J76677D01*
G01*
X189862978Y-95951236D01*
G75*
G02*
X189143338Y-95078242I76677J796317D01*
G01*
X189143338Y-95078242D01*
G75*
G02*
X190016332Y-94358602I796317J-76677D01*
G01*
G37*
%TD.AperFunction*%
%TD*%
%TO.P,REF\u002A\u002A,2*%
%TO.N,N/C*%
%TA.AperFunction,ComponentPad*%
G36*
G01*
X243382268Y-104170395D02*
X243382268Y-104170395D01*
G75*
G02*
X244498122Y-103983665I651292J-464562D01*
G01*
X244498122Y-103983665D01*
G75*
G02*
X244684852Y-105099519I-464562J-651292D01*
G01*
X244684852Y-105099519D01*
G75*
G02*
X243568998Y-105286249I-651292J464562D01*
G01*
X243568998Y-105286249D01*
G75*
G02*
X243382268Y-104170395I464562J651292D01*
G01*
G37*
%TD.AperFunction*%
%TO.P,REF\u002A\u002A,1*%
X237830000Y-100210000D03*
%TD*%
%TO.P,REF\u002A\u002A,1*%
%TO.N,N/C*%
X197130000Y-88780000D03*
%TO.P,REF\u002A\u002A,2*%
%TA.AperFunction,ComponentPad*%
G36*
G01*
X195595834Y-95425204D02*
X195595834Y-95425204D01*
G75*
G02*
X196195369Y-96384661I-179961J-779496D01*
G01*
X196195369Y-96384661D01*
G75*
G02*
X195235912Y-96984196I-779496J179961D01*
G01*
X195235912Y-96984196D01*
G75*
G02*
X194636377Y-96024739I179961J779496D01*
G01*
X194636377Y-96024739D01*
G75*
G02*
X195595834Y-95425204I779496J-179961D01*
G01*
G37*
%TD.AperFunction*%
%TD*%
%TO.P,REF\u002A\u002A,2*%
%TO.N,N/C*%
%TA.AperFunction,ComponentPad*%
G36*
G01*
X192775720Y-94866389D02*
X192775720Y-94866389D01*
G75*
G02*
X193424647Y-95793154I-138919J-787846D01*
G01*
X193424647Y-95793154D01*
G75*
G02*
X192497882Y-96442081I-787846J138919D01*
G01*
X192497882Y-96442081D01*
G75*
G02*
X191848955Y-95515316I138919J787846D01*
G01*
X191848955Y-95515316D01*
G75*
G02*
X192775720Y-94866389I787846J-138919D01*
G01*
G37*
%TD.AperFunction*%
%TO.P,REF\u002A\u002A,1*%
X193960000Y-88150000D03*
%TD*%
%TO.P,REF\u002A\u002A,2*%
%TO.N,N/C*%
%TA.AperFunction,ComponentPad*%
G36*
G01*
X186736332Y-93228602D02*
X186736332Y-93228602D01*
G75*
G02*
X187455972Y-94101596I-76677J-796317D01*
G01*
X187455972Y-94101596D01*
G75*
G02*
X186582978Y-94821236I-796317J76677D01*
G01*
X186582978Y-94821236D01*
G75*
G02*
X185863338Y-93948242I76677J796317D01*
G01*
X185863338Y-93948242D01*
G75*
G02*
X186736332Y-93228602I796317J-76677D01*
G01*
G37*
%TD.AperFunction*%
%TO.P,REF\u002A\u002A,1*%
X187390000Y-86440000D03*
%TD*%
%TO.P,REF\u002A\u002A,2*%
%TO.N,N/C*%
%TA.AperFunction,ComponentPad*%
G36*
G01*
X238635968Y-108899236D02*
X238635968Y-108899236D01*
G75*
G02*
X239763851Y-108810469I608325J-519558D01*
G01*
X239763851Y-108810469D01*
G75*
G02*
X239852618Y-109938352I-519558J-608325D01*
G01*
X239852618Y-109938352D01*
G75*
G02*
X238724735Y-110027119I-608325J519558D01*
G01*
X238724735Y-110027119D01*
G75*
G02*
X238635968Y-108899236I519558J608325D01*
G01*
G37*
%TD.AperFunction*%
%TO.P,REF\u002A\u002A,1*%
X233450000Y-104470000D03*
%TD*%
%TO.P,REF\u002A\u002A,2*%
%TO.N,N/C*%
%TA.AperFunction,ComponentPad*%
G36*
G01*
X198500153Y-96115805D02*
X198500153Y-96115805D01*
G75*
G02*
X199048652Y-97105324I-220510J-769009D01*
G01*
X199048652Y-97105324D01*
G75*
G02*
X198059133Y-97653823I-769009J220510D01*
G01*
X198059133Y-97653823D01*
G75*
G02*
X197510634Y-96664304I220510J769009D01*
G01*
X197510634Y-96664304D01*
G75*
G02*
X198500153Y-96115805I769009J-220510D01*
G01*
G37*
%TD.AperFunction*%
%TO.P,REF\u002A\u002A,1*%
X200380000Y-89560000D03*
%TD*%
%TO.P,REF\u002A\u002A,1*%
%TO.N,N/C*%
X187290000Y-82240000D03*
%TO.P,REF\u002A\u002A,2*%
%TA.AperFunction,ComponentPad*%
G36*
G01*
X181703383Y-86151791D02*
X181703383Y-86151791D01*
G75*
G02*
X181506922Y-87265974I-655322J-458861D01*
G01*
X181506922Y-87265974D01*
G75*
G02*
X180392739Y-87069513I-458861J655322D01*
G01*
X180392739Y-87069513D01*
G75*
G02*
X180589200Y-85955330I655322J458861D01*
G01*
X180589200Y-85955330D01*
G75*
G02*
X181703383Y-86151791I458861J-655322D01*
G01*
G37*
%TD.AperFunction*%
%TD*%
%TO.P,REF\u002A\u002A,1*%
%TO.N,N/C*%
X182930000Y-106700000D03*
%TO.P,REF\u002A\u002A,2*%
%TA.AperFunction,ComponentPad*%
G36*
G01*
X181107435Y-113271960D02*
X181107435Y-113271960D01*
G75*
G02*
X181664548Y-114256655I-213791J-770904D01*
G01*
X181664548Y-114256655D01*
G75*
G02*
X180679853Y-114813768I-770904J213791D01*
G01*
X180679853Y-114813768D01*
G75*
G02*
X180122740Y-113829073I213791J770904D01*
G01*
X180122740Y-113829073D01*
G75*
G02*
X181107435Y-113271960I770904J-213791D01*
G01*
G37*
%TD.AperFunction*%
%TD*%
%TO.P,REF\u002A\u002A,1*%
%TO.N,N/C*%
X163360000Y-63100000D03*
%TO.P,REF\u002A\u002A,2*%
%TA.AperFunction,ComponentPad*%
G36*
G01*
X170148602Y-62446332D02*
X170148602Y-62446332D01*
G75*
G02*
X170868242Y-61573338I796317J76677D01*
G01*
X170868242Y-61573338D01*
G75*
G02*
X171741236Y-62292978I76677J-796317D01*
G01*
X171741236Y-62292978D01*
G75*
G02*
X171021596Y-63165972I-796317J-76677D01*
G01*
X171021596Y-63165972D01*
G75*
G02*
X170148602Y-62446332I-76677J796317D01*
G01*
G37*
%TD.AperFunction*%
%TD*%
%TO.P,REF\u002A\u002A,2*%
%TO.N,N/C*%
%TA.AperFunction,ComponentPad*%
G36*
G01*
X167498602Y-59216332D02*
X167498602Y-59216332D01*
G75*
G02*
X168218242Y-58343338I796317J76677D01*
G01*
X168218242Y-58343338D01*
G75*
G02*
X169091236Y-59062978I76677J-796317D01*
G01*
X169091236Y-59062978D01*
G75*
G02*
X168371596Y-59935972I-796317J-76677D01*
G01*
X168371596Y-59935972D01*
G75*
G02*
X167498602Y-59216332I-76677J796317D01*
G01*
G37*
%TD.AperFunction*%
%TO.P,REF\u002A\u002A,1*%
X160710000Y-59870000D03*
%TD*%
%TO.P,REF\u002A\u002A,1*%
%TO.N,N/C*%
X187560000Y-64020000D03*
%TO.P,REF\u002A\u002A,2*%
%TA.AperFunction,ComponentPad*%
G36*
G01*
X190333944Y-57789620D02*
X190333944Y-57789620D01*
G75*
G02*
X189928497Y-56733395I325389J730836D01*
G01*
X189928497Y-56733395D01*
G75*
G02*
X190984722Y-56327948I730836J-325389D01*
G01*
X190984722Y-56327948D01*
G75*
G02*
X191390169Y-57384173I-325389J-730836D01*
G01*
X191390169Y-57384173D01*
G75*
G02*
X190333944Y-57789620I-730836J325389D01*
G01*
G37*
%TD.AperFunction*%
%TD*%
%TO.P,REF\u002A\u002A,2*%
%TO.N,N/C*%
%TA.AperFunction,ComponentPad*%
G36*
G01*
X172545632Y-58789798D02*
X172545632Y-58789798D01*
G75*
G02*
X171414305Y-58799671I-570600J560727D01*
G01*
X171414305Y-58799671D01*
G75*
G02*
X171404432Y-57668344I560727J570600D01*
G01*
X171404432Y-57668344D01*
G75*
G02*
X172535759Y-57658471I570600J-560727D01*
G01*
X172535759Y-57658471D01*
G75*
G02*
X172545632Y-58789798I-560727J-570600D01*
G01*
G37*
%TD.AperFunction*%
%TO.P,REF\u002A\u002A,1*%
X177410000Y-63570000D03*
%TD*%
%TO.P,REF\u002A\u002A,1*%
%TO.N,N/C*%
X184860000Y-76120000D03*
%TO.P,REF\u002A\u002A,2*%
%TA.AperFunction,ComponentPad*%
G36*
G01*
X179912946Y-71425422D02*
X179912946Y-71425422D01*
G75*
G02*
X178781963Y-71455037I-580299J550684D01*
G01*
X178781963Y-71455037D01*
G75*
G02*
X178752348Y-70324054I550684J580299D01*
G01*
X178752348Y-70324054D01*
G75*
G02*
X179883331Y-70294439I580299J-550684D01*
G01*
X179883331Y-70294439D01*
G75*
G02*
X179912946Y-71425422I-550684J-580299D01*
G01*
G37*
%TD.AperFunction*%
%TD*%
%TO.P,REF\u002A\u002A,1*%
%TO.N,N/C*%
X254350000Y-107330000D03*
%TO.P,REF\u002A\u002A,2*%
%TA.AperFunction,ComponentPad*%
G36*
G01*
X260889150Y-105393015D02*
X260889150Y-105393015D01*
G75*
G02*
X261428994Y-104398747I767056J227212D01*
G01*
X261428994Y-104398747D01*
G75*
G02*
X262423262Y-104938591I227212J-767056D01*
G01*
X262423262Y-104938591D01*
G75*
G02*
X261883418Y-105932859I-767056J-227212D01*
G01*
X261883418Y-105932859D01*
G75*
G02*
X260889150Y-105393015I-227212J767056D01*
G01*
G37*
%TD.AperFunction*%
%TD*%
%TO.P,REF\u002A\u002A,1*%
%TO.N,N/C*%
X214010000Y-91600000D03*
%TO.P,REF\u002A\u002A,2*%
%TA.AperFunction,ComponentPad*%
G36*
G01*
X213653069Y-98410653D02*
X213653069Y-98410653D01*
G75*
G02*
X214410104Y-99251426I-41869J-798904D01*
G01*
X214410104Y-99251426D01*
G75*
G02*
X213569331Y-100008461I-798904J41869D01*
G01*
X213569331Y-100008461D01*
G75*
G02*
X212812296Y-99167688I41869J798904D01*
G01*
X212812296Y-99167688D01*
G75*
G02*
X213653069Y-98410653I798904J-41869D01*
G01*
G37*
%TD.AperFunction*%
%TD*%
%TO.P,REF\u002A\u002A,1*%
%TO.N,N/C*%
X211630000Y-75870000D03*
%TO.P,REF\u002A\u002A,2*%
%TA.AperFunction,ComponentPad*%
G36*
G01*
X216104323Y-81017119D02*
X216104323Y-81017119D01*
G75*
G02*
X217232938Y-81096040I524847J-603768D01*
G01*
X217232938Y-81096040D01*
G75*
G02*
X217154017Y-82224655I-603768J-524847D01*
G01*
X217154017Y-82224655D01*
G75*
G02*
X216025402Y-82145734I-524847J603768D01*
G01*
X216025402Y-82145734D01*
G75*
G02*
X216104323Y-81017119I603768J524847D01*
G01*
G37*
%TD.AperFunction*%
%TD*%
%TO.P,REF\u002A\u002A,1*%
%TO.N,N/C*%
X233560000Y-79480000D03*
%TO.P,REF\u002A\u002A,2*%
%TA.AperFunction,ComponentPad*%
G36*
G01*
X229314450Y-84817387D02*
X229314450Y-84817387D01*
G75*
G02*
X229442525Y-85941486I-498012J-626087D01*
G01*
X229442525Y-85941486D01*
G75*
G02*
X228318426Y-86069561I-626087J498012D01*
G01*
X228318426Y-86069561D01*
G75*
G02*
X228190351Y-84945462I498012J626087D01*
G01*
X228190351Y-84945462D01*
G75*
G02*
X229314450Y-84817387I626087J-498012D01*
G01*
G37*
%TD.AperFunction*%
%TD*%
%TO.P,REF\u002A\u002A,2*%
%TO.N,N/C*%
%TA.AperFunction,ComponentPad*%
G36*
G01*
X184234450Y-69772613D02*
X184234450Y-69772613D01*
G75*
G02*
X183110351Y-69644538I-498012J626087D01*
G01*
X183110351Y-69644538D01*
G75*
G02*
X183238426Y-68520439I626087J498012D01*
G01*
X183238426Y-68520439D01*
G75*
G02*
X184362525Y-68648514I498012J-626087D01*
G01*
X184362525Y-68648514D01*
G75*
G02*
X184234450Y-69772613I-626087J-498012D01*
G01*
G37*
%TD.AperFunction*%
%TO.P,REF\u002A\u002A,1*%
X188480000Y-75110000D03*
%TD*%
%TO.P,REF\u002A\u002A,1*%
%TO.N,N/C*%
X192620000Y-72800000D03*
%TO.P,REF\u002A\u002A,2*%
%TA.AperFunction,ComponentPad*%
G36*
G01*
X191027902Y-66168437D02*
X191027902Y-66168437D01*
G75*
G02*
X190063250Y-65577297I-186756J777896D01*
G01*
X190063250Y-65577297D01*
G75*
G02*
X190654390Y-64612645I777896J186756D01*
G01*
X190654390Y-64612645D01*
G75*
G02*
X191619042Y-65203785I186756J-777896D01*
G01*
X191619042Y-65203785D01*
G75*
G02*
X191027902Y-66168437I-777896J-186756D01*
G01*
G37*
%TD.AperFunction*%
%TD*%
%TO.P,REF\u002A\u002A,2*%
%TO.N,N/C*%
%TA.AperFunction,ComponentPad*%
G36*
G01*
X205205950Y-75563688D02*
X205205950Y-75563688D01*
G75*
G02*
X205460453Y-76666061I-423935J-678438D01*
G01*
X205460453Y-76666061D01*
G75*
G02*
X204358080Y-76920564I-678438J423935D01*
G01*
X204358080Y-76920564D01*
G75*
G02*
X204103577Y-75818191I423935J678438D01*
G01*
X204103577Y-75818191D01*
G75*
G02*
X205205950Y-75563688I678438J-423935D01*
G01*
G37*
%TD.AperFunction*%
%TO.P,REF\u002A\u002A,1*%
X208820000Y-69780000D03*
%TD*%
%TO.P,REF\u002A\u002A,1*%
%TO.N,N/C*%
X212210000Y-57940000D03*
%TO.P,REF\u002A\u002A,2*%
%TA.AperFunction,ComponentPad*%
G36*
G01*
X205821896Y-60328414D02*
X205821896Y-60328414D01*
G75*
G02*
X205352724Y-61357918I-749338J-280166D01*
G01*
X205352724Y-61357918D01*
G75*
G02*
X204323220Y-60888746I-280166J749338D01*
G01*
X204323220Y-60888746D01*
G75*
G02*
X204792392Y-59859242I749338J280166D01*
G01*
X204792392Y-59859242D01*
G75*
G02*
X205821896Y-60328414I280166J-749338D01*
G01*
G37*
%TD.AperFunction*%
%TD*%
%TO.P,REF\u002A\u002A,1*%
%TO.N,N/C*%
X213280000Y-64530000D03*
%TO.P,REF\u002A\u002A,2*%
%TA.AperFunction,ComponentPad*%
G36*
G01*
X211172505Y-71016206D02*
X211172505Y-71016206D01*
G75*
G02*
X211686136Y-72024265I-247214J-760845D01*
G01*
X211686136Y-72024265D01*
G75*
G02*
X210678077Y-72537896I-760845J247214D01*
G01*
X210678077Y-72537896D01*
G75*
G02*
X210164446Y-71529837I247214J760845D01*
G01*
X210164446Y-71529837D01*
G75*
G02*
X211172505Y-71016206I760845J-247214D01*
G01*
G37*
%TD.AperFunction*%
%TD*%
%TO.P,REF\u002A\u002A,2*%
%TO.N,N/C*%
%TA.AperFunction,ComponentPad*%
G36*
G01*
X210176161Y-89077955D02*
X210176161Y-89077955D01*
G75*
G02*
X210880455Y-88192535I794857J90563D01*
G01*
X210880455Y-88192535D01*
G75*
G02*
X211765875Y-88896829I90563J-794857D01*
G01*
X211765875Y-88896829D01*
G75*
G02*
X211061581Y-89782249I-794857J-90563D01*
G01*
X211061581Y-89782249D01*
G75*
G02*
X210176161Y-89077955I-90563J794857D01*
G01*
G37*
%TD.AperFunction*%
%TO.P,REF\u002A\u002A,1*%
X203400000Y-89850000D03*
%TD*%
%TO.P,REF\u002A\u002A,2*%
%TO.N,N/C*%
%TA.AperFunction,ComponentPad*%
G36*
G01*
X218380395Y-78252268D02*
X218380395Y-78252268D01*
G75*
G02*
X219496249Y-78438998I464562J-651292D01*
G01*
X219496249Y-78438998D01*
G75*
G02*
X219309519Y-79554852I-651292J-464562D01*
G01*
X219309519Y-79554852D01*
G75*
G02*
X218193665Y-79368122I-464562J651292D01*
G01*
X218193665Y-79368122D01*
G75*
G02*
X218380395Y-78252268I651292J464562D01*
G01*
G37*
%TD.AperFunction*%
%TO.P,REF\u002A\u002A,1*%
X214420000Y-72700000D03*
%TD*%
%TO.P,REF\u002A\u002A,2*%
%TO.N,N/C*%
%TA.AperFunction,ComponentPad*%
G36*
G01*
X217507435Y-62271960D02*
X217507435Y-62271960D01*
G75*
G02*
X218064548Y-63256655I-213791J-770904D01*
G01*
X218064548Y-63256655D01*
G75*
G02*
X217079853Y-63813768I-770904J213791D01*
G01*
X217079853Y-63813768D01*
G75*
G02*
X216522740Y-62829073I213791J770904D01*
G01*
X216522740Y-62829073D01*
G75*
G02*
X217507435Y-62271960I770904J-213791D01*
G01*
G37*
%TD.AperFunction*%
%TO.P,REF\u002A\u002A,1*%
X219330000Y-55700000D03*
%TD*%
%TO.P,REF\u002A\u002A,1*%
%TO.N,N/C*%
X234830000Y-57510000D03*
%TO.P,REF\u002A\u002A,2*%
%TA.AperFunction,ComponentPad*%
G36*
G01*
X230007531Y-62332469D02*
X230007531Y-62332469D01*
G75*
G02*
X230007531Y-63463839I-565685J-565685D01*
G01*
X230007531Y-63463839D01*
G75*
G02*
X228876161Y-63463839I-565685J565685D01*
G01*
X228876161Y-63463839D01*
G75*
G02*
X228876161Y-62332469I565685J565685D01*
G01*
X228876161Y-62332469D01*
G75*
G02*
X230007531Y-62332469I565685J-565685D01*
G01*
G37*
%TD.AperFunction*%
%TD*%
%TO.P,REF\u002A\u002A,2*%
%TO.N,N/C*%
%TA.AperFunction,ComponentPad*%
G36*
G01*
X239479865Y-62811965D02*
X239479865Y-62811965D01*
G75*
G02*
X239361604Y-63937138I-621717J-503456D01*
G01*
X239361604Y-63937138D01*
G75*
G02*
X238236431Y-63818877I-503456J621717D01*
G01*
X238236431Y-63818877D01*
G75*
G02*
X238354692Y-62693704I621717J503456D01*
G01*
X238354692Y-62693704D01*
G75*
G02*
X239479865Y-62811965I503456J-621717D01*
G01*
G37*
%TD.AperFunction*%
%TO.P,REF\u002A\u002A,1*%
X244780000Y-58520000D03*
%TD*%
%TO.P,REF\u002A\u002A,1*%
%TO.N,N/C*%
X249680000Y-62730000D03*
%TO.P,REF\u002A\u002A,2*%
%TA.AperFunction,ComponentPad*%
G36*
G01*
X244342613Y-66975550D02*
X244342613Y-66975550D01*
G75*
G02*
X244214538Y-68099649I-626087J-498012D01*
G01*
X244214538Y-68099649D01*
G75*
G02*
X243090439Y-67971574I-498012J626087D01*
G01*
X243090439Y-67971574D01*
G75*
G02*
X243218514Y-66847475I626087J498012D01*
G01*
X243218514Y-66847475D01*
G75*
G02*
X244342613Y-66975550I498012J-626087D01*
G01*
G37*
%TD.AperFunction*%
%TD*%
%TO.P,REF\u002A\u002A,2*%
%TO.N,N/C*%
%TA.AperFunction,ComponentPad*%
G36*
G01*
X244121671Y-76424175D02*
X244121671Y-76424175D01*
G75*
G02*
X243031447Y-76121829I-393939J696285D01*
G01*
X243031447Y-76121829D01*
G75*
G02*
X243333793Y-75031605I696285J393939D01*
G01*
X243333793Y-75031605D01*
G75*
G02*
X244424017Y-75333951I393939J-696285D01*
G01*
X244424017Y-75333951D01*
G75*
G02*
X244121671Y-76424175I-696285J-393939D01*
G01*
G37*
%TD.AperFunction*%
%TO.P,REF\u002A\u002A,1*%
X247480000Y-82360000D03*
%TD*%
%TO.P,REF\u002A\u002A,2*%
%TO.N,N/C*%
%TA.AperFunction,ComponentPad*%
G36*
G01*
X206557109Y-68090541D02*
X206557109Y-68090541D01*
G75*
G02*
X206763285Y-69202967I-453125J-659301D01*
G01*
X206763285Y-69202967D01*
G75*
G02*
X205650859Y-69409143I-659301J453125D01*
G01*
X205650859Y-69409143D01*
G75*
G02*
X205444683Y-68296717I453125J659301D01*
G01*
X205444683Y-68296717D01*
G75*
G02*
X206557109Y-68090541I659301J-453125D01*
G01*
G37*
%TD.AperFunction*%
%TO.P,REF\u002A\u002A,1*%
X210420000Y-62470000D03*
%TD*%
%TO.P,REF\u002A\u002A,1*%
%TO.N,N/C*%
X250280000Y-82240000D03*
%TO.P,REF\u002A\u002A,2*%
%TA.AperFunction,ComponentPad*%
G36*
G01*
X257049165Y-83071149D02*
X257049165Y-83071149D01*
G75*
G02*
X257940697Y-82374607I794037J-97495D01*
G01*
X257940697Y-82374607D01*
G75*
G02*
X258637239Y-83266139I-97495J-794037D01*
G01*
X258637239Y-83266139D01*
G75*
G02*
X257745707Y-83962681I-794037J97495D01*
G01*
X257745707Y-83962681D01*
G75*
G02*
X257049165Y-83071149I97495J794037D01*
G01*
G37*
%TD.AperFunction*%
%TD*%
%TO.P,REF\u002A\u002A,2*%
%TO.N,N/C*%
%TA.AperFunction,ComponentPad*%
G36*
G01*
X259199165Y-87281149D02*
X259199165Y-87281149D01*
G75*
G02*
X260090697Y-86584607I794037J-97495D01*
G01*
X260090697Y-86584607D01*
G75*
G02*
X260787239Y-87476139I-97495J-794037D01*
G01*
X260787239Y-87476139D01*
G75*
G02*
X259895707Y-88172681I-794037J97495D01*
G01*
X259895707Y-88172681D01*
G75*
G02*
X259199165Y-87281149I97495J794037D01*
G01*
G37*
%TD.AperFunction*%
%TO.P,REF\u002A\u002A,1*%
X252430000Y-86450000D03*
%TD*%
%TO.P,REF\u002A\u002A,1*%
%TO.N,N/C*%
X252440000Y-90240000D03*
%TO.P,REF\u002A\u002A,2*%
%TA.AperFunction,ComponentPad*%
G36*
G01*
X258191930Y-93904383D02*
X258191930Y-93904383D01*
G75*
G02*
X259296483Y-93659510I674713J-429840D01*
G01*
X259296483Y-93659510D01*
G75*
G02*
X259541356Y-94764063I-429840J-674713D01*
G01*
X259541356Y-94764063D01*
G75*
G02*
X258436803Y-95008936I-674713J429840D01*
G01*
X258436803Y-95008936D01*
G75*
G02*
X258191930Y-93904383I429840J674713D01*
G01*
G37*
%TD.AperFunction*%
%TD*%
%TO.P,REF\u002A\u002A,2*%
%TO.N,N/C*%
%TA.AperFunction,ComponentPad*%
G36*
G01*
X232537531Y-75012469D02*
X232537531Y-75012469D01*
G75*
G02*
X232537531Y-76143839I-565685J-565685D01*
G01*
X232537531Y-76143839D01*
G75*
G02*
X231406161Y-76143839I-565685J565685D01*
G01*
X231406161Y-76143839D01*
G75*
G02*
X231406161Y-75012469I565685J565685D01*
G01*
X231406161Y-75012469D01*
G75*
G02*
X232537531Y-75012469I565685J-565685D01*
G01*
G37*
%TD.AperFunction*%
%TO.P,REF\u002A\u002A,1*%
X237360000Y-70190000D03*
%TD*%
%TO.P,REF\u002A\u002A,2*%
%TO.N,N/C*%
%TA.AperFunction,ComponentPad*%
G36*
G01*
X248156883Y-105466034D02*
X248156883Y-105466034D01*
G75*
G02*
X249072182Y-106131037I125148J-790151D01*
G01*
X249072182Y-106131037D01*
G75*
G02*
X248407179Y-107046336I-790151J-125148D01*
G01*
X248407179Y-107046336D01*
G75*
G02*
X247491880Y-106381333I-125148J790151D01*
G01*
X247491880Y-106381333D01*
G75*
G02*
X248156883Y-105466034I790151J125148D01*
G01*
G37*
%TD.AperFunction*%
%TO.P,REF\u002A\u002A,1*%
X247090000Y-98730000D03*
%TD*%
%TO.P,REF\u002A\u002A,1*%
%TO.N,N/C*%
X254230000Y-115750000D03*
%TO.P,REF\u002A\u002A,2*%
%TA.AperFunction,ComponentPad*%
G36*
G01*
X260999165Y-116581149D02*
X260999165Y-116581149D01*
G75*
G02*
X261890697Y-115884607I794037J-97495D01*
G01*
X261890697Y-115884607D01*
G75*
G02*
X262587239Y-116776139I-97495J-794037D01*
G01*
X262587239Y-116776139D01*
G75*
G02*
X261695707Y-117472681I-794037J97495D01*
G01*
X261695707Y-117472681D01*
G75*
G02*
X260999165Y-116581149I97495J794037D01*
G01*
G37*
%TD.AperFunction*%
%TD*%
%TO.P,REF\u002A\u002A,2*%
%TO.N,N/C*%
%TA.AperFunction,ComponentPad*%
G36*
G01*
X255535632Y-132126086D02*
X255535632Y-132126086D01*
G75*
G02*
X256602109Y-131748427I722068J-344409D01*
G01*
X256602109Y-131748427D01*
G75*
G02*
X256979768Y-132814904I-344409J-722068D01*
G01*
X256979768Y-132814904D01*
G75*
G02*
X255913291Y-133192563I-722068J344409D01*
G01*
X255913291Y-133192563D01*
G75*
G02*
X255535632Y-132126086I344409J722068D01*
G01*
G37*
%TD.AperFunction*%
%TO.P,REF\u002A\u002A,1*%
X249380000Y-129190000D03*
%TD*%
%TO.P,REF\u002A\u002A,2*%
%TO.N,N/C*%
%TA.AperFunction,ComponentPad*%
G36*
G01*
X238194223Y-127653532D02*
X238194223Y-127653532D01*
G75*
G02*
X239279004Y-127974859I381727J-703054D01*
G01*
X239279004Y-127974859D01*
G75*
G02*
X238957677Y-129059640I-703054J-381727D01*
G01*
X238957677Y-129059640D01*
G75*
G02*
X237872896Y-128738313I-381727J703054D01*
G01*
X237872896Y-128738313D01*
G75*
G02*
X238194223Y-127653532I703054J381727D01*
G01*
G37*
%TD.AperFunction*%
%TO.P,REF\u002A\u002A,1*%
X234940000Y-121660000D03*
%TD*%
%TO.P,REF\u002A\u002A,2*%
%TO.N,N/C*%
%TA.AperFunction,ComponentPad*%
G36*
G01*
X241748602Y-134646332D02*
X241748602Y-134646332D01*
G75*
G02*
X242468242Y-133773338I796317J76677D01*
G01*
X242468242Y-133773338D01*
G75*
G02*
X243341236Y-134492978I76677J-796317D01*
G01*
X243341236Y-134492978D01*
G75*
G02*
X242621596Y-135365972I-796317J-76677D01*
G01*
X242621596Y-135365972D01*
G75*
G02*
X241748602Y-134646332I-76677J796317D01*
G01*
G37*
%TD.AperFunction*%
%TO.P,REF\u002A\u002A,1*%
X234960000Y-135300000D03*
%TD*%
%TO.P,REF\u002A\u002A,1*%
%TO.N,N/C*%
X223990000Y-140570000D03*
%TO.P,REF\u002A\u002A,2*%
%TA.AperFunction,ComponentPad*%
G36*
G01*
X226654786Y-146847843D02*
X226654786Y-146847843D01*
G75*
G02*
X227703775Y-147271662I312585J-736404D01*
G01*
X227703775Y-147271662D01*
G75*
G02*
X227279956Y-148320651I-736404J-312585D01*
G01*
X227279956Y-148320651D01*
G75*
G02*
X226230967Y-147896832I-312585J736404D01*
G01*
X226230967Y-147896832D01*
G75*
G02*
X226654786Y-146847843I736404J312585D01*
G01*
G37*
%TD.AperFunction*%
%TD*%
%TO.P,REF\u002A\u002A,1*%
%TO.N,N/C*%
X245520000Y-132120000D03*
%TO.P,REF\u002A\u002A,2*%
%TA.AperFunction,ComponentPad*%
G36*
G01*
X251623453Y-135163069D02*
X251623453Y-135163069D01*
G75*
G02*
X252696358Y-134804080I715947J-356958D01*
G01*
X252696358Y-134804080D01*
G75*
G02*
X253055347Y-135876985I-356958J-715947D01*
G01*
X253055347Y-135876985D01*
G75*
G02*
X251982442Y-136235974I-715947J356958D01*
G01*
X251982442Y-136235974D01*
G75*
G02*
X251623453Y-135163069I356958J715947D01*
G01*
G37*
%TD.AperFunction*%
%TD*%
%TO.P,REF\u002A\u002A,1*%
%TO.N,N/C*%
X242710000Y-151200000D03*
%TO.P,REF\u002A\u002A,2*%
%TA.AperFunction,ComponentPad*%
G36*
G01*
X249158437Y-153420374D02*
X249158437Y-153420374D01*
G75*
G02*
X250175307Y-152924414I756415J-260455D01*
G01*
X250175307Y-152924414D01*
G75*
G02*
X250671267Y-153941284I-260455J-756415D01*
G01*
X250671267Y-153941284D01*
G75*
G02*
X249654397Y-154437244I-756415J260455D01*
G01*
X249654397Y-154437244D01*
G75*
G02*
X249158437Y-153420374I260455J756415D01*
G01*
G37*
%TD.AperFunction*%
%TD*%
%TO.P,REF\u002A\u002A,2*%
%TO.N,N/C*%
%TA.AperFunction,ComponentPad*%
G36*
G01*
X236649414Y-151189125D02*
X236649414Y-151189125D01*
G75*
G02*
X237728422Y-150848915I709609J-369399D01*
G01*
X237728422Y-150848915D01*
G75*
G02*
X238068632Y-151927923I-369399J-709609D01*
G01*
X238068632Y-151927923D01*
G75*
G02*
X236989624Y-152268133I-709609J369399D01*
G01*
X236989624Y-152268133D01*
G75*
G02*
X236649414Y-151189125I369399J709609D01*
G01*
G37*
%TD.AperFunction*%
%TO.P,REF\u002A\u002A,1*%
X230600000Y-148040000D03*
%TD*%
%TO.P,REF\u002A\u002A,1*%
%TO.N,N/C*%
X233780000Y-131910000D03*
%TO.P,REF\u002A\u002A,2*%
%TA.AperFunction,ComponentPad*%
G36*
G01*
X240583387Y-131434261D02*
X240583387Y-131434261D01*
G75*
G02*
X241325633Y-130580405I798051J55805D01*
G01*
X241325633Y-130580405D01*
G75*
G02*
X242179489Y-131322651I55805J-798051D01*
G01*
X242179489Y-131322651D01*
G75*
G02*
X241437243Y-132176507I-798051J-55805D01*
G01*
X241437243Y-132176507D01*
G75*
G02*
X240583387Y-131434261I-55805J798051D01*
G01*
G37*
%TD.AperFunction*%
%TD*%
%TO.P,REF\u002A\u002A,2*%
%TO.N,N/C*%
%TA.AperFunction,ComponentPad*%
G36*
G01*
X253021411Y-152846311D02*
X253021411Y-152846311D01*
G75*
G02*
X254116745Y-153129583I406031J-689303D01*
G01*
X254116745Y-153129583D01*
G75*
G02*
X253833473Y-154224917I-689303J-406031D01*
G01*
X253833473Y-154224917D01*
G75*
G02*
X252738139Y-153941645I-406031J689303D01*
G01*
X252738139Y-153941645D01*
G75*
G02*
X253021411Y-152846311I689303J406031D01*
G01*
G37*
%TD.AperFunction*%
%TO.P,REF\u002A\u002A,1*%
X249560000Y-146970000D03*
%TD*%
%TO.P,REF\u002A\u002A,1*%
%TO.N,N/C*%
X238650000Y-154880000D03*
%TO.P,REF\u002A\u002A,2*%
%TA.AperFunction,ComponentPad*%
G36*
G01*
X245386034Y-155946883D02*
X245386034Y-155946883D01*
G75*
G02*
X246301333Y-155281880I790151J-125148D01*
G01*
X246301333Y-155281880D01*
G75*
G02*
X246966336Y-156197179I-125148J-790151D01*
G01*
X246966336Y-156197179D01*
G75*
G02*
X246051037Y-156862182I-790151J125148D01*
G01*
X246051037Y-156862182D01*
G75*
G02*
X245386034Y-155946883I125148J790151D01*
G01*
G37*
%TD.AperFunction*%
%TD*%
%TO.P,REF\u002A\u002A,1*%
%TO.N,N/C*%
X262140000Y-140520000D03*
%TO.P,REF\u002A\u002A,2*%
%TA.AperFunction,ComponentPad*%
G36*
G01*
X262318526Y-133702337D02*
X262318526Y-133702337D01*
G75*
G02*
X261539742Y-132881669I20942J799726D01*
G01*
X261539742Y-132881669D01*
G75*
G02*
X262360410Y-132102885I799726J-20942D01*
G01*
X262360410Y-132102885D01*
G75*
G02*
X263139194Y-132923553I-20942J-799726D01*
G01*
X263139194Y-132923553D01*
G75*
G02*
X262318526Y-133702337I-799726J20942D01*
G01*
G37*
%TD.AperFunction*%
%TD*%
%TO.P,REF\u002A\u002A,2*%
%TO.N,N/C*%
%TA.AperFunction,ComponentPad*%
G36*
G01*
X260215088Y-109951940D02*
X260215088Y-109951940D01*
G75*
G02*
X260888053Y-109042479I791213J118248D01*
G01*
X260888053Y-109042479D01*
G75*
G02*
X261797514Y-109715444I118248J-791213D01*
G01*
X261797514Y-109715444D01*
G75*
G02*
X261124549Y-110624905I-791213J-118248D01*
G01*
X261124549Y-110624905D01*
G75*
G02*
X260215088Y-109951940I-118248J791213D01*
G01*
G37*
%TD.AperFunction*%
%TO.P,REF\u002A\u002A,1*%
X253470000Y-110960000D03*
%TD*%
%TA.AperFunction,ComponentPad*%
D12*
%TO.P,REF\u002A\u002A,1*%
%TO.N,N/C*%
G36*
X201801569Y-74475337D02*
G01*
X203294663Y-74331569D01*
X203438431Y-75824663D01*
X201945337Y-75968431D01*
X201801569Y-74475337D01*
G37*
%TD.AperFunction*%
D11*
%TO.P,REF\u002A\u002A,3*%
X197563387Y-75636896D03*
%TO.P,REF\u002A\u002A,2*%
X200091694Y-75393448D03*
%TD*%
%TA.AperFunction,ComponentPad*%
D12*
%TO.P,REF\u002A\u002A,1*%
%TO.N,N/C*%
G36*
X182197246Y-89760738D02*
G01*
X183379262Y-88837246D01*
X184302754Y-90019262D01*
X183120738Y-90942754D01*
X182197246Y-89760738D01*
G37*
%TD.AperFunction*%
D11*
%TO.P,REF\u002A\u002A,3*%
X179246905Y-93017560D03*
%TO.P,REF\u002A\u002A,2*%
X181248453Y-91453780D03*
%TD*%
%TA.AperFunction,ComponentPad*%
D12*
%TO.P,REF\u002A\u002A,1*%
%TO.N,N/C*%
G36*
X244070784Y-98190636D02*
G01*
X244305436Y-99672168D01*
X242823904Y-99906820D01*
X242589252Y-98425288D01*
X244070784Y-98190636D01*
G37*
%TD.AperFunction*%
D11*
%TO.P,REF\u002A\u002A,3*%
X242652657Y-94031271D03*
%TO.P,REF\u002A\u002A,2*%
X243050000Y-96540000D03*
%TD*%
%TO.P,REF\u002A\u002A,2*%
%TO.N,N/C*%
X216888204Y-123109150D03*
%TO.P,REF\u002A\u002A,3*%
X214846407Y-121598300D03*
%TA.AperFunction,ComponentPad*%
D12*
%TO.P,REF\u002A\u002A,1*%
G36*
X218773224Y-123570990D02*
G01*
X219979010Y-124463224D01*
X219086776Y-125669010D01*
X217880990Y-124776776D01*
X218773224Y-123570990D01*
G37*
%TD.AperFunction*%
%TD*%
%TA.AperFunction,ComponentPad*%
%TO.P,REF\u002A\u002A,1*%
%TO.N,N/C*%
G36*
X241789126Y-146937878D02*
G01*
X240291923Y-147029451D01*
X240200350Y-145532248D01*
X241697553Y-145440675D01*
X241789126Y-146937878D01*
G37*
%TD.AperFunction*%
D11*
%TO.P,REF\u002A\u002A,3*%
X246065263Y-145924936D03*
%TO.P,REF\u002A\u002A,2*%
X243530000Y-146080000D03*
%TD*%
%TO.P,REF\u002A\u002A,2*%
%TO.N,N/C*%
X243759613Y-140144329D03*
%TO.P,REF\u002A\u002A,3*%
X246299226Y-140188658D03*
%TA.AperFunction,ComponentPad*%
D12*
%TO.P,REF\u002A\u002A,1*%
G36*
X241956796Y-140862975D02*
G01*
X240457025Y-140836796D01*
X240483204Y-139337025D01*
X241982975Y-139363204D01*
X241956796Y-140862975D01*
G37*
%TD.AperFunction*%
%TD*%
%TA.AperFunction,ComponentPad*%
%TO.P,REF\u002A\u002A,1*%
%TO.N,N/C*%
G36*
X247974709Y-111813201D02*
G01*
X248053213Y-110315257D01*
X249551157Y-110393761D01*
X249472653Y-111891705D01*
X247974709Y-111813201D01*
G37*
%TD.AperFunction*%
D11*
%TO.P,REF\u002A\u002A,3*%
X248497066Y-116176519D03*
%TO.P,REF\u002A\u002A,2*%
X248630000Y-113640000D03*
%TD*%
%TA.AperFunction,ComponentPad*%
D12*
%TO.P,REF\u002A\u002A,1*%
%TO.N,N/C*%
G36*
X228464683Y-141182874D02*
G01*
X227807126Y-139834683D01*
X229155317Y-139177126D01*
X229812874Y-140525317D01*
X228464683Y-141182874D01*
G37*
%TD.AperFunction*%
D11*
%TO.P,REF\u002A\u002A,3*%
X231036925Y-144745874D03*
%TO.P,REF\u002A\u002A,2*%
X229923463Y-142462937D03*
%TD*%
%TO.P,REF\u002A\u002A,2*%
%TO.N,N/C*%
X228810000Y-152440000D03*
%TO.P,REF\u002A\u002A,3*%
X228109881Y-149998396D03*
%TA.AperFunction,ComponentPad*%
D12*
%TO.P,REF\u002A\u002A,1*%
G36*
X230024337Y-153953931D02*
G01*
X230437793Y-155395823D01*
X228995901Y-155809279D01*
X228582445Y-154367387D01*
X230024337Y-153953931D01*
G37*
%TD.AperFunction*%
%TD*%
D11*
%TO.P,REF\u002A\u002A,2*%
%TO.N,N/C*%
X224332165Y-66560097D03*
%TO.P,REF\u002A\u002A,3*%
X224354331Y-64020193D03*
%TA.AperFunction,ComponentPad*%
D12*
%TO.P,REF\u002A\u002A,1*%
G36*
X225066516Y-68356573D02*
G01*
X225053427Y-69856516D01*
X223553484Y-69843427D01*
X223566573Y-68343484D01*
X225066516Y-68356573D01*
G37*
%TD.AperFunction*%
%TD*%
D15*
%TO.P,REF\u002A\u002A,TN*%
%TO.N,N/C*%
X216320000Y-116190000D03*
D16*
%TO.P,REF\u002A\u002A,S*%
X216320000Y-119290000D03*
D15*
%TO.P,REF\u002A\u002A,T*%
X216320000Y-107890000D03*
%TD*%
D14*
%TO.P,REF\u002A\u002A,2*%
%TO.N,N/C*%
X228464710Y-72389801D03*
%TO.P,REF\u002A\u002A,1*%
X221640000Y-75500000D03*
%TD*%
%TO.P,REF\u002A\u002A,1*%
%TO.N,N/C*%
X253640000Y-119130000D03*
%TO.P,REF\u002A\u002A,2*%
X250470363Y-125927308D03*
%TD*%
D11*
%TO.P,REF\u002A\u002A,2*%
%TO.N,N/C*%
X194557542Y-62857313D03*
%TO.P,REF\u002A\u002A,3*%
X193365084Y-60614626D03*
%TA.AperFunction,ComponentPad*%
D12*
%TO.P,REF\u002A\u002A,1*%
G36*
X196060107Y-64085686D02*
G01*
X196764314Y-65410107D01*
X195439893Y-66114314D01*
X194735686Y-64789893D01*
X196060107Y-64085686D01*
G37*
%TD.AperFunction*%
%TD*%
D15*
%TO.P,REF\u002A\u002A,T*%
%TO.N,N/C*%
X205950000Y-107890000D03*
D16*
%TO.P,REF\u002A\u002A,S*%
X205950000Y-119290000D03*
D15*
%TO.P,REF\u002A\u002A,TN*%
X205950000Y-116190000D03*
%TD*%
D10*
%TO.P,GROUND,*%
%TO.N,*%
X257660000Y-154080000D03*
%TD*%
%TA.AperFunction,ComponentPad*%
D12*
%TO.P,REF\u002A\u002A,1*%
%TO.N,N/C*%
G36*
X255401451Y-126883491D02*
G01*
X254036509Y-126261451D01*
X254658549Y-124896509D01*
X256023491Y-125518549D01*
X255401451Y-126883491D01*
G37*
%TD.AperFunction*%
D11*
%TO.P,REF\u002A\u002A,3*%
X259652603Y-127996642D03*
%TO.P,REF\u002A\u002A,2*%
X257341302Y-126943321D03*
%TD*%
%TA.AperFunction,ComponentPad*%
D12*
%TO.P,REF\u002A\u002A,1*%
%TO.N,N/C*%
G36*
X176331267Y-110753143D02*
G01*
X177706857Y-111351267D01*
X177108733Y-112726857D01*
X175733143Y-112128733D01*
X176331267Y-110753143D01*
G37*
%TD.AperFunction*%
D11*
%TO.P,REF\u002A\u002A,3*%
X172061335Y-109714355D03*
%TO.P,REF\u002A\u002A,2*%
X174390667Y-110727177D03*
%TD*%
%TO.P,REF\u002A\u002A,2*%
%TO.N,N/C*%
X217252656Y-100868728D03*
%TO.P,REF\u002A\u002A,3*%
X216855313Y-103377457D03*
%TA.AperFunction,ComponentPad*%
D12*
%TO.P,REF\u002A\u002A,1*%
G36*
X216791908Y-98983440D02*
G01*
X217026560Y-97501908D01*
X218508092Y-97736560D01*
X218273440Y-99218092D01*
X216791908Y-98983440D01*
G37*
%TD.AperFunction*%
%TD*%
D11*
%TO.P,REF\u002A\u002A,2*%
%TO.N,N/C*%
X259510296Y-121540000D03*
%TO.P,REF\u002A\u002A,3*%
X261710000Y-122810000D03*
%TA.AperFunction,ComponentPad*%
D12*
%TO.P,REF\u002A\u002A,1*%
G36*
X257585110Y-121294519D02*
G01*
X256286072Y-120544519D01*
X257036072Y-119245481D01*
X258335110Y-119995481D01*
X257585110Y-121294519D01*
G37*
%TD.AperFunction*%
%TD*%
D11*
%TO.P,REF\u002A\u002A,2*%
%TO.N,N/C*%
X193152687Y-78107542D03*
%TO.P,REF\u002A\u002A,3*%
X195395374Y-76915084D03*
%TA.AperFunction,ComponentPad*%
D12*
%TO.P,REF\u002A\u002A,1*%
G36*
X191924314Y-79610107D02*
G01*
X190599893Y-80314314D01*
X189895686Y-78989893D01*
X191220107Y-78285686D01*
X191924314Y-79610107D01*
G37*
%TD.AperFunction*%
%TD*%
%TA.AperFunction,ComponentPad*%
%TO.P,REF\u002A\u002A,1*%
%TO.N,N/C*%
G36*
X196496857Y-112998733D02*
G01*
X195121267Y-113596857D01*
X194523143Y-112221267D01*
X195898733Y-111623143D01*
X196496857Y-112998733D01*
G37*
%TD.AperFunction*%
D11*
%TO.P,REF\u002A\u002A,3*%
X200168665Y-110584355D03*
%TO.P,REF\u002A\u002A,2*%
X197839333Y-111597177D03*
%TD*%
%TA.AperFunction,ComponentPad*%
D12*
%TO.P,REF\u002A\u002A,1*%
%TO.N,N/C*%
G36*
X227211173Y-81787616D02*
G01*
X226372384Y-83031173D01*
X225128827Y-82192384D01*
X225967616Y-80948827D01*
X227211173Y-81787616D01*
G37*
%TD.AperFunction*%
D11*
%TO.P,REF\u002A\u002A,3*%
X229010700Y-77778489D03*
%TO.P,REF\u002A\u002A,2*%
X227590350Y-79884245D03*
%TD*%
%TO.P,REF\u002A\u002A,2*%
%TO.N,N/C*%
X237770000Y-75970000D03*
%TO.P,REF\u002A\u002A,3*%
X235702146Y-77444985D03*
%TA.AperFunction,ComponentPad*%
D12*
%TO.P,REF\u002A\u002A,1*%
G36*
X238791739Y-74319955D02*
G01*
X240012912Y-73448900D01*
X240883967Y-74670073D01*
X239662794Y-75541128D01*
X238791739Y-74319955D01*
G37*
%TD.AperFunction*%
%TD*%
%TA.AperFunction,ComponentPad*%
%TO.P,REF\u002A\u002A,1*%
%TO.N,N/C*%
G36*
X231480620Y-69949256D02*
G01*
X230410744Y-71000620D01*
X229359380Y-69930744D01*
X230429256Y-68879380D01*
X231480620Y-69949256D01*
G37*
%TD.AperFunction*%
D11*
%TO.P,REF\u002A\u002A,3*%
X234043312Y-66379381D03*
%TO.P,REF\u002A\u002A,2*%
X232231656Y-68159690D03*
%TD*%
%TA.AperFunction,ComponentPad*%
D12*
%TO.P,REF\u002A\u002A,1*%
%TO.N,N/C*%
G36*
X201054663Y-63251569D02*
G01*
X201198431Y-64744663D01*
X199705337Y-64888431D01*
X199561569Y-63395337D01*
X201054663Y-63251569D01*
G37*
%TD.AperFunction*%
D11*
%TO.P,REF\u002A\u002A,3*%
X199893104Y-59013387D03*
%TO.P,REF\u002A\u002A,2*%
X200136552Y-61541694D03*
%TD*%
%TO.P,REF\u002A\u002A,2*%
%TO.N,N/C*%
X167720000Y-103440000D03*
%TO.P,REF\u002A\u002A,3*%
X170184551Y-104054481D03*
%TA.AperFunction,ComponentPad*%
D12*
%TO.P,REF\u002A\u002A,1*%
G36*
X165801729Y-103734681D02*
G01*
X164346286Y-103371798D01*
X164709169Y-101916355D01*
X166164612Y-102279238D01*
X165801729Y-103734681D01*
G37*
%TD.AperFunction*%
%TD*%
D11*
%TO.P,REF\u002A\u002A,2*%
%TO.N,N/C*%
X164848934Y-122701412D03*
%TO.P,REF\u002A\u002A,3*%
X164407867Y-125202823D03*
%TA.AperFunction,ComponentPad*%
D12*
%TO.P,REF\u002A\u002A,1*%
G36*
X164421158Y-120808370D02*
G01*
X164681630Y-119331158D01*
X166158842Y-119591630D01*
X165898370Y-121068842D01*
X164421158Y-120808370D01*
G37*
%TD.AperFunction*%
%TD*%
%TA.AperFunction,ComponentPad*%
%TO.P,REF\u002A\u002A,1*%
%TO.N,N/C*%
G36*
X170686524Y-122378597D02*
G01*
X171481403Y-121106524D01*
X172753476Y-121901403D01*
X171958597Y-123173476D01*
X170686524Y-122378597D01*
G37*
%TD.AperFunction*%
D11*
%TO.P,REF\u002A\u002A,3*%
X169028010Y-126448084D03*
%TO.P,REF\u002A\u002A,2*%
X170374005Y-124294042D03*
%TD*%
D14*
%TO.P,REF\u002A\u002A,2*%
%TO.N,N/C*%
X160749631Y-141034050D03*
%TA.AperFunction,ComponentPad*%
D12*
%TO.P,REF\u002A\u002A,1*%
G36*
X164144822Y-141085786D02*
G01*
X163744214Y-142634822D01*
X162195178Y-142234214D01*
X162595786Y-140685178D01*
X164144822Y-141085786D01*
G37*
%TD.AperFunction*%
%TD*%
D14*
%TO.P,REF\u002A\u002A,2*%
%TO.N,N/C*%
X173520000Y-66670000D03*
%TO.P,REF\u002A\u002A,1*%
X166020000Y-66670000D03*
%TD*%
%TO.P,REF\u002A\u002A,2*%
%TO.N,N/C*%
X167206058Y-149142361D03*
%TO.P,REF\u002A\u002A,1*%
X159820000Y-147840000D03*
%TD*%
%TO.P,REF\u002A\u002A,1*%
%TO.N,N/C*%
X221500000Y-153860000D03*
%TO.P,REF\u002A\u002A,2*%
X219244707Y-146707123D03*
%TD*%
%TO.P,REF\u002A\u002A,2*%
%TO.N,N/C*%
X240461557Y-114413120D03*
%TO.P,REF\u002A\u002A,1*%
X241050000Y-121890000D03*
%TD*%
%TO.P,REF\u002A\u002A,1*%
%TO.N,N/C*%
X179770000Y-59300000D03*
%TO.P,REF\u002A\u002A,2*%
X185798926Y-54838829D03*
%TD*%
%TO.P,REF\u002A\u002A,1*%
%TO.N,N/C*%
X261410000Y-97070000D03*
%TO.P,REF\u002A\u002A,2*%
X265046072Y-103629648D03*
%TD*%
%TO.P,REF\u002A\u002A,2*%
%TO.N,N/C*%
X235871157Y-146965471D03*
%TO.P,REF\u002A\u002A,1*%
X236590000Y-139500000D03*
%TD*%
%TO.P,REF\u002A\u002A,2*%
%TO.N,N/C*%
X256287775Y-78967133D03*
%TO.P,REF\u002A\u002A,1*%
X248980000Y-77280000D03*
%TD*%
%TO.P,REF\u002A\u002A,1*%
%TO.N,N/C*%
X241590000Y-81430000D03*
%TO.P,REF\u002A\u002A,2*%
X236523073Y-86959580D03*
%TD*%
%TO.P,REF\u002A\u002A,1*%
%TO.N,N/C*%
X203440000Y-80940000D03*
%TO.P,REF\u002A\u002A,2*%
X197185856Y-85079527D03*
%TD*%
%TO.P,REF\u002A\u002A,1*%
%TO.N,N/C*%
X220050000Y-138650000D03*
%TO.P,REF\u002A\u002A,2*%
%TA.AperFunction,ComponentPad*%
G36*
G01*
X226621960Y-136827435D02*
X226621960Y-136827435D01*
G75*
G02*
X227179073Y-135842740I770904J213791D01*
G01*
X227179073Y-135842740D01*
G75*
G02*
X228163768Y-136399853I213791J-770904D01*
G01*
X228163768Y-136399853D01*
G75*
G02*
X227606655Y-137384548I-770904J-213791D01*
G01*
X227606655Y-137384548D01*
G75*
G02*
X226621960Y-136827435I-213791J770904D01*
G01*
G37*
%TD.AperFunction*%
%TD*%
%TO.P,REF\u002A\u002A,1*%
%TO.N,N/C*%
X218410000Y-133290000D03*
%TO.P,REF\u002A\u002A,2*%
%TA.AperFunction,ComponentPad*%
G36*
G01*
X224710858Y-130680099D02*
X224710858Y-130680099D01*
G75*
G02*
X225143815Y-129634848I739104J306147D01*
G01*
X225143815Y-129634848D01*
G75*
G02*
X226189066Y-130067805I306147J-739104D01*
G01*
X226189066Y-130067805D01*
G75*
G02*
X225756109Y-131113056I-739104J-306147D01*
G01*
X225756109Y-131113056D01*
G75*
G02*
X224710858Y-130680099I-306147J739104D01*
G01*
G37*
%TD.AperFunction*%
%TD*%
%TO.P,REF\u002A\u002A,2*%
%TO.N,N/C*%
%TA.AperFunction,ComponentPad*%
G36*
G01*
X223690858Y-127750099D02*
X223690858Y-127750099D01*
G75*
G02*
X224123815Y-126704848I739104J306147D01*
G01*
X224123815Y-126704848D01*
G75*
G02*
X225169066Y-127137805I306147J-739104D01*
G01*
X225169066Y-127137805D01*
G75*
G02*
X224736109Y-128183056I-739104J-306147D01*
G01*
X224736109Y-128183056D01*
G75*
G02*
X223690858Y-127750099I-306147J739104D01*
G01*
G37*
%TD.AperFunction*%
%TO.P,REF\u002A\u002A,1*%
X217390000Y-130360000D03*
%TD*%
%TO.P,REF\u002A\u002A,2*%
%TO.N,N/C*%
X187356214Y-132909517D03*
%TO.P,REF\u002A\u002A,1*%
X194260000Y-135840000D03*
%TD*%
%TO.P,REF\u002A\u002A,16*%
%TO.N,N/C*%
%TA.AperFunction,ComponentPad*%
G36*
G01*
X212103852Y-143767852D02*
X212103852Y-143767852D01*
G75*
G02*
X211604346Y-144782984I-757319J-257813D01*
G01*
X211604346Y-144782984D01*
G75*
G02*
X210589214Y-144283478I-257813J757319D01*
G01*
X210589214Y-144283478D01*
G75*
G02*
X211088720Y-143268346I757319J257813D01*
G01*
X211088720Y-143268346D01*
G75*
G02*
X212103852Y-143767852I257813J-757319D01*
G01*
G37*
%TD.AperFunction*%
%TO.P,REF\u002A\u002A,8*%
%TA.AperFunction,ComponentPad*%
G36*
G01*
X213587435Y-124480763D02*
X213587435Y-124480763D01*
G75*
G02*
X213087929Y-125495895I-757319J-257813D01*
G01*
X213087929Y-125495895D01*
G75*
G02*
X212072797Y-124996389I-257813J757319D01*
G01*
X212072797Y-124996389D01*
G75*
G02*
X212572303Y-123981257I757319J257813D01*
G01*
X212572303Y-123981257D01*
G75*
G02*
X213587435Y-124480763I257813J-757319D01*
G01*
G37*
%TD.AperFunction*%
%TO.P,REF\u002A\u002A,15*%
%TA.AperFunction,ComponentPad*%
G36*
G01*
X211285297Y-141363362D02*
X211285297Y-141363362D01*
G75*
G02*
X210785791Y-142378494I-757319J-257813D01*
G01*
X210785791Y-142378494D01*
G75*
G02*
X209770659Y-141878988I-257813J757319D01*
G01*
X209770659Y-141878988D01*
G75*
G02*
X210270165Y-140863856I757319J257813D01*
G01*
X210270165Y-140863856D01*
G75*
G02*
X211285297Y-141363362I257813J-757319D01*
G01*
G37*
%TD.AperFunction*%
%TO.P,REF\u002A\u002A,7*%
%TA.AperFunction,ComponentPad*%
G36*
G01*
X214405990Y-126885252D02*
X214405990Y-126885252D01*
G75*
G02*
X213906484Y-127900384I-757319J-257813D01*
G01*
X213906484Y-127900384D01*
G75*
G02*
X212891352Y-127400878I-257813J757319D01*
G01*
X212891352Y-127400878D01*
G75*
G02*
X213390858Y-126385746I757319J257813D01*
G01*
X213390858Y-126385746D01*
G75*
G02*
X214405990Y-126885252I257813J-757319D01*
G01*
G37*
%TD.AperFunction*%
%TO.P,REF\u002A\u002A,14*%
%TA.AperFunction,ComponentPad*%
G36*
G01*
X210466742Y-138958873D02*
X210466742Y-138958873D01*
G75*
G02*
X209967236Y-139974005I-757319J-257813D01*
G01*
X209967236Y-139974005D01*
G75*
G02*
X208952104Y-139474499I-257813J757319D01*
G01*
X208952104Y-139474499D01*
G75*
G02*
X209451610Y-138459367I757319J257813D01*
G01*
X209451610Y-138459367D01*
G75*
G02*
X210466742Y-138958873I257813J-757319D01*
G01*
G37*
%TD.AperFunction*%
%TO.P,REF\u002A\u002A,6*%
%TA.AperFunction,ComponentPad*%
G36*
G01*
X215224545Y-129289741D02*
X215224545Y-129289741D01*
G75*
G02*
X214725039Y-130304873I-757319J-257813D01*
G01*
X214725039Y-130304873D01*
G75*
G02*
X213709907Y-129805367I-257813J757319D01*
G01*
X213709907Y-129805367D01*
G75*
G02*
X214209413Y-128790235I757319J257813D01*
G01*
X214209413Y-128790235D01*
G75*
G02*
X215224545Y-129289741I257813J-757319D01*
G01*
G37*
%TD.AperFunction*%
%TO.P,REF\u002A\u002A,13*%
%TA.AperFunction,ComponentPad*%
G36*
G01*
X209648187Y-136554384D02*
X209648187Y-136554384D01*
G75*
G02*
X209148681Y-137569516I-757319J-257813D01*
G01*
X209148681Y-137569516D01*
G75*
G02*
X208133549Y-137070010I-257813J757319D01*
G01*
X208133549Y-137070010D01*
G75*
G02*
X208633055Y-136054878I757319J257813D01*
G01*
X208633055Y-136054878D01*
G75*
G02*
X209648187Y-136554384I257813J-757319D01*
G01*
G37*
%TD.AperFunction*%
%TO.P,REF\u002A\u002A,5*%
%TA.AperFunction,ComponentPad*%
G36*
G01*
X216043100Y-131694231D02*
X216043100Y-131694231D01*
G75*
G02*
X215543594Y-132709363I-757319J-257813D01*
G01*
X215543594Y-132709363D01*
G75*
G02*
X214528462Y-132209857I-257813J757319D01*
G01*
X214528462Y-132209857D01*
G75*
G02*
X215027968Y-131194725I757319J257813D01*
G01*
X215027968Y-131194725D01*
G75*
G02*
X216043100Y-131694231I257813J-757319D01*
G01*
G37*
%TD.AperFunction*%
%TO.P,REF\u002A\u002A,12*%
%TA.AperFunction,ComponentPad*%
G36*
G01*
X208829632Y-134149895D02*
X208829632Y-134149895D01*
G75*
G02*
X208330126Y-135165027I-757319J-257813D01*
G01*
X208330126Y-135165027D01*
G75*
G02*
X207314994Y-134665521I-257813J757319D01*
G01*
X207314994Y-134665521D01*
G75*
G02*
X207814500Y-133650389I757319J257813D01*
G01*
X207814500Y-133650389D01*
G75*
G02*
X208829632Y-134149895I257813J-757319D01*
G01*
G37*
%TD.AperFunction*%
%TO.P,REF\u002A\u002A,4*%
%TA.AperFunction,ComponentPad*%
G36*
G01*
X216861654Y-134098720D02*
X216861654Y-134098720D01*
G75*
G02*
X216362148Y-135113852I-757319J-257813D01*
G01*
X216362148Y-135113852D01*
G75*
G02*
X215347016Y-134614346I-257813J757319D01*
G01*
X215347016Y-134614346D01*
G75*
G02*
X215846522Y-133599214I757319J257813D01*
G01*
X215846522Y-133599214D01*
G75*
G02*
X216861654Y-134098720I257813J-757319D01*
G01*
G37*
%TD.AperFunction*%
%TO.P,REF\u002A\u002A,11*%
%TA.AperFunction,ComponentPad*%
G36*
G01*
X208011077Y-131745406D02*
X208011077Y-131745406D01*
G75*
G02*
X207511571Y-132760538I-757319J-257813D01*
G01*
X207511571Y-132760538D01*
G75*
G02*
X206496439Y-132261032I-257813J757319D01*
G01*
X206496439Y-132261032D01*
G75*
G02*
X206995945Y-131245900I757319J257813D01*
G01*
X206995945Y-131245900D01*
G75*
G02*
X208011077Y-131745406I257813J-757319D01*
G01*
G37*
%TD.AperFunction*%
%TO.P,REF\u002A\u002A,3*%
%TA.AperFunction,ComponentPad*%
G36*
G01*
X217680209Y-136503209D02*
X217680209Y-136503209D01*
G75*
G02*
X217180703Y-137518341I-757319J-257813D01*
G01*
X217180703Y-137518341D01*
G75*
G02*
X216165571Y-137018835I-257813J757319D01*
G01*
X216165571Y-137018835D01*
G75*
G02*
X216665077Y-136003703I757319J257813D01*
G01*
X216665077Y-136003703D01*
G75*
G02*
X217680209Y-136503209I257813J-757319D01*
G01*
G37*
%TD.AperFunction*%
%TO.P,REF\u002A\u002A,10*%
%TA.AperFunction,ComponentPad*%
G36*
G01*
X207192522Y-129340917D02*
X207192522Y-129340917D01*
G75*
G02*
X206693016Y-130356049I-757319J-257813D01*
G01*
X206693016Y-130356049D01*
G75*
G02*
X205677884Y-129856543I-257813J757319D01*
G01*
X205677884Y-129856543D01*
G75*
G02*
X206177390Y-128841411I757319J257813D01*
G01*
X206177390Y-128841411D01*
G75*
G02*
X207192522Y-129340917I257813J-757319D01*
G01*
G37*
%TD.AperFunction*%
%TO.P,REF\u002A\u002A,2*%
%TA.AperFunction,ComponentPad*%
G36*
G01*
X218498764Y-138907698D02*
X218498764Y-138907698D01*
G75*
G02*
X217999258Y-139922830I-757319J-257813D01*
G01*
X217999258Y-139922830D01*
G75*
G02*
X216984126Y-139423324I-257813J757319D01*
G01*
X216984126Y-139423324D01*
G75*
G02*
X217483632Y-138408192I757319J257813D01*
G01*
X217483632Y-138408192D01*
G75*
G02*
X218498764Y-138907698I257813J-757319D01*
G01*
G37*
%TD.AperFunction*%
%TO.P,REF\u002A\u002A,9*%
%TA.AperFunction,ComponentPad*%
G36*
G01*
X206373968Y-126936428D02*
X206373968Y-126936428D01*
G75*
G02*
X205874462Y-127951560I-757319J-257813D01*
G01*
X205874462Y-127951560D01*
G75*
G02*
X204859330Y-127452054I-257813J757319D01*
G01*
X204859330Y-127452054D01*
G75*
G02*
X205358836Y-126436922I757319J257813D01*
G01*
X205358836Y-126436922D01*
G75*
G02*
X206373968Y-126936428I257813J-757319D01*
G01*
G37*
%TD.AperFunction*%
%TA.AperFunction,ComponentPad*%
D12*
%TO.P,REF\u002A\u002A,1*%
G36*
X219059507Y-140554868D02*
G01*
X219575132Y-142069507D01*
X218060493Y-142585132D01*
X217544868Y-141070493D01*
X219059507Y-140554868D01*
G37*
%TD.AperFunction*%
%TD*%
D14*
%TO.P,REF\u002A\u002A,2*%
%TO.N,N/C*%
X177612549Y-99054929D03*
%TO.P,REF\u002A\u002A,1*%
X170930000Y-95650000D03*
%TD*%
%TO.P,REF\u002A\u002A,1*%
%TO.N,N/C*%
X183610000Y-147620000D03*
%TO.P,REF\u002A\u002A,2*%
X179308177Y-141476360D03*
%TD*%
%TO.P,REF\u002A\u002A,2*%
%TO.N,N/C*%
X202895431Y-68891746D03*
%TO.P,REF\u002A\u002A,1*%
X195400000Y-68630000D03*
%TD*%
%TO.P,REF\u002A\u002A,1*%
%TO.N,N/C*%
X174180000Y-118130000D03*
%TO.P,REF\u002A\u002A,2*%
X167999054Y-113881953D03*
%TD*%
%TO.P,REF\u002A\u002A,2*%
%TO.N,N/C*%
%TA.AperFunction,ComponentPad*%
G36*
G01*
X225646206Y-133792505D02*
X225646206Y-133792505D01*
G75*
G02*
X226159837Y-132784446I760845J247214D01*
G01*
X226159837Y-132784446D01*
G75*
G02*
X227167896Y-133298077I247214J-760845D01*
G01*
X227167896Y-133298077D01*
G75*
G02*
X226654265Y-134306136I-760845J-247214D01*
G01*
X226654265Y-134306136D01*
G75*
G02*
X225646206Y-133792505I-247214J760845D01*
G01*
G37*
%TD.AperFunction*%
%TO.P,REF\u002A\u002A,1*%
X219160000Y-135900000D03*
%TD*%
%TO.P,REF\u002A\u002A,1*%
%TO.N,N/C*%
X190880000Y-159420000D03*
%TO.P,REF\u002A\u002A,2*%
%TA.AperFunction,ComponentPad*%
G36*
G01*
X192472098Y-152788437D02*
X192472098Y-152788437D01*
G75*
G02*
X191880958Y-151823785I186756J777896D01*
G01*
X191880958Y-151823785D01*
G75*
G02*
X192845610Y-151232645I777896J-186756D01*
G01*
X192845610Y-151232645D01*
G75*
G02*
X193436750Y-152197297I-186756J-777896D01*
G01*
X193436750Y-152197297D01*
G75*
G02*
X192472098Y-152788437I-777896J186756D01*
G01*
G37*
%TD.AperFunction*%
%TD*%
%TO.P,REF\u002A\u002A,16*%
%TO.N,N/C*%
%TA.AperFunction,ComponentPad*%
G36*
G01*
X237601470Y-94662262D02*
X237601470Y-94662262D01*
G75*
G02*
X238730354Y-94587282I601932J-526952D01*
G01*
X238730354Y-94587282D01*
G75*
G02*
X238805334Y-95716166I-526952J-601932D01*
G01*
X238805334Y-95716166D01*
G75*
G02*
X237676450Y-95791146I-601932J526952D01*
G01*
X237676450Y-95791146D01*
G75*
G02*
X237601470Y-94662262I526952J601932D01*
G01*
G37*
%TD.AperFunction*%
%TO.P,REF\u002A\u002A,8*%
%TA.AperFunction,ComponentPad*%
G36*
G01*
X220156569Y-103020985D02*
X220156569Y-103020985D01*
G75*
G02*
X221285453Y-102946005I601932J-526952D01*
G01*
X221285453Y-102946005D01*
G75*
G02*
X221360433Y-104074889I-526952J-601932D01*
G01*
X221360433Y-104074889D01*
G75*
G02*
X220231549Y-104149869I-601932J526952D01*
G01*
X220231549Y-104149869D01*
G75*
G02*
X220156569Y-103020985I526952J601932D01*
G01*
G37*
%TD.AperFunction*%
%TO.P,REF\u002A\u002A,15*%
%TA.AperFunction,ComponentPad*%
G36*
G01*
X235928398Y-96573396D02*
X235928398Y-96573396D01*
G75*
G02*
X237057282Y-96498416I601932J-526952D01*
G01*
X237057282Y-96498416D01*
G75*
G02*
X237132262Y-97627300I-526952J-601932D01*
G01*
X237132262Y-97627300D01*
G75*
G02*
X236003378Y-97702280I-601932J526952D01*
G01*
X236003378Y-97702280D01*
G75*
G02*
X235928398Y-96573396I526952J601932D01*
G01*
G37*
%TD.AperFunction*%
%TO.P,REF\u002A\u002A,7*%
%TA.AperFunction,ComponentPad*%
G36*
G01*
X221829641Y-101109851D02*
X221829641Y-101109851D01*
G75*
G02*
X222958525Y-101034871I601932J-526952D01*
G01*
X222958525Y-101034871D01*
G75*
G02*
X223033505Y-102163755I-526952J-601932D01*
G01*
X223033505Y-102163755D01*
G75*
G02*
X221904621Y-102238735I-601932J526952D01*
G01*
X221904621Y-102238735D01*
G75*
G02*
X221829641Y-101109851I526952J601932D01*
G01*
G37*
%TD.AperFunction*%
%TO.P,REF\u002A\u002A,14*%
%TA.AperFunction,ComponentPad*%
G36*
G01*
X234255327Y-98484529D02*
X234255327Y-98484529D01*
G75*
G02*
X235384211Y-98409549I601932J-526952D01*
G01*
X235384211Y-98409549D01*
G75*
G02*
X235459191Y-99538433I-526952J-601932D01*
G01*
X235459191Y-99538433D01*
G75*
G02*
X234330307Y-99613413I-601932J526952D01*
G01*
X234330307Y-99613413D01*
G75*
G02*
X234255327Y-98484529I526952J601932D01*
G01*
G37*
%TD.AperFunction*%
%TO.P,REF\u002A\u002A,6*%
%TA.AperFunction,ComponentPad*%
G36*
G01*
X223502712Y-99198717D02*
X223502712Y-99198717D01*
G75*
G02*
X224631596Y-99123737I601932J-526952D01*
G01*
X224631596Y-99123737D01*
G75*
G02*
X224706576Y-100252621I-526952J-601932D01*
G01*
X224706576Y-100252621D01*
G75*
G02*
X223577692Y-100327601I-601932J526952D01*
G01*
X223577692Y-100327601D01*
G75*
G02*
X223502712Y-99198717I526952J601932D01*
G01*
G37*
%TD.AperFunction*%
%TO.P,REF\u002A\u002A,13*%
%TA.AperFunction,ComponentPad*%
G36*
G01*
X232582256Y-100395663D02*
X232582256Y-100395663D01*
G75*
G02*
X233711140Y-100320683I601932J-526952D01*
G01*
X233711140Y-100320683D01*
G75*
G02*
X233786120Y-101449567I-526952J-601932D01*
G01*
X233786120Y-101449567D01*
G75*
G02*
X232657236Y-101524547I-601932J526952D01*
G01*
X232657236Y-101524547D01*
G75*
G02*
X232582256Y-100395663I526952J601932D01*
G01*
G37*
%TD.AperFunction*%
%TO.P,REF\u002A\u002A,5*%
%TA.AperFunction,ComponentPad*%
G36*
G01*
X225175783Y-97287583D02*
X225175783Y-97287583D01*
G75*
G02*
X226304667Y-97212603I601932J-526952D01*
G01*
X226304667Y-97212603D01*
G75*
G02*
X226379647Y-98341487I-526952J-601932D01*
G01*
X226379647Y-98341487D01*
G75*
G02*
X225250763Y-98416467I-601932J526952D01*
G01*
X225250763Y-98416467D01*
G75*
G02*
X225175783Y-97287583I526952J601932D01*
G01*
G37*
%TD.AperFunction*%
%TO.P,REF\u002A\u002A,12*%
%TA.AperFunction,ComponentPad*%
G36*
G01*
X230909185Y-102306797D02*
X230909185Y-102306797D01*
G75*
G02*
X232038069Y-102231817I601932J-526952D01*
G01*
X232038069Y-102231817D01*
G75*
G02*
X232113049Y-103360701I-526952J-601932D01*
G01*
X232113049Y-103360701D01*
G75*
G02*
X230984165Y-103435681I-601932J526952D01*
G01*
X230984165Y-103435681D01*
G75*
G02*
X230909185Y-102306797I526952J601932D01*
G01*
G37*
%TD.AperFunction*%
%TO.P,REF\u002A\u002A,4*%
%TA.AperFunction,ComponentPad*%
G36*
G01*
X226848854Y-95376450D02*
X226848854Y-95376450D01*
G75*
G02*
X227977738Y-95301470I601932J-526952D01*
G01*
X227977738Y-95301470D01*
G75*
G02*
X228052718Y-96430354I-526952J-601932D01*
G01*
X228052718Y-96430354D01*
G75*
G02*
X226923834Y-96505334I-601932J526952D01*
G01*
X226923834Y-96505334D01*
G75*
G02*
X226848854Y-95376450I526952J601932D01*
G01*
G37*
%TD.AperFunction*%
%TO.P,REF\u002A\u002A,11*%
%TA.AperFunction,ComponentPad*%
G36*
G01*
X229236113Y-104217931D02*
X229236113Y-104217931D01*
G75*
G02*
X230364997Y-104142951I601932J-526952D01*
G01*
X230364997Y-104142951D01*
G75*
G02*
X230439977Y-105271835I-526952J-601932D01*
G01*
X230439977Y-105271835D01*
G75*
G02*
X229311093Y-105346815I-601932J526952D01*
G01*
X229311093Y-105346815D01*
G75*
G02*
X229236113Y-104217931I526952J601932D01*
G01*
G37*
%TD.AperFunction*%
%TO.P,REF\u002A\u002A,3*%
%TA.AperFunction,ComponentPad*%
G36*
G01*
X228521926Y-93465316D02*
X228521926Y-93465316D01*
G75*
G02*
X229650810Y-93390336I601932J-526952D01*
G01*
X229650810Y-93390336D01*
G75*
G02*
X229725790Y-94519220I-526952J-601932D01*
G01*
X229725790Y-94519220D01*
G75*
G02*
X228596906Y-94594200I-601932J526952D01*
G01*
X228596906Y-94594200D01*
G75*
G02*
X228521926Y-93465316I526952J601932D01*
G01*
G37*
%TD.AperFunction*%
%TO.P,REF\u002A\u002A,10*%
%TA.AperFunction,ComponentPad*%
G36*
G01*
X227563042Y-106129065D02*
X227563042Y-106129065D01*
G75*
G02*
X228691926Y-106054085I601932J-526952D01*
G01*
X228691926Y-106054085D01*
G75*
G02*
X228766906Y-107182969I-526952J-601932D01*
G01*
X228766906Y-107182969D01*
G75*
G02*
X227638022Y-107257949I-601932J526952D01*
G01*
X227638022Y-107257949D01*
G75*
G02*
X227563042Y-106129065I526952J601932D01*
G01*
G37*
%TD.AperFunction*%
%TO.P,REF\u002A\u002A,2*%
%TA.AperFunction,ComponentPad*%
G36*
G01*
X230194997Y-91554182D02*
X230194997Y-91554182D01*
G75*
G02*
X231323881Y-91479202I601932J-526952D01*
G01*
X231323881Y-91479202D01*
G75*
G02*
X231398861Y-92608086I-526952J-601932D01*
G01*
X231398861Y-92608086D01*
G75*
G02*
X230269977Y-92683066I-601932J526952D01*
G01*
X230269977Y-92683066D01*
G75*
G02*
X230194997Y-91554182I526952J601932D01*
G01*
G37*
%TD.AperFunction*%
%TO.P,REF\u002A\u002A,9*%
%TA.AperFunction,ComponentPad*%
G36*
G01*
X225889971Y-108040199D02*
X225889971Y-108040199D01*
G75*
G02*
X227018855Y-107965219I601932J-526952D01*
G01*
X227018855Y-107965219D01*
G75*
G02*
X227093835Y-109094103I-526952J-601932D01*
G01*
X227093835Y-109094103D01*
G75*
G02*
X225964951Y-109169083I-601932J526952D01*
G01*
X225964951Y-109169083D01*
G75*
G02*
X225889971Y-108040199I526952J601932D01*
G01*
G37*
%TD.AperFunction*%
%TA.AperFunction,ComponentPad*%
D12*
%TO.P,REF\u002A\u002A,1*%
G36*
X231341117Y-90244980D02*
G01*
X232395020Y-89041117D01*
X233598883Y-90095020D01*
X232544980Y-91298883D01*
X231341117Y-90244980D01*
G37*
%TD.AperFunction*%
%TD*%
%TA.AperFunction,ComponentPad*%
%TO.P,REF\u002A\u002A,1*%
%TO.N,N/C*%
G36*
X181579377Y-104750152D02*
G01*
X180009848Y-104439377D01*
X180320623Y-102869848D01*
X181890152Y-103180623D01*
X181579377Y-104750152D01*
G37*
%TD.AperFunction*%
%TO.P,REF\u002A\u002A,9*%
%TA.AperFunction,ComponentPad*%
G36*
G01*
X199716061Y-100573372D02*
X199716061Y-100573372D01*
G75*
G02*
X199086684Y-99633221I155387J784764D01*
G01*
X199086684Y-99633221D01*
G75*
G02*
X200026835Y-99003844I784764J-155387D01*
G01*
X200026835Y-99003844D01*
G75*
G02*
X200656212Y-99943995I-155387J-784764D01*
G01*
X200656212Y-99943995D01*
G75*
G02*
X199716061Y-100573372I-784764J155387D01*
G01*
G37*
%TD.AperFunction*%
%TO.P,REF\u002A\u002A,2*%
%TA.AperFunction,ComponentPad*%
G36*
G01*
X183286239Y-105088119D02*
X183286239Y-105088119D01*
G75*
G02*
X182656862Y-104147968I155387J784764D01*
G01*
X182656862Y-104147968D01*
G75*
G02*
X183597013Y-103518591I784764J-155387D01*
G01*
X183597013Y-103518591D01*
G75*
G02*
X184226390Y-104458742I-155387J-784764D01*
G01*
X184226390Y-104458742D01*
G75*
G02*
X183286239Y-105088119I-784764J155387D01*
G01*
G37*
%TD.AperFunction*%
%TO.P,REF\u002A\u002A,10*%
%TA.AperFunction,ComponentPad*%
G36*
G01*
X197224435Y-100080017D02*
X197224435Y-100080017D01*
G75*
G02*
X196595058Y-99139866I155387J784764D01*
G01*
X196595058Y-99139866D01*
G75*
G02*
X197535209Y-98510489I784764J-155387D01*
G01*
X197535209Y-98510489D01*
G75*
G02*
X198164586Y-99450640I-155387J-784764D01*
G01*
X198164586Y-99450640D01*
G75*
G02*
X197224435Y-100080017I-784764J155387D01*
G01*
G37*
%TD.AperFunction*%
%TO.P,REF\u002A\u002A,3*%
%TA.AperFunction,ComponentPad*%
G36*
G01*
X185777865Y-105581475D02*
X185777865Y-105581475D01*
G75*
G02*
X185148488Y-104641324I155387J784764D01*
G01*
X185148488Y-104641324D01*
G75*
G02*
X186088639Y-104011947I784764J-155387D01*
G01*
X186088639Y-104011947D01*
G75*
G02*
X186718016Y-104952098I-155387J-784764D01*
G01*
X186718016Y-104952098D01*
G75*
G02*
X185777865Y-105581475I-784764J155387D01*
G01*
G37*
%TD.AperFunction*%
%TO.P,REF\u002A\u002A,11*%
%TA.AperFunction,ComponentPad*%
G36*
G01*
X194732809Y-99586662D02*
X194732809Y-99586662D01*
G75*
G02*
X194103432Y-98646511I155387J784764D01*
G01*
X194103432Y-98646511D01*
G75*
G02*
X195043583Y-98017134I784764J-155387D01*
G01*
X195043583Y-98017134D01*
G75*
G02*
X195672960Y-98957285I-155387J-784764D01*
G01*
X195672960Y-98957285D01*
G75*
G02*
X194732809Y-99586662I-784764J155387D01*
G01*
G37*
%TD.AperFunction*%
%TO.P,REF\u002A\u002A,4*%
%TA.AperFunction,ComponentPad*%
G36*
G01*
X188269491Y-106074830D02*
X188269491Y-106074830D01*
G75*
G02*
X187640114Y-105134679I155387J784764D01*
G01*
X187640114Y-105134679D01*
G75*
G02*
X188580265Y-104505302I784764J-155387D01*
G01*
X188580265Y-104505302D01*
G75*
G02*
X189209642Y-105445453I-155387J-784764D01*
G01*
X189209642Y-105445453D01*
G75*
G02*
X188269491Y-106074830I-784764J155387D01*
G01*
G37*
%TD.AperFunction*%
%TO.P,REF\u002A\u002A,12*%
%TA.AperFunction,ComponentPad*%
G36*
G01*
X192241183Y-99093307D02*
X192241183Y-99093307D01*
G75*
G02*
X191611806Y-98153156I155387J784764D01*
G01*
X191611806Y-98153156D01*
G75*
G02*
X192551957Y-97523779I784764J-155387D01*
G01*
X192551957Y-97523779D01*
G75*
G02*
X193181334Y-98463930I-155387J-784764D01*
G01*
X193181334Y-98463930D01*
G75*
G02*
X192241183Y-99093307I-784764J155387D01*
G01*
G37*
%TD.AperFunction*%
%TO.P,REF\u002A\u002A,5*%
%TA.AperFunction,ComponentPad*%
G36*
G01*
X190761117Y-106568185D02*
X190761117Y-106568185D01*
G75*
G02*
X190131740Y-105628034I155387J784764D01*
G01*
X190131740Y-105628034D01*
G75*
G02*
X191071891Y-104998657I784764J-155387D01*
G01*
X191071891Y-104998657D01*
G75*
G02*
X191701268Y-105938808I-155387J-784764D01*
G01*
X191701268Y-105938808D01*
G75*
G02*
X190761117Y-106568185I-784764J155387D01*
G01*
G37*
%TD.AperFunction*%
%TO.P,REF\u002A\u002A,13*%
%TA.AperFunction,ComponentPad*%
G36*
G01*
X189749557Y-98599951D02*
X189749557Y-98599951D01*
G75*
G02*
X189120180Y-97659800I155387J784764D01*
G01*
X189120180Y-97659800D01*
G75*
G02*
X190060331Y-97030423I784764J-155387D01*
G01*
X190060331Y-97030423D01*
G75*
G02*
X190689708Y-97970574I-155387J-784764D01*
G01*
X190689708Y-97970574D01*
G75*
G02*
X189749557Y-98599951I-784764J155387D01*
G01*
G37*
%TD.AperFunction*%
%TO.P,REF\u002A\u002A,6*%
%TA.AperFunction,ComponentPad*%
G36*
G01*
X193252743Y-107061540D02*
X193252743Y-107061540D01*
G75*
G02*
X192623366Y-106121389I155387J784764D01*
G01*
X192623366Y-106121389D01*
G75*
G02*
X193563517Y-105492012I784764J-155387D01*
G01*
X193563517Y-105492012D01*
G75*
G02*
X194192894Y-106432163I-155387J-784764D01*
G01*
X194192894Y-106432163D01*
G75*
G02*
X193252743Y-107061540I-784764J155387D01*
G01*
G37*
%TD.AperFunction*%
%TO.P,REF\u002A\u002A,14*%
%TA.AperFunction,ComponentPad*%
G36*
G01*
X187257931Y-98106596D02*
X187257931Y-98106596D01*
G75*
G02*
X186628554Y-97166445I155387J784764D01*
G01*
X186628554Y-97166445D01*
G75*
G02*
X187568705Y-96537068I784764J-155387D01*
G01*
X187568705Y-96537068D01*
G75*
G02*
X188198082Y-97477219I-155387J-784764D01*
G01*
X188198082Y-97477219D01*
G75*
G02*
X187257931Y-98106596I-784764J155387D01*
G01*
G37*
%TD.AperFunction*%
%TO.P,REF\u002A\u002A,7*%
%TA.AperFunction,ComponentPad*%
G36*
G01*
X195744370Y-107554896D02*
X195744370Y-107554896D01*
G75*
G02*
X195114993Y-106614745I155387J784764D01*
G01*
X195114993Y-106614745D01*
G75*
G02*
X196055144Y-105985368I784764J-155387D01*
G01*
X196055144Y-105985368D01*
G75*
G02*
X196684521Y-106925519I-155387J-784764D01*
G01*
X196684521Y-106925519D01*
G75*
G02*
X195744370Y-107554896I-784764J155387D01*
G01*
G37*
%TD.AperFunction*%
%TO.P,REF\u002A\u002A,15*%
%TA.AperFunction,ComponentPad*%
G36*
G01*
X184766305Y-97613241D02*
X184766305Y-97613241D01*
G75*
G02*
X184136928Y-96673090I155387J784764D01*
G01*
X184136928Y-96673090D01*
G75*
G02*
X185077079Y-96043713I784764J-155387D01*
G01*
X185077079Y-96043713D01*
G75*
G02*
X185706456Y-96983864I-155387J-784764D01*
G01*
X185706456Y-96983864D01*
G75*
G02*
X184766305Y-97613241I-784764J155387D01*
G01*
G37*
%TD.AperFunction*%
%TO.P,REF\u002A\u002A,8*%
%TA.AperFunction,ComponentPad*%
G36*
G01*
X198235996Y-108048251D02*
X198235996Y-108048251D01*
G75*
G02*
X197606619Y-107108100I155387J784764D01*
G01*
X197606619Y-107108100D01*
G75*
G02*
X198546770Y-106478723I784764J-155387D01*
G01*
X198546770Y-106478723D01*
G75*
G02*
X199176147Y-107418874I-155387J-784764D01*
G01*
X199176147Y-107418874D01*
G75*
G02*
X198235996Y-108048251I-784764J155387D01*
G01*
G37*
%TD.AperFunction*%
%TO.P,REF\u002A\u002A,16*%
%TA.AperFunction,ComponentPad*%
G36*
G01*
X182274679Y-97119886D02*
X182274679Y-97119886D01*
G75*
G02*
X181645302Y-96179735I155387J784764D01*
G01*
X181645302Y-96179735D01*
G75*
G02*
X182585453Y-95550358I784764J-155387D01*
G01*
X182585453Y-95550358D01*
G75*
G02*
X183214830Y-96490509I-155387J-784764D01*
G01*
X183214830Y-96490509D01*
G75*
G02*
X182274679Y-97119886I-784764J155387D01*
G01*
G37*
%TD.AperFunction*%
%TD*%
D14*
%TO.P,REF\u002A\u002A,1*%
%TO.N,N/C*%
X165740000Y-95980000D03*
%TO.P,REF\u002A\u002A,2*%
%TA.AperFunction,ComponentPad*%
G36*
G01*
X161683308Y-90497696D02*
X161683308Y-90497696D01*
G75*
G02*
X160564365Y-90330469I-475858J643085D01*
G01*
X160564365Y-90330469D01*
G75*
G02*
X160731592Y-89211526I643085J475858D01*
G01*
X160731592Y-89211526D01*
G75*
G02*
X161850535Y-89378753I475858J-643085D01*
G01*
X161850535Y-89378753D01*
G75*
G02*
X161683308Y-90497696I-643085J-475858D01*
G01*
G37*
%TD.AperFunction*%
%TD*%
%TO.P,REF\u002A\u002A,1*%
%TO.N,N/C*%
X188000000Y-150320000D03*
%TO.P,REF\u002A\u002A,2*%
%TA.AperFunction,ComponentPad*%
G36*
G01*
X187880975Y-143501039D02*
X187880975Y-143501039D01*
G75*
G02*
X187067135Y-142715123I-13962J799878D01*
G01*
X187067135Y-142715123D01*
G75*
G02*
X187853051Y-141901283I799878J13962D01*
G01*
X187853051Y-141901283D01*
G75*
G02*
X188666891Y-142687199I13962J-799878D01*
G01*
X188666891Y-142687199D01*
G75*
G02*
X187880975Y-143501039I-799878J-13962D01*
G01*
G37*
%TD.AperFunction*%
%TD*%
%TO.P,REF\u002A\u002A,1*%
%TO.N,N/C*%
X165950000Y-133760000D03*
%TO.P,REF\u002A\u002A,2*%
%TA.AperFunction,ComponentPad*%
G36*
G01*
X162800875Y-127710586D02*
X162800875Y-127710586D01*
G75*
G02*
X161721867Y-127370376I-369399J709609D01*
G01*
X161721867Y-127370376D01*
G75*
G02*
X162062077Y-126291368I709609J369399D01*
G01*
X162062077Y-126291368D01*
G75*
G02*
X163141085Y-126631578I369399J-709609D01*
G01*
X163141085Y-126631578D01*
G75*
G02*
X162800875Y-127710586I-709609J-369399D01*
G01*
G37*
%TD.AperFunction*%
%TD*%
%TO.P,REF\u002A\u002A,2*%
%TO.N,N/C*%
%TA.AperFunction,ComponentPad*%
G36*
G01*
X168165964Y-129006304D02*
X168165964Y-129006304D01*
G75*
G02*
X167055380Y-129222180I-663230J447354D01*
G01*
X167055380Y-129222180D01*
G75*
G02*
X166839504Y-128111596I447354J663230D01*
G01*
X166839504Y-128111596D01*
G75*
G02*
X167950088Y-127895720I663230J-447354D01*
G01*
X167950088Y-127895720D01*
G75*
G02*
X168165964Y-129006304I-447354J-663230D01*
G01*
G37*
%TD.AperFunction*%
%TO.P,REF\u002A\u002A,1*%
X173820000Y-132820000D03*
%TD*%
%TO.P,REF\u002A\u002A,2*%
%TO.N,N/C*%
%TA.AperFunction,ComponentPad*%
G36*
G01*
X197594906Y-116033599D02*
X197594906Y-116033599D01*
G75*
G02*
X197906754Y-114946055I699696J387848D01*
G01*
X197906754Y-114946055D01*
G75*
G02*
X198994298Y-115257903I387848J-699696D01*
G01*
X198994298Y-115257903D01*
G75*
G02*
X198682450Y-116345447I-699696J-387848D01*
G01*
X198682450Y-116345447D01*
G75*
G02*
X197594906Y-116033599I-387848J699696D01*
G01*
G37*
%TD.AperFunction*%
%TO.P,REF\u002A\u002A,1*%
X191630000Y-119340000D03*
%TD*%
%TO.P,REF\u002A\u002A,1*%
%TO.N,N/C*%
X199310000Y-141470000D03*
%TO.P,REF\u002A\u002A,2*%
%TA.AperFunction,ComponentPad*%
G36*
G01*
X205491019Y-138587744D02*
X205491019Y-138587744D01*
G75*
G02*
X205877970Y-137524603I725046J338095D01*
G01*
X205877970Y-137524603D01*
G75*
G02*
X206941111Y-137911554I338095J-725046D01*
G01*
X206941111Y-137911554D01*
G75*
G02*
X206554160Y-138974695I-725046J-338095D01*
G01*
X206554160Y-138974695D01*
G75*
G02*
X205491019Y-138587744I-338095J725046D01*
G01*
G37*
%TD.AperFunction*%
%TD*%
%TO.P,REF\u002A\u002A,1*%
%TO.N,N/C*%
X175770000Y-136250000D03*
%TO.P,REF\u002A\u002A,2*%
%TA.AperFunction,ComponentPad*%
G36*
G01*
X182415204Y-134715834D02*
X182415204Y-134715834D01*
G75*
G02*
X183014739Y-133756377I779496J179961D01*
G01*
X183014739Y-133756377D01*
G75*
G02*
X183974196Y-134355912I179961J-779496D01*
G01*
X183974196Y-134355912D01*
G75*
G02*
X183374661Y-135315369I-779496J-179961D01*
G01*
X183374661Y-135315369D01*
G75*
G02*
X182415204Y-134715834I-179961J779496D01*
G01*
G37*
%TD.AperFunction*%
%TD*%
D17*
%TO.P,REF\u002A\u002A,2*%
%TO.N,N/C*%
X165760000Y-136640000D03*
D14*
%TO.P,REF\u002A\u002A,1*%
X158140000Y-136640000D03*
%TD*%
%TO.P,REF\u002A\u002A,1*%
%TO.N,N/C*%
X197500000Y-152230000D03*
%TO.P,REF\u002A\u002A,2*%
%TA.AperFunction,ComponentPad*%
G36*
G01*
X204194697Y-150928682D02*
X204194697Y-150928682D01*
G75*
G02*
X204827352Y-149990733I785302J152647D01*
G01*
X204827352Y-149990733D01*
G75*
G02*
X205765301Y-150623388I152647J-785302D01*
G01*
X205765301Y-150623388D01*
G75*
G02*
X205132646Y-151561337I-785302J-152647D01*
G01*
X205132646Y-151561337D01*
G75*
G02*
X204194697Y-150928682I-152647J785302D01*
G01*
G37*
%TD.AperFunction*%
%TD*%
D11*
%TO.P,REF\u002A\u002A,2*%
%TO.N,N/C*%
X173001930Y-146501920D03*
%TO.P,REF\u002A\u002A,3*%
X170883860Y-147903840D03*
%TA.AperFunction,ComponentPad*%
D12*
%TO.P,REF\u002A\u002A,1*%
G36*
X174080633Y-144888538D02*
G01*
X175331462Y-144060633D01*
X176159367Y-145311462D01*
X174908538Y-146139367D01*
X174080633Y-144888538D01*
G37*
%TD.AperFunction*%
%TD*%
D13*
%TO.P,REF\u002A\u002A,1*%
%TO.N,N/C*%
X163833895Y-160170590D03*
%TD*%
D14*
%TO.P,REF\u002A\u002A,1*%
%TO.N,N/C*%
X198380000Y-138210000D03*
%TO.P,REF\u002A\u002A,2*%
%TA.AperFunction,ComponentPad*%
G36*
G01*
X204680858Y-135600099D02*
X204680858Y-135600099D01*
G75*
G02*
X205113815Y-134554848I739104J306147D01*
G01*
X205113815Y-134554848D01*
G75*
G02*
X206159066Y-134987805I306147J-739104D01*
G01*
X206159066Y-134987805D01*
G75*
G02*
X205726109Y-136033056I-739104J-306147D01*
G01*
X205726109Y-136033056D01*
G75*
G02*
X204680858Y-135600099I-306147J739104D01*
G01*
G37*
%TD.AperFunction*%
%TD*%
%TO.P,REF\u002A\u002A,1*%
%TO.N,N/C*%
X166850000Y-141070000D03*
%TO.P,REF\u002A\u002A,2*%
%TA.AperFunction,ComponentPad*%
G36*
G01*
X172569734Y-137355562D02*
X172569734Y-137355562D01*
G75*
G02*
X172804959Y-136248915I670936J435711D01*
G01*
X172804959Y-136248915D01*
G75*
G02*
X173911606Y-136484140I435711J-670936D01*
G01*
X173911606Y-136484140D01*
G75*
G02*
X173676381Y-137590787I-670936J-435711D01*
G01*
X173676381Y-137590787D01*
G75*
G02*
X172569734Y-137355562I-435711J670936D01*
G01*
G37*
%TD.AperFunction*%
%TD*%
%TA.AperFunction,ComponentPad*%
D12*
%TO.P,REF\u002A\u002A,1*%
%TO.N,N/C*%
G36*
X159212471Y-152905393D02*
G01*
X160978366Y-151966450D01*
X161917309Y-153732345D01*
X160151414Y-154671288D01*
X159212471Y-152905393D01*
G37*
%TD.AperFunction*%
%TD*%
D14*
%TO.P,REF\u002A\u002A,1*%
%TO.N,N/C*%
X196530000Y-131730000D03*
%TO.P,REF\u002A\u002A,2*%
%TA.AperFunction,ComponentPad*%
G36*
G01*
X203175204Y-130195834D02*
X203175204Y-130195834D01*
G75*
G02*
X203774739Y-129236377I779496J179961D01*
G01*
X203774739Y-129236377D01*
G75*
G02*
X204734196Y-129835912I179961J-779496D01*
G01*
X204734196Y-129835912D01*
G75*
G02*
X204134661Y-130795369I-779496J-179961D01*
G01*
X204134661Y-130795369D01*
G75*
G02*
X203175204Y-130195834I-179961J779496D01*
G01*
G37*
%TD.AperFunction*%
%TD*%
%TA.AperFunction,ComponentPad*%
D12*
%TO.P,REF\u002A\u002A,1*%
%TO.N,N/C*%
G36*
X177652519Y-148924555D02*
G01*
X178447398Y-147652482D01*
X179719471Y-148447361D01*
X178924592Y-149719434D01*
X177652519Y-148924555D01*
G37*
%TD.AperFunction*%
D11*
%TO.P,REF\u002A\u002A,3*%
X175994005Y-152994042D03*
%TO.P,REF\u002A\u002A,2*%
X177340000Y-150840000D03*
%TD*%
%TO.P,REF\u002A\u002A,2*%
%TO.N,N/C*%
X191995958Y-140434005D03*
%TO.P,REF\u002A\u002A,3*%
X189841916Y-139088010D03*
%TA.AperFunction,ComponentPad*%
D12*
%TO.P,REF\u002A\u002A,1*%
G36*
X193911403Y-140746524D02*
G01*
X195183476Y-141541403D01*
X194388597Y-142813476D01*
X193116524Y-142018597D01*
X193911403Y-140746524D01*
G37*
%TD.AperFunction*%
%TD*%
%TO.P,REF\u002A\u002A,2*%
%TO.N,N/C*%
%TA.AperFunction,ComponentPad*%
G36*
G01*
X168725584Y-158947523D02*
X168725584Y-158947523D01*
G75*
G02*
X170030249Y-159794782I228703J-1075962D01*
G01*
X170030249Y-159794782D01*
G75*
G02*
X169182990Y-161099447I-1075962J-228703D01*
G01*
X169182990Y-161099447D01*
G75*
G02*
X167878325Y-160252188I-228703J1075962D01*
G01*
X167878325Y-160252188D01*
G75*
G02*
X168725584Y-158947523I1075962J228703D01*
G01*
G37*
%TD.AperFunction*%
%TA.AperFunction,ComponentPad*%
%TO.P,REF\u002A\u002A,1*%
G36*
X166065335Y-151722740D02*
G01*
X168217260Y-151265335D01*
X168674665Y-153417260D01*
X166522740Y-153874665D01*
X166065335Y-151722740D01*
G37*
%TD.AperFunction*%
%TD*%
%TA.AperFunction,ComponentPad*%
%TO.P,REF\u002A\u002A,1*%
%TO.N,N/C*%
G36*
X182805818Y-138014546D02*
G01*
X181945454Y-136785818D01*
X183174182Y-135925454D01*
X184034546Y-137154182D01*
X182805818Y-138014546D01*
G37*
%TD.AperFunction*%
D11*
%TO.P,REF\u002A\u002A,3*%
X185903768Y-141131292D03*
%TO.P,REF\u002A\u002A,2*%
X184446884Y-139050646D03*
%TD*%
%TO.P,REF\u002A\u002A,2*%
%TO.N,N/C*%
%TA.AperFunction,ComponentPad*%
G36*
G01*
X203841998Y-133016025D02*
X203841998Y-133016025D01*
G75*
G02*
X204373145Y-132017084I765044J233897D01*
G01*
X204373145Y-132017084D01*
G75*
G02*
X205372086Y-132548231I233897J-765044D01*
G01*
X205372086Y-132548231D01*
G75*
G02*
X204840939Y-133547172I-765044J-233897D01*
G01*
X204840939Y-133547172D01*
G75*
G02*
X203841998Y-133016025I-233897J765044D01*
G01*
G37*
%TD.AperFunction*%
D14*
%TO.P,REF\u002A\u002A,1*%
X197320000Y-135010000D03*
%TD*%
%TO.P,REF\u002A\u002A,1*%
%TO.N,N/C*%
X260740000Y-144770000D03*
%TO.P,REF\u002A\u002A,2*%
%TA.AperFunction,ComponentPad*%
G36*
G01*
X254200850Y-142833015D02*
X254200850Y-142833015D01*
G75*
G02*
X253206582Y-143372859I-767056J227212D01*
G01*
X253206582Y-143372859D01*
G75*
G02*
X252666738Y-142378591I227212J767056D01*
G01*
X252666738Y-142378591D01*
G75*
G02*
X253661006Y-141838747I767056J-227212D01*
G01*
X253661006Y-141838747D01*
G75*
G02*
X254200850Y-142833015I-227212J-767056D01*
G01*
G37*
%TD.AperFunction*%
%TD*%
%TA.AperFunction,ComponentPad*%
D12*
%TO.P,REF\u002A\u002A,1*%
%TO.N,N/C*%
G36*
X205824814Y-147394519D02*
G01*
X204525776Y-146644519D01*
X205275776Y-145345481D01*
X206574814Y-146095481D01*
X205824814Y-147394519D01*
G37*
%TD.AperFunction*%
D11*
%TO.P,REF\u002A\u002A,3*%
X209949704Y-148910000D03*
%TO.P,REF\u002A\u002A,2*%
X207750000Y-147640000D03*
%TD*%
%TO.P,REF\u002A\u002A,2*%
%TO.N,N/C*%
%TA.AperFunction,ComponentPad*%
G36*
G01*
X163076118Y-99411661D02*
X163076118Y-99411661D01*
G75*
G02*
X162468233Y-98457472I173152J781037D01*
G01*
X162468233Y-98457472D01*
G75*
G02*
X163422422Y-97849587I781037J-173152D01*
G01*
X163422422Y-97849587D01*
G75*
G02*
X164030307Y-98803776I-173152J-781037D01*
G01*
X164030307Y-98803776D01*
G75*
G02*
X163076118Y-99411661I-781037J173152D01*
G01*
G37*
%TD.AperFunction*%
D14*
%TO.P,REF\u002A\u002A,1*%
X161600000Y-106070000D03*
%TD*%
%TO.P,REF\u002A\u002A,2*%
%TO.N,N/C*%
%TA.AperFunction,ComponentPad*%
G36*
G01*
X173516468Y-105135777D02*
X173516468Y-105135777D01*
G75*
G02*
X172431687Y-105457104I-703054J381727D01*
G01*
X172431687Y-105457104D01*
G75*
G02*
X172110360Y-104372323I381727J703054D01*
G01*
X172110360Y-104372323D01*
G75*
G02*
X173195141Y-104050996I703054J-381727D01*
G01*
X173195141Y-104050996D01*
G75*
G02*
X173516468Y-105135777I-381727J-703054D01*
G01*
G37*
%TD.AperFunction*%
%TO.P,REF\u002A\u002A,1*%
X179510000Y-108390000D03*
%TD*%
%TO.P,REF\u002A\u002A,1*%
%TO.N,N/C*%
X161640000Y-114120000D03*
%TO.P,REF\u002A\u002A,2*%
%TA.AperFunction,ComponentPad*%
G36*
G01*
X166247525Y-109091769D02*
X166247525Y-109091769D01*
G75*
G02*
X166198175Y-107961475I540472J589822D01*
G01*
X166198175Y-107961475D01*
G75*
G02*
X167328469Y-107912125I589822J-540472D01*
G01*
X167328469Y-107912125D01*
G75*
G02*
X167377819Y-109042419I-540472J-589822D01*
G01*
X167377819Y-109042419D01*
G75*
G02*
X166247525Y-109091769I-589822J540472D01*
G01*
G37*
%TD.AperFunction*%
%TD*%
%TO.P,REF\u002A\u002A,2*%
%TO.N,N/C*%
%TA.AperFunction,ComponentPad*%
G36*
G01*
X180456563Y-122751185D02*
X180456563Y-122751185D01*
G75*
G02*
X179969495Y-121730027I267045J754113D01*
G01*
X179969495Y-121730027D01*
G75*
G02*
X180990653Y-121242959I754113J-267045D01*
G01*
X180990653Y-121242959D01*
G75*
G02*
X181477721Y-122264117I-267045J-754113D01*
G01*
X181477721Y-122264117D01*
G75*
G02*
X180456563Y-122751185I-754113J267045D01*
G01*
G37*
%TD.AperFunction*%
%TO.P,REF\u002A\u002A,1*%
X178180000Y-129180000D03*
%TD*%
%TO.P,REF\u002A\u002A,2*%
%TO.N,N/C*%
%TA.AperFunction,ComponentPad*%
G36*
G01*
X215814698Y-153512647D02*
X215814698Y-153512647D01*
G75*
G02*
X216447353Y-152574698I785302J152647D01*
G01*
X216447353Y-152574698D01*
G75*
G02*
X217385302Y-153207353I152647J-785302D01*
G01*
X217385302Y-153207353D01*
G75*
G02*
X216752647Y-154145302I-785302J-152647D01*
G01*
X216752647Y-154145302D01*
G75*
G02*
X215814698Y-153512647I-152647J785302D01*
G01*
G37*
%TD.AperFunction*%
%TO.P,REF\u002A\u002A,1*%
X209120001Y-154813965D03*
%TD*%
%TO.P,REF\u002A\u002A,2*%
%TO.N,N/C*%
%TA.AperFunction,ComponentPad*%
G36*
G01*
X171346931Y-152156547D02*
X171346931Y-152156547D01*
G75*
G02*
X170274026Y-151797558I-356958J715947D01*
G01*
X170274026Y-151797558D01*
G75*
G02*
X170633015Y-150724653I715947J356958D01*
G01*
X170633015Y-150724653D01*
G75*
G02*
X171705920Y-151083642I356958J-715947D01*
G01*
X171705920Y-151083642D01*
G75*
G02*
X171346931Y-152156547I-715947J-356958D01*
G01*
G37*
%TD.AperFunction*%
%TO.P,REF\u002A\u002A,1*%
X174390000Y-158260000D03*
%TD*%
%TO.P,REF\u002A\u002A,1*%
%TO.N,N/C*%
X196590000Y-128900000D03*
%TO.P,REF\u002A\u002A,2*%
%TA.AperFunction,ComponentPad*%
G36*
G01*
X193870531Y-122645650D02*
X193870531Y-122645650D01*
G75*
G02*
X192817884Y-122231001I-318999J733648D01*
G01*
X192817884Y-122231001D01*
G75*
G02*
X193232533Y-121178354I733648J318999D01*
G01*
X193232533Y-121178354D01*
G75*
G02*
X194285180Y-121593003I318999J-733648D01*
G01*
X194285180Y-121593003D01*
G75*
G02*
X193870531Y-122645650I-733648J-318999D01*
G01*
G37*
%TD.AperFunction*%
%TD*%
%TO.P,REF\u002A\u002A,2*%
%TO.N,N/C*%
%TA.AperFunction,ComponentPad*%
G36*
G01*
X174222268Y-139879605D02*
X174222268Y-139879605D01*
G75*
G02*
X174408998Y-138763751I651292J464562D01*
G01*
X174408998Y-138763751D01*
G75*
G02*
X175524852Y-138950481I464562J-651292D01*
G01*
X175524852Y-138950481D01*
G75*
G02*
X175338122Y-140066335I-651292J-464562D01*
G01*
X175338122Y-140066335D01*
G75*
G02*
X174222268Y-139879605I-464562J651292D01*
G01*
G37*
%TD.AperFunction*%
%TO.P,REF\u002A\u002A,1*%
X168670000Y-143840000D03*
%TD*%
%TO.P,REF\u002A\u002A,1*%
%TO.N,N/C*%
X175050000Y-128150000D03*
%TO.P,REF\u002A\u002A,2*%
%TA.AperFunction,ComponentPad*%
G36*
G01*
X177769469Y-121895650D02*
X177769469Y-121895650D01*
G75*
G02*
X177354820Y-120843003I318999J733648D01*
G01*
X177354820Y-120843003D01*
G75*
G02*
X178407467Y-120428354I733648J-318999D01*
G01*
X178407467Y-120428354D01*
G75*
G02*
X178822116Y-121481001I-318999J-733648D01*
G01*
X178822116Y-121481001D01*
G75*
G02*
X177769469Y-121895650I-733648J318999D01*
G01*
G37*
%TD.AperFunction*%
%TD*%
%TO.P,REF\u002A\u002A,2*%
%TO.N,N/C*%
%TA.AperFunction,ComponentPad*%
G36*
G01*
X206480380Y-141906056D02*
X206480380Y-141906056D01*
G75*
G02*
X206885827Y-140849831I730836J325389D01*
G01*
X206885827Y-140849831D01*
G75*
G02*
X207942052Y-141255278I325389J-730836D01*
G01*
X207942052Y-141255278D01*
G75*
G02*
X207536605Y-142311503I-730836J-325389D01*
G01*
X207536605Y-142311503D01*
G75*
G02*
X206480380Y-141906056I-325389J730836D01*
G01*
G37*
%TD.AperFunction*%
%TO.P,REF\u002A\u002A,1*%
X200250000Y-144680000D03*
%TD*%
%TO.P,REF\u002A\u002A,2*%
%TO.N,N/C*%
%TA.AperFunction,ComponentPad*%
G36*
G01*
X258582565Y-133508040D02*
X258582565Y-133508040D01*
G75*
G02*
X258025452Y-132523345I213791J770904D01*
G01*
X258025452Y-132523345D01*
G75*
G02*
X259010147Y-131966232I770904J-213791D01*
G01*
X259010147Y-131966232D01*
G75*
G02*
X259567260Y-132950927I-213791J-770904D01*
G01*
X259567260Y-132950927D01*
G75*
G02*
X258582565Y-133508040I-770904J213791D01*
G01*
G37*
%TD.AperFunction*%
%TO.P,REF\u002A\u002A,1*%
X256760000Y-140080000D03*
%TD*%
%TO.P,REF\u002A\u002A,1*%
%TO.N,N/C*%
X178690000Y-160920000D03*
%TO.P,REF\u002A\u002A,2*%
%TA.AperFunction,ComponentPad*%
G36*
G01*
X181299901Y-154619142D02*
X181299901Y-154619142D01*
G75*
G02*
X180866944Y-153573891I306147J739104D01*
G01*
X180866944Y-153573891D01*
G75*
G02*
X181912195Y-153140934I739104J-306147D01*
G01*
X181912195Y-153140934D01*
G75*
G02*
X182345152Y-154186185I-306147J-739104D01*
G01*
X182345152Y-154186185D01*
G75*
G02*
X181299901Y-154619142I-739104J306147D01*
G01*
G37*
%TD.AperFunction*%
%TD*%
D13*
%TO.P,REF\u002A\u002A,1*%
%TO.N,N/C*%
X170990000Y-83140000D03*
%TD*%
%TO.P,REF\u002A\u002A,1*%
%TO.N,N/C*%
X253530000Y-59410000D03*
%TD*%
%TO.P,REF\u002A\u002A,2*%
%TO.N,N/C*%
%TA.AperFunction,ComponentPad*%
G36*
G01*
X186089901Y-154409142D02*
X186089901Y-154409142D01*
G75*
G02*
X185656944Y-153363891I306147J739104D01*
G01*
X185656944Y-153363891D01*
G75*
G02*
X186702195Y-152930934I739104J-306147D01*
G01*
X186702195Y-152930934D01*
G75*
G02*
X187135152Y-153976185I-306147J-739104D01*
G01*
X187135152Y-153976185D01*
G75*
G02*
X186089901Y-154409142I-739104J306147D01*
G01*
G37*
%TD.AperFunction*%
D14*
%TO.P,REF\u002A\u002A,1*%
X183480000Y-160710000D03*
%TD*%
%TA.AperFunction,ComponentPad*%
D12*
%TO.P,REF\u002A\u002A,1*%
%TO.N,N/C*%
G36*
X259624185Y-61988925D02*
G01*
X260091075Y-60044185D01*
X262035815Y-60511075D01*
X261568925Y-62455815D01*
X259624185Y-61988925D01*
G37*
%TD.AperFunction*%
%TD*%
D18*
%TO.N,*%
X205218319Y-102346347D02*
X205278339Y-102236730D01*
X207854423Y-96069272D02*
X207824487Y-96311022D01*
X205802620Y-101241687D02*
X205859095Y-101130203D01*
X207786223Y-96551593D02*
X207739676Y-96790701D01*
X205338008Y-102126923D02*
X205397325Y-102016924D01*
X207290244Y-98178790D02*
X207187815Y-98399804D01*
X198798602Y-122595608D02*
X198567600Y-122676340D01*
X199267643Y-122456104D02*
X199032027Y-122522172D01*
X200470396Y-122238312D02*
X200227345Y-122266708D01*
X200958573Y-122204487D02*
X200714218Y-122217564D01*
X199505219Y-122397470D02*
X199267643Y-122456104D01*
X199744518Y-122346326D02*
X199505219Y-122397470D01*
X206026370Y-100794671D02*
X206081410Y-100682472D01*
X207857840Y-94610243D02*
X207878274Y-94852980D01*
X205688599Y-101464109D02*
X205745788Y-101352990D01*
X207384982Y-97954371D02*
X207290244Y-98178790D01*
X207875994Y-95826634D02*
X207854423Y-96069272D01*
X207471916Y-97726816D02*
X207384982Y-97954371D01*
X197245014Y-123308991D02*
X188760000Y-128400000D01*
X197456796Y-123186402D02*
X197245014Y-123308991D01*
X200714218Y-122217564D02*
X200470396Y-122238312D01*
X205397325Y-102016924D02*
X205456289Y-101906736D01*
X206136091Y-100570097D02*
X207187815Y-98399804D01*
X205341745Y-92841136D02*
X205108254Y-90138863D01*
X207893952Y-95339846D02*
X207889176Y-95583395D01*
X198113769Y-122859366D02*
X197891389Y-122961479D01*
X197672326Y-123070527D02*
X197456796Y-123186402D01*
X207857840Y-94610243D02*
X206790000Y-84100000D01*
X207824487Y-96311022D02*
X207786223Y-96551593D01*
X197891389Y-122961479D02*
X197672326Y-123070527D01*
X200227345Y-122266708D02*
X199985306Y-122302725D01*
X198339247Y-122764289D02*
X198113769Y-122859366D01*
X207684901Y-97028058D02*
X207621965Y-97263383D01*
X198567600Y-122676340D02*
X198339247Y-122764289D01*
X199032027Y-122522172D02*
X198798602Y-122595608D01*
X207890316Y-95096277D02*
X207893952Y-95339846D01*
X199985306Y-122302725D02*
X199744518Y-122346326D01*
X200958573Y-122204487D02*
X206900000Y-121980000D01*
X205970971Y-100906694D02*
X206026370Y-100794671D01*
X205745788Y-101352990D02*
X205802620Y-101241687D01*
X205514898Y-101796359D02*
X205573154Y-101685795D01*
X205278339Y-102236730D02*
X205338008Y-102126923D01*
X205573154Y-101685795D02*
X205631054Y-101575045D01*
X207878274Y-94852980D02*
X207890316Y-95096277D01*
X207621965Y-97263383D02*
X207550942Y-97496395D01*
X205859095Y-101130203D02*
X205915212Y-101018538D01*
X205456289Y-101906736D02*
X205514898Y-101796359D01*
X207550942Y-97496395D02*
X207471916Y-97726816D01*
X207889176Y-95583395D02*
X207875994Y-95826634D01*
X205915212Y-101018538D02*
X205970971Y-100906694D01*
X205218319Y-102346347D02*
X204150000Y-104290000D01*
X207739676Y-96790701D02*
X207684901Y-97028058D01*
X206081410Y-100682472D02*
X206136091Y-100570097D01*
X205631054Y-101575045D02*
X205688599Y-101464109D01*
X201953822Y-86367595D02*
X202266167Y-86464900D01*
X204913034Y-89178962D02*
X205002480Y-89493648D01*
X204325241Y-88015122D02*
X204505108Y-88288391D01*
X167720000Y-103440000D02*
X163370000Y-108940000D01*
X163249270Y-98630624D02*
X165255449Y-102825518D01*
X204505108Y-88288391D02*
X204663623Y-88574575D01*
X170310000Y-118770000D02*
X171720000Y-122140000D01*
X194090000Y-103370000D02*
X198550000Y-103900000D01*
X203404895Y-97333308D02*
X203663964Y-97113616D01*
X205067679Y-89814237D02*
X205108254Y-90138863D01*
X203668574Y-87288275D02*
X203905754Y-87513605D01*
X173300000Y-100390000D02*
X170184551Y-104054481D01*
X179246905Y-93017560D02*
X179246905Y-93151961D01*
X203414908Y-87081679D02*
X203668574Y-87288275D01*
X198550000Y-103900000D02*
X204150000Y-104290000D01*
X197839333Y-111597177D02*
X198294602Y-115645751D01*
X179246905Y-93151961D02*
X182430066Y-96335122D01*
X172813414Y-104754050D02*
X172061335Y-109714355D01*
X195899757Y-106770132D02*
X195510000Y-112610000D01*
X177612549Y-99054929D02*
X175470000Y-105990000D01*
X175470000Y-105990000D02*
X174390667Y-110727177D01*
X205359842Y-93180331D02*
X205341745Y-92841136D01*
X205355609Y-93519983D02*
X205359842Y-93180331D01*
X205329063Y-93858622D02*
X205355609Y-93519983D01*
X205280318Y-94194784D02*
X205329063Y-93858622D01*
X205209585Y-94527016D02*
X205280318Y-94194784D01*
X205117171Y-94853881D02*
X205209585Y-94527016D01*
X203131949Y-97535499D02*
X199871448Y-99788608D01*
X176720000Y-111740000D02*
X178088468Y-121162002D01*
X204868986Y-95485886D02*
X205003474Y-95173966D01*
X203131949Y-97535499D02*
X203404895Y-97333308D01*
X202266167Y-86464900D02*
X202570187Y-86585729D01*
X165290000Y-120200000D02*
X167999054Y-113881953D01*
X204125068Y-87756358D02*
X204325241Y-88015122D01*
X205003474Y-95173966D02*
X205117171Y-94853881D01*
X204714289Y-95788294D02*
X204868986Y-95485886D01*
X187413318Y-97321832D02*
X189330000Y-102090000D01*
X164407867Y-125202823D02*
X162431476Y-127000977D01*
X203908035Y-96877372D02*
X204136051Y-96625599D01*
X204663623Y-88574575D02*
X204799862Y-88872009D01*
X161790000Y-121350000D02*
X164848934Y-122701412D01*
X174390667Y-110727177D02*
X170310000Y-118770000D01*
X201953822Y-86367595D02*
X197185856Y-85079527D01*
X204540052Y-96079880D02*
X204714289Y-95788294D01*
X204347027Y-96359385D02*
X204540052Y-96079880D01*
X204136051Y-96625599D02*
X204347027Y-96359385D01*
X203663964Y-97113616D02*
X203908035Y-96877372D01*
X203146234Y-86895019D02*
X203414908Y-87081679D01*
X189330000Y-102090000D02*
X194090000Y-103370000D01*
X204799862Y-88872009D02*
X204913034Y-89178962D01*
X168369130Y-77176489D02*
X167000000Y-85700000D01*
X179246905Y-93017560D02*
X173300000Y-100390000D01*
X166787997Y-108501947D02*
X170184551Y-104054481D01*
X174010000Y-86900000D02*
X179246905Y-93017560D01*
X161640000Y-114120000D02*
X161790000Y-121350000D01*
X198391383Y-107263487D02*
X200168665Y-110584355D01*
X203905754Y-87513605D02*
X204125068Y-87756358D01*
X167000000Y-85700000D02*
X174010000Y-86900000D01*
X205002480Y-89493648D02*
X205067679Y-89814237D01*
X202864113Y-86729381D02*
X203146234Y-86895019D01*
X173300000Y-100390000D02*
X172813414Y-104754050D01*
X167502734Y-128558950D02*
X169028010Y-126448084D01*
X202570187Y-86585729D02*
X202864113Y-86729381D01*
X163370000Y-108940000D02*
X167999054Y-113881953D01*
X204510018Y-159183953D02*
X204260536Y-159186805D01*
X206005266Y-159116119D02*
X205756371Y-159133458D01*
X206750781Y-159049650D02*
X206502494Y-159074213D01*
X189496962Y-156977501D02*
X189616587Y-156957612D01*
X189736871Y-156942194D02*
X189857645Y-156931268D01*
X190099995Y-156922949D02*
X190490008Y-156924100D01*
X198982162Y-159033455D02*
X198735682Y-159016814D01*
X196510343Y-160889728D02*
X196755192Y-160928218D01*
X196266312Y-160846346D02*
X196510343Y-160889728D01*
X203761548Y-159185260D02*
X203512088Y-159180863D01*
X195622204Y-158281481D02*
X195394324Y-158186089D01*
X189857645Y-156931268D02*
X189978742Y-156924850D01*
X198235985Y-161055704D02*
X198483810Y-161059630D01*
X197988287Y-161046820D02*
X198235985Y-161055704D01*
X197000763Y-160961800D02*
X197246957Y-160990462D01*
X195781100Y-160744979D02*
X196023199Y-160798090D01*
X199228966Y-159044299D02*
X198982162Y-159033455D01*
X195394324Y-158186089D02*
X194325675Y-157723910D01*
X207246582Y-158993316D02*
X206998818Y-159022683D01*
X170374005Y-124294042D02*
X164848934Y-122701412D01*
X198731664Y-161058596D02*
X198979448Y-161052603D01*
X198489661Y-158994386D02*
X198244235Y-158966183D01*
X196755192Y-160928218D02*
X197000763Y-160961800D01*
X196023199Y-160798090D02*
X196266312Y-160846346D01*
X205507319Y-159148385D02*
X205258135Y-159160899D01*
X195300332Y-160624279D02*
X195540112Y-160687034D01*
X196318410Y-158535175D02*
X196084375Y-158456073D01*
X206253982Y-159096370D02*
X206005266Y-159116119D01*
X207246582Y-158993316D02*
X214240000Y-158130000D01*
X197755709Y-158892515D02*
X197512880Y-158847092D01*
X195540112Y-160687034D02*
X195781100Y-160744979D01*
X198244235Y-158966183D02*
X197999539Y-158932220D01*
X205008841Y-159170999D02*
X204759461Y-159178684D01*
X189260349Y-157030574D02*
X189378161Y-157001833D01*
X196791732Y-158676773D02*
X196554239Y-158608755D01*
X170374005Y-124294042D02*
X175380000Y-125300000D01*
X199227063Y-161041654D02*
X210870000Y-160410000D01*
X204260536Y-159186805D02*
X204011038Y-159187241D01*
X189616587Y-156957612D02*
X189736871Y-156942194D01*
X197740818Y-161032981D02*
X197988287Y-161046820D01*
X203262683Y-159174050D02*
X199228966Y-159044299D01*
X204011038Y-159187241D02*
X203761548Y-159185260D01*
X206502494Y-159074213D02*
X206253982Y-159096370D01*
X197030758Y-158739191D02*
X196791732Y-158676773D01*
X203512088Y-159180863D02*
X203262683Y-159174050D01*
X205258135Y-159160899D02*
X205008841Y-159170999D01*
X197271185Y-158795974D02*
X197030758Y-158739191D01*
X197999539Y-158932220D02*
X197755709Y-158892515D01*
X198735682Y-159016814D02*
X198489661Y-158994386D01*
X205756371Y-159133458D02*
X205507319Y-159148385D01*
X196084375Y-158456073D02*
X195852264Y-158371493D01*
X196554239Y-158608755D02*
X196318410Y-158535175D01*
X189978742Y-156924850D02*
X190099995Y-156922949D01*
X195852264Y-158371493D02*
X195622204Y-158281481D01*
X197512880Y-158847092D02*
X197271185Y-158795974D01*
X206998818Y-159022683D02*
X206750781Y-159049650D01*
X198483810Y-161059630D02*
X198731664Y-161058596D01*
X175380000Y-125300000D02*
X193551532Y-121912002D01*
X204759461Y-159178684D02*
X204510018Y-159183953D01*
X189378161Y-157001833D02*
X189496962Y-156977501D01*
X195300332Y-160624279D02*
X190880000Y-159420000D01*
X198979448Y-161052603D02*
X199227063Y-161041654D01*
X197493674Y-161014192D02*
X197740818Y-161032981D01*
X197246957Y-160990462D02*
X197493674Y-161014192D01*
X190982896Y-156938040D02*
X191228918Y-156954368D01*
X264292749Y-157094175D02*
X264125967Y-157264112D01*
X265350068Y-150279631D02*
X265474046Y-150726278D01*
X192206506Y-157081767D02*
X192448495Y-157129037D01*
X261627888Y-159390287D02*
X261316157Y-159561261D01*
X193166197Y-157307386D02*
X193402165Y-157378887D01*
X190490008Y-156924100D02*
X190736540Y-156927948D01*
X260336033Y-159979839D02*
X259996965Y-160086800D01*
X261316157Y-159561261D02*
X260996423Y-159716753D01*
X260996423Y-159716753D02*
X260669453Y-159856391D01*
X259996965Y-160086800D02*
X259653063Y-160177018D01*
X262780122Y-158560337D02*
X262507677Y-158788770D01*
X264125967Y-157264112D02*
X263041048Y-158318830D01*
X264451371Y-156916598D02*
X264292749Y-157094175D01*
X263797168Y-147455460D02*
X264087451Y-147816846D01*
X265706145Y-152561903D02*
X265697241Y-153025352D01*
X263156272Y-146786143D02*
X263486427Y-147111507D01*
X265110507Y-155928334D02*
X264997547Y-156137940D01*
X264742754Y-156540102D02*
X264601483Y-156731771D01*
X189143689Y-157063685D02*
X189260349Y-157030574D01*
X189028344Y-157101120D02*
X189143689Y-157063685D01*
X188914474Y-157142826D02*
X189028344Y-157101120D01*
X191719326Y-157005685D02*
X191963398Y-157040641D01*
X188270911Y-157479118D02*
X183480000Y-160710000D01*
X265611140Y-154346250D02*
X265571889Y-154581099D01*
X265213505Y-155713657D02*
X265110507Y-155928334D01*
X265200409Y-149840921D02*
X265350068Y-150279631D01*
X265025574Y-149411624D02*
X265200409Y-149840921D01*
X265474046Y-150726278D02*
X265571927Y-151179359D01*
X188802237Y-157188745D02*
X188914474Y-157142826D01*
X262224364Y-159003577D02*
X261930867Y-159204244D01*
X191228918Y-156954368D02*
X191474447Y-156976921D01*
X264997547Y-156137940D02*
X264874872Y-156342012D01*
X188691789Y-157238815D02*
X188802237Y-157188745D01*
X265388723Y-155270992D02*
X265306311Y-155494382D01*
X188583283Y-157292965D02*
X188691789Y-157238815D01*
X188476870Y-157351120D02*
X188583283Y-157292965D01*
X259653063Y-160177018D02*
X259305153Y-160250275D01*
X265643383Y-151637353D02*
X265688172Y-152098718D01*
X188372697Y-157413199D02*
X188476870Y-157351120D01*
X193868290Y-157539701D02*
X194098149Y-157628909D01*
X262507677Y-158788770D02*
X262224364Y-159003577D01*
X190736540Y-156927948D02*
X190982896Y-156938040D01*
X265460558Y-155043980D02*
X265388723Y-155270992D01*
X260669453Y-159856391D02*
X260336033Y-159979839D01*
X261930867Y-159204244D02*
X261627888Y-159390287D01*
X264602808Y-148587002D02*
X264826151Y-148993181D01*
X264601483Y-156731771D02*
X264451371Y-156916598D01*
X264826151Y-148993181D02*
X265025574Y-149411624D01*
X264356299Y-148194450D02*
X264602808Y-148587002D01*
X264087451Y-147816846D02*
X264356299Y-148194450D01*
X188270911Y-157479118D02*
X188372697Y-157413199D01*
X191963398Y-157040641D02*
X192206506Y-157081767D01*
X263486427Y-147111507D02*
X263797168Y-147455460D01*
X260740000Y-144770000D02*
X262807814Y-146480464D01*
X264874872Y-156342012D02*
X264742754Y-156540102D01*
X192448495Y-157129037D02*
X192689210Y-157182420D01*
X194098149Y-157628909D02*
X194325675Y-157723910D01*
X193402165Y-157378887D02*
X193636246Y-157456342D01*
X193636246Y-157456342D02*
X193868290Y-157539701D01*
X192928495Y-157241882D02*
X193166197Y-157307386D01*
X192689210Y-157182420D02*
X192928495Y-157241882D01*
X191474447Y-156976921D02*
X191719326Y-157005685D01*
X262807814Y-146480464D02*
X263156272Y-146786143D01*
X261617577Y-155849763D02*
X261686556Y-155629903D01*
X261214135Y-156676172D02*
X261333442Y-156479037D01*
X260941142Y-157047210D02*
X261083211Y-156865791D01*
X265639323Y-154109817D02*
X265611140Y-154346250D01*
X265571927Y-151179359D02*
X265643383Y-151637353D01*
X258245771Y-160366730D02*
X257890256Y-160370800D01*
X258226260Y-158540019D02*
X258405028Y-158505511D01*
X258046346Y-158567942D02*
X258226260Y-158540019D01*
X257183375Y-145649971D02*
X257311313Y-145981638D01*
X256899165Y-144622968D02*
X256977052Y-144969817D01*
X257071865Y-145312427D02*
X257183375Y-145649971D01*
X258758164Y-158416937D02*
X258932056Y-158362990D01*
X263041048Y-158318830D02*
X262780122Y-158560337D01*
X258405028Y-158505511D02*
X258582409Y-158464465D01*
X257311313Y-145981638D02*
X257455370Y-146306627D01*
X261827503Y-154721139D02*
X261872496Y-153388860D01*
X261784350Y-155179758D02*
X261812814Y-154951096D01*
X261333442Y-156479037D02*
X261440702Y-156275097D01*
X265571889Y-154581099D02*
X265521659Y-154813847D01*
X256768724Y-143565379D02*
X256794875Y-143919902D01*
X265306311Y-155494382D02*
X265213505Y-155713657D01*
X261742214Y-155406299D02*
X261784350Y-155179758D01*
X265688172Y-152098718D02*
X265706145Y-152561903D01*
X261440702Y-156275097D02*
X261535527Y-156065086D01*
X258582409Y-158464465D02*
X258758164Y-158416937D01*
X258954071Y-160306396D02*
X258600661Y-160345245D01*
X261686556Y-155629903D02*
X261742214Y-155406299D01*
X258636197Y-148073859D02*
X258881320Y-148331320D01*
X258185297Y-147524435D02*
X258404003Y-147804682D01*
X259103852Y-158302698D02*
X259273319Y-158236141D01*
X261083211Y-156865791D02*
X261214135Y-156676172D01*
X256838390Y-144272716D02*
X256899165Y-144622968D01*
X260788440Y-157219775D02*
X260941142Y-157047210D01*
X265697241Y-153025352D02*
X265656378Y-153872323D01*
X256794875Y-143919902D02*
X256838390Y-144272716D01*
X265656378Y-153872323D02*
X265639323Y-154109817D01*
X265521659Y-154813847D02*
X265460558Y-155043980D01*
X259305153Y-160250275D02*
X258954071Y-160306396D01*
X258600661Y-160345245D02*
X258245771Y-160366730D01*
X259923387Y-157909186D02*
X260077860Y-157812817D01*
X257890256Y-160370800D02*
X210870000Y-160410000D01*
X258932056Y-158362990D02*
X259103852Y-158302698D01*
X258881320Y-148331320D02*
X260525786Y-149975786D01*
X258404003Y-147804682D02*
X258636197Y-148073859D01*
X257980604Y-147233795D02*
X258185297Y-147524435D01*
X257790420Y-146933461D02*
X257980604Y-147233795D01*
X257615201Y-146624156D02*
X257790420Y-146933461D01*
X257455370Y-146306627D02*
X257615201Y-146624156D01*
X256977052Y-144969817D02*
X257071865Y-145312427D01*
X256760000Y-143210000D02*
X256768724Y-143565379D01*
X257865528Y-158589244D02*
X258046346Y-158567942D01*
X256760000Y-143210000D02*
X256760000Y-140080000D01*
X260077860Y-157812817D02*
X260082852Y-157809575D01*
X257502157Y-158611877D02*
X257684050Y-158603896D01*
X257684050Y-158603896D02*
X257865528Y-158589244D01*
X259765482Y-157999821D02*
X259923387Y-157909186D01*
X259604357Y-158084600D02*
X259765482Y-157999821D01*
X257320094Y-158613177D02*
X214240000Y-158130000D01*
X259273319Y-158236141D02*
X259440229Y-158163409D01*
X257320094Y-158613177D02*
X257502157Y-158611877D01*
X259440229Y-158163409D02*
X259604357Y-158084600D01*
X261535527Y-156065086D02*
X261617577Y-155849763D01*
X261812814Y-154951096D02*
X261827503Y-154721139D01*
X216600000Y-153360000D02*
X221500000Y-153860000D01*
X158750000Y-110970000D02*
X158680000Y-124260000D01*
X160749631Y-141034050D02*
X160749631Y-132510369D01*
X216430000Y-131060000D02*
X217390000Y-130360000D01*
X209880000Y-126420000D02*
X211530000Y-130520000D01*
X194260000Y-141670000D02*
X194150000Y-141780000D01*
X158680000Y-124260000D02*
X160750000Y-132510000D01*
X166020000Y-69483143D02*
X166029468Y-69492611D01*
X218160000Y-136370000D02*
X219160000Y-135900000D01*
X261244453Y-150906756D02*
X261120179Y-150706320D01*
X216922890Y-136761022D02*
X218160000Y-136370000D01*
X209880000Y-126420000D02*
X212830116Y-124738576D01*
X261120179Y-150706320D02*
X260985810Y-150512507D01*
X261872496Y-153388860D02*
X261874419Y-153153032D01*
X261874419Y-153153032D02*
X261864273Y-152917414D01*
X162910000Y-68740000D02*
X166020000Y-67990000D01*
X226407051Y-133545291D02*
X227392864Y-136613644D01*
X261461443Y-151325377D02*
X261358307Y-151113289D01*
X261553589Y-151542466D02*
X261461443Y-151325377D01*
X160750000Y-132510000D02*
X165950000Y-133760000D01*
X159820000Y-147840000D02*
X160749631Y-141034050D01*
X189590000Y-146090000D02*
X191995958Y-140434005D01*
X188899840Y-128780160D02*
X190110000Y-132070000D01*
X261842082Y-152682625D02*
X261807904Y-152449278D01*
X178685995Y-148685958D02*
X183610000Y-147620000D01*
X165740000Y-95980000D02*
X170600000Y-95980000D01*
X224429962Y-127443952D02*
X225449962Y-130373952D01*
X167206058Y-149142361D02*
X168670000Y-143840000D01*
X217741445Y-139165511D02*
X220050000Y-138650000D01*
X260625656Y-157382863D02*
X260788440Y-157219775D01*
X159330000Y-81970000D02*
X159310000Y-97910000D01*
X183610000Y-147620000D02*
X189590000Y-146090000D01*
X173646857Y-69692080D02*
X173500000Y-67630000D01*
X215285781Y-131952044D02*
X216430000Y-131060000D01*
X260453378Y-157535887D02*
X260625656Y-157382863D01*
X260272225Y-157678295D02*
X260453378Y-157535887D01*
X260082852Y-157809575D02*
X260272225Y-157678295D01*
X173500000Y-67630000D02*
X173520000Y-66670000D01*
X260688224Y-150146760D02*
X260525786Y-149975786D01*
X260841699Y-150325824D02*
X260688224Y-150146760D01*
X260985810Y-150512507D02*
X260841699Y-150325824D01*
X261761830Y-152217987D02*
X261703980Y-151989356D01*
X261634506Y-151763986D02*
X261553589Y-151542466D01*
X174180000Y-118130000D02*
X178088468Y-121162002D01*
X170600000Y-95980000D02*
X170930000Y-95650000D01*
X261864273Y-152917414D02*
X261842082Y-152682625D01*
X166020000Y-67820000D02*
X166020000Y-69483143D01*
X160749631Y-132510369D02*
X160750000Y-132510000D01*
X194260000Y-135840000D02*
X194260000Y-141670000D01*
X225449962Y-130373952D02*
X226407051Y-133545291D01*
X159820000Y-147840000D02*
X160564890Y-153318869D01*
X211530000Y-130520000D02*
X214467226Y-129547554D01*
X206900000Y-121980000D02*
X209880000Y-126420000D01*
X261703980Y-151989356D02*
X261634506Y-151763986D01*
X261807904Y-152449278D02*
X261761830Y-152217987D01*
X161360000Y-72160000D02*
X159330000Y-81970000D01*
X166020000Y-66670000D02*
X166020000Y-67820000D01*
X163170000Y-141660000D02*
X168670000Y-143840000D01*
X261358307Y-151113289D02*
X261244453Y-150906756D01*
X161600000Y-106070000D02*
X158750000Y-110970000D01*
X216104335Y-134356533D02*
X217280000Y-133760000D01*
X217280000Y-133760000D02*
X218410000Y-133290000D01*
X159310000Y-97910000D02*
X161600000Y-106070000D01*
X188760000Y-128400000D02*
X188899840Y-128780160D01*
X205419962Y-135293952D02*
X208072313Y-134407708D01*
X177270000Y-140230000D02*
X174873560Y-139415043D01*
X198380000Y-138210000D02*
X199310000Y-141470000D01*
X204979999Y-150776035D02*
X207750000Y-147640000D01*
X196590000Y-128900000D02*
X196590000Y-131670000D01*
X174390000Y-158260000D02*
X169590000Y-155670000D01*
X170850000Y-148860000D02*
X170883860Y-147903840D01*
X170990000Y-77324720D02*
X170908259Y-77242979D01*
X166850000Y-141070000D02*
X170630000Y-140920000D01*
X183194700Y-130714700D02*
X182880000Y-130400000D01*
X170630000Y-140920000D02*
X173001930Y-146501920D01*
X173001930Y-146501930D02*
X177340000Y-150840000D01*
X177340000Y-150840000D02*
X179130000Y-151650000D01*
X196530000Y-131730000D02*
X197320000Y-135010000D01*
X203954700Y-130015873D02*
X206435203Y-129598730D01*
X182990000Y-136970000D02*
X175770000Y-136250000D01*
X175994005Y-152994042D02*
X178260000Y-154380000D01*
X207345442Y-141580667D02*
X209709423Y-139216686D01*
X205550295Y-146370000D02*
X210527978Y-141621175D01*
X166160000Y-89520000D02*
X170080000Y-90400000D01*
X181820000Y-145290000D02*
X184446884Y-139050646D01*
X167370000Y-152570000D02*
X167206058Y-149142361D01*
X165950000Y-133760000D02*
X173820000Y-132820000D01*
X175050000Y-128150000D02*
X173820000Y-132820000D01*
X212120000Y-152490000D02*
X209949704Y-148910000D01*
X190110000Y-132070000D02*
X189830000Y-138320000D01*
X189830000Y-138320000D02*
X189841916Y-139088010D01*
X200250000Y-144680000D02*
X205550295Y-146370000D01*
X177270000Y-140230000D02*
X179308177Y-141476360D01*
X184290000Y-149700000D02*
X188000000Y-150320000D01*
X199310000Y-141470000D02*
X193560000Y-145700000D01*
X196590000Y-131670000D02*
X196530000Y-131730000D01*
X204607042Y-132782128D02*
X207253758Y-132003219D01*
X175770000Y-136250000D02*
X177270000Y-140230000D01*
X190110000Y-132070000D02*
X189160000Y-134870000D01*
X189160000Y-134870000D02*
X187867013Y-142701161D01*
X190110000Y-132070000D02*
X185903768Y-141131292D01*
X161360000Y-72160000D02*
X173270000Y-73890000D01*
X173270000Y-73890000D02*
X173447389Y-77309468D01*
X165830000Y-77110000D02*
X163640000Y-81240000D01*
X170990000Y-83140000D02*
X170990000Y-77324720D01*
X191630000Y-119340000D02*
X184260000Y-119050000D01*
X193560000Y-145700000D02*
X192658854Y-152010541D01*
X161207450Y-89854611D02*
X166160000Y-89520000D01*
X165740000Y-95980000D02*
X165740000Y-96139894D01*
X214240000Y-158130000D02*
X212120000Y-152490000D01*
X165740000Y-96139894D02*
X163249270Y-98630624D01*
X175120000Y-145100000D02*
X181820000Y-145290000D01*
X170989973Y-151440600D02*
X170850000Y-148860000D01*
X179130000Y-151650000D02*
X184290000Y-149700000D01*
X209949704Y-148910000D02*
X211346533Y-144025665D01*
X197500000Y-148330000D02*
X196800000Y-147630000D01*
X209120001Y-154813965D02*
X205170000Y-155670000D01*
X165760000Y-136640000D02*
X173240670Y-136919851D01*
X173001930Y-146501920D02*
X173001930Y-146501930D01*
X197320000Y-135010000D02*
X198380000Y-138210000D01*
X189040000Y-153430000D02*
X194150000Y-141780000D01*
X207211216Y-141580667D02*
X207345442Y-141580667D01*
X183194700Y-134535873D02*
X183194700Y-130714700D01*
X197500000Y-152230000D02*
X197500000Y-148330000D01*
X206216065Y-138249649D02*
X208890868Y-136812197D01*
X178260000Y-154380000D02*
X181606048Y-153880038D01*
X186396048Y-153670038D02*
X189040000Y-153430000D01*
X184446884Y-139050646D02*
X187356214Y-132909517D01*
X174390000Y-158260000D02*
X178690000Y-160920000D01*
X163833895Y-160170590D02*
X168807182Y-160170590D01*
X169590000Y-155670000D02*
X167370000Y-152570000D01*
X178690000Y-160920000D02*
X183480000Y-160710000D01*
X168807182Y-160170590D02*
X168954287Y-160023485D01*
X180615701Y-119419408D02*
X180611396Y-119169790D01*
X183441626Y-104303355D02*
X182930000Y-106700000D01*
X193408130Y-106276776D02*
X194090000Y-103370000D01*
X192636801Y-98068312D02*
X192396570Y-98308543D01*
X184016035Y-114679999D02*
X187132337Y-115485496D01*
X180640633Y-120167945D02*
X180630320Y-119918502D01*
X264830323Y-94881863D02*
X264850042Y-94643605D01*
X188424878Y-105290066D02*
X188390000Y-107970000D01*
X187132337Y-115485496D02*
X190365390Y-115814810D01*
X180622009Y-119668985D02*
X180615701Y-119419408D01*
X180611396Y-119169790D02*
X180609095Y-118920145D01*
X180630320Y-119918502D02*
X180622009Y-119668985D01*
X264850042Y-94643605D02*
X265860000Y-64370000D01*
X190916504Y-105783421D02*
X191360000Y-108260000D01*
X180662796Y-116923959D02*
X180678517Y-116674798D01*
X179510000Y-108390000D02*
X181030000Y-110670000D01*
X180893644Y-114042864D02*
X184016035Y-114679999D01*
X180609095Y-118920145D02*
X180608797Y-118670489D01*
X180637357Y-117422618D02*
X180649076Y-117173237D01*
X198391383Y-107263487D02*
X198550000Y-103900000D01*
X181030000Y-110670000D02*
X195510000Y-112610000D01*
X180627640Y-117672084D02*
X180637357Y-117422618D01*
X264758837Y-95354511D02*
X264799901Y-95118992D01*
X192636801Y-95654235D02*
X192636801Y-98068312D01*
X198279643Y-96884814D02*
X197379822Y-99295253D01*
X195415873Y-96204700D02*
X194888196Y-98801898D01*
X264799901Y-95118992D02*
X264830323Y-94881863D01*
X265410000Y-58360000D02*
X259887014Y-56652986D01*
X180608797Y-118670489D02*
X180610503Y-118420839D01*
X257341302Y-126943321D02*
X259510296Y-121540000D01*
X180640633Y-120167945D02*
X180723608Y-121997072D01*
X180715954Y-116176897D02*
X180893644Y-114042864D01*
X180678517Y-116674798D02*
X180696236Y-116425772D01*
X180614212Y-118171211D02*
X180619924Y-117921621D01*
X180619924Y-117921621D02*
X180627640Y-117672084D01*
X185933252Y-104796711D02*
X185470000Y-107200000D01*
X180610503Y-118420839D02*
X180614212Y-118171211D01*
X180696236Y-116425772D02*
X180715954Y-116176897D01*
X180649076Y-117173237D02*
X180662796Y-116923959D01*
X214770684Y-67172426D02*
X214701953Y-67276485D01*
X214267123Y-67885281D02*
X214190985Y-67984050D01*
X210871424Y-65317595D02*
X213280000Y-64530000D01*
X210541764Y-65414160D02*
X210206742Y-65490062D01*
X190659333Y-57058784D02*
X212210000Y-57940000D01*
X199893104Y-59013387D02*
X205072558Y-60608580D01*
X208157293Y-65500795D02*
X207821495Y-65428406D01*
X202421339Y-62378262D02*
X202649619Y-62474401D01*
X206542399Y-64935641D02*
X206244827Y-64764026D01*
X207166612Y-65221829D02*
X206850057Y-65088438D01*
X214113821Y-68082020D02*
X214035639Y-68179180D01*
X208496940Y-65552184D02*
X208157293Y-65500795D01*
X203099954Y-62680774D02*
X203321816Y-62790918D01*
X208839122Y-65582375D02*
X208496940Y-65552184D01*
X204185012Y-63276755D02*
X204394284Y-63409268D01*
X203541347Y-62905639D02*
X203758452Y-63024886D01*
X214342227Y-67785723D02*
X214267123Y-67885281D01*
X202191115Y-62286876D02*
X202421339Y-62378262D01*
X213795076Y-68465695D02*
X210925291Y-71777051D01*
X205202567Y-63981827D02*
X205397002Y-64135286D01*
X214970317Y-66856027D02*
X217293644Y-63042864D01*
X205684496Y-64367070D02*
X205397002Y-64135286D01*
X213956449Y-68275519D02*
X213876258Y-68371027D01*
X214701953Y-67276485D02*
X214632140Y-67379822D01*
X206850057Y-65088438D02*
X206542399Y-64935641D01*
X209867653Y-65545006D02*
X209525805Y-65578779D01*
X210871424Y-65317595D02*
X210541764Y-65414160D01*
X203758452Y-63024886D02*
X203973038Y-63148609D01*
X204600764Y-63546091D02*
X204804362Y-63687166D01*
X204804362Y-63687166D02*
X205004992Y-63832432D01*
X204394284Y-63409268D02*
X204600764Y-63546091D01*
X203973038Y-63148609D02*
X204185012Y-63276755D01*
X214190985Y-67984050D02*
X214113821Y-68082020D01*
X214904873Y-66962185D02*
X214838327Y-67067655D01*
X214416289Y-67685387D02*
X214342227Y-67785723D01*
X189939655Y-95154919D02*
X189939655Y-97780476D01*
X201959046Y-62200284D02*
X200136552Y-61541694D01*
X205958490Y-64574258D02*
X205684496Y-64367070D01*
X185798926Y-54838829D02*
X219330000Y-55700000D01*
X206244827Y-64764026D02*
X205958490Y-64574258D01*
X202649619Y-62474401D02*
X202875856Y-62575253D01*
X207821495Y-65428406D02*
X207490843Y-65335298D01*
X189939655Y-97780476D02*
X189904944Y-97815187D01*
X186659655Y-94024919D02*
X187413318Y-97321832D01*
X214838327Y-67067655D02*
X214770684Y-67172426D01*
X183250000Y-89890000D02*
X184921692Y-96828477D01*
X200380000Y-89560000D02*
X203400000Y-89850000D01*
X197130000Y-88780000D02*
X200380000Y-89560000D01*
X190670000Y-87570000D02*
X193960000Y-88150000D01*
X207490843Y-65335298D02*
X207166612Y-65221829D01*
X209182520Y-65591252D02*
X208839122Y-65582375D01*
X201959046Y-62200284D02*
X202191115Y-62286876D01*
X205004992Y-63832432D02*
X205202567Y-63981827D01*
X214561253Y-67482426D02*
X214489300Y-67584284D01*
X203321816Y-62790918D02*
X203541347Y-62905639D01*
X202875856Y-62575253D02*
X203099954Y-62680774D01*
X214489300Y-67584284D02*
X214416289Y-67685387D01*
X214632140Y-67379822D02*
X214561253Y-67482426D01*
X214970317Y-66856027D02*
X214904873Y-66962185D01*
X210206742Y-65490062D02*
X209867653Y-65545006D01*
X214035639Y-68179180D02*
X213956449Y-68275519D01*
X193960000Y-88150000D02*
X197130000Y-88780000D01*
X209525805Y-65578779D02*
X209182520Y-65591252D01*
X213876258Y-68371027D02*
X213795076Y-68465695D01*
X232894856Y-118344945D02*
X232714804Y-118360096D01*
X231992942Y-118346561D02*
X231813585Y-118324670D01*
X227758740Y-114847526D02*
X227823224Y-115072811D01*
X232353595Y-118368164D02*
X232173047Y-118361067D01*
X228596543Y-116508645D02*
X228749163Y-116686461D01*
X237718969Y-116617157D02*
X237526200Y-116766872D01*
X230441463Y-117890720D02*
X230282136Y-117805498D01*
X229642662Y-117439134D02*
X229843817Y-117559336D01*
X228749163Y-116686461D02*
X228911127Y-116855811D01*
X234422028Y-118120703D02*
X234181153Y-118160114D01*
X219870994Y-149980994D02*
X228109881Y-149998396D01*
X231813585Y-118324670D02*
X231635278Y-118295432D01*
X236919584Y-117176493D02*
X236708684Y-117299356D01*
X230282136Y-117805498D02*
X229843817Y-117559336D01*
X236708684Y-117299356D02*
X236493820Y-117415149D01*
X218844957Y-78903560D02*
X226170000Y-81990000D01*
X216888204Y-123109150D02*
X216888204Y-123050363D01*
X228911127Y-116855811D02*
X229081965Y-117016204D01*
X228087903Y-115723346D02*
X228199019Y-115929658D01*
X216888204Y-123050363D02*
X220004397Y-119934170D01*
X235134951Y-117954830D02*
X234899190Y-118018004D01*
X223990000Y-140570000D02*
X218930000Y-124620000D01*
X253640000Y-119130000D02*
X257310591Y-120270000D01*
X236275230Y-117523743D02*
X236053155Y-117625019D01*
X226967371Y-147584247D02*
X230600000Y-148040000D01*
X226967371Y-147584247D02*
X231036925Y-144745874D01*
X227899733Y-115294301D02*
X227988044Y-115511356D01*
X229261184Y-117167175D02*
X229448263Y-117308288D01*
X227706467Y-114619099D02*
X227758740Y-114847526D01*
X228453708Y-116322877D02*
X228596543Y-116508645D01*
X227988044Y-115511356D02*
X228087903Y-115723346D01*
X219870994Y-149980994D02*
X220697261Y-149982739D01*
X234661462Y-118073316D02*
X234422028Y-118120703D01*
X232714804Y-118360096D02*
X232534283Y-118367840D01*
X220697261Y-149982739D02*
X226967371Y-147584247D01*
X234899190Y-118018004D02*
X234661462Y-118073316D01*
X229448263Y-117308288D02*
X229642662Y-117439134D01*
X228321072Y-116129695D02*
X228453708Y-116322877D01*
X219400000Y-149980000D02*
X219870994Y-149980994D01*
X237718969Y-116617157D02*
X240461557Y-114413120D01*
X235827840Y-117718865D02*
X235599532Y-117805177D01*
X228199019Y-115929658D02*
X228321072Y-116129695D01*
X233074134Y-118322413D02*
X232894856Y-118344945D01*
X234181153Y-118160114D02*
X233074134Y-118322413D01*
X235368484Y-117883861D02*
X235134951Y-117954830D01*
X235599532Y-117805177D02*
X235368484Y-117883861D01*
X227706467Y-114619099D02*
X226491903Y-108567151D01*
X236493820Y-117415149D02*
X236275230Y-117523743D01*
X231283017Y-118215124D02*
X231109657Y-118164189D01*
X229081965Y-117016204D02*
X229261184Y-117167175D01*
X231635278Y-118295432D02*
X231458323Y-118258897D01*
X232173047Y-118361067D02*
X231992942Y-118346561D01*
X227823224Y-115072811D02*
X227899733Y-115294301D01*
X236053155Y-117625019D02*
X235827840Y-117718865D01*
X240921729Y-119211729D02*
X248497066Y-116176519D01*
X237126287Y-117046694D02*
X236919584Y-117176493D01*
X237328567Y-116910104D02*
X237126287Y-117046694D01*
X231458323Y-118258897D02*
X231283017Y-118215124D01*
X230938535Y-118106177D02*
X230769940Y-118041187D01*
X232534283Y-118367840D02*
X232353595Y-118368164D01*
X230769940Y-118041187D02*
X230604156Y-117969328D01*
X231109657Y-118164189D02*
X230938535Y-118106177D01*
X237526200Y-116766872D02*
X237328567Y-116910104D01*
X230604156Y-117969328D02*
X230441463Y-117890720D01*
X242544919Y-134569655D02*
X234300000Y-126890000D01*
X232409780Y-123514612D02*
X232426871Y-123743075D01*
X232483193Y-122603362D02*
X232443660Y-122829026D01*
X227591545Y-119087808D02*
X227813881Y-119172260D01*
X226553423Y-118513293D02*
X226749658Y-118647669D01*
X232760000Y-138080000D02*
X236590000Y-139500000D01*
X243303095Y-138911626D02*
X243244469Y-138803488D01*
X242674228Y-138003844D02*
X233821543Y-128082310D01*
X225387352Y-117335557D02*
X225528997Y-117526611D01*
X226749658Y-118647669D02*
X226952051Y-118772580D01*
X227392864Y-136613644D02*
X233780000Y-131910000D01*
X243182916Y-138696988D02*
X243118483Y-138592206D01*
X233055443Y-125445070D02*
X233190951Y-125629800D01*
X232760000Y-138080000D02*
X234960000Y-135300000D01*
X232721044Y-124845609D02*
X232820038Y-125052219D01*
X227813881Y-119172260D02*
X228039974Y-119246063D01*
X226181180Y-118217373D02*
X226363788Y-118369753D01*
X233110000Y-120280000D02*
X240921729Y-119211729D01*
X243507503Y-139358937D02*
X243460994Y-139245061D01*
X233190951Y-125629800D02*
X233337647Y-125805777D01*
X243051218Y-138489219D02*
X242981170Y-138388104D01*
X232406883Y-123285529D02*
X232409780Y-123514612D01*
X243591124Y-139590281D02*
X243550890Y-139474039D01*
X243244469Y-138803488D02*
X243182916Y-138696988D01*
X232536639Y-122380582D02*
X233110000Y-120280000D01*
X225838676Y-117887488D02*
X226006011Y-118056498D01*
X240921729Y-119211729D02*
X241300000Y-119160000D01*
X232443660Y-122829026D02*
X232418191Y-123056707D01*
X226363788Y-118369753D02*
X226553423Y-118513293D01*
X233337647Y-125805777D02*
X234300000Y-126890000D01*
X232820038Y-125052219D02*
X232931647Y-125252296D01*
X226090000Y-124520000D02*
X227820000Y-127160000D01*
X243628175Y-139707577D02*
X243759613Y-140144329D01*
X232931647Y-125252296D02*
X233055443Y-125445070D01*
X226006011Y-118056498D02*
X226181180Y-118217373D01*
X232635048Y-124633260D02*
X232721044Y-124845609D01*
X228501390Y-119361083D02*
X233110000Y-120280000D01*
X232562379Y-124415989D02*
X232635048Y-124633260D01*
X227160144Y-118887742D02*
X227373469Y-118992897D01*
X228810000Y-140180000D02*
X232760000Y-138080000D01*
X225528997Y-117526611D02*
X225679551Y-117710727D01*
X232503318Y-124194632D02*
X232562379Y-124415989D01*
X227820000Y-127160000D02*
X230050000Y-129400000D01*
X232458090Y-123970039D02*
X232503318Y-124194632D01*
X232426871Y-123743075D02*
X232458090Y-123970039D01*
X232418191Y-123056707D02*
X232406883Y-123285529D01*
X232536639Y-122380582D02*
X232483193Y-122603362D01*
X228269316Y-119309051D02*
X228501390Y-119361083D01*
X228039974Y-119246063D02*
X228269316Y-119309051D01*
X227373469Y-118992897D02*
X227591545Y-119087808D01*
X226952051Y-118772580D02*
X227160144Y-118887742D01*
X242754864Y-138096734D02*
X242674228Y-138003844D01*
X243550890Y-139474039D02*
X243507503Y-139358937D01*
X242908393Y-138288936D02*
X242832938Y-138191788D01*
X243118483Y-138592206D02*
X243051218Y-138489219D01*
X242832938Y-138191788D02*
X242754864Y-138096734D01*
X243460994Y-139245061D02*
X243411398Y-139132495D01*
X225679551Y-117710727D02*
X225838676Y-117887488D01*
X225387352Y-117335557D02*
X220870000Y-110930000D01*
X241300000Y-119160000D02*
X248296272Y-118583687D01*
X242981170Y-138388104D02*
X242908393Y-138288936D01*
X243358752Y-139021322D02*
X243303095Y-138911626D01*
X243411398Y-139132495D02*
X243358752Y-139021322D01*
X243628175Y-139707577D02*
X243591124Y-139590281D01*
X244607970Y-149536731D02*
X244381524Y-149807787D01*
X246299226Y-140188658D02*
X249560000Y-146970000D01*
X243622335Y-150545596D02*
X243344922Y-150764208D01*
X232272818Y-126453982D02*
X232449976Y-126629997D01*
X231551875Y-125762576D02*
X231733940Y-125933512D01*
X239736928Y-150616004D02*
X239528978Y-150738225D01*
X243056553Y-150968150D02*
X242710000Y-151200000D01*
X231368606Y-125592933D02*
X231551875Y-125762576D01*
X231184142Y-125424589D02*
X231368606Y-125592933D01*
X246176185Y-156072031D02*
X249914852Y-153680829D01*
X240866066Y-149716222D02*
X240693554Y-149884807D01*
X246002756Y-146334361D02*
X246065263Y-145924936D01*
X238877909Y-151053138D02*
X238652995Y-151140287D01*
X240137170Y-150346865D02*
X239939769Y-150485480D01*
X230998493Y-125257555D02*
X226944170Y-121635603D01*
X245017232Y-148961261D02*
X244820063Y-149254303D01*
X252474797Y-145180066D02*
X255470000Y-150730000D01*
X241483932Y-148976464D02*
X243530000Y-146080000D01*
X244381524Y-149807787D02*
X244141333Y-150066741D01*
X245940417Y-146682014D02*
X245860144Y-147025969D01*
X251730396Y-143884569D02*
X251922953Y-144204694D01*
X233654620Y-127896559D02*
X233821543Y-128082310D01*
X233486388Y-127711994D02*
X233654620Y-127896559D01*
X229510119Y-154881605D02*
X238648395Y-154881605D01*
X233316855Y-127528622D02*
X233486388Y-127711994D01*
X252111228Y-144527357D02*
X252295187Y-144852500D01*
X238424744Y-151218278D02*
X237359023Y-151558524D01*
X243344922Y-150764208D02*
X243056553Y-150968150D01*
X233146029Y-127346454D02*
X233316855Y-127528622D01*
X232973920Y-127165499D02*
X233146029Y-127346454D01*
X240693554Y-149884807D02*
X240514371Y-150046283D01*
X241340809Y-149170621D02*
X241189958Y-149358837D01*
X245198947Y-148658394D02*
X245017232Y-148961261D01*
X249914852Y-153680829D02*
X253427442Y-153535614D01*
X252295187Y-144852500D02*
X252474797Y-145180066D01*
X232800536Y-126985765D02*
X232973920Y-127165499D01*
X232625885Y-126807261D02*
X232800536Y-126985765D01*
X232449976Y-126629997D02*
X232625885Y-126807261D01*
X232094420Y-126279223D02*
X232272818Y-126453982D01*
X239939769Y-150485480D02*
X239736928Y-150616004D01*
X245514105Y-148026463D02*
X245364720Y-148346515D01*
X231733940Y-125933512D02*
X231914791Y-126105730D01*
X231914791Y-126105730D02*
X232094420Y-126279223D01*
X239099117Y-150956970D02*
X238877909Y-151053138D01*
X238652995Y-151140287D02*
X238424744Y-151218278D01*
X240328809Y-150200386D02*
X240137170Y-150346865D01*
X241031624Y-149540803D02*
X240866066Y-149716222D01*
X241189958Y-149358837D02*
X241031624Y-149540803D01*
X245860144Y-147025969D02*
X245762150Y-147365302D01*
X239316258Y-150851942D02*
X239099117Y-150956970D01*
X244820063Y-149254303D02*
X244607970Y-149536731D01*
X241483932Y-148976464D02*
X241340809Y-149170621D01*
X245364720Y-148346515D02*
X245198947Y-148658394D01*
X245762150Y-147365302D02*
X245646701Y-147699099D01*
X246002756Y-146334361D02*
X245940417Y-146682014D01*
X245646701Y-147699099D02*
X245514105Y-148026463D01*
X244141333Y-150066741D02*
X243888043Y-150312898D01*
X230998493Y-125257555D02*
X231184142Y-125424589D01*
X238648395Y-154881605D02*
X238650000Y-154880000D01*
X243759613Y-140144329D02*
X243530000Y-146080000D01*
X251922953Y-144204694D02*
X252111228Y-144527357D01*
X239528978Y-150738225D02*
X239316258Y-150851942D01*
X243888043Y-150312898D02*
X243622335Y-150545596D01*
X240514371Y-150046283D02*
X240328809Y-150200386D01*
X264576939Y-135623150D02*
X264591984Y-135381783D01*
X264650833Y-115034284D02*
X264667442Y-115270564D01*
X263684560Y-138357037D02*
X263806776Y-138148356D01*
X249577149Y-140835149D02*
X249810533Y-141126852D01*
X263806776Y-138148356D02*
X263920769Y-137935073D01*
X263554309Y-138560799D02*
X263684560Y-138357037D01*
X249339899Y-140546581D02*
X249577149Y-140835149D01*
X249098825Y-140261202D02*
X245690000Y-136280000D01*
X264597616Y-135140014D02*
X264672383Y-115507376D01*
X264552503Y-135863748D02*
X264576939Y-135623150D01*
X264123413Y-137496001D02*
X264211755Y-137270879D01*
X264214737Y-113442971D02*
X264310337Y-113659685D01*
X264026368Y-137717511D02*
X264123413Y-137496001D01*
X263729355Y-112630971D02*
X263865581Y-112824740D01*
X256760000Y-140080000D02*
X262140000Y-140520000D01*
X253577657Y-129843627D02*
X253742716Y-129679045D01*
X261710000Y-122810000D02*
X262339468Y-132902611D01*
X263429092Y-112264743D02*
X263583740Y-112444154D01*
X251533589Y-143567038D02*
X251730396Y-143884569D01*
X251332569Y-143252158D02*
X251533589Y-143567038D01*
X264361810Y-136811171D02*
X264423295Y-136577282D01*
X251127370Y-142939985D02*
X251332569Y-143252158D01*
X253427442Y-153535614D02*
X255470000Y-150730000D01*
X264291261Y-137042487D02*
X264361810Y-136811171D01*
X250704586Y-142323979D02*
X250918031Y-142630573D01*
X250040009Y-141421639D02*
X250265536Y-141719458D01*
X263265786Y-112093177D02*
X261006301Y-109833692D01*
X250487075Y-142020256D02*
X250704586Y-142323979D01*
X249810533Y-141126852D02*
X250040009Y-141421639D01*
X264395135Y-113880849D02*
X264468926Y-114105925D01*
X249098825Y-140261202D02*
X249339899Y-140546581D01*
X263865581Y-112824740D02*
X263992088Y-113024990D01*
X253422048Y-130017169D02*
X253577657Y-129843627D01*
X264591984Y-135381783D02*
X264597616Y-135140014D01*
X264622594Y-114799110D02*
X264650833Y-115034284D01*
X245690000Y-136280000D02*
X242544919Y-134569655D01*
X264310337Y-113659685D02*
X264395135Y-113880849D01*
X264423295Y-136577282D02*
X264475623Y-136341176D01*
X263416221Y-138759334D02*
X263554309Y-138560799D01*
X263416221Y-138759334D02*
X262140000Y-140520000D01*
X253141088Y-130388946D02*
X253276373Y-130199132D01*
X253916710Y-129523939D02*
X254099095Y-129378794D01*
X264667442Y-115270564D02*
X264672383Y-115507376D01*
X264468926Y-114105925D02*
X264531530Y-114334365D01*
X263992088Y-113024990D02*
X264108568Y-113231235D01*
X252903342Y-130789737D02*
X253016615Y-130586020D01*
X256257700Y-132470495D02*
X256760000Y-140080000D01*
X263583740Y-112444154D02*
X263729355Y-112630971D01*
X263265786Y-112093177D02*
X263429092Y-112264743D01*
X254099095Y-129378794D02*
X257341302Y-126943321D01*
X253742716Y-129679045D02*
X253916710Y-129523939D01*
X264518714Y-136103211D02*
X264552503Y-135863748D01*
X264211755Y-137270879D02*
X264291261Y-137042487D01*
X264108568Y-113231235D02*
X264214737Y-113442971D01*
X258796356Y-132737136D02*
X259652603Y-127996642D01*
X264475623Y-136341176D02*
X264518714Y-136103211D01*
X263920769Y-137935073D02*
X264026368Y-137717511D01*
X252801624Y-130999463D02*
X252903342Y-130789737D01*
X264582794Y-114565614D02*
X264622594Y-114799110D01*
X250918031Y-142630573D02*
X251127370Y-142939985D01*
X264531530Y-114334365D02*
X264582794Y-114565614D01*
X253016615Y-130586020D02*
X253141088Y-130388946D01*
X250265536Y-141719458D02*
X250487075Y-142020256D01*
X253276373Y-130199132D02*
X253422048Y-130017169D01*
X245990000Y-123110000D02*
X247770000Y-126960000D01*
X254817376Y-96455447D02*
X257500000Y-100490000D01*
X245910000Y-121320000D02*
X247143136Y-120846843D01*
X252470000Y-121590000D02*
X255030000Y-125890000D01*
X239099859Y-123062362D02*
X239220686Y-123093389D01*
X238979339Y-123030162D02*
X239099859Y-123062362D01*
X252711777Y-131214542D02*
X252801624Y-130999463D01*
X252634082Y-131434304D02*
X252711777Y-131214542D01*
X252568782Y-131658061D02*
X252634082Y-131434304D01*
X252516081Y-131885116D02*
X252568782Y-131658061D01*
X252476142Y-132114761D02*
X252516081Y-131885116D01*
X241381438Y-131378456D02*
X245520000Y-132120000D01*
X243095878Y-123822502D02*
X240074121Y-123277496D01*
X243215986Y-123846098D02*
X243095878Y-123822502D01*
X244354822Y-124281338D02*
X244247696Y-124222117D01*
X243335304Y-123873419D02*
X243215986Y-123846098D01*
X239829032Y-123230826D02*
X239951463Y-123254756D01*
X238500559Y-122889694D02*
X238619736Y-122926555D01*
X238145257Y-122772185D02*
X234940000Y-121660000D01*
X254683296Y-96265798D02*
X254817376Y-96455447D01*
X243802359Y-124019355D02*
X243687354Y-123977440D01*
X243916005Y-124064826D02*
X243802359Y-124019355D01*
X244460054Y-124343861D02*
X244354822Y-124281338D01*
X239951463Y-123254756D02*
X240074121Y-123277496D01*
X239341809Y-123123239D02*
X239463217Y-123151911D01*
X257070000Y-113060000D02*
X257310591Y-120270000D01*
X247770000Y-126960000D02*
X248239584Y-127610416D01*
X247770000Y-126960000D02*
X249380000Y-129190000D01*
X248497066Y-116176519D02*
X254230000Y-115750000D01*
X238381746Y-122851676D02*
X238500559Y-122889694D01*
X238575950Y-128356586D02*
X242540000Y-127300000D01*
X244138781Y-124166256D02*
X244028182Y-124113808D01*
X239584898Y-123179401D02*
X239706840Y-123205707D01*
X241050000Y-121890000D02*
X245910000Y-121320000D01*
X252449091Y-132346277D02*
X252476142Y-132114761D01*
X252435014Y-132578943D02*
X252449091Y-132346277D01*
X252435014Y-132578943D02*
X252339400Y-135520027D01*
X238263308Y-122812505D02*
X238381746Y-122851676D01*
X262330000Y-119350000D02*
X261793202Y-116678644D01*
X238859137Y-122996792D02*
X238979339Y-123030162D01*
X238145257Y-122772185D02*
X238263308Y-122812505D01*
X240461557Y-114413120D02*
X248762933Y-111103481D01*
X259510296Y-121540000D02*
X262330000Y-119350000D01*
X245520000Y-132120000D02*
X253433794Y-142605803D01*
X243571101Y-123939122D02*
X243453713Y-123904437D01*
X239463217Y-123151911D02*
X239584898Y-123179401D01*
X243453713Y-123904437D02*
X243335304Y-123873419D01*
X244563291Y-124409627D02*
X244460054Y-124343861D01*
X243687354Y-123977440D02*
X243571101Y-123939122D01*
X244028182Y-124113808D02*
X243916005Y-124064826D01*
X244860043Y-124625725D02*
X244763382Y-124550627D01*
X239220686Y-123093389D02*
X239341809Y-123123239D01*
X248239584Y-127610416D02*
X250470363Y-125927308D01*
X244247696Y-124222117D02*
X244138781Y-124166256D01*
X248630000Y-113640000D02*
X257070000Y-113060000D01*
X238619736Y-122926555D02*
X238739266Y-122962255D01*
X244860043Y-124625725D02*
X247770000Y-126960000D01*
X254538592Y-96084127D02*
X254683296Y-96265798D01*
X239706840Y-123205707D02*
X239829032Y-123230826D01*
X247143136Y-120846843D02*
X252470000Y-121590000D01*
X254383734Y-95911028D02*
X254538592Y-96084127D01*
X244664433Y-124478571D02*
X244563291Y-124409627D01*
X244763382Y-124550627D02*
X244664433Y-124478571D01*
X238739266Y-122962255D02*
X238859137Y-122996792D01*
X221645608Y-58409600D02*
X233510000Y-55080000D01*
X220679678Y-58658284D02*
X220922154Y-58600032D01*
X215760000Y-59350000D02*
X210420000Y-62470000D01*
X218473118Y-59063757D02*
X218720105Y-59029329D01*
X219703902Y-58864990D02*
X219948670Y-58817271D01*
X254280000Y-54920000D02*
X233510000Y-55080000D01*
X252175352Y-94711311D02*
X252402432Y-94760081D01*
X254219232Y-95747069D02*
X254383734Y-95911028D01*
X252626351Y-94821758D02*
X252846377Y-94896139D01*
X219948670Y-58817271D02*
X220192907Y-58766910D01*
X252402432Y-94760081D02*
X252626351Y-94821758D01*
X251714691Y-94653086D02*
X251945854Y-94675607D01*
X221405147Y-58475682D02*
X221645608Y-58409600D01*
X248818362Y-108464388D02*
X248574351Y-108467155D01*
X250029588Y-108328901D02*
X249789421Y-108372134D01*
X250268181Y-108277685D02*
X250029588Y-108328901D01*
X251077174Y-104211192D02*
X250853517Y-104456101D01*
X249305431Y-108434461D02*
X249062146Y-108453486D01*
X246882640Y-108259608D02*
X246646534Y-108197938D01*
X257400000Y-104700000D02*
X261006301Y-109833692D01*
X220436586Y-58713913D02*
X220679678Y-58658284D01*
X217730125Y-59150997D02*
X215760000Y-59350000D01*
X248762933Y-111103481D02*
X253470000Y-110960000D01*
X247360364Y-108359164D02*
X247120672Y-108313370D01*
X250355884Y-104894042D02*
X250084537Y-105084762D01*
X248574351Y-108467155D02*
X248330382Y-108461783D01*
X249789421Y-108372134D02*
X249547946Y-108407333D01*
X250853517Y-104456101D02*
X250612663Y-104684120D01*
X248086729Y-108448278D02*
X247843661Y-108426656D01*
X247843661Y-108426656D02*
X247601450Y-108396940D01*
X247120672Y-108313370D02*
X246882640Y-108259608D01*
X253271882Y-95081999D02*
X253475969Y-95192871D01*
X251945854Y-94675607D02*
X252175352Y-94711311D01*
X251714691Y-94653086D02*
X242652657Y-94031271D01*
X249062146Y-108453486D02*
X248818362Y-108464388D01*
X253061789Y-94982981D02*
X253271882Y-95081999D01*
X218720105Y-59029329D02*
X218966706Y-58992234D01*
X246412616Y-108128430D02*
X241631939Y-106620652D01*
X251282453Y-103950686D02*
X251077174Y-104211192D01*
X219212892Y-58952476D02*
X219458634Y-58910060D01*
X218966706Y-58992234D02*
X219212892Y-58952476D01*
X246646534Y-108197938D02*
X246412616Y-108128430D01*
X212210000Y-57940000D02*
X215760000Y-59350000D01*
X221163986Y-58539162D02*
X221405147Y-58475682D01*
X217730125Y-59150997D02*
X217978098Y-59124594D01*
X249547946Y-108407333D02*
X249305431Y-108434461D01*
X250268181Y-108277685D02*
X254350000Y-107330000D01*
X219458634Y-58910060D02*
X219703902Y-58864990D01*
X217978098Y-59124594D02*
X218225772Y-59095513D01*
X248330382Y-108461783D02*
X248086729Y-108448278D01*
X250612663Y-104684120D02*
X250355884Y-104894042D01*
X256615100Y-66998624D02*
X259887014Y-56652986D01*
X247601450Y-108396940D02*
X247360364Y-108359164D01*
X254045622Y-95592785D02*
X254219232Y-95747069D01*
X250084537Y-105084762D02*
X248282031Y-106256185D01*
X257500000Y-100490000D02*
X257400000Y-104700000D01*
X253863473Y-95448682D02*
X254045622Y-95592785D01*
X220192907Y-58766910D02*
X220436586Y-58713913D01*
X259887014Y-56652986D02*
X254280000Y-54920000D01*
X218225772Y-59095513D02*
X218473118Y-59063757D01*
X253475969Y-95192871D02*
X253673381Y-95315232D01*
X253673381Y-95315232D02*
X253863473Y-95448682D01*
X252846377Y-94896139D02*
X253061789Y-94982981D01*
X220922154Y-58600032D02*
X221163986Y-58539162D01*
X256287775Y-78967133D02*
X258020000Y-76990000D01*
X222141976Y-62083998D02*
X222030029Y-62288274D01*
X244780000Y-58520000D02*
X249680000Y-62730000D01*
X246610000Y-98090000D02*
X246500021Y-97950723D01*
X245079254Y-96917820D02*
X244912846Y-96856163D01*
X251468269Y-103675958D02*
X251282453Y-103950686D01*
X252127288Y-101814470D02*
X252074930Y-102141978D01*
X251633641Y-103388460D02*
X251468269Y-103675958D01*
X251777695Y-103089710D02*
X251633641Y-103388460D01*
X251899671Y-102781287D02*
X251777695Y-103089710D01*
X252074930Y-102141978D02*
X251998924Y-102464819D01*
X252440000Y-86460000D02*
X252430000Y-86450000D01*
X258020000Y-76990000D02*
X260470000Y-75720000D01*
X252160077Y-101152385D02*
X252155720Y-101484024D01*
X244398134Y-96721839D02*
X244222818Y-96694318D01*
X251070000Y-68810000D02*
X263420000Y-73330000D01*
X222399329Y-61695875D02*
X222265205Y-61886325D01*
X251998924Y-102464819D02*
X251899671Y-102781287D01*
X222030029Y-62288274D02*
X221929719Y-62498508D01*
X245854243Y-97345406D02*
X245708151Y-97244657D01*
X245995141Y-97453300D02*
X245854243Y-97345406D01*
X252155720Y-101484024D02*
X252127288Y-101814470D01*
X229790000Y-108780000D02*
X228164974Y-106656017D01*
X252140336Y-100821306D02*
X252160077Y-101152385D01*
X244912846Y-96856163D02*
X244743576Y-96802863D01*
X262280000Y-83410000D02*
X257843202Y-83168644D01*
X259090000Y-67570000D02*
X260830000Y-61250000D01*
X249680000Y-62730000D02*
X251665300Y-65855873D01*
X252096601Y-100492536D02*
X252140336Y-100821306D01*
X250280000Y-82240000D02*
X252426073Y-73851949D01*
X252096601Y-100492536D02*
X251800000Y-98750000D01*
X241631939Y-106620652D02*
X239244293Y-109418794D01*
X231511117Y-102833749D02*
X233450000Y-104470000D01*
X246610000Y-98090000D02*
X247090000Y-98730000D01*
X239244293Y-109418794D02*
X237232764Y-111798775D01*
X234888775Y-114442764D02*
X237232764Y-111798775D01*
X231530000Y-115550000D02*
X234888775Y-114442764D01*
X244222818Y-96694318D02*
X243050000Y-96540000D01*
X229838045Y-104744883D02*
X231570000Y-106700000D01*
X233184188Y-100922615D02*
X235390000Y-102250000D01*
X262280000Y-83410000D02*
X259993202Y-87378644D01*
X248980000Y-77280000D02*
X249951173Y-73280573D01*
X243447344Y-99048728D02*
X244033560Y-104634957D01*
X234857259Y-99011481D02*
X237830000Y-100210000D01*
X244571863Y-96758051D02*
X244398134Y-96721839D01*
X244743576Y-96802863D02*
X244571863Y-96758051D01*
X245242388Y-96987681D02*
X245079254Y-96917820D01*
X245401844Y-97065573D02*
X245242388Y-96987681D01*
X257375873Y-74994700D02*
X258020000Y-76990000D01*
X252440000Y-90240000D02*
X252440000Y-86460000D01*
X222265205Y-61886325D02*
X222141976Y-62083998D01*
X245557227Y-97151302D02*
X245401844Y-97065573D01*
X246259972Y-97689435D02*
X246130496Y-97568071D01*
X245708151Y-97244657D02*
X245557227Y-97151302D01*
X246130496Y-97568071D02*
X245995141Y-97453300D01*
X252430000Y-86450000D02*
X254900973Y-74423324D01*
X221929719Y-62498508D02*
X221290280Y-63941490D01*
X246383249Y-97817091D02*
X246259972Y-97689435D01*
X254140200Y-66427249D02*
X253530000Y-59410000D01*
X251665300Y-65855873D02*
X251070000Y-68810000D01*
X246500021Y-97950723D02*
X246383249Y-97817091D01*
X261410000Y-97070000D02*
X258866643Y-94334223D01*
X234830000Y-57510000D02*
X244780000Y-58520000D01*
X263420000Y-73330000D02*
X262280000Y-83410000D01*
X221188194Y-64159568D02*
X221077177Y-64373238D01*
X234170000Y-80090000D02*
X233560000Y-79480000D01*
X215860481Y-68988507D02*
X215736978Y-69192374D01*
X215993318Y-68790596D02*
X215860481Y-68988507D01*
X222543926Y-61513249D02*
X222399329Y-61695875D01*
X216612000Y-68066846D02*
X216444880Y-68236803D01*
X217158115Y-67606029D02*
X216969003Y-67751118D01*
X223717266Y-96671050D02*
X225777715Y-97814535D01*
X215425046Y-69835252D02*
X215341342Y-70058430D01*
X233560000Y-79480000D02*
X229010700Y-77778489D01*
X241590000Y-81430000D02*
X243727732Y-75727890D01*
X239837853Y-74495014D02*
X243727732Y-75727890D01*
X222862683Y-61173742D02*
X222698539Y-61339021D01*
X225322764Y-94608775D02*
X227450786Y-95903402D01*
X220692515Y-64984184D02*
X220547821Y-65176650D01*
X217555522Y-67342964D02*
X217353762Y-67469879D01*
X247480000Y-82360000D02*
X245480000Y-88470000D01*
X221290280Y-63941490D02*
X221188194Y-64159568D01*
X221077177Y-64373238D02*
X220957419Y-64582134D01*
X223406984Y-60736642D02*
X223217464Y-60872077D01*
X224231753Y-60307095D02*
X224016838Y-60396940D01*
X224451369Y-60229448D02*
X224231753Y-60307095D01*
X218926892Y-66596370D02*
X218717039Y-66714442D01*
X220067783Y-65715895D02*
X219893364Y-65881900D01*
X215519026Y-69616204D02*
X215425046Y-69835252D01*
X228980929Y-90265134D02*
X230796929Y-92081134D01*
X224674996Y-60164244D02*
X224451369Y-60229448D01*
X215736978Y-69192374D02*
X215623078Y-69401757D01*
X219893364Y-65881900D02*
X219712230Y-66040550D01*
X220395291Y-65362968D02*
X220235187Y-65542819D01*
X220829125Y-64785899D02*
X220692515Y-64984184D01*
X217353762Y-67469879D02*
X217158115Y-67606029D01*
X217762959Y-67225557D02*
X217555522Y-67342964D01*
X238690000Y-83940000D02*
X234170000Y-80090000D01*
X228980929Y-90194968D02*
X228980929Y-90265134D01*
X222698539Y-61339021D02*
X222543926Y-61513249D01*
X223035839Y-61017930D02*
X222862683Y-61173742D01*
X223807301Y-60498699D02*
X223603803Y-60612052D01*
X219131684Y-66469721D02*
X218926892Y-66596370D01*
X227342764Y-92328775D02*
X229123858Y-93992268D01*
X216285833Y-68414338D02*
X216135205Y-68599069D01*
X224016838Y-60396940D02*
X223807301Y-60498699D01*
X216444880Y-68236803D02*
X216285833Y-68414338D01*
X223217464Y-60872077D02*
X223035839Y-61017930D01*
X218717039Y-66714442D02*
X217762959Y-67225557D01*
X219524689Y-66191573D02*
X219331064Y-66334712D01*
X223603803Y-60612052D02*
X223406984Y-60736642D01*
X224674996Y-60164244D02*
X234830000Y-57510000D01*
X220547821Y-65176650D02*
X220395291Y-65362968D01*
X220957419Y-64582134D02*
X220829125Y-64785899D01*
X215623078Y-69401757D02*
X215519026Y-69616204D01*
X217650000Y-98360000D02*
X228816438Y-85443474D01*
X216969003Y-67751118D02*
X216786833Y-67904835D01*
X224354331Y-64020193D02*
X229441846Y-62898154D01*
X239837853Y-74495014D02*
X243716526Y-67473562D01*
X215341342Y-70058430D02*
X214420000Y-72700000D01*
X216786833Y-67904835D02*
X216612000Y-68066846D01*
X232231656Y-68159690D02*
X237360000Y-70190000D01*
X233560000Y-79480000D02*
X231971846Y-75578154D01*
X219331064Y-66334712D02*
X219131684Y-66469721D01*
X234043312Y-66379381D02*
X238858148Y-63315421D01*
X219712230Y-66040550D02*
X219524689Y-66191573D01*
X220235187Y-65542819D02*
X220067783Y-65715895D01*
X216135205Y-68599069D02*
X215993318Y-68790596D01*
X220263124Y-68518802D02*
X219985636Y-68667278D01*
X213611200Y-99209557D02*
X217252656Y-100868728D01*
X212659104Y-82494251D02*
X212525358Y-82697866D01*
X218436618Y-73374848D02*
X218387528Y-73149066D01*
X219031012Y-69479078D02*
X218839884Y-69729107D01*
X223640000Y-84760000D02*
X221680000Y-87230000D01*
X218184498Y-75638283D02*
X218269527Y-75423440D01*
X210091569Y-82598808D02*
X213976861Y-77572381D01*
X216629170Y-81620887D02*
X223640000Y-84760000D01*
X211510923Y-85417511D02*
X210971018Y-88987392D01*
X211551500Y-85177301D02*
X211510923Y-85417511D01*
X217722594Y-76436484D02*
X217855572Y-76247528D01*
X218494413Y-73833132D02*
X218472288Y-73603136D01*
X218478983Y-74525326D02*
X218497766Y-74295033D01*
X218175075Y-71795836D02*
X218184588Y-72110406D01*
X218524898Y-70273387D02*
X218403335Y-70563674D01*
X209936543Y-82783249D02*
X210015943Y-82692614D01*
X218236486Y-71169989D02*
X218192416Y-71481601D01*
X221680000Y-87230000D02*
X219660000Y-89510000D01*
X218086928Y-75847730D02*
X218184498Y-75638283D01*
X211657371Y-84701792D02*
X211600335Y-84938634D01*
X214010000Y-91600000D02*
X215300000Y-89090000D01*
X219473591Y-69032334D02*
X219242762Y-69246256D01*
X212062838Y-83554732D02*
X211966012Y-83778275D01*
X217400000Y-92410000D02*
X219660000Y-89510000D01*
X218844957Y-78903560D02*
X221640000Y-75500000D01*
X218403335Y-70563674D02*
X218306963Y-70863269D01*
X218497766Y-74295033D02*
X218502916Y-74064033D01*
X218446630Y-74754108D02*
X218478983Y-74525326D01*
X211600335Y-84938634D02*
X211551500Y-85177301D01*
X212398712Y-82905972D02*
X212279317Y-83118320D01*
X218502916Y-74064033D02*
X218494413Y-73833132D01*
X218184588Y-72110406D02*
X218220886Y-72423019D01*
X219985636Y-68667278D02*
X219721818Y-68838872D01*
X218192416Y-71481601D02*
X218175075Y-71795836D01*
X211722538Y-84467057D02*
X211657371Y-84701792D01*
X217855572Y-76247528D02*
X217977158Y-76051048D01*
X210015943Y-82692614D02*
X210091569Y-82598808D01*
X218387528Y-73149066D02*
X218283706Y-72731399D01*
X213101310Y-81912741D02*
X212947251Y-82101454D01*
X218269527Y-75423440D02*
X218341720Y-75203950D01*
X213101310Y-81912741D02*
X217578689Y-76617258D01*
X220263124Y-68518802D02*
X224332165Y-66560097D01*
X211795761Y-84234709D02*
X211722538Y-84467057D01*
X212279317Y-83118320D02*
X212167315Y-83334659D01*
X211876951Y-84005024D02*
X211795761Y-84234709D01*
X212799790Y-82295368D02*
X212659104Y-82494251D01*
X218472288Y-73603136D02*
X218436618Y-73374848D01*
X209853502Y-82870559D02*
X209936543Y-82783249D01*
X218306963Y-70863269D02*
X218236486Y-71169989D01*
X218220886Y-72423019D02*
X218283706Y-72731399D01*
X217977158Y-76051048D02*
X218086928Y-75847730D01*
X219242762Y-69246256D02*
X219031012Y-69479078D01*
X217578689Y-76617258D02*
X217722594Y-76436484D01*
X211966012Y-83778275D02*
X211876951Y-84005024D01*
X218341720Y-75203950D02*
X218400823Y-74980579D01*
X218839884Y-69729107D02*
X218670769Y-69994521D01*
X212947251Y-82101454D02*
X212799790Y-82295368D01*
X212525358Y-82697866D02*
X212398712Y-82905972D01*
X215300000Y-89090000D02*
X216710000Y-86700000D01*
X212167315Y-83334659D02*
X212062838Y-83554732D01*
X218400823Y-74980579D02*
X218446630Y-74754108D01*
X218670769Y-69994521D02*
X218524898Y-70273387D01*
X219721818Y-68838872D02*
X219473591Y-69032334D01*
X210643809Y-73895730D02*
X210633731Y-73777418D01*
X210680981Y-74130213D02*
X210659571Y-74013419D01*
X206213665Y-77876582D02*
X206110273Y-77813150D01*
X209583952Y-83111115D02*
X209677059Y-83034630D01*
X206110273Y-77813150D02*
X206009307Y-77745926D01*
X209677059Y-83034630D02*
X209766959Y-82954400D01*
X209182649Y-83377147D02*
X209286975Y-83316856D01*
X208628962Y-83612072D02*
X208743361Y-83574233D01*
X209075945Y-83433121D02*
X209182649Y-83377147D01*
X208967040Y-83484683D02*
X209075945Y-83433121D01*
X214553303Y-76562912D02*
X214460877Y-76777030D01*
X214460877Y-76777030D02*
X214356679Y-76985672D01*
X208743361Y-83574233D02*
X208856116Y-83531747D01*
X205910904Y-77675001D02*
X205815200Y-77600475D01*
X205815200Y-77600475D02*
X205722327Y-77522449D01*
X214757272Y-75894418D02*
X214701731Y-76120921D01*
X205095707Y-76786095D02*
X205033546Y-76681936D01*
X214847262Y-75201315D02*
X214830151Y-75433901D01*
X210821917Y-74583059D02*
X210778540Y-74472526D01*
X214241033Y-77188193D02*
X214114295Y-77383964D01*
X205231407Y-76987140D02*
X205161692Y-76887877D01*
X209766959Y-82954400D02*
X209853502Y-82870559D01*
X209487794Y-83183728D02*
X209583952Y-83111115D01*
X205632413Y-77441031D02*
X205545581Y-77356334D01*
X208513111Y-83645200D02*
X208628962Y-83612072D01*
X210633731Y-73777418D02*
X210629361Y-73658759D01*
X210924373Y-74797225D02*
X210870565Y-74691376D01*
X214701731Y-76120921D02*
X214633671Y-76343983D01*
X211046953Y-75000543D02*
X211630000Y-75870000D01*
X211046953Y-75000543D02*
X210983214Y-74900360D01*
X214114295Y-77383964D02*
X213976861Y-77572381D01*
X214800123Y-75665174D02*
X214757272Y-75894418D01*
X214786086Y-74272277D02*
X214820769Y-74502898D01*
X210637773Y-73421497D02*
X210650536Y-73303445D01*
X210659571Y-74013419D02*
X210643809Y-73895730D01*
X205161692Y-76887877D02*
X205095707Y-76786095D01*
X209388746Y-83252346D02*
X209487794Y-83183728D01*
X209286975Y-83316856D02*
X209388746Y-83252346D01*
X208856116Y-83531747D02*
X208967040Y-83484683D01*
X208513111Y-83645200D02*
X206790000Y-84100000D01*
X214738625Y-74043944D02*
X214420000Y-72700000D01*
X214356679Y-76985672D02*
X214241033Y-77188193D01*
X214633671Y-76343983D02*
X214553303Y-76562912D01*
X206009307Y-77745926D02*
X205910904Y-77675001D01*
X214830151Y-75433901D02*
X214800123Y-75665174D01*
X214842564Y-74735091D02*
X214851404Y-74968138D01*
X214738625Y-74043944D02*
X214786086Y-74272277D01*
X210650536Y-73303445D02*
X210668968Y-73186145D01*
X210630710Y-73540027D02*
X210637773Y-73421497D01*
X210870565Y-74691376D02*
X210821917Y-74583059D01*
X210983214Y-74900360D02*
X210924373Y-74797225D01*
X205304757Y-77083749D02*
X205231407Y-76987140D01*
X205722327Y-77522449D02*
X205632413Y-77441031D01*
X205461952Y-77268473D02*
X205381640Y-77177569D01*
X210668968Y-73186145D02*
X210925291Y-71777051D01*
X210629361Y-73658759D02*
X210630710Y-73540027D01*
X210740535Y-74360033D02*
X210707990Y-74245840D01*
X205545581Y-77356334D02*
X205461952Y-77268473D01*
X205381640Y-77177569D02*
X205304757Y-77083749D01*
X210707990Y-74245840D02*
X210680981Y-74130213D01*
X205033546Y-76681936D02*
X204782015Y-76242126D01*
X210778540Y-74472526D02*
X210740535Y-74360033D01*
X214851404Y-74968138D02*
X214847262Y-75201315D01*
X214820769Y-74502898D02*
X214842564Y-74735091D01*
X176296199Y-79172524D02*
X176223350Y-79408048D01*
X177343238Y-76947855D02*
X177213462Y-77157465D01*
X177089060Y-77370309D02*
X176970112Y-77586247D01*
X176223350Y-79408048D02*
X174010000Y-86900000D01*
X177763951Y-76339769D02*
X177618572Y-76538875D01*
X200091694Y-75393448D02*
X203440000Y-80940000D01*
X182776441Y-81149946D02*
X183018870Y-81137951D01*
X203637486Y-72357486D02*
X208820000Y-69780000D01*
X188473333Y-79878280D02*
X188331042Y-79681177D01*
X188608469Y-80080356D02*
X188473333Y-79878280D01*
X183018870Y-81137951D02*
X183261577Y-81134881D01*
X183261577Y-81134881D02*
X183504233Y-81140739D01*
X206427149Y-77991726D02*
X208150000Y-78840000D01*
X203990000Y-71390000D02*
X206103984Y-68749842D01*
X188969260Y-80713791D02*
X188856592Y-80498379D01*
X183988077Y-81179199D02*
X184228610Y-81211748D01*
X176646744Y-78251230D02*
X176550346Y-78478134D01*
X206319338Y-77936135D02*
X206213665Y-77876582D01*
X206427149Y-77991726D02*
X206319338Y-77936135D01*
X188181780Y-79489300D02*
X188025737Y-79302895D01*
X183746508Y-81155519D02*
X183988077Y-81179199D01*
X203990000Y-71390000D02*
X203637486Y-72357486D01*
X203637486Y-72357486D02*
X202620000Y-75150000D01*
X189171087Y-81156029D02*
X189074137Y-80933101D01*
X181816041Y-81286670D02*
X182054091Y-81239257D01*
X176970112Y-77586247D02*
X176856695Y-77805142D01*
X192620000Y-72800000D02*
X195395374Y-76915084D01*
X182534616Y-81170850D02*
X182776441Y-81149946D01*
X188480000Y-75110000D02*
X190910000Y-79300000D01*
X188856592Y-80498379D02*
X188736277Y-80287144D01*
X185404444Y-81505571D02*
X185632016Y-81589995D01*
X184940760Y-81362110D02*
X185173922Y-81429576D01*
X184467784Y-81253123D02*
X184705275Y-81303266D01*
X176459751Y-78707417D02*
X176375017Y-78938931D01*
X189074137Y-80933101D02*
X188969260Y-80713791D01*
X189259985Y-81382289D02*
X189171087Y-81156029D01*
X181816041Y-81286670D02*
X179740000Y-81740000D01*
X187694121Y-78947453D02*
X184860000Y-76120000D01*
X187863114Y-79122202D02*
X187694121Y-78947453D01*
X188025737Y-79302895D02*
X187863114Y-79122202D01*
X188331042Y-79681177D02*
X188181780Y-79489300D01*
X188736277Y-80287144D02*
X188608469Y-80080356D01*
X189340719Y-81611588D02*
X189259985Y-81382289D01*
X185632016Y-81589995D02*
X187290000Y-82240000D01*
X176375017Y-78938931D02*
X176296199Y-79172524D01*
X189413183Y-81843634D02*
X189340719Y-81611588D01*
X189477286Y-82078127D02*
X189413183Y-81843634D01*
X176748882Y-78026850D02*
X176646744Y-78251230D01*
X177213462Y-77157465D02*
X177089060Y-77370309D01*
X189532945Y-82314767D02*
X189477286Y-82078127D01*
X189532945Y-82314767D02*
X190670000Y-87570000D01*
X185173922Y-81429576D02*
X185404444Y-81505571D01*
X183504233Y-81140739D02*
X183746508Y-81155519D01*
X181248453Y-91453780D02*
X179600000Y-88540000D01*
X183250000Y-89890000D02*
X187390000Y-86440000D01*
X179600000Y-88540000D02*
X181048061Y-86610652D01*
X176550346Y-78478134D02*
X176459751Y-78707417D01*
X176856695Y-77805142D02*
X176748882Y-78026850D01*
X177618572Y-76538875D02*
X177478304Y-76741614D01*
X184705275Y-81303266D02*
X184940760Y-81362110D01*
X177478304Y-76741614D02*
X177343238Y-76947855D01*
X184228610Y-81211748D02*
X184467784Y-81253123D01*
X182054091Y-81239257D02*
X182293725Y-81200634D01*
X182293725Y-81200634D02*
X182534616Y-81170850D01*
X185609406Y-63304514D02*
X183736438Y-69146526D01*
X168294919Y-59139655D02*
X171975032Y-58229071D01*
X187148460Y-60538906D02*
X187310146Y-60354775D01*
X162710000Y-63860000D02*
X163360000Y-63100000D01*
X168568598Y-69559101D02*
X168294919Y-59139655D01*
X186842244Y-60921479D02*
X186992445Y-60727866D01*
X186697997Y-61119568D02*
X186842244Y-60921479D01*
X177914348Y-76144426D02*
X177763951Y-76339769D01*
X178069666Y-75952972D02*
X177914348Y-76144426D01*
X177410000Y-63570000D02*
X179770000Y-59300000D01*
X178069666Y-75952972D02*
X183736438Y-69146526D01*
X186183122Y-61952958D02*
X186302280Y-61738837D01*
X187649927Y-60001676D02*
X190659333Y-57058784D01*
X187477352Y-60175643D02*
X187649927Y-60001676D01*
X159930000Y-66250000D02*
X162710000Y-63860000D01*
X161360000Y-72160000D02*
X159930000Y-66250000D01*
X187310146Y-60354775D02*
X187477352Y-60175643D01*
X186992445Y-60727866D02*
X187148460Y-60538906D01*
X186559836Y-61321949D02*
X186697997Y-61119568D01*
X185609406Y-63304514D02*
X185687753Y-63072332D01*
X185773122Y-62842640D02*
X185865432Y-62615648D01*
X185687753Y-63072332D02*
X185773122Y-62842640D01*
X186427890Y-61528436D02*
X186559836Y-61321949D01*
X186302280Y-61738837D02*
X186427890Y-61528436D01*
X185798926Y-54838829D02*
X179332647Y-70874738D01*
X186070526Y-62170601D02*
X186183122Y-61952958D01*
X185964597Y-62391566D02*
X186070526Y-62170601D01*
X185865432Y-62615648D02*
X185964597Y-62391566D01*
X193365084Y-60614626D02*
X187560000Y-64020000D01*
X170944919Y-62369655D02*
X171107728Y-69625590D01*
X190841146Y-65390541D02*
X194557542Y-62857313D01*
X159930000Y-66250000D02*
X160710000Y-59870000D01*
X216192997Y-110773937D02*
X216435811Y-110769671D01*
X215228132Y-110879279D02*
X215467746Y-110839761D01*
X213613165Y-111395425D02*
X213835033Y-111296675D01*
X213395045Y-111502199D02*
X213613165Y-111395425D01*
X223610000Y-105250000D02*
X220870000Y-110930000D01*
X214060354Y-111206082D02*
X214288829Y-111123764D01*
X214754020Y-110984385D02*
X214990117Y-110927509D01*
X216435811Y-110769671D02*
X216678620Y-110774262D01*
X214288829Y-111123764D02*
X214520153Y-111049833D01*
X215708643Y-110809005D02*
X215950500Y-110787055D01*
X215467746Y-110839761D02*
X215708643Y-110809005D01*
X215950500Y-110787055D02*
X216192997Y-110773937D01*
X216678620Y-110774262D02*
X220870000Y-110930000D01*
X214520153Y-111049833D02*
X214754020Y-110984385D01*
X213835033Y-111296675D02*
X214060354Y-111206082D01*
X214990117Y-110927509D02*
X215228132Y-110879279D01*
X212971206Y-111739242D02*
X210520000Y-113230000D01*
X213180964Y-111616855D02*
X213395045Y-111502199D01*
X212971206Y-111739242D02*
X213180964Y-111616855D01*
X204374624Y-108467412D02*
X204434660Y-108629264D01*
X210399106Y-114941116D02*
X210520000Y-113230000D01*
X232100118Y-82520283D02*
X231892430Y-82385296D01*
X210313305Y-115549217D02*
X210337229Y-115428647D01*
X210357785Y-115307458D02*
X210374958Y-115185743D01*
X210053442Y-116368079D02*
X210100272Y-116254429D01*
X209894227Y-116700592D02*
X209950379Y-116591247D01*
X232300000Y-72690000D02*
X237770000Y-75970000D01*
X204504363Y-108787194D02*
X204583478Y-108940626D01*
X210374958Y-115185743D02*
X210388735Y-115063597D01*
X210143919Y-116139519D02*
X210184348Y-116023438D01*
X205372522Y-109844185D02*
X205513899Y-109943247D01*
X190910000Y-79300000D02*
X197185856Y-85079527D01*
X209835052Y-116808331D02*
X209894227Y-116700592D01*
X204874244Y-109368419D02*
X204987792Y-109498447D01*
X202895431Y-68891746D02*
X203990000Y-71390000D01*
X231681990Y-82254641D02*
X231468888Y-82128375D01*
X189200000Y-71410000D02*
X193152687Y-78107542D01*
X232506881Y-82803022D02*
X232304964Y-82659545D01*
X204284394Y-108134317D02*
X204324474Y-108302228D01*
X204254529Y-107964292D02*
X204284394Y-108134317D01*
X224332165Y-66560097D02*
X232231656Y-68159690D01*
X210184348Y-116023438D02*
X210221529Y-115906276D01*
X204434660Y-108629264D02*
X204504363Y-108787194D01*
X232705781Y-82950652D02*
X232506881Y-82803022D01*
X209835052Y-116808331D02*
X206900000Y-121980000D01*
X204987792Y-109498447D02*
X205108987Y-109621379D01*
X225620000Y-78240000D02*
X227590350Y-79884245D01*
X210255433Y-115788124D02*
X210286033Y-115669073D01*
X204768757Y-109231770D02*
X204874244Y-109368419D01*
X205513899Y-109943247D02*
X210520000Y-113230000D01*
X231468888Y-82128375D02*
X227590350Y-79884245D01*
X232901580Y-83102371D02*
X232705781Y-82950652D01*
X209950379Y-116591247D02*
X210003465Y-116480381D01*
X228464710Y-72389801D02*
X232300000Y-72690000D01*
X233094192Y-83258115D02*
X232901580Y-83102371D01*
X231892430Y-82385296D02*
X231681990Y-82254641D01*
X204671717Y-109088998D02*
X204768757Y-109231770D01*
X210388735Y-115063597D02*
X210399106Y-114941116D01*
X210337229Y-115428647D02*
X210357785Y-115307458D01*
X204583478Y-108940626D02*
X204671717Y-109088998D01*
X210100272Y-116254429D02*
X210143919Y-116139519D01*
X210003465Y-116480381D02*
X210053442Y-116368079D01*
X205237387Y-109736765D02*
X205372522Y-109844185D01*
X205108987Y-109621379D02*
X205237387Y-109736765D01*
X204225847Y-107620388D02*
X204234990Y-107792773D01*
X200091694Y-75393448D02*
X200380000Y-64070000D01*
X204225847Y-107620388D02*
X204150000Y-104290000D01*
X232300000Y-72690000D02*
X230420000Y-69940000D01*
X232304964Y-82659545D02*
X232100118Y-82520283D01*
X195750000Y-65100000D02*
X189200000Y-71410000D01*
X204234990Y-107792773D02*
X204254529Y-107964292D01*
X204324474Y-108302228D02*
X204374624Y-108467412D01*
X210286033Y-115669073D02*
X210313305Y-115549217D01*
X210221529Y-115906276D02*
X210255433Y-115788124D01*
X194557542Y-62857313D02*
X200136552Y-61541694D01*
X189200000Y-71410000D02*
X195400000Y-68630000D01*
X224310000Y-69100000D02*
X225620000Y-78240000D01*
X236980000Y-143830000D02*
X241220000Y-140100000D01*
X220770486Y-142388510D02*
X220546147Y-142310946D01*
X228810000Y-152440000D02*
X235871157Y-146965471D01*
X229536379Y-99181625D02*
X229825832Y-99007309D01*
X235871157Y-146965471D02*
X240994738Y-146235063D01*
X229923463Y-142462937D02*
X236980000Y-143830000D01*
X226470000Y-101760000D02*
X223610000Y-105250000D01*
X238690000Y-83940000D02*
X235702146Y-77444985D01*
X233283537Y-83417817D02*
X233094192Y-83258115D01*
X233469531Y-83581407D02*
X233283537Y-83417817D01*
X233652096Y-83748817D02*
X233469531Y-83581407D01*
X217650000Y-98360000D02*
X222431573Y-101636803D01*
X231642305Y-87110595D02*
X231574712Y-86881717D01*
X233831153Y-83919973D02*
X233652096Y-83748817D01*
X234006624Y-84094803D02*
X233831153Y-83919973D01*
X234178436Y-84273232D02*
X234006624Y-84094803D01*
X230012163Y-84524593D02*
X229827677Y-84373206D01*
X234346513Y-84455182D02*
X234178436Y-84273232D01*
X238203402Y-95189214D02*
X242652657Y-94031271D01*
X231411396Y-98446599D02*
X231746084Y-98400198D01*
X234510785Y-84640576D02*
X234346513Y-84455182D01*
X231080591Y-98515430D02*
X231411396Y-98446599D01*
X234510785Y-84640576D02*
X236523073Y-86959580D01*
X242652657Y-94031271D02*
X238690000Y-83940000D01*
X230755172Y-98606379D02*
X231080591Y-98515430D01*
X232083137Y-98376436D02*
X232421025Y-98375423D01*
X234069574Y-98708137D02*
X234857259Y-99011481D01*
X230126365Y-98852877D02*
X230436615Y-98719031D01*
X236530330Y-97100348D02*
X243447344Y-99048728D01*
X233424387Y-98508402D02*
X233750346Y-98597397D01*
X230675081Y-85209721D02*
X230521321Y-85027207D01*
X228995912Y-99586662D02*
X229259319Y-99375035D01*
X231201828Y-86004325D02*
X231083959Y-85796815D01*
X230956697Y-85594930D02*
X230820308Y-85399095D01*
X231496694Y-86656181D02*
X231408413Y-86434461D01*
X231574712Y-86881717D02*
X231496694Y-86656181D01*
X229438857Y-84096597D02*
X226170000Y-81990000D01*
X216855313Y-103377457D02*
X220758501Y-103547937D01*
X233093176Y-98441556D02*
X233424387Y-98508402D01*
X231408413Y-86434461D02*
X231310055Y-86217023D01*
X219244707Y-146707123D02*
X229923463Y-142462937D01*
X229636440Y-84230440D02*
X229438857Y-84096597D01*
X228995912Y-99586662D02*
X226470000Y-101760000D01*
X229827677Y-84373206D02*
X229636440Y-84230440D01*
X230521321Y-85027207D02*
X230359351Y-84851938D01*
X230189513Y-84684282D02*
X230012163Y-84524593D01*
X232758215Y-98397163D02*
X233093176Y-98441556D01*
X230359351Y-84851938D02*
X230189513Y-84684282D01*
X220546147Y-142310946D02*
X218560000Y-141570000D01*
X220758501Y-103547937D02*
X223610000Y-105250000D01*
X230436615Y-98719031D02*
X230755172Y-98606379D01*
X230820308Y-85399095D02*
X230675081Y-85209721D01*
X233750346Y-98597397D02*
X234069574Y-98708137D01*
X226470000Y-101760000D02*
X224104644Y-99725669D01*
X232421025Y-98375423D02*
X232758215Y-98397163D01*
X231642305Y-87110595D02*
X232470000Y-90170000D01*
X231083959Y-85796815D02*
X230956697Y-85594930D01*
X209949704Y-148910000D02*
X219400000Y-149980000D01*
X221500000Y-153860000D02*
X229510119Y-154881605D01*
X229259319Y-99375035D02*
X229536379Y-99181625D01*
X220998314Y-142455136D02*
X220770486Y-142388510D01*
X231310055Y-86217023D02*
X231201828Y-86004325D01*
X231746084Y-98400198D02*
X232083137Y-98376436D01*
X229825832Y-99007309D02*
X230126365Y-98852877D01*
X176165654Y-133023672D02*
X176033081Y-133234580D01*
X187724209Y-127311697D02*
X187980224Y-127531134D01*
X188444635Y-128019582D02*
X188760000Y-128400000D01*
X176295502Y-132811076D02*
X176165654Y-133023672D01*
X174877082Y-134856893D02*
X173240670Y-136919851D01*
X175181652Y-134462612D02*
X175030635Y-134660732D01*
X176787207Y-131944506D02*
X176668475Y-132163505D01*
X202173687Y-83630323D02*
X202071160Y-83569730D01*
X202954341Y-83912261D02*
X202837770Y-83887880D01*
X223578900Y-142440327D02*
X223348770Y-142498503D01*
X202071160Y-83569730D02*
X201971580Y-83504407D01*
X177290000Y-106560000D02*
X176720000Y-111740000D01*
X200590000Y-81610000D02*
X197563387Y-75636896D01*
X175475971Y-134060621D02*
X175330105Y-134262564D01*
X202386677Y-83736799D02*
X202278936Y-83686054D01*
X188220736Y-127767459D02*
X188444635Y-128019582D01*
X187453875Y-127110164D02*
X187724209Y-127311697D01*
X201875166Y-83434497D02*
X201782127Y-83360152D01*
X186875308Y-126764448D02*
X187170471Y-126927466D01*
X221229098Y-142510667D02*
X220998314Y-142455136D01*
X202837770Y-83887880D02*
X202722468Y-83858072D01*
X221462296Y-142554974D02*
X221229098Y-142510667D01*
X201971580Y-83504407D02*
X201875166Y-83434497D01*
X221697364Y-142587952D02*
X221462296Y-142554974D01*
X180950000Y-103810000D02*
X177290000Y-106560000D01*
X202608686Y-83822903D02*
X202496674Y-83782449D01*
X224248683Y-142200113D02*
X224029384Y-142290957D01*
X176033081Y-133234580D02*
X175897803Y-133443763D01*
X202278936Y-83686054D02*
X202173687Y-83630323D01*
X221933752Y-142609525D02*
X221697364Y-142587952D01*
X222170907Y-142619642D02*
X221933752Y-142609525D01*
X177016166Y-131502016D02*
X178180000Y-129180000D01*
X224248683Y-142200113D02*
X228810000Y-140180000D01*
X187980224Y-127531134D02*
X188220736Y-127767459D01*
X202496674Y-83782449D02*
X202386677Y-83736799D01*
X222408273Y-142618280D02*
X222170907Y-142619642D01*
X222645296Y-142605442D02*
X222408273Y-142618280D01*
X222881421Y-142581157D02*
X222645296Y-142605442D01*
X223116095Y-142545483D02*
X222881421Y-142581157D01*
X175330105Y-134262564D02*
X175181652Y-134462612D01*
X176546933Y-132380956D02*
X176422602Y-132596825D01*
X202278936Y-83686054D02*
X200590000Y-81610000D01*
X223348770Y-142498503D02*
X223116095Y-142545483D01*
X203309101Y-83952372D02*
X206790000Y-84100000D01*
X223805949Y-142371091D02*
X223578900Y-142440327D01*
X212830116Y-124738576D02*
X214846407Y-121598300D01*
X201606986Y-83198823D02*
X195395374Y-76915084D01*
X187170471Y-126927466D02*
X187453875Y-127110164D01*
X175619225Y-133856818D02*
X175475971Y-134060621D01*
X224029384Y-142290957D02*
X223805949Y-142371091D01*
X175897803Y-133443763D02*
X175759843Y-133651187D01*
X213648671Y-127143065D02*
X218930000Y-124620000D01*
X201692668Y-83281537D02*
X201606986Y-83198823D01*
X177016166Y-131502016D02*
X176903110Y-131723998D01*
X201782127Y-83360152D02*
X201692668Y-83281537D01*
X202722468Y-83858072D02*
X202608686Y-83822903D01*
X203071925Y-83931163D02*
X202954341Y-83912261D01*
X176903110Y-131723998D02*
X176787207Y-131944506D01*
X203190265Y-83944542D02*
X203071925Y-83931163D01*
X203309101Y-83952372D02*
X203190265Y-83944542D01*
X175030635Y-134660732D02*
X174877082Y-134856893D01*
X176668475Y-132163505D02*
X176546933Y-132380956D01*
X175759843Y-133651187D02*
X175619225Y-133856818D01*
X176422602Y-132596825D02*
X176295502Y-132811076D01*
X202250896Y-125439976D02*
X202024599Y-125394491D01*
X203320289Y-125863045D02*
X203117241Y-125753268D01*
X194907555Y-128204075D02*
X195057692Y-128041582D01*
X194285299Y-129365080D02*
X194352925Y-129154434D01*
X211522422Y-137992990D02*
X211672893Y-137832179D01*
X195391263Y-127751320D02*
X195572943Y-127625076D01*
X200421488Y-125457787D02*
X200199482Y-125520973D01*
X186255210Y-126500372D02*
X186569750Y-126621864D01*
X185605032Y-126322811D02*
X185933141Y-126400533D01*
X202908029Y-125655751D02*
X202693393Y-125570838D01*
X202474090Y-125498828D02*
X202250896Y-125439976D01*
X194171575Y-130239750D02*
X194260000Y-135840000D01*
X212391039Y-135587081D02*
X212361831Y-135368796D01*
X212047803Y-137289614D02*
X212145006Y-137091995D01*
X200199482Y-125520973D02*
X199981623Y-125597238D01*
X200874790Y-125371500D02*
X200646856Y-125407904D01*
X203320289Y-125863045D02*
X205616649Y-127194241D01*
X186569750Y-126621864D02*
X186875308Y-126764448D01*
X202024599Y-125394491D02*
X201795999Y-125362532D01*
X185933141Y-126400533D02*
X186255210Y-126500372D01*
X184599733Y-126225409D02*
X184936784Y-126235046D01*
X212294477Y-136677988D02*
X212345932Y-136463853D01*
X211188033Y-138279219D02*
X211360508Y-138142274D01*
X195763295Y-127512333D02*
X195961318Y-127413683D01*
X194644523Y-128559513D02*
X194769590Y-128377021D01*
X199981623Y-125597238D02*
X199768681Y-125686316D01*
X185272401Y-126267563D02*
X185605032Y-126322811D01*
X195219212Y-127890399D02*
X195391263Y-127751320D01*
X212400883Y-136027134D02*
X212404080Y-135806926D01*
X212345932Y-136463853D02*
X212381465Y-136246507D01*
X194176106Y-130018561D02*
X194196656Y-129798283D01*
X200646856Y-125407904D02*
X200421488Y-125457787D01*
X201104485Y-125348705D02*
X200874790Y-125371500D01*
X203117241Y-125753268D02*
X202908029Y-125655751D01*
X184936784Y-126235046D02*
X185272401Y-126267563D01*
X184262807Y-126238697D02*
X184599733Y-126225409D01*
X183927562Y-126274849D02*
X184262807Y-126238697D01*
X183595549Y-126333698D02*
X183927562Y-126274849D01*
X183595549Y-126333698D02*
X175050000Y-128150000D01*
X212381465Y-136246507D02*
X212400883Y-136027134D01*
X194435641Y-128949244D02*
X194533011Y-128750589D01*
X195057692Y-128041582D02*
X195219212Y-127890399D01*
X194171575Y-130239750D02*
X194176106Y-130018561D01*
X212361831Y-135368796D02*
X211530000Y-130520000D01*
X212404080Y-135806926D02*
X212391039Y-135587081D01*
X195961318Y-127413683D02*
X199768681Y-125686316D01*
X212227380Y-136887750D02*
X212294477Y-136677988D01*
X212145006Y-137091995D02*
X212227380Y-136887750D01*
X211936300Y-137479532D02*
X212047803Y-137289614D01*
X211811103Y-137660715D02*
X211936300Y-137479532D01*
X211360508Y-138142274D02*
X211522422Y-137992990D01*
X211005934Y-138403081D02*
X209709423Y-139216686D01*
X195572943Y-127625076D02*
X195763295Y-127512333D01*
X211672893Y-137832179D02*
X211811103Y-137660715D01*
X211005934Y-138403081D02*
X211188033Y-138279219D01*
X194769590Y-128377021D02*
X194907555Y-128204075D01*
X194533011Y-128750589D02*
X194644523Y-128559513D01*
X201795999Y-125362532D02*
X201565905Y-125344213D01*
X202693393Y-125570838D02*
X202474090Y-125498828D01*
X194196656Y-129798283D02*
X194233118Y-129580073D01*
X201565905Y-125344213D02*
X201335128Y-125339599D01*
X194352925Y-129154434D02*
X194435641Y-128949244D01*
X194233118Y-129580073D02*
X194285299Y-129365080D01*
X201335128Y-125339599D02*
X201104485Y-125348705D01*
X265837117Y-115789987D02*
X265909323Y-136080018D01*
X161661136Y-54858042D02*
X161271541Y-54915500D01*
X162054477Y-54838829D02*
X161661136Y-54858042D01*
X261656206Y-105165803D02*
X265046072Y-103629648D01*
X265821630Y-115298654D02*
X265832806Y-115544212D01*
X158018853Y-58838670D02*
X157380000Y-130570000D01*
X160518354Y-55142604D02*
X160161934Y-55310087D01*
X157380000Y-130570000D02*
X158140000Y-136640000D01*
X160161934Y-55310087D02*
X159823535Y-55511511D01*
X158102495Y-58056448D02*
X158041569Y-58445516D01*
X158336298Y-57305314D02*
X158201051Y-57675170D01*
X161271541Y-54915500D02*
X160889401Y-55010656D01*
X159506377Y-55744956D02*
X159213482Y-56008202D01*
X265832806Y-115544212D02*
X265837117Y-115789987D01*
X158201051Y-57675170D02*
X158102495Y-58056448D01*
X162054477Y-54838829D02*
X185798926Y-54838829D01*
X158041569Y-58445516D02*
X158018853Y-58838670D01*
X158506948Y-56950399D02*
X158336298Y-57305314D01*
X159823535Y-55511511D02*
X159506377Y-55744956D01*
X158947639Y-56298741D02*
X158711377Y-56613807D01*
X158711377Y-56613807D02*
X158506948Y-56950399D01*
X159213482Y-56008202D02*
X158947639Y-56298741D01*
X160889401Y-55010656D02*
X160518354Y-55142604D01*
X265336773Y-112896898D02*
X265415256Y-113129845D01*
X265487198Y-113364894D02*
X265552543Y-113601861D01*
X264572727Y-96046660D02*
X264645134Y-95818816D01*
X264295103Y-96707441D02*
X264397534Y-96491423D01*
X265415256Y-113129845D02*
X265487198Y-113364894D01*
X264940806Y-139848988D02*
X264760087Y-140157562D01*
X265394559Y-138877723D02*
X265258384Y-139208379D01*
X261298569Y-99717459D02*
X261410464Y-99670981D01*
X265251812Y-112666236D02*
X265336773Y-112896898D01*
X265160438Y-112438038D02*
X265251812Y-112666236D01*
X265909323Y-136080018D02*
X265902303Y-136437548D01*
X261410464Y-99670981D02*
X261520525Y-99620311D01*
X261520525Y-99620311D02*
X261628593Y-99565520D01*
X263900429Y-141298408D02*
X260740000Y-144770000D01*
X265258384Y-139208379D02*
X265107024Y-139532366D01*
X265620222Y-138199261D02*
X265515259Y-138541109D01*
X261734514Y-99506686D02*
X261838139Y-99443895D01*
X264490138Y-96271014D02*
X264572727Y-96046660D01*
X265902303Y-136437548D02*
X265878715Y-136794369D01*
X262133765Y-99232694D02*
X262226757Y-99155019D01*
X265062722Y-112212482D02*
X265160438Y-112438038D01*
X264958743Y-111989746D02*
X261656206Y-105165803D01*
X264565256Y-140457426D02*
X264356733Y-140747934D01*
X263931021Y-97324816D02*
X264061610Y-97124560D01*
X260835864Y-99860210D02*
X260953481Y-99831104D01*
X265515259Y-138541109D02*
X265394559Y-138877723D01*
X263322769Y-98061162D02*
X263487116Y-97887537D01*
X261939317Y-99377234D02*
X262037907Y-99306801D01*
X260717233Y-99884853D02*
X260835864Y-99860210D01*
X261838139Y-99443895D02*
X261939317Y-99377234D01*
X264061610Y-97124560D02*
X264183052Y-96918629D01*
X264183052Y-96918629D02*
X264295103Y-96707441D01*
X264707213Y-95587944D02*
X264758837Y-95354511D01*
X262226757Y-99155019D02*
X262316749Y-99073888D01*
X257500000Y-100490000D02*
X260717233Y-99884853D01*
X265803596Y-115053505D02*
X265821630Y-115298654D01*
X262403614Y-98989418D02*
X263322769Y-98061162D01*
X264645134Y-95818816D02*
X264707213Y-95587944D01*
X264134964Y-141028462D02*
X263900429Y-141298408D01*
X265778719Y-114808955D02*
X265803596Y-115053505D01*
X260953481Y-99831104D02*
X261069914Y-99797578D01*
X265747017Y-114565196D02*
X265778719Y-114808955D01*
X264760087Y-140157562D02*
X264565256Y-140457426D01*
X265552543Y-113601861D02*
X265611241Y-113840562D01*
X264958743Y-111989746D02*
X265062722Y-112212482D01*
X261069914Y-99797578D02*
X261184998Y-99759678D01*
X264356733Y-140747934D02*
X264134964Y-141028462D01*
X265107024Y-139532366D02*
X264940806Y-139848988D01*
X265709223Y-137852914D02*
X265620222Y-138199261D01*
X264397534Y-96491423D02*
X264490138Y-96271014D01*
X263791552Y-97518991D02*
X263931021Y-97324816D01*
X261184998Y-99759678D02*
X261298569Y-99717459D01*
X263487116Y-97887537D02*
X263643483Y-97706691D01*
X265782071Y-137502814D02*
X265709223Y-137852914D01*
X261628593Y-99565520D02*
X261734514Y-99506686D01*
X265860000Y-64370000D02*
X265410000Y-58360000D01*
X265878715Y-136794369D02*
X265838608Y-137149712D01*
X262037907Y-99306801D02*
X262133765Y-99232694D01*
X263643483Y-97706691D02*
X263791552Y-97518991D01*
X265838608Y-137149712D02*
X265782071Y-137502814D01*
X262316749Y-99073888D02*
X262403614Y-98989418D01*
X265708516Y-114322417D02*
X265747017Y-114565196D01*
X265663245Y-114080810D02*
X265708516Y-114322417D01*
X265611241Y-113840562D02*
X265663245Y-114080810D01*
%TD*%
M02*
