M48
; DRILL file {KiCad (5.1.6)-1} date 10/31/20 12:28:40
; FORMAT={-:-/ absolute / inch / decimal}
; #@! TF.CreationDate,2020-10-31T12:28:40-05:00
; #@! TF.GenerationSoftware,Kicad,Pcbnew,(5.1.6)-1
; #@! TF.FileFunction,Plated,1,2,PTH
FMAT,2
INCH
T1C0.0276
T2C0.0315
T3C0.0394
T4C0.0433
T5C0.0480
T6C0.0559
T7C0.0563
T8C0.1772
%
G90
G05
T1
X10.3709Y-2.887
X6.3528Y-2.8409
X10.2547Y-2.9811
X6.4138Y-2.7063
T2
X9.2673Y-4.0256
X9.5131Y-4.1977
X9.861Y-4.9578
X9.9858Y-4.6902
X8.726Y-2.9724
X8.9947Y-2.85
X9.0469Y-4.2827
X9.2476Y-4.5056
X9.4969Y-5.5157
X9.5968Y-5.5175
X9.6968Y-5.5192
X7.057Y-3.6621
X7.1358Y-3.6005
X7.2146Y-3.539
X9.9382Y-3.4035
X10.236Y-3.4401
X9.5555Y-5.9528
X9.8392Y-6.0504
X9.7833Y-4.5739
X9.7886Y-4.474
X9.7938Y-4.3742
X6.8037Y-4.1242
X7.0673Y-4.2673
X6.9289Y-6.0234
X6.9819Y-5.9386
X7.0349Y-5.8538
X8.0737Y-2.3862
X8.3547Y-2.2811
X7.8469Y-5.5697
X8.1187Y-5.4429
X6.4315Y-2.4843
X6.7301Y-2.4555
X7.3963Y-5.6182
X7.4016Y-5.9181
X7.1279Y-3.4099
X7.3736Y-3.2378
X7.5161Y-3.122
X7.6044Y-3.0751
X7.6927Y-3.0282
X6.3272Y-2.3571
X6.6258Y-2.3283
X7.124Y-4.087
X7.1823Y-3.7927
X7.2221Y-4.1064
X7.2804Y-3.8121
X7.3202Y-4.1259
X7.3785Y-3.8316
X7.4183Y-4.1453
X7.4766Y-3.851
X7.5164Y-4.1647
X7.5747Y-3.8704
X7.6145Y-4.1841
X7.6728Y-3.8898
X7.7126Y-4.2035
X7.7709Y-3.9093
X7.8107Y-4.223
X7.869Y-3.9287
X9.8024Y-3.0425
X10.0901Y-3.1089
X7.6929Y-2.702
X7.988Y-2.7123
X6.4728Y-4.9292
X6.4901Y-4.8308
X6.5075Y-4.7323
X8.9348Y-4.7888
X9.1154Y-4.5492
X10.0406Y-4.9563
X10.1315Y-4.9978
X10.2225Y-5.0392
X9.6846Y-4.8469
X9.73Y-4.7577
X9.7754Y-4.6686
X9.2039Y-5.1933
X9.5032Y-5.1724
X10.3205Y-5.5323
X10.3283Y-5.2324
X9.6661Y-5.2016
X9.9346Y-5.3354
X6.6406Y-5.663
X6.8848Y-5.4888
X9.3957Y-6.0976
X9.692Y-6.1446
X6.3622Y-4.176
X6.4271Y-3.8831
X9.9791Y-4.3685
X10.2758Y-4.3242
X8.3041Y-2.8259
X8.3969Y-2.5406
X7.7756Y-5.9933
X8.0701Y-5.9361
X8.4417Y-2.8622
X8.6159Y-3.1064
X6.3468Y-3.5376
X6.5252Y-3.7787
X9.0085Y-3.3639
X9.1953Y-3.1291
X7.7632Y-3.3496
X8.0094Y-3.1866
X7.1218Y-4.4899
X7.202Y-4.2008
X7.0776Y-2.3346
X7.3149Y-2.159
X9.3634Y-3.9453
X9.6076Y-4.1195
X6.2921Y-5.8205
X6.5829Y-5.8717
X6.6546Y-4.9783
X6.7076Y-4.8935
X6.7606Y-4.8087
X9.2796Y-3.049
X9.361Y-2.9909
X9.4424Y-2.9329
X6.8256Y-3.3002
X7.0205Y-3.5283
X8.8311Y-2.7205
X8.832Y-2.6205
X8.8328Y-2.5205
X7.2236Y-6.3272
X7.3384Y-6.05
X9.488Y-5.7573
X9.5878Y-5.7512
X9.6876Y-5.7451
X9.0787Y-5.8283
X9.3448Y-5.9669
X8.8185Y-5.5343
X8.9357Y-5.8104
X8.1143Y-2.7067
X8.2843Y-2.4594
X7.7374Y-5.1862
X8.0297Y-5.1187
X7.4741Y-5.4759
X7.5589Y-5.5289
X7.6437Y-5.5819
X9.5951Y-2.6564
X9.8299Y-2.4697
X6.226Y-5.3795
X6.526Y-5.3795
X8.0079Y-3.5374
X8.3059Y-3.5034
X6.7295Y-3.7657
X6.9926Y-3.8998
X8.3319Y-2.987
X8.5287Y-3.2134
X7.0594Y-5.5699
X7.2287Y-5.8118
X7.3488Y-3.7018
X7.3776Y-3.4031
X7.515Y-6.2764
X7.585Y-5.9847
X7.2447Y-4.515
X7.302Y-4.2205
X9.0717Y-2.7535
X9.143Y-2.6835
X9.2143Y-2.6134
X9.1169Y-4.2008
X9.3399Y-4.4015
X6.7741Y-4.3195
X6.8658Y-4.3593
X6.9575Y-4.3992
X8.8047Y-3.337
X9.015Y-3.551
X8.9043Y-3.228
X8.9603Y-3.145
X9.0162Y-3.0621
X9.1909Y-4.113
X9.4191Y-4.3078
X7.8839Y-5.6961
X8.1579Y-5.574
X9.2504Y-5.3268
X9.549Y-5.298
X9.728Y-3.887
X9.7749Y-4.1833
X6.7319Y-5.9622
X6.8657Y-6.2307
X8.0925Y-5.7626
X8.1791Y-5.8126
X8.2657Y-5.8626
X9.4039Y-2.4927
X9.637Y-2.3039
X6.9201Y-5.3642
X7.2124Y-5.2967
X8.0623Y-3.0017
X8.2213Y-2.7472
X7.8698Y-2.3234
X7.8794Y-2.4229
X7.889Y-2.5224
X8.4099Y-3.9059
X8.4256Y-3.6063
X10.1303Y-4.735
X10.2169Y-4.785
X10.3035Y-4.835
X7.5841Y-3.7659
X7.6362Y-3.4705
X9.2863Y-5.786
X9.3146Y-5.4921
X8.5591Y-3.6382
X8.8078Y-3.8059
X7.6972Y-4.4335
X7.789Y-4.3936
X7.8807Y-4.3537
X9.3119Y-3.4236
X9.5114Y-3.2059
X8.6616Y-4.7218
X8.9012Y-4.9024
X7.3762Y-5.2327
X7.648Y-5.348
X9.0083Y-5.5189
X9.0521Y-5.6088
X9.0959Y-5.6987
X10.1087Y-5.515
X10.1888Y-5.2259
X9.8181Y-5.0862
X10.0889Y-5.2154
X9.9386Y-3.5528
X10.1916Y-3.7139
X9.1327Y-2.9755
X9.3449Y-2.7634
X8.2331Y-6.095
X8.5276Y-6.0378
X7.7781Y-2.9778
X7.8776Y-2.9682
X7.9772Y-2.9587
X9.9777Y-5.6144
X10.2654Y-5.6996
X9.2496Y-4.7898
X9.3928Y-5.0534
X7.8102Y-5.4413
X8.0874Y-5.3265
X7.0603Y-2.7903
X7.278Y-2.9969
X7.5445Y-4.6984
X7.8069Y-4.553
X7.8063Y-3.8144
X7.889Y-3.526
X6.5061Y-4.0482
X6.6031Y-4.0724
X6.7002Y-4.0966
X10.0138Y-4.2256
X10.3014Y-4.1404
X8.6634Y-5.4587
X8.9525Y-5.3785
X7.6935Y-3.7876
X7.761Y-3.4953
X6.6141Y-4.4835
X6.8575Y-4.6508
X6.5287Y-3.0358
X6.5366Y-2.7359
X6.6287Y-3.0384
X6.6366Y-2.7385
X6.7287Y-3.0411
X6.7365Y-2.7412
X6.8286Y-3.0437
X6.8365Y-2.7438
X6.5689Y-5.5539
X6.8205Y-5.3905
X8.6913Y-4.0767
X8.7571Y-4.0014
X8.823Y-3.9262
X8.8889Y-3.851
X8.917Y-4.2743
X8.9548Y-3.7757
X8.9829Y-4.1991
X9.0206Y-3.7005
X9.0487Y-4.1238
X9.0865Y-3.6252
X9.1146Y-4.0486
X9.1524Y-3.55
X9.1805Y-3.9733
X9.2463Y-3.8981
X9.3122Y-3.8228
X9.3781Y-3.7476
X7.4947Y-4.5596
X7.5339Y-4.2622
X7.3674Y-4.5467
X7.4169Y-4.2508
X7.6128Y-2.3864
X7.6597Y-2.4747
X7.7067Y-2.563
X8.648Y-3.524
X8.871Y-3.7248
X8.9807Y-5.9054
X9.0083Y-6.0016
X9.0358Y-6.0977
X9.8406Y-2.8851
X9.9081Y-2.5928
X9.938Y-2.9076
X10.0055Y-2.6152
X10.0355Y-2.9301
X10.103Y-2.6377
X10.1329Y-2.9525
X10.2004Y-2.6602
X6.8917Y-5.0453
X7.0114Y-4.7702
X7.015Y-5.0858
X7.1151Y-4.803
X7.7685Y-5.3154
X8.0554Y-5.2276
X9.8535Y-3.2378
X10.1513Y-3.2744
X9.0331Y-2.4763
X9.2453Y-2.2642
X6.5946Y-5.0614
X6.8433Y-5.2291
X7.5134Y-2.5744
X7.5835Y-2.8661
X8.5988Y-5.2476
X8.876Y-5.1328
X6.7707Y-2.2925
X6.9846Y-2.5028
X6.5362Y-2.6248
X6.8315Y-2.6248
X7.4779Y-3.7463
X7.5067Y-3.4476
X8.0951Y-5.0076
X8.1274Y-5.1023
X8.1596Y-5.197
X8.1918Y-5.2916
X8.224Y-5.3863
X8.2563Y-5.481
X8.2885Y-5.5756
X8.3207Y-5.6703
X8.3791Y-4.911
X8.4114Y-5.0056
X8.4436Y-5.1003
X8.4758Y-5.195
X8.508Y-5.2896
X8.5403Y-5.3843
X8.5725Y-5.479
X8.6047Y-5.5736
X8.6317Y-5.7759
X8.7205Y-6.0575
X6.3287Y-5.5525
X6.424Y-5.5772
X8.7276Y-3.4343
X8.9505Y-3.635
X7.035Y-6.3354
X7.1498Y-6.0583
X9.5533Y-3.702
X9.5689Y-3.8008
X9.5845Y-3.8996
X9.8252Y-5.7862
X9.9775Y-6.0447
X7.6201Y-4.7997
X7.7398Y-5.0748
X10.0091Y-4.5571
X10.3068Y-4.5936
X6.3638Y-4.4929
X6.5665Y-4.2717
X8.4585Y-4.7873
X8.5389Y-4.8468
X8.6193Y-4.9063
X7.2043Y-5.3925
X7.2617Y-5.4744
X7.319Y-5.5564
X9.5956Y-2.9814
X9.7433Y-3.2425
X6.7277Y-5.823
X6.8111Y-5.7678
X6.8945Y-5.7126
X8.5549Y-2.482
X8.635Y-2.1929
X6.3949Y-5.0
X6.5335Y-5.2661
X7.2337Y-2.7223
X7.4205Y-2.9571
X10.2917Y-3.8217
X10.4349Y-4.0799
X7.3843Y-2.5205
X7.5063Y-2.2464
X8.5376Y-4.07
X8.5533Y-3.9712
X8.5689Y-3.8724
X8.5587Y-5.1323
X8.8358Y-5.0175
X8.6283Y-5.3504
X8.9137Y-5.2577
X9.6278Y-2.4842
X9.8559Y-2.2894
X9.467Y-4.5045
X9.4902Y-4.7988
T3
X7.1161Y-3.0311
X9.8173Y-3.3681
X6.7319Y-3.2732
X6.4502Y-6.3059
X6.5134Y-3.4441
X6.4425Y-3.1984
X8.2252Y-3.3807
X10.0283Y-4.0441
X10.2689Y-2.4114
X7.4071Y-4.9224
X9.7154Y-5.1
X7.6929Y-6.0697
X8.3063Y-3.6417
X7.5299Y-4.8902
X9.0748Y-4.8035
X9.9815Y-2.339
X7.8913Y-6.1634
X6.3215Y-6.0362
T4
X6.5894Y-6.0067
X6.6517Y-6.3001
T5
X8.5165Y-4.6965
X8.1083Y-4.6965
T6
X8.5165Y-4.5744
X8.1083Y-4.5744
T7
X8.5165Y-4.2476
X8.1083Y-4.2476
T8
X7.2543Y-4.687
X8.0776Y-6.1287
X6.6961Y-3.5591
X8.5319Y-3.4134
X9.9134Y-3.8878
X7.748Y-5.8122
X7.0764Y-3.2181
X8.1949Y-3.1039
X9.0571Y-5.0945
X10.1441Y-6.0661
X9.5488Y-5.0118
X7.2Y-5.1339
X9.6646Y-3.4831
T0
M30
